%TF.GenerationSoftware,KiCad,Pcbnew,10.0.0*%
%TF.CreationDate,2026-07-13T13:08:28+10:00*%
%TF.ProjectId,Active-Damper-Slave,41637469-7665-42d4-9461-6d7065722d53,rev?*%
%TF.SameCoordinates,Original*%
%TF.FileFunction,Copper,L4,Bot*%
%TF.FilePolarity,Positive*%
%FSLAX46Y46*%
G04 Gerber Fmt 4.6, Leading zero omitted, Abs format (unit mm)*
G04 Created by KiCad (PCBNEW 10.0.0) date 2026-07-13 13:08:28*
%MOMM*%
%LPD*%
G01*
G04 APERTURE LIST*
G04 Aperture macros list*
%AMRoundRect*
0 Rectangle with rounded corners*
0 $1 Rounding radius*
0 $2 $3 $4 $5 $6 $7 $8 $9 X,Y pos of 4 corners*
0 Add a 4 corners polygon primitive as box body*
4,1,4,$2,$3,$4,$5,$6,$7,$8,$9,$2,$3,0*
0 Add four circle primitives for the rounded corners*
1,1,$1+$1,$2,$3*
1,1,$1+$1,$4,$5*
1,1,$1+$1,$6,$7*
1,1,$1+$1,$8,$9*
0 Add four rect primitives between the rounded corners*
20,1,$1+$1,$2,$3,$4,$5,0*
20,1,$1+$1,$4,$5,$6,$7,0*
20,1,$1+$1,$6,$7,$8,$9,0*
20,1,$1+$1,$8,$9,$2,$3,0*%
%AMFreePoly0*
4,1,23,0.500000,-0.750000,0.000000,-0.750000,0.000000,-0.745722,-0.065263,-0.745722,-0.191342,-0.711940,-0.304381,-0.646677,-0.396677,-0.554381,-0.461940,-0.441342,-0.495722,-0.315263,-0.495722,-0.250000,-0.500000,-0.250000,-0.500000,0.250000,-0.495722,0.250000,-0.495722,0.315263,-0.461940,0.441342,-0.396677,0.554381,-0.304381,0.646677,-0.191342,0.711940,-0.065263,0.745722,0.000000,0.745722,
0.000000,0.750000,0.500000,0.750000,0.500000,-0.750000,0.500000,-0.750000,$1*%
%AMFreePoly1*
4,1,23,0.000000,0.745722,0.065263,0.745722,0.191342,0.711940,0.304381,0.646677,0.396677,0.554381,0.461940,0.441342,0.495722,0.315263,0.495722,0.250000,0.500000,0.250000,0.500000,-0.250000,0.495722,-0.250000,0.495722,-0.315263,0.461940,-0.441342,0.396677,-0.554381,0.304381,-0.646677,0.191342,-0.711940,0.065263,-0.745722,0.000000,-0.745722,0.000000,-0.750000,-0.500000,-0.750000,
-0.500000,0.750000,0.000000,0.750000,0.000000,0.745722,0.000000,0.745722,$1*%
%AMFreePoly2*
4,1,23,0.550000,-0.750000,0.000000,-0.750000,0.000000,-0.745722,-0.065263,-0.745722,-0.191342,-0.711940,-0.304381,-0.646677,-0.396677,-0.554381,-0.461940,-0.441342,-0.495722,-0.315263,-0.495722,-0.250000,-0.500000,-0.250000,-0.500000,0.250000,-0.495722,0.250000,-0.495722,0.315263,-0.461940,0.441342,-0.396677,0.554381,-0.304381,0.646677,-0.191342,0.711940,-0.065263,0.745722,0.000000,0.745722,
0.000000,0.750000,0.550000,0.750000,0.550000,-0.750000,0.550000,-0.750000,$1*%
%AMFreePoly3*
4,1,23,0.000000,0.745722,0.065263,0.745722,0.191342,0.711940,0.304381,0.646677,0.396677,0.554381,0.461940,0.441342,0.495722,0.315263,0.495722,0.250000,0.500000,0.250000,0.500000,-0.250000,0.495722,-0.250000,0.495722,-0.315263,0.461940,-0.441342,0.396677,-0.554381,0.304381,-0.646677,0.191342,-0.711940,0.065263,-0.745722,0.000000,-0.745722,0.000000,-0.750000,-0.550000,-0.750000,
-0.550000,0.750000,0.000000,0.750000,0.000000,0.745722,0.000000,0.745722,$1*%
G04 Aperture macros list end*
%TA.AperFunction,EtchedComponent*%
%ADD10C,0.000000*%
%TD*%
%TA.AperFunction,ComponentPad*%
%ADD11RoundRect,0.250000X-0.625000X0.350000X-0.625000X-0.350000X0.625000X-0.350000X0.625000X0.350000X0*%
%TD*%
%TA.AperFunction,ComponentPad*%
%ADD12O,1.750000X1.200000*%
%TD*%
%TA.AperFunction,HeatsinkPad*%
%ADD13C,0.500000*%
%TD*%
%TA.AperFunction,HeatsinkPad*%
%ADD14R,3.500000X3.500000*%
%TD*%
%TA.AperFunction,ComponentPad*%
%ADD15C,3.600000*%
%TD*%
%TA.AperFunction,ConnectorPad*%
%ADD16C,5.500000*%
%TD*%
%TA.AperFunction,ComponentPad*%
%ADD17RoundRect,0.250000X-0.350000X-0.625000X0.350000X-0.625000X0.350000X0.625000X-0.350000X0.625000X0*%
%TD*%
%TA.AperFunction,ComponentPad*%
%ADD18O,1.200000X1.750000*%
%TD*%
%TA.AperFunction,ComponentPad*%
%ADD19O,1.000000X2.100000*%
%TD*%
%TA.AperFunction,ComponentPad*%
%ADD20O,1.000000X1.600000*%
%TD*%
%TA.AperFunction,ComponentPad*%
%ADD21C,0.500000*%
%TD*%
%TA.AperFunction,ComponentPad*%
%ADD22RoundRect,0.250000X0.550000X-0.550000X0.550000X0.550000X-0.550000X0.550000X-0.550000X-0.550000X0*%
%TD*%
%TA.AperFunction,ComponentPad*%
%ADD23C,1.600000*%
%TD*%
%TA.AperFunction,ComponentPad*%
%ADD24R,1.100000X1.100000*%
%TD*%
%TA.AperFunction,ComponentPad*%
%ADD25C,1.100000*%
%TD*%
%TA.AperFunction,SMDPad,CuDef*%
%ADD26FreePoly0,270.000000*%
%TD*%
%TA.AperFunction,SMDPad,CuDef*%
%ADD27FreePoly1,270.000000*%
%TD*%
%TA.AperFunction,SMDPad,CuDef*%
%ADD28R,1.500000X0.650000*%
%TD*%
%TA.AperFunction,SMDPad,CuDef*%
%ADD29RoundRect,0.249999X1.075001X-0.512501X1.075001X0.512501X-1.075001X0.512501X-1.075001X-0.512501X0*%
%TD*%
%TA.AperFunction,SMDPad,CuDef*%
%ADD30FreePoly0,90.000000*%
%TD*%
%TA.AperFunction,SMDPad,CuDef*%
%ADD31FreePoly1,90.000000*%
%TD*%
%TA.AperFunction,SMDPad,CuDef*%
%ADD32FreePoly2,180.000000*%
%TD*%
%TA.AperFunction,SMDPad,CuDef*%
%ADD33R,1.000000X1.500000*%
%TD*%
%TA.AperFunction,SMDPad,CuDef*%
%ADD34FreePoly3,180.000000*%
%TD*%
G04 APERTURE END LIST*
D10*
%TA.AperFunction,EtchedComponent*%
%TO.C,JP2*%
G36*
X148250000Y-104550000D02*
G01*
X147750000Y-104550000D01*
X147750000Y-103950000D01*
X148250000Y-103950000D01*
X148250000Y-104550000D01*
G37*
%TD.AperFunction*%
%TD*%
D11*
%TO.P,J8,1,Pin_1_1*%
%TO.N,/CANL_2*%
X133450000Y-97000000D03*
D12*
%TO.P,J8,2,Pin_2_2*%
%TO.N,/CANH_2*%
X133450000Y-99000000D03*
%TO.P,J8,3,Pin_3_3*%
%TO.N,GND*%
X133450000Y-101000000D03*
%TD*%
D13*
%TO.P,U5,29,GND_29*%
%TO.N,GND*%
X142750000Y-109550000D03*
X141750000Y-109550000D03*
X140750000Y-109550000D03*
X139750000Y-109550000D03*
X142750000Y-110550000D03*
X141750000Y-110550000D03*
X140750000Y-110550000D03*
X139750000Y-110550000D03*
D14*
X141250000Y-111050000D03*
D13*
X142750000Y-111550000D03*
X141750000Y-111550000D03*
X140750000Y-111550000D03*
X139750000Y-111550000D03*
X142750000Y-112550000D03*
X141750000Y-112550000D03*
X140750000Y-112550000D03*
X139750000Y-112550000D03*
%TD*%
D15*
%TO.P,H6,1,1_1*%
%TO.N,GND*%
X165500000Y-84500000D03*
D16*
X165500000Y-84500000D03*
%TD*%
D15*
%TO.P,H5,1,1_1*%
%TO.N,GND*%
X165500000Y-115500000D03*
D16*
X165500000Y-115500000D03*
%TD*%
D17*
%TO.P,J7,1,Pin_1_1*%
%TO.N,GND*%
X155500000Y-116550000D03*
D18*
%TO.P,J7,2,Pin_2_2*%
%TO.N,IGN*%
X157500000Y-116550000D03*
%TO.P,J7,3,Pin_3_3*%
%TO.N,+12V*%
X159500000Y-116550000D03*
%TD*%
D19*
%TO.P,J6,SH,SHIELD_SH*%
%TO.N,GND*%
X161430000Y-84030000D03*
D20*
X161430000Y-79850000D03*
D19*
X152790000Y-84030000D03*
D20*
X152790000Y-79850000D03*
%TD*%
D21*
%TO.P,U2,9,GND_(EP)_9*%
%TO.N,GND*%
X168800000Y-107900000D03*
X167800000Y-107900000D03*
X166700000Y-107900000D03*
X168800000Y-109500000D03*
X167800000Y-109500000D03*
X166700000Y-109500000D03*
%TD*%
D17*
%TO.P,J2,1,Pin_1_1*%
%TO.N,/BOUT2*%
X144500000Y-116550000D03*
D18*
%TO.P,J2,2,Pin_2_2*%
%TO.N,/BOUT1*%
X146500000Y-116550000D03*
%TO.P,J2,3,Pin_3_3*%
%TO.N,/AOUT2*%
X148500000Y-116550000D03*
%TO.P,J2,4,Pin_4_4*%
%TO.N,/AOUT1*%
X150500000Y-116550000D03*
%TD*%
D11*
%TO.P,J9,1,Pin_1_1*%
%TO.N,/CANL_1*%
X133450000Y-106000000D03*
D12*
%TO.P,J9,2,Pin_2_2*%
%TO.N,/CANH_1*%
X133450000Y-108000000D03*
%TO.P,J9,3,Pin_3_3*%
%TO.N,GND*%
X133450000Y-110000000D03*
%TD*%
D22*
%TO.P,C3,1*%
%TO.N,+12V*%
X151000000Y-112000000D03*
D23*
%TO.P,C3,2*%
%TO.N,GND*%
X151000000Y-108500000D03*
%TD*%
D15*
%TO.P,H8,1,1_1*%
%TO.N,GND*%
X134500000Y-84500000D03*
D16*
X134500000Y-84500000D03*
%TD*%
D15*
%TO.P,H7,1,1_1*%
%TO.N,GND*%
X134500000Y-115500000D03*
D16*
X134500000Y-115500000D03*
%TD*%
D24*
%TO.P,J3,1,1_1*%
%TO.N,+3.3V*%
X142440000Y-82500000D03*
D25*
%TO.P,J3,2,2_2*%
%TO.N,/SWDIO{slash}TMS*%
X142440000Y-81230000D03*
%TO.P,J3,3,3_3*%
%TO.N,GND*%
X143710000Y-82500000D03*
%TO.P,J3,4,4_4*%
%TO.N,/SWCLK{slash}TCK*%
X143710000Y-81230000D03*
%TO.P,J3,5,5_5*%
%TO.N,unconnected-(J3-Pad5)*%
X144980000Y-82500000D03*
%TO.P,J3,6,6_6*%
%TO.N,/SWO{slash}TDO*%
X144980000Y-81230000D03*
%TO.P,J3,7,7_7*%
%TO.N,unconnected-(J3-Pad7)*%
X146250000Y-82500000D03*
%TO.P,J3,8,8_8*%
%TO.N,unconnected-(J3-Pad8)*%
X146250000Y-81230000D03*
%TO.P,J3,9,9_9*%
%TO.N,GND*%
X147520000Y-82500000D03*
%TO.P,J3,10,10_10*%
%TO.N,/~{RESET}*%
X147520000Y-81230000D03*
%TD*%
D26*
%TO.P,JP3,1,A_1*%
%TO.N,Net-(JP3-A)*%
X138500000Y-90100000D03*
D27*
%TO.P,JP3,2,B_2*%
%TO.N,Net-(JP3-B)*%
X138500000Y-91400000D03*
%TD*%
D28*
%TO.P,IC2,1,VDD5V_1*%
%TO.N,+3.3V*%
X153790000Y-97845000D03*
%TO.P,IC2,2,VDD3V3_2*%
X153790000Y-99115000D03*
%TO.P,IC2,3,OUT_3*%
%TO.N,/OUT*%
X153790000Y-100385000D03*
%TO.P,IC2,4,GND_4*%
%TO.N,GND*%
X153790000Y-101655000D03*
%TO.P,IC2,5,PGO_5*%
%TO.N,Net-(IC2-PGO)*%
X148390000Y-101655000D03*
%TO.P,IC2,6,SDA_6*%
%TO.N,/SDA*%
X148390000Y-100385000D03*
%TO.P,IC2,7,SCL_7*%
%TO.N,/SCL*%
X148390000Y-99115000D03*
%TO.P,IC2,8,DIR_8*%
%TO.N,/DIR*%
X148390000Y-97845000D03*
%TD*%
D29*
%TO.P,R4,1*%
%TO.N,Net-(U5-BRB)*%
X143370000Y-105825000D03*
%TO.P,R4,2*%
%TO.N,GND*%
X143370000Y-101150000D03*
%TD*%
D30*
%TO.P,JP4,1,A_1*%
%TO.N,Net-(JP4-A)*%
X148650000Y-89950000D03*
D31*
%TO.P,JP4,2,B_2*%
%TO.N,Net-(JP4-B)*%
X148650000Y-88650000D03*
%TD*%
D32*
%TO.P,JP5,1,A_1*%
%TO.N,IGN*%
X158800000Y-119000000D03*
D33*
%TO.P,JP5,2,C_2*%
%TO.N,Net-(JP5-C)*%
X157500000Y-119000000D03*
D34*
%TO.P,JP5,3,B_3*%
%TO.N,+12V*%
X156200000Y-119000000D03*
%TD*%
D29*
%TO.P,R5,1*%
%TO.N,Net-(U5-BRA)*%
X139800000Y-105825000D03*
%TO.P,R5,2*%
%TO.N,GND*%
X139800000Y-101150000D03*
%TD*%
D33*
%TO.P,JP2,1,A_1*%
%TO.N,GND*%
X148650000Y-104250000D03*
%TO.P,JP2,2,B_2*%
%TO.N,Net-(IC2-PGO)*%
X147350000Y-104250000D03*
%TD*%
%TA.AperFunction,Conductor*%
%TO.N,GND*%
G36*
X168458363Y-79370185D02*
G01*
X168479005Y-79386819D01*
X170613181Y-81520995D01*
X170646666Y-81582318D01*
X170649500Y-81608676D01*
X170649500Y-118391324D01*
X170629815Y-118458363D01*
X170613181Y-118479005D01*
X168479005Y-120613181D01*
X168417682Y-120646666D01*
X168391324Y-120649500D01*
X131608676Y-120649500D01*
X131541637Y-120629815D01*
X131520995Y-120613181D01*
X129591980Y-118684166D01*
X155194500Y-118684166D01*
X155194500Y-119315833D01*
X155211724Y-119446658D01*
X155245800Y-119573829D01*
X155296302Y-119695750D01*
X155296303Y-119695751D01*
X155362120Y-119809749D01*
X155362132Y-119809767D01*
X155442455Y-119914444D01*
X155442459Y-119914449D01*
X155535551Y-120007541D01*
X155535555Y-120007544D01*
X155640232Y-120087867D01*
X155640236Y-120087869D01*
X155640243Y-120087875D01*
X155640250Y-120087879D01*
X155754248Y-120153696D01*
X155754249Y-120153697D01*
X155754252Y-120153698D01*
X155754257Y-120153701D01*
X155876171Y-120204200D01*
X156003338Y-120238275D01*
X156134174Y-120255500D01*
X156134181Y-120255500D01*
X156750000Y-120255500D01*
X156821940Y-120250355D01*
X156833726Y-120246893D01*
X156884559Y-120245534D01*
X156884804Y-120243262D01*
X156901387Y-120245044D01*
X156952127Y-120250500D01*
X158047872Y-120250499D01*
X158095721Y-120245355D01*
X158107475Y-120244092D01*
X158107476Y-120244091D01*
X158107483Y-120244091D01*
X158107489Y-120244088D01*
X158108478Y-120243855D01*
X158110536Y-120243762D01*
X158115197Y-120243262D01*
X158115228Y-120243553D01*
X158154651Y-120241791D01*
X158250000Y-120255500D01*
X158250003Y-120255500D01*
X158865819Y-120255500D01*
X158865826Y-120255500D01*
X158996662Y-120238275D01*
X159123829Y-120204200D01*
X159245743Y-120153701D01*
X159359757Y-120087875D01*
X159464449Y-120007541D01*
X159557541Y-119914449D01*
X159637875Y-119809757D01*
X159703701Y-119695743D01*
X159754200Y-119573829D01*
X159788275Y-119446662D01*
X159805500Y-119315826D01*
X159805500Y-118684174D01*
X159788275Y-118553338D01*
X159754200Y-118426171D01*
X159703701Y-118304257D01*
X159703698Y-118304252D01*
X159703697Y-118304249D01*
X159703696Y-118304248D01*
X159637879Y-118190250D01*
X159637875Y-118190243D01*
X159578067Y-118112301D01*
X159552874Y-118047136D01*
X159566912Y-117978691D01*
X159615725Y-117928700D01*
X159657047Y-117914344D01*
X159757696Y-117898403D01*
X159757696Y-117898402D01*
X159757701Y-117898402D01*
X159922445Y-117844873D01*
X160076788Y-117766232D01*
X160216928Y-117664414D01*
X160339414Y-117541928D01*
X160441232Y-117401788D01*
X160519873Y-117247445D01*
X160573402Y-117082701D01*
X160600500Y-116911611D01*
X160600500Y-116188389D01*
X160573402Y-116017299D01*
X160519873Y-115852555D01*
X160441232Y-115698212D01*
X160339414Y-115558072D01*
X160216928Y-115435586D01*
X160076788Y-115333768D01*
X159922445Y-115255127D01*
X159757701Y-115201598D01*
X159757699Y-115201597D01*
X159757698Y-115201597D01*
X159626271Y-115180781D01*
X159586611Y-115174500D01*
X159413389Y-115174500D01*
X159373728Y-115180781D01*
X159242302Y-115201597D01*
X159077552Y-115255128D01*
X158923211Y-115333768D01*
X158843256Y-115391859D01*
X158783072Y-115435586D01*
X158783070Y-115435588D01*
X158783069Y-115435588D01*
X158660588Y-115558069D01*
X158660581Y-115558078D01*
X158600317Y-115641023D01*
X158544987Y-115683689D01*
X158475374Y-115689667D01*
X158413579Y-115657061D01*
X158399683Y-115641023D01*
X158339418Y-115558078D01*
X158339414Y-115558072D01*
X158216928Y-115435586D01*
X158076788Y-115333768D01*
X157922445Y-115255127D01*
X157757701Y-115201598D01*
X157757699Y-115201597D01*
X157757698Y-115201597D01*
X157626271Y-115180781D01*
X157586611Y-115174500D01*
X157413389Y-115174500D01*
X157373728Y-115180781D01*
X157242302Y-115201597D01*
X157077552Y-115255128D01*
X156923211Y-115333768D01*
X156843256Y-115391859D01*
X156783072Y-115435586D01*
X156783070Y-115435588D01*
X156783069Y-115435588D01*
X156660588Y-115558069D01*
X156660588Y-115558070D01*
X156660586Y-115558072D01*
X156660582Y-115558078D01*
X156558768Y-115698211D01*
X156480128Y-115852552D01*
X156426597Y-116017302D01*
X156399500Y-116188389D01*
X156399500Y-116911611D01*
X156426598Y-117082701D01*
X156480127Y-117247445D01*
X156558768Y-117401788D01*
X156660586Y-117541928D01*
X156660587Y-117541929D01*
X156663450Y-117545869D01*
X156662024Y-117546905D01*
X156687485Y-117603745D01*
X156677039Y-117672829D01*
X156630902Y-117725300D01*
X156564622Y-117744500D01*
X156134166Y-117744500D01*
X156003341Y-117761724D01*
X155876170Y-117795800D01*
X155754249Y-117846302D01*
X155754248Y-117846303D01*
X155640250Y-117912120D01*
X155640232Y-117912132D01*
X155535555Y-117992455D01*
X155535545Y-117992464D01*
X155442464Y-118085545D01*
X155442455Y-118085555D01*
X155362132Y-118190232D01*
X155362120Y-118190250D01*
X155296303Y-118304248D01*
X155296302Y-118304249D01*
X155245800Y-118426170D01*
X155211724Y-118553341D01*
X155194500Y-118684166D01*
X129591980Y-118684166D01*
X129386819Y-118479005D01*
X129353334Y-118417682D01*
X129350500Y-118391324D01*
X129350500Y-115874983D01*
X143399500Y-115874983D01*
X143399500Y-117225001D01*
X143399501Y-117225018D01*
X143410000Y-117327796D01*
X143410001Y-117327799D01*
X143465185Y-117494331D01*
X143465187Y-117494336D01*
X143488870Y-117532732D01*
X143557288Y-117643656D01*
X143681344Y-117767712D01*
X143830666Y-117859814D01*
X143997203Y-117914999D01*
X144099991Y-117925500D01*
X144900008Y-117925499D01*
X144900016Y-117925498D01*
X144900019Y-117925498D01*
X144956302Y-117919748D01*
X145002797Y-117914999D01*
X145169334Y-117859814D01*
X145318656Y-117767712D01*
X145442712Y-117643656D01*
X145482310Y-117579456D01*
X145534258Y-117532732D01*
X145603220Y-117521509D01*
X145667303Y-117549352D01*
X145675530Y-117556872D01*
X145783072Y-117664414D01*
X145923212Y-117766232D01*
X146077555Y-117844873D01*
X146242299Y-117898402D01*
X146413389Y-117925500D01*
X146413390Y-117925500D01*
X146586610Y-117925500D01*
X146586611Y-117925500D01*
X146757701Y-117898402D01*
X146922445Y-117844873D01*
X147076788Y-117766232D01*
X147216928Y-117664414D01*
X147339414Y-117541928D01*
X147399682Y-117458975D01*
X147455012Y-117416311D01*
X147524626Y-117410332D01*
X147586421Y-117442938D01*
X147600315Y-117458973D01*
X147660586Y-117541928D01*
X147783072Y-117664414D01*
X147923212Y-117766232D01*
X148077555Y-117844873D01*
X148242299Y-117898402D01*
X148413389Y-117925500D01*
X148413390Y-117925500D01*
X148586610Y-117925500D01*
X148586611Y-117925500D01*
X148757701Y-117898402D01*
X148922445Y-117844873D01*
X149076788Y-117766232D01*
X149216928Y-117664414D01*
X149339414Y-117541928D01*
X149399682Y-117458975D01*
X149455012Y-117416311D01*
X149524626Y-117410332D01*
X149586421Y-117442938D01*
X149600315Y-117458973D01*
X149660586Y-117541928D01*
X149783072Y-117664414D01*
X149923212Y-117766232D01*
X150077555Y-117844873D01*
X150242299Y-117898402D01*
X150413389Y-117925500D01*
X150413390Y-117925500D01*
X150586610Y-117925500D01*
X150586611Y-117925500D01*
X150757701Y-117898402D01*
X150922445Y-117844873D01*
X151076788Y-117766232D01*
X151216928Y-117664414D01*
X151339414Y-117541928D01*
X151441232Y-117401788D01*
X151519873Y-117247445D01*
X151573402Y-117082701D01*
X151600500Y-116911611D01*
X151600500Y-116188389D01*
X151573402Y-116017299D01*
X151519873Y-115852555D01*
X151441232Y-115698212D01*
X151339414Y-115558072D01*
X151216928Y-115435586D01*
X151076788Y-115333768D01*
X150922445Y-115255127D01*
X150757701Y-115201598D01*
X150757699Y-115201597D01*
X150757698Y-115201597D01*
X150626271Y-115180781D01*
X150586611Y-115174500D01*
X150413389Y-115174500D01*
X150373728Y-115180781D01*
X150242302Y-115201597D01*
X150077552Y-115255128D01*
X149923211Y-115333768D01*
X149843256Y-115391859D01*
X149783072Y-115435586D01*
X149783070Y-115435588D01*
X149783069Y-115435588D01*
X149660588Y-115558069D01*
X149660581Y-115558078D01*
X149600317Y-115641023D01*
X149544987Y-115683689D01*
X149475374Y-115689667D01*
X149413579Y-115657061D01*
X149399683Y-115641023D01*
X149339418Y-115558078D01*
X149339414Y-115558072D01*
X149216928Y-115435586D01*
X149076788Y-115333768D01*
X148922445Y-115255127D01*
X148757701Y-115201598D01*
X148757699Y-115201597D01*
X148757698Y-115201597D01*
X148626271Y-115180781D01*
X148586611Y-115174500D01*
X148413389Y-115174500D01*
X148373728Y-115180781D01*
X148242302Y-115201597D01*
X148077552Y-115255128D01*
X147923211Y-115333768D01*
X147843256Y-115391859D01*
X147783072Y-115435586D01*
X147783070Y-115435588D01*
X147783069Y-115435588D01*
X147660588Y-115558069D01*
X147660581Y-115558078D01*
X147600317Y-115641023D01*
X147544987Y-115683689D01*
X147475374Y-115689667D01*
X147413579Y-115657061D01*
X147399683Y-115641023D01*
X147339418Y-115558078D01*
X147339414Y-115558072D01*
X147216928Y-115435586D01*
X147076788Y-115333768D01*
X146922445Y-115255127D01*
X146757701Y-115201598D01*
X146757699Y-115201597D01*
X146757698Y-115201597D01*
X146626271Y-115180781D01*
X146586611Y-115174500D01*
X146413389Y-115174500D01*
X146373728Y-115180781D01*
X146242302Y-115201597D01*
X146077552Y-115255128D01*
X145923211Y-115333768D01*
X145783073Y-115435585D01*
X145675530Y-115543128D01*
X145614207Y-115576612D01*
X145544515Y-115571628D01*
X145488582Y-115529756D01*
X145482310Y-115520543D01*
X145442712Y-115456344D01*
X145318656Y-115332288D01*
X145193559Y-115255128D01*
X145169336Y-115240187D01*
X145169331Y-115240185D01*
X145167862Y-115239698D01*
X145002797Y-115185001D01*
X145002795Y-115185000D01*
X144900010Y-115174500D01*
X144099998Y-115174500D01*
X144099980Y-115174501D01*
X143997203Y-115185000D01*
X143997200Y-115185001D01*
X143830668Y-115240185D01*
X143830663Y-115240187D01*
X143681342Y-115332289D01*
X143557289Y-115456342D01*
X143465187Y-115605663D01*
X143465186Y-115605666D01*
X143410001Y-115772203D01*
X143410001Y-115772204D01*
X143410000Y-115772204D01*
X143399500Y-115874983D01*
X129350500Y-115874983D01*
X129350500Y-111399983D01*
X149699500Y-111399983D01*
X149699500Y-112600001D01*
X149699501Y-112600018D01*
X149710000Y-112702796D01*
X149710001Y-112702799D01*
X149765185Y-112869331D01*
X149765186Y-112869334D01*
X149857288Y-113018656D01*
X149981344Y-113142712D01*
X150130666Y-113234814D01*
X150297203Y-113289999D01*
X150399991Y-113300500D01*
X151600008Y-113300499D01*
X151702797Y-113289999D01*
X151869334Y-113234814D01*
X152018656Y-113142712D01*
X152142712Y-113018656D01*
X152234814Y-112869334D01*
X152289999Y-112702797D01*
X152300500Y-112600009D01*
X152300499Y-111399992D01*
X152289999Y-111297203D01*
X152234814Y-111130666D01*
X152142712Y-110981344D01*
X152018656Y-110857288D01*
X151869334Y-110765186D01*
X151702797Y-110710001D01*
X151702795Y-110710000D01*
X151600010Y-110699500D01*
X150399998Y-110699500D01*
X150399981Y-110699501D01*
X150297203Y-110710000D01*
X150297200Y-110710001D01*
X150130668Y-110765185D01*
X150130663Y-110765187D01*
X149981342Y-110857289D01*
X149857289Y-110981342D01*
X149765187Y-111130663D01*
X149765186Y-111130666D01*
X149710001Y-111297203D01*
X149710001Y-111297204D01*
X149710000Y-111297204D01*
X149699500Y-111399983D01*
X129350500Y-111399983D01*
X129350500Y-105599983D01*
X132074500Y-105599983D01*
X132074500Y-106400001D01*
X132074501Y-106400019D01*
X132085000Y-106502796D01*
X132085001Y-106502799D01*
X132110858Y-106580828D01*
X132140186Y-106669334D01*
X132232288Y-106818656D01*
X132356344Y-106942712D01*
X132420543Y-106982310D01*
X132467268Y-107034258D01*
X132478489Y-107103221D01*
X132450646Y-107167303D01*
X132443128Y-107175530D01*
X132335585Y-107283073D01*
X132233768Y-107423211D01*
X132155128Y-107577552D01*
X132101597Y-107742302D01*
X132074500Y-107913389D01*
X132074500Y-108086611D01*
X132101598Y-108257701D01*
X132155127Y-108422445D01*
X132233768Y-108576788D01*
X132335586Y-108716928D01*
X132458072Y-108839414D01*
X132598212Y-108941232D01*
X132752555Y-109019873D01*
X132917299Y-109073402D01*
X133088389Y-109100500D01*
X133088390Y-109100500D01*
X133811610Y-109100500D01*
X133811611Y-109100500D01*
X133982701Y-109073402D01*
X134147445Y-109019873D01*
X134301788Y-108941232D01*
X134441928Y-108839414D01*
X134564414Y-108716928D01*
X134666232Y-108576788D01*
X134744873Y-108422445D01*
X134798402Y-108257701D01*
X134825500Y-108086611D01*
X134825500Y-107913389D01*
X134798402Y-107742299D01*
X134744873Y-107577555D01*
X134666232Y-107423212D01*
X134564414Y-107283072D01*
X134456872Y-107175530D01*
X134423387Y-107114207D01*
X134428371Y-107044515D01*
X134470243Y-106988582D01*
X134479457Y-106982310D01*
X134543656Y-106942712D01*
X134667712Y-106818656D01*
X134759814Y-106669334D01*
X134814999Y-106502797D01*
X134825500Y-106400009D01*
X134825499Y-105599992D01*
X134814999Y-105497203D01*
X134759814Y-105330666D01*
X134759810Y-105330660D01*
X134759809Y-105330657D01*
X134755968Y-105324430D01*
X134755967Y-105324429D01*
X134717758Y-105262482D01*
X137974500Y-105262482D01*
X137974500Y-106387517D01*
X137985000Y-106490296D01*
X138040185Y-106656832D01*
X138040187Y-106656837D01*
X138047895Y-106669334D01*
X138132288Y-106806156D01*
X138256344Y-106930212D01*
X138405665Y-107022314D01*
X138572202Y-107077499D01*
X138674990Y-107088000D01*
X138674995Y-107088000D01*
X140925005Y-107088000D01*
X140925010Y-107088000D01*
X141027798Y-107077499D01*
X141194335Y-107022314D01*
X141343656Y-106930212D01*
X141467712Y-106806156D01*
X141479462Y-106787105D01*
X141531409Y-106740383D01*
X141600372Y-106729160D01*
X141664454Y-106757004D01*
X141690537Y-106787104D01*
X141702288Y-106806156D01*
X141826344Y-106930212D01*
X141975665Y-107022314D01*
X142142202Y-107077499D01*
X142244990Y-107088000D01*
X142244995Y-107088000D01*
X144495005Y-107088000D01*
X144495010Y-107088000D01*
X144597798Y-107077499D01*
X144764335Y-107022314D01*
X144913656Y-106930212D01*
X145037712Y-106806156D01*
X145129814Y-106656835D01*
X145184999Y-106490298D01*
X145195500Y-106387510D01*
X145195500Y-105262490D01*
X145184999Y-105159702D01*
X145129814Y-104993165D01*
X145037712Y-104843844D01*
X144913656Y-104719788D01*
X144764335Y-104627686D01*
X144597798Y-104572501D01*
X144597796Y-104572500D01*
X144495017Y-104562000D01*
X144495010Y-104562000D01*
X142244990Y-104562000D01*
X142244982Y-104562000D01*
X142142203Y-104572500D01*
X142142202Y-104572501D01*
X142059669Y-104599849D01*
X141975667Y-104627685D01*
X141975662Y-104627687D01*
X141826342Y-104719789D01*
X141702289Y-104843842D01*
X141690538Y-104862894D01*
X141638589Y-104909617D01*
X141569626Y-104920838D01*
X141505544Y-104892994D01*
X141479462Y-104862894D01*
X141467712Y-104843844D01*
X141343656Y-104719788D01*
X141194335Y-104627686D01*
X141027798Y-104572501D01*
X141027796Y-104572500D01*
X140925017Y-104562000D01*
X140925010Y-104562000D01*
X138674990Y-104562000D01*
X138674982Y-104562000D01*
X138572203Y-104572500D01*
X138572202Y-104572501D01*
X138489669Y-104599849D01*
X138405667Y-104627685D01*
X138405662Y-104627687D01*
X138256342Y-104719789D01*
X138132289Y-104843842D01*
X138040187Y-104993162D01*
X138040185Y-104993167D01*
X138018938Y-105057288D01*
X137985001Y-105159702D01*
X137985001Y-105159703D01*
X137985000Y-105159703D01*
X137974500Y-105262482D01*
X134717758Y-105262482D01*
X134667712Y-105181344D01*
X134543657Y-105057289D01*
X134543656Y-105057288D01*
X134439699Y-104993167D01*
X134394336Y-104965187D01*
X134394331Y-104965185D01*
X134392862Y-104964698D01*
X134227797Y-104910001D01*
X134227795Y-104910000D01*
X134125010Y-104899500D01*
X132774998Y-104899500D01*
X132774981Y-104899501D01*
X132672203Y-104910000D01*
X132672200Y-104910001D01*
X132505668Y-104965185D01*
X132505663Y-104965187D01*
X132356342Y-105057289D01*
X132232289Y-105181342D01*
X132140187Y-105330663D01*
X132140185Y-105330668D01*
X132112349Y-105414670D01*
X132085001Y-105497203D01*
X132085001Y-105497204D01*
X132085000Y-105497204D01*
X132074500Y-105599983D01*
X129350500Y-105599983D01*
X129350500Y-103452135D01*
X146349500Y-103452135D01*
X146349500Y-105047870D01*
X146349501Y-105047876D01*
X146355908Y-105107483D01*
X146406202Y-105242328D01*
X146406206Y-105242335D01*
X146492452Y-105357544D01*
X146492455Y-105357547D01*
X146607664Y-105443793D01*
X146607671Y-105443797D01*
X146742517Y-105494091D01*
X146742516Y-105494091D01*
X146749444Y-105494835D01*
X146802127Y-105500500D01*
X147897872Y-105500499D01*
X147957483Y-105494091D01*
X147957489Y-105494088D01*
X147965025Y-105492308D01*
X147965321Y-105493561D01*
X148027063Y-105489142D01*
X148040655Y-105493132D01*
X148042627Y-105493598D01*
X148102155Y-105499999D01*
X148102172Y-105500000D01*
X148400000Y-105500000D01*
X148900000Y-105500000D01*
X149197828Y-105500000D01*
X149197844Y-105499999D01*
X149257372Y-105493598D01*
X149257379Y-105493596D01*
X149392086Y-105443354D01*
X149392093Y-105443350D01*
X149507187Y-105357190D01*
X149507190Y-105357187D01*
X149593350Y-105242093D01*
X149593354Y-105242086D01*
X149643596Y-105107379D01*
X149643598Y-105107372D01*
X149649999Y-105047844D01*
X149650000Y-105047827D01*
X149650000Y-104500000D01*
X148900000Y-104500000D01*
X148900000Y-105500000D01*
X148400000Y-105500000D01*
X148400000Y-104000000D01*
X148900000Y-104000000D01*
X149650000Y-104000000D01*
X149650000Y-103452172D01*
X149649999Y-103452155D01*
X149643598Y-103392627D01*
X149643596Y-103392620D01*
X149593354Y-103257913D01*
X149593350Y-103257906D01*
X149507190Y-103142812D01*
X149507187Y-103142809D01*
X149392093Y-103056649D01*
X149392086Y-103056645D01*
X149257379Y-103006403D01*
X149257372Y-103006401D01*
X149197844Y-103000000D01*
X148900000Y-103000000D01*
X148900000Y-104000000D01*
X148400000Y-104000000D01*
X148400000Y-103000000D01*
X148102155Y-103000000D01*
X148042624Y-103006401D01*
X148035073Y-103008186D01*
X148034684Y-103006542D01*
X147974348Y-103010853D01*
X147957614Y-103005939D01*
X147957483Y-103005908D01*
X147897883Y-102999501D01*
X147897881Y-102999500D01*
X147897873Y-102999500D01*
X147897864Y-102999500D01*
X146802129Y-102999500D01*
X146802123Y-102999501D01*
X146742516Y-103005908D01*
X146607671Y-103056202D01*
X146607664Y-103056206D01*
X146492455Y-103142452D01*
X146492452Y-103142455D01*
X146406206Y-103257664D01*
X146406202Y-103257671D01*
X146355908Y-103392517D01*
X146349501Y-103452116D01*
X146349500Y-103452135D01*
X129350500Y-103452135D01*
X129350500Y-96599983D01*
X132074500Y-96599983D01*
X132074500Y-97400001D01*
X132074501Y-97400019D01*
X132085000Y-97502796D01*
X132085001Y-97502799D01*
X132140185Y-97669331D01*
X132140186Y-97669334D01*
X132232288Y-97818656D01*
X132356344Y-97942712D01*
X132420543Y-97982310D01*
X132467268Y-98034258D01*
X132478489Y-98103221D01*
X132450646Y-98167303D01*
X132443128Y-98175530D01*
X132335585Y-98283073D01*
X132233768Y-98423211D01*
X132155128Y-98577552D01*
X132101597Y-98742302D01*
X132074500Y-98913389D01*
X132074500Y-99086611D01*
X132101598Y-99257701D01*
X132155127Y-99422445D01*
X132233768Y-99576788D01*
X132335586Y-99716928D01*
X132458072Y-99839414D01*
X132598212Y-99941232D01*
X132752555Y-100019873D01*
X132917299Y-100073402D01*
X133088389Y-100100500D01*
X133088390Y-100100500D01*
X133811610Y-100100500D01*
X133811611Y-100100500D01*
X133982701Y-100073402D01*
X134147445Y-100019873D01*
X134301788Y-99941232D01*
X134441928Y-99839414D01*
X134564414Y-99716928D01*
X134666232Y-99576788D01*
X134744873Y-99422445D01*
X134798402Y-99257701D01*
X134825500Y-99086611D01*
X134825500Y-98913389D01*
X134798402Y-98742299D01*
X134744873Y-98577555D01*
X134666232Y-98423212D01*
X134564414Y-98283072D01*
X134456872Y-98175530D01*
X134423387Y-98114207D01*
X134428371Y-98044515D01*
X134470243Y-97988582D01*
X134479457Y-97982310D01*
X134543656Y-97942712D01*
X134667712Y-97818656D01*
X134759814Y-97669334D01*
X134814999Y-97502797D01*
X134818132Y-97472127D01*
X147139500Y-97472127D01*
X147139500Y-97472134D01*
X147139500Y-97472135D01*
X147139500Y-98217870D01*
X147139501Y-98217876D01*
X147145908Y-98277483D01*
X147196202Y-98412328D01*
X147200454Y-98420114D01*
X147197280Y-98421846D01*
X147215659Y-98471302D01*
X147200725Y-98539557D01*
X147200117Y-98540502D01*
X147196202Y-98547671D01*
X147145910Y-98682513D01*
X147145909Y-98682517D01*
X147139500Y-98742127D01*
X147139500Y-98742134D01*
X147139500Y-98742135D01*
X147139500Y-99487870D01*
X147139501Y-99487876D01*
X147145908Y-99547483D01*
X147196202Y-99682328D01*
X147200454Y-99690114D01*
X147197280Y-99691846D01*
X147215659Y-99741302D01*
X147200725Y-99809557D01*
X147200117Y-99810502D01*
X147196202Y-99817671D01*
X147145910Y-99952513D01*
X147145909Y-99952517D01*
X147139500Y-100012127D01*
X147139500Y-100012134D01*
X147139500Y-100012135D01*
X147139500Y-100757870D01*
X147139501Y-100757876D01*
X147145908Y-100817483D01*
X147196202Y-100952328D01*
X147200454Y-100960114D01*
X147197280Y-100961846D01*
X147215659Y-101011302D01*
X147200725Y-101079557D01*
X147200117Y-101080502D01*
X147196202Y-101087671D01*
X147145910Y-101222513D01*
X147145909Y-101222517D01*
X147139500Y-101282127D01*
X147139500Y-101282134D01*
X147139500Y-101282135D01*
X147139500Y-102027870D01*
X147139501Y-102027876D01*
X147145908Y-102087483D01*
X147196202Y-102222328D01*
X147196206Y-102222335D01*
X147282452Y-102337544D01*
X147282455Y-102337547D01*
X147397664Y-102423793D01*
X147397671Y-102423797D01*
X147532517Y-102474091D01*
X147532516Y-102474091D01*
X147539444Y-102474835D01*
X147592127Y-102480500D01*
X149187872Y-102480499D01*
X149247483Y-102474091D01*
X149382331Y-102423796D01*
X149497546Y-102337546D01*
X149583796Y-102222331D01*
X149634091Y-102087483D01*
X149640500Y-102027873D01*
X149640499Y-101282128D01*
X149634091Y-101222517D01*
X149629609Y-101210499D01*
X149583797Y-101087670D01*
X149579547Y-101079888D01*
X149582757Y-101078134D01*
X149564361Y-101029001D01*
X149579127Y-100960709D01*
X149579752Y-100959736D01*
X149583797Y-100952329D01*
X149595052Y-100922150D01*
X149634091Y-100817483D01*
X149640500Y-100757873D01*
X149640499Y-100012128D01*
X149634091Y-99952517D01*
X149629882Y-99941231D01*
X149583797Y-99817670D01*
X149579547Y-99809888D01*
X149582757Y-99808134D01*
X149564361Y-99759001D01*
X149579127Y-99690709D01*
X149579752Y-99689736D01*
X149583797Y-99682329D01*
X149595052Y-99652150D01*
X149634091Y-99547483D01*
X149640500Y-99487873D01*
X149640499Y-98742128D01*
X149634091Y-98682517D01*
X149583797Y-98547671D01*
X149583797Y-98547670D01*
X149579547Y-98539888D01*
X149582757Y-98538134D01*
X149564361Y-98489001D01*
X149579127Y-98420709D01*
X149579752Y-98419736D01*
X149583797Y-98412329D01*
X149595052Y-98382150D01*
X149634091Y-98277483D01*
X149640500Y-98217873D01*
X149640499Y-97472128D01*
X149640499Y-97472127D01*
X152539500Y-97472127D01*
X152539500Y-97472134D01*
X152539500Y-97472135D01*
X152539500Y-98217870D01*
X152539501Y-98217876D01*
X152545908Y-98277483D01*
X152596202Y-98412328D01*
X152600454Y-98420114D01*
X152597280Y-98421846D01*
X152615659Y-98471302D01*
X152600725Y-98539557D01*
X152600117Y-98540502D01*
X152596202Y-98547671D01*
X152545910Y-98682513D01*
X152545909Y-98682517D01*
X152539500Y-98742127D01*
X152539500Y-98742134D01*
X152539500Y-98742135D01*
X152539500Y-99487870D01*
X152539501Y-99487876D01*
X152545908Y-99547483D01*
X152596202Y-99682328D01*
X152600454Y-99690114D01*
X152597280Y-99691846D01*
X152615659Y-99741302D01*
X152600725Y-99809557D01*
X152600117Y-99810502D01*
X152596202Y-99817671D01*
X152545910Y-99952513D01*
X152545909Y-99952517D01*
X152539500Y-100012127D01*
X152539500Y-100012134D01*
X152539500Y-100012135D01*
X152539500Y-100757870D01*
X152539501Y-100757876D01*
X152545908Y-100817483D01*
X152596202Y-100952328D01*
X152596206Y-100952335D01*
X152682452Y-101067544D01*
X152682455Y-101067547D01*
X152797664Y-101153793D01*
X152797671Y-101153797D01*
X152932517Y-101204091D01*
X152932516Y-101204091D01*
X152939444Y-101204835D01*
X152992127Y-101210500D01*
X154587872Y-101210499D01*
X154647483Y-101204091D01*
X154782331Y-101153796D01*
X154897546Y-101067546D01*
X154983796Y-100952331D01*
X155034091Y-100817483D01*
X155040500Y-100757873D01*
X155040499Y-100012128D01*
X155034091Y-99952517D01*
X155029882Y-99941231D01*
X154983797Y-99817670D01*
X154979547Y-99809888D01*
X154982757Y-99808134D01*
X154964361Y-99759001D01*
X154979127Y-99690709D01*
X154979752Y-99689736D01*
X154983797Y-99682329D01*
X154995052Y-99652150D01*
X155034091Y-99547483D01*
X155040500Y-99487873D01*
X155040499Y-98742128D01*
X155034091Y-98682517D01*
X154983797Y-98547671D01*
X154983797Y-98547670D01*
X154979547Y-98539888D01*
X154982757Y-98538134D01*
X154964361Y-98489001D01*
X154979127Y-98420709D01*
X154979752Y-98419736D01*
X154983797Y-98412329D01*
X154995052Y-98382150D01*
X155034091Y-98277483D01*
X155040500Y-98217873D01*
X155040499Y-97472128D01*
X155034091Y-97412517D01*
X155029428Y-97400016D01*
X154983797Y-97277671D01*
X154983793Y-97277664D01*
X154897547Y-97162455D01*
X154897544Y-97162452D01*
X154782335Y-97076206D01*
X154782328Y-97076202D01*
X154647482Y-97025908D01*
X154647483Y-97025908D01*
X154587883Y-97019501D01*
X154587881Y-97019500D01*
X154587873Y-97019500D01*
X154587864Y-97019500D01*
X152992129Y-97019500D01*
X152992123Y-97019501D01*
X152932516Y-97025908D01*
X152797671Y-97076202D01*
X152797664Y-97076206D01*
X152682455Y-97162452D01*
X152682452Y-97162455D01*
X152596206Y-97277664D01*
X152596202Y-97277671D01*
X152550570Y-97400019D01*
X152545909Y-97412517D01*
X152539500Y-97472127D01*
X149640499Y-97472127D01*
X149634091Y-97412517D01*
X149629428Y-97400016D01*
X149583797Y-97277671D01*
X149583793Y-97277664D01*
X149497547Y-97162455D01*
X149497544Y-97162452D01*
X149382335Y-97076206D01*
X149382328Y-97076202D01*
X149247482Y-97025908D01*
X149247483Y-97025908D01*
X149187883Y-97019501D01*
X149187881Y-97019500D01*
X149187873Y-97019500D01*
X149187864Y-97019500D01*
X147592129Y-97019500D01*
X147592123Y-97019501D01*
X147532516Y-97025908D01*
X147397671Y-97076202D01*
X147397664Y-97076206D01*
X147282455Y-97162452D01*
X147282452Y-97162455D01*
X147196206Y-97277664D01*
X147196202Y-97277671D01*
X147150570Y-97400019D01*
X147145909Y-97412517D01*
X147139500Y-97472127D01*
X134818132Y-97472127D01*
X134825500Y-97400009D01*
X134825499Y-96599992D01*
X134814999Y-96497203D01*
X134759814Y-96330666D01*
X134667712Y-96181344D01*
X134543656Y-96057288D01*
X134394334Y-95965186D01*
X134227797Y-95910001D01*
X134227795Y-95910000D01*
X134125010Y-95899500D01*
X132774998Y-95899500D01*
X132774981Y-95899501D01*
X132672203Y-95910000D01*
X132672200Y-95910001D01*
X132505668Y-95965185D01*
X132505663Y-95965187D01*
X132356342Y-96057289D01*
X132232289Y-96181342D01*
X132140187Y-96330663D01*
X132140186Y-96330666D01*
X132085001Y-96497203D01*
X132085001Y-96497204D01*
X132085000Y-96497204D01*
X132074500Y-96599983D01*
X129350500Y-96599983D01*
X129350500Y-90034166D01*
X137244500Y-90034166D01*
X137244500Y-90600002D01*
X137249644Y-90671939D01*
X137260603Y-90709262D01*
X137264363Y-90761841D01*
X137244500Y-90899998D01*
X137244500Y-91465833D01*
X137261724Y-91596658D01*
X137295800Y-91723829D01*
X137346302Y-91845750D01*
X137346303Y-91845751D01*
X137412120Y-91959749D01*
X137412132Y-91959767D01*
X137492455Y-92064444D01*
X137492459Y-92064449D01*
X137585551Y-92157541D01*
X137585555Y-92157544D01*
X137690232Y-92237867D01*
X137690236Y-92237869D01*
X137690243Y-92237875D01*
X137690250Y-92237879D01*
X137804248Y-92303696D01*
X137804249Y-92303697D01*
X137804252Y-92303698D01*
X137804257Y-92303701D01*
X137926171Y-92354200D01*
X138053338Y-92388275D01*
X138184174Y-92405500D01*
X138184181Y-92405500D01*
X138815819Y-92405500D01*
X138815826Y-92405500D01*
X138946662Y-92388275D01*
X139073829Y-92354200D01*
X139195743Y-92303701D01*
X139309757Y-92237875D01*
X139414449Y-92157541D01*
X139507541Y-92064449D01*
X139587875Y-91959757D01*
X139653701Y-91845743D01*
X139704200Y-91723829D01*
X139738275Y-91596662D01*
X139755500Y-91465826D01*
X139755500Y-90900000D01*
X139750355Y-90828060D01*
X139739396Y-90790740D01*
X139735636Y-90738158D01*
X139755500Y-90600000D01*
X139755500Y-90034174D01*
X139738275Y-89903338D01*
X139704200Y-89776171D01*
X139653701Y-89654257D01*
X139653698Y-89654252D01*
X139653697Y-89654249D01*
X139653696Y-89654248D01*
X139587879Y-89540250D01*
X139587875Y-89540243D01*
X139507541Y-89435551D01*
X139414449Y-89342459D01*
X139412210Y-89340741D01*
X139309767Y-89262132D01*
X139309749Y-89262120D01*
X139195751Y-89196303D01*
X139195750Y-89196302D01*
X139073829Y-89145800D01*
X138946658Y-89111724D01*
X138815833Y-89094500D01*
X138815826Y-89094500D01*
X138184174Y-89094500D01*
X138184166Y-89094500D01*
X138053341Y-89111724D01*
X137926170Y-89145800D01*
X137804249Y-89196302D01*
X137804248Y-89196303D01*
X137690250Y-89262120D01*
X137690232Y-89262132D01*
X137585555Y-89342455D01*
X137585545Y-89342464D01*
X137492464Y-89435545D01*
X137492455Y-89435555D01*
X137412132Y-89540232D01*
X137412120Y-89540250D01*
X137346303Y-89654248D01*
X137346302Y-89654249D01*
X137295800Y-89776170D01*
X137261724Y-89903341D01*
X137244500Y-90034166D01*
X129350500Y-90034166D01*
X129350500Y-88584166D01*
X147394500Y-88584166D01*
X147394500Y-89150002D01*
X147399644Y-89221939D01*
X147410603Y-89259262D01*
X147414363Y-89311841D01*
X147394500Y-89449998D01*
X147394500Y-90015833D01*
X147411724Y-90146658D01*
X147445800Y-90273829D01*
X147496302Y-90395750D01*
X147496303Y-90395751D01*
X147562120Y-90509749D01*
X147562132Y-90509767D01*
X147631369Y-90599997D01*
X147642459Y-90614449D01*
X147735551Y-90707541D01*
X147735555Y-90707544D01*
X147840232Y-90787867D01*
X147840236Y-90787869D01*
X147840243Y-90787875D01*
X147840250Y-90787879D01*
X147954248Y-90853696D01*
X147954249Y-90853697D01*
X147954252Y-90853698D01*
X147954257Y-90853701D01*
X148076171Y-90904200D01*
X148203338Y-90938275D01*
X148334174Y-90955500D01*
X148334181Y-90955500D01*
X148965819Y-90955500D01*
X148965826Y-90955500D01*
X149096662Y-90938275D01*
X149223829Y-90904200D01*
X149345743Y-90853701D01*
X149459757Y-90787875D01*
X149564449Y-90707541D01*
X149657541Y-90614449D01*
X149737875Y-90509757D01*
X149803701Y-90395743D01*
X149854200Y-90273829D01*
X149888275Y-90146662D01*
X149905500Y-90015826D01*
X149905500Y-89450000D01*
X149900355Y-89378060D01*
X149889396Y-89340740D01*
X149885636Y-89288158D01*
X149889379Y-89262125D01*
X149905500Y-89150000D01*
X149905500Y-88584174D01*
X149888275Y-88453338D01*
X149854200Y-88326171D01*
X149803701Y-88204257D01*
X149803698Y-88204252D01*
X149803697Y-88204249D01*
X149803696Y-88204248D01*
X149737879Y-88090250D01*
X149737875Y-88090243D01*
X149657541Y-87985551D01*
X149564449Y-87892459D01*
X149564444Y-87892455D01*
X149459767Y-87812132D01*
X149459749Y-87812120D01*
X149345751Y-87746303D01*
X149345750Y-87746302D01*
X149223829Y-87695800D01*
X149096658Y-87661724D01*
X148965833Y-87644500D01*
X148965826Y-87644500D01*
X148334174Y-87644500D01*
X148334166Y-87644500D01*
X148203341Y-87661724D01*
X148076170Y-87695800D01*
X147954249Y-87746302D01*
X147954248Y-87746303D01*
X147840250Y-87812120D01*
X147840232Y-87812132D01*
X147735555Y-87892455D01*
X147735545Y-87892464D01*
X147642464Y-87985545D01*
X147642455Y-87985555D01*
X147562132Y-88090232D01*
X147562120Y-88090250D01*
X147496303Y-88204248D01*
X147496302Y-88204249D01*
X147445800Y-88326170D01*
X147411724Y-88453341D01*
X147394500Y-88584166D01*
X129350500Y-88584166D01*
X129350500Y-81608676D01*
X129370185Y-81541637D01*
X129386819Y-81520995D01*
X129781284Y-81126530D01*
X141389500Y-81126530D01*
X141389500Y-81333469D01*
X141429868Y-81536412D01*
X141429871Y-81536424D01*
X141454548Y-81595999D01*
X141462017Y-81665468D01*
X141448823Y-81702871D01*
X141446204Y-81707666D01*
X141395908Y-81842517D01*
X141389501Y-81902116D01*
X141389500Y-81902135D01*
X141389500Y-83097870D01*
X141389501Y-83097876D01*
X141395908Y-83157483D01*
X141446202Y-83292328D01*
X141446206Y-83292335D01*
X141532452Y-83407544D01*
X141532455Y-83407547D01*
X141647664Y-83493793D01*
X141647671Y-83493797D01*
X141782517Y-83544091D01*
X141782516Y-83544091D01*
X141789444Y-83544835D01*
X141842127Y-83550500D01*
X143037872Y-83550499D01*
X143097483Y-83544091D01*
X143232331Y-83493796D01*
X143347546Y-83407546D01*
X143433796Y-83292331D01*
X143484091Y-83157483D01*
X143490500Y-83097873D01*
X143490499Y-82404499D01*
X143510183Y-82337461D01*
X143562987Y-82291706D01*
X143614499Y-82280500D01*
X143805500Y-82280500D01*
X143872539Y-82300185D01*
X143918294Y-82352989D01*
X143929500Y-82404500D01*
X143929500Y-82603469D01*
X143969868Y-82806412D01*
X143969870Y-82806420D01*
X144049058Y-82997596D01*
X144164024Y-83169657D01*
X144310342Y-83315975D01*
X144310345Y-83315977D01*
X144482402Y-83430941D01*
X144673580Y-83510130D01*
X144844315Y-83544091D01*
X144876530Y-83550499D01*
X144876534Y-83550500D01*
X144876535Y-83550500D01*
X145083466Y-83550500D01*
X145083467Y-83550499D01*
X145286420Y-83510130D01*
X145477598Y-83430941D01*
X145546111Y-83385162D01*
X145612785Y-83364285D01*
X145680166Y-83382769D01*
X145683848Y-83385134D01*
X145752402Y-83430941D01*
X145943580Y-83510130D01*
X146114315Y-83544091D01*
X146146530Y-83550499D01*
X146146534Y-83550500D01*
X146146535Y-83550500D01*
X146353466Y-83550500D01*
X146353467Y-83550499D01*
X146556420Y-83510130D01*
X146747598Y-83430941D01*
X146747599Y-83430940D01*
X146747600Y-83430940D01*
X146757636Y-83424234D01*
X153644500Y-83424234D01*
X153644500Y-83575765D01*
X153683719Y-83722136D01*
X153721602Y-83787750D01*
X153759485Y-83853365D01*
X153866635Y-83960515D01*
X153997865Y-84036281D01*
X154144234Y-84075500D01*
X154144236Y-84075500D01*
X154295764Y-84075500D01*
X154295766Y-84075500D01*
X154442135Y-84036281D01*
X154573365Y-83960515D01*
X154680515Y-83853365D01*
X154756281Y-83722135D01*
X154795500Y-83575766D01*
X154795500Y-83424234D01*
X159424500Y-83424234D01*
X159424500Y-83575765D01*
X159463719Y-83722136D01*
X159501602Y-83787750D01*
X159539485Y-83853365D01*
X159646635Y-83960515D01*
X159777865Y-84036281D01*
X159924234Y-84075500D01*
X159924236Y-84075500D01*
X160075764Y-84075500D01*
X160075766Y-84075500D01*
X160222135Y-84036281D01*
X160353365Y-83960515D01*
X160460515Y-83853365D01*
X160536281Y-83722135D01*
X160575500Y-83575766D01*
X160575500Y-83424234D01*
X160536281Y-83277865D01*
X160460515Y-83146635D01*
X160353365Y-83039485D01*
X160280815Y-82997598D01*
X160222136Y-82963719D01*
X160148950Y-82944109D01*
X160075766Y-82924500D01*
X159924234Y-82924500D01*
X159777863Y-82963719D01*
X159646635Y-83039485D01*
X159646632Y-83039487D01*
X159539487Y-83146632D01*
X159539485Y-83146635D01*
X159463719Y-83277863D01*
X159424500Y-83424234D01*
X154795500Y-83424234D01*
X154756281Y-83277865D01*
X154680515Y-83146635D01*
X154573365Y-83039485D01*
X154500815Y-82997598D01*
X154442136Y-82963719D01*
X154368950Y-82944109D01*
X154295766Y-82924500D01*
X154144234Y-82924500D01*
X153997863Y-82963719D01*
X153866635Y-83039485D01*
X153866632Y-83039487D01*
X153759487Y-83146632D01*
X153759485Y-83146635D01*
X153683719Y-83277863D01*
X153644500Y-83424234D01*
X146757636Y-83424234D01*
X146919652Y-83315979D01*
X146919651Y-83315979D01*
X146919655Y-83315977D01*
X147065977Y-83169655D01*
X147180941Y-82997598D01*
X147260130Y-82806420D01*
X147300500Y-82603465D01*
X147300500Y-82404500D01*
X147320185Y-82337461D01*
X147372989Y-82291706D01*
X147424500Y-82280500D01*
X147623466Y-82280500D01*
X147623467Y-82280499D01*
X147826420Y-82240130D01*
X148017598Y-82160941D01*
X148189655Y-82045977D01*
X148335977Y-81899655D01*
X148450941Y-81727598D01*
X148530130Y-81536420D01*
X148570500Y-81333465D01*
X148570500Y-81126535D01*
X148530130Y-80923580D01*
X148450941Y-80732402D01*
X148335977Y-80560345D01*
X148335975Y-80560342D01*
X148189657Y-80414024D01*
X148086109Y-80344836D01*
X148017598Y-80299059D01*
X147826420Y-80219870D01*
X147826412Y-80219868D01*
X147623469Y-80179500D01*
X147623465Y-80179500D01*
X147416535Y-80179500D01*
X147416530Y-80179500D01*
X147213587Y-80219868D01*
X147213579Y-80219870D01*
X147022400Y-80299059D01*
X146953889Y-80344836D01*
X146887211Y-80365713D01*
X146819832Y-80347227D01*
X146816111Y-80344836D01*
X146747599Y-80299059D01*
X146556420Y-80219870D01*
X146556412Y-80219868D01*
X146353469Y-80179500D01*
X146353465Y-80179500D01*
X146146535Y-80179500D01*
X146146530Y-80179500D01*
X145943587Y-80219868D01*
X145943579Y-80219870D01*
X145752400Y-80299059D01*
X145683889Y-80344836D01*
X145617211Y-80365713D01*
X145549832Y-80347227D01*
X145546111Y-80344836D01*
X145477599Y-80299059D01*
X145286420Y-80219870D01*
X145286412Y-80219868D01*
X145083469Y-80179500D01*
X145083465Y-80179500D01*
X144876535Y-80179500D01*
X144876530Y-80179500D01*
X144673587Y-80219868D01*
X144673579Y-80219870D01*
X144482400Y-80299059D01*
X144413889Y-80344836D01*
X144347211Y-80365713D01*
X144279832Y-80347227D01*
X144276111Y-80344836D01*
X144207599Y-80299059D01*
X144016420Y-80219870D01*
X144016412Y-80219868D01*
X143813469Y-80179500D01*
X143813465Y-80179500D01*
X143606535Y-80179500D01*
X143606530Y-80179500D01*
X143403587Y-80219868D01*
X143403579Y-80219870D01*
X143212400Y-80299059D01*
X143143889Y-80344836D01*
X143077211Y-80365713D01*
X143009832Y-80347227D01*
X143006111Y-80344836D01*
X142937599Y-80299059D01*
X142746420Y-80219870D01*
X142746412Y-80219868D01*
X142543469Y-80179500D01*
X142543465Y-80179500D01*
X142336535Y-80179500D01*
X142336530Y-80179500D01*
X142133587Y-80219868D01*
X142133579Y-80219870D01*
X141942403Y-80299058D01*
X141770342Y-80414024D01*
X141624024Y-80560342D01*
X141509058Y-80732403D01*
X141429870Y-80923579D01*
X141429868Y-80923587D01*
X141389500Y-81126530D01*
X129781284Y-81126530D01*
X131520995Y-79386819D01*
X131582318Y-79353334D01*
X131608676Y-79350500D01*
X168391324Y-79350500D01*
X168458363Y-79370185D01*
G37*
%TD.AperFunction*%
%TD*%
M02*
