%TF.GenerationSoftware,KiCad,Pcbnew,10.0.0*%
%TF.CreationDate,2026-07-13T13:08:28+10:00*%
%TF.ProjectId,Active-Damper-Slave,41637469-7665-42d4-9461-6d7065722d53,rev?*%
%TF.SameCoordinates,Original*%
%TF.FileFunction,Legend,Bot*%
%TF.FilePolarity,Positive*%
%FSLAX46Y46*%
G04 Gerber Fmt 4.6, Leading zero omitted, Abs format (unit mm)*
G04 Created by KiCad (PCBNEW 10.0.0) date 2026-07-13 13:08:28*
%MOMM*%
%LPD*%
G01*
G04 APERTURE LIST*
G04 Aperture macros list*
%AMRoundRect*
0 Rectangle with rounded corners*
0 $1 Rounding radius*
0 $2 $3 $4 $5 $6 $7 $8 $9 X,Y pos of 4 corners*
0 Add a 4 corners polygon primitive as box body*
4,1,4,$2,$3,$4,$5,$6,$7,$8,$9,$2,$3,0*
0 Add four circle primitives for the rounded corners*
1,1,$1+$1,$2,$3*
1,1,$1+$1,$4,$5*
1,1,$1+$1,$6,$7*
1,1,$1+$1,$8,$9*
0 Add four rect primitives between the rounded corners*
20,1,$1+$1,$2,$3,$4,$5,0*
20,1,$1+$1,$4,$5,$6,$7,0*
20,1,$1+$1,$6,$7,$8,$9,0*
20,1,$1+$1,$8,$9,$2,$3,0*%
%AMFreePoly0*
4,1,23,0.500000,-0.750000,0.000000,-0.750000,0.000000,-0.745722,-0.065263,-0.745722,-0.191342,-0.711940,-0.304381,-0.646677,-0.396677,-0.554381,-0.461940,-0.441342,-0.495722,-0.315263,-0.495722,-0.250000,-0.500000,-0.250000,-0.500000,0.250000,-0.495722,0.250000,-0.495722,0.315263,-0.461940,0.441342,-0.396677,0.554381,-0.304381,0.646677,-0.191342,0.711940,-0.065263,0.745722,0.000000,0.745722,
0.000000,0.750000,0.500000,0.750000,0.500000,-0.750000,0.500000,-0.750000,$1*%
%AMFreePoly1*
4,1,23,0.000000,0.745722,0.065263,0.745722,0.191342,0.711940,0.304381,0.646677,0.396677,0.554381,0.461940,0.441342,0.495722,0.315263,0.495722,0.250000,0.500000,0.250000,0.500000,-0.250000,0.495722,-0.250000,0.495722,-0.315263,0.461940,-0.441342,0.396677,-0.554381,0.304381,-0.646677,0.191342,-0.711940,0.065263,-0.745722,0.000000,-0.745722,0.000000,-0.750000,-0.500000,-0.750000,
-0.500000,0.750000,0.000000,0.750000,0.000000,0.745722,0.000000,0.745722,$1*%
%AMFreePoly2*
4,1,23,0.550000,-0.750000,0.000000,-0.750000,0.000000,-0.745722,-0.065263,-0.745722,-0.191342,-0.711940,-0.304381,-0.646677,-0.396677,-0.554381,-0.461940,-0.441342,-0.495722,-0.315263,-0.495722,-0.250000,-0.500000,-0.250000,-0.500000,0.250000,-0.495722,0.250000,-0.495722,0.315263,-0.461940,0.441342,-0.396677,0.554381,-0.304381,0.646677,-0.191342,0.711940,-0.065263,0.745722,0.000000,0.745722,
0.000000,0.750000,0.550000,0.750000,0.550000,-0.750000,0.550000,-0.750000,$1*%
%AMFreePoly3*
4,1,23,0.000000,0.745722,0.065263,0.745722,0.191342,0.711940,0.304381,0.646677,0.396677,0.554381,0.461940,0.441342,0.495722,0.315263,0.495722,0.250000,0.500000,0.250000,0.500000,-0.250000,0.495722,-0.250000,0.495722,-0.315263,0.461940,-0.441342,0.396677,-0.554381,0.304381,-0.646677,0.191342,-0.711940,0.065263,-0.745722,0.000000,-0.745722,0.000000,-0.750000,-0.550000,-0.750000,
-0.550000,0.750000,0.000000,0.750000,0.000000,0.745722,0.000000,0.745722,$1*%
G04 Aperture macros list end*
%ADD10C,0.120000*%
%ADD11C,0.200000*%
%ADD12RoundRect,0.250000X-0.625000X0.350000X-0.625000X-0.350000X0.625000X-0.350000X0.625000X0.350000X0*%
%ADD13O,1.750000X1.200000*%
%ADD14C,3.600000*%
%ADD15C,5.500000*%
%ADD16RoundRect,0.250000X-0.350000X-0.625000X0.350000X-0.625000X0.350000X0.625000X-0.350000X0.625000X0*%
%ADD17O,1.200000X1.750000*%
%ADD18C,0.650000*%
%ADD19O,1.000000X2.100000*%
%ADD20O,1.000000X1.600000*%
%ADD21RoundRect,0.250000X0.550000X-0.550000X0.550000X0.550000X-0.550000X0.550000X-0.550000X-0.550000X0*%
%ADD22C,1.600000*%
%ADD23R,1.100000X1.100000*%
%ADD24C,1.100000*%
%ADD25FreePoly0,270.000000*%
%ADD26FreePoly1,270.000000*%
%ADD27R,1.500000X0.650000*%
%ADD28RoundRect,0.249999X1.075001X-0.512501X1.075001X0.512501X-1.075001X0.512501X-1.075001X-0.512501X0*%
%ADD29FreePoly0,90.000000*%
%ADD30FreePoly1,90.000000*%
%ADD31FreePoly2,180.000000*%
%ADD32R,1.000000X1.500000*%
%ADD33FreePoly3,180.000000*%
G04 APERTURE END LIST*
%TO.C,JP3*%
D10*
X137500000Y-90050000D02*
X137500000Y-91450000D01*
X138200000Y-92150000D02*
X138800000Y-92150000D01*
X138800000Y-89350000D02*
X138200000Y-89350000D01*
X139500000Y-91450000D02*
X139500000Y-90050000D01*
X137500000Y-90050000D02*
G75*
G02*
X138200000Y-89350000I699999J1D01*
G01*
X138200000Y-92150000D02*
G75*
G02*
X137500000Y-91450000I0J700000D01*
G01*
X138800000Y-89350000D02*
G75*
G02*
X139500000Y-90050000I1J-699999D01*
G01*
X139500000Y-91450000D02*
G75*
G02*
X138800000Y-92150000I-700000J0D01*
G01*
%TO.C,IC2*%
D11*
X149490000Y-97300000D02*
X149490000Y-102200000D01*
X149490000Y-102200000D02*
X152690000Y-102200000D01*
X152690000Y-97300000D02*
X149490000Y-97300000D01*
X152690000Y-102200000D02*
X152690000Y-97300000D01*
X154540000Y-97170000D02*
X153040000Y-97170000D01*
%TO.C,R4*%
D10*
X141770000Y-106587500D02*
X141770000Y-100387500D01*
X144970000Y-100387500D02*
X144970000Y-106587500D01*
X141770000Y-100387500D02*
G75*
G02*
X144970000Y-100387500I1600000J-1892074D01*
G01*
X144970000Y-106587500D02*
G75*
G02*
X141770000Y-106587500I-1600000J1892074D01*
G01*
%TO.C,JP4*%
X147650000Y-88600000D02*
X147650000Y-90000000D01*
X148350000Y-90700000D02*
X148950000Y-90700000D01*
X148950000Y-87900000D02*
X148350000Y-87900000D01*
X149650000Y-90000000D02*
X149650000Y-88600000D01*
X147650000Y-88600000D02*
G75*
G02*
X148350000Y-87900000I700000J0D01*
G01*
X148350000Y-90700000D02*
G75*
G02*
X147650000Y-90000000I-1J699999D01*
G01*
X148950000Y-87900000D02*
G75*
G02*
X149650000Y-88600000I0J-700000D01*
G01*
X149650000Y-90000000D02*
G75*
G02*
X148950000Y-90700000I-699999J-1D01*
G01*
%TO.C,JP5*%
X155450000Y-118700000D02*
X155450000Y-119300000D01*
X156100000Y-120000000D02*
X158900000Y-120000000D01*
X158700000Y-120200000D02*
X158400000Y-120500000D01*
X158700000Y-120200000D02*
X159000000Y-120500000D01*
X158900000Y-118000000D02*
X156100000Y-118000000D01*
X159000000Y-120500000D02*
X158400000Y-120500000D01*
X159550000Y-119300000D02*
X159550000Y-118700000D01*
X155450000Y-118700000D02*
G75*
G02*
X156150000Y-118000000I700000J0D01*
G01*
X156150000Y-120000000D02*
G75*
G02*
X155450000Y-119300000I0J700000D01*
G01*
X158850000Y-118000000D02*
G75*
G02*
X159550000Y-118700000I1J-699999D01*
G01*
X159550000Y-119300000D02*
G75*
G02*
X158850000Y-120000000I-699999J-1D01*
G01*
%TO.C,R5*%
X138200000Y-106587500D02*
X138200000Y-100387500D01*
X141400000Y-100387500D02*
X141400000Y-106587500D01*
X138200000Y-100387500D02*
G75*
G02*
X141400000Y-100387500I1600000J-1892074D01*
G01*
X141400000Y-106587500D02*
G75*
G02*
X138200000Y-106587500I-1600000J1892074D01*
G01*
%TO.C,JP2*%
X146600000Y-103250000D02*
X146600000Y-105250000D01*
X146600000Y-105250000D02*
X149400000Y-105250000D01*
X149400000Y-103250000D02*
X146600000Y-103250000D01*
X149400000Y-105250000D02*
X149400000Y-103250000D01*
%TD*%
%LPC*%
%TO.C,JP3*%
G36*
X137750000Y-90600000D02*
G01*
X139250000Y-90600000D01*
X139250000Y-90900000D01*
X137750000Y-90900000D01*
X137750000Y-90600000D01*
G37*
%TO.C,JP4*%
G36*
X147900000Y-89150000D02*
G01*
X149400000Y-89150000D01*
X149400000Y-89450000D01*
X147900000Y-89450000D01*
X147900000Y-89150000D01*
G37*
%TO.C,JP5*%
G36*
X156750000Y-118250000D02*
G01*
X158250000Y-118250000D01*
X158250000Y-119750000D01*
X156750000Y-119750000D01*
X156750000Y-118250000D01*
G37*
%TO.C,JP2*%
G36*
X147850000Y-103500000D02*
G01*
X148150000Y-103500000D01*
X148150000Y-105000000D01*
X147850000Y-105000000D01*
X147850000Y-103500000D01*
G37*
%TD*%
D12*
%TO.C,J8*%
X133450000Y-97000000D03*
D13*
X133450000Y-99000000D03*
X133450000Y-101000000D03*
%TD*%
D14*
%TO.C,H6*%
X165500000Y-84500000D03*
D15*
X165500000Y-84500000D03*
%TD*%
D14*
%TO.C,H5*%
X165500000Y-115500000D03*
D15*
X165500000Y-115500000D03*
%TD*%
D16*
%TO.C,J7*%
X155500000Y-116550000D03*
D17*
X157500000Y-116550000D03*
X159500000Y-116550000D03*
%TD*%
D18*
%TO.C,J6*%
X160000000Y-83500000D03*
X154220000Y-83500000D03*
D19*
X161430000Y-84030000D03*
D20*
X161430000Y-79850000D03*
D19*
X152790000Y-84030000D03*
D20*
X152790000Y-79850000D03*
%TD*%
D16*
%TO.C,J2*%
X144500000Y-116550000D03*
D17*
X146500000Y-116550000D03*
X148500000Y-116550000D03*
X150500000Y-116550000D03*
%TD*%
D12*
%TO.C,J9*%
X133450000Y-106000000D03*
D13*
X133450000Y-108000000D03*
X133450000Y-110000000D03*
%TD*%
D21*
%TO.C,C3*%
X151000000Y-112000000D03*
D22*
X151000000Y-108500000D03*
%TD*%
D14*
%TO.C,H8*%
X134500000Y-84500000D03*
D15*
X134500000Y-84500000D03*
%TD*%
D14*
%TO.C,H7*%
X134500000Y-115500000D03*
D15*
X134500000Y-115500000D03*
%TD*%
D23*
%TO.C,J3*%
X142440000Y-82500000D03*
D24*
X142440000Y-81230000D03*
X143710000Y-82500000D03*
X143710000Y-81230000D03*
X144980000Y-82500000D03*
X144980000Y-81230000D03*
X146250000Y-82500000D03*
X146250000Y-81230000D03*
X147520000Y-82500000D03*
X147520000Y-81230000D03*
%TD*%
D25*
%TO.C,JP3*%
X138500000Y-90100000D03*
D26*
X138500000Y-91400000D03*
%TD*%
D27*
%TO.C,IC2*%
X153790000Y-97845000D03*
X153790000Y-99115000D03*
X153790000Y-100385000D03*
X153790000Y-101655000D03*
X148390000Y-101655000D03*
X148390000Y-100385000D03*
X148390000Y-99115000D03*
X148390000Y-97845000D03*
%TD*%
D28*
%TO.C,R4*%
X143370000Y-105825000D03*
X143370000Y-101150000D03*
%TD*%
D29*
%TO.C,JP4*%
X148650000Y-89950000D03*
D30*
X148650000Y-88650000D03*
%TD*%
D31*
%TO.C,JP5*%
X158800000Y-119000000D03*
D32*
X157500000Y-119000000D03*
D33*
X156200000Y-119000000D03*
%TD*%
D28*
%TO.C,R5*%
X139800000Y-105825000D03*
X139800000Y-101150000D03*
%TD*%
D32*
%TO.C,JP2*%
X148650000Y-104250000D03*
X147350000Y-104250000D03*
%TD*%
%LPD*%
M02*
