%TF.GenerationSoftware,KiCad,Pcbnew,10.0.0*%
%TF.CreationDate,2026-07-13T13:08:28+10:00*%
%TF.ProjectId,Active-Damper-Slave,41637469-7665-42d4-9461-6d7065722d53,rev?*%
%TF.SameCoordinates,Original*%
%TF.FileFunction,Copper,L1,Top*%
%TF.FilePolarity,Positive*%
%FSLAX46Y46*%
G04 Gerber Fmt 4.6, Leading zero omitted, Abs format (unit mm)*
G04 Created by KiCad (PCBNEW 10.0.0) date 2026-07-13 13:08:28*
%MOMM*%
%LPD*%
G01*
G04 APERTURE LIST*
G04 Aperture macros list*
%AMRoundRect*
0 Rectangle with rounded corners*
0 $1 Rounding radius*
0 $2 $3 $4 $5 $6 $7 $8 $9 X,Y pos of 4 corners*
0 Add a 4 corners polygon primitive as box body*
4,1,4,$2,$3,$4,$5,$6,$7,$8,$9,$2,$3,0*
0 Add four circle primitives for the rounded corners*
1,1,$1+$1,$2,$3*
1,1,$1+$1,$4,$5*
1,1,$1+$1,$6,$7*
1,1,$1+$1,$8,$9*
0 Add four rect primitives between the rounded corners*
20,1,$1+$1,$2,$3,$4,$5,0*
20,1,$1+$1,$4,$5,$6,$7,0*
20,1,$1+$1,$6,$7,$8,$9,0*
20,1,$1+$1,$8,$9,$2,$3,0*%
G04 Aperture macros list end*
%TA.AperFunction,EtchedComponent*%
%ADD10C,0.000000*%
%TD*%
%TA.AperFunction,ComponentPad*%
%ADD11RoundRect,0.250000X-0.625000X0.350000X-0.625000X-0.350000X0.625000X-0.350000X0.625000X0.350000X0*%
%TD*%
%TA.AperFunction,ComponentPad*%
%ADD12O,1.750000X1.200000*%
%TD*%
%TA.AperFunction,SMDPad,CuDef*%
%ADD13RoundRect,0.225000X-0.250000X0.225000X-0.250000X-0.225000X0.250000X-0.225000X0.250000X0.225000X0*%
%TD*%
%TA.AperFunction,SMDPad,CuDef*%
%ADD14RoundRect,0.225000X0.250000X-0.225000X0.250000X0.225000X-0.250000X0.225000X-0.250000X-0.225000X0*%
%TD*%
%TA.AperFunction,SMDPad,CuDef*%
%ADD15RoundRect,0.200000X-0.200000X-0.275000X0.200000X-0.275000X0.200000X0.275000X-0.200000X0.275000X0*%
%TD*%
%TA.AperFunction,SMDPad,CuDef*%
%ADD16RoundRect,0.140000X-0.140000X-0.170000X0.140000X-0.170000X0.140000X0.170000X-0.140000X0.170000X0*%
%TD*%
%TA.AperFunction,SMDPad,CuDef*%
%ADD17RoundRect,0.087500X-0.187500X-0.087500X0.187500X-0.087500X0.187500X0.087500X-0.187500X0.087500X0*%
%TD*%
%TA.AperFunction,SMDPad,CuDef*%
%ADD18RoundRect,0.087500X-0.087500X-0.187500X0.087500X-0.187500X0.087500X0.187500X-0.087500X0.187500X0*%
%TD*%
%TA.AperFunction,SMDPad,CuDef*%
%ADD19RoundRect,0.140000X0.140000X0.170000X-0.140000X0.170000X-0.140000X-0.170000X0.140000X-0.170000X0*%
%TD*%
%TA.AperFunction,SMDPad,CuDef*%
%ADD20RoundRect,0.062500X-0.062500X0.337500X-0.062500X-0.337500X0.062500X-0.337500X0.062500X0.337500X0*%
%TD*%
%TA.AperFunction,SMDPad,CuDef*%
%ADD21RoundRect,0.062500X-0.337500X0.062500X-0.337500X-0.062500X0.337500X-0.062500X0.337500X0.062500X0*%
%TD*%
%TA.AperFunction,HeatsinkPad*%
%ADD22C,0.500000*%
%TD*%
%TA.AperFunction,HeatsinkPad*%
%ADD23R,3.700000X3.700000*%
%TD*%
%TA.AperFunction,SMDPad,CuDef*%
%ADD24RoundRect,0.225000X0.225000X0.250000X-0.225000X0.250000X-0.225000X-0.250000X0.225000X-0.250000X0*%
%TD*%
%TA.AperFunction,SMDPad,CuDef*%
%ADD25RoundRect,0.225000X-0.225000X-0.250000X0.225000X-0.250000X0.225000X0.250000X-0.225000X0.250000X0*%
%TD*%
%TA.AperFunction,ComponentPad*%
%ADD26C,3.600000*%
%TD*%
%TA.AperFunction,ConnectorPad*%
%ADD27C,5.500000*%
%TD*%
%TA.AperFunction,SMDPad,CuDef*%
%ADD28RoundRect,0.140000X0.170000X-0.140000X0.170000X0.140000X-0.170000X0.140000X-0.170000X-0.140000X0*%
%TD*%
%TA.AperFunction,SMDPad,CuDef*%
%ADD29R,0.850000X0.350000*%
%TD*%
%TA.AperFunction,SMDPad,CuDef*%
%ADD30R,1.700000X2.500000*%
%TD*%
%TA.AperFunction,SMDPad,CuDef*%
%ADD31RoundRect,0.475000X0.725000X-0.475000X0.725000X0.475000X-0.725000X0.475000X-0.725000X-0.475000X0*%
%TD*%
%TA.AperFunction,SMDPad,CuDef*%
%ADD32RoundRect,0.250000X0.650000X-1.000000X0.650000X1.000000X-0.650000X1.000000X-0.650000X-1.000000X0*%
%TD*%
%TA.AperFunction,SMDPad,CuDef*%
%ADD33RoundRect,0.250000X0.275000X0.750000X-0.275000X0.750000X-0.275000X-0.750000X0.275000X-0.750000X0*%
%TD*%
%TA.AperFunction,ComponentPad*%
%ADD34RoundRect,0.250000X-0.350000X-0.625000X0.350000X-0.625000X0.350000X0.625000X-0.350000X0.625000X0*%
%TD*%
%TA.AperFunction,ComponentPad*%
%ADD35O,1.200000X1.750000*%
%TD*%
%TA.AperFunction,SMDPad,CuDef*%
%ADD36RoundRect,0.135000X-0.135000X-0.185000X0.135000X-0.185000X0.135000X0.185000X-0.135000X0.185000X0*%
%TD*%
%TA.AperFunction,SMDPad,CuDef*%
%ADD37RoundRect,0.150000X0.150000X0.575000X-0.150000X0.575000X-0.150000X-0.575000X0.150000X-0.575000X0*%
%TD*%
%TA.AperFunction,SMDPad,CuDef*%
%ADD38RoundRect,0.075000X0.075000X0.650000X-0.075000X0.650000X-0.075000X-0.650000X0.075000X-0.650000X0*%
%TD*%
%TA.AperFunction,ComponentPad*%
%ADD39O,1.000000X2.100000*%
%TD*%
%TA.AperFunction,ComponentPad*%
%ADD40O,1.000000X1.600000*%
%TD*%
%TA.AperFunction,SMDPad,CuDef*%
%ADD41O,0.600000X1.300000*%
%TD*%
%TA.AperFunction,ComponentPad*%
%ADD42C,0.500000*%
%TD*%
%TA.AperFunction,SMDPad,CuDef*%
%ADD43RoundRect,0.625000X-1.125000X0.625000X-1.125000X-0.625000X1.125000X-0.625000X1.125000X0.625000X0*%
%TD*%
%TA.AperFunction,SMDPad,CuDef*%
%ADD44RoundRect,0.200000X-0.250000X-0.200000X0.250000X-0.200000X0.250000X0.200000X-0.250000X0.200000X0*%
%TD*%
%TA.AperFunction,SMDPad,CuDef*%
%ADD45R,1.000000X1.500000*%
%TD*%
%TA.AperFunction,SMDPad,CuDef*%
%ADD46RoundRect,0.225000X-0.017678X0.335876X-0.335876X0.017678X0.017678X-0.335876X0.335876X-0.017678X0*%
%TD*%
%TA.AperFunction,SMDPad,CuDef*%
%ADD47RoundRect,0.075000X-0.665000X-0.075000X0.665000X-0.075000X0.665000X0.075000X-0.665000X0.075000X0*%
%TD*%
%TA.AperFunction,SMDPad,CuDef*%
%ADD48RoundRect,0.075000X-0.075000X-0.665000X0.075000X-0.665000X0.075000X0.665000X-0.075000X0.665000X0*%
%TD*%
%TA.AperFunction,ComponentPad*%
%ADD49RoundRect,0.250000X0.550000X-0.550000X0.550000X0.550000X-0.550000X0.550000X-0.550000X-0.550000X0*%
%TD*%
%TA.AperFunction,ComponentPad*%
%ADD50C,1.600000*%
%TD*%
%TA.AperFunction,SMDPad,CuDef*%
%ADD51RoundRect,0.135000X0.185000X-0.135000X0.185000X0.135000X-0.185000X0.135000X-0.185000X-0.135000X0*%
%TD*%
%TA.AperFunction,SMDPad,CuDef*%
%ADD52RoundRect,0.112500X0.187500X0.112500X-0.187500X0.112500X-0.187500X-0.112500X0.187500X-0.112500X0*%
%TD*%
%TA.AperFunction,SMDPad,CuDef*%
%ADD53RoundRect,0.140000X-0.170000X0.140000X-0.170000X-0.140000X0.170000X-0.140000X0.170000X0.140000X0*%
%TD*%
%TA.AperFunction,SMDPad,CuDef*%
%ADD54R,1.850000X3.500000*%
%TD*%
%TA.AperFunction,SMDPad,CuDef*%
%ADD55RoundRect,0.135000X0.135000X0.185000X-0.135000X0.185000X-0.135000X-0.185000X0.135000X-0.185000X0*%
%TD*%
%TA.AperFunction,SMDPad,CuDef*%
%ADD56RoundRect,0.200000X0.275000X-0.200000X0.275000X0.200000X-0.275000X0.200000X-0.275000X-0.200000X0*%
%TD*%
%TA.AperFunction,ComponentPad*%
%ADD57R,1.100000X1.100000*%
%TD*%
%TA.AperFunction,ComponentPad*%
%ADD58C,1.100000*%
%TD*%
%TA.AperFunction,SMDPad,CuDef*%
%ADD59RoundRect,0.375000X0.375000X-0.625000X0.375000X0.625000X-0.375000X0.625000X-0.375000X-0.625000X0*%
%TD*%
%TA.AperFunction,SMDPad,CuDef*%
%ADD60RoundRect,0.500000X1.400000X-0.500000X1.400000X0.500000X-1.400000X0.500000X-1.400000X-0.500000X0*%
%TD*%
%TA.AperFunction,SMDPad,CuDef*%
%ADD61RoundRect,0.135000X-0.185000X0.135000X-0.185000X-0.135000X0.185000X-0.135000X0.185000X0.135000X0*%
%TD*%
G04 APERTURE END LIST*
D10*
%TA.AperFunction,EtchedComponent*%
%TO.C,JP1*%
G36*
X167750000Y-90550000D02*
G01*
X167250000Y-90550000D01*
X167250000Y-89950000D01*
X167750000Y-89950000D01*
X167750000Y-90550000D01*
G37*
%TD.AperFunction*%
%TD*%
D11*
%TO.P,J8,1,Pin_1_1*%
%TO.N,/CANL_2*%
X133450000Y-97000000D03*
D12*
%TO.P,J8,2,Pin_2_2*%
%TO.N,/CANH_2*%
X133450000Y-99000000D03*
%TO.P,J8,3,Pin_3_3*%
%TO.N,GND*%
X133450000Y-101000000D03*
%TD*%
D13*
%TO.P,C6,1*%
%TO.N,GND*%
X159950000Y-110200000D03*
%TO.P,C6,2*%
%TO.N,+12V*%
X159950000Y-111750000D03*
%TD*%
D14*
%TO.P,C9,1*%
%TO.N,Net-(U2-BOOT)*%
X169500000Y-104250000D03*
%TO.P,C9,2*%
%TO.N,Net-(U2-PH)*%
X169500000Y-102700000D03*
%TD*%
D15*
%TO.P,R7,1*%
%TO.N,Net-(J6-CC2)*%
X156500000Y-88750000D03*
%TO.P,R7,2*%
%TO.N,GND*%
X158150000Y-88750000D03*
%TD*%
D16*
%TO.P,C10,1*%
%TO.N,GND*%
X142110000Y-96660000D03*
%TO.P,C10,2*%
%TO.N,+3.3V*%
X143070000Y-96660000D03*
%TD*%
D17*
%TO.P,U4,1,VDD_IO_1*%
%TO.N,+3.3V*%
X152550000Y-88700000D03*
%TO.P,U4,2,NC_2*%
%TO.N,unconnected-(U4-NC-Pad2)*%
X152550000Y-89200000D03*
%TO.P,U4,3,NC_3*%
%TO.N,unconnected-(U4-NC-Pad3)*%
X152550000Y-89700000D03*
%TO.P,U4,4,SPC_4*%
%TO.N,/SCL*%
X152550000Y-90200000D03*
%TO.P,U4,5,GND_5*%
%TO.N,GND*%
X152550000Y-90700000D03*
D18*
%TO.P,U4,6,SDI_6*%
%TO.N,/SDA*%
X153275000Y-90925000D03*
%TO.P,U4,7,SDO_7*%
%TO.N,GND*%
X153775000Y-90925000D03*
%TO.P,U4,8,CS_8*%
%TO.N,Net-(U4-CS)*%
X154275000Y-90925000D03*
D17*
%TO.P,U4,9,INT2_9*%
%TO.N,/INT2*%
X155000000Y-90700000D03*
%TO.P,U4,10,GND_10*%
%TO.N,GND*%
X155000000Y-90200000D03*
%TO.P,U4,11,INT1_11*%
%TO.N,/INT1*%
X155000000Y-89700000D03*
%TO.P,U4,12,GND_12*%
%TO.N,GND*%
X155000000Y-89200000D03*
%TO.P,U4,13,ADC3_13*%
X155000000Y-88700000D03*
D18*
%TO.P,U4,14,VDD_14*%
%TO.N,+3.3V*%
X154275000Y-88475000D03*
%TO.P,U4,15,ADC2_15*%
%TO.N,GND*%
X153775000Y-88475000D03*
%TO.P,U4,16,ADC1_16*%
X153275000Y-88475000D03*
%TD*%
D19*
%TO.P,C27,1*%
%TO.N,GND*%
X155570000Y-96660000D03*
%TO.P,C27,2*%
%TO.N,+3.3V*%
X154610000Y-96660000D03*
%TD*%
D16*
%TO.P,C21,1*%
%TO.N,GND*%
X132220000Y-93050000D03*
%TO.P,C21,2*%
%TO.N,+3.3V*%
X133180000Y-93050000D03*
%TD*%
D20*
%TO.P,U5,1,OB2_1*%
%TO.N,/BOUT2*%
X142750000Y-108600000D03*
%TO.P,U5,2,~{EN}_2*%
%TO.N,GND*%
X142250000Y-108600000D03*
%TO.P,U5,3,GND_3*%
X141750000Y-108600000D03*
%TO.P,U5,4,CPO_4*%
%TO.N,Net-(U5-CPO)*%
X141250000Y-108600000D03*
%TO.P,U5,5,CPI_5*%
%TO.N,Net-(U5-CPI)*%
X140750000Y-108600000D03*
%TO.P,U5,6,VCP_6*%
%TO.N,Net-(U5-VCP)*%
X140250000Y-108600000D03*
%TO.P,U5,7,SPREAD_7*%
%TO.N,GND*%
X139750000Y-108600000D03*
D21*
%TO.P,U5,8,5VOUT_8*%
%TO.N,Net-(U5-5VOUT)*%
X138800000Y-109550000D03*
%TO.P,U5,9,MS1/AD0_9*%
%TO.N,GND*%
X138800000Y-110050000D03*
%TO.P,U5,10,MS2/AD1_10*%
X138800000Y-110550000D03*
%TO.P,U5,11,DIAG_11*%
X138800000Y-111050000D03*
%TO.P,U5,12,INDEX_12*%
X138800000Y-111550000D03*
%TO.P,U5,13,CLK_13*%
X138800000Y-112050000D03*
%TO.P,U5,14,~{PD}/UART_14*%
%TO.N,/~{PD}{slash}UART*%
X138800000Y-112550000D03*
D20*
%TO.P,U5,15,VCC_IO_15*%
%TO.N,+3.3V*%
X139750000Y-113500000D03*
%TO.P,U5,16,STEP_16*%
%TO.N,/STEP*%
X140250000Y-113500000D03*
%TO.P,U5,17,VREF_17*%
%TO.N,unconnected-(U5-VREF-Pad17)*%
X140750000Y-113500000D03*
%TO.P,U5,18,GND_18*%
%TO.N,GND*%
X141250000Y-113500000D03*
%TO.P,U5,19,DIR_19*%
%TO.N,/DIR*%
X141750000Y-113500000D03*
%TO.P,U5,20,STDBY_20*%
%TO.N,/STDBY*%
X142250000Y-113500000D03*
%TO.P,U5,21,OA2_21*%
%TO.N,/AOUT2*%
X142750000Y-113500000D03*
D21*
%TO.P,U5,22,VS_22*%
%TO.N,+12V*%
X143700000Y-112550000D03*
%TO.P,U5,23,BRA_23*%
%TO.N,Net-(U5-BRA)*%
X143700000Y-112050000D03*
%TO.P,U5,24,OA1_24*%
%TO.N,/AOUT1*%
X143700000Y-111550000D03*
%TO.P,U5,25,NC_25*%
%TO.N,GND*%
X143700000Y-111050000D03*
%TO.P,U5,26,OB1_26*%
%TO.N,/BOUT1*%
X143700000Y-110550000D03*
%TO.P,U5,27,BRB_27*%
%TO.N,Net-(U5-BRB)*%
X143700000Y-110050000D03*
%TO.P,U5,28,VS_28*%
%TO.N,+12V*%
X143700000Y-109550000D03*
D22*
%TO.P,U5,29,GND_29*%
%TO.N,GND*%
X142750000Y-109550000D03*
X141750000Y-109550000D03*
X140750000Y-109550000D03*
X139750000Y-109550000D03*
X142750000Y-110550000D03*
X141750000Y-110550000D03*
X140750000Y-110550000D03*
X139750000Y-110550000D03*
D23*
X141250000Y-111050000D03*
D22*
X142750000Y-111550000D03*
X141750000Y-111550000D03*
X140750000Y-111550000D03*
X139750000Y-111550000D03*
X142750000Y-112550000D03*
X141750000Y-112550000D03*
X140750000Y-112550000D03*
X139750000Y-112550000D03*
%TD*%
D24*
%TO.P,R52,1*%
%TO.N,Net-(JP4-B)*%
X148200000Y-86600000D03*
%TO.P,R52,2*%
%TO.N,/CANH_1*%
X146650000Y-86600000D03*
%TD*%
D16*
%TO.P,C29,1*%
%TO.N,GND*%
X142090000Y-99660000D03*
%TO.P,C29,2*%
%TO.N,Net-(U1-PD1)*%
X143050000Y-99660000D03*
%TD*%
D25*
%TO.P,R55,1*%
%TO.N,/CANL_1*%
X146600000Y-91750000D03*
%TO.P,R55,2*%
%TO.N,Net-(JP4-A)*%
X148150000Y-91750000D03*
%TD*%
D26*
%TO.P,H6,1,1_1*%
%TO.N,GND*%
X165500000Y-84500000D03*
D27*
X165500000Y-84500000D03*
%TD*%
D28*
%TO.P,C17,1*%
%TO.N,GND*%
X159250000Y-92960000D03*
%TO.P,C17,2*%
%TO.N,+3.3V*%
X159250000Y-92000000D03*
%TD*%
D16*
%TO.P,C57,1*%
%TO.N,/CANH_2*%
X134320000Y-88350000D03*
%TO.P,C57,2*%
%TO.N,GND*%
X135280000Y-88350000D03*
%TD*%
D13*
%TO.P,C5,1*%
%TO.N,GND*%
X161650000Y-110200000D03*
%TO.P,C5,2*%
%TO.N,+12V*%
X161650000Y-111750000D03*
%TD*%
D19*
%TO.P,C23,1*%
%TO.N,GND*%
X131180000Y-93050000D03*
%TO.P,C23,2*%
%TO.N,+5V*%
X130220000Y-93050000D03*
%TD*%
D29*
%TO.P,IC4,1,TXD_1*%
%TO.N,/TXD_1*%
X140500000Y-88225000D03*
%TO.P,IC4,2,GND_2*%
%TO.N,GND*%
X140500000Y-88875000D03*
%TO.P,IC4,3,VCC_3*%
%TO.N,+5V*%
X140500000Y-89525000D03*
%TO.P,IC4,4,RXD_4*%
%TO.N,/RXD_1*%
X140500000Y-90175000D03*
%TO.P,IC4,5,VIO_5*%
%TO.N,+3.3V*%
X143400000Y-90175000D03*
%TO.P,IC4,6,CANL_6*%
%TO.N,/CANL_1*%
X143400000Y-89525000D03*
%TO.P,IC4,7,CANH_7*%
%TO.N,/CANH_1*%
X143400000Y-88875000D03*
%TO.P,IC4,8,STBY_8*%
%TO.N,/STBY_1*%
X143400000Y-88225000D03*
D30*
%TO.P,IC4,9,EP_9*%
%TO.N,GND*%
X141950000Y-89200000D03*
%TD*%
D31*
%TO.P,X1,1*%
%TO.N,Net-(U1-PD1)*%
X139590000Y-100760000D03*
%TO.P,X1,2*%
%TO.N,Net-(U1-PD0)*%
X139590000Y-96660000D03*
%TD*%
D26*
%TO.P,H5,1,1_1*%
%TO.N,GND*%
X165500000Y-115500000D03*
D27*
X165500000Y-115500000D03*
%TD*%
D13*
%TO.P,C8,1*%
%TO.N,GND*%
X156950000Y-110200000D03*
%TO.P,C8,2*%
%TO.N,+12V*%
X156950000Y-111750000D03*
%TD*%
D32*
%TO.P,D2,1*%
%TO.N,Net-(U2-PH)*%
X159050000Y-99250000D03*
%TO.P,D2,2*%
%TO.N,GND*%
X159050000Y-95250000D03*
%TD*%
D16*
%TO.P,C26,1*%
%TO.N,GND*%
X142090000Y-100910000D03*
%TO.P,C26,2*%
%TO.N,+3.3V*%
X143050000Y-100910000D03*
%TD*%
D19*
%TO.P,C15,1*%
%TO.N,GND*%
X169980000Y-96500000D03*
%TO.P,C15,2*%
%TO.N,+5V*%
X169020000Y-96500000D03*
%TD*%
D33*
%TO.P,SW1,1,A_1*%
%TO.N,/~{RESET}*%
X141725000Y-105500000D03*
%TO.P,SW1,2,B_2*%
%TO.N,GND*%
X137275000Y-105500000D03*
%TD*%
D34*
%TO.P,J7,1,Pin_1_1*%
%TO.N,GND*%
X155500000Y-116550000D03*
D35*
%TO.P,J7,2,Pin_2_2*%
%TO.N,IGN*%
X157500000Y-116550000D03*
%TO.P,J7,3,Pin_3_3*%
%TO.N,+12V*%
X159500000Y-116550000D03*
%TD*%
D14*
%TO.P,C22,1*%
%TO.N,Net-(U5-CPI)*%
X137050000Y-111825000D03*
%TO.P,C22,2*%
%TO.N,Net-(U5-CPO)*%
X137050000Y-110275000D03*
%TD*%
D19*
%TO.P,C12,1*%
%TO.N,GND*%
X169980000Y-99500000D03*
%TO.P,C12,2*%
%TO.N,+5V*%
X169020000Y-99500000D03*
%TD*%
D36*
%TO.P,R53,1*%
%TO.N,Net-(U4-CS)*%
X153300000Y-92500000D03*
%TO.P,R53,2*%
%TO.N,+3.3V*%
X154320000Y-92500000D03*
%TD*%
D19*
%TO.P,C13,1*%
%TO.N,GND*%
X169980000Y-98500000D03*
%TO.P,C13,2*%
%TO.N,+5V*%
X169020000Y-98500000D03*
%TD*%
D37*
%TO.P,J6,A1,GND_A1*%
%TO.N,GND*%
X160360000Y-84945000D03*
%TO.P,J6,A4,VBUS_A4*%
%TO.N,Net-(D5-Pad2)*%
X159560000Y-84945000D03*
D38*
%TO.P,J6,A5,CC1_A5*%
%TO.N,Net-(J6-CC1)*%
X158360000Y-84945000D03*
%TO.P,J6,A6,D+_A6*%
%TO.N,/USB+*%
X157360000Y-84945000D03*
%TO.P,J6,A7,D-_A7*%
%TO.N,/USB-*%
X156860000Y-84945000D03*
%TO.P,J6,A8,SBU1_A8*%
%TO.N,GND*%
X155860000Y-84945000D03*
D37*
%TO.P,J6,A9,VBUS_A9*%
%TO.N,Net-(D5-Pad2)*%
X154660000Y-84945000D03*
%TO.P,J6,A12,GND_A12*%
%TO.N,GND*%
X153860000Y-84945000D03*
%TO.P,J6,B1,GND_B1*%
X153860000Y-84945000D03*
%TO.P,J6,B4,VBUS_B4*%
%TO.N,Net-(D5-Pad2)*%
X154660000Y-84945000D03*
D38*
%TO.P,J6,B5,CC2_B5*%
%TO.N,Net-(J6-CC2)*%
X155360000Y-84945000D03*
%TO.P,J6,B6,D+_B6*%
%TO.N,/USB+*%
X156360000Y-84945000D03*
%TO.P,J6,B7,D-_B7*%
%TO.N,/USB-*%
X157860000Y-84945000D03*
%TO.P,J6,B8,SBU2_B8*%
%TO.N,GND*%
X158860000Y-84945000D03*
D37*
%TO.P,J6,B9,VBUS_B9*%
%TO.N,Net-(D5-Pad2)*%
X159560000Y-84945000D03*
%TO.P,J6,B12,GND_B12*%
%TO.N,GND*%
X160360000Y-84945000D03*
D39*
%TO.P,J6,SH,SHIELD_SH*%
X161430000Y-84030000D03*
D40*
X161430000Y-79850000D03*
D39*
X152790000Y-84030000D03*
D40*
X152790000Y-79850000D03*
%TD*%
D41*
%TO.P,U2,1,BOOT_1*%
%TO.N,Net-(U2-BOOT)*%
X169710000Y-106000000D03*
%TO.P,U2,2,NC_2*%
%TO.N,unconnected-(U2-NC-Pad2)*%
X168440000Y-106000000D03*
%TO.P,U2,3,NC_3*%
%TO.N,unconnected-(U2-NC-Pad3)*%
X167160000Y-106000000D03*
%TO.P,U2,4,VSENSE_4*%
%TO.N,Net-(U2-VSENSE)*%
X165890000Y-106000000D03*
%TO.P,U2,5,ENA_5*%
%TO.N,Net-(JP5-C)*%
X165890000Y-111400000D03*
%TO.P,U2,6,GND_6*%
%TO.N,GND*%
X167160000Y-111400000D03*
%TO.P,U2,7,VIN_7*%
%TO.N,+12V*%
X168440000Y-111400000D03*
%TO.P,U2,8,PH_8*%
%TO.N,Net-(U2-PH)*%
X169710000Y-111400000D03*
D42*
%TO.P,U2,9,GND_(EP)_9*%
%TO.N,GND*%
X168800000Y-107900000D03*
X167800000Y-107900000D03*
X166700000Y-107900000D03*
D43*
X167800000Y-108700000D03*
D42*
X168800000Y-109500000D03*
X167800000Y-109500000D03*
X166700000Y-109500000D03*
%TD*%
D16*
%TO.P,C58,1*%
%TO.N,GND*%
X134220000Y-93050000D03*
%TO.P,C58,2*%
%TO.N,/CANL_2*%
X135180000Y-93050000D03*
%TD*%
D19*
%TO.P,C11,1*%
%TO.N,GND*%
X169980000Y-100500000D03*
%TO.P,C11,2*%
%TO.N,+5V*%
X169020000Y-100500000D03*
%TD*%
%TO.P,C14,1*%
%TO.N,GND*%
X169980000Y-97500000D03*
%TO.P,C14,2*%
%TO.N,+5V*%
X169020000Y-97500000D03*
%TD*%
D16*
%TO.P,C59,1*%
%TO.N,/CANH_1*%
X144400000Y-86850000D03*
%TO.P,C59,2*%
%TO.N,GND*%
X145360000Y-86850000D03*
%TD*%
D44*
%TO.P,D8,1,A1_1*%
%TO.N,/CANH_2*%
X134700000Y-89800000D03*
%TO.P,D8,2,A2_2*%
%TO.N,/CANL_2*%
X134700000Y-91700000D03*
%TO.P,D8,3,Com_3*%
%TO.N,GND*%
X136700000Y-90750000D03*
%TD*%
D19*
%TO.P,C31,1*%
%TO.N,GND*%
X141050000Y-115050000D03*
%TO.P,C31,2*%
%TO.N,Net-(U5-5VOUT)*%
X140090000Y-115050000D03*
%TD*%
D15*
%TO.P,R6,1*%
%TO.N,Net-(J6-CC1)*%
X159750000Y-88750000D03*
%TO.P,R6,2*%
%TO.N,GND*%
X161400000Y-88750000D03*
%TD*%
D45*
%TO.P,JP1,1,A_1*%
%TO.N,Net-(JP1-A)*%
X166850000Y-90250000D03*
%TO.P,JP1,2,B_2*%
%TO.N,+5V*%
X168150000Y-90250000D03*
%TD*%
D29*
%TO.P,IC3,1,TXD_1*%
%TO.N,/TXD_2*%
X130350000Y-89675000D03*
%TO.P,IC3,2,GND_2*%
%TO.N,GND*%
X130350000Y-90325000D03*
%TO.P,IC3,3,VCC_3*%
%TO.N,+5V*%
X130350000Y-90975000D03*
%TO.P,IC3,4,RXD_4*%
%TO.N,/RXD_2*%
X130350000Y-91625000D03*
%TO.P,IC3,5,VIO_5*%
%TO.N,+3.3V*%
X133250000Y-91625000D03*
%TO.P,IC3,6,CANL_6*%
%TO.N,/CANL_2*%
X133250000Y-90975000D03*
%TO.P,IC3,7,CANH_7*%
%TO.N,/CANH_2*%
X133250000Y-90325000D03*
%TO.P,IC3,8,STBY_8*%
%TO.N,/STBY_2*%
X133250000Y-89675000D03*
D30*
%TO.P,IC3,9,EP_9*%
%TO.N,GND*%
X131800000Y-90650000D03*
%TD*%
D34*
%TO.P,J2,1,Pin_1_1*%
%TO.N,/BOUT2*%
X144500000Y-116550000D03*
D35*
%TO.P,J2,2,Pin_2_2*%
%TO.N,/BOUT1*%
X146500000Y-116550000D03*
%TO.P,J2,3,Pin_3_3*%
%TO.N,/AOUT2*%
X148500000Y-116550000D03*
%TO.P,J2,4,Pin_4_4*%
%TO.N,/AOUT1*%
X150500000Y-116550000D03*
%TD*%
D28*
%TO.P,C18,1*%
%TO.N,GND*%
X160250000Y-92960000D03*
%TO.P,C18,2*%
%TO.N,+3.3V*%
X160250000Y-92000000D03*
%TD*%
D16*
%TO.P,C25,1*%
%TO.N,GND*%
X142420000Y-91500000D03*
%TO.P,C25,2*%
%TO.N,+3.3V*%
X143380000Y-91500000D03*
%TD*%
D46*
%TO.P,C30,1*%
%TO.N,Net-(U5-VCP)*%
X140548008Y-115951992D03*
%TO.P,C30,2*%
%TO.N,+12V*%
X139451992Y-117048008D03*
%TD*%
D16*
%TO.P,C60,1*%
%TO.N,GND*%
X144400000Y-91500000D03*
%TO.P,C60,2*%
%TO.N,/CANL_1*%
X145360000Y-91500000D03*
%TD*%
%TO.P,C24,1*%
%TO.N,GND*%
X140420000Y-91500000D03*
%TO.P,C24,2*%
%TO.N,+5V*%
X141380000Y-91500000D03*
%TD*%
D47*
%TO.P,U1,1,VBAT_1*%
%TO.N,+3.3V*%
X144680000Y-96660000D03*
%TO.P,U1,2,PC13_2*%
%TO.N,unconnected-(U1-PC13-Pad2)*%
X144680000Y-97160000D03*
%TO.P,U1,3,PC14_3*%
%TO.N,unconnected-(U1-PC14-Pad3)*%
X144680000Y-97660000D03*
%TO.P,U1,4,PC15_4*%
%TO.N,unconnected-(U1-PC15-Pad4)*%
X144680000Y-98160000D03*
%TO.P,U1,5,PD0_5*%
%TO.N,Net-(U1-PD0)*%
X144680000Y-98660000D03*
%TO.P,U1,6,PD1_6*%
%TO.N,Net-(U1-PD1)*%
X144680000Y-99160000D03*
%TO.P,U1,7,NRST_7*%
%TO.N,/~{RESET}*%
X144680000Y-99660000D03*
%TO.P,U1,8,VSSA_8*%
%TO.N,unconnected-(U1-VSSA-Pad8)*%
X144680000Y-100160000D03*
%TO.P,U1,9,VDDA_9*%
%TO.N,+3.3V*%
X144680000Y-100660000D03*
%TO.P,U1,10,PA0_10*%
%TO.N,/AIN1*%
X144680000Y-101160000D03*
%TO.P,U1,11,PA1_11*%
%TO.N,/AIN2*%
X144680000Y-101660000D03*
%TO.P,U1,12,PA2_12*%
%TO.N,/BIN1*%
X144680000Y-102160000D03*
D48*
%TO.P,U1,13,PA3_13*%
%TO.N,/BIN2*%
X146090000Y-103570000D03*
%TO.P,U1,14,PA4_14*%
%TO.N,unconnected-(U1-PA4-Pad14)*%
X146590000Y-103570000D03*
%TO.P,U1,15,PA5_15*%
%TO.N,unconnected-(U1-PA5-Pad15)*%
X147090000Y-103570000D03*
%TO.P,U1,16,PA6_16*%
%TO.N,unconnected-(U1-PA6-Pad16)*%
X147590000Y-103570000D03*
%TO.P,U1,17,PA7_17*%
%TO.N,unconnected-(U1-PA7-Pad17)*%
X148090000Y-103570000D03*
%TO.P,U1,18,PB0_18*%
%TO.N,unconnected-(U1-PB0-Pad18)*%
X148590000Y-103570000D03*
%TO.P,U1,19,PB1_19*%
%TO.N,unconnected-(U1-PB1-Pad19)*%
X149090000Y-103570000D03*
%TO.P,U1,20,PB2_20*%
%TO.N,unconnected-(U1-PB2-Pad20)*%
X149590000Y-103570000D03*
%TO.P,U1,21,PB10_21*%
%TO.N,unconnected-(U1-PB10-Pad21)*%
X150090000Y-103570000D03*
%TO.P,U1,22,PB11_22*%
%TO.N,unconnected-(U1-PB11-Pad22)*%
X150590000Y-103570000D03*
%TO.P,U1,23,VSS_23*%
%TO.N,Net-(U1-VSS-Pad23)*%
X151090000Y-103570000D03*
%TO.P,U1,24,VDD_24*%
%TO.N,+3.3V*%
X151590000Y-103570000D03*
D47*
%TO.P,U1,25,PB12_25*%
%TO.N,unconnected-(U1-PB12-Pad25)*%
X153000000Y-102160000D03*
%TO.P,U1,26,PB13_26*%
%TO.N,unconnected-(U1-PB13-Pad26)*%
X153000000Y-101660000D03*
%TO.P,U1,27,PB14_27*%
%TO.N,unconnected-(U1-PB14-Pad27)*%
X153000000Y-101160000D03*
%TO.P,U1,28,PB15_28*%
%TO.N,unconnected-(U1-PB15-Pad28)*%
X153000000Y-100660000D03*
%TO.P,U1,29,PA8_29*%
%TO.N,unconnected-(U1-PA8-Pad29)*%
X153000000Y-100160000D03*
%TO.P,U1,30,PA9_30*%
%TO.N,unconnected-(U1-PA9-Pad30)*%
X153000000Y-99660000D03*
%TO.P,U1,31,PA10_31*%
%TO.N,unconnected-(U1-PA10-Pad31)*%
X153000000Y-99160000D03*
%TO.P,U1,32,PA11_32*%
%TO.N,/USB-*%
X153000000Y-98660000D03*
%TO.P,U1,33,PA12_33*%
%TO.N,/USB+*%
X153000000Y-98160000D03*
%TO.P,U1,34,PA13_34*%
%TO.N,/SWDIO{slash}TMS*%
X153000000Y-97660000D03*
%TO.P,U1,35,VSS_35*%
%TO.N,Net-(U1-VSS-Pad23)*%
X153000000Y-97160000D03*
%TO.P,U1,36,VDD_36*%
%TO.N,+3.3V*%
X153000000Y-96660000D03*
D48*
%TO.P,U1,37,PA14_37*%
%TO.N,/SWCLK{slash}TCK*%
X151590000Y-95250000D03*
%TO.P,U1,38,PA15_38*%
%TO.N,unconnected-(U1-PA15-Pad38)*%
X151090000Y-95250000D03*
%TO.P,U1,39,PB3_39*%
%TO.N,unconnected-(U1-PB3-Pad39)*%
X150590000Y-95250000D03*
%TO.P,U1,40,PB4_40*%
%TO.N,unconnected-(U1-PB4-Pad40)*%
X150090000Y-95250000D03*
%TO.P,U1,41,PB5_41*%
%TO.N,unconnected-(U1-PB5-Pad41)*%
X149590000Y-95250000D03*
%TO.P,U1,42,PB6_42*%
%TO.N,/SCL*%
X149090000Y-95250000D03*
%TO.P,U1,43,PB7_43*%
%TO.N,/SDA*%
X148590000Y-95250000D03*
%TO.P,U1,44,BOOT0_44*%
%TO.N,Net-(U1-BOOT0)*%
X148090000Y-95250000D03*
%TO.P,U1,45,PB8_45*%
%TO.N,unconnected-(U1-PB8-Pad45)*%
X147590000Y-95250000D03*
%TO.P,U1,46,PB9_46*%
%TO.N,unconnected-(U1-PB9-Pad46)*%
X147090000Y-95250000D03*
%TO.P,U1,47,VSS_47*%
%TO.N,Net-(U1-VSS-Pad23)*%
X146590000Y-95250000D03*
%TO.P,U1,48,VDD_48*%
%TO.N,+3.3V*%
X146090000Y-95250000D03*
%TD*%
D11*
%TO.P,J9,1,Pin_1_1*%
%TO.N,/CANL_1*%
X133450000Y-106000000D03*
D12*
%TO.P,J9,2,Pin_2_2*%
%TO.N,/CANH_1*%
X133450000Y-108000000D03*
%TO.P,J9,3,Pin_3_3*%
%TO.N,GND*%
X133450000Y-110000000D03*
%TD*%
D36*
%TO.P,R2,1*%
%TO.N,GND*%
X147490000Y-93410000D03*
%TO.P,R2,2*%
%TO.N,Net-(U1-BOOT0)*%
X148510000Y-93410000D03*
%TD*%
D49*
%TO.P,C3,1*%
%TO.N,+12V*%
X151000000Y-112000000D03*
D50*
%TO.P,C3,2*%
%TO.N,GND*%
X151000000Y-108500000D03*
%TD*%
D51*
%TO.P,R54,1*%
%TO.N,/SCL*%
X151050000Y-91210000D03*
%TO.P,R54,2*%
%TO.N,+3.3V*%
X151050000Y-90190000D03*
%TD*%
D52*
%TO.P,D5,1*%
%TO.N,Net-(JP1-A)*%
X165050000Y-90250000D03*
%TO.P,D5,2*%
%TO.N,Net-(D5-Pad2)*%
X162950000Y-90250000D03*
%TD*%
D28*
%TO.P,C28,1*%
%TO.N,GND*%
X152750000Y-104870000D03*
%TO.P,C28,2*%
%TO.N,+3.3V*%
X152750000Y-103910000D03*
%TD*%
D51*
%TO.P,R3,1*%
%TO.N,/STDBY*%
X146050000Y-106420000D03*
%TO.P,R3,2*%
%TO.N,GND*%
X146050000Y-105400000D03*
%TD*%
D53*
%TO.P,C19,1*%
%TO.N,GND*%
X151000000Y-88220000D03*
%TO.P,C19,2*%
%TO.N,+3.3V*%
X151000000Y-89180000D03*
%TD*%
D28*
%TO.P,C16,1*%
%TO.N,GND*%
X158250000Y-92960000D03*
%TO.P,C16,2*%
%TO.N,+3.3V*%
X158250000Y-92000000D03*
%TD*%
D54*
%TO.P,L1,1,1_1*%
%TO.N,Net-(U2-PH)*%
X157225000Y-105250000D03*
%TO.P,L1,2,2_2*%
%TO.N,+5V*%
X162775000Y-105250000D03*
%TD*%
D16*
%TO.P,C2,1*%
%TO.N,GND*%
X142110000Y-98410000D03*
%TO.P,C2,2*%
%TO.N,Net-(U1-PD0)*%
X143070000Y-98410000D03*
%TD*%
D55*
%TO.P,R51,1*%
%TO.N,/SDA*%
X152060000Y-92500000D03*
%TO.P,R51,2*%
%TO.N,+3.3V*%
X151040000Y-92500000D03*
%TD*%
D26*
%TO.P,H8,1,1_1*%
%TO.N,GND*%
X134500000Y-84500000D03*
D27*
X134500000Y-84500000D03*
%TD*%
D13*
%TO.P,C7,1*%
%TO.N,GND*%
X158450000Y-110200000D03*
%TO.P,C7,2*%
%TO.N,+12V*%
X158450000Y-111750000D03*
%TD*%
D53*
%TO.P,C1,1*%
%TO.N,GND*%
X143250000Y-106110000D03*
%TO.P,C1,2*%
%TO.N,/~{RESET}*%
X143250000Y-107070000D03*
%TD*%
D19*
%TO.P,C20,1*%
%TO.N,GND*%
X156550000Y-92450000D03*
%TO.P,C20,2*%
%TO.N,+3.3V*%
X155590000Y-92450000D03*
%TD*%
D26*
%TO.P,H7,1,1_1*%
%TO.N,GND*%
X134500000Y-115500000D03*
D27*
X134500000Y-115500000D03*
%TD*%
D56*
%TO.P,R11,1*%
%TO.N,GND*%
X167800000Y-104300000D03*
%TO.P,R11,2*%
%TO.N,Net-(U2-VSENSE)*%
X167800000Y-102650000D03*
%TD*%
D57*
%TO.P,J3,1,1_1*%
%TO.N,+3.3V*%
X142440000Y-82500000D03*
D58*
%TO.P,J3,2,2_2*%
%TO.N,/SWDIO{slash}TMS*%
X142440000Y-81230000D03*
%TO.P,J3,3,3_3*%
%TO.N,GND*%
X143710000Y-82500000D03*
%TO.P,J3,4,4_4*%
%TO.N,/SWCLK{slash}TCK*%
X143710000Y-81230000D03*
%TO.P,J3,5,5_5*%
%TO.N,unconnected-(J3-Pad5)*%
X144980000Y-82500000D03*
%TO.P,J3,6,6_6*%
%TO.N,/SWO{slash}TDO*%
X144980000Y-81230000D03*
%TO.P,J3,7,7_7*%
%TO.N,unconnected-(J3-Pad7)*%
X146250000Y-82500000D03*
%TO.P,J3,8,8_8*%
%TO.N,unconnected-(J3-Pad8)*%
X146250000Y-81230000D03*
%TO.P,J3,9,9_9*%
%TO.N,GND*%
X147520000Y-82500000D03*
%TO.P,J3,10,10_10*%
%TO.N,/~{RESET}*%
X147520000Y-81230000D03*
%TD*%
D25*
%TO.P,R48,1*%
%TO.N,Net-(JP3-B)*%
X136425000Y-88150000D03*
%TO.P,R48,2*%
%TO.N,/CANH_2*%
X137975000Y-88150000D03*
%TD*%
D13*
%TO.P,C4,1*%
%TO.N,GND*%
X163250000Y-110200000D03*
%TO.P,C4,2*%
%TO.N,+12V*%
X163250000Y-111750000D03*
%TD*%
D44*
%TO.P,D11,1,A1_1*%
%TO.N,/CANH_1*%
X144900000Y-88300000D03*
%TO.P,D11,2,A2_2*%
%TO.N,/CANL_1*%
X144900000Y-90200000D03*
%TO.P,D11,3,Com_3*%
%TO.N,GND*%
X146900000Y-89250000D03*
%TD*%
D25*
%TO.P,R49,1*%
%TO.N,/CANL_2*%
X136425000Y-93250000D03*
%TO.P,R49,2*%
%TO.N,Net-(JP3-A)*%
X137975000Y-93250000D03*
%TD*%
D59*
%TO.P,U3,1,GND_1*%
%TO.N,GND*%
X162300000Y-99650000D03*
%TO.P,U3,2,VO_2*%
%TO.N,+3.3V*%
X164600000Y-99650000D03*
D60*
X164600000Y-93350000D03*
D59*
%TO.P,U3,3,VI_3*%
%TO.N,+5V*%
X166900000Y-99650000D03*
%TD*%
D51*
%TO.P,R10,1*%
%TO.N,Net-(U2-VSENSE)*%
X166000000Y-103985000D03*
%TO.P,R10,2*%
%TO.N,+5V*%
X166000000Y-102965000D03*
%TD*%
D61*
%TO.P,R1,1*%
%TO.N,+3.3V*%
X143250000Y-104065000D03*
%TO.P,R1,2*%
%TO.N,/~{RESET}*%
X143250000Y-105085000D03*
%TD*%
%TA.AperFunction,Conductor*%
%TO.N,GND*%
G36*
X168458363Y-79370185D02*
G01*
X168479005Y-79386819D01*
X170613181Y-81520995D01*
X170646666Y-81582318D01*
X170649500Y-81608676D01*
X170649500Y-102116289D01*
X170629815Y-102183328D01*
X170577011Y-102229083D01*
X170507853Y-102239027D01*
X170444297Y-102210002D01*
X170415902Y-102172383D01*
X170415795Y-102172450D01*
X170415088Y-102171304D01*
X170413118Y-102168694D01*
X170412004Y-102166307D01*
X170412003Y-102166303D01*
X170322968Y-102021956D01*
X170203044Y-101902032D01*
X170203040Y-101902029D01*
X170058705Y-101813001D01*
X170058699Y-101812998D01*
X170058697Y-101812997D01*
X170039157Y-101806522D01*
X169897709Y-101759651D01*
X169798346Y-101749500D01*
X169201662Y-101749500D01*
X169201644Y-101749501D01*
X169102292Y-101759650D01*
X169102289Y-101759651D01*
X168941305Y-101812996D01*
X168941294Y-101813001D01*
X168796959Y-101902029D01*
X168796955Y-101902032D01*
X168745002Y-101953985D01*
X168683679Y-101987469D01*
X168613987Y-101982484D01*
X168569642Y-101953985D01*
X168510185Y-101894528D01*
X168364606Y-101806522D01*
X168202196Y-101755914D01*
X168202194Y-101755913D01*
X168202192Y-101755913D01*
X168152778Y-101751423D01*
X168131616Y-101749500D01*
X167468384Y-101749500D01*
X167449145Y-101751248D01*
X167397807Y-101755913D01*
X167235393Y-101806522D01*
X167089811Y-101894530D01*
X166969530Y-102014811D01*
X166881522Y-102160393D01*
X166870894Y-102194500D01*
X166832320Y-102318294D01*
X166831504Y-102320912D01*
X166792766Y-102379060D01*
X166728741Y-102407034D01*
X166659756Y-102395953D01*
X166625437Y-102371703D01*
X166577603Y-102323869D01*
X166577595Y-102323863D01*
X166439393Y-102242131D01*
X166439388Y-102242129D01*
X166285208Y-102197335D01*
X166285202Y-102197334D01*
X166249181Y-102194500D01*
X165750830Y-102194500D01*
X165750808Y-102194501D01*
X165714794Y-102197335D01*
X165560611Y-102242129D01*
X165560606Y-102242131D01*
X165422404Y-102323863D01*
X165422396Y-102323869D01*
X165308869Y-102437396D01*
X165308863Y-102437404D01*
X165227131Y-102575606D01*
X165227129Y-102575611D01*
X165182335Y-102729791D01*
X165182334Y-102729797D01*
X165179500Y-102765811D01*
X165179500Y-103164169D01*
X165179501Y-103164191D01*
X165182335Y-103200205D01*
X165227129Y-103354388D01*
X165227132Y-103354395D01*
X165261128Y-103411881D01*
X165278309Y-103479605D01*
X165261128Y-103538119D01*
X165227132Y-103595604D01*
X165227129Y-103595611D01*
X165182335Y-103749791D01*
X165182334Y-103749797D01*
X165179500Y-103785811D01*
X165179500Y-104184169D01*
X165179501Y-104184191D01*
X165182335Y-104220205D01*
X165227129Y-104374388D01*
X165227131Y-104374393D01*
X165308863Y-104512595D01*
X165308869Y-104512603D01*
X165422396Y-104626130D01*
X165422400Y-104626133D01*
X165422402Y-104626135D01*
X165547272Y-104699983D01*
X165557934Y-104706288D01*
X165605617Y-104757357D01*
X165618121Y-104826099D01*
X165591476Y-104890688D01*
X165542265Y-104927581D01*
X165510827Y-104940602D01*
X165510814Y-104940609D01*
X165379711Y-105028210D01*
X165379707Y-105028213D01*
X165268213Y-105139707D01*
X165268210Y-105139711D01*
X165180609Y-105270814D01*
X165180602Y-105270827D01*
X165120264Y-105416498D01*
X165120261Y-105416510D01*
X165089500Y-105571153D01*
X165089500Y-106428846D01*
X165120261Y-106583489D01*
X165120264Y-106583501D01*
X165180602Y-106729172D01*
X165180609Y-106729185D01*
X165268210Y-106860288D01*
X165268213Y-106860292D01*
X165379707Y-106971786D01*
X165379711Y-106971789D01*
X165510814Y-107059390D01*
X165510827Y-107059397D01*
X165626919Y-107107483D01*
X165656503Y-107119737D01*
X165772790Y-107142868D01*
X165811153Y-107150499D01*
X165811156Y-107150500D01*
X165811158Y-107150500D01*
X165968844Y-107150500D01*
X165968845Y-107150499D01*
X166123497Y-107119737D01*
X166259561Y-107063378D01*
X166269172Y-107059397D01*
X166269172Y-107059396D01*
X166269179Y-107059394D01*
X166400289Y-106971789D01*
X166400292Y-106971786D01*
X166437319Y-106934760D01*
X166498642Y-106901275D01*
X166568334Y-106906259D01*
X166612681Y-106934760D01*
X166649707Y-106971786D01*
X166649711Y-106971789D01*
X166780814Y-107059390D01*
X166780827Y-107059397D01*
X166896919Y-107107483D01*
X166926503Y-107119737D01*
X167042790Y-107142868D01*
X167081153Y-107150499D01*
X167081156Y-107150500D01*
X167081158Y-107150500D01*
X167238844Y-107150500D01*
X167238845Y-107150499D01*
X167393497Y-107119737D01*
X167529561Y-107063378D01*
X167539172Y-107059397D01*
X167539172Y-107059396D01*
X167539179Y-107059394D01*
X167670289Y-106971789D01*
X167670292Y-106971786D01*
X167712319Y-106929760D01*
X167773642Y-106896275D01*
X167843334Y-106901259D01*
X167887681Y-106929760D01*
X167929707Y-106971786D01*
X167929711Y-106971789D01*
X168060814Y-107059390D01*
X168060827Y-107059397D01*
X168176919Y-107107483D01*
X168206503Y-107119737D01*
X168322790Y-107142868D01*
X168361153Y-107150499D01*
X168361156Y-107150500D01*
X168361158Y-107150500D01*
X168518844Y-107150500D01*
X168518845Y-107150499D01*
X168673497Y-107119737D01*
X168809561Y-107063378D01*
X168819172Y-107059397D01*
X168819172Y-107059396D01*
X168819179Y-107059394D01*
X168950289Y-106971789D01*
X168950292Y-106971786D01*
X168987319Y-106934760D01*
X169048642Y-106901275D01*
X169118334Y-106906259D01*
X169162681Y-106934760D01*
X169199707Y-106971786D01*
X169199711Y-106971789D01*
X169330814Y-107059390D01*
X169330827Y-107059397D01*
X169446919Y-107107483D01*
X169476503Y-107119737D01*
X169592790Y-107142868D01*
X169631153Y-107150499D01*
X169631156Y-107150500D01*
X169631158Y-107150500D01*
X169788844Y-107150500D01*
X169788845Y-107150499D01*
X169943497Y-107119737D01*
X170079561Y-107063378D01*
X170089172Y-107059397D01*
X170089172Y-107059396D01*
X170089179Y-107059394D01*
X170220289Y-106971789D01*
X170331789Y-106860289D01*
X170419394Y-106729179D01*
X170422398Y-106724684D01*
X170476010Y-106679879D01*
X170545335Y-106671172D01*
X170608363Y-106701326D01*
X170645082Y-106760770D01*
X170649500Y-106793575D01*
X170649500Y-110606424D01*
X170629815Y-110673463D01*
X170577011Y-110719218D01*
X170507853Y-110729162D01*
X170444297Y-110700137D01*
X170422398Y-110675315D01*
X170331789Y-110539711D01*
X170331786Y-110539707D01*
X170220292Y-110428213D01*
X170220288Y-110428210D01*
X170089185Y-110340609D01*
X170089172Y-110340602D01*
X169943501Y-110280264D01*
X169943489Y-110280261D01*
X169788845Y-110249500D01*
X169788842Y-110249500D01*
X169631158Y-110249500D01*
X169631155Y-110249500D01*
X169476510Y-110280261D01*
X169476498Y-110280264D01*
X169330827Y-110340602D01*
X169330814Y-110340609D01*
X169199711Y-110428210D01*
X169199707Y-110428213D01*
X169162681Y-110465240D01*
X169101358Y-110498725D01*
X169031666Y-110493741D01*
X168987319Y-110465240D01*
X168950292Y-110428213D01*
X168950288Y-110428210D01*
X168819185Y-110340609D01*
X168819172Y-110340602D01*
X168673501Y-110280264D01*
X168673489Y-110280261D01*
X168518845Y-110249500D01*
X168518842Y-110249500D01*
X168361158Y-110249500D01*
X168361155Y-110249500D01*
X168206510Y-110280261D01*
X168206498Y-110280264D01*
X168060827Y-110340602D01*
X168060814Y-110340609D01*
X167929711Y-110428210D01*
X167929707Y-110428213D01*
X167818213Y-110539707D01*
X167818210Y-110539711D01*
X167730609Y-110670814D01*
X167730602Y-110670827D01*
X167670264Y-110816498D01*
X167670261Y-110816510D01*
X167639500Y-110971153D01*
X167639500Y-111828846D01*
X167670261Y-111983489D01*
X167670264Y-111983501D01*
X167730602Y-112129172D01*
X167730609Y-112129185D01*
X167818210Y-112260288D01*
X167818213Y-112260292D01*
X167929707Y-112371786D01*
X167929711Y-112371789D01*
X168060814Y-112459390D01*
X168060827Y-112459397D01*
X168183459Y-112510192D01*
X168206503Y-112519737D01*
X168348424Y-112547967D01*
X168361153Y-112550499D01*
X168361156Y-112550500D01*
X168361158Y-112550500D01*
X168518844Y-112550500D01*
X168518845Y-112550499D01*
X168673497Y-112519737D01*
X168786166Y-112473067D01*
X168819172Y-112459397D01*
X168819172Y-112459396D01*
X168819179Y-112459394D01*
X168950289Y-112371789D01*
X168963384Y-112358694D01*
X168987319Y-112334760D01*
X169048642Y-112301275D01*
X169118334Y-112306259D01*
X169162681Y-112334760D01*
X169199707Y-112371786D01*
X169199711Y-112371789D01*
X169330814Y-112459390D01*
X169330827Y-112459397D01*
X169453459Y-112510192D01*
X169476503Y-112519737D01*
X169618424Y-112547967D01*
X169631153Y-112550499D01*
X169631156Y-112550500D01*
X169631158Y-112550500D01*
X169788844Y-112550500D01*
X169788845Y-112550499D01*
X169943497Y-112519737D01*
X170056166Y-112473067D01*
X170089172Y-112459397D01*
X170089172Y-112459396D01*
X170089179Y-112459394D01*
X170220289Y-112371789D01*
X170331789Y-112260289D01*
X170419394Y-112129179D01*
X170422398Y-112124684D01*
X170476010Y-112079879D01*
X170545335Y-112071172D01*
X170608363Y-112101326D01*
X170645082Y-112160770D01*
X170649500Y-112193575D01*
X170649500Y-118391324D01*
X170629815Y-118458363D01*
X170613181Y-118479005D01*
X168479005Y-120613181D01*
X168417682Y-120646666D01*
X168391324Y-120649500D01*
X131608676Y-120649500D01*
X131541637Y-120629815D01*
X131520995Y-120613181D01*
X129386819Y-118479005D01*
X129353334Y-118417682D01*
X129350500Y-118391324D01*
X129350500Y-110001647D01*
X136074500Y-110001647D01*
X136074500Y-110548337D01*
X136074501Y-110548355D01*
X136084650Y-110647707D01*
X136084651Y-110647710D01*
X136137996Y-110808694D01*
X136138001Y-110808705D01*
X136227029Y-110953040D01*
X136227032Y-110953044D01*
X136236307Y-110962319D01*
X136269792Y-111023642D01*
X136264808Y-111093334D01*
X136236307Y-111137681D01*
X136227032Y-111146955D01*
X136227029Y-111146959D01*
X136138001Y-111291294D01*
X136137996Y-111291305D01*
X136084651Y-111452290D01*
X136074500Y-111551647D01*
X136074500Y-112098337D01*
X136074501Y-112098355D01*
X136084650Y-112197707D01*
X136084651Y-112197710D01*
X136137996Y-112358694D01*
X136138001Y-112358705D01*
X136227029Y-112503040D01*
X136227032Y-112503044D01*
X136346955Y-112622967D01*
X136346959Y-112622970D01*
X136491294Y-112711998D01*
X136491297Y-112711999D01*
X136491303Y-112712003D01*
X136652292Y-112765349D01*
X136751655Y-112775500D01*
X137348344Y-112775499D01*
X137348352Y-112775498D01*
X137348355Y-112775498D01*
X137402760Y-112769940D01*
X137447708Y-112765349D01*
X137608697Y-112712003D01*
X137722249Y-112641962D01*
X137789639Y-112623522D01*
X137856303Y-112644444D01*
X137901073Y-112698085D01*
X137910284Y-112731318D01*
X137913988Y-112759463D01*
X137913991Y-112759472D01*
X137959498Y-112869336D01*
X137970721Y-112896429D01*
X138060964Y-113014036D01*
X138178571Y-113104279D01*
X138315528Y-113161009D01*
X138425599Y-113175500D01*
X139000500Y-113175499D01*
X139067539Y-113195183D01*
X139113294Y-113247987D01*
X139124500Y-113299499D01*
X139124500Y-113874403D01*
X139138988Y-113984463D01*
X139138991Y-113984472D01*
X139195721Y-114121429D01*
X139285964Y-114239036D01*
X139403571Y-114329279D01*
X139403573Y-114329279D01*
X139404427Y-114329935D01*
X139445629Y-114386363D01*
X139449784Y-114456109D01*
X139435672Y-114491431D01*
X139357507Y-114623602D01*
X139357504Y-114623609D01*
X139312357Y-114779002D01*
X139312356Y-114779008D01*
X139309500Y-114815302D01*
X139309500Y-115284697D01*
X139312356Y-115320991D01*
X139312357Y-115320997D01*
X139357504Y-115476390D01*
X139357505Y-115476393D01*
X139357506Y-115476395D01*
X139366054Y-115490849D01*
X139439881Y-115615684D01*
X139439887Y-115615692D01*
X139473537Y-115649341D01*
X139507023Y-115710663D01*
X139507790Y-115759568D01*
X139507224Y-115762628D01*
X139486632Y-115849515D01*
X139486632Y-115873997D01*
X139484565Y-115885177D01*
X139473716Y-115906617D01*
X139466947Y-115929671D01*
X139458229Y-115937225D01*
X139453020Y-115947520D01*
X139432300Y-115959692D01*
X139414143Y-115975426D01*
X139400448Y-115978405D01*
X139392777Y-115982912D01*
X139381760Y-115982470D01*
X139362632Y-115986632D01*
X139349515Y-115986632D01*
X139184489Y-116025744D01*
X139184485Y-116025745D01*
X139032933Y-116101858D01*
X138955492Y-116164941D01*
X138955486Y-116164947D01*
X138568934Y-116551501D01*
X138568926Y-116551510D01*
X138505844Y-116628945D01*
X138505839Y-116628953D01*
X138429729Y-116780501D01*
X138429728Y-116780504D01*
X138429728Y-116780505D01*
X138390616Y-116945531D01*
X138390616Y-117115129D01*
X138421976Y-117247445D01*
X138429729Y-117280158D01*
X138505840Y-117431708D01*
X138505843Y-117431713D01*
X138568925Y-117509151D01*
X138990849Y-117931073D01*
X139068287Y-117994157D01*
X139068290Y-117994158D01*
X139068292Y-117994160D01*
X139219841Y-118070270D01*
X139219845Y-118070272D01*
X139384871Y-118109384D01*
X139384873Y-118109384D01*
X139554467Y-118109384D01*
X139554469Y-118109384D01*
X139719495Y-118070272D01*
X139871052Y-117994157D01*
X139948491Y-117931075D01*
X140335057Y-117544507D01*
X140398141Y-117467068D01*
X140474256Y-117315511D01*
X140513368Y-117150485D01*
X140513368Y-117137368D01*
X140533053Y-117070329D01*
X140585857Y-117024574D01*
X140637368Y-117013368D01*
X140650483Y-117013368D01*
X140650485Y-117013368D01*
X140815511Y-116974256D01*
X140967068Y-116898141D01*
X141044507Y-116835059D01*
X141431073Y-116448491D01*
X141494157Y-116371052D01*
X141570272Y-116219495D01*
X141609384Y-116054469D01*
X141609384Y-115884871D01*
X141607040Y-115874983D01*
X143399500Y-115874983D01*
X143399500Y-117225001D01*
X143399501Y-117225018D01*
X143410000Y-117327796D01*
X143410001Y-117327799D01*
X143465185Y-117494331D01*
X143465187Y-117494336D01*
X143488870Y-117532732D01*
X143557288Y-117643656D01*
X143681344Y-117767712D01*
X143830666Y-117859814D01*
X143997203Y-117914999D01*
X144099991Y-117925500D01*
X144900008Y-117925499D01*
X144900016Y-117925498D01*
X144900019Y-117925498D01*
X144956302Y-117919748D01*
X145002797Y-117914999D01*
X145169334Y-117859814D01*
X145318656Y-117767712D01*
X145442712Y-117643656D01*
X145482310Y-117579456D01*
X145534258Y-117532732D01*
X145603220Y-117521509D01*
X145667303Y-117549352D01*
X145675530Y-117556872D01*
X145783072Y-117664414D01*
X145923212Y-117766232D01*
X146077555Y-117844873D01*
X146242299Y-117898402D01*
X146413389Y-117925500D01*
X146413390Y-117925500D01*
X146586610Y-117925500D01*
X146586611Y-117925500D01*
X146757701Y-117898402D01*
X146922445Y-117844873D01*
X147076788Y-117766232D01*
X147216928Y-117664414D01*
X147339414Y-117541928D01*
X147399682Y-117458975D01*
X147455012Y-117416311D01*
X147524626Y-117410332D01*
X147586421Y-117442938D01*
X147600315Y-117458973D01*
X147660586Y-117541928D01*
X147783072Y-117664414D01*
X147923212Y-117766232D01*
X148077555Y-117844873D01*
X148242299Y-117898402D01*
X148413389Y-117925500D01*
X148413390Y-117925500D01*
X148586610Y-117925500D01*
X148586611Y-117925500D01*
X148757701Y-117898402D01*
X148922445Y-117844873D01*
X149076788Y-117766232D01*
X149216928Y-117664414D01*
X149339414Y-117541928D01*
X149399682Y-117458975D01*
X149455012Y-117416311D01*
X149524626Y-117410332D01*
X149586421Y-117442938D01*
X149600315Y-117458973D01*
X149660586Y-117541928D01*
X149783072Y-117664414D01*
X149923212Y-117766232D01*
X150077555Y-117844873D01*
X150242299Y-117898402D01*
X150413389Y-117925500D01*
X150413390Y-117925500D01*
X150586610Y-117925500D01*
X150586611Y-117925500D01*
X150757701Y-117898402D01*
X150922445Y-117844873D01*
X151076788Y-117766232D01*
X151216928Y-117664414D01*
X151339414Y-117541928D01*
X151441232Y-117401788D01*
X151519873Y-117247445D01*
X151573402Y-117082701D01*
X151600500Y-116911611D01*
X151600500Y-116188389D01*
X156399500Y-116188389D01*
X156399500Y-116911610D01*
X156417391Y-117024574D01*
X156426598Y-117082701D01*
X156480127Y-117247445D01*
X156558768Y-117401788D01*
X156660586Y-117541928D01*
X156783072Y-117664414D01*
X156923212Y-117766232D01*
X157077555Y-117844873D01*
X157242299Y-117898402D01*
X157413389Y-117925500D01*
X157413390Y-117925500D01*
X157586610Y-117925500D01*
X157586611Y-117925500D01*
X157757701Y-117898402D01*
X157922445Y-117844873D01*
X158076788Y-117766232D01*
X158216928Y-117664414D01*
X158339414Y-117541928D01*
X158399682Y-117458975D01*
X158455012Y-117416311D01*
X158524626Y-117410332D01*
X158586421Y-117442938D01*
X158600315Y-117458973D01*
X158660586Y-117541928D01*
X158783072Y-117664414D01*
X158923212Y-117766232D01*
X159077555Y-117844873D01*
X159242299Y-117898402D01*
X159413389Y-117925500D01*
X159413390Y-117925500D01*
X159586610Y-117925500D01*
X159586611Y-117925500D01*
X159757701Y-117898402D01*
X159922445Y-117844873D01*
X160076788Y-117766232D01*
X160216928Y-117664414D01*
X160339414Y-117541928D01*
X160441232Y-117401788D01*
X160519873Y-117247445D01*
X160573402Y-117082701D01*
X160600500Y-116911611D01*
X160600500Y-116188389D01*
X160573402Y-116017299D01*
X160519873Y-115852555D01*
X160441232Y-115698212D01*
X160339414Y-115558072D01*
X160216928Y-115435586D01*
X160076788Y-115333768D01*
X159922445Y-115255127D01*
X159757701Y-115201598D01*
X159757699Y-115201597D01*
X159757698Y-115201597D01*
X159626271Y-115180781D01*
X159586611Y-115174500D01*
X159413389Y-115174500D01*
X159373728Y-115180781D01*
X159242302Y-115201597D01*
X159077552Y-115255128D01*
X158923211Y-115333768D01*
X158843256Y-115391859D01*
X158783072Y-115435586D01*
X158783070Y-115435588D01*
X158783069Y-115435588D01*
X158660588Y-115558069D01*
X158660581Y-115558078D01*
X158600317Y-115641023D01*
X158544987Y-115683689D01*
X158475374Y-115689667D01*
X158413579Y-115657061D01*
X158399683Y-115641023D01*
X158349263Y-115571628D01*
X158339414Y-115558072D01*
X158216928Y-115435586D01*
X158076788Y-115333768D01*
X157922445Y-115255127D01*
X157757701Y-115201598D01*
X157757699Y-115201597D01*
X157757698Y-115201597D01*
X157626271Y-115180781D01*
X157586611Y-115174500D01*
X157413389Y-115174500D01*
X157373728Y-115180781D01*
X157242302Y-115201597D01*
X157077552Y-115255128D01*
X156923211Y-115333768D01*
X156843256Y-115391859D01*
X156783072Y-115435586D01*
X156783070Y-115435588D01*
X156783069Y-115435588D01*
X156660588Y-115558069D01*
X156660588Y-115558070D01*
X156660586Y-115558072D01*
X156616859Y-115618256D01*
X156558768Y-115698211D01*
X156480128Y-115852552D01*
X156426597Y-116017302D01*
X156399500Y-116188389D01*
X151600500Y-116188389D01*
X151573402Y-116017299D01*
X151519873Y-115852555D01*
X151441232Y-115698212D01*
X151339414Y-115558072D01*
X151216928Y-115435586D01*
X151076788Y-115333768D01*
X150922445Y-115255127D01*
X150757701Y-115201598D01*
X150757699Y-115201597D01*
X150757698Y-115201597D01*
X150626271Y-115180781D01*
X150586611Y-115174500D01*
X150413389Y-115174500D01*
X150373728Y-115180781D01*
X150242302Y-115201597D01*
X150077552Y-115255128D01*
X149923211Y-115333768D01*
X149843256Y-115391859D01*
X149783072Y-115435586D01*
X149783070Y-115435588D01*
X149783069Y-115435588D01*
X149660588Y-115558069D01*
X149660581Y-115558078D01*
X149600317Y-115641023D01*
X149544987Y-115683689D01*
X149475374Y-115689667D01*
X149413579Y-115657061D01*
X149399683Y-115641023D01*
X149349263Y-115571628D01*
X149339414Y-115558072D01*
X149216928Y-115435586D01*
X149076788Y-115333768D01*
X148922445Y-115255127D01*
X148757701Y-115201598D01*
X148757699Y-115201597D01*
X148757698Y-115201597D01*
X148626271Y-115180781D01*
X148586611Y-115174500D01*
X148413389Y-115174500D01*
X148373728Y-115180781D01*
X148242302Y-115201597D01*
X148077552Y-115255128D01*
X147923211Y-115333768D01*
X147843256Y-115391859D01*
X147783072Y-115435586D01*
X147783070Y-115435588D01*
X147783069Y-115435588D01*
X147660588Y-115558069D01*
X147660581Y-115558078D01*
X147600317Y-115641023D01*
X147544987Y-115683689D01*
X147475374Y-115689667D01*
X147413579Y-115657061D01*
X147399683Y-115641023D01*
X147349263Y-115571628D01*
X147339414Y-115558072D01*
X147216928Y-115435586D01*
X147076788Y-115333768D01*
X146922445Y-115255127D01*
X146757701Y-115201598D01*
X146757699Y-115201597D01*
X146757698Y-115201597D01*
X146626271Y-115180781D01*
X146586611Y-115174500D01*
X146413389Y-115174500D01*
X146373728Y-115180781D01*
X146242302Y-115201597D01*
X146077552Y-115255128D01*
X145923211Y-115333768D01*
X145783073Y-115435585D01*
X145675530Y-115543128D01*
X145614207Y-115576612D01*
X145544515Y-115571628D01*
X145488582Y-115529756D01*
X145482310Y-115520543D01*
X145442712Y-115456344D01*
X145318656Y-115332288D01*
X145193559Y-115255128D01*
X145169336Y-115240187D01*
X145169331Y-115240185D01*
X145167862Y-115239698D01*
X145002797Y-115185001D01*
X145002795Y-115185000D01*
X144900010Y-115174500D01*
X144099998Y-115174500D01*
X144099980Y-115174501D01*
X143997203Y-115185000D01*
X143997200Y-115185001D01*
X143830668Y-115240185D01*
X143830663Y-115240187D01*
X143681342Y-115332289D01*
X143557289Y-115456342D01*
X143465187Y-115605663D01*
X143465185Y-115605668D01*
X143448155Y-115657061D01*
X143410001Y-115772203D01*
X143410001Y-115772204D01*
X143410000Y-115772204D01*
X143399500Y-115874983D01*
X141607040Y-115874983D01*
X141570272Y-115719845D01*
X141494157Y-115568287D01*
X141431075Y-115490849D01*
X141009151Y-115068927D01*
X140931713Y-115005843D01*
X140931712Y-115005842D01*
X140931709Y-115005840D01*
X140927111Y-115002864D01*
X140881534Y-114949907D01*
X140870500Y-114898774D01*
X140870500Y-114815317D01*
X140870499Y-114815302D01*
X140867643Y-114779008D01*
X140867642Y-114779002D01*
X140822496Y-114623610D01*
X140822494Y-114623608D01*
X140822494Y-114623605D01*
X140797569Y-114581459D01*
X140780387Y-114513739D01*
X140802546Y-114447476D01*
X140857012Y-114403713D01*
X140888111Y-114395402D01*
X140959472Y-114386009D01*
X141096429Y-114329279D01*
X141174515Y-114269360D01*
X141239682Y-114244168D01*
X141308127Y-114258206D01*
X141325478Y-114269356D01*
X141403571Y-114329279D01*
X141540528Y-114386009D01*
X141650599Y-114400500D01*
X141849400Y-114400499D01*
X141849401Y-114400499D01*
X141866087Y-114398302D01*
X141959472Y-114386009D01*
X141959475Y-114386007D01*
X141967326Y-114383905D01*
X141968210Y-114387207D01*
X142021925Y-114381392D01*
X142032514Y-114384501D01*
X142032674Y-114383905D01*
X142040524Y-114386008D01*
X142040526Y-114386008D01*
X142040528Y-114386009D01*
X142150599Y-114400500D01*
X142349400Y-114400499D01*
X142349401Y-114400499D01*
X142366087Y-114398302D01*
X142459472Y-114386009D01*
X142459475Y-114386007D01*
X142467326Y-114383905D01*
X142468210Y-114387207D01*
X142521925Y-114381392D01*
X142532514Y-114384501D01*
X142532674Y-114383905D01*
X142540524Y-114386008D01*
X142540526Y-114386008D01*
X142540528Y-114386009D01*
X142650599Y-114400500D01*
X142849400Y-114400499D01*
X142849403Y-114400499D01*
X142959463Y-114386011D01*
X142959467Y-114386009D01*
X142959472Y-114386009D01*
X143096429Y-114329279D01*
X143214036Y-114239036D01*
X143304279Y-114121429D01*
X143361009Y-113984472D01*
X143375500Y-113874401D01*
X143375499Y-113299498D01*
X143395183Y-113232460D01*
X143447987Y-113186705D01*
X143499499Y-113175499D01*
X144074403Y-113175499D01*
X144184463Y-113161011D01*
X144184467Y-113161009D01*
X144184472Y-113161009D01*
X144321429Y-113104279D01*
X144439036Y-113014036D01*
X144529279Y-112896429D01*
X144586009Y-112759472D01*
X144600500Y-112649401D01*
X144600499Y-112450600D01*
X144600498Y-112450596D01*
X144590124Y-112371789D01*
X144586009Y-112340528D01*
X144586008Y-112340525D01*
X144583905Y-112332674D01*
X144587207Y-112331789D01*
X144581392Y-112278075D01*
X144584501Y-112267485D01*
X144583905Y-112267326D01*
X144586008Y-112259475D01*
X144586008Y-112259474D01*
X144586009Y-112259472D01*
X144600500Y-112149401D01*
X144600499Y-111950600D01*
X144598970Y-111938988D01*
X144586009Y-111840529D01*
X144586009Y-111840528D01*
X144586008Y-111840525D01*
X144583905Y-111832674D01*
X144587207Y-111831789D01*
X144581392Y-111778075D01*
X144584501Y-111767485D01*
X144583905Y-111767326D01*
X144586008Y-111759475D01*
X144586008Y-111759474D01*
X144586009Y-111759472D01*
X144600500Y-111649401D01*
X144600499Y-111450600D01*
X144593836Y-111399983D01*
X149699500Y-111399983D01*
X149699500Y-112600001D01*
X149699501Y-112600018D01*
X149710000Y-112702796D01*
X149710001Y-112702799D01*
X149765185Y-112869331D01*
X149765186Y-112869334D01*
X149857288Y-113018656D01*
X149981344Y-113142712D01*
X150130666Y-113234814D01*
X150297203Y-113289999D01*
X150399991Y-113300500D01*
X151600008Y-113300499D01*
X151609798Y-113299499D01*
X151617895Y-113298671D01*
X151702797Y-113289999D01*
X151869334Y-113234814D01*
X152018656Y-113142712D01*
X152142712Y-113018656D01*
X152234814Y-112869334D01*
X152289999Y-112702797D01*
X152300500Y-112600009D01*
X152300499Y-111476647D01*
X155974500Y-111476647D01*
X155974500Y-112023337D01*
X155974501Y-112023355D01*
X155984650Y-112122707D01*
X155984651Y-112122710D01*
X156037996Y-112283694D01*
X156038001Y-112283705D01*
X156127029Y-112428040D01*
X156127032Y-112428044D01*
X156246955Y-112547967D01*
X156246959Y-112547970D01*
X156391294Y-112636998D01*
X156391297Y-112636999D01*
X156391303Y-112637003D01*
X156552292Y-112690349D01*
X156651655Y-112700500D01*
X157248344Y-112700499D01*
X157248352Y-112700498D01*
X157248355Y-112700498D01*
X157302760Y-112694940D01*
X157347708Y-112690349D01*
X157508697Y-112637003D01*
X157542594Y-112616095D01*
X157634903Y-112559158D01*
X157702295Y-112540717D01*
X157765097Y-112559158D01*
X157891294Y-112636998D01*
X157891297Y-112636999D01*
X157891303Y-112637003D01*
X158052292Y-112690349D01*
X158151655Y-112700500D01*
X158748344Y-112700499D01*
X158748352Y-112700498D01*
X158748355Y-112700498D01*
X158802760Y-112694940D01*
X158847708Y-112690349D01*
X159008697Y-112637003D01*
X159042594Y-112616095D01*
X159134903Y-112559158D01*
X159202295Y-112540717D01*
X159265097Y-112559158D01*
X159391294Y-112636998D01*
X159391297Y-112636999D01*
X159391303Y-112637003D01*
X159552292Y-112690349D01*
X159651655Y-112700500D01*
X160248344Y-112700499D01*
X160248352Y-112700498D01*
X160248355Y-112700498D01*
X160302760Y-112694940D01*
X160347708Y-112690349D01*
X160508697Y-112637003D01*
X160653044Y-112547968D01*
X160712319Y-112488693D01*
X160773642Y-112455208D01*
X160843334Y-112460192D01*
X160887681Y-112488693D01*
X160946955Y-112547967D01*
X160946959Y-112547970D01*
X161091294Y-112636998D01*
X161091297Y-112636999D01*
X161091303Y-112637003D01*
X161252292Y-112690349D01*
X161351655Y-112700500D01*
X161948344Y-112700499D01*
X161948352Y-112700498D01*
X161948355Y-112700498D01*
X162002760Y-112694940D01*
X162047708Y-112690349D01*
X162208697Y-112637003D01*
X162353044Y-112547968D01*
X162362319Y-112538693D01*
X162423642Y-112505208D01*
X162493334Y-112510192D01*
X162537681Y-112538693D01*
X162546955Y-112547967D01*
X162546959Y-112547970D01*
X162691294Y-112636998D01*
X162691297Y-112636999D01*
X162691303Y-112637003D01*
X162852292Y-112690349D01*
X162951655Y-112700500D01*
X163548344Y-112700499D01*
X163548352Y-112700498D01*
X163548355Y-112700498D01*
X163602760Y-112694940D01*
X163647708Y-112690349D01*
X163808697Y-112637003D01*
X163953044Y-112547968D01*
X164072968Y-112428044D01*
X164162003Y-112283697D01*
X164215349Y-112122708D01*
X164225500Y-112023345D01*
X164225499Y-111476656D01*
X164222837Y-111450600D01*
X164215349Y-111377292D01*
X164215348Y-111377289D01*
X164203166Y-111340527D01*
X164162003Y-111216303D01*
X164161999Y-111216297D01*
X164161998Y-111216294D01*
X164072970Y-111071959D01*
X164072967Y-111071955D01*
X163972165Y-110971153D01*
X165089500Y-110971153D01*
X165089500Y-111828846D01*
X165120261Y-111983489D01*
X165120264Y-111983501D01*
X165180602Y-112129172D01*
X165180609Y-112129185D01*
X165268210Y-112260288D01*
X165268213Y-112260292D01*
X165379707Y-112371786D01*
X165379711Y-112371789D01*
X165510814Y-112459390D01*
X165510827Y-112459397D01*
X165633459Y-112510192D01*
X165656503Y-112519737D01*
X165798424Y-112547967D01*
X165811153Y-112550499D01*
X165811156Y-112550500D01*
X165811158Y-112550500D01*
X165968844Y-112550500D01*
X165968845Y-112550499D01*
X166123497Y-112519737D01*
X166236166Y-112473067D01*
X166269172Y-112459397D01*
X166269172Y-112459396D01*
X166269179Y-112459394D01*
X166400289Y-112371789D01*
X166511789Y-112260289D01*
X166599394Y-112129179D01*
X166659737Y-111983497D01*
X166690500Y-111828842D01*
X166690500Y-110971158D01*
X166690500Y-110971155D01*
X166690499Y-110971153D01*
X166688742Y-110962319D01*
X166659737Y-110816503D01*
X166656899Y-110809651D01*
X166599397Y-110670827D01*
X166599390Y-110670814D01*
X166511789Y-110539711D01*
X166511786Y-110539707D01*
X166400292Y-110428213D01*
X166400288Y-110428210D01*
X166269185Y-110340609D01*
X166269172Y-110340602D01*
X166123501Y-110280264D01*
X166123489Y-110280261D01*
X165968845Y-110249500D01*
X165968842Y-110249500D01*
X165811158Y-110249500D01*
X165811155Y-110249500D01*
X165656510Y-110280261D01*
X165656498Y-110280264D01*
X165510827Y-110340602D01*
X165510814Y-110340609D01*
X165379711Y-110428210D01*
X165379707Y-110428213D01*
X165268213Y-110539707D01*
X165268210Y-110539711D01*
X165180609Y-110670814D01*
X165180602Y-110670827D01*
X165120264Y-110816498D01*
X165120261Y-110816510D01*
X165089500Y-110971153D01*
X163972165Y-110971153D01*
X163953044Y-110952032D01*
X163953040Y-110952029D01*
X163808705Y-110863001D01*
X163808699Y-110862998D01*
X163808697Y-110862997D01*
X163791468Y-110857288D01*
X163647709Y-110809651D01*
X163548346Y-110799500D01*
X162951662Y-110799500D01*
X162951644Y-110799501D01*
X162852292Y-110809650D01*
X162852289Y-110809651D01*
X162691305Y-110862996D01*
X162691294Y-110863001D01*
X162546959Y-110952029D01*
X162546955Y-110952032D01*
X162537681Y-110961307D01*
X162476358Y-110994792D01*
X162406666Y-110989808D01*
X162362319Y-110961307D01*
X162353044Y-110952032D01*
X162353040Y-110952029D01*
X162208705Y-110863001D01*
X162208699Y-110862998D01*
X162208697Y-110862997D01*
X162191468Y-110857288D01*
X162047709Y-110809651D01*
X161948346Y-110799500D01*
X161351662Y-110799500D01*
X161351644Y-110799501D01*
X161252292Y-110809650D01*
X161252289Y-110809651D01*
X161091305Y-110862996D01*
X161091294Y-110863001D01*
X160946959Y-110952029D01*
X160887681Y-111011307D01*
X160826357Y-111044791D01*
X160756666Y-111039806D01*
X160712319Y-111011307D01*
X160690820Y-110989808D01*
X160653044Y-110952032D01*
X160653041Y-110952030D01*
X160653040Y-110952029D01*
X160508705Y-110863001D01*
X160508699Y-110862998D01*
X160508697Y-110862997D01*
X160491468Y-110857288D01*
X160347709Y-110809651D01*
X160248346Y-110799500D01*
X159651662Y-110799500D01*
X159651644Y-110799501D01*
X159552292Y-110809650D01*
X159552289Y-110809651D01*
X159391305Y-110862996D01*
X159391300Y-110862998D01*
X159265097Y-110940842D01*
X159197704Y-110959282D01*
X159134903Y-110940842D01*
X159008699Y-110862998D01*
X159008694Y-110862996D01*
X158847709Y-110809651D01*
X158748346Y-110799500D01*
X158151662Y-110799500D01*
X158151644Y-110799501D01*
X158052292Y-110809650D01*
X158052289Y-110809651D01*
X157891305Y-110862996D01*
X157891300Y-110862998D01*
X157765097Y-110940842D01*
X157697704Y-110959282D01*
X157634903Y-110940842D01*
X157508699Y-110862998D01*
X157508694Y-110862996D01*
X157347709Y-110809651D01*
X157248346Y-110799500D01*
X156651662Y-110799500D01*
X156651644Y-110799501D01*
X156552292Y-110809650D01*
X156552289Y-110809651D01*
X156391305Y-110862996D01*
X156391294Y-110863001D01*
X156246959Y-110952029D01*
X156246955Y-110952032D01*
X156127032Y-111071955D01*
X156127029Y-111071959D01*
X156038001Y-111216294D01*
X156037996Y-111216305D01*
X155984651Y-111377290D01*
X155974500Y-111476647D01*
X152300499Y-111476647D01*
X152300499Y-111399992D01*
X152289999Y-111297203D01*
X152234814Y-111130666D01*
X152142712Y-110981344D01*
X152018656Y-110857288D01*
X151869334Y-110765186D01*
X151702797Y-110710001D01*
X151702795Y-110710000D01*
X151600010Y-110699500D01*
X150399998Y-110699500D01*
X150399981Y-110699501D01*
X150297203Y-110710000D01*
X150297200Y-110710001D01*
X150130668Y-110765185D01*
X150130663Y-110765187D01*
X149981342Y-110857289D01*
X149857289Y-110981342D01*
X149765187Y-111130663D01*
X149765186Y-111130666D01*
X149710001Y-111297203D01*
X149710001Y-111297204D01*
X149710000Y-111297204D01*
X149699500Y-111399983D01*
X144593836Y-111399983D01*
X144586011Y-111340536D01*
X144586009Y-111340529D01*
X144586009Y-111340528D01*
X144529279Y-111203571D01*
X144469360Y-111125484D01*
X144444168Y-111060318D01*
X144458206Y-110991873D01*
X144469356Y-110974521D01*
X144529279Y-110896429D01*
X144586009Y-110759472D01*
X144600500Y-110649401D01*
X144600499Y-110450600D01*
X144586009Y-110340528D01*
X144586008Y-110340525D01*
X144583905Y-110332674D01*
X144587207Y-110331789D01*
X144581392Y-110278075D01*
X144584501Y-110267485D01*
X144583905Y-110267326D01*
X144586008Y-110259475D01*
X144586008Y-110259474D01*
X144586009Y-110259472D01*
X144600500Y-110149401D01*
X144600499Y-109950600D01*
X144586009Y-109840528D01*
X144586008Y-109840525D01*
X144583905Y-109832674D01*
X144587207Y-109831789D01*
X144581392Y-109778075D01*
X144584501Y-109767485D01*
X144583905Y-109767326D01*
X144586008Y-109759475D01*
X144586008Y-109759474D01*
X144586009Y-109759472D01*
X144600500Y-109649401D01*
X144600499Y-109450600D01*
X144600499Y-109450599D01*
X144600499Y-109450596D01*
X144586011Y-109340536D01*
X144586009Y-109340531D01*
X144586009Y-109340528D01*
X144529279Y-109203571D01*
X144439036Y-109085964D01*
X144321429Y-108995721D01*
X144321425Y-108995719D01*
X144184472Y-108938991D01*
X144184470Y-108938990D01*
X144074410Y-108924501D01*
X144074407Y-108924500D01*
X144074401Y-108924500D01*
X144074394Y-108924500D01*
X143499499Y-108924500D01*
X143432460Y-108904815D01*
X143386705Y-108852011D01*
X143375499Y-108800500D01*
X143375499Y-108225596D01*
X143361011Y-108115536D01*
X143361009Y-108115529D01*
X143361009Y-108115528D01*
X143349031Y-108086610D01*
X143322249Y-108021952D01*
X143314780Y-107952483D01*
X143346055Y-107890004D01*
X143406144Y-107854352D01*
X143436810Y-107850500D01*
X143484682Y-107850500D01*
X143484690Y-107850500D01*
X143520993Y-107847643D01*
X143520995Y-107847642D01*
X143520997Y-107847642D01*
X143561975Y-107835736D01*
X143676395Y-107802494D01*
X143815687Y-107720117D01*
X143930117Y-107605687D01*
X144012494Y-107466395D01*
X144057643Y-107310993D01*
X144060500Y-107274690D01*
X144060500Y-106865310D01*
X144057643Y-106829007D01*
X144012494Y-106673605D01*
X143930117Y-106534313D01*
X143930115Y-106534311D01*
X143930112Y-106534307D01*
X143815692Y-106419887D01*
X143815684Y-106419881D01*
X143676393Y-106337505D01*
X143676392Y-106337504D01*
X143676238Y-106337460D01*
X143676237Y-106337459D01*
X143520997Y-106292357D01*
X143520991Y-106292356D01*
X143484697Y-106289500D01*
X143484690Y-106289500D01*
X143015310Y-106289500D01*
X143015302Y-106289500D01*
X142979008Y-106292356D01*
X142979002Y-106292357D01*
X142909094Y-106312668D01*
X142839224Y-106312469D01*
X142780554Y-106274527D01*
X142756208Y-106220811D01*
X145229500Y-106220811D01*
X145229500Y-106619169D01*
X145229501Y-106619191D01*
X145232335Y-106655205D01*
X145277129Y-106809388D01*
X145277131Y-106809393D01*
X145358863Y-106947595D01*
X145358869Y-106947603D01*
X145472396Y-107061130D01*
X145472400Y-107061133D01*
X145472402Y-107061135D01*
X145610607Y-107142869D01*
X145636870Y-107150499D01*
X145764791Y-107187664D01*
X145764794Y-107187664D01*
X145764796Y-107187665D01*
X145800819Y-107190500D01*
X146299180Y-107190499D01*
X146335204Y-107187665D01*
X146489393Y-107142869D01*
X146627598Y-107061135D01*
X146741135Y-106947598D01*
X146822869Y-106809393D01*
X146867665Y-106655204D01*
X146870500Y-106619181D01*
X146870499Y-106220820D01*
X146867665Y-106184796D01*
X146822869Y-106030607D01*
X146741135Y-105892402D01*
X146741133Y-105892400D01*
X146741130Y-105892396D01*
X146627603Y-105778869D01*
X146627595Y-105778863D01*
X146489393Y-105697131D01*
X146489388Y-105697129D01*
X146335208Y-105652335D01*
X146335202Y-105652334D01*
X146299181Y-105649500D01*
X145800830Y-105649500D01*
X145800808Y-105649501D01*
X145764794Y-105652335D01*
X145610611Y-105697129D01*
X145610606Y-105697131D01*
X145472404Y-105778863D01*
X145472396Y-105778869D01*
X145358869Y-105892396D01*
X145358863Y-105892404D01*
X145277131Y-106030606D01*
X145277129Y-106030611D01*
X145232335Y-106184791D01*
X145232334Y-106184797D01*
X145229500Y-106220811D01*
X142756208Y-106220811D01*
X142751711Y-106210888D01*
X142750499Y-106193603D01*
X142750499Y-105955556D01*
X142770184Y-105888519D01*
X142822988Y-105842764D01*
X142892146Y-105832820D01*
X142909089Y-105836480D01*
X142964796Y-105852665D01*
X143000819Y-105855500D01*
X143499180Y-105855499D01*
X143535204Y-105852665D01*
X143689393Y-105807869D01*
X143827598Y-105726135D01*
X143941135Y-105612598D01*
X144022869Y-105474393D01*
X144064626Y-105330666D01*
X144067664Y-105320208D01*
X144067665Y-105320202D01*
X144070500Y-105284181D01*
X144070499Y-104885820D01*
X144067665Y-104849796D01*
X144022869Y-104695607D01*
X143988869Y-104638117D01*
X143971688Y-104570398D01*
X143988869Y-104511882D01*
X144022869Y-104454393D01*
X144025399Y-104445687D01*
X144067664Y-104300208D01*
X144067665Y-104300202D01*
X144070499Y-104264188D01*
X144070500Y-104264181D01*
X144070499Y-103865820D01*
X144067665Y-103829796D01*
X144022869Y-103675607D01*
X143941135Y-103537402D01*
X143941133Y-103537400D01*
X143941130Y-103537396D01*
X143827603Y-103423869D01*
X143827595Y-103423863D01*
X143689393Y-103342131D01*
X143689388Y-103342129D01*
X143535208Y-103297335D01*
X143535202Y-103297334D01*
X143499181Y-103294500D01*
X143000830Y-103294500D01*
X143000808Y-103294501D01*
X142964794Y-103297335D01*
X142810611Y-103342129D01*
X142810606Y-103342131D01*
X142672404Y-103423863D01*
X142672396Y-103423869D01*
X142558869Y-103537396D01*
X142558863Y-103537404D01*
X142477131Y-103675606D01*
X142477129Y-103675611D01*
X142432335Y-103829791D01*
X142432334Y-103829797D01*
X142429500Y-103865811D01*
X142429500Y-103929971D01*
X142409815Y-103997010D01*
X142357011Y-104042765D01*
X142287853Y-104052709D01*
X142266497Y-104047677D01*
X142152799Y-104010001D01*
X142152795Y-104010000D01*
X142050010Y-103999500D01*
X141399998Y-103999500D01*
X141399980Y-103999501D01*
X141297203Y-104010000D01*
X141297200Y-104010001D01*
X141130668Y-104065185D01*
X141130663Y-104065187D01*
X140981342Y-104157289D01*
X140857289Y-104281342D01*
X140765187Y-104430663D01*
X140765185Y-104430668D01*
X140738275Y-104511878D01*
X140710001Y-104597203D01*
X140710001Y-104597204D01*
X140710000Y-104597204D01*
X140699500Y-104699983D01*
X140699500Y-106300001D01*
X140699501Y-106300018D01*
X140710000Y-106402796D01*
X140710001Y-106402799D01*
X140743137Y-106502795D01*
X140765186Y-106569334D01*
X140857288Y-106718656D01*
X140981344Y-106842712D01*
X141130666Y-106934814D01*
X141297203Y-106989999D01*
X141399991Y-107000500D01*
X142050008Y-107000499D01*
X142050016Y-107000498D01*
X142050019Y-107000498D01*
X142106302Y-106994748D01*
X142152797Y-106989999D01*
X142276499Y-106949007D01*
X142346323Y-106946606D01*
X142406365Y-106982337D01*
X142437558Y-107044857D01*
X142439500Y-107066714D01*
X142439500Y-107274697D01*
X142442356Y-107310991D01*
X142442357Y-107310997D01*
X142487504Y-107466390D01*
X142487505Y-107466393D01*
X142487506Y-107466395D01*
X142507675Y-107500499D01*
X142542814Y-107559916D01*
X142559997Y-107627640D01*
X142537837Y-107693903D01*
X142483535Y-107737598D01*
X142403574Y-107770719D01*
X142403571Y-107770720D01*
X142403571Y-107770721D01*
X142303326Y-107847642D01*
X142285964Y-107860964D01*
X142195719Y-107978574D01*
X142138991Y-108115527D01*
X142138990Y-108115529D01*
X142124500Y-108225598D01*
X142124500Y-108974403D01*
X142138988Y-109084463D01*
X142138991Y-109084472D01*
X142195721Y-109221429D01*
X142285964Y-109339036D01*
X142403571Y-109429279D01*
X142540528Y-109486009D01*
X142650599Y-109500500D01*
X142675498Y-109500499D01*
X142742536Y-109520181D01*
X142788293Y-109572984D01*
X142798617Y-109609724D01*
X142799500Y-109617088D01*
X142799501Y-109649400D01*
X142813991Y-109759472D01*
X142817646Y-109768297D01*
X142819678Y-109785225D01*
X142816600Y-109803573D01*
X142818581Y-109822073D01*
X142815517Y-109832522D01*
X142816095Y-109832677D01*
X142813990Y-109840529D01*
X142799500Y-109950598D01*
X142799500Y-110149403D01*
X142813989Y-110259468D01*
X142816094Y-110267322D01*
X142812814Y-110268200D01*
X142818581Y-110322073D01*
X142815517Y-110332522D01*
X142816095Y-110332677D01*
X142813990Y-110340529D01*
X142799500Y-110450598D01*
X142799500Y-110649403D01*
X142813988Y-110759463D01*
X142813991Y-110759472D01*
X142870719Y-110896426D01*
X142870721Y-110896429D01*
X142930637Y-110974514D01*
X142955831Y-111039683D01*
X142941792Y-111108128D01*
X142930637Y-111125486D01*
X142870721Y-111203570D01*
X142870719Y-111203573D01*
X142813991Y-111340527D01*
X142813990Y-111340529D01*
X142799500Y-111450598D01*
X142799500Y-111649403D01*
X142813989Y-111759468D01*
X142816094Y-111767322D01*
X142812814Y-111768200D01*
X142818581Y-111822073D01*
X142815517Y-111832522D01*
X142816095Y-111832677D01*
X142813990Y-111840529D01*
X142799500Y-111950598D01*
X142799500Y-112149403D01*
X142813989Y-112259468D01*
X142816094Y-112267322D01*
X142813268Y-112268079D01*
X142819678Y-112314775D01*
X142817646Y-112331702D01*
X142813991Y-112340528D01*
X142799500Y-112450599D01*
X142799500Y-112482917D01*
X142798617Y-112490275D01*
X142787651Y-112515851D01*
X142779815Y-112542539D01*
X142774077Y-112547510D01*
X142771085Y-112554491D01*
X142748033Y-112570077D01*
X142727011Y-112588294D01*
X142718286Y-112590192D01*
X142713205Y-112593628D01*
X142701204Y-112593908D01*
X142675504Y-112599500D01*
X142650597Y-112599500D01*
X142540531Y-112613989D01*
X142532678Y-112616094D01*
X142531802Y-112612824D01*
X142477853Y-112618567D01*
X142467477Y-112615518D01*
X142467323Y-112616095D01*
X142459470Y-112613990D01*
X142349401Y-112599500D01*
X142150596Y-112599500D01*
X142040531Y-112613989D01*
X142032678Y-112616094D01*
X142031802Y-112612824D01*
X141977853Y-112618567D01*
X141967477Y-112615518D01*
X141967323Y-112616095D01*
X141959470Y-112613990D01*
X141849401Y-112599500D01*
X141650596Y-112599500D01*
X141540536Y-112613988D01*
X141540527Y-112613991D01*
X141403573Y-112670719D01*
X141403570Y-112670721D01*
X141325486Y-112730637D01*
X141260317Y-112755831D01*
X141191872Y-112741792D01*
X141174514Y-112730637D01*
X141096429Y-112670721D01*
X141096426Y-112670719D01*
X140959472Y-112613991D01*
X140959470Y-112613990D01*
X140849401Y-112599500D01*
X140650596Y-112599500D01*
X140540531Y-112613989D01*
X140532678Y-112616094D01*
X140531802Y-112612824D01*
X140477853Y-112618567D01*
X140467477Y-112615518D01*
X140467323Y-112616095D01*
X140459470Y-112613990D01*
X140349401Y-112599500D01*
X140150596Y-112599500D01*
X140040531Y-112613989D01*
X140032678Y-112616094D01*
X140031924Y-112613281D01*
X139985224Y-112619678D01*
X139968297Y-112617646D01*
X139959472Y-112613991D01*
X139849401Y-112599500D01*
X139817082Y-112599500D01*
X139809724Y-112598617D01*
X139784147Y-112587651D01*
X139757460Y-112579815D01*
X139752488Y-112574077D01*
X139745508Y-112571085D01*
X139729921Y-112548033D01*
X139711705Y-112527011D01*
X139709807Y-112518286D01*
X139706371Y-112513205D01*
X139706090Y-112501202D01*
X139700499Y-112475500D01*
X139700499Y-112450596D01*
X139686011Y-112340536D01*
X139686009Y-112340531D01*
X139686009Y-112340528D01*
X139629279Y-112203571D01*
X139539036Y-112085964D01*
X139421429Y-111995721D01*
X139421425Y-111995719D01*
X139284472Y-111938991D01*
X139284470Y-111938990D01*
X139174401Y-111924500D01*
X138425596Y-111924500D01*
X138315536Y-111938988D01*
X138315524Y-111938992D01*
X138196951Y-111988106D01*
X138127481Y-111995575D01*
X138065002Y-111964299D01*
X138029351Y-111904210D01*
X138025499Y-111873549D01*
X138025499Y-111551656D01*
X138015349Y-111452292D01*
X137962003Y-111291303D01*
X137961999Y-111291297D01*
X137961998Y-111291294D01*
X137872970Y-111146959D01*
X137872967Y-111146955D01*
X137863693Y-111137681D01*
X137830208Y-111076358D01*
X137835192Y-111006666D01*
X137863693Y-110962319D01*
X137866730Y-110959282D01*
X137872968Y-110953044D01*
X137962003Y-110808697D01*
X138015349Y-110647708D01*
X138025500Y-110548345D01*
X138025499Y-110226452D01*
X138045183Y-110159415D01*
X138097987Y-110113660D01*
X138167146Y-110103716D01*
X138196952Y-110111893D01*
X138234007Y-110127241D01*
X138315528Y-110161009D01*
X138425599Y-110175500D01*
X139174400Y-110175499D01*
X139174403Y-110175499D01*
X139284463Y-110161011D01*
X139284467Y-110161009D01*
X139284472Y-110161009D01*
X139421429Y-110104279D01*
X139539036Y-110014036D01*
X139629279Y-109896429D01*
X139686009Y-109759472D01*
X139700500Y-109649401D01*
X139700499Y-109524902D01*
X139720183Y-109457864D01*
X139772987Y-109412109D01*
X139842145Y-109402165D01*
X139899986Y-109426528D01*
X139903571Y-109429279D01*
X139903572Y-109429279D01*
X139903573Y-109429280D01*
X139934597Y-109442130D01*
X140040528Y-109486009D01*
X140150599Y-109500500D01*
X140349400Y-109500499D01*
X140349401Y-109500499D01*
X140366087Y-109498302D01*
X140459472Y-109486009D01*
X140459475Y-109486007D01*
X140467326Y-109483905D01*
X140468210Y-109487207D01*
X140521925Y-109481392D01*
X140532514Y-109484501D01*
X140532674Y-109483905D01*
X140540524Y-109486008D01*
X140540526Y-109486008D01*
X140540528Y-109486009D01*
X140650599Y-109500500D01*
X140849400Y-109500499D01*
X140849401Y-109500499D01*
X140866087Y-109498302D01*
X140959472Y-109486009D01*
X140959475Y-109486007D01*
X140967326Y-109483905D01*
X140968210Y-109487207D01*
X141021925Y-109481392D01*
X141032514Y-109484501D01*
X141032674Y-109483905D01*
X141040524Y-109486008D01*
X141040526Y-109486008D01*
X141040528Y-109486009D01*
X141150599Y-109500500D01*
X141349400Y-109500499D01*
X141349403Y-109500499D01*
X141459463Y-109486011D01*
X141459467Y-109486009D01*
X141459472Y-109486009D01*
X141596429Y-109429279D01*
X141714036Y-109339036D01*
X141804279Y-109221429D01*
X141861009Y-109084472D01*
X141875500Y-108974401D01*
X141875499Y-108225600D01*
X141875499Y-108225598D01*
X141875499Y-108225596D01*
X141861011Y-108115536D01*
X141861009Y-108115529D01*
X141861009Y-108115528D01*
X141804279Y-107978571D01*
X141714036Y-107860964D01*
X141596429Y-107770721D01*
X141596425Y-107770719D01*
X141459472Y-107713991D01*
X141459470Y-107713990D01*
X141349401Y-107699500D01*
X141150596Y-107699500D01*
X141040531Y-107713989D01*
X141032678Y-107716094D01*
X141031802Y-107712824D01*
X140977853Y-107718567D01*
X140967477Y-107715518D01*
X140967323Y-107716095D01*
X140959470Y-107713990D01*
X140849401Y-107699500D01*
X140650596Y-107699500D01*
X140540531Y-107713989D01*
X140532678Y-107716094D01*
X140531802Y-107712824D01*
X140477853Y-107718567D01*
X140467477Y-107715518D01*
X140467323Y-107716095D01*
X140459470Y-107713990D01*
X140349401Y-107699500D01*
X140150596Y-107699500D01*
X140040536Y-107713988D01*
X140040527Y-107713991D01*
X139903574Y-107770719D01*
X139903571Y-107770720D01*
X139903571Y-107770721D01*
X139803326Y-107847642D01*
X139785964Y-107860964D01*
X139695719Y-107978574D01*
X139638991Y-108115527D01*
X139638990Y-108115529D01*
X139624500Y-108225598D01*
X139624500Y-108900096D01*
X139604815Y-108967135D01*
X139552011Y-109012890D01*
X139482853Y-109022834D01*
X139425013Y-108998471D01*
X139421429Y-108995721D01*
X139421425Y-108995719D01*
X139421426Y-108995719D01*
X139284472Y-108938991D01*
X139284470Y-108938990D01*
X139174401Y-108924500D01*
X138425596Y-108924500D01*
X138315536Y-108938988D01*
X138315527Y-108938991D01*
X138178574Y-108995719D01*
X138178571Y-108995720D01*
X138178571Y-108995721D01*
X138143237Y-109022834D01*
X138060964Y-109085964D01*
X137970719Y-109203574D01*
X137913991Y-109340527D01*
X137913991Y-109340528D01*
X137910284Y-109368685D01*
X137882017Y-109432581D01*
X137823692Y-109471051D01*
X137753827Y-109471882D01*
X137722248Y-109458036D01*
X137608705Y-109388001D01*
X137608699Y-109387998D01*
X137608697Y-109387997D01*
X137550417Y-109368685D01*
X137447709Y-109334651D01*
X137348346Y-109324500D01*
X136751662Y-109324500D01*
X136751644Y-109324501D01*
X136652292Y-109334650D01*
X136652289Y-109334651D01*
X136491305Y-109387996D01*
X136491294Y-109388001D01*
X136346959Y-109477029D01*
X136346955Y-109477032D01*
X136227032Y-109596955D01*
X136227029Y-109596959D01*
X136138001Y-109741294D01*
X136137996Y-109741305D01*
X136084651Y-109902290D01*
X136074500Y-110001647D01*
X129350500Y-110001647D01*
X129350500Y-105599983D01*
X132074500Y-105599983D01*
X132074500Y-106400001D01*
X132074501Y-106400019D01*
X132085000Y-106502796D01*
X132085001Y-106502799D01*
X132140185Y-106669331D01*
X132140187Y-106669336D01*
X132142820Y-106673605D01*
X132232288Y-106818656D01*
X132356344Y-106942712D01*
X132403481Y-106971786D01*
X132420543Y-106982310D01*
X132467268Y-107034258D01*
X132478489Y-107103221D01*
X132450646Y-107167303D01*
X132443128Y-107175530D01*
X132335585Y-107283073D01*
X132233768Y-107423211D01*
X132155128Y-107577552D01*
X132101597Y-107742302D01*
X132074500Y-107913389D01*
X132074500Y-108086610D01*
X132096513Y-108225600D01*
X132101598Y-108257701D01*
X132155127Y-108422445D01*
X132233768Y-108576788D01*
X132335586Y-108716928D01*
X132458072Y-108839414D01*
X132598212Y-108941232D01*
X132752555Y-109019873D01*
X132917299Y-109073402D01*
X133088389Y-109100500D01*
X133088390Y-109100500D01*
X133811610Y-109100500D01*
X133811611Y-109100500D01*
X133982701Y-109073402D01*
X134147445Y-109019873D01*
X134301788Y-108941232D01*
X134441928Y-108839414D01*
X134564414Y-108716928D01*
X134666232Y-108576788D01*
X134744873Y-108422445D01*
X134798402Y-108257701D01*
X134825500Y-108086611D01*
X134825500Y-107913389D01*
X134798402Y-107742299D01*
X134744873Y-107577555D01*
X134666232Y-107423212D01*
X134564414Y-107283072D01*
X134456872Y-107175530D01*
X134423387Y-107114207D01*
X134428371Y-107044515D01*
X134470243Y-106988582D01*
X134479457Y-106982310D01*
X134533448Y-106949008D01*
X134543656Y-106942712D01*
X134667712Y-106818656D01*
X134759814Y-106669334D01*
X134814999Y-106502797D01*
X134825500Y-106400009D01*
X134825499Y-105599992D01*
X134814999Y-105497203D01*
X134759814Y-105330666D01*
X134667712Y-105181344D01*
X134543656Y-105057288D01*
X134394334Y-104965186D01*
X134227797Y-104910001D01*
X134227795Y-104910000D01*
X134125010Y-104899500D01*
X132774998Y-104899500D01*
X132774981Y-104899501D01*
X132672203Y-104910000D01*
X132672200Y-104910001D01*
X132505668Y-104965185D01*
X132505663Y-104965187D01*
X132356342Y-105057289D01*
X132232289Y-105181342D01*
X132140187Y-105330663D01*
X132140186Y-105330666D01*
X132085001Y-105497203D01*
X132085001Y-105497204D01*
X132085000Y-105497204D01*
X132074500Y-105599983D01*
X129350500Y-105599983D01*
X129350500Y-100228417D01*
X137889500Y-100228417D01*
X137889500Y-101291582D01*
X137899848Y-101407980D01*
X137899848Y-101407982D01*
X137899849Y-101407985D01*
X137919220Y-101475684D01*
X137951961Y-101590112D01*
X137954427Y-101598728D01*
X138046284Y-101774579D01*
X138084282Y-101821180D01*
X138171659Y-101928340D01*
X138238062Y-101982484D01*
X138325421Y-102053716D01*
X138501272Y-102145573D01*
X138692015Y-102200151D01*
X138808414Y-102210500D01*
X138808420Y-102210500D01*
X140371580Y-102210500D01*
X140371586Y-102210500D01*
X140487985Y-102200151D01*
X140678728Y-102145573D01*
X140854579Y-102053716D01*
X141008340Y-101928340D01*
X141133716Y-101774579D01*
X141225573Y-101598728D01*
X141280151Y-101407985D01*
X141290500Y-101291586D01*
X141290500Y-100228414D01*
X141280151Y-100112015D01*
X141225573Y-99921272D01*
X141133716Y-99745421D01*
X141071028Y-99668540D01*
X141008340Y-99591659D01*
X140919202Y-99518977D01*
X140898759Y-99502308D01*
X140854579Y-99466284D01*
X140776123Y-99425302D01*
X142269500Y-99425302D01*
X142269500Y-99894697D01*
X142272356Y-99930991D01*
X142272357Y-99930997D01*
X142317504Y-100086390D01*
X142317507Y-100086397D01*
X142397630Y-100221880D01*
X142414813Y-100289604D01*
X142397630Y-100348120D01*
X142317507Y-100483602D01*
X142317504Y-100483609D01*
X142272357Y-100639002D01*
X142272356Y-100639008D01*
X142269500Y-100675302D01*
X142269500Y-101144697D01*
X142272356Y-101180991D01*
X142272357Y-101180997D01*
X142317504Y-101336390D01*
X142317505Y-101336393D01*
X142317506Y-101336395D01*
X142351155Y-101393292D01*
X142399881Y-101475684D01*
X142399887Y-101475692D01*
X142514307Y-101590112D01*
X142514311Y-101590115D01*
X142514313Y-101590117D01*
X142653605Y-101672494D01*
X142694587Y-101684400D01*
X142809002Y-101717642D01*
X142809005Y-101717642D01*
X142809007Y-101717643D01*
X142845310Y-101720500D01*
X142845318Y-101720500D01*
X143254682Y-101720500D01*
X143254690Y-101720500D01*
X143290993Y-101717643D01*
X143290996Y-101717642D01*
X143297223Y-101716505D01*
X143297576Y-101718440D01*
X143358196Y-101718596D01*
X143416877Y-101756521D01*
X143445739Y-101820150D01*
X143445876Y-101821156D01*
X143454313Y-101885236D01*
X143454405Y-101885459D01*
X143455498Y-101893697D01*
X143452399Y-101913694D01*
X143452399Y-101926316D01*
X143455374Y-101926708D01*
X143439500Y-102047272D01*
X143439500Y-102272727D01*
X143454313Y-102385235D01*
X143454313Y-102385236D01*
X143475918Y-102437396D01*
X143512302Y-102525233D01*
X143604549Y-102645451D01*
X143724767Y-102737698D01*
X143864764Y-102795687D01*
X143977280Y-102810500D01*
X143977287Y-102810500D01*
X145315500Y-102810500D01*
X145382539Y-102830185D01*
X145428294Y-102882989D01*
X145439500Y-102934500D01*
X145439500Y-104272727D01*
X145443933Y-104306393D01*
X145452885Y-104374393D01*
X145454313Y-104385235D01*
X145454313Y-104385236D01*
X145511519Y-104523344D01*
X145512302Y-104525233D01*
X145604549Y-104645451D01*
X145724767Y-104737698D01*
X145864764Y-104795687D01*
X145971586Y-104809750D01*
X145977264Y-104810498D01*
X145977280Y-104810500D01*
X145977287Y-104810500D01*
X146202713Y-104810500D01*
X146202720Y-104810500D01*
X146315236Y-104795687D01*
X146315236Y-104795686D01*
X146323295Y-104794626D01*
X146323698Y-104797689D01*
X146356302Y-104797689D01*
X146356705Y-104794626D01*
X146364763Y-104795686D01*
X146364764Y-104795687D01*
X146477280Y-104810500D01*
X146477287Y-104810500D01*
X146702713Y-104810500D01*
X146702720Y-104810500D01*
X146815236Y-104795687D01*
X146815236Y-104795686D01*
X146823295Y-104794626D01*
X146823698Y-104797689D01*
X146856302Y-104797689D01*
X146856705Y-104794626D01*
X146864763Y-104795686D01*
X146864764Y-104795687D01*
X146977280Y-104810500D01*
X146977287Y-104810500D01*
X147202713Y-104810500D01*
X147202720Y-104810500D01*
X147315236Y-104795687D01*
X147315236Y-104795686D01*
X147323295Y-104794626D01*
X147323698Y-104797689D01*
X147356302Y-104797689D01*
X147356705Y-104794626D01*
X147364763Y-104795686D01*
X147364764Y-104795687D01*
X147477280Y-104810500D01*
X147477287Y-104810500D01*
X147702713Y-104810500D01*
X147702720Y-104810500D01*
X147815236Y-104795687D01*
X147815236Y-104795686D01*
X147823295Y-104794626D01*
X147823698Y-104797689D01*
X147856302Y-104797689D01*
X147856705Y-104794626D01*
X147864763Y-104795686D01*
X147864764Y-104795687D01*
X147977280Y-104810500D01*
X147977287Y-104810500D01*
X148202713Y-104810500D01*
X148202720Y-104810500D01*
X148315236Y-104795687D01*
X148315236Y-104795686D01*
X148323295Y-104794626D01*
X148323698Y-104797689D01*
X148356302Y-104797689D01*
X148356705Y-104794626D01*
X148364763Y-104795686D01*
X148364764Y-104795687D01*
X148477280Y-104810500D01*
X148477287Y-104810500D01*
X148702713Y-104810500D01*
X148702720Y-104810500D01*
X148815236Y-104795687D01*
X148815236Y-104795686D01*
X148823295Y-104794626D01*
X148823698Y-104797689D01*
X148856302Y-104797689D01*
X148856705Y-104794626D01*
X148864763Y-104795686D01*
X148864764Y-104795687D01*
X148977280Y-104810500D01*
X148977287Y-104810500D01*
X149202713Y-104810500D01*
X149202720Y-104810500D01*
X149315236Y-104795687D01*
X149315236Y-104795686D01*
X149323295Y-104794626D01*
X149323698Y-104797689D01*
X149356302Y-104797689D01*
X149356705Y-104794626D01*
X149364763Y-104795686D01*
X149364764Y-104795687D01*
X149477280Y-104810500D01*
X149477287Y-104810500D01*
X149702713Y-104810500D01*
X149702720Y-104810500D01*
X149815236Y-104795687D01*
X149815236Y-104795686D01*
X149823295Y-104794626D01*
X149823698Y-104797689D01*
X149856302Y-104797689D01*
X149856705Y-104794626D01*
X149864763Y-104795686D01*
X149864764Y-104795687D01*
X149977280Y-104810500D01*
X149977287Y-104810500D01*
X150202713Y-104810500D01*
X150202720Y-104810500D01*
X150315236Y-104795687D01*
X150315236Y-104795686D01*
X150323295Y-104794626D01*
X150323698Y-104797689D01*
X150356302Y-104797689D01*
X150356705Y-104794626D01*
X150364763Y-104795686D01*
X150364764Y-104795687D01*
X150477280Y-104810500D01*
X150477287Y-104810500D01*
X150702713Y-104810500D01*
X150702720Y-104810500D01*
X150815236Y-104795687D01*
X150815236Y-104795686D01*
X150823295Y-104794626D01*
X150823698Y-104797689D01*
X150856302Y-104797689D01*
X150856705Y-104794626D01*
X150864763Y-104795686D01*
X150864764Y-104795687D01*
X150977280Y-104810500D01*
X150977287Y-104810500D01*
X151202713Y-104810500D01*
X151202720Y-104810500D01*
X151315236Y-104795687D01*
X151315236Y-104795686D01*
X151323295Y-104794626D01*
X151323698Y-104797689D01*
X151356302Y-104797689D01*
X151356705Y-104794626D01*
X151364763Y-104795686D01*
X151364764Y-104795687D01*
X151477280Y-104810500D01*
X151477287Y-104810500D01*
X151702713Y-104810500D01*
X151702720Y-104810500D01*
X151815236Y-104795687D01*
X151955233Y-104737698D01*
X152075451Y-104645451D01*
X152087570Y-104629657D01*
X152143997Y-104588455D01*
X152213743Y-104584300D01*
X152249067Y-104598412D01*
X152323605Y-104642494D01*
X152333783Y-104645451D01*
X152479002Y-104687642D01*
X152479005Y-104687642D01*
X152479007Y-104687643D01*
X152515310Y-104690500D01*
X152515318Y-104690500D01*
X152984682Y-104690500D01*
X152984690Y-104690500D01*
X153020993Y-104687643D01*
X153020995Y-104687642D01*
X153020997Y-104687642D01*
X153061975Y-104675736D01*
X153176395Y-104642494D01*
X153315687Y-104560117D01*
X153430117Y-104445687D01*
X153512494Y-104306395D01*
X153557643Y-104150993D01*
X153560500Y-104114690D01*
X153560500Y-103705310D01*
X153557643Y-103669007D01*
X153557642Y-103669002D01*
X153512496Y-103513610D01*
X153512494Y-103513608D01*
X153512494Y-103513605D01*
X153476141Y-103452135D01*
X155799500Y-103452135D01*
X155799500Y-107047870D01*
X155799501Y-107047876D01*
X155805908Y-107107483D01*
X155856202Y-107242328D01*
X155856206Y-107242335D01*
X155942452Y-107357544D01*
X155942455Y-107357547D01*
X156057664Y-107443793D01*
X156057671Y-107443797D01*
X156192517Y-107494091D01*
X156192516Y-107494091D01*
X156199444Y-107494835D01*
X156252127Y-107500500D01*
X158197872Y-107500499D01*
X158257483Y-107494091D01*
X158392331Y-107443796D01*
X158507546Y-107357546D01*
X158593796Y-107242331D01*
X158644091Y-107107483D01*
X158650500Y-107047873D01*
X158650499Y-103452135D01*
X161349500Y-103452135D01*
X161349500Y-107047870D01*
X161349501Y-107047876D01*
X161355908Y-107107483D01*
X161406202Y-107242328D01*
X161406206Y-107242335D01*
X161492452Y-107357544D01*
X161492455Y-107357547D01*
X161607664Y-107443793D01*
X161607671Y-107443797D01*
X161742517Y-107494091D01*
X161742516Y-107494091D01*
X161749444Y-107494835D01*
X161802127Y-107500500D01*
X163747872Y-107500499D01*
X163807483Y-107494091D01*
X163942331Y-107443796D01*
X164057546Y-107357546D01*
X164143796Y-107242331D01*
X164194091Y-107107483D01*
X164200500Y-107047873D01*
X164200499Y-103452128D01*
X164194091Y-103392517D01*
X164192152Y-103387319D01*
X164143797Y-103257671D01*
X164143793Y-103257664D01*
X164057547Y-103142455D01*
X164057544Y-103142452D01*
X163942335Y-103056206D01*
X163942328Y-103056202D01*
X163807482Y-103005908D01*
X163807483Y-103005908D01*
X163747883Y-102999501D01*
X163747881Y-102999500D01*
X163747873Y-102999500D01*
X163747864Y-102999500D01*
X161802129Y-102999500D01*
X161802123Y-102999501D01*
X161742516Y-103005908D01*
X161607671Y-103056202D01*
X161607664Y-103056206D01*
X161492455Y-103142452D01*
X161492452Y-103142455D01*
X161406206Y-103257664D01*
X161406202Y-103257671D01*
X161355908Y-103392517D01*
X161349501Y-103452116D01*
X161349501Y-103452123D01*
X161349500Y-103452135D01*
X158650499Y-103452135D01*
X158650499Y-103452128D01*
X158644091Y-103392517D01*
X158642152Y-103387319D01*
X158593797Y-103257671D01*
X158593793Y-103257664D01*
X158507547Y-103142455D01*
X158507544Y-103142452D01*
X158392335Y-103056206D01*
X158392328Y-103056202D01*
X158257482Y-103005908D01*
X158257483Y-103005908D01*
X158197883Y-102999501D01*
X158197881Y-102999500D01*
X158197873Y-102999500D01*
X158197864Y-102999500D01*
X156252129Y-102999500D01*
X156252123Y-102999501D01*
X156192516Y-103005908D01*
X156057671Y-103056202D01*
X156057664Y-103056206D01*
X155942455Y-103142452D01*
X155942452Y-103142455D01*
X155856206Y-103257664D01*
X155856202Y-103257671D01*
X155805908Y-103392517D01*
X155799501Y-103452116D01*
X155799501Y-103452123D01*
X155799500Y-103452135D01*
X153476141Y-103452135D01*
X153430117Y-103374313D01*
X153430115Y-103374311D01*
X153430112Y-103374307D01*
X153315692Y-103259887D01*
X153315684Y-103259881D01*
X153214775Y-103200204D01*
X153176395Y-103177506D01*
X153176394Y-103177505D01*
X153176393Y-103177505D01*
X153176390Y-103177504D01*
X153020997Y-103132357D01*
X153020991Y-103132356D01*
X152984697Y-103129500D01*
X152984690Y-103129500D01*
X152515310Y-103129500D01*
X152515302Y-103129500D01*
X152479008Y-103132356D01*
X152479002Y-103132357D01*
X152399095Y-103155573D01*
X152329225Y-103155374D01*
X152270555Y-103117432D01*
X152241712Y-103053793D01*
X152240500Y-103036497D01*
X152240500Y-102934500D01*
X152260185Y-102867461D01*
X152312989Y-102821706D01*
X152364500Y-102810500D01*
X153702713Y-102810500D01*
X153702720Y-102810500D01*
X153815236Y-102795687D01*
X153955233Y-102737698D01*
X154075451Y-102645451D01*
X154167698Y-102525233D01*
X154225687Y-102385236D01*
X154240500Y-102272720D01*
X154240500Y-102047280D01*
X154225687Y-101934764D01*
X154225686Y-101934763D01*
X154224626Y-101926705D01*
X154227689Y-101926301D01*
X154227689Y-101893698D01*
X154224626Y-101893295D01*
X154234120Y-101821180D01*
X154240500Y-101772720D01*
X154240500Y-101547280D01*
X154225687Y-101434764D01*
X154225686Y-101434763D01*
X154224626Y-101426705D01*
X154227689Y-101426301D01*
X154227689Y-101393698D01*
X154224626Y-101393295D01*
X154232117Y-101336393D01*
X154240500Y-101272720D01*
X154240500Y-101047280D01*
X154225687Y-100934764D01*
X154225686Y-100934763D01*
X154224626Y-100926705D01*
X154227689Y-100926301D01*
X154227689Y-100893698D01*
X154224626Y-100893295D01*
X154231285Y-100842712D01*
X154240500Y-100772720D01*
X154240500Y-100547280D01*
X154225687Y-100434764D01*
X154225686Y-100434763D01*
X154224626Y-100426705D01*
X154227689Y-100426301D01*
X154227689Y-100393698D01*
X154224626Y-100393295D01*
X154230573Y-100348120D01*
X154240500Y-100272720D01*
X154240500Y-100047280D01*
X154225687Y-99934764D01*
X154225686Y-99934763D01*
X154224626Y-99926705D01*
X154227689Y-99926301D01*
X154227689Y-99893698D01*
X154224626Y-99893295D01*
X154225687Y-99885236D01*
X154240500Y-99772720D01*
X154240500Y-99547280D01*
X154225687Y-99434764D01*
X154225686Y-99434763D01*
X154224626Y-99426705D01*
X154227689Y-99426301D01*
X154227689Y-99393698D01*
X154224626Y-99393295D01*
X154234295Y-99319848D01*
X154240500Y-99272720D01*
X154240500Y-99047280D01*
X154225687Y-98934764D01*
X154225686Y-98934763D01*
X154224626Y-98926705D01*
X154227689Y-98926301D01*
X154227689Y-98893698D01*
X154224626Y-98893295D01*
X154232117Y-98836393D01*
X154240500Y-98772720D01*
X154240500Y-98547280D01*
X154225687Y-98434764D01*
X154225686Y-98434763D01*
X154224626Y-98426705D01*
X154225876Y-98426540D01*
X154225619Y-98419687D01*
X154223821Y-98400099D01*
X154224849Y-98387257D01*
X154225687Y-98385236D01*
X154240500Y-98272720D01*
X154240500Y-98199996D01*
X157649500Y-98199996D01*
X157649500Y-100300001D01*
X157649501Y-100300018D01*
X157660000Y-100402796D01*
X157660001Y-100402799D01*
X157715185Y-100569331D01*
X157715187Y-100569336D01*
X157720960Y-100578696D01*
X157807288Y-100718656D01*
X157931344Y-100842712D01*
X158080666Y-100934814D01*
X158247203Y-100989999D01*
X158349991Y-101000500D01*
X159750008Y-101000499D01*
X159852797Y-100989999D01*
X160019334Y-100934814D01*
X160168656Y-100842712D01*
X160292712Y-100718656D01*
X160384814Y-100569334D01*
X160439999Y-100402797D01*
X160450500Y-100300009D01*
X160450499Y-98948879D01*
X163349500Y-98948879D01*
X163349500Y-100351122D01*
X163349501Y-100351125D01*
X163352399Y-100393886D01*
X163352399Y-100393887D01*
X163382933Y-100516666D01*
X163390548Y-100547286D01*
X163398360Y-100578696D01*
X163482967Y-100749292D01*
X163482969Y-100749295D01*
X163602277Y-100897721D01*
X163602278Y-100897722D01*
X163750704Y-101017030D01*
X163750707Y-101017032D01*
X163921302Y-101101639D01*
X163921303Y-101101639D01*
X163921307Y-101101641D01*
X164106111Y-101147600D01*
X164148877Y-101150500D01*
X165051122Y-101150499D01*
X165093889Y-101147600D01*
X165278693Y-101101641D01*
X165449296Y-101017030D01*
X165597722Y-100897722D01*
X165653353Y-100828514D01*
X165710696Y-100788595D01*
X165780518Y-100786015D01*
X165840651Y-100821594D01*
X165846647Y-100828514D01*
X165902277Y-100897721D01*
X165902278Y-100897722D01*
X166050704Y-101017030D01*
X166050707Y-101017032D01*
X166221302Y-101101639D01*
X166221303Y-101101639D01*
X166221307Y-101101641D01*
X166406111Y-101147600D01*
X166448877Y-101150500D01*
X167351122Y-101150499D01*
X167393889Y-101147600D01*
X167578693Y-101101641D01*
X167749296Y-101017030D01*
X167897722Y-100897722D01*
X168017030Y-100749296D01*
X168017035Y-100749284D01*
X168020341Y-100744115D01*
X168073031Y-100698230D01*
X168142165Y-100688115D01*
X168205792Y-100716982D01*
X168243712Y-100775666D01*
X168243898Y-100776300D01*
X168287504Y-100926392D01*
X168287505Y-100926393D01*
X168287506Y-100926395D01*
X168292484Y-100934812D01*
X168369881Y-101065684D01*
X168369887Y-101065692D01*
X168484307Y-101180112D01*
X168484311Y-101180115D01*
X168484313Y-101180117D01*
X168623605Y-101262494D01*
X168658779Y-101272713D01*
X168779002Y-101307642D01*
X168779005Y-101307642D01*
X168779007Y-101307643D01*
X168815310Y-101310500D01*
X168815318Y-101310500D01*
X169224682Y-101310500D01*
X169224690Y-101310500D01*
X169260993Y-101307643D01*
X169260995Y-101307642D01*
X169260997Y-101307642D01*
X169316261Y-101291586D01*
X169416395Y-101262494D01*
X169555687Y-101180117D01*
X169670117Y-101065687D01*
X169752494Y-100926395D01*
X169797643Y-100770993D01*
X169800500Y-100734690D01*
X169800500Y-100265310D01*
X169797643Y-100229007D01*
X169797472Y-100228420D01*
X169752496Y-100073611D01*
X169752495Y-100073610D01*
X169752494Y-100073605D01*
X169746292Y-100063119D01*
X169729110Y-99995400D01*
X169746292Y-99936881D01*
X169752494Y-99926395D01*
X169777765Y-99839414D01*
X169797642Y-99770997D01*
X169797643Y-99770991D01*
X169800499Y-99734697D01*
X169800500Y-99734690D01*
X169800500Y-99265310D01*
X169797643Y-99229007D01*
X169758510Y-99094313D01*
X169752496Y-99073611D01*
X169752495Y-99073610D01*
X169752494Y-99073605D01*
X169746292Y-99063119D01*
X169729110Y-98995400D01*
X169746292Y-98936881D01*
X169752494Y-98926395D01*
X169797643Y-98770993D01*
X169800500Y-98734690D01*
X169800500Y-98265310D01*
X169797643Y-98229007D01*
X169789214Y-98199996D01*
X169752496Y-98073611D01*
X169752495Y-98073610D01*
X169752494Y-98073605D01*
X169746292Y-98063119D01*
X169729110Y-97995400D01*
X169746292Y-97936881D01*
X169752494Y-97926395D01*
X169783795Y-97818657D01*
X169797642Y-97770997D01*
X169797643Y-97770991D01*
X169800499Y-97734697D01*
X169800500Y-97734690D01*
X169800500Y-97265310D01*
X169797643Y-97229007D01*
X169796678Y-97225687D01*
X169752496Y-97073611D01*
X169752495Y-97073610D01*
X169752494Y-97073605D01*
X169746292Y-97063119D01*
X169729110Y-96995400D01*
X169746292Y-96936881D01*
X169752494Y-96926395D01*
X169797643Y-96770993D01*
X169800500Y-96734690D01*
X169800500Y-96265310D01*
X169797643Y-96229007D01*
X169786531Y-96190761D01*
X169758510Y-96094313D01*
X169752494Y-96073605D01*
X169670117Y-95934313D01*
X169670115Y-95934311D01*
X169670112Y-95934307D01*
X169555692Y-95819887D01*
X169555684Y-95819881D01*
X169416393Y-95737505D01*
X169416390Y-95737504D01*
X169260997Y-95692357D01*
X169260991Y-95692356D01*
X169224697Y-95689500D01*
X169224690Y-95689500D01*
X168815310Y-95689500D01*
X168815302Y-95689500D01*
X168779008Y-95692356D01*
X168779002Y-95692357D01*
X168623609Y-95737504D01*
X168623606Y-95737505D01*
X168484315Y-95819881D01*
X168484307Y-95819887D01*
X168369887Y-95934307D01*
X168369881Y-95934315D01*
X168287505Y-96073606D01*
X168287504Y-96073609D01*
X168242357Y-96229002D01*
X168242356Y-96229008D01*
X168239500Y-96265302D01*
X168239500Y-96734697D01*
X168242356Y-96770991D01*
X168242357Y-96770997D01*
X168287505Y-96926394D01*
X168293708Y-96936884D01*
X168310887Y-97004608D01*
X168293708Y-97063116D01*
X168287505Y-97073605D01*
X168242357Y-97229002D01*
X168242356Y-97229008D01*
X168239500Y-97265302D01*
X168239500Y-97734697D01*
X168242356Y-97770991D01*
X168242357Y-97770997D01*
X168287505Y-97926394D01*
X168293708Y-97936884D01*
X168310887Y-98004608D01*
X168293708Y-98063116D01*
X168287505Y-98073605D01*
X168242357Y-98229002D01*
X168242356Y-98229008D01*
X168239500Y-98265302D01*
X168239500Y-98475284D01*
X168219815Y-98542323D01*
X168167011Y-98588078D01*
X168097853Y-98598022D01*
X168034297Y-98568997D01*
X168018853Y-98552971D01*
X167897722Y-98402278D01*
X167897721Y-98402277D01*
X167749295Y-98282969D01*
X167749292Y-98282967D01*
X167578697Y-98198360D01*
X167393892Y-98152400D01*
X167372506Y-98150950D01*
X167351123Y-98149500D01*
X167351120Y-98149500D01*
X166448877Y-98149500D01*
X166448874Y-98149501D01*
X166406113Y-98152399D01*
X166406112Y-98152399D01*
X166221303Y-98198360D01*
X166050707Y-98282967D01*
X166050704Y-98282969D01*
X165902278Y-98402277D01*
X165902277Y-98402278D01*
X165846647Y-98471486D01*
X165789304Y-98511405D01*
X165719482Y-98513985D01*
X165659349Y-98478406D01*
X165653353Y-98471486D01*
X165597722Y-98402278D01*
X165597721Y-98402277D01*
X165449295Y-98282969D01*
X165449292Y-98282967D01*
X165278697Y-98198360D01*
X165093892Y-98152400D01*
X165072506Y-98150950D01*
X165051123Y-98149500D01*
X165051120Y-98149500D01*
X164148877Y-98149500D01*
X164148874Y-98149501D01*
X164106113Y-98152399D01*
X164106112Y-98152399D01*
X163921303Y-98198360D01*
X163750707Y-98282967D01*
X163750704Y-98282969D01*
X163602278Y-98402277D01*
X163602277Y-98402278D01*
X163482969Y-98550704D01*
X163482967Y-98550707D01*
X163398360Y-98721302D01*
X163352400Y-98906107D01*
X163349500Y-98948879D01*
X160450499Y-98948879D01*
X160450499Y-98199992D01*
X160439999Y-98097203D01*
X160384814Y-97930666D01*
X160292712Y-97781344D01*
X160168656Y-97657288D01*
X160019334Y-97565186D01*
X159852797Y-97510001D01*
X159852795Y-97510000D01*
X159750010Y-97499500D01*
X158349998Y-97499500D01*
X158349981Y-97499501D01*
X158247203Y-97510000D01*
X158247200Y-97510001D01*
X158080668Y-97565185D01*
X158080663Y-97565187D01*
X157931342Y-97657289D01*
X157807289Y-97781342D01*
X157715187Y-97930663D01*
X157715185Y-97930668D01*
X157693735Y-97995400D01*
X157660001Y-98097203D01*
X157660001Y-98097204D01*
X157660000Y-98097204D01*
X157649501Y-98199982D01*
X157649500Y-98199996D01*
X154240500Y-98199996D01*
X154240500Y-98047280D01*
X154225687Y-97934764D01*
X154225686Y-97934763D01*
X154224626Y-97926705D01*
X154227689Y-97926301D01*
X154227689Y-97893698D01*
X154224626Y-97893295D01*
X154231074Y-97844315D01*
X154240500Y-97772720D01*
X154240500Y-97591671D01*
X154260185Y-97524632D01*
X154312989Y-97478877D01*
X154374227Y-97468053D01*
X154405310Y-97470500D01*
X154405318Y-97470500D01*
X154814682Y-97470500D01*
X154814690Y-97470500D01*
X154850993Y-97467643D01*
X154850995Y-97467642D01*
X154850997Y-97467642D01*
X154891975Y-97455736D01*
X155006395Y-97422494D01*
X155145687Y-97340117D01*
X155260117Y-97225687D01*
X155342494Y-97086395D01*
X155375736Y-96971975D01*
X155387642Y-96930997D01*
X155387643Y-96930991D01*
X155390499Y-96894697D01*
X155390500Y-96894690D01*
X155390500Y-96425310D01*
X155387643Y-96389007D01*
X155370692Y-96330663D01*
X155342495Y-96233609D01*
X155342494Y-96233606D01*
X155342494Y-96233605D01*
X155260117Y-96094313D01*
X155260115Y-96094311D01*
X155260112Y-96094307D01*
X155145692Y-95979887D01*
X155145684Y-95979881D01*
X155009768Y-95899501D01*
X155006395Y-95897506D01*
X155006394Y-95897505D01*
X155006393Y-95897505D01*
X155006390Y-95897504D01*
X154850997Y-95852357D01*
X154850991Y-95852356D01*
X154814697Y-95849500D01*
X154814690Y-95849500D01*
X154405310Y-95849500D01*
X154405302Y-95849500D01*
X154369008Y-95852356D01*
X154369002Y-95852357D01*
X154213609Y-95897504D01*
X154213606Y-95897505D01*
X154074318Y-95979879D01*
X154074312Y-95979883D01*
X154025599Y-96028596D01*
X153964275Y-96062080D01*
X153894583Y-96057094D01*
X153890467Y-96055474D01*
X153815239Y-96024314D01*
X153815237Y-96024313D01*
X153815236Y-96024313D01*
X153801171Y-96022461D01*
X153702727Y-96009500D01*
X153702720Y-96009500D01*
X152364500Y-96009500D01*
X152297461Y-95989815D01*
X152251706Y-95937011D01*
X152240500Y-95885500D01*
X152240500Y-94547286D01*
X152240499Y-94547272D01*
X152239750Y-94541586D01*
X152225687Y-94434764D01*
X152167698Y-94294767D01*
X152075451Y-94174549D01*
X151955233Y-94082302D01*
X151955229Y-94082300D01*
X151891801Y-94056027D01*
X151815236Y-94024313D01*
X151800698Y-94022399D01*
X151702727Y-94009500D01*
X151702720Y-94009500D01*
X151477280Y-94009500D01*
X151477272Y-94009500D01*
X151390393Y-94020938D01*
X151364764Y-94024313D01*
X151364762Y-94024313D01*
X151356708Y-94025374D01*
X151356316Y-94022399D01*
X151323684Y-94022399D01*
X151323292Y-94025374D01*
X151315237Y-94024313D01*
X151315236Y-94024313D01*
X151279164Y-94019564D01*
X151202727Y-94009500D01*
X151202720Y-94009500D01*
X150977280Y-94009500D01*
X150977272Y-94009500D01*
X150890393Y-94020938D01*
X150864764Y-94024313D01*
X150864762Y-94024313D01*
X150856708Y-94025374D01*
X150856316Y-94022399D01*
X150823684Y-94022399D01*
X150823292Y-94025374D01*
X150815237Y-94024313D01*
X150815236Y-94024313D01*
X150779164Y-94019564D01*
X150702727Y-94009500D01*
X150702720Y-94009500D01*
X150477280Y-94009500D01*
X150477272Y-94009500D01*
X150390393Y-94020938D01*
X150364764Y-94024313D01*
X150364762Y-94024313D01*
X150356708Y-94025374D01*
X150356316Y-94022399D01*
X150323684Y-94022399D01*
X150323292Y-94025374D01*
X150315237Y-94024313D01*
X150315236Y-94024313D01*
X150279164Y-94019564D01*
X150202727Y-94009500D01*
X150202720Y-94009500D01*
X149977280Y-94009500D01*
X149977272Y-94009500D01*
X149890393Y-94020938D01*
X149864764Y-94024313D01*
X149864762Y-94024313D01*
X149856708Y-94025374D01*
X149856316Y-94022399D01*
X149823684Y-94022399D01*
X149823292Y-94025374D01*
X149815237Y-94024313D01*
X149815236Y-94024313D01*
X149779164Y-94019564D01*
X149702727Y-94009500D01*
X149702720Y-94009500D01*
X149477280Y-94009500D01*
X149477274Y-94009500D01*
X149477269Y-94009501D01*
X149361484Y-94024744D01*
X149292448Y-94013978D01*
X149240193Y-93967598D01*
X149221308Y-93900329D01*
X149231504Y-93852544D01*
X149232864Y-93849401D01*
X149232869Y-93849393D01*
X149277665Y-93695204D01*
X149280500Y-93659181D01*
X149280499Y-93160820D01*
X149277665Y-93124796D01*
X149232869Y-92970607D01*
X149151135Y-92832402D01*
X149151133Y-92832400D01*
X149151130Y-92832396D01*
X149037603Y-92718869D01*
X149037600Y-92718867D01*
X149037598Y-92718865D01*
X148974762Y-92681704D01*
X148951837Y-92668146D01*
X148904154Y-92617076D01*
X148891651Y-92548335D01*
X148918297Y-92483745D01*
X148927261Y-92473750D01*
X148947968Y-92453044D01*
X149037003Y-92308697D01*
X149090349Y-92147708D01*
X149100500Y-92048345D01*
X149100499Y-91451656D01*
X149099840Y-91445208D01*
X149090349Y-91352292D01*
X149090348Y-91352289D01*
X149073021Y-91300000D01*
X149037003Y-91191303D01*
X149036999Y-91191297D01*
X149036998Y-91191294D01*
X148947970Y-91046959D01*
X148947967Y-91046955D01*
X148828044Y-90927032D01*
X148828040Y-90927029D01*
X148683705Y-90838001D01*
X148683699Y-90837998D01*
X148683697Y-90837997D01*
X148631208Y-90820604D01*
X148522709Y-90784651D01*
X148423346Y-90774500D01*
X147876662Y-90774500D01*
X147876644Y-90774501D01*
X147777292Y-90784650D01*
X147777289Y-90784651D01*
X147616305Y-90837996D01*
X147616294Y-90838001D01*
X147471959Y-90927029D01*
X147471955Y-90927032D01*
X147462681Y-90936307D01*
X147401358Y-90969792D01*
X147331666Y-90964808D01*
X147287319Y-90936307D01*
X147278044Y-90927032D01*
X147278040Y-90927029D01*
X147133705Y-90838001D01*
X147133699Y-90837998D01*
X147133697Y-90837997D01*
X147081208Y-90820604D01*
X146972709Y-90784651D01*
X146873346Y-90774500D01*
X146326662Y-90774500D01*
X146326644Y-90774501D01*
X146227292Y-90784650D01*
X146227289Y-90784651D01*
X146066305Y-90837996D01*
X146066293Y-90838002D01*
X146055426Y-90844705D01*
X145988033Y-90863144D01*
X145921370Y-90842220D01*
X145919199Y-90840733D01*
X145910315Y-90834511D01*
X145895687Y-90819883D01*
X145855456Y-90796090D01*
X145851546Y-90793352D01*
X145832595Y-90769639D01*
X145811874Y-90747447D01*
X145810994Y-90742610D01*
X145807926Y-90738771D01*
X145804803Y-90708574D01*
X145799371Y-90678705D01*
X145800933Y-90671146D01*
X145800740Y-90669272D01*
X145801723Y-90667327D01*
X145804294Y-90654894D01*
X145805819Y-90650000D01*
X145844086Y-90527196D01*
X145850500Y-90456616D01*
X145850500Y-89943384D01*
X145844086Y-89872804D01*
X145793478Y-89710394D01*
X145705472Y-89564815D01*
X145705470Y-89564813D01*
X145705469Y-89564811D01*
X145585188Y-89444530D01*
X145546260Y-89420997D01*
X145439606Y-89356522D01*
X145439603Y-89356521D01*
X145438935Y-89356117D01*
X145391747Y-89304589D01*
X145379909Y-89235730D01*
X145407178Y-89171401D01*
X145438935Y-89143883D01*
X145439603Y-89143478D01*
X145439606Y-89143478D01*
X145585185Y-89055472D01*
X145665355Y-88975302D01*
X150189500Y-88975302D01*
X150189500Y-89384697D01*
X150192356Y-89420991D01*
X150192357Y-89420997D01*
X150237504Y-89576390D01*
X150237507Y-89576397D01*
X150286287Y-89658881D01*
X150303470Y-89726605D01*
X150286290Y-89785116D01*
X150277135Y-89800597D01*
X150277129Y-89800611D01*
X150232335Y-89954791D01*
X150232334Y-89954797D01*
X150229500Y-89990811D01*
X150229500Y-90389169D01*
X150229501Y-90389191D01*
X150232335Y-90425205D01*
X150277129Y-90579388D01*
X150277132Y-90579395D01*
X150311128Y-90636881D01*
X150328309Y-90704605D01*
X150311128Y-90763119D01*
X150277132Y-90820604D01*
X150277129Y-90820611D01*
X150232335Y-90974791D01*
X150232334Y-90974797D01*
X150229500Y-91010811D01*
X150229500Y-91409169D01*
X150229501Y-91409191D01*
X150232335Y-91445205D01*
X150277129Y-91599388D01*
X150277131Y-91599393D01*
X150358863Y-91737595D01*
X150358869Y-91737603D01*
X150384818Y-91763552D01*
X150418303Y-91824875D01*
X150413319Y-91894567D01*
X150401873Y-91915117D01*
X150402836Y-91915687D01*
X150317131Y-92060606D01*
X150317129Y-92060611D01*
X150272335Y-92214791D01*
X150272334Y-92214797D01*
X150269500Y-92250811D01*
X150269500Y-92749169D01*
X150269501Y-92749191D01*
X150272335Y-92785205D01*
X150317129Y-92939388D01*
X150317131Y-92939393D01*
X150398863Y-93077595D01*
X150398869Y-93077603D01*
X150512396Y-93191130D01*
X150512400Y-93191133D01*
X150512402Y-93191135D01*
X150650607Y-93272869D01*
X150650614Y-93272871D01*
X150804791Y-93317664D01*
X150804794Y-93317664D01*
X150804796Y-93317665D01*
X150840819Y-93320500D01*
X151239180Y-93320499D01*
X151275204Y-93317665D01*
X151429393Y-93272869D01*
X151486882Y-93238869D01*
X151554602Y-93221688D01*
X151613117Y-93238869D01*
X151670607Y-93272869D01*
X151670610Y-93272869D01*
X151670612Y-93272871D01*
X151824791Y-93317664D01*
X151824794Y-93317664D01*
X151824796Y-93317665D01*
X151860819Y-93320500D01*
X152259180Y-93320499D01*
X152295204Y-93317665D01*
X152449393Y-93272869D01*
X152587598Y-93191135D01*
X152592316Y-93186416D01*
X152653636Y-93152930D01*
X152723328Y-93157911D01*
X152767683Y-93186416D01*
X152772402Y-93191135D01*
X152910607Y-93272869D01*
X152910614Y-93272871D01*
X153064791Y-93317664D01*
X153064794Y-93317664D01*
X153064796Y-93317665D01*
X153100819Y-93320500D01*
X153499180Y-93320499D01*
X153535204Y-93317665D01*
X153689393Y-93272869D01*
X153746882Y-93238869D01*
X153814602Y-93221688D01*
X153873117Y-93238869D01*
X153930607Y-93272869D01*
X153930610Y-93272869D01*
X153930612Y-93272871D01*
X154084791Y-93317664D01*
X154084794Y-93317664D01*
X154084796Y-93317665D01*
X154120819Y-93320500D01*
X154519180Y-93320499D01*
X154555204Y-93317665D01*
X154709393Y-93272869D01*
X154847598Y-93191135D01*
X154894959Y-93143774D01*
X154956282Y-93110288D01*
X155025973Y-93115272D01*
X155047075Y-93127029D01*
X155047598Y-93126146D01*
X155077406Y-93143774D01*
X155193605Y-93212494D01*
X155225251Y-93221688D01*
X155349002Y-93257642D01*
X155349005Y-93257642D01*
X155349007Y-93257643D01*
X155385310Y-93260500D01*
X155385318Y-93260500D01*
X155794682Y-93260500D01*
X155794690Y-93260500D01*
X155830993Y-93257643D01*
X155830995Y-93257642D01*
X155830997Y-93257642D01*
X155895606Y-93238871D01*
X155986395Y-93212494D01*
X156125687Y-93130117D01*
X156240117Y-93015687D01*
X156322494Y-92876395D01*
X156347023Y-92791966D01*
X162199500Y-92791966D01*
X162199500Y-93908028D01*
X162199500Y-93908033D01*
X162199501Y-93908036D01*
X162201571Y-93931330D01*
X162210113Y-94027415D01*
X162266089Y-94223045D01*
X162266090Y-94223048D01*
X162266091Y-94223049D01*
X162360302Y-94403407D01*
X162385870Y-94434764D01*
X162488890Y-94561109D01*
X162582803Y-94637684D01*
X162646593Y-94689698D01*
X162826951Y-94783909D01*
X163022582Y-94839886D01*
X163141963Y-94850500D01*
X166058036Y-94850499D01*
X166177418Y-94839886D01*
X166373049Y-94783909D01*
X166553407Y-94689698D01*
X166711109Y-94561109D01*
X166839698Y-94403407D01*
X166933909Y-94223049D01*
X166989886Y-94027418D01*
X167000500Y-93908037D01*
X167000499Y-92791964D01*
X166989886Y-92672582D01*
X166933909Y-92476951D01*
X166839698Y-92296593D01*
X166773426Y-92215317D01*
X166711109Y-92138890D01*
X166574126Y-92027196D01*
X166553407Y-92010302D01*
X166373049Y-91916091D01*
X166373048Y-91916090D01*
X166373045Y-91916089D01*
X166255829Y-91882550D01*
X166177418Y-91860114D01*
X166177415Y-91860113D01*
X166177413Y-91860113D01*
X166111102Y-91854217D01*
X166058037Y-91849500D01*
X166058032Y-91849500D01*
X163141971Y-91849500D01*
X163141965Y-91849500D01*
X163141964Y-91849501D01*
X163136351Y-91850000D01*
X163022584Y-91860113D01*
X162826954Y-91916089D01*
X162749375Y-91956613D01*
X162646593Y-92010302D01*
X162646591Y-92010303D01*
X162646590Y-92010304D01*
X162488890Y-92138890D01*
X162362342Y-92294091D01*
X162360302Y-92296593D01*
X162326916Y-92360508D01*
X162266089Y-92476954D01*
X162225996Y-92617076D01*
X162211384Y-92668146D01*
X162210114Y-92672583D01*
X162210113Y-92672586D01*
X162204787Y-92732494D01*
X162200653Y-92779002D01*
X162199500Y-92791966D01*
X156347023Y-92791966D01*
X156367643Y-92720993D01*
X156370500Y-92684690D01*
X156370500Y-92215310D01*
X156367643Y-92179007D01*
X156361408Y-92157547D01*
X156327934Y-92042328D01*
X156322494Y-92023605D01*
X156240117Y-91884313D01*
X156240115Y-91884311D01*
X156240112Y-91884307D01*
X156151107Y-91795302D01*
X157439500Y-91795302D01*
X157439500Y-92204697D01*
X157442356Y-92240991D01*
X157442357Y-92240997D01*
X157487504Y-92396390D01*
X157487505Y-92396393D01*
X157569881Y-92535684D01*
X157569887Y-92535692D01*
X157684307Y-92650112D01*
X157684311Y-92650115D01*
X157684313Y-92650117D01*
X157823605Y-92732494D01*
X157823612Y-92732496D01*
X157979002Y-92777642D01*
X157979005Y-92777642D01*
X157979007Y-92777643D01*
X158015310Y-92780500D01*
X158015318Y-92780500D01*
X158484682Y-92780500D01*
X158484690Y-92780500D01*
X158520993Y-92777643D01*
X158520995Y-92777642D01*
X158520997Y-92777642D01*
X158676388Y-92732496D01*
X158676387Y-92732496D01*
X158676395Y-92732494D01*
X158686880Y-92726292D01*
X158754600Y-92709110D01*
X158813118Y-92726292D01*
X158823605Y-92732494D01*
X158823610Y-92732495D01*
X158823611Y-92732496D01*
X158979002Y-92777642D01*
X158979005Y-92777642D01*
X158979007Y-92777643D01*
X159015310Y-92780500D01*
X159015318Y-92780500D01*
X159484682Y-92780500D01*
X159484690Y-92780500D01*
X159520993Y-92777643D01*
X159520995Y-92777642D01*
X159520997Y-92777642D01*
X159676388Y-92732496D01*
X159676387Y-92732496D01*
X159676395Y-92732494D01*
X159686880Y-92726292D01*
X159754600Y-92709110D01*
X159813118Y-92726292D01*
X159823605Y-92732494D01*
X159823610Y-92732495D01*
X159823611Y-92732496D01*
X159979002Y-92777642D01*
X159979005Y-92777642D01*
X159979007Y-92777643D01*
X160015310Y-92780500D01*
X160015318Y-92780500D01*
X160484682Y-92780500D01*
X160484690Y-92780500D01*
X160520993Y-92777643D01*
X160520995Y-92777642D01*
X160520997Y-92777642D01*
X160611737Y-92751279D01*
X160676395Y-92732494D01*
X160751047Y-92688344D01*
X160760961Y-92682482D01*
X160777701Y-92672582D01*
X160815687Y-92650117D01*
X160930117Y-92535687D01*
X161012494Y-92396395D01*
X161054791Y-92250811D01*
X161057642Y-92240997D01*
X161057643Y-92240991D01*
X161060500Y-92204690D01*
X161060500Y-91795310D01*
X161057643Y-91759007D01*
X161051424Y-91737603D01*
X161019034Y-91626117D01*
X161012494Y-91603605D01*
X160930117Y-91464313D01*
X160930115Y-91464311D01*
X160930112Y-91464307D01*
X160815692Y-91349887D01*
X160815684Y-91349881D01*
X160686882Y-91273708D01*
X160676395Y-91267506D01*
X160676394Y-91267505D01*
X160676393Y-91267505D01*
X160676390Y-91267504D01*
X160520997Y-91222357D01*
X160520991Y-91222356D01*
X160484697Y-91219500D01*
X160484690Y-91219500D01*
X160015310Y-91219500D01*
X160015302Y-91219500D01*
X159979008Y-91222356D01*
X159979002Y-91222357D01*
X159823605Y-91267505D01*
X159813116Y-91273708D01*
X159745392Y-91290887D01*
X159686884Y-91273708D01*
X159676394Y-91267505D01*
X159520997Y-91222357D01*
X159520991Y-91222356D01*
X159484697Y-91219500D01*
X159484690Y-91219500D01*
X159015310Y-91219500D01*
X159015302Y-91219500D01*
X158979008Y-91222356D01*
X158979002Y-91222357D01*
X158823605Y-91267505D01*
X158813116Y-91273708D01*
X158745392Y-91290887D01*
X158686884Y-91273708D01*
X158676394Y-91267505D01*
X158520997Y-91222357D01*
X158520991Y-91222356D01*
X158484697Y-91219500D01*
X158484690Y-91219500D01*
X158015310Y-91219500D01*
X158015302Y-91219500D01*
X157979008Y-91222356D01*
X157979002Y-91222357D01*
X157823609Y-91267504D01*
X157823606Y-91267505D01*
X157684315Y-91349881D01*
X157684307Y-91349887D01*
X157569887Y-91464307D01*
X157569881Y-91464315D01*
X157487505Y-91603606D01*
X157487504Y-91603609D01*
X157442357Y-91759002D01*
X157442356Y-91759008D01*
X157439500Y-91795302D01*
X156151107Y-91795302D01*
X156125692Y-91769887D01*
X156125684Y-91769881D01*
X156022200Y-91708681D01*
X155986395Y-91687506D01*
X155986394Y-91687505D01*
X155986393Y-91687505D01*
X155986390Y-91687504D01*
X155830997Y-91642357D01*
X155830991Y-91642356D01*
X155794697Y-91639500D01*
X155794690Y-91639500D01*
X155385310Y-91639500D01*
X155385302Y-91639500D01*
X155349008Y-91642356D01*
X155349002Y-91642357D01*
X155193609Y-91687504D01*
X155193606Y-91687505D01*
X155054315Y-91769881D01*
X155054306Y-91769888D01*
X155019144Y-91805050D01*
X154970797Y-91831449D01*
X154967165Y-91833892D01*
X154966290Y-91833910D01*
X154957821Y-91838535D01*
X154909646Y-91835088D01*
X154897311Y-91835345D01*
X154894641Y-91834014D01*
X154888129Y-91833549D01*
X154866125Y-91822757D01*
X154853928Y-91815195D01*
X154847598Y-91808865D01*
X154763428Y-91759087D01*
X154762331Y-91758407D01*
X154739850Y-91733298D01*
X154716866Y-91708681D01*
X154716625Y-91707356D01*
X154715726Y-91706352D01*
X154710387Y-91673066D01*
X154704362Y-91639939D01*
X154704875Y-91638694D01*
X154704662Y-91637364D01*
X154718160Y-91606489D01*
X154731007Y-91575350D01*
X154732349Y-91574036D01*
X154732652Y-91573346D01*
X154733919Y-91572502D01*
X154752177Y-91554648D01*
X154781867Y-91531867D01*
X154864625Y-91424014D01*
X154921053Y-91382811D01*
X154963001Y-91375500D01*
X155226033Y-91375500D01*
X155226040Y-91375500D01*
X155340999Y-91360365D01*
X155484037Y-91301117D01*
X155606867Y-91206867D01*
X155701117Y-91084037D01*
X155760365Y-90940999D01*
X155775500Y-90826040D01*
X155775500Y-90573960D01*
X155760365Y-90459001D01*
X155701117Y-90315963D01*
X155670057Y-90275484D01*
X155644864Y-90210318D01*
X155658902Y-90141873D01*
X155660380Y-90139170D01*
X155664698Y-90131498D01*
X155701117Y-90084037D01*
X155704616Y-90075589D01*
X162149500Y-90075589D01*
X162149500Y-90424393D01*
X162149501Y-90424415D01*
X162152234Y-90459152D01*
X162152234Y-90459155D01*
X162152235Y-90459156D01*
X162195445Y-90607887D01*
X162216733Y-90643883D01*
X162274282Y-90741194D01*
X162274289Y-90741203D01*
X162383796Y-90850710D01*
X162383805Y-90850717D01*
X162400119Y-90860365D01*
X162517113Y-90929555D01*
X162665844Y-90972765D01*
X162700595Y-90975500D01*
X163199404Y-90975499D01*
X163234156Y-90972765D01*
X163382887Y-90929555D01*
X163516198Y-90850715D01*
X163625715Y-90741198D01*
X163704555Y-90607887D01*
X163747765Y-90459156D01*
X163750500Y-90424405D01*
X163750499Y-90075596D01*
X163750498Y-90075589D01*
X164249500Y-90075589D01*
X164249500Y-90424393D01*
X164249501Y-90424415D01*
X164252234Y-90459152D01*
X164252234Y-90459155D01*
X164252235Y-90459156D01*
X164295445Y-90607887D01*
X164316733Y-90643883D01*
X164374282Y-90741194D01*
X164374289Y-90741203D01*
X164483796Y-90850710D01*
X164483805Y-90850717D01*
X164500119Y-90860365D01*
X164617113Y-90929555D01*
X164765844Y-90972765D01*
X164800595Y-90975500D01*
X165299404Y-90975499D01*
X165334156Y-90972765D01*
X165482887Y-90929555D01*
X165616198Y-90850715D01*
X165637819Y-90829093D01*
X165699140Y-90795609D01*
X165768831Y-90800592D01*
X165824766Y-90842463D01*
X165849184Y-90907927D01*
X165849500Y-90916774D01*
X165849500Y-91047869D01*
X165849501Y-91047876D01*
X165855908Y-91107483D01*
X165906202Y-91242328D01*
X165906206Y-91242335D01*
X165992452Y-91357544D01*
X165992455Y-91357547D01*
X166107664Y-91443793D01*
X166107671Y-91443797D01*
X166242517Y-91494091D01*
X166242516Y-91494091D01*
X166249444Y-91494835D01*
X166302127Y-91500500D01*
X167397872Y-91500499D01*
X167457483Y-91494091D01*
X167457485Y-91494090D01*
X167457487Y-91494090D01*
X167465031Y-91492308D01*
X167465377Y-91493775D01*
X167526342Y-91489408D01*
X167541378Y-91493822D01*
X167542513Y-91494089D01*
X167542517Y-91494091D01*
X167602127Y-91500500D01*
X168697872Y-91500499D01*
X168757483Y-91494091D01*
X168892331Y-91443796D01*
X169007546Y-91357546D01*
X169093796Y-91242331D01*
X169144091Y-91107483D01*
X169150500Y-91047873D01*
X169150499Y-89452128D01*
X169144091Y-89392517D01*
X169141174Y-89384697D01*
X169093797Y-89257671D01*
X169093793Y-89257664D01*
X169007547Y-89142455D01*
X169007544Y-89142452D01*
X168892335Y-89056206D01*
X168892328Y-89056202D01*
X168757482Y-89005908D01*
X168757483Y-89005908D01*
X168697883Y-88999501D01*
X168697881Y-88999500D01*
X168697873Y-88999500D01*
X168697864Y-88999500D01*
X167602129Y-88999500D01*
X167602123Y-88999501D01*
X167542520Y-89005908D01*
X167534974Y-89007692D01*
X167534628Y-89006230D01*
X167473622Y-89010584D01*
X167458600Y-89006172D01*
X167457482Y-89005908D01*
X167397883Y-88999501D01*
X167397881Y-88999500D01*
X167397873Y-88999500D01*
X167397864Y-88999500D01*
X166302129Y-88999500D01*
X166302123Y-88999501D01*
X166242516Y-89005908D01*
X166107671Y-89056202D01*
X166107664Y-89056206D01*
X165992455Y-89142452D01*
X165992452Y-89142455D01*
X165906206Y-89257664D01*
X165906202Y-89257671D01*
X165855908Y-89392517D01*
X165849501Y-89452116D01*
X165849501Y-89452123D01*
X165849500Y-89452135D01*
X165849500Y-89583224D01*
X165829815Y-89650263D01*
X165777011Y-89696018D01*
X165707853Y-89705962D01*
X165644297Y-89676937D01*
X165637819Y-89670905D01*
X165616203Y-89649289D01*
X165616194Y-89649282D01*
X165504495Y-89583224D01*
X165482887Y-89570445D01*
X165334156Y-89527235D01*
X165334153Y-89527234D01*
X165334151Y-89527234D01*
X165303395Y-89524814D01*
X165299405Y-89524500D01*
X165299404Y-89524500D01*
X164800606Y-89524500D01*
X164800584Y-89524501D01*
X164765847Y-89527234D01*
X164765844Y-89527235D01*
X164617113Y-89570445D01*
X164617111Y-89570445D01*
X164617111Y-89570446D01*
X164483805Y-89649282D01*
X164483796Y-89649289D01*
X164374289Y-89758796D01*
X164374282Y-89758805D01*
X164299875Y-89884622D01*
X164295445Y-89892113D01*
X164264101Y-90000000D01*
X164252234Y-90040847D01*
X164252234Y-90040849D01*
X164249500Y-90075589D01*
X163750498Y-90075589D01*
X163749006Y-90056616D01*
X163747765Y-90040844D01*
X163704555Y-89892113D01*
X163625715Y-89758802D01*
X163625713Y-89758800D01*
X163625710Y-89758796D01*
X163516203Y-89649289D01*
X163516194Y-89649282D01*
X163404495Y-89583224D01*
X163382887Y-89570445D01*
X163234156Y-89527235D01*
X163234153Y-89527234D01*
X163234151Y-89527234D01*
X163203395Y-89524814D01*
X163199405Y-89524500D01*
X163199404Y-89524500D01*
X162700606Y-89524500D01*
X162700584Y-89524501D01*
X162665847Y-89527234D01*
X162665844Y-89527235D01*
X162517113Y-89570445D01*
X162517111Y-89570445D01*
X162517111Y-89570446D01*
X162383805Y-89649282D01*
X162383796Y-89649289D01*
X162274289Y-89758796D01*
X162274282Y-89758805D01*
X162199875Y-89884622D01*
X162195445Y-89892113D01*
X162164101Y-90000000D01*
X162152234Y-90040847D01*
X162152234Y-90040849D01*
X162149500Y-90075589D01*
X155704616Y-90075589D01*
X155760365Y-89940999D01*
X155775500Y-89826040D01*
X155775500Y-89746336D01*
X155795185Y-89679297D01*
X155847989Y-89633542D01*
X155917147Y-89623598D01*
X155963648Y-89640218D01*
X156010394Y-89668478D01*
X156172804Y-89719086D01*
X156243384Y-89725500D01*
X156243387Y-89725500D01*
X156756613Y-89725500D01*
X156756616Y-89725500D01*
X156827196Y-89719086D01*
X156989606Y-89668478D01*
X157135185Y-89580472D01*
X157255472Y-89460185D01*
X157343478Y-89314606D01*
X157394086Y-89152196D01*
X157400500Y-89081616D01*
X157400500Y-88418386D01*
X158849500Y-88418386D01*
X158849500Y-89081613D01*
X158855913Y-89152192D01*
X158855913Y-89152194D01*
X158855914Y-89152196D01*
X158906522Y-89314606D01*
X158989657Y-89452128D01*
X158994530Y-89460188D01*
X159114811Y-89580469D01*
X159114813Y-89580470D01*
X159114815Y-89580472D01*
X159260394Y-89668478D01*
X159422804Y-89719086D01*
X159493384Y-89725500D01*
X159493387Y-89725500D01*
X160006613Y-89725500D01*
X160006616Y-89725500D01*
X160077196Y-89719086D01*
X160239606Y-89668478D01*
X160385185Y-89580472D01*
X160505472Y-89460185D01*
X160593478Y-89314606D01*
X160644086Y-89152196D01*
X160650500Y-89081616D01*
X160650500Y-88418384D01*
X160644086Y-88347804D01*
X160593478Y-88185394D01*
X160505472Y-88039815D01*
X160505470Y-88039813D01*
X160505469Y-88039811D01*
X160385188Y-87919530D01*
X160372103Y-87911620D01*
X160239606Y-87831522D01*
X160077196Y-87780914D01*
X160077194Y-87780913D01*
X160077192Y-87780913D01*
X160027778Y-87776423D01*
X160006616Y-87774500D01*
X159493384Y-87774500D01*
X159474145Y-87776248D01*
X159422807Y-87780913D01*
X159260393Y-87831522D01*
X159114811Y-87919530D01*
X158994530Y-88039811D01*
X158906522Y-88185393D01*
X158855913Y-88347807D01*
X158849500Y-88418386D01*
X157400500Y-88418386D01*
X157400500Y-88418384D01*
X157394086Y-88347804D01*
X157343478Y-88185394D01*
X157255472Y-88039815D01*
X157255470Y-88039813D01*
X157255469Y-88039811D01*
X157135188Y-87919530D01*
X157122103Y-87911620D01*
X156989606Y-87831522D01*
X156827196Y-87780914D01*
X156827194Y-87780913D01*
X156827192Y-87780913D01*
X156777778Y-87776423D01*
X156756616Y-87774500D01*
X156243384Y-87774500D01*
X156224145Y-87776248D01*
X156172807Y-87780913D01*
X156010393Y-87831522D01*
X155864811Y-87919530D01*
X155744530Y-88039811D01*
X155656522Y-88185393D01*
X155605913Y-88347807D01*
X155599500Y-88418386D01*
X155599500Y-88961130D01*
X155579815Y-89028169D01*
X155527011Y-89073924D01*
X155457853Y-89083868D01*
X155428048Y-89075691D01*
X155341002Y-89039636D01*
X155341000Y-89039635D01*
X155340999Y-89039635D01*
X155315452Y-89036271D01*
X155226047Y-89024500D01*
X155226040Y-89024500D01*
X155034580Y-89024500D01*
X154967541Y-89004815D01*
X154921786Y-88952011D01*
X154911842Y-88882853D01*
X154920019Y-88853048D01*
X154923851Y-88843796D01*
X154935365Y-88815999D01*
X154950500Y-88701040D01*
X154950500Y-88248960D01*
X154935365Y-88134001D01*
X154876117Y-87990963D01*
X154781867Y-87868133D01*
X154687616Y-87795812D01*
X154659036Y-87773882D01*
X154659037Y-87773882D01*
X154516002Y-87714636D01*
X154516000Y-87714635D01*
X154515999Y-87714635D01*
X154490452Y-87711271D01*
X154401047Y-87699500D01*
X154401040Y-87699500D01*
X154148960Y-87699500D01*
X154148952Y-87699500D01*
X154046774Y-87712953D01*
X154034001Y-87714635D01*
X154034000Y-87714635D01*
X154033997Y-87714636D01*
X153890963Y-87773882D01*
X153768133Y-87868133D01*
X153673882Y-87990963D01*
X153614636Y-88133997D01*
X153614635Y-88134002D01*
X153599500Y-88248952D01*
X153599500Y-88701047D01*
X153606939Y-88757544D01*
X153614158Y-88812379D01*
X153614635Y-88815997D01*
X153614636Y-88816002D01*
X153673882Y-88959036D01*
X153685569Y-88974267D01*
X153768133Y-89081867D01*
X153890963Y-89176117D01*
X153890962Y-89176117D01*
X153903263Y-89181212D01*
X154034001Y-89235365D01*
X154148960Y-89250500D01*
X154152985Y-89251030D01*
X154152854Y-89252020D01*
X154214255Y-89274505D01*
X154256459Y-89330188D01*
X154261859Y-89399849D01*
X154255100Y-89421665D01*
X154239635Y-89459001D01*
X154239635Y-89459002D01*
X154224500Y-89573952D01*
X154224500Y-89826047D01*
X154239635Y-89940997D01*
X154239636Y-89941002D01*
X154255099Y-89978333D01*
X154262568Y-90047802D01*
X154231293Y-90110281D01*
X154171204Y-90145933D01*
X154152967Y-90148834D01*
X154152985Y-90148970D01*
X154121380Y-90153131D01*
X154034001Y-90164635D01*
X154034000Y-90164635D01*
X154033997Y-90164636D01*
X153890963Y-90223882D01*
X153850485Y-90254942D01*
X153785316Y-90280135D01*
X153716871Y-90266096D01*
X153699515Y-90254942D01*
X153659036Y-90223882D01*
X153516002Y-90164636D01*
X153516000Y-90164635D01*
X153515999Y-90164635D01*
X153465691Y-90158011D01*
X153428621Y-90153131D01*
X153364724Y-90124864D01*
X153326254Y-90066539D01*
X153321869Y-90046385D01*
X153311310Y-89966178D01*
X153311310Y-89933821D01*
X153325500Y-89826040D01*
X153325500Y-89573960D01*
X153311310Y-89466178D01*
X153311310Y-89433821D01*
X153325500Y-89326040D01*
X153325500Y-89073960D01*
X153311310Y-88966178D01*
X153311310Y-88933821D01*
X153325500Y-88826040D01*
X153325500Y-88573960D01*
X153310365Y-88459001D01*
X153251117Y-88315963D01*
X153156867Y-88193133D01*
X153034037Y-88098883D01*
X153034036Y-88098882D01*
X153034037Y-88098882D01*
X152891002Y-88039636D01*
X152891000Y-88039635D01*
X152890999Y-88039635D01*
X152865452Y-88036271D01*
X152776047Y-88024500D01*
X152776040Y-88024500D01*
X152323960Y-88024500D01*
X152323952Y-88024500D01*
X152221774Y-88037953D01*
X152209001Y-88039635D01*
X152209000Y-88039635D01*
X152208997Y-88039636D01*
X152065963Y-88098882D01*
X151943133Y-88193133D01*
X151848882Y-88315963D01*
X151789636Y-88458997D01*
X151789635Y-88459002D01*
X151788156Y-88470236D01*
X151759889Y-88534133D01*
X151701564Y-88572603D01*
X151631699Y-88573434D01*
X151577536Y-88541731D01*
X151565692Y-88529887D01*
X151565684Y-88529881D01*
X151464829Y-88470236D01*
X151426395Y-88447506D01*
X151426394Y-88447505D01*
X151426393Y-88447505D01*
X151426390Y-88447504D01*
X151270997Y-88402357D01*
X151270991Y-88402356D01*
X151234697Y-88399500D01*
X151234690Y-88399500D01*
X150765310Y-88399500D01*
X150765302Y-88399500D01*
X150729008Y-88402356D01*
X150729002Y-88402357D01*
X150573609Y-88447504D01*
X150573606Y-88447505D01*
X150434315Y-88529881D01*
X150434307Y-88529887D01*
X150319887Y-88644307D01*
X150319881Y-88644315D01*
X150237505Y-88783606D01*
X150237504Y-88783609D01*
X150192357Y-88939002D01*
X150192356Y-88939008D01*
X150189500Y-88975302D01*
X145665355Y-88975302D01*
X145705472Y-88935185D01*
X145793478Y-88789606D01*
X145844086Y-88627196D01*
X145850500Y-88556616D01*
X145850500Y-88043384D01*
X145844086Y-87972804D01*
X145793478Y-87810394D01*
X145705472Y-87664815D01*
X145705470Y-87664813D01*
X145705469Y-87664811D01*
X145585188Y-87544530D01*
X145581593Y-87542357D01*
X145439606Y-87456522D01*
X145277196Y-87405914D01*
X145261292Y-87404468D01*
X145249380Y-87403386D01*
X145184397Y-87377714D01*
X145143610Y-87320985D01*
X145139967Y-87251210D01*
X145141528Y-87245299D01*
X145177643Y-87120993D01*
X145180500Y-87084690D01*
X145180500Y-86615310D01*
X145177643Y-86579007D01*
X145132494Y-86423605D01*
X145124427Y-86409964D01*
X145095837Y-86361620D01*
X145095836Y-86361619D01*
X145060369Y-86301647D01*
X145699500Y-86301647D01*
X145699500Y-86898337D01*
X145699501Y-86898355D01*
X145709650Y-86997707D01*
X145709651Y-86997710D01*
X145762996Y-87158694D01*
X145763001Y-87158705D01*
X145852029Y-87303040D01*
X145852032Y-87303044D01*
X145971955Y-87422967D01*
X145971959Y-87422970D01*
X146116294Y-87511998D01*
X146116297Y-87511999D01*
X146116303Y-87512003D01*
X146277292Y-87565349D01*
X146376655Y-87575500D01*
X146923344Y-87575499D01*
X146923352Y-87575498D01*
X146923355Y-87575498D01*
X146977760Y-87569940D01*
X147022708Y-87565349D01*
X147183697Y-87512003D01*
X147328044Y-87422968D01*
X147337319Y-87413693D01*
X147398642Y-87380208D01*
X147468334Y-87385192D01*
X147512681Y-87413693D01*
X147521955Y-87422967D01*
X147521959Y-87422970D01*
X147666294Y-87511998D01*
X147666297Y-87511999D01*
X147666303Y-87512003D01*
X147827292Y-87565349D01*
X147926655Y-87575500D01*
X148473344Y-87575499D01*
X148473352Y-87575498D01*
X148473355Y-87575498D01*
X148527760Y-87569940D01*
X148572708Y-87565349D01*
X148733697Y-87512003D01*
X148878044Y-87422968D01*
X148997968Y-87303044D01*
X149087003Y-87158697D01*
X149140349Y-86997708D01*
X149150500Y-86898345D01*
X149150499Y-86301656D01*
X149148727Y-86284313D01*
X149140349Y-86202292D01*
X149140348Y-86202289D01*
X149129814Y-86170499D01*
X149087003Y-86041303D01*
X149086999Y-86041297D01*
X149086998Y-86041294D01*
X148997970Y-85896959D01*
X148997967Y-85896955D01*
X148878044Y-85777032D01*
X148878040Y-85777029D01*
X148733705Y-85688001D01*
X148733699Y-85687998D01*
X148733697Y-85687997D01*
X148733694Y-85687996D01*
X148572709Y-85634651D01*
X148473346Y-85624500D01*
X147926662Y-85624500D01*
X147926644Y-85624501D01*
X147827292Y-85634650D01*
X147827289Y-85634651D01*
X147666305Y-85687996D01*
X147666294Y-85688001D01*
X147521959Y-85777029D01*
X147521955Y-85777032D01*
X147512681Y-85786307D01*
X147451358Y-85819792D01*
X147381666Y-85814808D01*
X147337319Y-85786307D01*
X147328044Y-85777032D01*
X147328040Y-85777029D01*
X147183705Y-85688001D01*
X147183699Y-85687998D01*
X147183697Y-85687997D01*
X147183694Y-85687996D01*
X147022709Y-85634651D01*
X146923346Y-85624500D01*
X146376662Y-85624500D01*
X146376644Y-85624501D01*
X146277292Y-85634650D01*
X146277289Y-85634651D01*
X146116305Y-85687996D01*
X146116294Y-85688001D01*
X145971959Y-85777029D01*
X145971955Y-85777032D01*
X145852032Y-85896955D01*
X145852029Y-85896959D01*
X145763001Y-86041294D01*
X145762996Y-86041305D01*
X145709651Y-86202290D01*
X145699500Y-86301647D01*
X145060369Y-86301647D01*
X145050119Y-86284316D01*
X145050112Y-86284307D01*
X144935692Y-86169887D01*
X144935684Y-86169881D01*
X144796393Y-86087505D01*
X144796390Y-86087504D01*
X144640997Y-86042357D01*
X144640991Y-86042356D01*
X144604697Y-86039500D01*
X144604690Y-86039500D01*
X144195310Y-86039500D01*
X144195302Y-86039500D01*
X144159008Y-86042356D01*
X144159002Y-86042357D01*
X144003609Y-86087504D01*
X144003606Y-86087505D01*
X143864315Y-86169881D01*
X143864307Y-86169887D01*
X143749887Y-86284307D01*
X143749881Y-86284315D01*
X143667505Y-86423606D01*
X143667504Y-86423609D01*
X143622357Y-86579002D01*
X143622356Y-86579008D01*
X143619500Y-86615302D01*
X143619500Y-87084697D01*
X143622356Y-87120991D01*
X143622357Y-87120997D01*
X143667504Y-87276390D01*
X143667504Y-87276391D01*
X143718357Y-87362380D01*
X143735539Y-87430104D01*
X143713378Y-87496366D01*
X143658912Y-87540129D01*
X143611624Y-87549500D01*
X142927129Y-87549500D01*
X142927123Y-87549501D01*
X142867516Y-87555908D01*
X142732671Y-87606202D01*
X142732664Y-87606206D01*
X142617455Y-87692452D01*
X142617452Y-87692455D01*
X142531206Y-87807664D01*
X142531202Y-87807671D01*
X142487962Y-87923606D01*
X142480909Y-87942517D01*
X142474500Y-88002127D01*
X142474500Y-88002134D01*
X142474500Y-88002135D01*
X142474500Y-88447870D01*
X142474501Y-88447876D01*
X142480908Y-88507479D01*
X142482692Y-88515026D01*
X142481229Y-88515371D01*
X142485585Y-88576371D01*
X142481173Y-88591396D01*
X142480908Y-88592517D01*
X142474501Y-88652117D01*
X142474500Y-88652136D01*
X142474500Y-89097870D01*
X142474501Y-89097876D01*
X142480908Y-89157479D01*
X142482692Y-89165026D01*
X142481229Y-89165371D01*
X142485585Y-89226371D01*
X142481173Y-89241396D01*
X142480908Y-89242517D01*
X142474782Y-89299500D01*
X142474501Y-89302123D01*
X142474500Y-89302136D01*
X142474500Y-89747870D01*
X142474501Y-89747876D01*
X142480908Y-89807479D01*
X142482692Y-89815026D01*
X142481229Y-89815371D01*
X142485585Y-89876371D01*
X142481173Y-89891396D01*
X142480908Y-89892517D01*
X142475696Y-89940999D01*
X142474501Y-89952123D01*
X142474500Y-89952136D01*
X142474500Y-90397870D01*
X142474501Y-90397876D01*
X142480908Y-90457483D01*
X142531202Y-90592328D01*
X142531206Y-90592335D01*
X142617452Y-90707544D01*
X142617453Y-90707544D01*
X142617454Y-90707546D01*
X142655103Y-90735730D01*
X142699301Y-90768817D01*
X142741171Y-90824751D01*
X142746155Y-90894442D01*
X142731721Y-90931204D01*
X142647505Y-91073606D01*
X142647504Y-91073609D01*
X142602357Y-91229002D01*
X142602356Y-91229008D01*
X142599500Y-91265302D01*
X142599500Y-91734697D01*
X142602356Y-91770991D01*
X142602357Y-91770997D01*
X142647504Y-91926390D01*
X142647505Y-91926393D01*
X142729881Y-92065684D01*
X142729887Y-92065692D01*
X142844307Y-92180112D01*
X142844311Y-92180115D01*
X142844313Y-92180117D01*
X142983605Y-92262494D01*
X143001008Y-92267550D01*
X143139002Y-92307642D01*
X143139005Y-92307642D01*
X143139007Y-92307643D01*
X143175310Y-92310500D01*
X143175318Y-92310500D01*
X143584682Y-92310500D01*
X143584690Y-92310500D01*
X143620993Y-92307643D01*
X143620995Y-92307642D01*
X143620997Y-92307642D01*
X143700134Y-92284650D01*
X143776395Y-92262494D01*
X143915687Y-92180117D01*
X144030117Y-92065687D01*
X144112494Y-91926395D01*
X144150578Y-91795310D01*
X144157642Y-91770997D01*
X144157643Y-91770991D01*
X144157730Y-91769883D01*
X144160500Y-91734690D01*
X144160500Y-91265310D01*
X144157643Y-91229007D01*
X144137688Y-91160322D01*
X144137887Y-91090455D01*
X144175828Y-91031784D01*
X144239466Y-91002940D01*
X144301497Y-91010078D01*
X144311622Y-91013994D01*
X144360394Y-91043478D01*
X144501617Y-91087484D01*
X144505490Y-91088982D01*
X144530035Y-91107823D01*
X144555795Y-91124984D01*
X144557512Y-91128915D01*
X144560914Y-91131526D01*
X144571377Y-91160647D01*
X144583769Y-91189009D01*
X144583614Y-91194706D01*
X144584539Y-91197280D01*
X144583411Y-91202177D01*
X144582740Y-91226905D01*
X144582357Y-91229000D01*
X144579500Y-91265302D01*
X144579500Y-91734697D01*
X144582356Y-91770991D01*
X144582357Y-91770997D01*
X144627504Y-91926390D01*
X144627505Y-91926393D01*
X144709881Y-92065684D01*
X144709887Y-92065692D01*
X144824307Y-92180112D01*
X144824311Y-92180115D01*
X144824313Y-92180117D01*
X144963605Y-92262494D01*
X144981008Y-92267550D01*
X145119002Y-92307642D01*
X145119005Y-92307642D01*
X145119007Y-92307643D01*
X145155310Y-92310500D01*
X145155318Y-92310500D01*
X145564682Y-92310500D01*
X145564690Y-92310500D01*
X145600993Y-92307643D01*
X145604810Y-92306534D01*
X145607030Y-92306540D01*
X145607223Y-92306505D01*
X145607229Y-92306540D01*
X145674676Y-92306725D01*
X145733351Y-92344660D01*
X145744954Y-92360508D01*
X145802031Y-92453043D01*
X145921955Y-92572967D01*
X145921959Y-92572970D01*
X146066294Y-92661998D01*
X146066297Y-92661999D01*
X146066303Y-92662003D01*
X146227292Y-92715349D01*
X146326655Y-92725500D01*
X146873344Y-92725499D01*
X146873352Y-92725498D01*
X146873355Y-92725498D01*
X146938288Y-92718865D01*
X146972708Y-92715349D01*
X147133697Y-92662003D01*
X147278044Y-92572968D01*
X147287319Y-92563693D01*
X147348642Y-92530208D01*
X147418334Y-92535192D01*
X147462681Y-92563693D01*
X147471955Y-92572967D01*
X147471959Y-92572970D01*
X147616294Y-92661998D01*
X147616297Y-92661999D01*
X147616303Y-92662003D01*
X147684790Y-92684697D01*
X147765693Y-92711506D01*
X147823138Y-92751279D01*
X147849961Y-92815795D01*
X147837646Y-92884571D01*
X147833422Y-92892332D01*
X147787130Y-92970608D01*
X147787129Y-92970611D01*
X147742335Y-93124791D01*
X147742334Y-93124797D01*
X147739500Y-93160811D01*
X147739500Y-93659169D01*
X147739501Y-93659191D01*
X147742335Y-93695205D01*
X147787570Y-93850905D01*
X147787371Y-93920775D01*
X147749429Y-93979445D01*
X147685790Y-94008288D01*
X147668494Y-94009500D01*
X147477272Y-94009500D01*
X147390393Y-94020938D01*
X147364764Y-94024313D01*
X147364762Y-94024313D01*
X147356708Y-94025374D01*
X147356316Y-94022399D01*
X147323684Y-94022399D01*
X147323292Y-94025374D01*
X147315237Y-94024313D01*
X147315236Y-94024313D01*
X147279164Y-94019564D01*
X147202727Y-94009500D01*
X147202720Y-94009500D01*
X146977280Y-94009500D01*
X146977272Y-94009500D01*
X146890393Y-94020938D01*
X146864764Y-94024313D01*
X146864762Y-94024313D01*
X146856708Y-94025374D01*
X146856316Y-94022399D01*
X146823684Y-94022399D01*
X146823292Y-94025374D01*
X146815237Y-94024313D01*
X146815236Y-94024313D01*
X146779164Y-94019564D01*
X146702727Y-94009500D01*
X146702720Y-94009500D01*
X146477280Y-94009500D01*
X146477272Y-94009500D01*
X146390393Y-94020938D01*
X146364764Y-94024313D01*
X146364762Y-94024313D01*
X146356708Y-94025374D01*
X146356316Y-94022399D01*
X146323684Y-94022399D01*
X146323292Y-94025374D01*
X146315237Y-94024313D01*
X146315236Y-94024313D01*
X146279164Y-94019564D01*
X146202727Y-94009500D01*
X146202720Y-94009500D01*
X145977280Y-94009500D01*
X145977272Y-94009500D01*
X145864764Y-94024313D01*
X145864763Y-94024313D01*
X145724770Y-94082300D01*
X145724767Y-94082301D01*
X145724767Y-94082302D01*
X145604549Y-94174549D01*
X145565454Y-94225499D01*
X145512300Y-94294770D01*
X145454313Y-94434763D01*
X145454313Y-94434764D01*
X145439500Y-94547272D01*
X145439500Y-95885500D01*
X145419815Y-95952539D01*
X145367011Y-95998294D01*
X145315500Y-96009500D01*
X143977272Y-96009500D01*
X143864766Y-96024312D01*
X143789532Y-96055475D01*
X143720062Y-96062943D01*
X143657583Y-96031667D01*
X143654399Y-96028594D01*
X143605692Y-95979887D01*
X143605684Y-95979881D01*
X143469768Y-95899501D01*
X143466395Y-95897506D01*
X143466394Y-95897505D01*
X143466393Y-95897505D01*
X143466390Y-95897504D01*
X143310997Y-95852357D01*
X143310991Y-95852356D01*
X143274697Y-95849500D01*
X143274690Y-95849500D01*
X142865310Y-95849500D01*
X142865302Y-95849500D01*
X142829008Y-95852356D01*
X142829002Y-95852357D01*
X142673609Y-95897504D01*
X142673606Y-95897505D01*
X142534315Y-95979881D01*
X142534307Y-95979887D01*
X142419887Y-96094307D01*
X142419881Y-96094315D01*
X142337505Y-96233606D01*
X142337504Y-96233609D01*
X142292357Y-96389002D01*
X142292356Y-96389008D01*
X142289500Y-96425302D01*
X142289500Y-96894697D01*
X142292356Y-96930991D01*
X142292357Y-96930997D01*
X142337504Y-97086390D01*
X142337505Y-97086393D01*
X142419881Y-97225684D01*
X142419887Y-97225692D01*
X142534307Y-97340112D01*
X142534311Y-97340115D01*
X142534313Y-97340117D01*
X142635583Y-97400008D01*
X142680320Y-97426465D01*
X142679205Y-97428349D01*
X142724322Y-97465893D01*
X142745340Y-97532526D01*
X142726997Y-97599945D01*
X142679747Y-97642566D01*
X142680320Y-97643535D01*
X142675538Y-97646362D01*
X142675116Y-97646744D01*
X142674140Y-97647189D01*
X142534315Y-97729881D01*
X142534307Y-97729887D01*
X142419887Y-97844307D01*
X142419881Y-97844315D01*
X142337505Y-97983606D01*
X142337504Y-97983609D01*
X142292357Y-98139002D01*
X142292356Y-98139008D01*
X142289500Y-98175302D01*
X142289500Y-98644697D01*
X142292356Y-98680991D01*
X142292357Y-98680997D01*
X142337504Y-98836390D01*
X142337505Y-98836393D01*
X142408139Y-98955830D01*
X142425322Y-99023554D01*
X142403162Y-99089817D01*
X142399992Y-99094127D01*
X142317505Y-99233606D01*
X142317504Y-99233609D01*
X142272357Y-99389002D01*
X142272356Y-99389008D01*
X142269500Y-99425302D01*
X140776123Y-99425302D01*
X140678728Y-99374427D01*
X140678727Y-99374426D01*
X140678726Y-99374426D01*
X140597139Y-99351081D01*
X140487985Y-99319849D01*
X140487982Y-99319848D01*
X140487980Y-99319848D01*
X140417017Y-99313539D01*
X140371586Y-99309500D01*
X138808414Y-99309500D01*
X138774340Y-99312529D01*
X138692019Y-99319848D01*
X138692016Y-99319848D01*
X138692015Y-99319849D01*
X138637438Y-99335465D01*
X138501273Y-99374426D01*
X138325422Y-99466283D01*
X138171659Y-99591659D01*
X138046283Y-99745422D01*
X137954426Y-99921273D01*
X137926214Y-100019873D01*
X137910898Y-100073402D01*
X137899849Y-100112016D01*
X137899848Y-100112019D01*
X137892529Y-100194340D01*
X137889743Y-100225687D01*
X137889500Y-100228417D01*
X129350500Y-100228417D01*
X129350500Y-96599983D01*
X132074500Y-96599983D01*
X132074500Y-97400001D01*
X132074501Y-97400019D01*
X132085000Y-97502796D01*
X132085001Y-97502799D01*
X132105675Y-97565187D01*
X132140186Y-97669334D01*
X132232288Y-97818656D01*
X132356344Y-97942712D01*
X132420543Y-97982310D01*
X132467268Y-98034258D01*
X132478489Y-98103221D01*
X132450646Y-98167303D01*
X132443128Y-98175530D01*
X132335585Y-98283073D01*
X132233768Y-98423211D01*
X132155128Y-98577552D01*
X132101597Y-98742302D01*
X132078959Y-98885236D01*
X132074500Y-98913389D01*
X132074500Y-99086611D01*
X132075720Y-99094313D01*
X132097781Y-99233606D01*
X132101598Y-99257701D01*
X132155127Y-99422445D01*
X132233768Y-99576788D01*
X132335586Y-99716928D01*
X132458072Y-99839414D01*
X132598212Y-99941232D01*
X132752555Y-100019873D01*
X132917299Y-100073402D01*
X133088389Y-100100500D01*
X133088390Y-100100500D01*
X133811610Y-100100500D01*
X133811611Y-100100500D01*
X133982701Y-100073402D01*
X134147445Y-100019873D01*
X134301788Y-99941232D01*
X134441928Y-99839414D01*
X134564414Y-99716928D01*
X134666232Y-99576788D01*
X134744873Y-99422445D01*
X134798402Y-99257701D01*
X134825500Y-99086611D01*
X134825500Y-98913389D01*
X134798402Y-98742299D01*
X134744873Y-98577555D01*
X134666232Y-98423212D01*
X134564414Y-98283072D01*
X134456872Y-98175530D01*
X134423387Y-98114207D01*
X134428371Y-98044515D01*
X134470243Y-97988582D01*
X134479457Y-97982310D01*
X134543656Y-97942712D01*
X134667712Y-97818656D01*
X134759814Y-97669334D01*
X134814999Y-97502797D01*
X134825500Y-97400009D01*
X134825499Y-96599992D01*
X134820114Y-96547280D01*
X134814999Y-96497203D01*
X134814998Y-96497200D01*
X134791173Y-96425302D01*
X134759814Y-96330666D01*
X134719507Y-96265317D01*
X134673521Y-96190761D01*
X134673520Y-96190760D01*
X134667714Y-96181346D01*
X134614785Y-96128417D01*
X137889500Y-96128417D01*
X137889500Y-97191582D01*
X137899848Y-97307980D01*
X137899848Y-97307982D01*
X137899849Y-97307985D01*
X137926178Y-97400001D01*
X137946349Y-97470499D01*
X137954427Y-97498728D01*
X138046284Y-97674579D01*
X138091377Y-97729881D01*
X138171659Y-97828340D01*
X138241437Y-97885236D01*
X138325421Y-97953716D01*
X138501272Y-98045573D01*
X138692015Y-98100151D01*
X138808414Y-98110500D01*
X138808420Y-98110500D01*
X140371580Y-98110500D01*
X140371586Y-98110500D01*
X140487985Y-98100151D01*
X140678728Y-98045573D01*
X140854579Y-97953716D01*
X141008340Y-97828340D01*
X141133716Y-97674579D01*
X141225573Y-97498728D01*
X141280151Y-97307985D01*
X141290500Y-97191586D01*
X141290500Y-96128414D01*
X141280151Y-96012015D01*
X141225573Y-95821272D01*
X141133716Y-95645421D01*
X141071028Y-95568540D01*
X141008340Y-95491659D01*
X140914052Y-95414778D01*
X140854579Y-95366284D01*
X140678728Y-95274427D01*
X140678727Y-95274426D01*
X140678726Y-95274426D01*
X140597139Y-95251081D01*
X140487985Y-95219849D01*
X140487982Y-95219848D01*
X140487980Y-95219848D01*
X140417017Y-95213539D01*
X140371586Y-95209500D01*
X138808414Y-95209500D01*
X138774340Y-95212529D01*
X138692019Y-95219848D01*
X138692016Y-95219848D01*
X138692015Y-95219849D01*
X138637438Y-95235465D01*
X138501273Y-95274426D01*
X138325422Y-95366283D01*
X138171659Y-95491659D01*
X138046283Y-95645422D01*
X137954426Y-95821273D01*
X137899849Y-96012016D01*
X137899848Y-96012019D01*
X137889500Y-96128417D01*
X134614785Y-96128417D01*
X134543657Y-96057289D01*
X134543656Y-96057288D01*
X134418159Y-95979881D01*
X134394336Y-95965187D01*
X134394331Y-95965185D01*
X134356168Y-95952539D01*
X134227797Y-95910001D01*
X134227795Y-95910000D01*
X134125010Y-95899500D01*
X132774998Y-95899500D01*
X132774981Y-95899501D01*
X132672203Y-95910000D01*
X132672200Y-95910001D01*
X132505668Y-95965185D01*
X132505663Y-95965187D01*
X132356342Y-96057289D01*
X132232289Y-96181342D01*
X132140187Y-96330663D01*
X132140186Y-96330666D01*
X132085001Y-96497203D01*
X132085001Y-96497204D01*
X132085000Y-96497204D01*
X132074500Y-96599983D01*
X129350500Y-96599983D01*
X129350500Y-93695035D01*
X129370185Y-93627996D01*
X129422989Y-93582241D01*
X129492147Y-93572297D01*
X129555703Y-93601322D01*
X129564221Y-93610315D01*
X129564366Y-93610171D01*
X129684307Y-93730112D01*
X129684311Y-93730115D01*
X129684313Y-93730117D01*
X129823605Y-93812494D01*
X129854180Y-93821377D01*
X129979002Y-93857642D01*
X129979005Y-93857642D01*
X129979007Y-93857643D01*
X130015310Y-93860500D01*
X130015318Y-93860500D01*
X130424682Y-93860500D01*
X130424690Y-93860500D01*
X130460993Y-93857643D01*
X130460995Y-93857642D01*
X130460997Y-93857642D01*
X130501975Y-93845736D01*
X130616395Y-93812494D01*
X130755687Y-93730117D01*
X130870117Y-93615687D01*
X130952494Y-93476395D01*
X130997643Y-93320993D01*
X131000500Y-93284690D01*
X131000500Y-92815310D01*
X130997643Y-92779007D01*
X130997642Y-92779005D01*
X130997642Y-92779002D01*
X130960197Y-92650118D01*
X130952494Y-92623605D01*
X130870117Y-92484313D01*
X130870114Y-92484310D01*
X130865334Y-92478147D01*
X130866727Y-92477066D01*
X130837880Y-92424237D01*
X130842864Y-92354545D01*
X130884736Y-92298612D01*
X130915713Y-92281697D01*
X130925486Y-92278052D01*
X131017331Y-92243796D01*
X131132546Y-92157546D01*
X131218796Y-92042331D01*
X131269091Y-91907483D01*
X131275500Y-91847873D01*
X131275499Y-91402128D01*
X131269091Y-91342517D01*
X131269090Y-91342515D01*
X131269090Y-91342512D01*
X131267308Y-91334969D01*
X131268773Y-91334622D01*
X131264409Y-91273651D01*
X131268819Y-91258633D01*
X131269089Y-91257488D01*
X131269088Y-91257488D01*
X131269091Y-91257483D01*
X131275500Y-91197873D01*
X131275499Y-90752128D01*
X131269091Y-90692517D01*
X131269031Y-90692357D01*
X131218797Y-90557671D01*
X131218793Y-90557664D01*
X131132547Y-90442455D01*
X131132546Y-90442454D01*
X131108442Y-90424410D01*
X131108250Y-90424266D01*
X131066379Y-90368334D01*
X131061395Y-90298642D01*
X131094880Y-90237319D01*
X131108251Y-90225733D01*
X131132546Y-90207546D01*
X131218796Y-90092331D01*
X131269091Y-89957483D01*
X131275500Y-89897873D01*
X131275499Y-89452128D01*
X131275499Y-89452127D01*
X132324500Y-89452127D01*
X132324500Y-89452134D01*
X132324500Y-89452135D01*
X132324500Y-89897870D01*
X132324501Y-89897876D01*
X132330908Y-89957479D01*
X132332692Y-89965026D01*
X132331229Y-89965371D01*
X132335585Y-90026371D01*
X132331173Y-90041396D01*
X132330908Y-90042517D01*
X132324501Y-90102117D01*
X132324500Y-90102136D01*
X132324500Y-90547870D01*
X132324501Y-90547876D01*
X132330908Y-90607479D01*
X132332692Y-90615026D01*
X132331229Y-90615371D01*
X132335585Y-90676371D01*
X132331173Y-90691396D01*
X132330908Y-90692517D01*
X132326263Y-90735730D01*
X132324501Y-90752123D01*
X132324500Y-90752136D01*
X132324500Y-91197870D01*
X132324501Y-91197876D01*
X132330908Y-91257479D01*
X132332692Y-91265026D01*
X132331229Y-91265371D01*
X132335585Y-91326371D01*
X132331173Y-91341396D01*
X132330908Y-91342517D01*
X132324501Y-91402117D01*
X132324501Y-91402123D01*
X132324500Y-91402136D01*
X132324500Y-91847870D01*
X132324501Y-91847876D01*
X132330908Y-91907483D01*
X132381202Y-92042328D01*
X132381206Y-92042335D01*
X132450358Y-92134709D01*
X132467454Y-92157546D01*
X132575471Y-92238407D01*
X132617341Y-92294340D01*
X132622325Y-92364032D01*
X132588841Y-92425354D01*
X132529884Y-92484311D01*
X132529881Y-92484315D01*
X132447505Y-92623606D01*
X132447504Y-92623609D01*
X132402357Y-92779002D01*
X132402356Y-92779008D01*
X132399500Y-92815302D01*
X132399500Y-93284697D01*
X132402356Y-93320991D01*
X132402357Y-93320997D01*
X132447504Y-93476390D01*
X132447505Y-93476393D01*
X132529881Y-93615684D01*
X132529887Y-93615692D01*
X132644307Y-93730112D01*
X132644311Y-93730115D01*
X132644313Y-93730117D01*
X132783605Y-93812494D01*
X132814180Y-93821377D01*
X132939002Y-93857642D01*
X132939005Y-93857642D01*
X132939007Y-93857643D01*
X132975310Y-93860500D01*
X132975318Y-93860500D01*
X133384682Y-93860500D01*
X133384690Y-93860500D01*
X133420993Y-93857643D01*
X133420995Y-93857642D01*
X133420997Y-93857642D01*
X133461975Y-93845736D01*
X133576395Y-93812494D01*
X133715687Y-93730117D01*
X133830117Y-93615687D01*
X133912494Y-93476395D01*
X133957643Y-93320993D01*
X133960500Y-93284690D01*
X133960500Y-92815310D01*
X133957643Y-92779007D01*
X133957642Y-92779005D01*
X133957642Y-92779002D01*
X133920067Y-92649670D01*
X133920266Y-92579801D01*
X133958208Y-92521131D01*
X134021846Y-92492287D01*
X134090976Y-92502428D01*
X134103284Y-92508954D01*
X134160394Y-92543478D01*
X134322804Y-92594086D01*
X134322808Y-92594086D01*
X134328898Y-92595984D01*
X134387046Y-92634722D01*
X134415020Y-92698747D01*
X134411085Y-92748963D01*
X134402357Y-92779005D01*
X134402356Y-92779008D01*
X134399500Y-92815302D01*
X134399500Y-93284697D01*
X134402356Y-93320991D01*
X134402357Y-93320997D01*
X134447504Y-93476390D01*
X134447505Y-93476393D01*
X134529881Y-93615684D01*
X134529887Y-93615692D01*
X134644307Y-93730112D01*
X134644311Y-93730115D01*
X134644313Y-93730117D01*
X134783605Y-93812494D01*
X134814180Y-93821377D01*
X134939002Y-93857642D01*
X134939005Y-93857642D01*
X134939007Y-93857643D01*
X134975310Y-93860500D01*
X134975318Y-93860500D01*
X135384682Y-93860500D01*
X135384690Y-93860500D01*
X135420993Y-93857643D01*
X135455216Y-93847700D01*
X135525083Y-93847899D01*
X135583754Y-93885840D01*
X135595349Y-93901679D01*
X135627029Y-93953040D01*
X135627032Y-93953044D01*
X135746955Y-94072967D01*
X135746959Y-94072970D01*
X135891294Y-94161998D01*
X135891297Y-94161999D01*
X135891303Y-94162003D01*
X136052292Y-94215349D01*
X136151655Y-94225500D01*
X136698344Y-94225499D01*
X136698352Y-94225498D01*
X136698355Y-94225498D01*
X136752760Y-94219940D01*
X136797708Y-94215349D01*
X136958697Y-94162003D01*
X137103044Y-94072968D01*
X137112319Y-94063693D01*
X137173642Y-94030208D01*
X137243334Y-94035192D01*
X137287681Y-94063693D01*
X137296955Y-94072967D01*
X137296959Y-94072970D01*
X137441294Y-94161998D01*
X137441297Y-94161999D01*
X137441303Y-94162003D01*
X137602292Y-94215349D01*
X137701655Y-94225500D01*
X138248344Y-94225499D01*
X138248352Y-94225498D01*
X138248355Y-94225498D01*
X138302760Y-94219940D01*
X138347708Y-94215349D01*
X138508697Y-94162003D01*
X138653044Y-94072968D01*
X138772968Y-93953044D01*
X138862003Y-93808697D01*
X138915349Y-93647708D01*
X138925500Y-93548345D01*
X138925499Y-92951656D01*
X138924246Y-92939393D01*
X138915349Y-92852292D01*
X138915348Y-92852289D01*
X138895358Y-92791963D01*
X138862003Y-92691303D01*
X138861999Y-92691297D01*
X138861998Y-92691294D01*
X138772970Y-92546959D01*
X138772967Y-92546955D01*
X138653044Y-92427032D01*
X138653040Y-92427029D01*
X138508705Y-92338001D01*
X138508699Y-92337998D01*
X138508697Y-92337997D01*
X138414324Y-92306725D01*
X138347709Y-92284651D01*
X138248346Y-92274500D01*
X137701662Y-92274500D01*
X137701644Y-92274501D01*
X137602292Y-92284650D01*
X137602289Y-92284651D01*
X137441305Y-92337996D01*
X137441294Y-92338001D01*
X137296959Y-92427029D01*
X137296955Y-92427032D01*
X137287681Y-92436307D01*
X137226358Y-92469792D01*
X137156666Y-92464808D01*
X137112319Y-92436307D01*
X137103044Y-92427032D01*
X137103040Y-92427029D01*
X136958705Y-92338001D01*
X136958699Y-92337998D01*
X136958697Y-92337997D01*
X136864324Y-92306725D01*
X136797709Y-92284651D01*
X136698346Y-92274500D01*
X136151662Y-92274500D01*
X136151644Y-92274501D01*
X136052292Y-92284650D01*
X136052289Y-92284651D01*
X135891305Y-92337996D01*
X135891298Y-92338000D01*
X135842696Y-92367977D01*
X135775303Y-92386416D01*
X135714480Y-92369169D01*
X135649514Y-92330748D01*
X135601830Y-92279679D01*
X135589327Y-92210937D01*
X135594248Y-92187133D01*
X135644086Y-92027196D01*
X135650500Y-91956616D01*
X135650500Y-91443384D01*
X135644086Y-91372804D01*
X135593478Y-91210394D01*
X135505472Y-91064815D01*
X135505470Y-91064813D01*
X135505469Y-91064811D01*
X135385188Y-90944530D01*
X135379344Y-90940997D01*
X135239606Y-90856522D01*
X135239603Y-90856521D01*
X135238935Y-90856117D01*
X135191747Y-90804589D01*
X135179909Y-90735730D01*
X135207178Y-90671401D01*
X135238935Y-90643883D01*
X135239603Y-90643478D01*
X135239606Y-90643478D01*
X135385185Y-90555472D01*
X135505472Y-90435185D01*
X135593478Y-90289606D01*
X135644086Y-90127196D01*
X135650500Y-90056616D01*
X135650500Y-89543384D01*
X135644086Y-89472804D01*
X135593478Y-89310394D01*
X135505472Y-89164815D01*
X135505470Y-89164813D01*
X135505469Y-89164811D01*
X135385188Y-89044530D01*
X135385185Y-89044528D01*
X135239606Y-88956522D01*
X135239604Y-88956521D01*
X135239602Y-88956520D01*
X135239603Y-88956520D01*
X135136158Y-88924286D01*
X135078010Y-88885549D01*
X135050036Y-88821524D01*
X135053971Y-88771308D01*
X135097643Y-88620993D01*
X135100500Y-88584690D01*
X135100500Y-88115310D01*
X135097643Y-88079007D01*
X135087293Y-88043384D01*
X135064400Y-87964587D01*
X135052494Y-87923605D01*
X135009938Y-87851647D01*
X135474500Y-87851647D01*
X135474500Y-88448337D01*
X135474501Y-88448355D01*
X135484650Y-88547707D01*
X135484651Y-88547710D01*
X135537996Y-88708694D01*
X135538001Y-88708705D01*
X135627029Y-88853040D01*
X135627032Y-88853044D01*
X135746955Y-88972967D01*
X135746959Y-88972970D01*
X135891294Y-89061998D01*
X135891297Y-89061999D01*
X135891303Y-89062003D01*
X136052292Y-89115349D01*
X136151655Y-89125500D01*
X136698344Y-89125499D01*
X136698352Y-89125498D01*
X136698355Y-89125498D01*
X136752760Y-89119940D01*
X136797708Y-89115349D01*
X136958697Y-89062003D01*
X137103044Y-88972968D01*
X137112319Y-88963693D01*
X137173642Y-88930208D01*
X137243334Y-88935192D01*
X137287681Y-88963693D01*
X137296955Y-88972967D01*
X137296959Y-88972970D01*
X137441294Y-89061998D01*
X137441297Y-89061999D01*
X137441303Y-89062003D01*
X137602292Y-89115349D01*
X137701655Y-89125500D01*
X138248344Y-89125499D01*
X138248352Y-89125498D01*
X138248355Y-89125498D01*
X138302760Y-89119940D01*
X138347708Y-89115349D01*
X138508697Y-89062003D01*
X138653044Y-88972968D01*
X138772968Y-88853044D01*
X138862003Y-88708697D01*
X138915349Y-88547708D01*
X138925500Y-88448345D01*
X138925499Y-88002127D01*
X139574500Y-88002127D01*
X139574500Y-88002134D01*
X139574500Y-88002135D01*
X139574500Y-88447870D01*
X139574501Y-88447876D01*
X139580908Y-88507483D01*
X139631202Y-88642328D01*
X139631206Y-88642335D01*
X139717452Y-88757544D01*
X139717453Y-88757544D01*
X139717454Y-88757546D01*
X139735834Y-88771305D01*
X139741750Y-88775734D01*
X139783620Y-88831668D01*
X139788604Y-88901360D01*
X139755118Y-88962683D01*
X139741750Y-88974266D01*
X139717452Y-88992455D01*
X139631206Y-89107664D01*
X139631202Y-89107671D01*
X139583440Y-89235730D01*
X139580909Y-89242517D01*
X139574500Y-89302127D01*
X139574500Y-89302134D01*
X139574500Y-89302135D01*
X139574500Y-89747870D01*
X139574501Y-89747876D01*
X139580908Y-89807479D01*
X139582692Y-89815026D01*
X139581229Y-89815371D01*
X139585585Y-89876371D01*
X139581173Y-89891396D01*
X139580908Y-89892517D01*
X139575696Y-89940999D01*
X139574501Y-89952123D01*
X139574500Y-89952136D01*
X139574500Y-90397870D01*
X139574501Y-90397876D01*
X139580908Y-90457483D01*
X139631202Y-90592328D01*
X139631206Y-90592335D01*
X139717452Y-90707544D01*
X139717455Y-90707547D01*
X139832664Y-90793793D01*
X139832671Y-90793797D01*
X139967517Y-90844091D01*
X139967516Y-90844091D01*
X139973228Y-90844705D01*
X140027127Y-90850500D01*
X140562056Y-90850499D01*
X140629094Y-90870183D01*
X140674849Y-90922987D01*
X140684793Y-90992146D01*
X140668788Y-91037619D01*
X140647504Y-91073608D01*
X140647504Y-91073609D01*
X140602357Y-91229002D01*
X140602356Y-91229008D01*
X140599500Y-91265302D01*
X140599500Y-91734697D01*
X140602356Y-91770991D01*
X140602357Y-91770997D01*
X140647504Y-91926390D01*
X140647505Y-91926393D01*
X140729881Y-92065684D01*
X140729887Y-92065692D01*
X140844307Y-92180112D01*
X140844311Y-92180115D01*
X140844313Y-92180117D01*
X140983605Y-92262494D01*
X141001008Y-92267550D01*
X141139002Y-92307642D01*
X141139005Y-92307642D01*
X141139007Y-92307643D01*
X141175310Y-92310500D01*
X141175318Y-92310500D01*
X141584682Y-92310500D01*
X141584690Y-92310500D01*
X141620993Y-92307643D01*
X141620995Y-92307642D01*
X141620997Y-92307642D01*
X141700134Y-92284650D01*
X141776395Y-92262494D01*
X141915687Y-92180117D01*
X142030117Y-92065687D01*
X142112494Y-91926395D01*
X142150578Y-91795310D01*
X142157642Y-91770997D01*
X142157643Y-91770991D01*
X142157730Y-91769883D01*
X142160500Y-91734690D01*
X142160500Y-91265310D01*
X142157643Y-91229007D01*
X142157642Y-91229005D01*
X142157642Y-91229002D01*
X142115525Y-91084037D01*
X142112494Y-91073605D01*
X142030117Y-90934313D01*
X142030115Y-90934311D01*
X142030112Y-90934307D01*
X141915692Y-90819887D01*
X141915684Y-90819881D01*
X141776393Y-90737505D01*
X141776390Y-90737504D01*
X141620997Y-90692357D01*
X141620991Y-90692356D01*
X141584697Y-90689500D01*
X141584690Y-90689500D01*
X141511148Y-90689500D01*
X141444109Y-90669815D01*
X141398354Y-90617011D01*
X141388410Y-90547853D01*
X141394966Y-90522167D01*
X141404207Y-90497388D01*
X141419091Y-90457483D01*
X141425500Y-90397873D01*
X141425499Y-89952128D01*
X141419091Y-89892517D01*
X141419090Y-89892515D01*
X141419090Y-89892512D01*
X141417308Y-89884969D01*
X141418773Y-89884622D01*
X141414409Y-89823651D01*
X141418819Y-89808633D01*
X141419089Y-89807488D01*
X141419088Y-89807488D01*
X141419091Y-89807483D01*
X141425500Y-89747873D01*
X141425499Y-89302128D01*
X141419091Y-89242517D01*
X141416423Y-89235365D01*
X141368797Y-89107671D01*
X141368793Y-89107664D01*
X141282547Y-88992455D01*
X141282546Y-88992454D01*
X141279440Y-88990129D01*
X141258250Y-88974266D01*
X141216379Y-88918334D01*
X141211395Y-88848642D01*
X141244880Y-88787319D01*
X141258251Y-88775733D01*
X141264166Y-88771305D01*
X141282546Y-88757546D01*
X141368796Y-88642331D01*
X141419091Y-88507483D01*
X141425500Y-88447873D01*
X141425499Y-88002128D01*
X141419091Y-87942517D01*
X141412037Y-87923605D01*
X141368797Y-87807671D01*
X141368793Y-87807664D01*
X141282547Y-87692455D01*
X141282544Y-87692452D01*
X141167335Y-87606206D01*
X141167328Y-87606202D01*
X141032482Y-87555908D01*
X141032483Y-87555908D01*
X140972883Y-87549501D01*
X140972881Y-87549500D01*
X140972873Y-87549500D01*
X140972864Y-87549500D01*
X140027129Y-87549500D01*
X140027123Y-87549501D01*
X139967516Y-87555908D01*
X139832671Y-87606202D01*
X139832664Y-87606206D01*
X139717455Y-87692452D01*
X139717452Y-87692455D01*
X139631206Y-87807664D01*
X139631202Y-87807671D01*
X139587962Y-87923606D01*
X139580909Y-87942517D01*
X139574500Y-88002127D01*
X138925499Y-88002127D01*
X138925499Y-87851656D01*
X138915349Y-87752292D01*
X138862003Y-87591303D01*
X138861999Y-87591297D01*
X138861998Y-87591294D01*
X138772970Y-87446959D01*
X138772967Y-87446955D01*
X138653044Y-87327032D01*
X138653040Y-87327029D01*
X138508705Y-87238001D01*
X138508699Y-87237998D01*
X138508697Y-87237997D01*
X138508694Y-87237996D01*
X138347709Y-87184651D01*
X138248346Y-87174500D01*
X137701662Y-87174500D01*
X137701644Y-87174501D01*
X137602292Y-87184650D01*
X137602289Y-87184651D01*
X137441305Y-87237996D01*
X137441294Y-87238001D01*
X137296959Y-87327029D01*
X137296955Y-87327032D01*
X137287681Y-87336307D01*
X137226358Y-87369792D01*
X137156666Y-87364808D01*
X137112319Y-87336307D01*
X137103044Y-87327032D01*
X137103040Y-87327029D01*
X136958705Y-87238001D01*
X136958699Y-87237998D01*
X136958697Y-87237997D01*
X136958694Y-87237996D01*
X136797709Y-87184651D01*
X136698346Y-87174500D01*
X136151662Y-87174500D01*
X136151644Y-87174501D01*
X136052292Y-87184650D01*
X136052289Y-87184651D01*
X135891305Y-87237996D01*
X135891294Y-87238001D01*
X135746959Y-87327029D01*
X135746955Y-87327032D01*
X135627032Y-87446955D01*
X135627029Y-87446959D01*
X135538001Y-87591294D01*
X135537996Y-87591305D01*
X135484651Y-87752290D01*
X135474500Y-87851647D01*
X135009938Y-87851647D01*
X134970117Y-87784313D01*
X134970115Y-87784311D01*
X134970112Y-87784307D01*
X134855692Y-87669887D01*
X134855684Y-87669881D01*
X134748015Y-87606206D01*
X134716395Y-87587506D01*
X134716394Y-87587505D01*
X134716393Y-87587505D01*
X134716390Y-87587504D01*
X134560997Y-87542357D01*
X134560991Y-87542356D01*
X134524697Y-87539500D01*
X134524690Y-87539500D01*
X134115310Y-87539500D01*
X134115302Y-87539500D01*
X134079008Y-87542356D01*
X134079002Y-87542357D01*
X133923609Y-87587504D01*
X133923606Y-87587505D01*
X133784315Y-87669881D01*
X133784307Y-87669887D01*
X133669887Y-87784307D01*
X133669881Y-87784315D01*
X133587505Y-87923606D01*
X133587504Y-87923609D01*
X133542357Y-88079002D01*
X133542356Y-88079008D01*
X133539500Y-88115302D01*
X133539500Y-88584697D01*
X133542356Y-88620991D01*
X133542357Y-88620997D01*
X133587504Y-88776390D01*
X133587505Y-88776393D01*
X133587506Y-88776395D01*
X133595319Y-88789606D01*
X133608787Y-88812379D01*
X133625970Y-88880103D01*
X133603810Y-88946366D01*
X133549344Y-88990129D01*
X133502055Y-88999500D01*
X132777129Y-88999500D01*
X132777123Y-88999501D01*
X132717516Y-89005908D01*
X132582671Y-89056202D01*
X132582664Y-89056206D01*
X132467455Y-89142452D01*
X132467452Y-89142455D01*
X132381206Y-89257664D01*
X132381202Y-89257671D01*
X132330910Y-89392513D01*
X132330909Y-89392517D01*
X132324500Y-89452127D01*
X131275499Y-89452127D01*
X131269091Y-89392517D01*
X131266174Y-89384697D01*
X131218797Y-89257671D01*
X131218793Y-89257664D01*
X131132547Y-89142455D01*
X131132544Y-89142452D01*
X131017335Y-89056206D01*
X131017328Y-89056202D01*
X130882482Y-89005908D01*
X130882483Y-89005908D01*
X130822883Y-88999501D01*
X130822881Y-88999500D01*
X130822873Y-88999500D01*
X130822864Y-88999500D01*
X129877129Y-88999500D01*
X129877123Y-88999501D01*
X129817516Y-89005908D01*
X129682671Y-89056202D01*
X129682664Y-89056206D01*
X129567455Y-89142452D01*
X129562181Y-89147727D01*
X129500858Y-89181212D01*
X129431166Y-89176228D01*
X129375233Y-89134356D01*
X129350816Y-89068892D01*
X129350500Y-89060046D01*
X129350500Y-81608676D01*
X129370185Y-81541637D01*
X129386819Y-81520995D01*
X129781284Y-81126530D01*
X141389500Y-81126530D01*
X141389500Y-81333469D01*
X141429868Y-81536412D01*
X141429871Y-81536424D01*
X141454548Y-81595999D01*
X141462017Y-81665468D01*
X141448823Y-81702871D01*
X141446204Y-81707666D01*
X141395908Y-81842517D01*
X141389501Y-81902116D01*
X141389500Y-81902135D01*
X141389500Y-83097870D01*
X141389501Y-83097876D01*
X141395908Y-83157483D01*
X141446202Y-83292328D01*
X141446206Y-83292335D01*
X141532452Y-83407544D01*
X141532455Y-83407547D01*
X141647664Y-83493793D01*
X141647671Y-83493797D01*
X141782517Y-83544091D01*
X141782516Y-83544091D01*
X141789444Y-83544835D01*
X141842127Y-83550500D01*
X143037872Y-83550499D01*
X143097483Y-83544091D01*
X143232331Y-83493796D01*
X143347546Y-83407546D01*
X143433796Y-83292331D01*
X143484091Y-83157483D01*
X143490500Y-83097873D01*
X143490499Y-82404499D01*
X143510183Y-82337461D01*
X143562987Y-82291706D01*
X143614499Y-82280500D01*
X143805500Y-82280500D01*
X143872539Y-82300185D01*
X143918294Y-82352989D01*
X143929500Y-82404500D01*
X143929500Y-82603469D01*
X143969868Y-82806412D01*
X143969870Y-82806420D01*
X144049058Y-82997596D01*
X144164024Y-83169657D01*
X144310342Y-83315975D01*
X144310345Y-83315977D01*
X144482402Y-83430941D01*
X144673580Y-83510130D01*
X144844315Y-83544091D01*
X144876530Y-83550499D01*
X144876534Y-83550500D01*
X144876535Y-83550500D01*
X145083466Y-83550500D01*
X145083467Y-83550499D01*
X145286420Y-83510130D01*
X145477598Y-83430941D01*
X145546111Y-83385162D01*
X145612785Y-83364285D01*
X145680166Y-83382769D01*
X145683848Y-83385134D01*
X145752402Y-83430941D01*
X145943580Y-83510130D01*
X146114315Y-83544091D01*
X146146530Y-83550499D01*
X146146534Y-83550500D01*
X146146535Y-83550500D01*
X146353466Y-83550500D01*
X146353467Y-83550499D01*
X146556420Y-83510130D01*
X146747598Y-83430941D01*
X146747599Y-83430940D01*
X146747600Y-83430940D01*
X146757636Y-83424234D01*
X153644500Y-83424234D01*
X153644500Y-83575766D01*
X153658575Y-83628294D01*
X153683719Y-83722136D01*
X153710347Y-83768256D01*
X153759485Y-83853365D01*
X153759487Y-83853367D01*
X153866636Y-83960516D01*
X153869594Y-83962786D01*
X153871455Y-83965335D01*
X153872382Y-83966262D01*
X153872237Y-83966406D01*
X153910796Y-84019214D01*
X153914949Y-84088960D01*
X153908896Y-84107394D01*
X153862402Y-84267426D01*
X153862401Y-84267432D01*
X153859500Y-84304298D01*
X153859500Y-85585701D01*
X153862401Y-85622567D01*
X153862402Y-85622573D01*
X153908254Y-85780393D01*
X153908255Y-85780396D01*
X153908256Y-85780398D01*
X153945681Y-85843681D01*
X153991917Y-85921862D01*
X153991923Y-85921870D01*
X154108129Y-86038076D01*
X154108133Y-86038079D01*
X154108135Y-86038081D01*
X154249602Y-86121744D01*
X154291224Y-86133836D01*
X154407426Y-86167597D01*
X154407429Y-86167597D01*
X154407431Y-86167598D01*
X154444306Y-86170500D01*
X154444314Y-86170500D01*
X154875686Y-86170500D01*
X154875694Y-86170500D01*
X154912569Y-86167598D01*
X155018249Y-86136894D01*
X155088114Y-86137093D01*
X155100286Y-86141405D01*
X155134764Y-86155687D01*
X155241586Y-86169750D01*
X155247264Y-86170498D01*
X155247280Y-86170500D01*
X155247287Y-86170500D01*
X155472713Y-86170500D01*
X155472720Y-86170500D01*
X155585236Y-86155687D01*
X155725233Y-86097698D01*
X155784514Y-86052209D01*
X155849683Y-86027016D01*
X155918127Y-86041054D01*
X155935482Y-86052206D01*
X155994767Y-86097698D01*
X156134764Y-86155687D01*
X156241586Y-86169750D01*
X156247264Y-86170498D01*
X156247280Y-86170500D01*
X156247287Y-86170500D01*
X156472713Y-86170500D01*
X156472720Y-86170500D01*
X156585236Y-86155687D01*
X156585236Y-86155686D01*
X156593295Y-86154626D01*
X156593698Y-86157689D01*
X156626302Y-86157689D01*
X156626705Y-86154626D01*
X156634763Y-86155686D01*
X156634764Y-86155687D01*
X156747280Y-86170500D01*
X156747287Y-86170500D01*
X156972713Y-86170500D01*
X156972720Y-86170500D01*
X157085236Y-86155687D01*
X157085236Y-86155686D01*
X157093295Y-86154626D01*
X157093698Y-86157689D01*
X157126302Y-86157689D01*
X157126705Y-86154626D01*
X157134763Y-86155686D01*
X157134764Y-86155687D01*
X157247280Y-86170500D01*
X157247287Y-86170500D01*
X157472713Y-86170500D01*
X157472720Y-86170500D01*
X157585236Y-86155687D01*
X157585236Y-86155686D01*
X157593295Y-86154626D01*
X157593698Y-86157689D01*
X157626302Y-86157689D01*
X157626705Y-86154626D01*
X157634763Y-86155686D01*
X157634764Y-86155687D01*
X157747280Y-86170500D01*
X157747287Y-86170500D01*
X157972713Y-86170500D01*
X157972720Y-86170500D01*
X158085236Y-86155687D01*
X158085236Y-86155686D01*
X158093295Y-86154626D01*
X158093698Y-86157689D01*
X158126302Y-86157689D01*
X158126705Y-86154626D01*
X158134763Y-86155686D01*
X158134764Y-86155687D01*
X158247280Y-86170500D01*
X158247287Y-86170500D01*
X158472713Y-86170500D01*
X158472720Y-86170500D01*
X158585236Y-86155687D01*
X158725233Y-86097698D01*
X158832766Y-86015183D01*
X158897933Y-85989990D01*
X158966377Y-86004028D01*
X158995932Y-86025879D01*
X159008129Y-86038076D01*
X159008133Y-86038079D01*
X159008135Y-86038081D01*
X159149602Y-86121744D01*
X159191224Y-86133836D01*
X159307426Y-86167597D01*
X159307429Y-86167597D01*
X159307431Y-86167598D01*
X159344306Y-86170500D01*
X159344314Y-86170500D01*
X159775686Y-86170500D01*
X159775694Y-86170500D01*
X159812569Y-86167598D01*
X159812571Y-86167597D01*
X159812573Y-86167597D01*
X159902711Y-86141409D01*
X159970398Y-86121744D01*
X160111865Y-86038081D01*
X160228081Y-85921865D01*
X160311744Y-85780398D01*
X160357598Y-85622569D01*
X160360500Y-85585694D01*
X160360500Y-84304306D01*
X160357598Y-84267431D01*
X160357597Y-84267426D01*
X160309568Y-84102110D01*
X160311019Y-84101688D01*
X160303530Y-84041078D01*
X160333812Y-83978112D01*
X160350410Y-83962782D01*
X160353358Y-83960518D01*
X160353365Y-83960515D01*
X160460515Y-83853365D01*
X160536281Y-83722135D01*
X160575500Y-83575766D01*
X160575500Y-83424234D01*
X160536281Y-83277865D01*
X160460515Y-83146635D01*
X160353365Y-83039485D01*
X160280815Y-82997598D01*
X160222136Y-82963719D01*
X160148950Y-82944109D01*
X160075766Y-82924500D01*
X159924234Y-82924500D01*
X159777863Y-82963719D01*
X159646635Y-83039485D01*
X159646632Y-83039487D01*
X159539487Y-83146632D01*
X159539485Y-83146635D01*
X159463719Y-83277863D01*
X159424500Y-83424234D01*
X159424500Y-83575767D01*
X159425351Y-83582233D01*
X159414582Y-83651268D01*
X159368200Y-83703521D01*
X159312143Y-83722030D01*
X159307441Y-83722400D01*
X159307426Y-83722402D01*
X159149606Y-83768254D01*
X159149603Y-83768255D01*
X159008140Y-83851915D01*
X159008134Y-83851920D01*
X158995931Y-83864123D01*
X158934607Y-83897606D01*
X158864915Y-83892620D01*
X158832766Y-83874815D01*
X158725233Y-83792302D01*
X158725230Y-83792300D01*
X158632622Y-83753941D01*
X158585236Y-83734313D01*
X158570698Y-83732399D01*
X158472727Y-83719500D01*
X158472720Y-83719500D01*
X158247280Y-83719500D01*
X158247272Y-83719500D01*
X158160393Y-83730938D01*
X158134764Y-83734313D01*
X158134762Y-83734313D01*
X158126708Y-83735374D01*
X158126316Y-83732399D01*
X158093684Y-83732399D01*
X158093292Y-83735374D01*
X158085237Y-83734313D01*
X158085236Y-83734313D01*
X158056271Y-83730499D01*
X157972727Y-83719500D01*
X157972720Y-83719500D01*
X157747280Y-83719500D01*
X157747272Y-83719500D01*
X157660393Y-83730938D01*
X157634764Y-83734313D01*
X157634762Y-83734313D01*
X157626708Y-83735374D01*
X157626316Y-83732399D01*
X157593684Y-83732399D01*
X157593292Y-83735374D01*
X157585237Y-83734313D01*
X157585236Y-83734313D01*
X157556271Y-83730499D01*
X157472727Y-83719500D01*
X157472720Y-83719500D01*
X157247280Y-83719500D01*
X157247272Y-83719500D01*
X157160393Y-83730938D01*
X157134764Y-83734313D01*
X157134762Y-83734313D01*
X157126708Y-83735374D01*
X157126316Y-83732399D01*
X157093684Y-83732399D01*
X157093292Y-83735374D01*
X157085237Y-83734313D01*
X157085236Y-83734313D01*
X157056271Y-83730499D01*
X156972727Y-83719500D01*
X156972720Y-83719500D01*
X156747280Y-83719500D01*
X156747272Y-83719500D01*
X156660393Y-83730938D01*
X156634764Y-83734313D01*
X156634762Y-83734313D01*
X156626708Y-83735374D01*
X156626316Y-83732399D01*
X156593684Y-83732399D01*
X156593292Y-83735374D01*
X156585237Y-83734313D01*
X156585236Y-83734313D01*
X156556271Y-83730499D01*
X156472727Y-83719500D01*
X156472720Y-83719500D01*
X156247280Y-83719500D01*
X156247272Y-83719500D01*
X156134764Y-83734313D01*
X156134763Y-83734313D01*
X155994769Y-83792300D01*
X155969291Y-83811850D01*
X155935485Y-83837790D01*
X155870317Y-83862984D01*
X155801873Y-83848946D01*
X155784517Y-83837793D01*
X155725233Y-83792302D01*
X155725232Y-83792301D01*
X155725230Y-83792300D01*
X155632622Y-83753941D01*
X155585236Y-83734313D01*
X155570698Y-83732399D01*
X155472727Y-83719500D01*
X155472720Y-83719500D01*
X155247280Y-83719500D01*
X155247272Y-83719500D01*
X155134764Y-83734313D01*
X155134760Y-83734314D01*
X155100295Y-83748590D01*
X155030825Y-83756059D01*
X155021267Y-83753941D01*
X155019759Y-83753543D01*
X154912569Y-83722402D01*
X154896774Y-83721158D01*
X154886012Y-83718325D01*
X154865240Y-83705787D01*
X154842569Y-83697145D01*
X154835865Y-83688055D01*
X154826195Y-83682218D01*
X154815498Y-83660438D01*
X154801099Y-83640913D01*
X154799712Y-83628294D01*
X154795395Y-83619504D01*
X154797109Y-83604615D01*
X154794649Y-83582224D01*
X154795498Y-83575770D01*
X154795500Y-83575766D01*
X154795500Y-83424234D01*
X154756281Y-83277865D01*
X154680515Y-83146635D01*
X154573365Y-83039485D01*
X154500815Y-82997598D01*
X154442136Y-82963719D01*
X154368950Y-82944109D01*
X154295766Y-82924500D01*
X154144234Y-82924500D01*
X153997863Y-82963719D01*
X153866635Y-83039485D01*
X153866632Y-83039487D01*
X153759487Y-83146632D01*
X153759485Y-83146635D01*
X153683719Y-83277863D01*
X153660563Y-83364285D01*
X153644500Y-83424234D01*
X146757636Y-83424234D01*
X146919652Y-83315979D01*
X146919651Y-83315979D01*
X146919655Y-83315977D01*
X147065977Y-83169655D01*
X147180941Y-82997598D01*
X147260130Y-82806420D01*
X147300500Y-82603465D01*
X147300500Y-82404500D01*
X147320185Y-82337461D01*
X147372989Y-82291706D01*
X147424500Y-82280500D01*
X147623466Y-82280500D01*
X147623467Y-82280499D01*
X147826420Y-82240130D01*
X148017598Y-82160941D01*
X148189655Y-82045977D01*
X148335977Y-81899655D01*
X148450941Y-81727598D01*
X148530130Y-81536420D01*
X148570500Y-81333465D01*
X148570500Y-81126535D01*
X148530130Y-80923580D01*
X148450941Y-80732402D01*
X148335977Y-80560345D01*
X148335975Y-80560342D01*
X148189657Y-80414024D01*
X148086109Y-80344836D01*
X148017598Y-80299059D01*
X147826420Y-80219870D01*
X147826412Y-80219868D01*
X147623469Y-80179500D01*
X147623465Y-80179500D01*
X147416535Y-80179500D01*
X147416530Y-80179500D01*
X147213587Y-80219868D01*
X147213579Y-80219870D01*
X147022400Y-80299059D01*
X146953889Y-80344836D01*
X146887211Y-80365713D01*
X146819832Y-80347227D01*
X146816111Y-80344836D01*
X146747599Y-80299059D01*
X146556420Y-80219870D01*
X146556412Y-80219868D01*
X146353469Y-80179500D01*
X146353465Y-80179500D01*
X146146535Y-80179500D01*
X146146530Y-80179500D01*
X145943587Y-80219868D01*
X145943579Y-80219870D01*
X145752400Y-80299059D01*
X145683889Y-80344836D01*
X145617211Y-80365713D01*
X145549832Y-80347227D01*
X145546111Y-80344836D01*
X145477599Y-80299059D01*
X145286420Y-80219870D01*
X145286412Y-80219868D01*
X145083469Y-80179500D01*
X145083465Y-80179500D01*
X144876535Y-80179500D01*
X144876530Y-80179500D01*
X144673587Y-80219868D01*
X144673579Y-80219870D01*
X144482400Y-80299059D01*
X144413889Y-80344836D01*
X144347211Y-80365713D01*
X144279832Y-80347227D01*
X144276111Y-80344836D01*
X144207599Y-80299059D01*
X144016420Y-80219870D01*
X144016412Y-80219868D01*
X143813469Y-80179500D01*
X143813465Y-80179500D01*
X143606535Y-80179500D01*
X143606530Y-80179500D01*
X143403587Y-80219868D01*
X143403579Y-80219870D01*
X143212400Y-80299059D01*
X143143889Y-80344836D01*
X143077211Y-80365713D01*
X143009832Y-80347227D01*
X143006111Y-80344836D01*
X142937599Y-80299059D01*
X142746420Y-80219870D01*
X142746412Y-80219868D01*
X142543469Y-80179500D01*
X142543465Y-80179500D01*
X142336535Y-80179500D01*
X142336530Y-80179500D01*
X142133587Y-80219868D01*
X142133579Y-80219870D01*
X141942403Y-80299058D01*
X141770342Y-80414024D01*
X141624024Y-80560342D01*
X141509058Y-80732403D01*
X141429870Y-80923579D01*
X141429868Y-80923587D01*
X141389500Y-81126530D01*
X129781284Y-81126530D01*
X131520995Y-79386819D01*
X131582318Y-79353334D01*
X131608676Y-79350500D01*
X168391324Y-79350500D01*
X168458363Y-79370185D01*
G37*
%TD.AperFunction*%
%TA.AperFunction,Conductor*%
G36*
X166921804Y-103268183D02*
G01*
X166944486Y-103271378D01*
X166958933Y-103281378D01*
X166966058Y-103283910D01*
X166970049Y-103289072D01*
X166980982Y-103296640D01*
X167089811Y-103405469D01*
X167089813Y-103405470D01*
X167089815Y-103405472D01*
X167235394Y-103493478D01*
X167397804Y-103544086D01*
X167468384Y-103550500D01*
X167468387Y-103550500D01*
X168131613Y-103550500D01*
X168131616Y-103550500D01*
X168202196Y-103544086D01*
X168364606Y-103493478D01*
X168501003Y-103411022D01*
X168568556Y-103393186D01*
X168635030Y-103414703D01*
X168679318Y-103468743D01*
X168687359Y-103538149D01*
X168670691Y-103582236D01*
X168587998Y-103716300D01*
X168587996Y-103716305D01*
X168534651Y-103877290D01*
X168524500Y-103976647D01*
X168524500Y-104523337D01*
X168524501Y-104523355D01*
X168534650Y-104622707D01*
X168534651Y-104622710D01*
X168555788Y-104686496D01*
X168558190Y-104756324D01*
X168522458Y-104816366D01*
X168459938Y-104847559D01*
X168438082Y-104849500D01*
X168361155Y-104849500D01*
X168206510Y-104880261D01*
X168206498Y-104880264D01*
X168060827Y-104940602D01*
X168060814Y-104940609D01*
X167929711Y-105028210D01*
X167929707Y-105028213D01*
X167887681Y-105070240D01*
X167826358Y-105103725D01*
X167756666Y-105098741D01*
X167712319Y-105070240D01*
X167670292Y-105028213D01*
X167670288Y-105028210D01*
X167539185Y-104940609D01*
X167539172Y-104940602D01*
X167393501Y-104880264D01*
X167393489Y-104880261D01*
X167238845Y-104849500D01*
X167238842Y-104849500D01*
X167081158Y-104849500D01*
X167081155Y-104849500D01*
X166926510Y-104880261D01*
X166926498Y-104880264D01*
X166780827Y-104940602D01*
X166780814Y-104940609D01*
X166649711Y-105028210D01*
X166649707Y-105028213D01*
X166612681Y-105065240D01*
X166551358Y-105098725D01*
X166481666Y-105093741D01*
X166449668Y-105076053D01*
X166443131Y-105071053D01*
X166400289Y-105028211D01*
X166296063Y-104958569D01*
X166292913Y-104956160D01*
X166274516Y-104931047D01*
X166254549Y-104907156D01*
X166254039Y-104903096D01*
X166251622Y-104899797D01*
X166249722Y-104868725D01*
X166245842Y-104837831D01*
X166247607Y-104834140D01*
X166247358Y-104830057D01*
X166262556Y-104802893D01*
X166275996Y-104774803D01*
X166279509Y-104772596D01*
X166281475Y-104769083D01*
X166305353Y-104756363D01*
X166333648Y-104738590D01*
X166439393Y-104707869D01*
X166577598Y-104626135D01*
X166691135Y-104512598D01*
X166772869Y-104374393D01*
X166817665Y-104220204D01*
X166820500Y-104184181D01*
X166820499Y-103785820D01*
X166817665Y-103749796D01*
X166772869Y-103595607D01*
X166738869Y-103538117D01*
X166721688Y-103470398D01*
X166735859Y-103417274D01*
X166737289Y-103414554D01*
X166772869Y-103354393D01*
X166777722Y-103337686D01*
X166783557Y-103326595D01*
X166799499Y-103310148D01*
X166811827Y-103290844D01*
X166823355Y-103285538D01*
X166832188Y-103276427D01*
X166854492Y-103271210D01*
X166875299Y-103261635D01*
X166887863Y-103263404D01*
X166900221Y-103260514D01*
X166921804Y-103268183D01*
G37*
%TD.AperFunction*%
%TD*%
M02*
