%TF.GenerationSoftware,KiCad,Pcbnew,10.0.0*%
%TF.CreationDate,2026-07-13T13:08:28+10:00*%
%TF.ProjectId,Active-Damper-Slave,41637469-7665-42d4-9461-6d7065722d53,rev?*%
%TF.SameCoordinates,Original*%
%TF.FileFunction,Soldermask,Top*%
%TF.FilePolarity,Negative*%
%FSLAX46Y46*%
G04 Gerber Fmt 4.6, Leading zero omitted, Abs format (unit mm)*
G04 Created by KiCad (PCBNEW 10.0.0) date 2026-07-13 13:08:28*
%MOMM*%
%LPD*%
G01*
G04 APERTURE LIST*
G04 Aperture macros list*
%AMRoundRect*
0 Rectangle with rounded corners*
0 $1 Rounding radius*
0 $2 $3 $4 $5 $6 $7 $8 $9 X,Y pos of 4 corners*
0 Add a 4 corners polygon primitive as box body*
4,1,4,$2,$3,$4,$5,$6,$7,$8,$9,$2,$3,0*
0 Add four circle primitives for the rounded corners*
1,1,$1+$1,$2,$3*
1,1,$1+$1,$4,$5*
1,1,$1+$1,$6,$7*
1,1,$1+$1,$8,$9*
0 Add four rect primitives between the rounded corners*
20,1,$1+$1,$2,$3,$4,$5,0*
20,1,$1+$1,$4,$5,$6,$7,0*
20,1,$1+$1,$6,$7,$8,$9,0*
20,1,$1+$1,$8,$9,$2,$3,0*%
G04 Aperture macros list end*
%ADD10RoundRect,0.250000X-0.625000X0.350000X-0.625000X-0.350000X0.625000X-0.350000X0.625000X0.350000X0*%
%ADD11O,1.750000X1.200000*%
%ADD12RoundRect,0.225000X-0.250000X0.225000X-0.250000X-0.225000X0.250000X-0.225000X0.250000X0.225000X0*%
%ADD13RoundRect,0.225000X0.250000X-0.225000X0.250000X0.225000X-0.250000X0.225000X-0.250000X-0.225000X0*%
%ADD14RoundRect,0.200000X-0.200000X-0.275000X0.200000X-0.275000X0.200000X0.275000X-0.200000X0.275000X0*%
%ADD15RoundRect,0.140000X-0.140000X-0.170000X0.140000X-0.170000X0.140000X0.170000X-0.140000X0.170000X0*%
%ADD16RoundRect,0.087500X-0.187500X-0.087500X0.187500X-0.087500X0.187500X0.087500X-0.187500X0.087500X0*%
%ADD17RoundRect,0.087500X-0.087500X-0.187500X0.087500X-0.187500X0.087500X0.187500X-0.087500X0.187500X0*%
%ADD18RoundRect,0.140000X0.140000X0.170000X-0.140000X0.170000X-0.140000X-0.170000X0.140000X-0.170000X0*%
%ADD19RoundRect,0.062500X-0.062500X0.337500X-0.062500X-0.337500X0.062500X-0.337500X0.062500X0.337500X0*%
%ADD20RoundRect,0.062500X-0.337500X0.062500X-0.337500X-0.062500X0.337500X-0.062500X0.337500X0.062500X0*%
%ADD21R,3.700000X3.700000*%
%ADD22RoundRect,0.225000X0.225000X0.250000X-0.225000X0.250000X-0.225000X-0.250000X0.225000X-0.250000X0*%
%ADD23RoundRect,0.225000X-0.225000X-0.250000X0.225000X-0.250000X0.225000X0.250000X-0.225000X0.250000X0*%
%ADD24C,3.600000*%
%ADD25C,5.500000*%
%ADD26RoundRect,0.140000X0.170000X-0.140000X0.170000X0.140000X-0.170000X0.140000X-0.170000X-0.140000X0*%
%ADD27R,0.850000X0.350000*%
%ADD28R,1.700000X2.500000*%
%ADD29RoundRect,0.475000X0.725000X-0.475000X0.725000X0.475000X-0.725000X0.475000X-0.725000X-0.475000X0*%
%ADD30RoundRect,0.260556X0.677444X-1.027444X0.677444X1.027444X-0.677444X1.027444X-0.677444X-1.027444X0*%
%ADD31RoundRect,0.250000X0.275000X0.750000X-0.275000X0.750000X-0.275000X-0.750000X0.275000X-0.750000X0*%
%ADD32RoundRect,0.250000X-0.350000X-0.625000X0.350000X-0.625000X0.350000X0.625000X-0.350000X0.625000X0*%
%ADD33O,1.200000X1.750000*%
%ADD34RoundRect,0.135000X-0.135000X-0.185000X0.135000X-0.185000X0.135000X0.185000X-0.135000X0.185000X0*%
%ADD35RoundRect,0.150000X0.150000X0.575000X-0.150000X0.575000X-0.150000X-0.575000X0.150000X-0.575000X0*%
%ADD36RoundRect,0.075000X0.075000X0.650000X-0.075000X0.650000X-0.075000X-0.650000X0.075000X-0.650000X0*%
%ADD37O,1.000000X2.100000*%
%ADD38O,1.000000X1.600000*%
%ADD39O,0.600000X1.300000*%
%ADD40RoundRect,0.625000X-1.125000X0.625000X-1.125000X-0.625000X1.125000X-0.625000X1.125000X0.625000X0*%
%ADD41RoundRect,0.200000X-0.250000X-0.200000X0.250000X-0.200000X0.250000X0.200000X-0.250000X0.200000X0*%
%ADD42R,1.000000X1.500000*%
%ADD43RoundRect,0.225000X-0.017678X0.335876X-0.335876X0.017678X0.017678X-0.335876X0.335876X-0.017678X0*%
%ADD44RoundRect,0.075000X-0.665000X-0.075000X0.665000X-0.075000X0.665000X0.075000X-0.665000X0.075000X0*%
%ADD45RoundRect,0.075000X-0.075000X-0.665000X0.075000X-0.665000X0.075000X0.665000X-0.075000X0.665000X0*%
%ADD46RoundRect,0.250000X0.550000X-0.550000X0.550000X0.550000X-0.550000X0.550000X-0.550000X-0.550000X0*%
%ADD47C,1.600000*%
%ADD48RoundRect,0.135000X0.185000X-0.135000X0.185000X0.135000X-0.185000X0.135000X-0.185000X-0.135000X0*%
%ADD49RoundRect,0.131500X0.206500X0.131500X-0.206500X0.131500X-0.206500X-0.131500X0.206500X-0.131500X0*%
%ADD50RoundRect,0.140000X-0.170000X0.140000X-0.170000X-0.140000X0.170000X-0.140000X0.170000X0.140000X0*%
%ADD51R,1.850000X3.500000*%
%ADD52RoundRect,0.135000X0.135000X0.185000X-0.135000X0.185000X-0.135000X-0.185000X0.135000X-0.185000X0*%
%ADD53RoundRect,0.200000X0.275000X-0.200000X0.275000X0.200000X-0.275000X0.200000X-0.275000X-0.200000X0*%
%ADD54R,1.100000X1.100000*%
%ADD55C,1.100000*%
%ADD56RoundRect,0.375000X0.375000X-0.625000X0.375000X0.625000X-0.375000X0.625000X-0.375000X-0.625000X0*%
%ADD57RoundRect,0.500000X1.400000X-0.500000X1.400000X0.500000X-1.400000X0.500000X-1.400000X-0.500000X0*%
%ADD58RoundRect,0.135000X-0.185000X0.135000X-0.185000X-0.135000X0.185000X-0.135000X0.185000X0.135000X0*%
G04 APERTURE END LIST*
%TO.C,JP1*%
G36*
X167350000Y-89500000D02*
G01*
X167650000Y-89500000D01*
X167650000Y-91000000D01*
X167350000Y-91000000D01*
X167350000Y-89500000D01*
G37*
%TD*%
D10*
%TO.C,J8*%
X133450000Y-97000000D03*
D11*
X133450000Y-99000000D03*
X133450000Y-101000000D03*
%TD*%
D12*
%TO.C,C6*%
X159950000Y-110200000D03*
X159950000Y-111750000D03*
%TD*%
D13*
%TO.C,C9*%
X169500000Y-104250000D03*
X169500000Y-102700000D03*
%TD*%
D14*
%TO.C,R7*%
X156500000Y-88750000D03*
X158150000Y-88750000D03*
%TD*%
D15*
%TO.C,C10*%
X142110000Y-96660000D03*
X143070000Y-96660000D03*
%TD*%
D16*
%TO.C,U4*%
X152550000Y-88700000D03*
X152550000Y-89200000D03*
X152550000Y-89700000D03*
X152550000Y-90200000D03*
X152550000Y-90700000D03*
D17*
X153275000Y-90925000D03*
X153775000Y-90925000D03*
X154275000Y-90925000D03*
D16*
X155000000Y-90700000D03*
X155000000Y-90200000D03*
X155000000Y-89700000D03*
X155000000Y-89200000D03*
X155000000Y-88700000D03*
D17*
X154275000Y-88475000D03*
X153775000Y-88475000D03*
X153275000Y-88475000D03*
%TD*%
D18*
%TO.C,C27*%
X155570000Y-96660000D03*
X154610000Y-96660000D03*
%TD*%
D15*
%TO.C,C21*%
X132220000Y-93050000D03*
X133180000Y-93050000D03*
%TD*%
D19*
%TO.C,U5*%
X142750000Y-108600000D03*
X142250000Y-108600000D03*
X141750000Y-108600000D03*
X141250000Y-108600000D03*
X140750000Y-108600000D03*
X140250000Y-108600000D03*
X139750000Y-108600000D03*
D20*
X138800000Y-109550000D03*
X138800000Y-110050000D03*
X138800000Y-110550000D03*
X138800000Y-111050000D03*
X138800000Y-111550000D03*
X138800000Y-112050000D03*
X138800000Y-112550000D03*
D19*
X139750000Y-113500000D03*
X140250000Y-113500000D03*
X140750000Y-113500000D03*
X141250000Y-113500000D03*
X141750000Y-113500000D03*
X142250000Y-113500000D03*
X142750000Y-113500000D03*
D20*
X143700000Y-112550000D03*
X143700000Y-112050000D03*
X143700000Y-111550000D03*
X143700000Y-111050000D03*
X143700000Y-110550000D03*
X143700000Y-110050000D03*
X143700000Y-109550000D03*
D21*
X141250000Y-111050000D03*
%TD*%
D22*
%TO.C,R52*%
X148200000Y-86600000D03*
X146650000Y-86600000D03*
%TD*%
D15*
%TO.C,C29*%
X142090000Y-99660000D03*
X143050000Y-99660000D03*
%TD*%
D23*
%TO.C,R55*%
X146600000Y-91750000D03*
X148150000Y-91750000D03*
%TD*%
D24*
%TO.C,H6*%
X165500000Y-84500000D03*
D25*
X165500000Y-84500000D03*
%TD*%
D26*
%TO.C,C17*%
X159250000Y-92960000D03*
X159250000Y-92000000D03*
%TD*%
D15*
%TO.C,C57*%
X134320000Y-88350000D03*
X135280000Y-88350000D03*
%TD*%
D12*
%TO.C,C5*%
X161650000Y-110200000D03*
X161650000Y-111750000D03*
%TD*%
D18*
%TO.C,C23*%
X131180000Y-93050000D03*
X130220000Y-93050000D03*
%TD*%
D27*
%TO.C,IC4*%
X140500000Y-88225000D03*
X140500000Y-88875000D03*
X140500000Y-89525000D03*
X140500000Y-90175000D03*
X143400000Y-90175000D03*
X143400000Y-89525000D03*
X143400000Y-88875000D03*
X143400000Y-88225000D03*
D28*
X141950000Y-89200000D03*
%TD*%
D29*
%TO.C,X1*%
X139590000Y-100760000D03*
X139590000Y-96660000D03*
%TD*%
D24*
%TO.C,H5*%
X165500000Y-115500000D03*
D25*
X165500000Y-115500000D03*
%TD*%
D12*
%TO.C,C8*%
X156950000Y-110200000D03*
X156950000Y-111750000D03*
%TD*%
D30*
%TO.C,D2*%
X159050000Y-99250000D03*
X159050000Y-95250000D03*
%TD*%
D15*
%TO.C,C26*%
X142090000Y-100910000D03*
X143050000Y-100910000D03*
%TD*%
D18*
%TO.C,C15*%
X169980000Y-96500000D03*
X169020000Y-96500000D03*
%TD*%
D31*
%TO.C,SW1*%
X141725000Y-105500000D03*
X137275000Y-105500000D03*
%TD*%
D32*
%TO.C,J7*%
X155500000Y-116550000D03*
D33*
X157500000Y-116550000D03*
X159500000Y-116550000D03*
%TD*%
D13*
%TO.C,C22*%
X137050000Y-111825000D03*
X137050000Y-110275000D03*
%TD*%
D18*
%TO.C,C12*%
X169980000Y-99500000D03*
X169020000Y-99500000D03*
%TD*%
D34*
%TO.C,R53*%
X153300000Y-92500000D03*
X154320000Y-92500000D03*
%TD*%
D18*
%TO.C,C13*%
X169980000Y-98500000D03*
X169020000Y-98500000D03*
%TD*%
D35*
%TO.C,J6*%
X160360000Y-84945000D03*
X159560000Y-84945000D03*
D36*
X158360000Y-84945000D03*
X157360000Y-84945000D03*
X156860000Y-84945000D03*
X155860000Y-84945000D03*
D35*
X154660000Y-84945000D03*
X153860000Y-84945000D03*
X153860000Y-84945000D03*
X154660000Y-84945000D03*
D36*
X155360000Y-84945000D03*
X156360000Y-84945000D03*
X157860000Y-84945000D03*
X158860000Y-84945000D03*
D35*
X159560000Y-84945000D03*
X160360000Y-84945000D03*
D37*
X161430000Y-84030000D03*
D38*
X161430000Y-79850000D03*
D37*
X152790000Y-84030000D03*
D38*
X152790000Y-79850000D03*
%TD*%
D39*
%TO.C,U2*%
X169710000Y-106000000D03*
X168440000Y-106000000D03*
X167160000Y-106000000D03*
X165890000Y-106000000D03*
X165890000Y-111400000D03*
X167160000Y-111400000D03*
X168440000Y-111400000D03*
X169710000Y-111400000D03*
D40*
X167800000Y-108700000D03*
%TD*%
D15*
%TO.C,C58*%
X134220000Y-93050000D03*
X135180000Y-93050000D03*
%TD*%
D18*
%TO.C,C11*%
X169980000Y-100500000D03*
X169020000Y-100500000D03*
%TD*%
%TO.C,C14*%
X169980000Y-97500000D03*
X169020000Y-97500000D03*
%TD*%
D15*
%TO.C,C59*%
X144400000Y-86850000D03*
X145360000Y-86850000D03*
%TD*%
D41*
%TO.C,D8*%
X134700000Y-89800000D03*
X134700000Y-91700000D03*
X136700000Y-90750000D03*
%TD*%
D18*
%TO.C,C31*%
X141050000Y-115050000D03*
X140090000Y-115050000D03*
%TD*%
D14*
%TO.C,R6*%
X159750000Y-88750000D03*
X161400000Y-88750000D03*
%TD*%
D42*
%TO.C,JP1*%
X166850000Y-90250000D03*
X168150000Y-90250000D03*
%TD*%
D27*
%TO.C,IC3*%
X130350000Y-89675000D03*
X130350000Y-90325000D03*
X130350000Y-90975000D03*
X130350000Y-91625000D03*
X133250000Y-91625000D03*
X133250000Y-90975000D03*
X133250000Y-90325000D03*
X133250000Y-89675000D03*
D28*
X131800000Y-90650000D03*
%TD*%
D32*
%TO.C,J2*%
X144500000Y-116550000D03*
D33*
X146500000Y-116550000D03*
X148500000Y-116550000D03*
X150500000Y-116550000D03*
%TD*%
D26*
%TO.C,C18*%
X160250000Y-92960000D03*
X160250000Y-92000000D03*
%TD*%
D15*
%TO.C,C25*%
X142420000Y-91500000D03*
X143380000Y-91500000D03*
%TD*%
D43*
%TO.C,C30*%
X140548008Y-115951992D03*
X139451992Y-117048008D03*
%TD*%
D15*
%TO.C,C60*%
X144400000Y-91500000D03*
X145360000Y-91500000D03*
%TD*%
%TO.C,C24*%
X140420000Y-91500000D03*
X141380000Y-91500000D03*
%TD*%
D44*
%TO.C,U1*%
X144680000Y-96660000D03*
X144680000Y-97160000D03*
X144680000Y-97660000D03*
X144680000Y-98160000D03*
X144680000Y-98660000D03*
X144680000Y-99160000D03*
X144680000Y-99660000D03*
X144680000Y-100160000D03*
X144680000Y-100660000D03*
X144680000Y-101160000D03*
X144680000Y-101660000D03*
X144680000Y-102160000D03*
D45*
X146090000Y-103570000D03*
X146590000Y-103570000D03*
X147090000Y-103570000D03*
X147590000Y-103570000D03*
X148090000Y-103570000D03*
X148590000Y-103570000D03*
X149090000Y-103570000D03*
X149590000Y-103570000D03*
X150090000Y-103570000D03*
X150590000Y-103570000D03*
X151090000Y-103570000D03*
X151590000Y-103570000D03*
D44*
X153000000Y-102160000D03*
X153000000Y-101660000D03*
X153000000Y-101160000D03*
X153000000Y-100660000D03*
X153000000Y-100160000D03*
X153000000Y-99660000D03*
X153000000Y-99160000D03*
X153000000Y-98660000D03*
X153000000Y-98160000D03*
X153000000Y-97660000D03*
X153000000Y-97160000D03*
X153000000Y-96660000D03*
D45*
X151590000Y-95250000D03*
X151090000Y-95250000D03*
X150590000Y-95250000D03*
X150090000Y-95250000D03*
X149590000Y-95250000D03*
X149090000Y-95250000D03*
X148590000Y-95250000D03*
X148090000Y-95250000D03*
X147590000Y-95250000D03*
X147090000Y-95250000D03*
X146590000Y-95250000D03*
X146090000Y-95250000D03*
%TD*%
D10*
%TO.C,J9*%
X133450000Y-106000000D03*
D11*
X133450000Y-108000000D03*
X133450000Y-110000000D03*
%TD*%
D34*
%TO.C,R2*%
X147490000Y-93410000D03*
X148510000Y-93410000D03*
%TD*%
D46*
%TO.C,C3*%
X151000000Y-112000000D03*
D47*
X151000000Y-108500000D03*
%TD*%
D48*
%TO.C,R54*%
X151050000Y-91210000D03*
X151050000Y-90190000D03*
%TD*%
D49*
%TO.C,D5*%
X165050000Y-90250000D03*
X162950000Y-90250000D03*
%TD*%
D26*
%TO.C,C28*%
X152750000Y-104870000D03*
X152750000Y-103910000D03*
%TD*%
D48*
%TO.C,R3*%
X146050000Y-106420000D03*
X146050000Y-105400000D03*
%TD*%
D50*
%TO.C,C19*%
X151000000Y-88220000D03*
X151000000Y-89180000D03*
%TD*%
D26*
%TO.C,C16*%
X158250000Y-92960000D03*
X158250000Y-92000000D03*
%TD*%
D51*
%TO.C,L1*%
X157225000Y-105250000D03*
X162775000Y-105250000D03*
%TD*%
D15*
%TO.C,C2*%
X142110000Y-98410000D03*
X143070000Y-98410000D03*
%TD*%
D52*
%TO.C,R51*%
X152060000Y-92500000D03*
X151040000Y-92500000D03*
%TD*%
D24*
%TO.C,H8*%
X134500000Y-84500000D03*
D25*
X134500000Y-84500000D03*
%TD*%
D12*
%TO.C,C7*%
X158450000Y-110200000D03*
X158450000Y-111750000D03*
%TD*%
D50*
%TO.C,C1*%
X143250000Y-106110000D03*
X143250000Y-107070000D03*
%TD*%
D18*
%TO.C,C20*%
X156550000Y-92450000D03*
X155590000Y-92450000D03*
%TD*%
D24*
%TO.C,H7*%
X134500000Y-115500000D03*
D25*
X134500000Y-115500000D03*
%TD*%
D53*
%TO.C,R11*%
X167800000Y-104300000D03*
X167800000Y-102650000D03*
%TD*%
D54*
%TO.C,J3*%
X142440000Y-82500000D03*
D55*
X142440000Y-81230000D03*
X143710000Y-82500000D03*
X143710000Y-81230000D03*
X144980000Y-82500000D03*
X144980000Y-81230000D03*
X146250000Y-82500000D03*
X146250000Y-81230000D03*
X147520000Y-82500000D03*
X147520000Y-81230000D03*
%TD*%
D23*
%TO.C,R48*%
X136425000Y-88150000D03*
X137975000Y-88150000D03*
%TD*%
D12*
%TO.C,C4*%
X163250000Y-110200000D03*
X163250000Y-111750000D03*
%TD*%
D41*
%TO.C,D11*%
X144900000Y-88300000D03*
X144900000Y-90200000D03*
X146900000Y-89250000D03*
%TD*%
D23*
%TO.C,R49*%
X136425000Y-93250000D03*
X137975000Y-93250000D03*
%TD*%
D56*
%TO.C,U3*%
X162300000Y-99650000D03*
X164600000Y-99650000D03*
D57*
X164600000Y-93350000D03*
D56*
X166900000Y-99650000D03*
%TD*%
D48*
%TO.C,R10*%
X166000000Y-103985000D03*
X166000000Y-102965000D03*
%TD*%
D58*
%TO.C,R1*%
X143250000Y-104065000D03*
X143250000Y-105085000D03*
%TD*%
M02*
