%TF.GenerationSoftware,KiCad,Pcbnew,10.0.0*%
%TF.CreationDate,2026-07-13T13:08:28+10:00*%
%TF.ProjectId,Active-Damper-Slave,41637469-7665-42d4-9461-6d7065722d53,rev?*%
%TF.SameCoordinates,Original*%
%TF.FileFunction,Copper,L3,Inr*%
%TF.FilePolarity,Positive*%
%FSLAX46Y46*%
G04 Gerber Fmt 4.6, Leading zero omitted, Abs format (unit mm)*
G04 Created by KiCad (PCBNEW 10.0.0) date 2026-07-13 13:08:28*
%MOMM*%
%LPD*%
G01*
G04 APERTURE LIST*
G04 Aperture macros list*
%AMRoundRect*
0 Rectangle with rounded corners*
0 $1 Rounding radius*
0 $2 $3 $4 $5 $6 $7 $8 $9 X,Y pos of 4 corners*
0 Add a 4 corners polygon primitive as box body*
4,1,4,$2,$3,$4,$5,$6,$7,$8,$9,$2,$3,0*
0 Add four circle primitives for the rounded corners*
1,1,$1+$1,$2,$3*
1,1,$1+$1,$4,$5*
1,1,$1+$1,$6,$7*
1,1,$1+$1,$8,$9*
0 Add four rect primitives between the rounded corners*
20,1,$1+$1,$2,$3,$4,$5,0*
20,1,$1+$1,$4,$5,$6,$7,0*
20,1,$1+$1,$6,$7,$8,$9,0*
20,1,$1+$1,$8,$9,$2,$3,0*%
G04 Aperture macros list end*
%TA.AperFunction,ComponentPad*%
%ADD10RoundRect,0.250000X-0.625000X0.350000X-0.625000X-0.350000X0.625000X-0.350000X0.625000X0.350000X0*%
%TD*%
%TA.AperFunction,ComponentPad*%
%ADD11O,1.750000X1.200000*%
%TD*%
%TA.AperFunction,HeatsinkPad*%
%ADD12C,0.500000*%
%TD*%
%TA.AperFunction,ComponentPad*%
%ADD13C,3.600000*%
%TD*%
%TA.AperFunction,ComponentPad*%
%ADD14RoundRect,0.250000X-0.350000X-0.625000X0.350000X-0.625000X0.350000X0.625000X-0.350000X0.625000X0*%
%TD*%
%TA.AperFunction,ComponentPad*%
%ADD15O,1.200000X1.750000*%
%TD*%
%TA.AperFunction,ComponentPad*%
%ADD16O,1.000000X2.100000*%
%TD*%
%TA.AperFunction,ComponentPad*%
%ADD17O,1.000000X1.600000*%
%TD*%
%TA.AperFunction,ComponentPad*%
%ADD18C,0.500000*%
%TD*%
%TA.AperFunction,ComponentPad*%
%ADD19RoundRect,0.250000X0.550000X-0.550000X0.550000X0.550000X-0.550000X0.550000X-0.550000X-0.550000X0*%
%TD*%
%TA.AperFunction,ComponentPad*%
%ADD20C,1.600000*%
%TD*%
%TA.AperFunction,ComponentPad*%
%ADD21R,1.100000X1.100000*%
%TD*%
%TA.AperFunction,ComponentPad*%
%ADD22C,1.100000*%
%TD*%
G04 APERTURE END LIST*
D10*
%TO.N,/CANL_2*%
%TO.C,J8*%
X133450000Y-97000000D03*
D11*
%TO.N,/CANH_2*%
X133450000Y-99000000D03*
%TO.N,GND*%
X133450000Y-101000000D03*
%TD*%
D12*
%TO.N,GND*%
%TO.C,U5*%
X142750000Y-109550000D03*
X141750000Y-109550000D03*
X140750000Y-109550000D03*
X139750000Y-109550000D03*
X142750000Y-110550000D03*
X141750000Y-110550000D03*
X140750000Y-110550000D03*
X139750000Y-110550000D03*
X142750000Y-111550000D03*
X141750000Y-111550000D03*
X140750000Y-111550000D03*
X139750000Y-111550000D03*
X142750000Y-112550000D03*
X141750000Y-112550000D03*
X140750000Y-112550000D03*
X139750000Y-112550000D03*
%TD*%
D13*
%TO.N,GND*%
%TO.C,H6*%
X165500000Y-84500000D03*
%TD*%
%TO.N,GND*%
%TO.C,H5*%
X165500000Y-115500000D03*
%TD*%
D14*
%TO.N,GND*%
%TO.C,J7*%
X155500000Y-116550000D03*
D15*
%TO.N,IGN*%
X157500000Y-116550000D03*
%TO.N,+12V*%
X159500000Y-116550000D03*
%TD*%
D16*
%TO.N,GND*%
%TO.C,J6*%
X161430000Y-84030000D03*
D17*
X161430000Y-79850000D03*
D16*
X152790000Y-84030000D03*
D17*
X152790000Y-79850000D03*
%TD*%
D18*
%TO.N,GND*%
%TO.C,U2*%
X168800000Y-107900000D03*
X167800000Y-107900000D03*
X166700000Y-107900000D03*
X168800000Y-109500000D03*
X167800000Y-109500000D03*
X166700000Y-109500000D03*
%TD*%
D14*
%TO.N,/BOUT2*%
%TO.C,J2*%
X144500000Y-116550000D03*
D15*
%TO.N,/BOUT1*%
X146500000Y-116550000D03*
%TO.N,/AOUT2*%
X148500000Y-116550000D03*
%TO.N,/AOUT1*%
X150500000Y-116550000D03*
%TD*%
D10*
%TO.N,/CANL_1*%
%TO.C,J9*%
X133450000Y-106000000D03*
D11*
%TO.N,/CANH_1*%
X133450000Y-108000000D03*
%TO.N,GND*%
X133450000Y-110000000D03*
%TD*%
D19*
%TO.N,+12V*%
%TO.C,C3*%
X151000000Y-112000000D03*
D20*
%TO.N,GND*%
X151000000Y-108500000D03*
%TD*%
D13*
%TO.N,GND*%
%TO.C,H8*%
X134500000Y-84500000D03*
%TD*%
%TO.N,GND*%
%TO.C,H7*%
X134500000Y-115500000D03*
%TD*%
D21*
%TO.N,+3.3V*%
%TO.C,J3*%
X142440000Y-82500000D03*
D22*
%TO.N,/SWDIO{slash}TMS*%
X142440000Y-81230000D03*
%TO.N,GND*%
X143710000Y-82500000D03*
%TO.N,/SWCLK{slash}TCK*%
X143710000Y-81230000D03*
%TO.N,unconnected-(J3-Pad5)*%
X144980000Y-82500000D03*
%TO.N,/SWO{slash}TDO*%
X144980000Y-81230000D03*
%TO.N,unconnected-(J3-Pad7)*%
X146250000Y-82500000D03*
%TO.N,unconnected-(J3-Pad8)*%
X146250000Y-81230000D03*
%TO.N,GND*%
X147520000Y-82500000D03*
%TO.N,/~{RESET}*%
X147520000Y-81230000D03*
%TD*%
M02*
