M48
; DRILL file KiCad 10.0.0 date 2026-07-13T13:08:28
; FORMAT={-:-/ absolute / inch / decimal}
; #@! TF.CreationDate,2026-07-13T13:08:28+10:00
; #@! TF.GenerationSoftware,Kicad,Pcbnew,10.0.0
; #@! TF.FileFunction,Plated,1,4,PTH
FMAT,2
INCH
; #@! TA.AperFunction,Plated,PTH,ComponentDrill
T1C0.0079
; #@! TA.AperFunction,Plated,PTH,ComponentDrill
T2C0.0118
; #@! TA.AperFunction,Plated,PTH,ComponentDrill
T3C0.0236
; #@! TA.AperFunction,Plated,PTH,ComponentDrill
T4C0.0291
; #@! TA.AperFunction,Plated,PTH,ComponentDrill
T5C0.0295
; #@! TA.AperFunction,Plated,PTH,ComponentDrill
T6C0.0315
; #@! TA.AperFunction,Plated,PTH,ComponentDrill
T7C0.1260
%
G90
G05
T1
X5.502Y-4.313
X5.502Y-4.3524
X5.502Y-4.3917
X5.502Y-4.4311
X5.5413Y-4.313
X5.5413Y-4.3524
X5.5413Y-4.3917
X5.5413Y-4.4311
X5.5807Y-4.313
X5.5807Y-4.3524
X5.5807Y-4.3917
X5.5807Y-4.4311
X5.6201Y-4.313
X5.6201Y-4.3524
X5.6201Y-4.3917
X5.6201Y-4.4311
T2
X6.563Y-4.248
X6.563Y-4.311
X6.6063Y-4.248
X6.6063Y-4.311
X6.6457Y-4.248
X6.6457Y-4.311
T4
X5.6079Y-3.198
X5.6079Y-3.248
X5.6579Y-3.198
X5.6579Y-3.248
X5.7079Y-3.198
X5.7079Y-3.248
X5.7579Y-3.198
X5.7579Y-3.248
X5.8079Y-3.198
X5.8079Y-3.248
T5
X5.2539Y-3.8189
X5.2539Y-3.8976
X5.2539Y-3.9764
X5.2539Y-4.1732
X5.2539Y-4.252
X5.2539Y-4.3307
X5.689Y-4.5886
X5.7677Y-4.5886
X5.8465Y-4.5886
X5.9252Y-4.5886
X6.122Y-4.5886
X6.2008Y-4.5886
X6.2795Y-4.5886
T6
X5.9449Y-4.2717
X5.9449Y-4.4094
T7
X5.2953Y-3.3268
X5.2953Y-4.5472
X6.5157Y-3.3268
X6.5157Y-4.5472
T3
G00X6.0154Y-3.1555
M15
G01X6.0154Y-3.1319
M16
G05
G00X6.0154Y-3.3299
M15
G01X6.0154Y-3.2866
M16
G05
G00X6.3555Y-3.1555
M15
G01X6.3555Y-3.1319
M16
G05
G00X6.3555Y-3.3299
M15
G01X6.3555Y-3.2866
M16
G05
M30
