%TF.GenerationSoftware,KiCad,Pcbnew,10.0.0*%
%TF.CreationDate,2026-09-18T03:09:02+10:00*%
%TF.ProjectId,Active-Damper-Master,41637469-7665-42d4-9461-6d7065722d4d,rev?*%
%TF.SameCoordinates,Original*%
%TF.FileFunction,Legend,Bot*%
%TF.FilePolarity,Positive*%
%FSLAX46Y46*%
G04 Gerber Fmt 4.6, Leading zero omitted, Abs format (unit mm)*
G04 Created by KiCad (PCBNEW 10.0.0) date 2026-09-18 03:09:02*
%MOMM*%
%LPD*%
G01*
G04 APERTURE LIST*
G04 Aperture macros list*
%AMRoundRect*
0 Rectangle with rounded corners*
0 $1 Rounding radius*
0 $2 $3 $4 $5 $6 $7 $8 $9 X,Y pos of 4 corners*
0 Add a 4 corners polygon primitive as box body*
4,1,4,$2,$3,$4,$5,$6,$7,$8,$9,$2,$3,0*
0 Add four circle primitives for the rounded corners*
1,1,$1+$1,$2,$3*
1,1,$1+$1,$4,$5*
1,1,$1+$1,$6,$7*
1,1,$1+$1,$8,$9*
0 Add four rect primitives between the rounded corners*
20,1,$1+$1,$2,$3,$4,$5,0*
20,1,$1+$1,$4,$5,$6,$7,0*
20,1,$1+$1,$6,$7,$8,$9,0*
20,1,$1+$1,$8,$9,$2,$3,0*%
G04 Aperture macros list end*
%ADD10C,0.000000*%
%ADD11RoundRect,0.250001X1.099999X1.099999X-1.099999X1.099999X-1.099999X-1.099999X1.099999X-1.099999X0*%
%ADD12C,2.700000*%
%ADD13RoundRect,0.250000X-0.550000X-0.550000X0.550000X-0.550000X0.550000X0.550000X-0.550000X0.550000X0*%
%ADD14C,1.600000*%
%ADD15C,3.600000*%
%ADD16C,5.500000*%
%ADD17C,0.650000*%
%ADD18O,2.100000X1.000000*%
%ADD19O,1.600000X1.000000*%
G04 APERTURE END LIST*
D10*
G36*
X156871460Y-90261093D02*
G01*
X151020148Y-112118947D01*
X153670044Y-88138238D01*
X166560365Y-81752606D01*
X156871460Y-90261093D01*
G37*
G36*
X150816111Y-106066081D02*
G01*
X150000000Y-115247394D01*
X149183887Y-106066081D01*
X148027712Y-88979287D01*
X150000000Y-89956306D01*
X151972287Y-88979287D01*
X150816111Y-106066081D01*
G37*
G36*
X146329953Y-88138238D02*
G01*
X148979852Y-112118947D01*
X143128536Y-90261093D01*
X133439635Y-81752606D01*
X146329953Y-88138238D01*
G37*
%LPC*%
D11*
%TO.C,J2*%
X163637501Y-122750000D03*
D12*
X159677501Y-122750000D03*
X155717501Y-122750000D03*
X151757500Y-122750000D03*
X147797502Y-122750000D03*
X143837501Y-122750000D03*
X139877501Y-122750000D03*
X135917501Y-122750000D03*
%TD*%
D13*
%TO.C,C3*%
X168347349Y-111750000D03*
D14*
X171847349Y-111750000D03*
%TD*%
D15*
%TO.C,H6*%
X171500000Y-74500000D03*
D16*
X171500000Y-74500000D03*
%TD*%
D15*
%TO.C,H5*%
X128500000Y-74500000D03*
D16*
X128500000Y-74500000D03*
%TD*%
D15*
%TO.C,H7*%
X128500000Y-122500000D03*
D16*
X128500000Y-122500000D03*
%TD*%
D15*
%TO.C,H8*%
X171500000Y-122500000D03*
D16*
X171500000Y-122500000D03*
%TD*%
D17*
%TO.C,J6*%
X131650000Y-89080000D03*
X131650000Y-94860000D03*
D18*
X132180000Y-87650000D03*
D19*
X128000000Y-87650000D03*
D18*
X132180000Y-96290000D03*
D19*
X128000000Y-96290000D03*
%TD*%
%LPD*%
M02*
