%TF.GenerationSoftware,KiCad,Pcbnew,10.0.0*%
%TF.CreationDate,2026-07-10T03:55:22+10:00*%
%TF.ProjectId,Active-Damper-Master,41637469-7665-42d4-9461-6d7065722d4d,rev?*%
%TF.SameCoordinates,Original*%
%TF.FileFunction,Legend,Bot*%
%TF.FilePolarity,Positive*%
%FSLAX46Y46*%
G04 Gerber Fmt 4.6, Leading zero omitted, Abs format (unit mm)*
G04 Created by KiCad (PCBNEW 10.0.0) date 2026-07-10 03:55:22*
%MOMM*%
%LPD*%
G01*
G04 APERTURE LIST*
G04 Aperture macros list*
%AMRoundRect*
0 Rectangle with rounded corners*
0 $1 Rounding radius*
0 $2 $3 $4 $5 $6 $7 $8 $9 X,Y pos of 4 corners*
0 Add a 4 corners polygon primitive as box body*
4,1,4,$2,$3,$4,$5,$6,$7,$8,$9,$2,$3,0*
0 Add four circle primitives for the rounded corners*
1,1,$1+$1,$2,$3*
1,1,$1+$1,$4,$5*
1,1,$1+$1,$6,$7*
1,1,$1+$1,$8,$9*
0 Add four rect primitives between the rounded corners*
20,1,$1+$1,$2,$3,$4,$5,0*
20,1,$1+$1,$4,$5,$6,$7,0*
20,1,$1+$1,$6,$7,$8,$9,0*
20,1,$1+$1,$8,$9,$2,$3,0*%
G04 Aperture macros list end*
%ADD10C,0.300000*%
%ADD11C,1.600000*%
%ADD12RoundRect,0.250000X-0.550000X-0.550000X0.550000X-0.550000X0.550000X0.550000X-0.550000X0.550000X0*%
%ADD13C,5.500000*%
%ADD14C,3.600000*%
%ADD15O,1.700000X1.950000*%
%ADD16RoundRect,0.250000X-0.600000X-0.725000X0.600000X-0.725000X0.600000X0.725000X-0.600000X0.725000X0*%
%ADD17O,1.600000X1.000000*%
%ADD18O,2.100000X1.000000*%
%ADD19C,0.650000*%
G04 APERTURE END LIST*
D10*
G36*
X161656474Y-103257108D02*
G01*
X162069750Y-103320353D01*
X162339340Y-103403707D01*
X162517409Y-103505205D01*
X162635827Y-103626916D01*
X162705846Y-103771112D01*
X162730129Y-103945315D01*
X162711586Y-104109945D01*
X162659238Y-104244030D01*
X162574119Y-104354422D01*
X162460821Y-104435479D01*
X162311313Y-104487613D01*
X162114637Y-104506769D01*
X161893665Y-104487795D01*
X161691706Y-104432258D01*
X161504946Y-104340378D01*
X161255401Y-104151560D01*
X161052180Y-103920891D01*
X161052180Y-103226936D01*
X161656474Y-103257108D01*
G37*
G36*
X153448595Y-102414218D02*
G01*
X152413311Y-102414218D01*
X152171416Y-102390114D01*
X151959935Y-102320490D01*
X151777087Y-102204948D01*
X151637534Y-102049380D01*
X151549000Y-101857862D01*
X151517855Y-101620734D01*
X151544950Y-101377915D01*
X151620576Y-101185326D01*
X151742254Y-101031498D01*
X151904239Y-100919329D01*
X152117171Y-100847072D01*
X152396214Y-100820533D01*
X153448595Y-100820533D01*
X153448595Y-102414218D01*
G37*
G36*
X169771859Y-105519059D02*
G01*
X150086078Y-105519059D01*
X150086078Y-104900000D01*
X150641634Y-104900000D01*
X151290404Y-104900000D01*
X151555103Y-103833574D01*
X151632488Y-103562112D01*
X151716303Y-103351195D01*
X151827512Y-103173038D01*
X151964515Y-103049249D01*
X152136609Y-102974144D01*
X152379117Y-102946057D01*
X153448595Y-102946057D01*
X153448595Y-104900000D01*
X154083016Y-104900000D01*
X154083016Y-102667009D01*
X156608182Y-102667009D01*
X156608182Y-104900000D01*
X157198028Y-104900000D01*
X157198028Y-102739672D01*
X157211465Y-102495977D01*
X157248709Y-102294539D01*
X157320911Y-102118464D01*
X157428532Y-101990762D01*
X157577516Y-101910861D01*
X157803140Y-101880547D01*
X158043803Y-101901377D01*
X158248230Y-101960508D01*
X158423211Y-102055486D01*
X158653448Y-102242536D01*
X158824686Y-102436505D01*
X158824686Y-104900000D01*
X159414837Y-104900000D01*
X159414837Y-102592515D01*
X160462029Y-102592515D01*
X160462029Y-103920891D01*
X160462029Y-104900000D01*
X161014323Y-104900000D01*
X161037220Y-104411209D01*
X161271850Y-104628520D01*
X161555626Y-104807187D01*
X161763694Y-104892190D01*
X161998565Y-104945058D01*
X162265151Y-104963503D01*
X162544503Y-104934594D01*
X162793937Y-104850235D01*
X163009601Y-104709538D01*
X163176788Y-104515012D01*
X163254252Y-104361217D01*
X163302810Y-104180700D01*
X163319975Y-103967602D01*
X163285573Y-103670822D01*
X163190251Y-103441034D01*
X163037264Y-103262351D01*
X162836195Y-103126025D01*
X162575087Y-103015659D01*
X162240422Y-102935371D01*
X161705986Y-102870458D01*
X161048517Y-102841948D01*
X161048517Y-102605643D01*
X161076706Y-102314429D01*
X161149507Y-102118863D01*
X161257344Y-101991678D01*
X161404358Y-101901611D01*
X161578546Y-101845663D01*
X161786741Y-101825898D01*
X162008277Y-101847197D01*
X162197547Y-101908049D01*
X162361017Y-102006943D01*
X162485176Y-102143945D01*
X162564175Y-102331950D01*
X162593353Y-102588241D01*
X163166407Y-102588241D01*
X163144304Y-102301989D01*
X163083339Y-102072423D01*
X162988721Y-101888485D01*
X162856115Y-101729198D01*
X162694421Y-101601576D01*
X162499624Y-101503803D01*
X162272373Y-101441521D01*
X163627721Y-101441521D01*
X163627721Y-101922374D01*
X164402887Y-101922374D01*
X164402887Y-104900000D01*
X164989375Y-104900000D01*
X164989375Y-101925122D01*
X165767288Y-101925122D01*
X165855827Y-101925122D01*
X166094030Y-101942953D01*
X166289663Y-101992594D01*
X166465652Y-102073567D01*
X166614811Y-102178524D01*
X166745102Y-102305339D01*
X166860275Y-102450549D01*
X166860275Y-104900000D01*
X167450427Y-104900000D01*
X168581882Y-104900000D01*
X169216303Y-104900000D01*
X169216303Y-100288695D01*
X168581882Y-100288695D01*
X168581882Y-104900000D01*
X167450427Y-104900000D01*
X167450427Y-101441521D01*
X166894775Y-101441521D01*
X166875235Y-101964200D01*
X166723375Y-101751985D01*
X166500017Y-101558757D01*
X166323929Y-101464440D01*
X166108838Y-101404441D01*
X165845446Y-101382903D01*
X165767288Y-101382903D01*
X165767288Y-101925122D01*
X164989375Y-101925122D01*
X164989375Y-101922374D01*
X165546249Y-101922374D01*
X165546249Y-101441521D01*
X164989375Y-101441521D01*
X164989375Y-101277878D01*
X164978053Y-101053344D01*
X164946327Y-100862665D01*
X164885639Y-100690180D01*
X164794286Y-100550950D01*
X164667477Y-100440985D01*
X164489898Y-100356167D01*
X164279730Y-100307414D01*
X163985842Y-100288695D01*
X163631079Y-100288695D01*
X163631079Y-100755504D01*
X163948290Y-100755504D01*
X164141549Y-100774935D01*
X164258633Y-100823166D01*
X164324729Y-100892585D01*
X164380576Y-101047529D01*
X164402887Y-101293143D01*
X164402887Y-101441521D01*
X163627721Y-101441521D01*
X162272373Y-101441521D01*
X162173933Y-101414542D01*
X161786741Y-101382903D01*
X161533110Y-101395545D01*
X161294286Y-101432667D01*
X161069536Y-101503475D01*
X160870830Y-101614323D01*
X160704625Y-101769517D01*
X160572548Y-101983129D01*
X160492277Y-102239893D01*
X160462029Y-102592515D01*
X159414837Y-102592515D01*
X159414837Y-101441521D01*
X158849110Y-101441521D01*
X158829570Y-101925122D01*
X158664623Y-101753581D01*
X158402145Y-101563337D01*
X158201851Y-101466727D01*
X157958664Y-101405040D01*
X157663006Y-101382903D01*
X157389914Y-101406980D01*
X157172077Y-101473571D01*
X156998099Y-101577923D01*
X156860057Y-101720568D01*
X156726959Y-101958753D01*
X156640115Y-102267854D01*
X156608182Y-102667009D01*
X154083016Y-102667009D01*
X154083016Y-100288695D01*
X152334848Y-100288695D01*
X151945735Y-100321413D01*
X151605172Y-100415396D01*
X151398691Y-100517050D01*
X151224946Y-100649016D01*
X151080050Y-100812901D01*
X150974307Y-101002732D01*
X150907385Y-101233405D01*
X150883435Y-101514794D01*
X150894117Y-101620734D01*
X150912010Y-101798186D01*
X150994398Y-102044524D01*
X151129815Y-102261566D01*
X151311299Y-102441793D01*
X151532191Y-102576781D01*
X151799956Y-102667620D01*
X151600096Y-102723333D01*
X151420464Y-102829736D01*
X151268059Y-102980789D01*
X151139279Y-103183888D01*
X151038831Y-103421539D01*
X150945411Y-103733129D01*
X150641634Y-104900000D01*
X150086078Y-104900000D01*
X150086078Y-99733139D01*
X169771859Y-99733139D01*
X169771859Y-105519059D01*
G37*
G36*
X130833486Y-95162679D02*
G01*
X130984906Y-95213579D01*
X131112700Y-95295847D01*
X131270758Y-95469121D01*
X131395106Y-95702512D01*
X131479847Y-95967772D01*
X131536156Y-96274956D01*
X131565392Y-96594082D01*
X131575235Y-96921894D01*
X131565419Y-97246513D01*
X131536156Y-97565169D01*
X131479857Y-97872392D01*
X131395106Y-98137918D01*
X131270777Y-98371050D01*
X131112700Y-98544277D01*
X130984906Y-98626545D01*
X130833486Y-98677445D01*
X130652302Y-98695403D01*
X130471356Y-98677413D01*
X130320693Y-98626491D01*
X130194042Y-98544277D01*
X130037581Y-98371116D01*
X129914994Y-98137918D01*
X129831466Y-97872472D01*
X129775776Y-97565169D01*
X129746513Y-97246513D01*
X129736697Y-96921894D01*
X129746540Y-96594082D01*
X129775776Y-96274956D01*
X129831476Y-95967692D01*
X129914994Y-95702512D01*
X130037600Y-95469055D01*
X130194042Y-95295847D01*
X130320693Y-95213634D01*
X130471356Y-95162712D01*
X130652302Y-95144722D01*
X130833486Y-95162679D01*
G37*
G36*
X163891617Y-98614802D02*
G01*
X163105765Y-98614802D01*
X162706871Y-98590963D01*
X162379963Y-98525023D01*
X162112918Y-98423377D01*
X161874333Y-98272755D01*
X161681851Y-98079004D01*
X161531010Y-97837194D01*
X161429016Y-97567190D01*
X161363057Y-97238969D01*
X161339279Y-96840989D01*
X161363489Y-96445720D01*
X161430671Y-96119860D01*
X161534673Y-95851805D01*
X161687332Y-95611856D01*
X161881525Y-95418493D01*
X162121772Y-95267149D01*
X162389851Y-95164165D01*
X162714150Y-95097772D01*
X163105765Y-95073892D01*
X163891617Y-95073892D01*
X163891617Y-98614802D01*
G37*
G36*
X167941774Y-97325200D02*
G01*
X166405486Y-97325200D01*
X167170272Y-95188075D01*
X167941774Y-97325200D01*
G37*
G36*
X169782352Y-99769059D02*
G01*
X128550079Y-99769059D01*
X128550079Y-96921894D01*
X129105635Y-96921894D01*
X129126454Y-97393871D01*
X129186235Y-97817960D01*
X129293911Y-98214729D01*
X129445437Y-98546414D01*
X129578914Y-98741860D01*
X129737077Y-98904306D01*
X129921711Y-99036732D01*
X130127195Y-99132160D01*
X130368265Y-99192238D01*
X130652302Y-99213503D01*
X130936547Y-99192232D01*
X131177712Y-99132150D01*
X131383199Y-99036732D01*
X131567787Y-98904403D01*
X131726586Y-98741958D01*
X131748774Y-98709752D01*
X133070917Y-98709752D01*
X133102690Y-98881037D01*
X133197008Y-99022383D01*
X133337891Y-99117534D01*
X133514523Y-99150000D01*
X135810406Y-99150000D01*
X136427730Y-99150000D01*
X136427730Y-95455521D01*
X136519047Y-95554824D01*
X136673499Y-95675950D01*
X136854581Y-95784477D01*
X137077110Y-95885389D01*
X137320440Y-95963294D01*
X137609560Y-96019722D01*
X137609560Y-95691521D01*
X138239096Y-95691521D01*
X139503358Y-99150000D01*
X140145411Y-99150000D01*
X143435668Y-99150000D01*
X144059708Y-99150000D01*
X144059708Y-95452995D01*
X145393579Y-97704082D01*
X145807571Y-97704082D01*
X147165561Y-95446910D01*
X147165561Y-99150000D01*
X147775863Y-99150000D01*
X147775863Y-97701639D01*
X148693911Y-97701639D01*
X150417655Y-97701639D01*
X150417655Y-97435720D01*
X151285633Y-97435720D01*
X151307712Y-97774275D01*
X151371471Y-98078521D01*
X151474616Y-98353463D01*
X151624102Y-98601897D01*
X151821074Y-98811273D01*
X152070874Y-98985136D01*
X152351743Y-99106149D01*
X152701767Y-99184880D01*
X153136383Y-99213503D01*
X153564043Y-99185068D01*
X153911696Y-99106507D01*
X154193649Y-98985136D01*
X154444609Y-98811159D01*
X154642147Y-98601770D01*
X154791739Y-98353463D01*
X154894712Y-98078537D01*
X154958371Y-97774290D01*
X154970874Y-97582266D01*
X155809926Y-97582266D01*
X155873838Y-97944536D01*
X155981873Y-98246307D01*
X156130495Y-98497566D01*
X156323734Y-98716698D01*
X156550205Y-98895130D01*
X156813764Y-99035205D01*
X157098102Y-99132602D01*
X157409997Y-99192737D01*
X157753794Y-99213503D01*
X158113342Y-99192845D01*
X158430844Y-99133778D01*
X158711969Y-99039498D01*
X158961575Y-98911557D01*
X159262037Y-98684867D01*
X159508331Y-98408889D01*
X159704378Y-98078079D01*
X159841450Y-97715630D01*
X159926802Y-97308084D01*
X159956559Y-96847705D01*
X159956342Y-96844347D01*
X160687761Y-96844347D01*
X160720142Y-97324322D01*
X160811844Y-97736353D01*
X160957344Y-98091207D01*
X161164850Y-98410141D01*
X161423417Y-98671090D01*
X161738005Y-98879501D01*
X162088717Y-99025589D01*
X162495493Y-99117550D01*
X162968989Y-99150000D01*
X164526038Y-99150000D01*
X165130844Y-99150000D01*
X165787247Y-99150000D01*
X166224441Y-97860397D01*
X168116407Y-97860397D01*
X168574057Y-99150000D01*
X169226796Y-99150000D01*
X167498168Y-94538695D01*
X166835659Y-94538695D01*
X165805479Y-97325200D01*
X165130844Y-99150000D01*
X164526038Y-99150000D01*
X164526038Y-94538695D01*
X162968989Y-94538695D01*
X162493123Y-94571445D01*
X162085325Y-94664167D01*
X161734647Y-94811331D01*
X161420113Y-95020686D01*
X161162073Y-95282163D01*
X160955512Y-95601151D01*
X160810946Y-95955670D01*
X160719891Y-96366554D01*
X160687987Y-96840989D01*
X160687761Y-96844347D01*
X159956342Y-96844347D01*
X159926859Y-96387531D01*
X159841557Y-95978892D01*
X159704378Y-95614279D01*
X159508118Y-95281131D01*
X159261790Y-95004006D01*
X158961575Y-94777137D01*
X158711969Y-94649196D01*
X158430844Y-94554916D01*
X158113342Y-94495849D01*
X157753794Y-94475191D01*
X157441508Y-94493838D01*
X157144571Y-94548935D01*
X156860476Y-94640055D01*
X156594112Y-94770091D01*
X156361768Y-94937198D01*
X156159804Y-95143196D01*
X156002404Y-95382170D01*
X155891751Y-95666957D01*
X155830382Y-96007205D01*
X156467855Y-96007205D01*
X156514335Y-95780491D01*
X156591536Y-95592043D01*
X156697749Y-95435371D01*
X156906835Y-95242506D01*
X157161810Y-95105338D01*
X157445737Y-95024459D01*
X157753794Y-94996955D01*
X158112868Y-95027628D01*
X158405461Y-95113123D01*
X158644670Y-95247915D01*
X158850269Y-95432411D01*
X159015403Y-95653600D01*
X159142009Y-95916530D01*
X159227305Y-96198989D01*
X159280093Y-96508138D01*
X159298325Y-96847705D01*
X159280134Y-97185213D01*
X159227385Y-97493493D01*
X159142009Y-97776133D01*
X159015258Y-98038632D01*
X158850211Y-98258006D01*
X158644975Y-98439558D01*
X158406157Y-98571225D01*
X158113464Y-98654946D01*
X157753794Y-98685022D01*
X157391965Y-98651812D01*
X157095767Y-98558797D01*
X156851927Y-98410860D01*
X156702087Y-98262171D01*
X156585088Y-98079043D01*
X156500455Y-97855275D01*
X156451064Y-97582266D01*
X155809926Y-97582266D01*
X154970874Y-97582266D01*
X154980416Y-97435720D01*
X154980416Y-94538695D01*
X154339279Y-94538695D01*
X154339279Y-97360615D01*
X154315418Y-97724669D01*
X154251144Y-98004302D01*
X154154617Y-98216731D01*
X154029701Y-98375750D01*
X153866998Y-98502397D01*
X153668611Y-98596478D01*
X153427126Y-98656678D01*
X153133025Y-98678306D01*
X152837182Y-98656606D01*
X152595079Y-98596299D01*
X152396935Y-98502213D01*
X152235127Y-98375750D01*
X152110894Y-98216844D01*
X152014831Y-98004468D01*
X151950837Y-97724801D01*
X151927076Y-97360615D01*
X151927076Y-94538695D01*
X151285633Y-94538695D01*
X151285633Y-97435720D01*
X150417655Y-97435720D01*
X150417655Y-97176517D01*
X148693911Y-97176517D01*
X148693911Y-97701639D01*
X147775863Y-97701639D01*
X147775863Y-94538695D01*
X147087709Y-94538695D01*
X145583000Y-97024333D01*
X144106725Y-94538695D01*
X143435668Y-94538695D01*
X143435668Y-99150000D01*
X140145411Y-99150000D01*
X141430129Y-95691521D01*
X140804562Y-95691521D01*
X139827896Y-98531149D01*
X138840849Y-95691521D01*
X138239096Y-95691521D01*
X137609560Y-95691521D01*
X137609560Y-95460406D01*
X137328670Y-95391751D01*
X137076500Y-95286688D01*
X136845152Y-95150661D01*
X136648159Y-94999703D01*
X136476823Y-94834295D01*
X136354762Y-94685240D01*
X135810406Y-94685240D01*
X135810406Y-99150000D01*
X133514523Y-99150000D01*
X133694680Y-99117511D01*
X133839061Y-99022383D01*
X133935761Y-98880797D01*
X133968204Y-98709752D01*
X133935327Y-98533298D01*
X133839061Y-98393763D01*
X133694971Y-98301478D01*
X133514523Y-98269809D01*
X133337621Y-98301527D01*
X133197008Y-98394068D01*
X133103104Y-98533313D01*
X133070917Y-98709752D01*
X131748774Y-98709752D01*
X131861304Y-98546414D01*
X132014072Y-98214861D01*
X132122034Y-97819792D01*
X132181834Y-97397435D01*
X132202634Y-96928611D01*
X132181799Y-96453445D01*
X132122034Y-96027355D01*
X132013988Y-95628872D01*
X131861304Y-95295542D01*
X131726476Y-95098839D01*
X131567667Y-94935819D01*
X131383199Y-94803393D01*
X131177712Y-94707975D01*
X130936547Y-94647892D01*
X130652302Y-94626622D01*
X130368173Y-94647718D01*
X130127098Y-94707296D01*
X129921711Y-94801866D01*
X129737367Y-94933398D01*
X129579187Y-95096257D01*
X129445437Y-95293710D01*
X129293785Y-95628307D01*
X129186235Y-96025828D01*
X129126454Y-96449917D01*
X129105635Y-96921894D01*
X128550079Y-96921894D01*
X128550079Y-93919635D01*
X169782352Y-93919635D01*
X169782352Y-99769059D01*
G37*
%LPC*%
D11*
%TO.C,C3*%
X171847349Y-111750000D03*
D12*
X168347349Y-111750000D03*
%TD*%
D13*
%TO.C,H6*%
X171500000Y-74500000D03*
D14*
X171500000Y-74500000D03*
%TD*%
D15*
%TO.C,J9*%
X141500000Y-120900000D03*
X139000000Y-120900000D03*
D16*
X136500000Y-120900000D03*
%TD*%
D14*
%TO.C,H5*%
X128500000Y-74500000D03*
D13*
X128500000Y-74500000D03*
%TD*%
D15*
%TO.C,J7*%
X163500000Y-120900000D03*
X161000000Y-120900000D03*
D16*
X158500000Y-120900000D03*
%TD*%
D13*
%TO.C,H7*%
X128500000Y-122500000D03*
D14*
X128500000Y-122500000D03*
%TD*%
D15*
%TO.C,J8*%
X152500000Y-120900000D03*
X150000000Y-120900000D03*
D16*
X147500000Y-120900000D03*
%TD*%
D13*
%TO.C,H8*%
X171500000Y-122500000D03*
D14*
X171500000Y-122500000D03*
%TD*%
D17*
%TO.C,J6*%
X128000000Y-96290000D03*
D18*
X132180000Y-96290000D03*
D17*
X128000000Y-87650000D03*
D18*
X132180000Y-87650000D03*
D19*
X131650000Y-94860000D03*
X131650000Y-89080000D03*
%TD*%
%LPD*%
M02*
