%TF.GenerationSoftware,KiCad,Pcbnew,10.0.0*%
%TF.CreationDate,2026-07-10T03:55:22+10:00*%
%TF.ProjectId,Active-Damper-Master,41637469-7665-42d4-9461-6d7065722d4d,rev?*%
%TF.SameCoordinates,Original*%
%TF.FileFunction,Legend,Top*%
%TF.FilePolarity,Positive*%
%FSLAX46Y46*%
G04 Gerber Fmt 4.6, Leading zero omitted, Abs format (unit mm)*
G04 Created by KiCad (PCBNEW 10.0.0) date 2026-07-10 03:55:22*
%MOMM*%
%LPD*%
G01*
G04 APERTURE LIST*
G04 Aperture macros list*
%AMRoundRect*
0 Rectangle with rounded corners*
0 $1 Rounding radius*
0 $2 $3 $4 $5 $6 $7 $8 $9 X,Y pos of 4 corners*
0 Add a 4 corners polygon primitive as box body*
4,1,4,$2,$3,$4,$5,$6,$7,$8,$9,$2,$3,0*
0 Add four circle primitives for the rounded corners*
1,1,$1+$1,$2,$3*
1,1,$1+$1,$4,$5*
1,1,$1+$1,$6,$7*
1,1,$1+$1,$8,$9*
0 Add four rect primitives between the rounded corners*
20,1,$1+$1,$2,$3,$4,$5,0*
20,1,$1+$1,$4,$5,$6,$7,0*
20,1,$1+$1,$6,$7,$8,$9,0*
20,1,$1+$1,$8,$9,$2,$3,0*%
%AMFreePoly0*
4,1,23,0.000000,0.745722,0.065263,0.745722,0.191342,0.711940,0.304381,0.646677,0.396677,0.554381,0.461940,0.441342,0.495722,0.315263,0.495722,0.250000,0.500000,0.250000,0.500000,-0.250000,0.495722,-0.250000,0.495722,-0.315263,0.461940,-0.441342,0.396677,-0.554381,0.304381,-0.646677,0.191342,-0.711940,0.065263,-0.745722,0.000000,-0.745722,0.000000,-0.750000,-0.500000,-0.750000,
-0.500000,0.750000,0.000000,0.750000,0.000000,0.745722,0.000000,0.745722,$1*%
%AMFreePoly1*
4,1,23,0.500000,-0.750000,0.000000,-0.750000,0.000000,-0.745722,-0.065263,-0.745722,-0.191342,-0.711940,-0.304381,-0.646677,-0.396677,-0.554381,-0.461940,-0.441342,-0.495722,-0.315263,-0.495722,-0.250000,-0.500000,-0.250000,-0.500000,0.250000,-0.495722,0.250000,-0.495722,0.315263,-0.461940,0.441342,-0.396677,0.554381,-0.304381,0.646677,-0.191342,0.711940,-0.065263,0.745722,0.000000,0.745722,
0.000000,0.750000,0.500000,0.750000,0.500000,-0.750000,0.500000,-0.750000,$1*%
%AMFreePoly2*
4,1,23,0.000000,0.745722,0.065263,0.745722,0.191342,0.711940,0.304381,0.646677,0.396677,0.554381,0.461940,0.441342,0.495722,0.315263,0.495722,0.250000,0.500000,0.250000,0.500000,-0.250000,0.495722,-0.250000,0.495722,-0.315263,0.461940,-0.441342,0.396677,-0.554381,0.304381,-0.646677,0.191342,-0.711940,0.065263,-0.745722,0.000000,-0.745722,0.000000,-0.750000,-0.550000,-0.750000,
-0.550000,0.750000,0.000000,0.750000,0.000000,0.745722,0.000000,0.745722,$1*%
%AMFreePoly3*
4,1,23,0.550000,-0.750000,0.000000,-0.750000,0.000000,-0.745722,-0.065263,-0.745722,-0.191342,-0.711940,-0.304381,-0.646677,-0.396677,-0.554381,-0.461940,-0.441342,-0.495722,-0.315263,-0.495722,-0.250000,-0.500000,-0.250000,-0.500000,0.250000,-0.495722,0.250000,-0.495722,0.315263,-0.461940,0.441342,-0.396677,0.554381,-0.304381,0.646677,-0.191342,0.711940,-0.065263,0.745722,0.000000,0.745722,
0.000000,0.750000,0.550000,0.750000,0.550000,-0.750000,0.550000,-0.750000,$1*%
G04 Aperture macros list end*
%ADD10C,0.300000*%
%ADD11C,0.120000*%
%ADD12C,0.100000*%
%ADD13C,0.200000*%
%ADD14C,0.000000*%
%ADD15C,0.150000*%
%ADD16C,0.203200*%
%ADD17RoundRect,0.225000X-0.225000X-0.250000X0.225000X-0.250000X0.225000X0.250000X-0.225000X0.250000X0*%
%ADD18RoundRect,0.225000X0.250000X-0.225000X0.250000X0.225000X-0.250000X0.225000X-0.250000X-0.225000X0*%
%ADD19C,1.600000*%
%ADD20RoundRect,0.250000X-0.550000X-0.550000X0.550000X-0.550000X0.550000X0.550000X-0.550000X0.550000X0*%
%ADD21RoundRect,0.200000X-0.275000X0.200000X-0.275000X-0.200000X0.275000X-0.200000X0.275000X0.200000X0*%
%ADD22RoundRect,0.200000X-0.200000X-0.275000X0.200000X-0.275000X0.200000X0.275000X-0.200000X0.275000X0*%
%ADD23RoundRect,0.200000X0.200000X0.275000X-0.200000X0.275000X-0.200000X-0.275000X0.200000X-0.275000X0*%
%ADD24RoundRect,0.200000X0.275000X-0.200000X0.275000X0.200000X-0.275000X0.200000X-0.275000X-0.200000X0*%
%ADD25FreePoly0,90.000000*%
%ADD26FreePoly1,90.000000*%
%ADD27RoundRect,0.225000X0.225000X0.250000X-0.225000X0.250000X-0.225000X-0.250000X0.225000X-0.250000X0*%
%ADD28R,0.800000X0.800000*%
%ADD29R,1.500000X0.900000*%
%ADD30C,5.500000*%
%ADD31C,3.600000*%
%ADD32O,1.700000X1.950000*%
%ADD33RoundRect,0.250000X-0.600000X-0.725000X0.600000X-0.725000X0.600000X0.725000X-0.600000X0.725000X0*%
%ADD34RoundRect,0.250000X0.750000X-0.275000X0.750000X0.275000X-0.750000X0.275000X-0.750000X-0.275000X0*%
%ADD35RoundRect,0.225000X-0.250000X0.225000X-0.250000X-0.225000X0.250000X-0.225000X0.250000X0.225000X0*%
%ADD36RoundRect,0.250000X-0.750000X0.275000X-0.750000X-0.275000X0.750000X-0.275000X0.750000X0.275000X0*%
%ADD37RoundRect,0.200000X-0.200000X0.250000X-0.200000X-0.250000X0.200000X-0.250000X0.200000X0.250000X0*%
%ADD38RoundRect,0.625000X1.125000X-0.625000X1.125000X0.625000X-1.125000X0.625000X-1.125000X-0.625000X0*%
%ADD39O,0.600000X1.300000*%
%ADD40RoundRect,0.375000X0.375000X-0.625000X0.375000X0.625000X-0.375000X0.625000X-0.375000X-0.625000X0*%
%ADD41RoundRect,0.500000X1.400000X-0.500000X1.400000X0.500000X-1.400000X0.500000X-1.400000X-0.500000X0*%
%ADD42R,1.500000X1.000000*%
%ADD43RoundRect,0.087500X0.187500X-0.087500X0.187500X0.087500X-0.187500X0.087500X-0.187500X-0.087500X0*%
%ADD44RoundRect,0.087500X0.087500X-0.187500X0.087500X0.187500X-0.087500X0.187500X-0.087500X-0.187500X0*%
%ADD45RoundRect,0.260556X1.027444X0.677444X-1.027444X0.677444X-1.027444X-0.677444X1.027444X-0.677444X0*%
%ADD46RoundRect,0.218750X-0.218750X-0.256250X0.218750X-0.256250X0.218750X0.256250X-0.218750X0.256250X0*%
%ADD47R,3.500000X1.850000*%
%ADD48RoundRect,0.250000X-0.262500X-0.450000X0.262500X-0.450000X0.262500X0.450000X-0.262500X0.450000X0*%
%ADD49FreePoly2,90.000000*%
%ADD50FreePoly3,90.000000*%
%ADD51RoundRect,0.150000X0.150000X-0.587500X0.150000X0.587500X-0.150000X0.587500X-0.150000X-0.587500X0*%
%ADD52O,1.600000X1.000000*%
%ADD53O,2.100000X1.000000*%
%ADD54RoundRect,0.150000X-0.575000X0.150000X-0.575000X-0.150000X0.575000X-0.150000X0.575000X0.150000X0*%
%ADD55RoundRect,0.075000X-0.650000X0.075000X-0.650000X-0.075000X0.650000X-0.075000X0.650000X0.075000X0*%
%ADD56C,0.650000*%
%ADD57RoundRect,0.250000X0.262500X0.450000X-0.262500X0.450000X-0.262500X-0.450000X0.262500X-0.450000X0*%
%ADD58RoundRect,0.150000X-0.150000X0.825000X-0.150000X-0.825000X0.150000X-0.825000X0.150000X0.825000X0*%
%ADD59RoundRect,0.260556X-1.027444X-0.677444X1.027444X-0.677444X1.027444X0.677444X-1.027444X0.677444X0*%
%ADD60RoundRect,0.260556X0.677444X-1.027444X0.677444X1.027444X-0.677444X1.027444X-0.677444X-1.027444X0*%
G04 APERTURE END LIST*
D10*
G36*
X159496472Y-116776894D02*
G01*
X159562097Y-116799000D01*
X159616726Y-116834541D01*
X159657890Y-116883392D01*
X159684109Y-116949151D01*
X159693754Y-117037323D01*
X159684329Y-117119251D01*
X159658454Y-117181330D01*
X159617275Y-117228382D01*
X159563155Y-117262380D01*
X159497388Y-117283699D01*
X159416966Y-117291305D01*
X159120669Y-117291305D01*
X159120669Y-116769053D01*
X159416966Y-116769053D01*
X159496472Y-116776894D01*
G37*
G36*
X162601952Y-116779121D02*
G01*
X162665832Y-116800798D01*
X162714427Y-116834449D01*
X162750931Y-116880597D01*
X162773618Y-116938374D01*
X162781747Y-117011220D01*
X162772403Y-117082358D01*
X162745843Y-117139814D01*
X162703977Y-117186484D01*
X162649123Y-117221147D01*
X162585679Y-117242034D01*
X162513110Y-117249265D01*
X162202525Y-117249265D01*
X162202525Y-116771160D01*
X162518239Y-116771160D01*
X162601952Y-116779121D01*
G37*
G36*
X163211280Y-118161667D02*
G01*
X158763675Y-118161667D01*
X158763675Y-117291305D01*
X158930342Y-117291305D01*
X158930342Y-117995000D01*
X159120669Y-117995000D01*
X159120669Y-117449849D01*
X159431254Y-117449849D01*
X159516065Y-117444358D01*
X159592985Y-117428440D01*
X159663162Y-117402588D01*
X159727636Y-117365738D01*
X159781612Y-117319630D01*
X159826195Y-117263645D01*
X159858615Y-117200044D01*
X159878920Y-117125415D01*
X159886095Y-117037323D01*
X159878937Y-116947225D01*
X159858637Y-116870399D01*
X159826195Y-116804499D01*
X159781427Y-116746123D01*
X159727422Y-116698355D01*
X159663162Y-116660426D01*
X159592907Y-116633700D01*
X159515995Y-116617270D01*
X159431254Y-116611608D01*
X159960009Y-116611608D01*
X160365483Y-117995000D01*
X160565609Y-117995000D01*
X160897444Y-116837930D01*
X161234407Y-117995000D01*
X161431511Y-117995000D01*
X161649494Y-117249265D01*
X162012199Y-117249265D01*
X162012199Y-117995000D01*
X162202525Y-117995000D01*
X162202525Y-117408817D01*
X162523368Y-117408817D01*
X162596121Y-117417243D01*
X162647749Y-117439774D01*
X162688850Y-117476911D01*
X162722213Y-117530358D01*
X162747357Y-117593633D01*
X162770573Y-117675072D01*
X162849982Y-117995000D01*
X163044613Y-117995000D01*
X162953480Y-117644938D01*
X162925454Y-117551461D01*
X162895320Y-117480166D01*
X162856686Y-117419236D01*
X162810964Y-117373920D01*
X162757075Y-117342000D01*
X162697117Y-117325286D01*
X162777446Y-117298034D01*
X162843714Y-117257538D01*
X162898159Y-117203469D01*
X162938784Y-117138357D01*
X162963500Y-117064456D01*
X162972073Y-116979438D01*
X162964888Y-116895021D01*
X162944811Y-116825819D01*
X162913088Y-116768870D01*
X162869620Y-116719704D01*
X162817496Y-116680115D01*
X162755552Y-116649618D01*
X162653383Y-116621424D01*
X162536649Y-116611608D01*
X162012199Y-116611608D01*
X162012199Y-117249265D01*
X161649494Y-117249265D01*
X161835886Y-116611608D01*
X161645285Y-116611608D01*
X161333875Y-117752924D01*
X161006254Y-116611608D01*
X160795869Y-116611608D01*
X160469255Y-117752924D01*
X160159861Y-116611608D01*
X159960009Y-116611608D01*
X159431254Y-116611608D01*
X158930342Y-116611608D01*
X158930342Y-117291305D01*
X158763675Y-117291305D01*
X158763675Y-116444941D01*
X163211280Y-116444941D01*
X163211280Y-118161667D01*
G37*
G36*
X149543898Y-117447560D02*
G01*
X149083012Y-117447560D01*
X149314462Y-116806422D01*
X149543898Y-117447560D01*
G37*
G36*
X152602095Y-118180717D02*
G01*
X147193975Y-118180717D01*
X147193975Y-117304311D01*
X147360642Y-117304311D01*
X147369569Y-117442425D01*
X147395174Y-117564689D01*
X147436296Y-117673423D01*
X147495110Y-117772666D01*
X147568998Y-117855460D01*
X147659137Y-117923467D01*
X147734019Y-117961849D01*
X147818356Y-117990133D01*
X147913607Y-118007853D01*
X148021471Y-118014050D01*
X148124610Y-118007821D01*
X148191106Y-117995000D01*
X148697505Y-117995000D01*
X148893326Y-117995000D01*
X149030621Y-117608119D01*
X149598211Y-117608119D01*
X149729370Y-117995000D01*
X149926290Y-117995000D01*
X150107732Y-117995000D01*
X150287800Y-117995000D01*
X150287800Y-116903326D01*
X151040496Y-117995000D01*
X151233570Y-117995000D01*
X151233570Y-117855506D01*
X151504221Y-117855506D01*
X151504221Y-117995000D01*
X152435428Y-117995000D01*
X152435428Y-117837463D01*
X151748495Y-117837463D01*
X152094251Y-117527885D01*
X152174680Y-117452090D01*
X152246201Y-117377401D01*
X152308499Y-117298250D01*
X152355744Y-117215285D01*
X152386076Y-117125388D01*
X152396502Y-117024043D01*
X152390717Y-116947169D01*
X152374137Y-116879762D01*
X152347409Y-116820252D01*
X152309970Y-116767173D01*
X152262673Y-116722581D01*
X152204344Y-116685888D01*
X152140049Y-116660105D01*
X152064778Y-116643775D01*
X151976465Y-116637986D01*
X151880064Y-116644289D01*
X151799316Y-116661931D01*
X151731642Y-116689552D01*
X151670807Y-116729074D01*
X151622012Y-116777246D01*
X151583997Y-116834815D01*
X151557441Y-116899069D01*
X151540826Y-116972591D01*
X151534996Y-117057107D01*
X151711950Y-117057107D01*
X151719236Y-116983166D01*
X151739858Y-116921547D01*
X151773133Y-116869712D01*
X151819246Y-116831162D01*
X151884751Y-116805992D01*
X151976465Y-116796530D01*
X152057546Y-116805018D01*
X152115856Y-116827684D01*
X152157266Y-116862568D01*
X152187195Y-116909273D01*
X152205753Y-116964837D01*
X152212312Y-117031553D01*
X152206291Y-117096253D01*
X152188170Y-117159159D01*
X152157266Y-117221238D01*
X152090577Y-117310769D01*
X151979579Y-117422555D01*
X151504221Y-117855506D01*
X151233570Y-117855506D01*
X151233570Y-116611608D01*
X151052494Y-116611608D01*
X151052494Y-117701175D01*
X150300806Y-116611608D01*
X150107732Y-116611608D01*
X150107732Y-117995000D01*
X149926290Y-117995000D01*
X149414846Y-116611608D01*
X149216093Y-116611608D01*
X148902722Y-117447560D01*
X148697505Y-117995000D01*
X148191106Y-117995000D01*
X148218179Y-117989780D01*
X148303480Y-117960561D01*
X148382548Y-117918539D01*
X148450489Y-117865009D01*
X148508461Y-117799269D01*
X148553047Y-117723892D01*
X148585458Y-117633361D01*
X148604631Y-117524679D01*
X148412290Y-117524679D01*
X148397473Y-117606582D01*
X148372083Y-117673712D01*
X148336983Y-117728651D01*
X148292031Y-117773258D01*
X148218879Y-117817639D01*
X148130020Y-117845543D01*
X148021471Y-117855506D01*
X147913570Y-117846483D01*
X147825762Y-117821367D01*
X147754117Y-117781867D01*
X147692546Y-117727402D01*
X147643032Y-117661589D01*
X147605006Y-117582840D01*
X147579394Y-117498047D01*
X147563569Y-117405564D01*
X147558112Y-117304311D01*
X147563581Y-117202441D01*
X147579418Y-117109696D01*
X147605006Y-117024959D01*
X147642988Y-116946080D01*
X147692529Y-116879723D01*
X147754208Y-116824374D01*
X147825971Y-116783937D01*
X147913749Y-116758288D01*
X148021471Y-116749086D01*
X148113888Y-116757337D01*
X148199066Y-116781601D01*
X148275559Y-116822751D01*
X148338285Y-116880611D01*
X148370148Y-116927612D01*
X148393309Y-116984147D01*
X148407253Y-117052161D01*
X148598495Y-117052161D01*
X148580084Y-116950087D01*
X148546888Y-116864651D01*
X148499668Y-116792958D01*
X148439079Y-116731159D01*
X148369376Y-116681027D01*
X148289467Y-116642016D01*
X148204238Y-116614680D01*
X148115157Y-116598151D01*
X148021471Y-116592557D01*
X147913607Y-116598754D01*
X147818356Y-116616474D01*
X147734019Y-116644759D01*
X147659137Y-116683141D01*
X147569072Y-116751201D01*
X147495174Y-116834339D01*
X147436296Y-116934283D01*
X147395142Y-117043667D01*
X147369552Y-117166259D01*
X147360642Y-117304311D01*
X147193975Y-117304311D01*
X147193975Y-116425890D01*
X152602095Y-116425890D01*
X152602095Y-118180717D01*
G37*
G36*
X138793898Y-117447560D02*
G01*
X138333012Y-117447560D01*
X138564462Y-116806422D01*
X138793898Y-117447560D01*
G37*
G36*
X141562117Y-118180717D02*
G01*
X136443975Y-118180717D01*
X136443975Y-117304311D01*
X136610642Y-117304311D01*
X136619569Y-117442425D01*
X136645174Y-117564689D01*
X136686296Y-117673423D01*
X136745110Y-117772666D01*
X136818998Y-117855460D01*
X136909137Y-117923467D01*
X136984019Y-117961849D01*
X137068356Y-117990133D01*
X137163607Y-118007853D01*
X137271471Y-118014050D01*
X137374610Y-118007821D01*
X137441106Y-117995000D01*
X137947505Y-117995000D01*
X138143326Y-117995000D01*
X138280621Y-117608119D01*
X138848211Y-117608119D01*
X138979370Y-117995000D01*
X139176290Y-117995000D01*
X139357732Y-117995000D01*
X139537800Y-117995000D01*
X139537800Y-116903326D01*
X140290496Y-117995000D01*
X140483570Y-117995000D01*
X140483570Y-116888121D01*
X140855704Y-116888121D01*
X140855704Y-117055916D01*
X140942440Y-117038988D01*
X141015439Y-117015616D01*
X141082198Y-116985343D01*
X141136523Y-116952785D01*
X141182858Y-116916447D01*
X141210253Y-116886656D01*
X141210253Y-117995000D01*
X141395450Y-117995000D01*
X141395450Y-116655572D01*
X141232144Y-116655572D01*
X141195525Y-116700288D01*
X141144125Y-116749911D01*
X141085027Y-116795198D01*
X141015622Y-116836006D01*
X140939971Y-116867525D01*
X140855704Y-116888121D01*
X140483570Y-116888121D01*
X140483570Y-116611608D01*
X140302494Y-116611608D01*
X140302494Y-117701175D01*
X139550806Y-116611608D01*
X139357732Y-116611608D01*
X139357732Y-117995000D01*
X139176290Y-117995000D01*
X138664846Y-116611608D01*
X138466093Y-116611608D01*
X138152722Y-117447560D01*
X137947505Y-117995000D01*
X137441106Y-117995000D01*
X137468179Y-117989780D01*
X137553480Y-117960561D01*
X137632548Y-117918539D01*
X137700489Y-117865009D01*
X137758461Y-117799269D01*
X137803047Y-117723892D01*
X137835458Y-117633361D01*
X137854631Y-117524679D01*
X137662290Y-117524679D01*
X137647473Y-117606582D01*
X137622083Y-117673712D01*
X137586983Y-117728651D01*
X137542031Y-117773258D01*
X137468879Y-117817639D01*
X137380020Y-117845543D01*
X137271471Y-117855506D01*
X137163570Y-117846483D01*
X137075762Y-117821367D01*
X137004117Y-117781867D01*
X136942546Y-117727402D01*
X136893032Y-117661589D01*
X136855006Y-117582840D01*
X136829394Y-117498047D01*
X136813569Y-117405564D01*
X136808112Y-117304311D01*
X136813581Y-117202441D01*
X136829418Y-117109696D01*
X136855006Y-117024959D01*
X136892988Y-116946080D01*
X136942529Y-116879723D01*
X137004208Y-116824374D01*
X137075971Y-116783937D01*
X137163749Y-116758288D01*
X137271471Y-116749086D01*
X137363888Y-116757337D01*
X137449066Y-116781601D01*
X137525559Y-116822751D01*
X137588285Y-116880611D01*
X137620148Y-116927612D01*
X137643309Y-116984147D01*
X137657253Y-117052161D01*
X137848495Y-117052161D01*
X137830084Y-116950087D01*
X137796888Y-116864651D01*
X137749668Y-116792958D01*
X137689079Y-116731159D01*
X137619376Y-116681027D01*
X137539467Y-116642016D01*
X137454238Y-116614680D01*
X137365157Y-116598151D01*
X137271471Y-116592557D01*
X137163607Y-116598754D01*
X137068356Y-116616474D01*
X136984019Y-116644759D01*
X136909137Y-116683141D01*
X136819072Y-116751201D01*
X136745174Y-116834339D01*
X136686296Y-116934283D01*
X136645142Y-117043667D01*
X136619552Y-117166259D01*
X136610642Y-117304311D01*
X136443975Y-117304311D01*
X136443975Y-116425890D01*
X141562117Y-116425890D01*
X141562117Y-118180717D01*
G37*
%TO.C,C2*%
D11*
X138025000Y-76699998D02*
G75*
G02*
X138025000Y-78300000I-840224J-800001D01*
G01*
X135425000Y-78300002D02*
G75*
G02*
X135425000Y-76700000I840224J800001D01*
G01*
X138025000Y-76699998D02*
X135425000Y-76700000D01*
X135425000Y-78300002D02*
X138025000Y-78300000D01*
%TO.C,C15*%
X158300002Y-115800000D02*
G75*
G02*
X156700000Y-115800000I-800001J840224D01*
G01*
X156699998Y-113200000D02*
G75*
G02*
X158300000Y-113200000I800001J-840224D01*
G01*
X158300002Y-115800000D02*
X158300000Y-113200000D01*
X156699998Y-113200000D02*
X156700000Y-115800000D01*
%TO.C,C3*%
X174217349Y-111750000D02*
G75*
G02*
X165977349Y-111750000I-4120000J0D01*
G01*
X165977349Y-111750000D02*
G75*
G02*
X174217349Y-111750000I4120000J0D01*
G01*
X174177349Y-111217000D02*
X174177349Y-112283000D01*
X174137349Y-110982000D02*
X174137349Y-112518000D01*
X174097349Y-110803000D02*
X174097349Y-112697000D01*
X174057349Y-110653000D02*
X174057349Y-112847000D01*
X174017349Y-110522000D02*
X174017349Y-112978000D01*
X173977349Y-110404000D02*
X173977349Y-113096000D01*
X173937349Y-110297000D02*
X173937349Y-113203000D01*
X173897349Y-110198000D02*
X173897349Y-113302000D01*
X173857349Y-110106000D02*
X173857349Y-113394000D01*
X173817349Y-110019000D02*
X173817349Y-113481000D01*
X173777349Y-109937000D02*
X173777349Y-113563000D01*
X173737349Y-109860000D02*
X173737349Y-113640000D01*
X173697349Y-109786000D02*
X173697349Y-113714000D01*
X173657349Y-109716000D02*
X173657349Y-113784000D01*
X173617349Y-109649000D02*
X173617349Y-113851000D01*
X173577349Y-109585000D02*
X173577349Y-113915000D01*
X173537349Y-109523000D02*
X173537349Y-113977000D01*
X173497349Y-109463000D02*
X173497349Y-114037000D01*
X173457349Y-109406000D02*
X173457349Y-114094000D01*
X173417349Y-109350000D02*
X173417349Y-114150000D01*
X173377349Y-109297000D02*
X173377349Y-114203000D01*
X173337349Y-109245000D02*
X173337349Y-114255000D01*
X173297349Y-109195000D02*
X173297349Y-114305000D01*
X173257349Y-109146000D02*
X173257349Y-114354000D01*
X173217349Y-109099000D02*
X173217349Y-114401000D01*
X173177349Y-109054000D02*
X173177349Y-114446000D01*
X173137349Y-109009000D02*
X173137349Y-114491000D01*
X173097349Y-108966000D02*
X173097349Y-114534000D01*
X173057349Y-108924000D02*
X173057349Y-114576000D01*
X173017349Y-108883000D02*
X173017349Y-114617000D01*
X172977349Y-108844000D02*
X172977349Y-114656000D01*
X172937349Y-108805000D02*
X172937349Y-114695000D01*
X172897349Y-108768000D02*
X172897349Y-114732000D01*
X172857349Y-112790000D02*
X172857349Y-114769000D01*
X172857349Y-108731000D02*
X172857349Y-110710000D01*
X172817349Y-112790000D02*
X172817349Y-114805000D01*
X172817349Y-108695000D02*
X172817349Y-110710000D01*
X172777349Y-112790000D02*
X172777349Y-114839000D01*
X172777349Y-108661000D02*
X172777349Y-110710000D01*
X172737349Y-112790000D02*
X172737349Y-114873000D01*
X172737349Y-108627000D02*
X172737349Y-110710000D01*
X172697349Y-112790000D02*
X172697349Y-114906000D01*
X172697349Y-108594000D02*
X172697349Y-110710000D01*
X172657349Y-112790000D02*
X172657349Y-114938000D01*
X172657349Y-108562000D02*
X172657349Y-110710000D01*
X172617349Y-112790000D02*
X172617349Y-114969000D01*
X172617349Y-108531000D02*
X172617349Y-110710000D01*
X172577349Y-112790000D02*
X172577349Y-115000000D01*
X172577349Y-108500000D02*
X172577349Y-110710000D01*
X172537349Y-112790000D02*
X172537349Y-115030000D01*
X172537349Y-108470000D02*
X172537349Y-110710000D01*
X172497349Y-112790000D02*
X172497349Y-115059000D01*
X172497349Y-108441000D02*
X172497349Y-110710000D01*
X172457349Y-112790000D02*
X172457349Y-115087000D01*
X172457349Y-108413000D02*
X172457349Y-110710000D01*
X172417349Y-112790000D02*
X172417349Y-115115000D01*
X172417349Y-108385000D02*
X172417349Y-110710000D01*
X172377349Y-112790000D02*
X172377349Y-115142000D01*
X172377349Y-108358000D02*
X172377349Y-110710000D01*
X172337349Y-112790000D02*
X172337349Y-115168000D01*
X172337349Y-108332000D02*
X172337349Y-110710000D01*
X172297349Y-112790000D02*
X172297349Y-115193000D01*
X172297349Y-108307000D02*
X172297349Y-110710000D01*
X172257349Y-112790000D02*
X172257349Y-115218000D01*
X172257349Y-108282000D02*
X172257349Y-110710000D01*
X172217349Y-112790000D02*
X172217349Y-115243000D01*
X172217349Y-108257000D02*
X172217349Y-110710000D01*
X172177349Y-112790000D02*
X172177349Y-115266000D01*
X172177349Y-108234000D02*
X172177349Y-110710000D01*
X172137349Y-112790000D02*
X172137349Y-115289000D01*
X172137349Y-108211000D02*
X172137349Y-110710000D01*
X172097349Y-112790000D02*
X172097349Y-115312000D01*
X172097349Y-108188000D02*
X172097349Y-110710000D01*
X172057349Y-112790000D02*
X172057349Y-115334000D01*
X172057349Y-108166000D02*
X172057349Y-110710000D01*
X172017349Y-112790000D02*
X172017349Y-115355000D01*
X172017349Y-108145000D02*
X172017349Y-110710000D01*
X171977349Y-112790000D02*
X171977349Y-115376000D01*
X171977349Y-108124000D02*
X171977349Y-110710000D01*
X171937349Y-112790000D02*
X171937349Y-115396000D01*
X171937349Y-108104000D02*
X171937349Y-110710000D01*
X171897349Y-112790000D02*
X171897349Y-115416000D01*
X171897349Y-108084000D02*
X171897349Y-110710000D01*
X171857349Y-112790000D02*
X171857349Y-115435000D01*
X171857349Y-108065000D02*
X171857349Y-110710000D01*
X171817349Y-112790000D02*
X171817349Y-115454000D01*
X171817349Y-108046000D02*
X171817349Y-110710000D01*
X171777349Y-112790000D02*
X171777349Y-115472000D01*
X171777349Y-108028000D02*
X171777349Y-110710000D01*
X171737349Y-112790000D02*
X171737349Y-115490000D01*
X171737349Y-108010000D02*
X171737349Y-110710000D01*
X171697349Y-112790000D02*
X171697349Y-115507000D01*
X171697349Y-107993000D02*
X171697349Y-110710000D01*
X171657349Y-112790000D02*
X171657349Y-115523000D01*
X171657349Y-107977000D02*
X171657349Y-110710000D01*
X171617349Y-112790000D02*
X171617349Y-115539000D01*
X171617349Y-107961000D02*
X171617349Y-110710000D01*
X171577349Y-112790000D02*
X171577349Y-115555000D01*
X171577349Y-107945000D02*
X171577349Y-110710000D01*
X171537349Y-112790000D02*
X171537349Y-115570000D01*
X171537349Y-107930000D02*
X171537349Y-110710000D01*
X171497349Y-112790000D02*
X171497349Y-115585000D01*
X171497349Y-107915000D02*
X171497349Y-110710000D01*
X171457349Y-112790000D02*
X171457349Y-115599000D01*
X171457349Y-107901000D02*
X171457349Y-110710000D01*
X171417349Y-112790000D02*
X171417349Y-115613000D01*
X171417349Y-107887000D02*
X171417349Y-110710000D01*
X171377349Y-112790000D02*
X171377349Y-115626000D01*
X171377349Y-107874000D02*
X171377349Y-110710000D01*
X171337349Y-112790000D02*
X171337349Y-115639000D01*
X171337349Y-107861000D02*
X171337349Y-110710000D01*
X171297349Y-112790000D02*
X171297349Y-115651000D01*
X171297349Y-107849000D02*
X171297349Y-110710000D01*
X171257349Y-112790000D02*
X171257349Y-115663000D01*
X171257349Y-107837000D02*
X171257349Y-110710000D01*
X171217349Y-112790000D02*
X171217349Y-115675000D01*
X171217349Y-107825000D02*
X171217349Y-110710000D01*
X171177349Y-112790000D02*
X171177349Y-115686000D01*
X171177349Y-107814000D02*
X171177349Y-110710000D01*
X171137349Y-112790000D02*
X171137349Y-115697000D01*
X171137349Y-107803000D02*
X171137349Y-110710000D01*
X171097349Y-112790000D02*
X171097349Y-115707000D01*
X171097349Y-107793000D02*
X171097349Y-110710000D01*
X171057349Y-112790000D02*
X171057349Y-115717000D01*
X171057349Y-107783000D02*
X171057349Y-110710000D01*
X171017349Y-112790000D02*
X171017349Y-115726000D01*
X171017349Y-107774000D02*
X171017349Y-110710000D01*
X170977349Y-112790000D02*
X170977349Y-115735000D01*
X170977349Y-107765000D02*
X170977349Y-110710000D01*
X170937349Y-112790000D02*
X170937349Y-115743000D01*
X170937349Y-107757000D02*
X170937349Y-110710000D01*
X170897349Y-112790000D02*
X170897349Y-115752000D01*
X170897349Y-107748000D02*
X170897349Y-110710000D01*
X170857349Y-112790000D02*
X170857349Y-115759000D01*
X170857349Y-107741000D02*
X170857349Y-110710000D01*
X170817349Y-112790000D02*
X170817349Y-115767000D01*
X170817349Y-107733000D02*
X170817349Y-110710000D01*
X170777349Y-107727000D02*
X170777349Y-115773000D01*
X170737349Y-107720000D02*
X170737349Y-115780000D01*
X170697349Y-107714000D02*
X170697349Y-115786000D01*
X170657349Y-107708000D02*
X170657349Y-115792000D01*
X170617349Y-107703000D02*
X170617349Y-115797000D01*
X170577349Y-107698000D02*
X170577349Y-115802000D01*
X170537349Y-107694000D02*
X170537349Y-115806000D01*
X170497349Y-107689000D02*
X170497349Y-115811000D01*
X170457349Y-107686000D02*
X170457349Y-115814000D01*
X170417349Y-107682000D02*
X170417349Y-115818000D01*
X170377349Y-107680000D02*
X170377349Y-115820000D01*
X170337349Y-107677000D02*
X170337349Y-115823000D01*
X170297349Y-107675000D02*
X170297349Y-115825000D01*
X170257349Y-107673000D02*
X170257349Y-115827000D01*
X170217349Y-107672000D02*
X170217349Y-115828000D01*
X170177349Y-107671000D02*
X170177349Y-115829000D01*
X170137349Y-107670000D02*
X170137349Y-115830000D01*
X170097349Y-107670000D02*
X170097349Y-115830000D01*
X166087651Y-109035000D02*
X166087651Y-109835000D01*
X165687651Y-109435000D02*
X166487651Y-109435000D01*
%TO.C,R23*%
X138300000Y-81750000D02*
X138300000Y-78750000D01*
X138300000Y-78750000D02*
X136700000Y-78750000D01*
X136700000Y-81750000D02*
X138300000Y-81750000D01*
X136700000Y-78750000D02*
X136700000Y-81750000D01*
%TO.C,R54*%
X138250000Y-88800000D02*
X138250000Y-87200000D01*
X138250000Y-87200000D02*
X135250000Y-87200000D01*
X135250000Y-87200000D02*
X135250000Y-88800000D01*
X135250000Y-88800000D02*
X138250000Y-88800000D01*
%TO.C,R6*%
X130000000Y-99300000D02*
X130000000Y-97700000D01*
X130000000Y-97700000D02*
X127000000Y-97700000D01*
X127000000Y-99300000D02*
X130000000Y-99300000D01*
X127000000Y-97700000D02*
X127000000Y-99300000D01*
%TO.C,R53*%
X131800000Y-80725000D02*
X130200000Y-80725000D01*
X130200000Y-80725000D02*
X130200000Y-83725000D01*
X130200000Y-83725000D02*
X131800000Y-83725000D01*
X131800000Y-83725000D02*
X131800000Y-80725000D01*
%TO.C,JP2*%
X141000000Y-106700000D02*
G75*
G02*
X140300000Y-107400000I-699999J-1D01*
G01*
X140300000Y-104600000D02*
G75*
G02*
X141000000Y-105300000I0J-700000D01*
G01*
X139700000Y-107400000D02*
G75*
G02*
X139000000Y-106700000I-1J699999D01*
G01*
X139000000Y-105300000D02*
G75*
G02*
X139700000Y-104600000I700000J0D01*
G01*
X141000000Y-105300000D02*
X141000000Y-106700000D01*
X140300000Y-107400000D02*
X139700000Y-107400000D01*
X139700000Y-104600000D02*
X140300000Y-104600000D01*
X139000000Y-106700000D02*
X139000000Y-105300000D01*
%TO.C,C56*%
X136050000Y-109949998D02*
G75*
G02*
X136050000Y-111550000I-840224J-800001D01*
G01*
X133450000Y-111550002D02*
G75*
G02*
X133450000Y-109950000I840224J800001D01*
G01*
X136050000Y-109949998D02*
X133450000Y-109950000D01*
X133450000Y-111550002D02*
X136050000Y-111550000D01*
%TO.C,R3*%
X164550000Y-82449998D02*
G75*
G02*
X164550000Y-84050000I-840224J-800001D01*
G01*
X161950000Y-84050002D02*
G75*
G02*
X161950000Y-82450000I840224J800001D01*
G01*
X164550000Y-82449998D02*
X161950000Y-82450000D01*
X161950000Y-84050002D02*
X164550000Y-84050000D01*
%TO.C,C18*%
X158300000Y-97699998D02*
G75*
G02*
X158300000Y-99300000I-840224J-800001D01*
G01*
X155700000Y-99300002D02*
G75*
G02*
X155700000Y-97700000I840224J800001D01*
G01*
X158300000Y-97699998D02*
X155700000Y-97700000D01*
X155700000Y-99300002D02*
X158300000Y-99300000D01*
%TO.C,R26*%
X137550000Y-109750000D02*
X137550000Y-106750000D01*
X137550000Y-106750000D02*
X135950000Y-106750000D01*
X135950000Y-109750000D02*
X137550000Y-109750000D01*
X135950000Y-106750000D02*
X135950000Y-109750000D01*
%TO.C,IC1*%
D12*
X140050000Y-78000000D02*
G75*
G02*
X139950000Y-78000000I-50000J0D01*
G01*
X139950000Y-78000000D02*
G75*
G02*
X140050000Y-78000000I50000J0D01*
G01*
D13*
X159000000Y-96010000D02*
X141000000Y-96010000D01*
X159000000Y-95260000D02*
X159000000Y-96010000D01*
X159000000Y-70510000D02*
X159000000Y-77260000D01*
X141000000Y-96010000D02*
X141000000Y-95260000D01*
X141000000Y-77260000D02*
X141000000Y-70510000D01*
X141000000Y-70510000D02*
X159000000Y-70510000D01*
D12*
D14*
X140050000Y-78000000D02*
X140049999Y-78000000D01*
X140049999Y-78000000D01*
X140049999Y-78000000D01*
X140049999Y-78000000D01*
X140049999Y-78000000D01*
X140049999Y-78000000D01*
X140049999Y-78000000D01*
X140049999Y-77999999D01*
X140049999Y-77999999D01*
X140049999Y-77999999D01*
X140049999Y-77999999D01*
X140049999Y-77999999D01*
X140050000Y-77999999D01*
X140050000Y-77999999D01*
X140050000Y-77999999D01*
X140050000Y-77999999D01*
X140050000Y-77999999D01*
X140050000Y-77999999D01*
X140050000Y-77999999D01*
X140050000Y-77999999D01*
X140050000Y-77999999D01*
X140050000Y-77999999D01*
X140050000Y-77999999D01*
X140050000Y-77999999D01*
X140050001Y-77999999D01*
X140050001Y-77999999D01*
X140050001Y-77999999D01*
X140050001Y-77999999D01*
X140050001Y-77999999D01*
X140050001Y-77999999D01*
X140050001Y-78000000D01*
X140050001Y-78000000D01*
X140050001Y-78000000D01*
X140050001Y-78000000D01*
X140050001Y-78000000D01*
X140050001Y-78000000D01*
X140050001Y-78000000D01*
X140050000Y-78000000D01*
X140050000Y-78000000D02*
X140050001Y-78000000D01*
X140050001Y-78000000D01*
X140050001Y-78000000D01*
X140050001Y-78000000D01*
X140050001Y-78000000D01*
X140050001Y-78000000D01*
X140050001Y-78000001D01*
X140050001Y-78000001D01*
X140050001Y-78000001D01*
X140050001Y-78000001D01*
X140050001Y-78000001D01*
X140050001Y-78000001D01*
X140050001Y-78000001D01*
X140050000Y-78000001D01*
X140050000Y-78000001D01*
X140050000Y-78000001D01*
X140050000Y-78000001D01*
X140050000Y-78000001D01*
X140050000Y-78000001D01*
X140050000Y-78000001D01*
X140050000Y-78000001D01*
X140050000Y-78000001D01*
X140050000Y-78000001D01*
X140050000Y-78000001D01*
X140050000Y-78000001D01*
X140049999Y-78000001D01*
X140049999Y-78000001D01*
X140049999Y-78000001D01*
X140049999Y-78000001D01*
X140049999Y-78000001D01*
X140049999Y-78000001D01*
X140049999Y-78000000D01*
X140049999Y-78000000D01*
X140049999Y-78000000D01*
X140049999Y-78000000D01*
X140049999Y-78000000D01*
X140049999Y-78000000D01*
X140050000Y-78000000D01*
D12*
D14*
X139950000Y-78000000D02*
X139949999Y-78000000D01*
X139949999Y-78000000D01*
X139949999Y-78000000D01*
X139949999Y-78000000D01*
X139949999Y-78000000D01*
X139949999Y-78000000D01*
X139949999Y-78000000D01*
X139949999Y-77999999D01*
X139949999Y-77999999D01*
X139949999Y-77999999D01*
X139949999Y-77999999D01*
X139949999Y-77999999D01*
X139950000Y-77999999D01*
X139950000Y-77999999D01*
X139950000Y-77999999D01*
X139950000Y-77999999D01*
X139950000Y-77999999D01*
X139950000Y-77999999D01*
X139950000Y-77999999D01*
X139950000Y-77999999D01*
X139950000Y-77999999D01*
X139950000Y-77999999D01*
X139950000Y-77999999D01*
X139950000Y-77999999D01*
X139950001Y-77999999D01*
X139950001Y-77999999D01*
X139950001Y-77999999D01*
X139950001Y-77999999D01*
X139950001Y-77999999D01*
X139950001Y-77999999D01*
X139950001Y-78000000D01*
X139950001Y-78000000D01*
X139950001Y-78000000D01*
X139950001Y-78000000D01*
X139950001Y-78000000D01*
X139950001Y-78000000D01*
X139950001Y-78000000D01*
X139950000Y-78000000D01*
X139950000Y-78000000D02*
X139950001Y-78000000D01*
X139950001Y-78000000D01*
X139950001Y-78000000D01*
X139950001Y-78000000D01*
X139950001Y-78000000D01*
X139950001Y-78000000D01*
X139950001Y-78000001D01*
X139950001Y-78000001D01*
X139950001Y-78000001D01*
X139950001Y-78000001D01*
X139950001Y-78000001D01*
X139950001Y-78000001D01*
X139950001Y-78000001D01*
X139950000Y-78000001D01*
X139950000Y-78000001D01*
X139950000Y-78000001D01*
X139950000Y-78000001D01*
X139950000Y-78000001D01*
X139950000Y-78000001D01*
X139950000Y-78000001D01*
X139950000Y-78000001D01*
X139950000Y-78000001D01*
X139950000Y-78000001D01*
X139950000Y-78000001D01*
X139950000Y-78000001D01*
X139949999Y-78000001D01*
X139949999Y-78000001D01*
X139949999Y-78000001D01*
X139949999Y-78000001D01*
X139949999Y-78000001D01*
X139949999Y-78000001D01*
X139949999Y-78000000D01*
X139949999Y-78000000D01*
X139949999Y-78000000D01*
X139949999Y-78000000D01*
X139949999Y-78000000D01*
X139949999Y-78000000D01*
X139950000Y-78000000D01*
%TO.C,C48*%
D11*
X164550000Y-77199998D02*
G75*
G02*
X164550000Y-78800000I-840224J-800001D01*
G01*
X161950000Y-78800002D02*
G75*
G02*
X161950000Y-77200000I840224J800001D01*
G01*
X164550000Y-77199998D02*
X161950000Y-77200000D01*
X161950000Y-78800002D02*
X164550000Y-78800000D01*
%TO.C,J9*%
X141250000Y-122500000D02*
X141750000Y-122500000D01*
X141750000Y-128000000D01*
X141250000Y-128000000D01*
X141250000Y-122500000D01*
X138750000Y-122500000D02*
X139250000Y-122500000D01*
X139250000Y-128000000D01*
X138750000Y-128000000D01*
X138750000Y-122500000D01*
X136250000Y-122500000D02*
X136750000Y-122500000D01*
X136750000Y-128000000D01*
X136250000Y-128000000D01*
X136250000Y-122500000D01*
X144060000Y-128610000D02*
X144060000Y-116890000D01*
X144060000Y-116890000D02*
X142640000Y-116890000D01*
X142640000Y-116890000D02*
X142640000Y-121390000D01*
X139000000Y-128610000D02*
X144060000Y-128610000D01*
X139000000Y-128610000D02*
X133940000Y-128610000D01*
X136800000Y-118800000D02*
X136500000Y-119400000D01*
X136500000Y-119400000D02*
X136200000Y-118800000D01*
X136200000Y-118800000D02*
X136800000Y-118800000D01*
X135360000Y-116890000D02*
X135360000Y-121390000D01*
X133940000Y-128610000D02*
X133940000Y-116890000D01*
X133940000Y-116890000D02*
X135360000Y-116890000D01*
%TO.C,SW2*%
X136150000Y-84100000D02*
X136150000Y-79900000D01*
X136150000Y-79900000D02*
X135760000Y-79900000D01*
X135760000Y-84100000D02*
X136150000Y-84100000D01*
X133240000Y-84100000D02*
X132850000Y-84100000D01*
X132850000Y-84100000D02*
X132850000Y-79900000D01*
X132850000Y-79900000D02*
X133240000Y-79900000D01*
%TO.C,R48*%
X144300000Y-109949998D02*
G75*
G02*
X144300000Y-111550000I-840224J-800001D01*
G01*
X141700000Y-111550002D02*
G75*
G02*
X141700000Y-109950000I840224J800001D01*
G01*
X144300000Y-109949998D02*
X141700000Y-109950000D01*
X141700000Y-111550002D02*
X144300000Y-111550000D01*
%TO.C,R46*%
X132525000Y-109949998D02*
G75*
G02*
X132525000Y-111550000I-840224J-800001D01*
G01*
X129925000Y-111550002D02*
G75*
G02*
X129925000Y-109950000I840224J800001D01*
G01*
X132525000Y-109949998D02*
X129925000Y-109950000D01*
X129925000Y-111550002D02*
X132525000Y-111550000D01*
%TO.C,C54*%
X128800002Y-114800000D02*
G75*
G02*
X127200000Y-114800000I-800001J840224D01*
G01*
X127199998Y-112200000D02*
G75*
G02*
X128800000Y-112200000I800001J-840224D01*
G01*
X128800002Y-114800000D02*
X128800000Y-112200000D01*
X127199998Y-112200000D02*
X127200000Y-114800000D01*
%TO.C,SW3*%
X167150000Y-90600000D02*
X166760000Y-90600000D01*
X167150000Y-86400000D02*
X167150000Y-90600000D01*
X166760000Y-86400000D02*
X167150000Y-86400000D01*
X164240000Y-86400000D02*
X163850000Y-86400000D01*
X163850000Y-90600000D02*
X164240000Y-90600000D01*
X163850000Y-86400000D02*
X163850000Y-90600000D01*
%TO.C,R51*%
X138250000Y-87050000D02*
X138250000Y-85450000D01*
X138250000Y-85450000D02*
X135250000Y-85450000D01*
X135250000Y-85450000D02*
X135250000Y-87050000D01*
X135250000Y-87050000D02*
X138250000Y-87050000D01*
%TO.C,C16*%
X158300000Y-101699998D02*
G75*
G02*
X158300000Y-103300000I-840224J-800001D01*
G01*
X155700000Y-103300002D02*
G75*
G02*
X155700000Y-101700000I840224J800001D01*
G01*
X158300000Y-101699998D02*
X155700000Y-101700000D01*
X155700000Y-103300002D02*
X158300000Y-103300000D01*
%TO.C,C19*%
X129225000Y-78899998D02*
X126625000Y-78900000D01*
X126625000Y-80500002D02*
X129225000Y-80500000D01*
X129225000Y-78899998D02*
G75*
G02*
X129225000Y-80500000I-840224J-800001D01*
G01*
X126625000Y-80500002D02*
G75*
G02*
X126625000Y-78900000I840224J800001D01*
G01*
%TO.C,C5*%
X172550000Y-98949998D02*
G75*
G02*
X172550000Y-100550000I-840224J-800001D01*
G01*
X169950000Y-100550002D02*
G75*
G02*
X169950000Y-98950000I840224J800001D01*
G01*
X172550000Y-98949998D02*
X169950000Y-98950000D01*
X169950000Y-100550002D02*
X172550000Y-100550000D01*
%TO.C,C9*%
X163300002Y-101300000D02*
G75*
G02*
X161700000Y-101300000I-800001J840224D01*
G01*
X161699998Y-98700000D02*
G75*
G02*
X163300000Y-98700000I800001J-840224D01*
G01*
X163300002Y-101300000D02*
X163300000Y-98700000D01*
X161699998Y-98700000D02*
X161700000Y-101300000D01*
%TO.C,C49*%
X168550000Y-77199998D02*
G75*
G02*
X168550000Y-78800000I-840224J-800001D01*
G01*
X165950000Y-78800002D02*
G75*
G02*
X165950000Y-77200000I840224J800001D01*
G01*
X168550000Y-77199998D02*
X165950000Y-77200000D01*
X165950000Y-78800002D02*
X168550000Y-78800000D01*
%TO.C,D8*%
X146550000Y-115550000D02*
X146550000Y-111950000D01*
X146550000Y-111950000D02*
X142950000Y-111950000D01*
X142950000Y-115550000D02*
X146550000Y-115550000D01*
X142950000Y-111950000D02*
X142950000Y-115550000D01*
%TO.C,R49*%
X142550002Y-114800000D02*
G75*
G02*
X140950000Y-114800000I-800001J840224D01*
G01*
X140949998Y-112200000D02*
G75*
G02*
X142550000Y-112200000I800001J-840224D01*
G01*
X142550002Y-114800000D02*
X142550000Y-112200000D01*
X140949998Y-112200000D02*
X140950000Y-114800000D01*
%TO.C,R47*%
X130800002Y-114800000D02*
G75*
G02*
X129200000Y-114800000I-800001J840224D01*
G01*
X129199998Y-112200000D02*
G75*
G02*
X130800000Y-112200000I800001J-840224D01*
G01*
X130800002Y-114800000D02*
X130800000Y-112200000D01*
X129199998Y-112200000D02*
X129200000Y-114800000D01*
%TO.C,R9*%
X169750000Y-119975000D02*
X169750000Y-118375000D01*
X169750000Y-118375000D02*
X166750000Y-118375000D01*
X166750000Y-119975000D02*
X169750000Y-119975000D01*
X166750000Y-118375000D02*
X166750000Y-119975000D01*
%TO.C,C22*%
X138300002Y-85050000D02*
G75*
G02*
X136700000Y-85050000I-800001J840224D01*
G01*
X136699998Y-82450000D02*
G75*
G02*
X138300000Y-82450000I800001J-840224D01*
G01*
X138300002Y-85050000D02*
X138300000Y-82450000D01*
X136699998Y-82450000D02*
X136700000Y-85050000D01*
%TO.C,C1*%
X138025000Y-74699998D02*
G75*
G02*
X138025000Y-76300000I-840224J-800001D01*
G01*
X135425000Y-76300002D02*
G75*
G02*
X135425000Y-74700000I840224J800001D01*
G01*
X138025000Y-74699998D02*
X135425000Y-74700000D01*
X135425000Y-76300002D02*
X138025000Y-76300000D01*
%TO.C,U2*%
D15*
X164030000Y-102500000D02*
G75*
G02*
X163970000Y-102500000I-30000J0D01*
G01*
X163970000Y-102500000D02*
G75*
G02*
X164030000Y-102500000I30000J0D01*
G01*
X169050000Y-97950000D02*
X169050000Y-102050000D01*
X168940000Y-102050000D02*
X169050000Y-102050000D01*
X168940000Y-97950000D02*
X169050000Y-97950000D01*
X167670000Y-102050000D02*
X167870000Y-102050000D01*
X167670000Y-97950000D02*
X167870000Y-97950000D01*
X166400000Y-102050000D02*
X166600000Y-102050000D01*
X166400000Y-97950000D02*
X166600000Y-97950000D01*
X165130000Y-102050000D02*
X165330000Y-102050000D01*
X165130000Y-97950000D02*
X165330000Y-97950000D01*
X163950000Y-102050000D02*
X164060000Y-102050000D01*
X163950000Y-97950000D02*
X164060000Y-97950000D01*
X163950000Y-97950000D02*
X163950000Y-102050000D01*
%TO.C,J7*%
D11*
X163250000Y-122500000D02*
X163750000Y-122500000D01*
X163750000Y-128000000D01*
X163250000Y-128000000D01*
X163250000Y-122500000D01*
X160750000Y-122500000D02*
X161250000Y-122500000D01*
X161250000Y-128000000D01*
X160750000Y-128000000D01*
X160750000Y-122500000D01*
X158250000Y-122500000D02*
X158750000Y-122500000D01*
X158750000Y-128000000D01*
X158250000Y-128000000D01*
X158250000Y-122500000D01*
X166060000Y-128610000D02*
X166060000Y-116890000D01*
X166060000Y-116890000D02*
X164640000Y-116890000D01*
X164640000Y-116890000D02*
X164640000Y-121390000D01*
X161000000Y-128610000D02*
X166060000Y-128610000D01*
X161000000Y-128610000D02*
X155940000Y-128610000D01*
X158800000Y-118800000D02*
X158500000Y-119400000D01*
X158500000Y-119400000D02*
X158200000Y-118800000D01*
X158200000Y-118800000D02*
X158800000Y-118800000D01*
X157360000Y-116890000D02*
X157360000Y-121390000D01*
X155940000Y-128610000D02*
X155940000Y-116890000D01*
X155940000Y-116890000D02*
X157360000Y-116890000D01*
%TO.C,R13*%
X168550000Y-82449998D02*
G75*
G02*
X168550000Y-84050000I-840224J-800001D01*
G01*
X165950000Y-84050002D02*
G75*
G02*
X165950000Y-82450000I840224J800001D01*
G01*
X168550000Y-82449998D02*
X165950000Y-82450000D01*
X165950000Y-84050002D02*
X168550000Y-84050000D01*
%TO.C,U3*%
X150190000Y-111380000D02*
X149860000Y-111620000D01*
X149860000Y-111140000D01*
X150190000Y-111380000D01*
G36*
X150190000Y-111380000D02*
G01*
X149860000Y-111620000D01*
X149860000Y-111140000D01*
X150190000Y-111380000D01*
G37*
X156910000Y-110100000D02*
X156910000Y-106340000D01*
X156910000Y-106340000D02*
X155650000Y-106340000D01*
X150090000Y-110100000D02*
X150090000Y-106340000D01*
X150090000Y-106340000D02*
X151350000Y-106340000D01*
%TO.C,C8*%
X172550000Y-92949998D02*
G75*
G02*
X172550000Y-94550000I-840224J-800001D01*
G01*
X169950000Y-94550002D02*
G75*
G02*
X169950000Y-92950000I840224J800001D01*
G01*
X172550000Y-92949998D02*
X169950000Y-92950000D01*
X169950000Y-94550002D02*
X172550000Y-94550000D01*
%TO.C,R12*%
X164550000Y-78949998D02*
G75*
G02*
X164550000Y-80550000I-840224J-800001D01*
G01*
X161950000Y-80550002D02*
G75*
G02*
X161950000Y-78950000I840224J800001D01*
G01*
X164550000Y-78949998D02*
X161950000Y-78950000D01*
X161950000Y-80550002D02*
X164550000Y-80550000D01*
%TO.C,JP1*%
X137250000Y-99150000D02*
X135250000Y-99150000D01*
X137250000Y-96350000D02*
X137250000Y-99150000D01*
X135250000Y-99150000D02*
X135250000Y-96350000D01*
X135250000Y-96350000D02*
X137250000Y-96350000D01*
%TO.C,R7*%
X133500000Y-99300000D02*
X133500000Y-97700000D01*
X133500000Y-97700000D02*
X130500000Y-97700000D01*
X130500000Y-99300000D02*
X133500000Y-99300000D01*
X130500000Y-97700000D02*
X130500000Y-99300000D01*
%TO.C,J8*%
X152250000Y-122500000D02*
X152750000Y-122500000D01*
X152750000Y-128000000D01*
X152250000Y-128000000D01*
X152250000Y-122500000D01*
X149750000Y-122500000D02*
X150250000Y-122500000D01*
X150250000Y-128000000D01*
X149750000Y-128000000D01*
X149750000Y-122500000D01*
X147250000Y-122500000D02*
X147750000Y-122500000D01*
X147750000Y-128000000D01*
X147250000Y-128000000D01*
X147250000Y-122500000D01*
X155060000Y-128610000D02*
X155060000Y-116890000D01*
X155060000Y-116890000D02*
X153640000Y-116890000D01*
X153640000Y-116890000D02*
X153640000Y-121390000D01*
X150000000Y-128610000D02*
X155060000Y-128610000D01*
X150000000Y-128610000D02*
X144940000Y-128610000D01*
X147800000Y-118800000D02*
X147500000Y-119400000D01*
X147500000Y-119400000D02*
X147200000Y-118800000D01*
X147200000Y-118800000D02*
X147800000Y-118800000D01*
X146360000Y-116890000D02*
X146360000Y-121390000D01*
X144940000Y-128610000D02*
X144940000Y-116890000D01*
X144940000Y-116890000D02*
X146360000Y-116890000D01*
%TO.C,C4*%
X172550000Y-100949998D02*
G75*
G02*
X172550000Y-102550000I-840224J-800001D01*
G01*
X169950000Y-102550002D02*
G75*
G02*
X169950000Y-100950000I840224J800001D01*
G01*
X172550000Y-100949998D02*
X169950000Y-100950000D01*
X169950000Y-102550002D02*
X172550000Y-102550000D01*
%TO.C,U4*%
X127415000Y-84590000D02*
X126935000Y-84590000D01*
X127175000Y-84260000D01*
X127415000Y-84590000D01*
G36*
X127415000Y-84590000D02*
G01*
X126935000Y-84590000D01*
X127175000Y-84260000D01*
X127415000Y-84590000D01*
G37*
X129785000Y-80890000D02*
X129785000Y-81565000D01*
X129610000Y-80890000D02*
X129785000Y-80890000D01*
X126565000Y-80890000D02*
X126740000Y-80890000D01*
X126565000Y-81565000D02*
X126565000Y-80890000D01*
X129785000Y-83435000D02*
X129785000Y-84110000D01*
X129785000Y-84110000D02*
X129610000Y-84110000D01*
X126740000Y-84110000D02*
X126565000Y-84110000D01*
X126565000Y-84110000D02*
X126565000Y-83435000D01*
%TO.C,D10*%
D15*
X165760000Y-116150000D02*
X165760000Y-112850000D01*
X165760000Y-116150000D02*
X160250000Y-116150000D01*
X165760000Y-112850000D02*
X160250000Y-112850000D01*
%TO.C,D7*%
D11*
X167250000Y-118225000D02*
X167850000Y-118225000D01*
X167850000Y-118525000D01*
X167250000Y-118525000D01*
X167250000Y-118225000D01*
G36*
X167250000Y-118225000D02*
G01*
X167850000Y-118225000D01*
X167850000Y-118525000D01*
X167250000Y-118525000D01*
X167250000Y-118225000D01*
G37*
X167250000Y-116325000D02*
X167850000Y-116325000D01*
X167850000Y-116625000D01*
X167250000Y-116625000D01*
X167250000Y-116325000D01*
G36*
X167250000Y-116325000D02*
G01*
X167850000Y-116325000D01*
X167850000Y-116625000D01*
X167250000Y-116625000D01*
X167250000Y-116325000D01*
G37*
X166750000Y-116625000D02*
X169750000Y-116625000D01*
X169750000Y-118225000D01*
X166750000Y-118225000D01*
X166750000Y-116625000D01*
%TO.C,C14*%
X150300002Y-115800000D02*
G75*
G02*
X148700000Y-115800000I-800001J840224D01*
G01*
X148699998Y-113200000D02*
G75*
G02*
X150300000Y-113200000I800001J-840224D01*
G01*
X150300002Y-115800000D02*
X150300000Y-113200000D01*
X148699998Y-113200000D02*
X148700000Y-115800000D01*
%TO.C,L1*%
D16*
X164750000Y-104200000D02*
X164750000Y-111200000D01*
X157750000Y-104200000D02*
X157750000Y-111200000D01*
%TO.C,C17*%
D11*
X158300000Y-99699998D02*
G75*
G02*
X158300000Y-101300000I-840224J-800001D01*
G01*
X155700000Y-101300002D02*
G75*
G02*
X155700000Y-99700000I840224J800001D01*
G01*
X158300000Y-99699998D02*
X155700000Y-99700000D01*
X155700000Y-101300002D02*
X158300000Y-101300000D01*
%TO.C,C7*%
X172550000Y-94949998D02*
G75*
G02*
X172550000Y-96550000I-840224J-800001D01*
G01*
X169950000Y-96550002D02*
G75*
G02*
X169950000Y-94950000I840224J800001D01*
G01*
X172550000Y-94949998D02*
X169950000Y-94950000D01*
X169950000Y-96550002D02*
X172550000Y-96550000D01*
%TO.C,C21*%
X163300002Y-88050000D02*
G75*
G02*
X161700000Y-88050000I-800001J840224D01*
G01*
X161699998Y-85450000D02*
G75*
G02*
X163300000Y-85450000I800001J-840224D01*
G01*
X163300002Y-88050000D02*
X163300000Y-85450000D01*
X161699998Y-85450000D02*
X161700000Y-88050000D01*
%TO.C,C6*%
X172550000Y-96949998D02*
G75*
G02*
X172550000Y-98550000I-840224J-800001D01*
G01*
X169950000Y-98550002D02*
G75*
G02*
X169950000Y-96950000I840224J800001D01*
G01*
X172550000Y-96949998D02*
X169950000Y-96950000D01*
X169950000Y-98550002D02*
X172550000Y-98550000D01*
%TO.C,R10*%
X172950000Y-107000000D02*
X172950000Y-105000000D01*
X172950000Y-105000000D02*
X169550000Y-105000000D01*
X169550000Y-107000000D02*
X172950000Y-107000000D01*
X169550000Y-105000000D02*
X169550000Y-107000000D01*
%TO.C,JP5*%
X171857500Y-87150000D02*
G75*
G02*
X172557500Y-87850000I0J-700000D01*
G01*
X170557500Y-87850000D02*
G75*
G02*
X171257500Y-87150000I700000J0D01*
G01*
X172557500Y-90550000D02*
G75*
G02*
X171857500Y-91250000I-699999J-1D01*
G01*
X171257500Y-91250000D02*
G75*
G02*
X170557500Y-90550000I-1J699999D01*
G01*
X171257500Y-87150000D02*
X171857500Y-87150000D01*
X172557500Y-87800000D02*
X172557500Y-90600000D01*
X172757500Y-90400000D02*
X173057500Y-90100000D01*
X172757500Y-90400000D02*
X173057500Y-90700000D01*
X170557500Y-90600000D02*
X170557500Y-87800000D01*
X173057500Y-90700000D02*
X173057500Y-90100000D01*
X171857500Y-91250000D02*
X171257500Y-91250000D01*
%TO.C,JP4*%
X129250000Y-106850000D02*
G75*
G02*
X128550000Y-107550000I-699999J-1D01*
G01*
X128550000Y-104750000D02*
G75*
G02*
X129250000Y-105450000I0J-700000D01*
G01*
X127950000Y-107550000D02*
G75*
G02*
X127250000Y-106850000I-1J699999D01*
G01*
X127250000Y-105450000D02*
G75*
G02*
X127950000Y-104750000I700000J0D01*
G01*
X129250000Y-105450000D02*
X129250000Y-106850000D01*
X128550000Y-107550000D02*
X127950000Y-107550000D01*
X127950000Y-104750000D02*
X128550000Y-104750000D01*
X127250000Y-106850000D02*
X127250000Y-105450000D01*
%TO.C,C58*%
X140550002Y-114800000D02*
G75*
G02*
X138950000Y-114800000I-800001J840224D01*
G01*
X138949998Y-112200000D02*
G75*
G02*
X140550000Y-112200000I800001J-840224D01*
G01*
X140550002Y-114800000D02*
X140550000Y-112200000D01*
X138949998Y-112200000D02*
X138950000Y-114800000D01*
%TO.C,R25*%
X149300000Y-109500000D02*
X149300000Y-106500000D01*
X149300000Y-106500000D02*
X147700000Y-106500000D01*
X147700000Y-109500000D02*
X149300000Y-109500000D01*
X147700000Y-106500000D02*
X147700000Y-109500000D01*
%TO.C,Q1*%
X171450000Y-83790000D02*
X171120000Y-83550000D01*
X171450000Y-83310000D01*
X171450000Y-83790000D01*
G36*
X171450000Y-83790000D02*
G01*
X171120000Y-83550000D01*
X171450000Y-83310000D01*
X171450000Y-83790000D01*
G37*
X173060000Y-81490000D02*
X173060000Y-83010000D01*
X172060000Y-81490000D02*
X173060000Y-81490000D01*
X169940000Y-81490000D02*
X170940000Y-81490000D01*
X173060000Y-83010000D02*
X173010000Y-83010000D01*
X171890000Y-83010000D02*
X171110000Y-83010000D01*
X169990000Y-83010000D02*
X169940000Y-83010000D01*
X169940000Y-83010000D02*
X169940000Y-81490000D01*
%TO.C,C57*%
X147800000Y-109949998D02*
G75*
G02*
X147800000Y-111550000I-840224J-800001D01*
G01*
X145200000Y-111550002D02*
G75*
G02*
X145200000Y-109950000I840224J800001D01*
G01*
X147800000Y-109949998D02*
X145200000Y-109950000D01*
X145200000Y-111550002D02*
X147800000Y-111550000D01*
%TO.C,J6*%
X130950000Y-96670000D02*
X128950000Y-96670000D01*
X130950000Y-87270000D02*
X128950000Y-87270000D01*
X127050000Y-96670000D02*
X125150000Y-96670000D01*
X127050000Y-87270000D02*
X125150000Y-87270000D01*
X125150000Y-87270000D02*
X125150000Y-96670000D01*
%TO.C,R11*%
X172950000Y-104750000D02*
X172950000Y-102750000D01*
X172950000Y-102750000D02*
X169550000Y-102750000D01*
X169550000Y-104750000D02*
X172950000Y-104750000D01*
X169550000Y-102750000D02*
X169550000Y-104750000D01*
%TO.C,U7*%
X147550000Y-103640000D02*
X147220000Y-103400000D01*
X147550000Y-103160000D01*
X147550000Y-103640000D01*
G36*
X147550000Y-103640000D02*
G01*
X147220000Y-103400000D01*
X147550000Y-103160000D01*
X147550000Y-103640000D01*
G37*
X147310000Y-108060000D02*
X147215000Y-108060000D01*
X147310000Y-103940000D02*
X147310000Y-108060000D01*
X147215000Y-103940000D02*
X147310000Y-103940000D01*
X142285000Y-108060000D02*
X142190000Y-108060000D01*
X142190000Y-108060000D02*
X142190000Y-103940000D01*
X142190000Y-103940000D02*
X142285000Y-103940000D01*
%TO.C,D2*%
D15*
X161990000Y-96150000D02*
X167500000Y-96150000D01*
X161990000Y-92850000D02*
X167500000Y-92850000D01*
X161990000Y-92850000D02*
X161990000Y-96150000D01*
%TO.C,R15*%
D11*
X168550000Y-78949998D02*
G75*
G02*
X168550000Y-80550000I-840224J-800001D01*
G01*
X165950000Y-80550002D02*
G75*
G02*
X165950000Y-78950000I840224J800001D01*
G01*
X168550000Y-78949998D02*
X165950000Y-78950000D01*
X165950000Y-80550002D02*
X168550000Y-80550000D01*
%TO.C,C13*%
X152300002Y-115800000D02*
G75*
G02*
X150700000Y-115800000I-800001J840224D01*
G01*
X150699998Y-113200000D02*
G75*
G02*
X152300000Y-113200000I800001J-840224D01*
G01*
X152300002Y-115800000D02*
X152300000Y-113200000D01*
X150699998Y-113200000D02*
X150700000Y-115800000D01*
%TO.C,C11*%
X154300002Y-115800000D02*
G75*
G02*
X152700000Y-115800000I-800001J840224D01*
G01*
X152699998Y-113200000D02*
G75*
G02*
X154300000Y-113200000I800001J-840224D01*
G01*
X154300002Y-115800000D02*
X154300000Y-113200000D01*
X152699998Y-113200000D02*
X152700000Y-115800000D01*
%TO.C,R14*%
X168550000Y-80699998D02*
G75*
G02*
X168550000Y-82300000I-840224J-800001D01*
G01*
X165950000Y-82300002D02*
G75*
G02*
X165950000Y-80700000I840224J800001D01*
G01*
X168550000Y-80699998D02*
X165950000Y-80700000D01*
X165950000Y-82300002D02*
X168550000Y-82300000D01*
%TO.C,R38*%
X163300000Y-91750000D02*
X163300000Y-88750000D01*
X163300000Y-88750000D02*
X161700000Y-88750000D01*
X161700000Y-91750000D02*
X163300000Y-91750000D01*
X161700000Y-88750000D02*
X161700000Y-91750000D01*
%TO.C,D9*%
D15*
X137900000Y-95760000D02*
X137900000Y-90250000D01*
X134600000Y-95760000D02*
X137900000Y-95760000D01*
X134600000Y-95760000D02*
X134600000Y-90250000D01*
D11*
%TO.C,U6*%
X135800000Y-103640000D02*
X135470000Y-103400000D01*
X135800000Y-103160000D01*
X135800000Y-103640000D01*
G36*
X135800000Y-103640000D02*
G01*
X135470000Y-103400000D01*
X135800000Y-103160000D01*
X135800000Y-103640000D01*
G37*
X135560000Y-108060000D02*
X135465000Y-108060000D01*
X135560000Y-103940000D02*
X135560000Y-108060000D01*
X135465000Y-103940000D02*
X135560000Y-103940000D01*
X130535000Y-108060000D02*
X130440000Y-108060000D01*
X130440000Y-108060000D02*
X130440000Y-103940000D01*
X130440000Y-103940000D02*
X130535000Y-103940000D01*
%TO.C,R8*%
X164550000Y-80699998D02*
G75*
G02*
X164550000Y-82300000I-840224J-800001D01*
G01*
X161950000Y-82300002D02*
G75*
G02*
X161950000Y-80700000I840224J800001D01*
G01*
X164550000Y-80699998D02*
X161950000Y-80700000D01*
X161950000Y-82300002D02*
X164550000Y-82300000D01*
%TO.C,C12*%
X156300002Y-115800000D02*
G75*
G02*
X154700000Y-115800000I-800001J840224D01*
G01*
X154699998Y-113200000D02*
G75*
G02*
X156300000Y-113200000I800001J-840224D01*
G01*
X156300002Y-115800000D02*
X156300000Y-113200000D01*
X154699998Y-113200000D02*
X154700000Y-115800000D01*
%TO.C,D6*%
X134800000Y-115550000D02*
X134800000Y-111950000D01*
X134800000Y-111950000D02*
X131200000Y-111950000D01*
X131200000Y-115550000D02*
X134800000Y-115550000D01*
X131200000Y-111950000D02*
X131200000Y-115550000D01*
%TD*%
%LPC*%
%TO.C,JP2*%
G36*
X139250000Y-105850000D02*
G01*
X140750000Y-105850000D01*
X140750000Y-106150000D01*
X139250000Y-106150000D01*
X139250000Y-105850000D01*
G37*
%TO.C,JP1*%
G36*
X135500000Y-97600000D02*
G01*
X137000000Y-97600000D01*
X137000000Y-97900000D01*
X135500000Y-97900000D01*
X135500000Y-97600000D01*
G37*
%TO.C,JP5*%
G36*
X170807500Y-88450000D02*
G01*
X172307500Y-88450000D01*
X172307500Y-89950000D01*
X170807500Y-89950000D01*
X170807500Y-88450000D01*
G37*
%TO.C,JP4*%
G36*
X127500000Y-106000000D02*
G01*
X129000000Y-106000000D01*
X129000000Y-106300000D01*
X127500000Y-106300000D01*
X127500000Y-106000000D01*
G37*
%TD*%
D17*
%TO.C,C2*%
X137500000Y-77500000D03*
X135950000Y-77500000D03*
%TD*%
D18*
%TO.C,C15*%
X157500000Y-113725000D03*
X157500000Y-115275000D03*
%TD*%
D19*
%TO.C,C3*%
X171847349Y-111750000D03*
D20*
X168347349Y-111750000D03*
%TD*%
D21*
%TO.C,R23*%
X137500000Y-81075000D03*
X137500000Y-79425000D03*
%TD*%
D22*
%TO.C,R54*%
X137575000Y-88000000D03*
X135925000Y-88000000D03*
%TD*%
D23*
%TO.C,R6*%
X127675000Y-98500000D03*
X129325000Y-98500000D03*
%TD*%
D24*
%TO.C,R53*%
X131000000Y-81400000D03*
X131000000Y-83050000D03*
%TD*%
D25*
%TO.C,JP2*%
X140000000Y-105350000D03*
D26*
X140000000Y-106650000D03*
%TD*%
D17*
%TO.C,C56*%
X135525000Y-110750000D03*
X133975000Y-110750000D03*
%TD*%
D27*
%TO.C,R3*%
X162475000Y-83250000D03*
X164025000Y-83250000D03*
%TD*%
%TO.C,C18*%
X156225000Y-98500000D03*
X157775000Y-98500000D03*
%TD*%
D24*
%TO.C,R26*%
X136750000Y-107425000D03*
X136750000Y-109075000D03*
%TD*%
D28*
%TO.C,IC1*%
X148495000Y-82470000D03*
X149745000Y-82470000D03*
X149745000Y-83720000D03*
X149745000Y-84970000D03*
X148495000Y-84970000D03*
X147245000Y-84970000D03*
X147245000Y-83720000D03*
X147245000Y-82470000D03*
X148495000Y-83720000D03*
D29*
X158750000Y-78000000D03*
X158750000Y-79270000D03*
X158750000Y-80540000D03*
X158750000Y-81810000D03*
X158750000Y-83080000D03*
X158750000Y-84350000D03*
X158750000Y-85620000D03*
X158750000Y-86890000D03*
X158750000Y-88160000D03*
X158750000Y-89430000D03*
X158750000Y-90700000D03*
X158750000Y-91970000D03*
X158750000Y-93240000D03*
X158750000Y-94510000D03*
X141250000Y-94510000D03*
X141250000Y-93240000D03*
X141250000Y-91970000D03*
X141250000Y-90700000D03*
X141250000Y-89430000D03*
X141250000Y-88160000D03*
X141250000Y-86890000D03*
X141250000Y-85620000D03*
X141250000Y-84350000D03*
X141250000Y-83080000D03*
X141250000Y-81810000D03*
X141250000Y-80540000D03*
X141250000Y-79270000D03*
X141250000Y-78000000D03*
%TD*%
D30*
%TO.C,H6*%
X171500000Y-74500000D03*
D31*
X171500000Y-74500000D03*
%TD*%
D17*
%TO.C,C48*%
X164025000Y-78000000D03*
X162475000Y-78000000D03*
%TD*%
D32*
%TO.C,J9*%
X141500000Y-120900000D03*
X139000000Y-120900000D03*
D33*
X136500000Y-120900000D03*
%TD*%
D34*
%TO.C,SW2*%
X134500000Y-79775000D03*
X134500000Y-84225000D03*
%TD*%
D17*
%TO.C,R48*%
X143775000Y-110750000D03*
X142225000Y-110750000D03*
%TD*%
%TO.C,R46*%
X132000000Y-110750000D03*
X130450000Y-110750000D03*
%TD*%
D35*
%TO.C,C54*%
X128000000Y-114275000D03*
X128000000Y-112725000D03*
%TD*%
D36*
%TO.C,SW3*%
X165500000Y-90725000D03*
X165500000Y-86275000D03*
%TD*%
D22*
%TO.C,R51*%
X137575000Y-86250000D03*
X135925000Y-86250000D03*
%TD*%
D27*
%TO.C,C16*%
X156225000Y-102500000D03*
X157775000Y-102500000D03*
%TD*%
D17*
%TO.C,C19*%
X127150000Y-79700000D03*
X128700000Y-79700000D03*
%TD*%
D27*
%TO.C,C5*%
X170475000Y-99750000D03*
X172025000Y-99750000D03*
%TD*%
D18*
%TO.C,C9*%
X162500000Y-99225000D03*
X162500000Y-100775000D03*
%TD*%
D17*
%TO.C,C49*%
X168025000Y-78000000D03*
X166475000Y-78000000D03*
%TD*%
D37*
%TO.C,D8*%
X144750000Y-114750000D03*
X143800000Y-112750000D03*
X145700000Y-112750000D03*
%TD*%
D18*
%TO.C,R49*%
X141750000Y-112725000D03*
X141750000Y-114275000D03*
%TD*%
%TO.C,R47*%
X130000000Y-112725000D03*
X130000000Y-114275000D03*
%TD*%
D31*
%TO.C,H5*%
X128500000Y-74500000D03*
D30*
X128500000Y-74500000D03*
%TD*%
D22*
%TO.C,R9*%
X169075000Y-119175000D03*
X167425000Y-119175000D03*
%TD*%
D35*
%TO.C,C22*%
X137500000Y-84525000D03*
X137500000Y-82975000D03*
%TD*%
D17*
%TO.C,C1*%
X137500000Y-75500000D03*
X135950000Y-75500000D03*
%TD*%
D38*
%TO.C,U2*%
X166500000Y-100000000D03*
D39*
X164590000Y-97300000D03*
X165860000Y-97300000D03*
X167140000Y-97300000D03*
X168410000Y-97300000D03*
X168410000Y-102700000D03*
X167140000Y-102700000D03*
X165860000Y-102700000D03*
X164590000Y-102700000D03*
%TD*%
D32*
%TO.C,J7*%
X163500000Y-120900000D03*
X161000000Y-120900000D03*
D33*
X158500000Y-120900000D03*
%TD*%
D27*
%TO.C,R13*%
X166475000Y-83250000D03*
X168025000Y-83250000D03*
%TD*%
D30*
%TO.C,H7*%
X128500000Y-122500000D03*
D31*
X128500000Y-122500000D03*
%TD*%
D40*
%TO.C,U3*%
X155800000Y-111400000D03*
D41*
X153500000Y-105100000D03*
D40*
X153500000Y-111400000D03*
X151200000Y-111400000D03*
%TD*%
D27*
%TO.C,C8*%
X170475000Y-93750000D03*
X172025000Y-93750000D03*
%TD*%
D17*
%TO.C,R12*%
X164025000Y-79750000D03*
X162475000Y-79750000D03*
%TD*%
D42*
%TO.C,JP1*%
X136250000Y-98400000D03*
X136250000Y-97100000D03*
%TD*%
D22*
%TO.C,R7*%
X132825000Y-98500000D03*
X131175000Y-98500000D03*
%TD*%
D32*
%TO.C,J8*%
X152500000Y-120900000D03*
X150000000Y-120900000D03*
D33*
X147500000Y-120900000D03*
%TD*%
D27*
%TO.C,C4*%
X170475000Y-101750000D03*
X172025000Y-101750000D03*
%TD*%
D30*
%TO.C,H8*%
X171500000Y-122500000D03*
D31*
X171500000Y-122500000D03*
%TD*%
D43*
%TO.C,U4*%
X126950000Y-83000000D03*
X126950000Y-82500000D03*
X126950000Y-82000000D03*
D44*
X127175000Y-81275000D03*
X127675000Y-81275000D03*
X128175000Y-81275000D03*
X128675000Y-81275000D03*
X129175000Y-81275000D03*
D43*
X129400000Y-82000000D03*
X129400000Y-82500000D03*
X129400000Y-83000000D03*
D44*
X129175000Y-83725000D03*
X128675000Y-83725000D03*
X128175000Y-83725000D03*
X127675000Y-83725000D03*
X127175000Y-83725000D03*
%TD*%
D45*
%TO.C,D10*%
X160250000Y-114500000D03*
X164250000Y-114500000D03*
%TD*%
D46*
%TO.C,D7*%
X169037500Y-117425000D03*
X167462500Y-117425000D03*
%TD*%
D18*
%TO.C,C14*%
X149500000Y-113725000D03*
X149500000Y-115275000D03*
%TD*%
D47*
%TO.C,L1*%
X161250000Y-110475000D03*
X161250000Y-104925000D03*
%TD*%
D27*
%TO.C,C17*%
X156225000Y-100500000D03*
X157775000Y-100500000D03*
%TD*%
%TO.C,C7*%
X170475000Y-95750000D03*
X172025000Y-95750000D03*
%TD*%
D18*
%TO.C,C21*%
X162500000Y-85975000D03*
X162500000Y-87525000D03*
%TD*%
D27*
%TO.C,C6*%
X170475000Y-97750000D03*
X172025000Y-97750000D03*
%TD*%
D48*
%TO.C,R10*%
X172162500Y-106000000D03*
X170337500Y-106000000D03*
%TD*%
D49*
%TO.C,JP5*%
X171557500Y-87900000D03*
D42*
X171557500Y-89200000D03*
D50*
X171557500Y-90500000D03*
%TD*%
D25*
%TO.C,JP4*%
X128250000Y-105500000D03*
D26*
X128250000Y-106800000D03*
%TD*%
D35*
%TO.C,C58*%
X139750000Y-114275000D03*
X139750000Y-112725000D03*
%TD*%
D24*
%TO.C,R25*%
X148500000Y-107175000D03*
X148500000Y-108825000D03*
%TD*%
D51*
%TO.C,Q1*%
X171500000Y-81312500D03*
X172450000Y-83187500D03*
X170550000Y-83187500D03*
%TD*%
D17*
%TO.C,C57*%
X147275000Y-110750000D03*
X145725000Y-110750000D03*
%TD*%
D52*
%TO.C,J6*%
X128000000Y-96290000D03*
D53*
X132180000Y-96290000D03*
D52*
X128000000Y-87650000D03*
D53*
X132180000Y-87650000D03*
D54*
X133095000Y-88720000D03*
X133095000Y-89520000D03*
D55*
X133095000Y-90220000D03*
X133095000Y-91220000D03*
X133095000Y-92720000D03*
X133095000Y-93720000D03*
D54*
X133095000Y-94420000D03*
X133095000Y-95220000D03*
X133095000Y-95220000D03*
X133095000Y-94420000D03*
D55*
X133095000Y-93220000D03*
X133095000Y-92220000D03*
X133095000Y-91720000D03*
X133095000Y-90720000D03*
D54*
X133095000Y-89520000D03*
X133095000Y-88720000D03*
D56*
X131650000Y-94860000D03*
X131650000Y-89080000D03*
%TD*%
D57*
%TO.C,R11*%
X170337500Y-103750000D03*
X172162500Y-103750000D03*
%TD*%
D58*
%TO.C,U7*%
X146655000Y-108475000D03*
X145385000Y-108475000D03*
X144115000Y-108475000D03*
X142845000Y-108475000D03*
X142845000Y-103525000D03*
X144115000Y-103525000D03*
X145385000Y-103525000D03*
X146655000Y-103525000D03*
%TD*%
D59*
%TO.C,D2*%
X167500000Y-94500000D03*
X163500000Y-94500000D03*
%TD*%
D17*
%TO.C,R15*%
X168025000Y-79750000D03*
X166475000Y-79750000D03*
%TD*%
D18*
%TO.C,C13*%
X151500000Y-113725000D03*
X151500000Y-115275000D03*
%TD*%
%TO.C,C11*%
X153500000Y-113725000D03*
X153500000Y-115275000D03*
%TD*%
D17*
%TO.C,R14*%
X168025000Y-81500000D03*
X166475000Y-81500000D03*
%TD*%
D21*
%TO.C,R38*%
X162500000Y-91075000D03*
X162500000Y-89425000D03*
%TD*%
D60*
%TO.C,D9*%
X136250000Y-90250000D03*
X136250000Y-94250000D03*
%TD*%
D58*
%TO.C,U6*%
X134905000Y-108475000D03*
X133635000Y-108475000D03*
X132365000Y-108475000D03*
X131095000Y-108475000D03*
X131095000Y-103525000D03*
X132365000Y-103525000D03*
X133635000Y-103525000D03*
X134905000Y-103525000D03*
%TD*%
D17*
%TO.C,R8*%
X164025000Y-81500000D03*
X162475000Y-81500000D03*
%TD*%
D18*
%TO.C,C12*%
X155500000Y-113725000D03*
X155500000Y-115275000D03*
%TD*%
D37*
%TO.C,D6*%
X133000000Y-114750000D03*
X132050000Y-112750000D03*
X133950000Y-112750000D03*
%TD*%
%LPD*%
M02*
