%TF.GenerationSoftware,KiCad,Pcbnew,10.0.0*%
%TF.CreationDate,2026-09-18T03:09:02+10:00*%
%TF.ProjectId,Active-Damper-Master,41637469-7665-42d4-9461-6d7065722d4d,rev?*%
%TF.SameCoordinates,Original*%
%TF.FileFunction,Legend,Top*%
%TF.FilePolarity,Positive*%
%FSLAX46Y46*%
G04 Gerber Fmt 4.6, Leading zero omitted, Abs format (unit mm)*
G04 Created by KiCad (PCBNEW 10.0.0) date 2026-09-18 03:09:02*
%MOMM*%
%LPD*%
G01*
G04 APERTURE LIST*
G04 Aperture macros list*
%AMRoundRect*
0 Rectangle with rounded corners*
0 $1 Rounding radius*
0 $2 $3 $4 $5 $6 $7 $8 $9 X,Y pos of 4 corners*
0 Add a 4 corners polygon primitive as box body*
4,1,4,$2,$3,$4,$5,$6,$7,$8,$9,$2,$3,0*
0 Add four circle primitives for the rounded corners*
1,1,$1+$1,$2,$3*
1,1,$1+$1,$4,$5*
1,1,$1+$1,$6,$7*
1,1,$1+$1,$8,$9*
0 Add four rect primitives between the rounded corners*
20,1,$1+$1,$2,$3,$4,$5,0*
20,1,$1+$1,$4,$5,$6,$7,0*
20,1,$1+$1,$6,$7,$8,$9,0*
20,1,$1+$1,$8,$9,$2,$3,0*%
%AMFreePoly0*
4,1,23,0.500000,-0.750000,0.000000,-0.750000,0.000000,-0.745722,-0.065263,-0.745722,-0.191342,-0.711940,-0.304381,-0.646677,-0.396677,-0.554381,-0.461940,-0.441342,-0.495722,-0.315263,-0.495722,-0.250000,-0.500000,-0.250000,-0.500000,0.250000,-0.495722,0.250000,-0.495722,0.315263,-0.461940,0.441342,-0.396677,0.554381,-0.304381,0.646677,-0.191342,0.711940,-0.065263,0.745722,0.000000,0.745722,
0.000000,0.750000,0.500000,0.750000,0.500000,-0.750000,0.500000,-0.750000,$1*%
%AMFreePoly1*
4,1,23,0.000000,0.745722,0.065263,0.745722,0.191342,0.711940,0.304381,0.646677,0.396677,0.554381,0.461940,0.441342,0.495722,0.315263,0.495722,0.250000,0.500000,0.250000,0.500000,-0.250000,0.495722,-0.250000,0.495722,-0.315263,0.461940,-0.441342,0.396677,-0.554381,0.304381,-0.646677,0.191342,-0.711940,0.065263,-0.745722,0.000000,-0.745722,0.000000,-0.750000,-0.500000,-0.750000,
-0.500000,0.750000,0.000000,0.750000,0.000000,0.745722,0.000000,0.745722,$1*%
%AMFreePoly2*
4,1,23,0.550000,-0.750000,0.000000,-0.750000,0.000000,-0.745722,-0.065263,-0.745722,-0.191342,-0.711940,-0.304381,-0.646677,-0.396677,-0.554381,-0.461940,-0.441342,-0.495722,-0.315263,-0.495722,-0.250000,-0.500000,-0.250000,-0.500000,0.250000,-0.495722,0.250000,-0.495722,0.315263,-0.461940,0.441342,-0.396677,0.554381,-0.304381,0.646677,-0.191342,0.711940,-0.065263,0.745722,0.000000,0.745722,
0.000000,0.750000,0.550000,0.750000,0.550000,-0.750000,0.550000,-0.750000,$1*%
%AMFreePoly3*
4,1,23,0.000000,0.745722,0.065263,0.745722,0.191342,0.711940,0.304381,0.646677,0.396677,0.554381,0.461940,0.441342,0.495722,0.315263,0.495722,0.250000,0.500000,0.250000,0.500000,-0.250000,0.495722,-0.250000,0.495722,-0.315263,0.461940,-0.441342,0.396677,-0.554381,0.304381,-0.646677,0.191342,-0.711940,0.065263,-0.745722,0.000000,-0.745722,0.000000,-0.750000,-0.550000,-0.750000,
-0.550000,0.750000,0.000000,0.750000,0.000000,0.745722,0.000000,0.745722,$1*%
G04 Aperture macros list end*
%ADD10C,0.300000*%
%ADD11C,0.120000*%
%ADD12C,0.100000*%
%ADD13C,0.000000*%
%ADD14C,0.200000*%
%ADD15C,0.150000*%
%ADD16C,0.203200*%
%ADD17RoundRect,0.250001X1.099999X1.099999X-1.099999X1.099999X-1.099999X-1.099999X1.099999X-1.099999X0*%
%ADD18C,2.700000*%
%ADD19RoundRect,0.225000X0.225000X0.250000X-0.225000X0.250000X-0.225000X-0.250000X0.225000X-0.250000X0*%
%ADD20RoundRect,0.087500X-0.087500X0.225000X-0.087500X-0.225000X0.087500X-0.225000X0.087500X0.225000X0*%
%ADD21RoundRect,0.087500X-0.225000X0.087500X-0.225000X-0.087500X0.225000X-0.087500X0.225000X0.087500X0*%
%ADD22RoundRect,0.225000X-0.225000X-0.250000X0.225000X-0.250000X0.225000X0.250000X-0.225000X0.250000X0*%
%ADD23RoundRect,0.150000X-0.150000X0.825000X-0.150000X-0.825000X0.150000X-0.825000X0.150000X0.825000X0*%
%ADD24RoundRect,0.225000X0.250000X-0.225000X0.250000X0.225000X-0.250000X0.225000X-0.250000X-0.225000X0*%
%ADD25RoundRect,0.250000X-0.550000X-0.550000X0.550000X-0.550000X0.550000X0.550000X-0.550000X0.550000X0*%
%ADD26C,1.600000*%
%ADD27RoundRect,0.200000X-0.275000X0.200000X-0.275000X-0.200000X0.275000X-0.200000X0.275000X0.200000X0*%
%ADD28RoundRect,0.200000X-0.200000X-0.275000X0.200000X-0.275000X0.200000X0.275000X-0.200000X0.275000X0*%
%ADD29RoundRect,0.200000X0.200000X0.275000X-0.200000X0.275000X-0.200000X-0.275000X0.200000X-0.275000X0*%
%ADD30FreePoly0,90.000000*%
%ADD31FreePoly1,90.000000*%
%ADD32R,1.500000X0.900000*%
%ADD33R,0.800000X0.800000*%
%ADD34C,3.600000*%
%ADD35C,5.500000*%
%ADD36RoundRect,0.250000X0.750000X-0.275000X0.750000X0.275000X-0.750000X0.275000X-0.750000X-0.275000X0*%
%ADD37RoundRect,0.225000X-0.250000X0.225000X-0.250000X-0.225000X0.250000X-0.225000X0.250000X0.225000X0*%
%ADD38RoundRect,0.250000X-0.750000X0.275000X-0.750000X-0.275000X0.750000X-0.275000X0.750000X0.275000X0*%
%ADD39RoundRect,0.200000X-0.200000X0.250000X-0.200000X-0.250000X0.200000X-0.250000X0.200000X0.250000X0*%
%ADD40O,0.600000X1.300000*%
%ADD41RoundRect,0.625000X1.125000X-0.625000X1.125000X0.625000X-1.125000X0.625000X-1.125000X-0.625000X0*%
%ADD42RoundRect,0.375000X0.375000X-0.625000X0.375000X0.625000X-0.375000X0.625000X-0.375000X-0.625000X0*%
%ADD43RoundRect,0.500000X1.400000X-0.500000X1.400000X0.500000X-1.400000X0.500000X-1.400000X-0.500000X0*%
%ADD44R,1.500000X1.000000*%
%ADD45RoundRect,0.260556X1.027444X0.677444X-1.027444X0.677444X-1.027444X-0.677444X1.027444X-0.677444X0*%
%ADD46RoundRect,0.218750X-0.218750X-0.256250X0.218750X-0.256250X0.218750X0.256250X-0.218750X0.256250X0*%
%ADD47R,3.500000X1.850000*%
%ADD48RoundRect,0.250000X-0.262500X-0.450000X0.262500X-0.450000X0.262500X0.450000X-0.262500X0.450000X0*%
%ADD49FreePoly2,90.000000*%
%ADD50FreePoly3,90.000000*%
%ADD51C,0.650000*%
%ADD52RoundRect,0.150000X-0.575000X0.150000X-0.575000X-0.150000X0.575000X-0.150000X0.575000X0.150000X0*%
%ADD53RoundRect,0.075000X-0.650000X0.075000X-0.650000X-0.075000X0.650000X-0.075000X0.650000X0.075000X0*%
%ADD54O,2.100000X1.000000*%
%ADD55O,1.600000X1.000000*%
%ADD56RoundRect,0.250000X0.262500X0.450000X-0.262500X0.450000X-0.262500X-0.450000X0.262500X-0.450000X0*%
%ADD57RoundRect,0.260556X-1.027444X-0.677444X1.027444X-0.677444X1.027444X0.677444X-1.027444X0.677444X0*%
%ADD58RoundRect,0.260556X0.677444X-1.027444X0.677444X1.027444X-0.677444X1.027444X-0.677444X-1.027444X0*%
G04 APERTURE END LIST*
D10*
G36*
X153755002Y-101665084D02*
G01*
X153815267Y-101685453D01*
X153865928Y-101718339D01*
X153928504Y-101787622D01*
X153977547Y-101881004D01*
X154010954Y-101987076D01*
X154033234Y-102109982D01*
X154044928Y-102237632D01*
X154048866Y-102368757D01*
X154044939Y-102498605D01*
X154033234Y-102626067D01*
X154010958Y-102748989D01*
X153977547Y-102855167D01*
X153928512Y-102948446D01*
X153865928Y-103017711D01*
X153815267Y-103050596D01*
X153755002Y-103070965D01*
X153682623Y-103078161D01*
X153610150Y-103070978D01*
X153549582Y-103050618D01*
X153498464Y-103017711D01*
X153435234Y-102948420D01*
X153385502Y-102855167D01*
X153351601Y-102748957D01*
X153329082Y-102626067D01*
X153317377Y-102498605D01*
X153313450Y-102368757D01*
X153317388Y-102237632D01*
X153329082Y-102109982D01*
X153351605Y-101987109D01*
X153385502Y-101881004D01*
X153435241Y-101787648D01*
X153498464Y-101718339D01*
X153549582Y-101685431D01*
X153610150Y-101665071D01*
X153682623Y-101657889D01*
X153755002Y-101665084D01*
G37*
G36*
X154523512Y-103507623D02*
G01*
X148787059Y-103507623D01*
X148787059Y-101415478D01*
X149009281Y-101415478D01*
X149673377Y-103260000D01*
X149965736Y-103260000D01*
X150502564Y-101784162D01*
X150899720Y-101784162D01*
X150899720Y-102007889D01*
X151015368Y-101985317D01*
X151112700Y-101954155D01*
X151201712Y-101913791D01*
X151274145Y-101870380D01*
X151335926Y-101821929D01*
X151372452Y-101782208D01*
X151372452Y-103260000D01*
X151619382Y-103260000D01*
X151619382Y-103083900D01*
X152356263Y-103083900D01*
X152369240Y-103152318D01*
X152407920Y-103208953D01*
X152465672Y-103247004D01*
X152537735Y-103260000D01*
X152608388Y-103247013D01*
X152664741Y-103208953D01*
X152702468Y-103152414D01*
X152715177Y-103083900D01*
X152702303Y-103013325D01*
X152664741Y-102957627D01*
X152608496Y-102920610D01*
X152537735Y-102907923D01*
X152465556Y-102920591D01*
X152407920Y-102957505D01*
X152369413Y-103013319D01*
X152356263Y-103083900D01*
X151619382Y-103083900D01*
X151619382Y-102371444D01*
X153062491Y-102371444D01*
X153070811Y-102558974D01*
X153094731Y-102727916D01*
X153137916Y-102885944D01*
X153199023Y-103018565D01*
X153252910Y-103096783D01*
X153316430Y-103161761D01*
X153390265Y-103214692D01*
X153472460Y-103252860D01*
X153568925Y-103276893D01*
X153682623Y-103285401D01*
X153796238Y-103276895D01*
X153892666Y-103252864D01*
X153974860Y-103214692D01*
X154048714Y-103161722D01*
X154111979Y-103096744D01*
X154165369Y-103018565D01*
X154225980Y-102885891D01*
X154269050Y-102727184D01*
X154292963Y-102557548D01*
X154301290Y-102368757D01*
X154292963Y-102179967D01*
X154269050Y-102010331D01*
X154226030Y-101851323D01*
X154165369Y-101717484D01*
X154111870Y-101638503D01*
X154048597Y-101573359D01*
X153974860Y-101520746D01*
X153892705Y-101482918D01*
X153796275Y-101459087D01*
X153682623Y-101450648D01*
X153568925Y-101459157D01*
X153472460Y-101483190D01*
X153390265Y-101521357D01*
X153316478Y-101574327D01*
X153252954Y-101639535D01*
X153199023Y-101718217D01*
X153137949Y-101851549D01*
X153094731Y-102010942D01*
X153070825Y-102181378D01*
X153062609Y-102368757D01*
X153062491Y-102371444D01*
X151619382Y-102371444D01*
X151619382Y-101474096D01*
X151401639Y-101474096D01*
X151352815Y-101533718D01*
X151284281Y-101599881D01*
X151205483Y-101660264D01*
X151112944Y-101714675D01*
X151012076Y-101756700D01*
X150899720Y-101784162D01*
X150502564Y-101784162D01*
X150636671Y-101415478D01*
X150368736Y-101415478D01*
X149822243Y-102984860D01*
X149278558Y-101415478D01*
X149009281Y-101415478D01*
X148787059Y-101415478D01*
X148787059Y-101193256D01*
X154523512Y-101193256D01*
X154523512Y-103507623D01*
G37*
G36*
X140406707Y-99795120D02*
G01*
X139484935Y-99795120D01*
X139947836Y-98512845D01*
X140406707Y-99795120D01*
G37*
G36*
X142621509Y-98458663D02*
G01*
X142816088Y-98498499D01*
X142976936Y-98560289D01*
X143121084Y-98651095D01*
X143237600Y-98767113D01*
X143329195Y-98911083D01*
X143391596Y-99071916D01*
X143431906Y-99267432D01*
X143446432Y-99504593D01*
X143432165Y-99743381D01*
X143392590Y-99940314D01*
X143331393Y-100102316D01*
X143240888Y-100247402D01*
X143125399Y-100363653D01*
X142982248Y-100454026D01*
X142822021Y-100515014D01*
X142625877Y-100554578D01*
X142386540Y-100568881D01*
X141915029Y-100568881D01*
X141915029Y-98444335D01*
X142386540Y-98444335D01*
X142621509Y-98458663D01*
G37*
G36*
X154521932Y-101261434D02*
G01*
X138380588Y-101261434D01*
X138380588Y-100890000D01*
X138713921Y-100890000D01*
X139105565Y-100890000D01*
X139380155Y-100116238D01*
X140515334Y-100116238D01*
X140777651Y-100890000D01*
X141171493Y-100890000D01*
X141052774Y-100568881D01*
X141534377Y-100568881D01*
X141534377Y-100890000D01*
X142468606Y-100890000D01*
X142752703Y-100870530D01*
X142996769Y-100815353D01*
X143207196Y-100727700D01*
X143395949Y-100602654D01*
X143551089Y-100446084D01*
X143675593Y-100254724D01*
X143762893Y-100041812D01*
X143817914Y-99794593D01*
X143837206Y-99508623D01*
X144276064Y-99508623D01*
X144293918Y-99784850D01*
X144345129Y-100029378D01*
X144427372Y-100246847D01*
X144545001Y-100445333D01*
X144692777Y-100610920D01*
X144873054Y-100746934D01*
X145022818Y-100823698D01*
X145191493Y-100880267D01*
X145381994Y-100915707D01*
X145597723Y-100928101D01*
X145804001Y-100915642D01*
X145991138Y-100879561D01*
X146161741Y-100821123D01*
X146319876Y-100737078D01*
X146455759Y-100630019D01*
X146571702Y-100498539D01*
X146660875Y-100347784D01*
X146725697Y-100166722D01*
X146764043Y-99949359D01*
X146379361Y-99949359D01*
X146349726Y-100113165D01*
X146298947Y-100247425D01*
X146228747Y-100357303D01*
X146138843Y-100446516D01*
X145992539Y-100535278D01*
X145814820Y-100591087D01*
X145597723Y-100611013D01*
X145381921Y-100592967D01*
X145206305Y-100542735D01*
X145063014Y-100463735D01*
X144939872Y-100354804D01*
X144840845Y-100223179D01*
X144764794Y-100065680D01*
X144713568Y-99896095D01*
X144707637Y-99861432D01*
X147261749Y-99861432D01*
X147274977Y-100064574D01*
X147313172Y-100247122D01*
X147374956Y-100412077D01*
X147464711Y-100561062D01*
X147583234Y-100686695D01*
X147733810Y-100791081D01*
X147902982Y-100863904D01*
X148111573Y-100911040D01*
X148368169Y-100928101D01*
X148628939Y-100910928D01*
X148721980Y-100890000D01*
X151584481Y-100890000D01*
X151950662Y-100890000D01*
X151950662Y-98668145D01*
X152765457Y-100022449D01*
X153013852Y-100022449D01*
X153814174Y-98671798D01*
X153814174Y-100890000D01*
X154188599Y-100890000D01*
X154188599Y-98123217D01*
X153785964Y-98123217D01*
X152900199Y-99614601D01*
X151997374Y-98123217D01*
X151584481Y-98123217D01*
X151584481Y-100890000D01*
X148721980Y-100890000D01*
X148838953Y-100863689D01*
X149007475Y-100791081D01*
X149157355Y-100686764D01*
X149275538Y-100561138D01*
X149365230Y-100412077D01*
X149427116Y-100247112D01*
X149465372Y-100064565D01*
X149468214Y-100020983D01*
X149999406Y-100020983D01*
X151033653Y-100020983D01*
X151033653Y-99705910D01*
X149999406Y-99705910D01*
X149999406Y-100020983D01*
X149468214Y-100020983D01*
X149478620Y-99861432D01*
X149478620Y-98123217D01*
X149093754Y-98123217D01*
X149093754Y-99816369D01*
X149079497Y-100034881D01*
X149041100Y-100202680D01*
X148983463Y-100330106D01*
X148908923Y-100425450D01*
X148811838Y-100501327D01*
X148692952Y-100557779D01*
X148547690Y-100593963D01*
X148370184Y-100606983D01*
X148193724Y-100594006D01*
X148048832Y-100557887D01*
X147929800Y-100501438D01*
X147832178Y-100425450D01*
X147757229Y-100330039D01*
X147699313Y-100202581D01*
X147660748Y-100034801D01*
X147646432Y-99816369D01*
X147646432Y-98123217D01*
X147261749Y-98123217D01*
X147261749Y-99861432D01*
X144707637Y-99861432D01*
X144681919Y-99711128D01*
X144671004Y-99508623D01*
X144681943Y-99304882D01*
X144713616Y-99119393D01*
X144764794Y-98949918D01*
X144840757Y-98792160D01*
X144939838Y-98659446D01*
X145063197Y-98548749D01*
X145206723Y-98467874D01*
X145382278Y-98416577D01*
X145597723Y-98398173D01*
X145782557Y-98414675D01*
X145952913Y-98463203D01*
X146105898Y-98545503D01*
X146231350Y-98661222D01*
X146295077Y-98755225D01*
X146341398Y-98868294D01*
X146369286Y-99004323D01*
X146751770Y-99004323D01*
X146714948Y-98800174D01*
X146648557Y-98629302D01*
X146554117Y-98485917D01*
X146432938Y-98362319D01*
X146293532Y-98262054D01*
X146133714Y-98184033D01*
X145963256Y-98129361D01*
X145785095Y-98096303D01*
X145597723Y-98085115D01*
X145381994Y-98097509D01*
X145191493Y-98132949D01*
X145022818Y-98189518D01*
X144873054Y-98266282D01*
X144692925Y-98402403D01*
X144545128Y-98568678D01*
X144427372Y-98768567D01*
X144345065Y-98987335D01*
X144293884Y-99232518D01*
X144276064Y-99508623D01*
X143837206Y-99508623D01*
X143837342Y-99506608D01*
X143818065Y-99219932D01*
X143763432Y-98973402D01*
X143676692Y-98760690D01*
X143552755Y-98569298D01*
X143397932Y-98412412D01*
X143209211Y-98286798D01*
X142998804Y-98198500D01*
X142754125Y-98142867D01*
X142468606Y-98123217D01*
X141534377Y-98123217D01*
X141534377Y-100568881D01*
X141052774Y-100568881D01*
X140148604Y-98123217D01*
X139751099Y-98123217D01*
X139124356Y-99795120D01*
X138713921Y-100890000D01*
X138380588Y-100890000D01*
X138380588Y-97751782D01*
X154521932Y-97751782D01*
X154521932Y-101261434D01*
G37*
G36*
X160530717Y-120686324D02*
G01*
X158775890Y-120686324D01*
X158775890Y-120519657D01*
X158961608Y-120519657D01*
X160345000Y-120519657D01*
X160345000Y-120329330D01*
X158961608Y-120329330D01*
X158961608Y-120519657D01*
X158775890Y-120519657D01*
X158775890Y-119381363D01*
X158942557Y-119381363D01*
X158948695Y-119489759D01*
X158966236Y-119585430D01*
X158994212Y-119670077D01*
X159032133Y-119745163D01*
X159099631Y-119835539D01*
X159182392Y-119909610D01*
X159282177Y-119968553D01*
X159391578Y-120009648D01*
X159514834Y-120035267D01*
X159654311Y-120044207D01*
X159793106Y-120035274D01*
X159915883Y-120009663D01*
X160024980Y-119968553D01*
X160124414Y-119909642D01*
X160207003Y-119835577D01*
X160274474Y-119745163D01*
X160312396Y-119670077D01*
X160340372Y-119585430D01*
X160357913Y-119489759D01*
X160364050Y-119381363D01*
X160354558Y-119248070D01*
X160327994Y-119137004D01*
X160286290Y-119044308D01*
X160227430Y-118961739D01*
X160155963Y-118894906D01*
X160070593Y-118842441D01*
X159976378Y-118805672D01*
X159871059Y-118782866D01*
X159752680Y-118774938D01*
X159642221Y-118774938D01*
X159642221Y-119363777D01*
X159800765Y-119363777D01*
X159800765Y-118961235D01*
X159877794Y-118967592D01*
X159947153Y-118983470D01*
X160009959Y-119008404D01*
X160066679Y-119043716D01*
X160114152Y-119089129D01*
X160153208Y-119145699D01*
X160180525Y-119209056D01*
X160198142Y-119286597D01*
X160204499Y-119381363D01*
X160195540Y-119489990D01*
X160170580Y-119578679D01*
X160131318Y-119651282D01*
X160077082Y-119714003D01*
X160011585Y-119764534D01*
X159933298Y-119803506D01*
X159848791Y-119829897D01*
X159756185Y-119846225D01*
X159654311Y-119851866D01*
X159551802Y-119846272D01*
X159458741Y-119830089D01*
X159373951Y-119803964D01*
X159295185Y-119765329D01*
X159228976Y-119714983D01*
X159173825Y-119652289D01*
X159133645Y-119579589D01*
X159108197Y-119491211D01*
X159099086Y-119383378D01*
X159103891Y-119308137D01*
X159117534Y-119243005D01*
X159139203Y-119186457D01*
X159186480Y-119111235D01*
X159244808Y-119055390D01*
X159314017Y-119016560D01*
X159390895Y-118996589D01*
X159390895Y-118806354D01*
X159314661Y-118819024D01*
X159248455Y-118840118D01*
X159190860Y-118869094D01*
X159114342Y-118927311D01*
X159052283Y-118999520D01*
X159004356Y-119082927D01*
X158969851Y-119176657D01*
X158949468Y-119276044D01*
X158942557Y-119381363D01*
X158775890Y-119381363D01*
X158775890Y-117542306D01*
X158961608Y-117542306D01*
X160051175Y-117542306D01*
X158961608Y-118293994D01*
X158961608Y-118487068D01*
X160345000Y-118487068D01*
X160345000Y-118307000D01*
X159253326Y-118307000D01*
X160345000Y-117554304D01*
X160345000Y-117361230D01*
X158961608Y-117361230D01*
X158961608Y-117542306D01*
X158775890Y-117542306D01*
X158775890Y-117194563D01*
X160530717Y-117194563D01*
X160530717Y-120686324D01*
G37*
G36*
X156611667Y-120669929D02*
G01*
X154921319Y-120669929D01*
X154921319Y-120126823D01*
X155105572Y-120126823D01*
X155150288Y-120163441D01*
X155199911Y-120214842D01*
X155245198Y-120273940D01*
X155286006Y-120343344D01*
X155317525Y-120418995D01*
X155338121Y-120503262D01*
X155505916Y-120503262D01*
X155488988Y-120416526D01*
X155465616Y-120343527D01*
X155435343Y-120276768D01*
X155402785Y-120222444D01*
X155366447Y-120176108D01*
X155336656Y-120148713D01*
X156445000Y-120148713D01*
X156445000Y-119963516D01*
X155105572Y-119963516D01*
X155105572Y-120126823D01*
X154921319Y-120126823D01*
X154921319Y-119011427D01*
X155087986Y-119011427D01*
X155094289Y-119107828D01*
X155111931Y-119188576D01*
X155139552Y-119256250D01*
X155179074Y-119317085D01*
X155227246Y-119365880D01*
X155284815Y-119403894D01*
X155349069Y-119430451D01*
X155422591Y-119447066D01*
X155507107Y-119452896D01*
X155507107Y-119275942D01*
X155433166Y-119268656D01*
X155371547Y-119248033D01*
X155319712Y-119214759D01*
X155281162Y-119168646D01*
X155255992Y-119103140D01*
X155246530Y-119011427D01*
X155255018Y-118930346D01*
X155277684Y-118872035D01*
X155312568Y-118830626D01*
X155359273Y-118800697D01*
X155414837Y-118782139D01*
X155481553Y-118775580D01*
X155546253Y-118781600D01*
X155609159Y-118799721D01*
X155671238Y-118830626D01*
X155760769Y-118897315D01*
X155872555Y-119008312D01*
X156305506Y-119483670D01*
X156445000Y-119483670D01*
X156445000Y-118552464D01*
X156287463Y-118552464D01*
X156287463Y-119239397D01*
X155977885Y-118893640D01*
X155902090Y-118813212D01*
X155827401Y-118741691D01*
X155748250Y-118679392D01*
X155665285Y-118632148D01*
X155575388Y-118601815D01*
X155474043Y-118591390D01*
X155397169Y-118597175D01*
X155329762Y-118613755D01*
X155270252Y-118640483D01*
X155217173Y-118677921D01*
X155172581Y-118725218D01*
X155135888Y-118783548D01*
X155110105Y-118847842D01*
X155093775Y-118923113D01*
X155087986Y-119011427D01*
X154921319Y-119011427D01*
X154921319Y-118385797D01*
X156611667Y-118385797D01*
X156611667Y-120669929D01*
G37*
G36*
X152630717Y-120656024D02*
G01*
X150875890Y-120656024D01*
X150875890Y-119828528D01*
X151042557Y-119828528D01*
X151048754Y-119936392D01*
X151066474Y-120031643D01*
X151094759Y-120115980D01*
X151133141Y-120190862D01*
X151201201Y-120280927D01*
X151284339Y-120354825D01*
X151384283Y-120413703D01*
X151493667Y-120454857D01*
X151616259Y-120480447D01*
X151754311Y-120489357D01*
X151892425Y-120480430D01*
X152014689Y-120454825D01*
X152123423Y-120413703D01*
X152222666Y-120354889D01*
X152305460Y-120281001D01*
X152373467Y-120190862D01*
X152411849Y-120115980D01*
X152440133Y-120031643D01*
X152457853Y-119936392D01*
X152464050Y-119828528D01*
X152457821Y-119725389D01*
X152439780Y-119631820D01*
X152410561Y-119546519D01*
X152368539Y-119467451D01*
X152315009Y-119399510D01*
X152249269Y-119341538D01*
X152173892Y-119296952D01*
X152083361Y-119264541D01*
X151974679Y-119245368D01*
X151974679Y-119437709D01*
X152056582Y-119452526D01*
X152123712Y-119477916D01*
X152178651Y-119513016D01*
X152223258Y-119557968D01*
X152267639Y-119631120D01*
X152295543Y-119719979D01*
X152305506Y-119828528D01*
X152296483Y-119936429D01*
X152271367Y-120024237D01*
X152231867Y-120095882D01*
X152177402Y-120157453D01*
X152111589Y-120206967D01*
X152032840Y-120244993D01*
X151948047Y-120270605D01*
X151855564Y-120286430D01*
X151754311Y-120291887D01*
X151652441Y-120286418D01*
X151559696Y-120270581D01*
X151474959Y-120244993D01*
X151396080Y-120207011D01*
X151329723Y-120157470D01*
X151274374Y-120095791D01*
X151233937Y-120024028D01*
X151208288Y-119936250D01*
X151199086Y-119828528D01*
X151207337Y-119736111D01*
X151231601Y-119650933D01*
X151272751Y-119574440D01*
X151330611Y-119511714D01*
X151377612Y-119479851D01*
X151434147Y-119456690D01*
X151502161Y-119442746D01*
X151502161Y-119251504D01*
X151400087Y-119269915D01*
X151314651Y-119303111D01*
X151242958Y-119350331D01*
X151181159Y-119410920D01*
X151131027Y-119480623D01*
X151092016Y-119560532D01*
X151064680Y-119645761D01*
X151048151Y-119734842D01*
X151042557Y-119828528D01*
X150875890Y-119828528D01*
X150875890Y-118027298D01*
X151061608Y-118027298D01*
X151640372Y-118027298D01*
X151640372Y-118775597D01*
X151061608Y-118775597D01*
X151061608Y-118965923D01*
X152445000Y-118965923D01*
X152445000Y-118775597D01*
X151806060Y-118775597D01*
X151806060Y-118027298D01*
X152445000Y-118027298D01*
X152445000Y-117839078D01*
X151061608Y-117839078D01*
X151061608Y-118027298D01*
X150875890Y-118027298D01*
X150875890Y-117094260D01*
X151087986Y-117094260D01*
X151094289Y-117190661D01*
X151111931Y-117271409D01*
X151139552Y-117339083D01*
X151179074Y-117399918D01*
X151227246Y-117448713D01*
X151284815Y-117486728D01*
X151349069Y-117513284D01*
X151422591Y-117529899D01*
X151507107Y-117535729D01*
X151507107Y-117358775D01*
X151433166Y-117351489D01*
X151371547Y-117330867D01*
X151319712Y-117297592D01*
X151281162Y-117251479D01*
X151255992Y-117185973D01*
X151246530Y-117094260D01*
X151255018Y-117013179D01*
X151277684Y-116954869D01*
X151312568Y-116913459D01*
X151359273Y-116883530D01*
X151414837Y-116864972D01*
X151481553Y-116858413D01*
X151546253Y-116864434D01*
X151609159Y-116882554D01*
X151671238Y-116913459D01*
X151760769Y-116980148D01*
X151872555Y-117091146D01*
X152305506Y-117566503D01*
X152445000Y-117566503D01*
X152445000Y-116635297D01*
X152287463Y-116635297D01*
X152287463Y-117322230D01*
X151977885Y-116976474D01*
X151902090Y-116896045D01*
X151827401Y-116824524D01*
X151748250Y-116762225D01*
X151665285Y-116714981D01*
X151575388Y-116684648D01*
X151474043Y-116674223D01*
X151397169Y-116680008D01*
X151329762Y-116696588D01*
X151270252Y-116723316D01*
X151217173Y-116760755D01*
X151172581Y-116808052D01*
X151135888Y-116866381D01*
X151110105Y-116930675D01*
X151093775Y-117005947D01*
X151087986Y-117094260D01*
X150875890Y-117094260D01*
X150875890Y-116468630D01*
X152630717Y-116468630D01*
X152630717Y-120656024D01*
G37*
G36*
X144730717Y-120656024D02*
G01*
X142975890Y-120656024D01*
X142975890Y-119828528D01*
X143142557Y-119828528D01*
X143148754Y-119936392D01*
X143166474Y-120031643D01*
X143194759Y-120115980D01*
X143233141Y-120190862D01*
X143301201Y-120280927D01*
X143384339Y-120354825D01*
X143484283Y-120413703D01*
X143593667Y-120454857D01*
X143716259Y-120480447D01*
X143854311Y-120489357D01*
X143992425Y-120480430D01*
X144114689Y-120454825D01*
X144223423Y-120413703D01*
X144322666Y-120354889D01*
X144405460Y-120281001D01*
X144473467Y-120190862D01*
X144511849Y-120115980D01*
X144540133Y-120031643D01*
X144557853Y-119936392D01*
X144564050Y-119828528D01*
X144557821Y-119725389D01*
X144539780Y-119631820D01*
X144510561Y-119546519D01*
X144468539Y-119467451D01*
X144415009Y-119399510D01*
X144349269Y-119341538D01*
X144273892Y-119296952D01*
X144183361Y-119264541D01*
X144074679Y-119245368D01*
X144074679Y-119437709D01*
X144156582Y-119452526D01*
X144223712Y-119477916D01*
X144278651Y-119513016D01*
X144323258Y-119557968D01*
X144367639Y-119631120D01*
X144395543Y-119719979D01*
X144405506Y-119828528D01*
X144396483Y-119936429D01*
X144371367Y-120024237D01*
X144331867Y-120095882D01*
X144277402Y-120157453D01*
X144211589Y-120206967D01*
X144132840Y-120244993D01*
X144048047Y-120270605D01*
X143955564Y-120286430D01*
X143854311Y-120291887D01*
X143752441Y-120286418D01*
X143659696Y-120270581D01*
X143574959Y-120244993D01*
X143496080Y-120207011D01*
X143429723Y-120157470D01*
X143374374Y-120095791D01*
X143333937Y-120024028D01*
X143308288Y-119936250D01*
X143299086Y-119828528D01*
X143307337Y-119736111D01*
X143331601Y-119650933D01*
X143372751Y-119574440D01*
X143430611Y-119511714D01*
X143477612Y-119479851D01*
X143534147Y-119456690D01*
X143602161Y-119442746D01*
X143602161Y-119251504D01*
X143500087Y-119269915D01*
X143414651Y-119303111D01*
X143342958Y-119350331D01*
X143281159Y-119410920D01*
X143231027Y-119480623D01*
X143192016Y-119560532D01*
X143164680Y-119645761D01*
X143148151Y-119734842D01*
X143142557Y-119828528D01*
X142975890Y-119828528D01*
X142975890Y-118027298D01*
X143161608Y-118027298D01*
X143740372Y-118027298D01*
X143740372Y-118775597D01*
X143161608Y-118775597D01*
X143161608Y-118965923D01*
X144545000Y-118965923D01*
X144545000Y-118775597D01*
X143906060Y-118775597D01*
X143906060Y-118027298D01*
X144545000Y-118027298D01*
X144545000Y-117839078D01*
X143161608Y-117839078D01*
X143161608Y-118027298D01*
X142975890Y-118027298D01*
X142975890Y-117088581D01*
X143205572Y-117088581D01*
X143250288Y-117125199D01*
X143299911Y-117176600D01*
X143345198Y-117235698D01*
X143386006Y-117305102D01*
X143417525Y-117380753D01*
X143438121Y-117465020D01*
X143605916Y-117465020D01*
X143588988Y-117378284D01*
X143565616Y-117305286D01*
X143535343Y-117238527D01*
X143502785Y-117184202D01*
X143466447Y-117137866D01*
X143436656Y-117110471D01*
X144545000Y-117110471D01*
X144545000Y-116925274D01*
X143205572Y-116925274D01*
X143205572Y-117088581D01*
X142975890Y-117088581D01*
X142975890Y-116758607D01*
X144730717Y-116758607D01*
X144730717Y-120656024D01*
G37*
G36*
X148630717Y-120656024D02*
G01*
X146875890Y-120656024D01*
X146875890Y-119828528D01*
X147042557Y-119828528D01*
X147048754Y-119936392D01*
X147066474Y-120031643D01*
X147094759Y-120115980D01*
X147133141Y-120190862D01*
X147201201Y-120280927D01*
X147284339Y-120354825D01*
X147384283Y-120413703D01*
X147493667Y-120454857D01*
X147616259Y-120480447D01*
X147754311Y-120489357D01*
X147892425Y-120480430D01*
X148014689Y-120454825D01*
X148123423Y-120413703D01*
X148222666Y-120354889D01*
X148305460Y-120281001D01*
X148373467Y-120190862D01*
X148411849Y-120115980D01*
X148440133Y-120031643D01*
X148457853Y-119936392D01*
X148464050Y-119828528D01*
X148457821Y-119725389D01*
X148439780Y-119631820D01*
X148410561Y-119546519D01*
X148368539Y-119467451D01*
X148315009Y-119399510D01*
X148249269Y-119341538D01*
X148173892Y-119296952D01*
X148083361Y-119264541D01*
X147974679Y-119245368D01*
X147974679Y-119437709D01*
X148056582Y-119452526D01*
X148123712Y-119477916D01*
X148178651Y-119513016D01*
X148223258Y-119557968D01*
X148267639Y-119631120D01*
X148295543Y-119719979D01*
X148305506Y-119828528D01*
X148296483Y-119936429D01*
X148271367Y-120024237D01*
X148231867Y-120095882D01*
X148177402Y-120157453D01*
X148111589Y-120206967D01*
X148032840Y-120244993D01*
X147948047Y-120270605D01*
X147855564Y-120286430D01*
X147754311Y-120291887D01*
X147652441Y-120286418D01*
X147559696Y-120270581D01*
X147474959Y-120244993D01*
X147396080Y-120207011D01*
X147329723Y-120157470D01*
X147274374Y-120095791D01*
X147233937Y-120024028D01*
X147208288Y-119936250D01*
X147199086Y-119828528D01*
X147207337Y-119736111D01*
X147231601Y-119650933D01*
X147272751Y-119574440D01*
X147330611Y-119511714D01*
X147377612Y-119479851D01*
X147434147Y-119456690D01*
X147502161Y-119442746D01*
X147502161Y-119251504D01*
X147400087Y-119269915D01*
X147314651Y-119303111D01*
X147242958Y-119350331D01*
X147181159Y-119410920D01*
X147131027Y-119480623D01*
X147092016Y-119560532D01*
X147064680Y-119645761D01*
X147048151Y-119734842D01*
X147042557Y-119828528D01*
X146875890Y-119828528D01*
X146875890Y-118775597D01*
X147061608Y-118775597D01*
X147061608Y-118965923D01*
X148445000Y-118965923D01*
X148445000Y-118131071D01*
X148280319Y-118131071D01*
X148280319Y-118775597D01*
X147061608Y-118775597D01*
X146875890Y-118775597D01*
X146875890Y-117530966D01*
X147087986Y-117530966D01*
X147094289Y-117627367D01*
X147111931Y-117708115D01*
X147139552Y-117775789D01*
X147179074Y-117836624D01*
X147227246Y-117885419D01*
X147284815Y-117923434D01*
X147349069Y-117949990D01*
X147422591Y-117966605D01*
X147507107Y-117972435D01*
X147507107Y-117795481D01*
X147433166Y-117788195D01*
X147371547Y-117767573D01*
X147319712Y-117734298D01*
X147281162Y-117688185D01*
X147255992Y-117622680D01*
X147246530Y-117530966D01*
X147255018Y-117449885D01*
X147277684Y-117391575D01*
X147312568Y-117350165D01*
X147359273Y-117320236D01*
X147414837Y-117301678D01*
X147481553Y-117295119D01*
X147546253Y-117301140D01*
X147609159Y-117319261D01*
X147671238Y-117350165D01*
X147760769Y-117416854D01*
X147872555Y-117527852D01*
X148305506Y-118003210D01*
X148445000Y-118003210D01*
X148445000Y-117072003D01*
X148287463Y-117072003D01*
X148287463Y-117758936D01*
X147977885Y-117413180D01*
X147902090Y-117332751D01*
X147827401Y-117261230D01*
X147748250Y-117198932D01*
X147665285Y-117151687D01*
X147575388Y-117121355D01*
X147474043Y-117110929D01*
X147397169Y-117116714D01*
X147329762Y-117133294D01*
X147270252Y-117160022D01*
X147217173Y-117197461D01*
X147172581Y-117244758D01*
X147135888Y-117303087D01*
X147110105Y-117367382D01*
X147093775Y-117442653D01*
X147087986Y-117530966D01*
X146875890Y-117530966D01*
X146875890Y-116905336D01*
X148630717Y-116905336D01*
X148630717Y-120656024D01*
G37*
G36*
X140730717Y-120656024D02*
G01*
X138975890Y-120656024D01*
X138975890Y-119828528D01*
X139142557Y-119828528D01*
X139148754Y-119936392D01*
X139166474Y-120031643D01*
X139194759Y-120115980D01*
X139233141Y-120190862D01*
X139301201Y-120280927D01*
X139384339Y-120354825D01*
X139484283Y-120413703D01*
X139593667Y-120454857D01*
X139716259Y-120480447D01*
X139854311Y-120489357D01*
X139992425Y-120480430D01*
X140114689Y-120454825D01*
X140223423Y-120413703D01*
X140322666Y-120354889D01*
X140405460Y-120281001D01*
X140473467Y-120190862D01*
X140511849Y-120115980D01*
X140540133Y-120031643D01*
X140557853Y-119936392D01*
X140564050Y-119828528D01*
X140557821Y-119725389D01*
X140539780Y-119631820D01*
X140510561Y-119546519D01*
X140468539Y-119467451D01*
X140415009Y-119399510D01*
X140349269Y-119341538D01*
X140273892Y-119296952D01*
X140183361Y-119264541D01*
X140074679Y-119245368D01*
X140074679Y-119437709D01*
X140156582Y-119452526D01*
X140223712Y-119477916D01*
X140278651Y-119513016D01*
X140323258Y-119557968D01*
X140367639Y-119631120D01*
X140395543Y-119719979D01*
X140405506Y-119828528D01*
X140396483Y-119936429D01*
X140371367Y-120024237D01*
X140331867Y-120095882D01*
X140277402Y-120157453D01*
X140211589Y-120206967D01*
X140132840Y-120244993D01*
X140048047Y-120270605D01*
X139955564Y-120286430D01*
X139854311Y-120291887D01*
X139752441Y-120286418D01*
X139659696Y-120270581D01*
X139574959Y-120244993D01*
X139496080Y-120207011D01*
X139429723Y-120157470D01*
X139374374Y-120095791D01*
X139333937Y-120024028D01*
X139308288Y-119936250D01*
X139299086Y-119828528D01*
X139307337Y-119736111D01*
X139331601Y-119650933D01*
X139372751Y-119574440D01*
X139430611Y-119511714D01*
X139477612Y-119479851D01*
X139534147Y-119456690D01*
X139602161Y-119442746D01*
X139602161Y-119251504D01*
X139500087Y-119269915D01*
X139414651Y-119303111D01*
X139342958Y-119350331D01*
X139281159Y-119410920D01*
X139231027Y-119480623D01*
X139192016Y-119560532D01*
X139164680Y-119645761D01*
X139148151Y-119734842D01*
X139142557Y-119828528D01*
X138975890Y-119828528D01*
X138975890Y-118775597D01*
X139161608Y-118775597D01*
X139161608Y-118965923D01*
X140545000Y-118965923D01*
X140545000Y-118131071D01*
X140380319Y-118131071D01*
X140380319Y-118775597D01*
X139161608Y-118775597D01*
X138975890Y-118775597D01*
X138975890Y-117525287D01*
X139205572Y-117525287D01*
X139250288Y-117561906D01*
X139299911Y-117613306D01*
X139345198Y-117672404D01*
X139386006Y-117741809D01*
X139417525Y-117817460D01*
X139438121Y-117901727D01*
X139605916Y-117901727D01*
X139588988Y-117814991D01*
X139565616Y-117741992D01*
X139535343Y-117675233D01*
X139502785Y-117620908D01*
X139466447Y-117574573D01*
X139436656Y-117547178D01*
X140545000Y-117547178D01*
X140545000Y-117361980D01*
X139205572Y-117361980D01*
X139205572Y-117525287D01*
X138975890Y-117525287D01*
X138975890Y-117195313D01*
X140730717Y-117195313D01*
X140730717Y-120656024D01*
G37*
%TO.C,C20*%
D11*
X130120061Y-84939996D02*
X127520061Y-84939998D01*
X127520061Y-86540000D02*
X130120061Y-86539998D01*
X130120061Y-84939996D02*
G75*
G02*
X130120061Y-86539998I-840224J-800001D01*
G01*
X127520061Y-86540000D02*
G75*
G02*
X127520061Y-84939998I840224J800001D01*
G01*
%TO.C,U6*%
X130122500Y-81240000D02*
X130122500Y-81915000D01*
X129947500Y-81240001D02*
X130122500Y-81240000D01*
X127402500Y-81240000D02*
X127577500Y-81240001D01*
X127402500Y-81915000D02*
X127402500Y-81240000D01*
X130122500Y-83785000D02*
X130122500Y-84460000D01*
X130122500Y-84460000D02*
X129947500Y-84459999D01*
X127577500Y-84459999D02*
X127402500Y-84460000D01*
X127402500Y-84460000D02*
X127402500Y-83785000D01*
X129512500Y-81110000D02*
X129272499Y-80780000D01*
X129752500Y-80780000D01*
X129512500Y-81110000D01*
G36*
X129512500Y-81110000D02*
G01*
X129272499Y-80780000D01*
X129752500Y-80780000D01*
X129512500Y-81110000D01*
G37*
%TO.C,C24*%
X127000000Y-103700002D02*
X129600000Y-103700000D01*
X129600000Y-102099998D02*
X127000000Y-102100000D01*
X127000000Y-103700002D02*
G75*
G02*
X127000000Y-102100000I840224J800001D01*
G01*
X129600000Y-102099998D02*
G75*
G02*
X129600000Y-103700000I-840224J-800001D01*
G01*
%TO.C,C25*%
X141300000Y-102199998D02*
G75*
G02*
X141300000Y-103800000I-840224J-800001D01*
G01*
X138700000Y-103800002D02*
G75*
G02*
X138700000Y-102200000I840224J800001D01*
G01*
X141300000Y-102199998D02*
X138700000Y-102200000D01*
X138700000Y-103800002D02*
X141300000Y-103800000D01*
%TO.C,U5*%
X147359999Y-103940000D02*
X147359999Y-108060000D01*
X147265000Y-103940000D02*
X147359999Y-103940000D01*
X142240001Y-103940000D02*
X142335000Y-103940000D01*
X147359999Y-108060000D02*
X147265000Y-108060000D01*
X142335000Y-108060000D02*
X142240001Y-108060000D01*
X142240001Y-108060000D02*
X142240001Y-103940000D01*
X147600000Y-103640000D02*
X147270000Y-103400000D01*
X147600000Y-103160000D01*
X147600000Y-103640000D01*
G36*
X147600000Y-103640000D02*
G01*
X147270000Y-103400000D01*
X147600000Y-103160000D01*
X147600000Y-103640000D01*
G37*
%TO.C,U4*%
X135559999Y-103940000D02*
X135559999Y-108060000D01*
X135465000Y-103940000D02*
X135559999Y-103940000D01*
X130440001Y-103940000D02*
X130535000Y-103940000D01*
X135559999Y-108060000D02*
X135465000Y-108060000D01*
X130535000Y-108060000D02*
X130440001Y-108060000D01*
X130440001Y-108060000D02*
X130440001Y-103940000D01*
X135800000Y-103640000D02*
X135470000Y-103400000D01*
X135800000Y-103160000D01*
X135800000Y-103640000D01*
G36*
X135800000Y-103640000D02*
G01*
X135470000Y-103400000D01*
X135800000Y-103160000D01*
X135800000Y-103640000D01*
G37*
%TO.C,C2*%
X135425000Y-78300002D02*
X138025000Y-78300000D01*
X138025000Y-76699998D02*
X135425000Y-76700000D01*
X135425000Y-78300002D02*
G75*
G02*
X135425000Y-76700000I840224J800001D01*
G01*
X138025000Y-76699998D02*
G75*
G02*
X138025000Y-78300000I-840224J-800001D01*
G01*
%TO.C,C15*%
X156699998Y-113200000D02*
X156700000Y-115800000D01*
X158300002Y-115800000D02*
X158300000Y-113200000D01*
X156699998Y-113200000D02*
G75*
G02*
X158300000Y-113200000I800001J-840224D01*
G01*
X158300002Y-115800000D02*
G75*
G02*
X156700000Y-115800000I-800001J840224D01*
G01*
%TO.C,C3*%
X165687651Y-109435000D02*
X166487651Y-109435000D01*
X166087651Y-109035000D02*
X166087651Y-109835000D01*
X170097349Y-107670000D02*
X170097349Y-115830000D01*
X170137349Y-107670000D02*
X170137349Y-115830000D01*
X170177349Y-107671000D02*
X170177349Y-115829000D01*
X170217349Y-107672000D02*
X170217349Y-115828000D01*
X170257349Y-107673000D02*
X170257349Y-115827000D01*
X170297349Y-107675000D02*
X170297349Y-115825000D01*
X170337349Y-107677000D02*
X170337349Y-115823000D01*
X170377349Y-107680000D02*
X170377349Y-115820000D01*
X170417349Y-107682000D02*
X170417349Y-115818000D01*
X170457349Y-107686000D02*
X170457349Y-115814000D01*
X170497349Y-107689000D02*
X170497349Y-115811000D01*
X170537349Y-107694000D02*
X170537349Y-115806000D01*
X170577349Y-107698000D02*
X170577349Y-115802000D01*
X170617349Y-107703000D02*
X170617349Y-115797000D01*
X170657349Y-107708000D02*
X170657349Y-115792000D01*
X170697349Y-107714000D02*
X170697349Y-115786000D01*
X170737349Y-107720000D02*
X170737349Y-115780000D01*
X170777349Y-107727000D02*
X170777349Y-115773000D01*
X170817349Y-107733000D02*
X170817349Y-110710000D01*
X170817349Y-112790000D02*
X170817349Y-115767000D01*
X170857349Y-107741000D02*
X170857349Y-110710000D01*
X170857349Y-112790000D02*
X170857349Y-115759000D01*
X170897349Y-107748000D02*
X170897349Y-110710000D01*
X170897349Y-112790000D02*
X170897349Y-115752000D01*
X170937349Y-107757000D02*
X170937349Y-110710000D01*
X170937349Y-112790000D02*
X170937349Y-115743000D01*
X170977349Y-107765000D02*
X170977349Y-110710000D01*
X170977349Y-112790000D02*
X170977349Y-115735000D01*
X171017349Y-107774000D02*
X171017349Y-110710000D01*
X171017349Y-112790000D02*
X171017349Y-115726000D01*
X171057349Y-107783000D02*
X171057349Y-110710000D01*
X171057349Y-112790000D02*
X171057349Y-115717000D01*
X171097349Y-107793000D02*
X171097349Y-110710000D01*
X171097349Y-112790000D02*
X171097349Y-115707000D01*
X171137349Y-107803000D02*
X171137349Y-110710000D01*
X171137349Y-112790000D02*
X171137349Y-115697000D01*
X171177349Y-107814000D02*
X171177349Y-110710000D01*
X171177349Y-112790000D02*
X171177349Y-115686000D01*
X171217349Y-107825000D02*
X171217349Y-110710000D01*
X171217349Y-112790000D02*
X171217349Y-115675000D01*
X171257349Y-107837000D02*
X171257349Y-110710000D01*
X171257349Y-112790000D02*
X171257349Y-115663000D01*
X171297349Y-107849000D02*
X171297349Y-110710000D01*
X171297349Y-112790000D02*
X171297349Y-115651000D01*
X171337349Y-107861000D02*
X171337349Y-110710000D01*
X171337349Y-112790000D02*
X171337349Y-115639000D01*
X171377349Y-107874000D02*
X171377349Y-110710000D01*
X171377349Y-112790000D02*
X171377349Y-115626000D01*
X171417349Y-107887000D02*
X171417349Y-110710000D01*
X171417349Y-112790000D02*
X171417349Y-115613000D01*
X171457349Y-107901000D02*
X171457349Y-110710000D01*
X171457349Y-112790000D02*
X171457349Y-115599000D01*
X171497349Y-107915000D02*
X171497349Y-110710000D01*
X171497349Y-112790000D02*
X171497349Y-115585000D01*
X171537349Y-107930000D02*
X171537349Y-110710000D01*
X171537349Y-112790000D02*
X171537349Y-115570000D01*
X171577349Y-107945000D02*
X171577349Y-110710000D01*
X171577349Y-112790000D02*
X171577349Y-115555000D01*
X171617349Y-107961000D02*
X171617349Y-110710000D01*
X171617349Y-112790000D02*
X171617349Y-115539000D01*
X171657349Y-107977000D02*
X171657349Y-110710000D01*
X171657349Y-112790000D02*
X171657349Y-115523000D01*
X171697349Y-107993000D02*
X171697349Y-110710000D01*
X171697349Y-112790000D02*
X171697349Y-115507000D01*
X171737349Y-108010000D02*
X171737349Y-110710000D01*
X171737349Y-112790000D02*
X171737349Y-115490000D01*
X171777349Y-108028000D02*
X171777349Y-110710000D01*
X171777349Y-112790000D02*
X171777349Y-115472000D01*
X171817349Y-108046000D02*
X171817349Y-110710000D01*
X171817349Y-112790000D02*
X171817349Y-115454000D01*
X171857349Y-108065000D02*
X171857349Y-110710000D01*
X171857349Y-112790000D02*
X171857349Y-115435000D01*
X171897349Y-108084000D02*
X171897349Y-110710000D01*
X171897349Y-112790000D02*
X171897349Y-115416000D01*
X171937349Y-108104000D02*
X171937349Y-110710000D01*
X171937349Y-112790000D02*
X171937349Y-115396000D01*
X171977349Y-108124000D02*
X171977349Y-110710000D01*
X171977349Y-112790000D02*
X171977349Y-115376000D01*
X172017349Y-108145000D02*
X172017349Y-110710000D01*
X172017349Y-112790000D02*
X172017349Y-115355000D01*
X172057349Y-108166000D02*
X172057349Y-110710000D01*
X172057349Y-112790000D02*
X172057349Y-115334000D01*
X172097349Y-108188000D02*
X172097349Y-110710000D01*
X172097349Y-112790000D02*
X172097349Y-115312000D01*
X172137349Y-108211000D02*
X172137349Y-110710000D01*
X172137349Y-112790000D02*
X172137349Y-115289000D01*
X172177349Y-108234000D02*
X172177349Y-110710000D01*
X172177349Y-112790000D02*
X172177349Y-115266000D01*
X172217349Y-108257000D02*
X172217349Y-110710000D01*
X172217349Y-112790000D02*
X172217349Y-115243000D01*
X172257349Y-108282000D02*
X172257349Y-110710000D01*
X172257349Y-112790000D02*
X172257349Y-115218000D01*
X172297349Y-108307000D02*
X172297349Y-110710000D01*
X172297349Y-112790000D02*
X172297349Y-115193000D01*
X172337349Y-108332000D02*
X172337349Y-110710000D01*
X172337349Y-112790000D02*
X172337349Y-115168000D01*
X172377349Y-108358000D02*
X172377349Y-110710000D01*
X172377349Y-112790000D02*
X172377349Y-115142000D01*
X172417349Y-108385000D02*
X172417349Y-110710000D01*
X172417349Y-112790000D02*
X172417349Y-115115000D01*
X172457349Y-108413000D02*
X172457349Y-110710000D01*
X172457349Y-112790000D02*
X172457349Y-115087000D01*
X172497349Y-108441000D02*
X172497349Y-110710000D01*
X172497349Y-112790000D02*
X172497349Y-115059000D01*
X172537349Y-108470000D02*
X172537349Y-110710000D01*
X172537349Y-112790000D02*
X172537349Y-115030000D01*
X172577349Y-108500000D02*
X172577349Y-110710000D01*
X172577349Y-112790000D02*
X172577349Y-115000000D01*
X172617349Y-108531000D02*
X172617349Y-110710000D01*
X172617349Y-112790000D02*
X172617349Y-114969000D01*
X172657349Y-108562000D02*
X172657349Y-110710000D01*
X172657349Y-112790000D02*
X172657349Y-114938000D01*
X172697349Y-108594000D02*
X172697349Y-110710000D01*
X172697349Y-112790000D02*
X172697349Y-114906000D01*
X172737349Y-108627000D02*
X172737349Y-110710000D01*
X172737349Y-112790000D02*
X172737349Y-114873000D01*
X172777349Y-108661000D02*
X172777349Y-110710000D01*
X172777349Y-112790000D02*
X172777349Y-114839000D01*
X172817349Y-108695000D02*
X172817349Y-110710000D01*
X172817349Y-112790000D02*
X172817349Y-114805000D01*
X172857349Y-108731000D02*
X172857349Y-110710000D01*
X172857349Y-112790000D02*
X172857349Y-114769000D01*
X172897349Y-108768000D02*
X172897349Y-114732000D01*
X172937349Y-108805000D02*
X172937349Y-114695000D01*
X172977349Y-108844000D02*
X172977349Y-114656000D01*
X173017349Y-108883000D02*
X173017349Y-114617000D01*
X173057349Y-108924000D02*
X173057349Y-114576000D01*
X173097349Y-108966000D02*
X173097349Y-114534000D01*
X173137349Y-109009000D02*
X173137349Y-114491000D01*
X173177349Y-109054000D02*
X173177349Y-114446000D01*
X173217349Y-109099000D02*
X173217349Y-114401000D01*
X173257349Y-109146000D02*
X173257349Y-114354000D01*
X173297349Y-109195000D02*
X173297349Y-114305000D01*
X173337349Y-109245000D02*
X173337349Y-114255000D01*
X173377349Y-109297000D02*
X173377349Y-114203000D01*
X173417349Y-109350000D02*
X173417349Y-114150000D01*
X173457349Y-109406000D02*
X173457349Y-114094000D01*
X173497349Y-109463000D02*
X173497349Y-114037000D01*
X173537349Y-109523000D02*
X173537349Y-113977000D01*
X173577349Y-109585000D02*
X173577349Y-113915000D01*
X173617349Y-109649000D02*
X173617349Y-113851000D01*
X173657349Y-109716000D02*
X173657349Y-113784000D01*
X173697349Y-109786000D02*
X173697349Y-113714000D01*
X173737349Y-109860000D02*
X173737349Y-113640000D01*
X173777349Y-109937000D02*
X173777349Y-113563000D01*
X173817349Y-110019000D02*
X173817349Y-113481000D01*
X173857349Y-110106000D02*
X173857349Y-113394000D01*
X173897349Y-110198000D02*
X173897349Y-113302000D01*
X173937349Y-110297000D02*
X173937349Y-113203000D01*
X173977349Y-110404000D02*
X173977349Y-113096000D01*
X174017349Y-110522000D02*
X174017349Y-112978000D01*
X174057349Y-110653000D02*
X174057349Y-112847000D01*
X174097349Y-110803000D02*
X174097349Y-112697000D01*
X174137349Y-110982000D02*
X174137349Y-112518000D01*
X174177349Y-111217000D02*
X174177349Y-112283000D01*
X174217349Y-111750000D02*
G75*
G02*
X165977349Y-111750000I-4120000J0D01*
G01*
X165977349Y-111750000D02*
G75*
G02*
X174217349Y-111750000I4120000J0D01*
G01*
%TO.C,R23*%
X136700000Y-78750000D02*
X136700000Y-81750000D01*
X136700000Y-81750000D02*
X138300000Y-81750000D01*
X138300000Y-78750000D02*
X136700000Y-78750000D01*
X138300000Y-81750000D02*
X138300000Y-78750000D01*
%TO.C,R54*%
X135250000Y-87200000D02*
X135250000Y-88800000D01*
X135250000Y-88800000D02*
X138250000Y-88800000D01*
X138250000Y-87200000D02*
X135250000Y-87200000D01*
X138250000Y-88800000D02*
X138250000Y-87200000D01*
%TO.C,R6*%
X127000000Y-97700000D02*
X127000000Y-99300000D01*
X127000000Y-99300000D02*
X130000000Y-99300000D01*
X130000000Y-97700000D02*
X127000000Y-97700000D01*
X130000000Y-99300000D02*
X130000000Y-97700000D01*
%TO.C,JP2*%
X139000000Y-106700000D02*
X139000000Y-105300000D01*
X139700000Y-104600000D02*
X140300000Y-104600000D01*
X140300000Y-107400000D02*
X139700000Y-107400000D01*
X141000000Y-105300000D02*
X141000000Y-106700000D01*
X139000000Y-105300000D02*
G75*
G02*
X139700000Y-104600000I700000J0D01*
G01*
X139700000Y-107400000D02*
G75*
G02*
X139000000Y-106700000I-1J699999D01*
G01*
X140300000Y-104600000D02*
G75*
G02*
X141000000Y-105300000I0J-700000D01*
G01*
X141000000Y-106700000D02*
G75*
G02*
X140300000Y-107400000I-699999J-1D01*
G01*
%TO.C,C56*%
X133450000Y-111550002D02*
X136050000Y-111550000D01*
X136050000Y-109949998D02*
X133450000Y-109950000D01*
X133450000Y-111550002D02*
G75*
G02*
X133450000Y-109950000I840224J800001D01*
G01*
X136050000Y-109949998D02*
G75*
G02*
X136050000Y-111550000I-840224J-800001D01*
G01*
%TO.C,R3*%
X161950000Y-84050002D02*
X164550000Y-84050000D01*
X164550000Y-82449998D02*
X161950000Y-82450000D01*
X161950000Y-84050002D02*
G75*
G02*
X161950000Y-82450000I840224J800001D01*
G01*
X164550000Y-82449998D02*
G75*
G02*
X164550000Y-84050000I-840224J-800001D01*
G01*
%TO.C,C18*%
X155700000Y-99300002D02*
X158300000Y-99300000D01*
X158300000Y-97699998D02*
X155700000Y-97700000D01*
X155700000Y-99300002D02*
G75*
G02*
X155700000Y-97700000I840224J800001D01*
G01*
X158300000Y-97699998D02*
G75*
G02*
X158300000Y-99300000I-840224J-800001D01*
G01*
%TO.C,IC1*%
D12*
D13*
X139950000Y-78000000D02*
X139949999Y-78000000D01*
X139949999Y-78000000D01*
X139949999Y-78000000D01*
X139949999Y-78000000D01*
X139949999Y-78000000D01*
X139949999Y-78000000D01*
X139949999Y-78000000D01*
X139949999Y-77999999D01*
X139949999Y-77999999D01*
X139949999Y-77999999D01*
X139949999Y-77999999D01*
X139949999Y-77999999D01*
X139950000Y-77999999D01*
X139950000Y-77999999D01*
X139950000Y-77999999D01*
X139950000Y-77999999D01*
X139950000Y-77999999D01*
X139950000Y-77999999D01*
X139950000Y-77999999D01*
X139950000Y-77999999D01*
X139950000Y-77999999D01*
X139950000Y-77999999D01*
X139950000Y-77999999D01*
X139950000Y-77999999D01*
X139950001Y-77999999D01*
X139950001Y-77999999D01*
X139950001Y-77999999D01*
X139950001Y-77999999D01*
X139950001Y-77999999D01*
X139950001Y-77999999D01*
X139950001Y-78000000D01*
X139950001Y-78000000D01*
X139950001Y-78000000D01*
X139950001Y-78000000D01*
X139950001Y-78000000D01*
X139950001Y-78000000D01*
X139950001Y-78000000D01*
X139950000Y-78000000D01*
X139950000Y-78000000D02*
X139950001Y-78000000D01*
X139950001Y-78000000D01*
X139950001Y-78000000D01*
X139950001Y-78000000D01*
X139950001Y-78000000D01*
X139950001Y-78000000D01*
X139950001Y-78000001D01*
X139950001Y-78000001D01*
X139950001Y-78000001D01*
X139950001Y-78000001D01*
X139950001Y-78000001D01*
X139950001Y-78000001D01*
X139950001Y-78000001D01*
X139950000Y-78000001D01*
X139950000Y-78000001D01*
X139950000Y-78000001D01*
X139950000Y-78000001D01*
X139950000Y-78000001D01*
X139950000Y-78000001D01*
X139950000Y-78000001D01*
X139950000Y-78000001D01*
X139950000Y-78000001D01*
X139950000Y-78000001D01*
X139950000Y-78000001D01*
X139950000Y-78000001D01*
X139949999Y-78000001D01*
X139949999Y-78000001D01*
X139949999Y-78000001D01*
X139949999Y-78000001D01*
X139949999Y-78000001D01*
X139949999Y-78000001D01*
X139949999Y-78000000D01*
X139949999Y-78000000D01*
X139949999Y-78000000D01*
X139949999Y-78000000D01*
X139949999Y-78000000D01*
X139949999Y-78000000D01*
X139950000Y-78000000D01*
D12*
D13*
X140050000Y-78000000D02*
X140049999Y-78000000D01*
X140049999Y-78000000D01*
X140049999Y-78000000D01*
X140049999Y-78000000D01*
X140049999Y-78000000D01*
X140049999Y-78000000D01*
X140049999Y-78000000D01*
X140049999Y-77999999D01*
X140049999Y-77999999D01*
X140049999Y-77999999D01*
X140049999Y-77999999D01*
X140049999Y-77999999D01*
X140050000Y-77999999D01*
X140050000Y-77999999D01*
X140050000Y-77999999D01*
X140050000Y-77999999D01*
X140050000Y-77999999D01*
X140050000Y-77999999D01*
X140050000Y-77999999D01*
X140050000Y-77999999D01*
X140050000Y-77999999D01*
X140050000Y-77999999D01*
X140050000Y-77999999D01*
X140050000Y-77999999D01*
X140050001Y-77999999D01*
X140050001Y-77999999D01*
X140050001Y-77999999D01*
X140050001Y-77999999D01*
X140050001Y-77999999D01*
X140050001Y-77999999D01*
X140050001Y-78000000D01*
X140050001Y-78000000D01*
X140050001Y-78000000D01*
X140050001Y-78000000D01*
X140050001Y-78000000D01*
X140050001Y-78000000D01*
X140050001Y-78000000D01*
X140050000Y-78000000D01*
X140050000Y-78000000D02*
X140050001Y-78000000D01*
X140050001Y-78000000D01*
X140050001Y-78000000D01*
X140050001Y-78000000D01*
X140050001Y-78000000D01*
X140050001Y-78000000D01*
X140050001Y-78000001D01*
X140050001Y-78000001D01*
X140050001Y-78000001D01*
X140050001Y-78000001D01*
X140050001Y-78000001D01*
X140050001Y-78000001D01*
X140050001Y-78000001D01*
X140050000Y-78000001D01*
X140050000Y-78000001D01*
X140050000Y-78000001D01*
X140050000Y-78000001D01*
X140050000Y-78000001D01*
X140050000Y-78000001D01*
X140050000Y-78000001D01*
X140050000Y-78000001D01*
X140050000Y-78000001D01*
X140050000Y-78000001D01*
X140050000Y-78000001D01*
X140050000Y-78000001D01*
X140049999Y-78000001D01*
X140049999Y-78000001D01*
X140049999Y-78000001D01*
X140049999Y-78000001D01*
X140049999Y-78000001D01*
X140049999Y-78000001D01*
X140049999Y-78000000D01*
X140049999Y-78000000D01*
X140049999Y-78000000D01*
X140049999Y-78000000D01*
X140049999Y-78000000D01*
X140049999Y-78000000D01*
X140050000Y-78000000D01*
D14*
X141000000Y-70510000D02*
X159000000Y-70510000D01*
X141000000Y-77260000D02*
X141000000Y-70510000D01*
X141000000Y-96010000D02*
X141000000Y-95260000D01*
X159000000Y-70510000D02*
X159000000Y-77260000D01*
X159000000Y-95260000D02*
X159000000Y-96010000D01*
X159000000Y-96010000D02*
X141000000Y-96010000D01*
D12*
X139950000Y-78000000D02*
G75*
G02*
X140050000Y-78000000I50000J0D01*
G01*
X140050000Y-78000000D02*
G75*
G02*
X139950000Y-78000000I-50000J0D01*
G01*
%TO.C,C48*%
D11*
X161950000Y-78800002D02*
X164550000Y-78800000D01*
X164550000Y-77199998D02*
X161950000Y-77200000D01*
X161950000Y-78800002D02*
G75*
G02*
X161950000Y-77200000I840224J800001D01*
G01*
X164550000Y-77199998D02*
G75*
G02*
X164550000Y-78800000I-840224J-800001D01*
G01*
%TO.C,SW2*%
X132850000Y-79900000D02*
X133240000Y-79900000D01*
X132850000Y-84100000D02*
X132850000Y-79900000D01*
X133240000Y-84100000D02*
X132850000Y-84100000D01*
X135760000Y-84100000D02*
X136150000Y-84100000D01*
X136150000Y-79900000D02*
X135760000Y-79900000D01*
X136150000Y-84100000D02*
X136150000Y-79900000D01*
%TO.C,R48*%
X141700000Y-111550002D02*
X144300000Y-111550000D01*
X144300000Y-109949998D02*
X141700000Y-109950000D01*
X141700000Y-111550002D02*
G75*
G02*
X141700000Y-109950000I840224J800001D01*
G01*
X144300000Y-109949998D02*
G75*
G02*
X144300000Y-111550000I-840224J-800001D01*
G01*
%TO.C,R46*%
X129925000Y-111550002D02*
X132525000Y-111550000D01*
X132525000Y-109949998D02*
X129925000Y-109950000D01*
X129925000Y-111550002D02*
G75*
G02*
X129925000Y-109950000I840224J800001D01*
G01*
X132525000Y-109949998D02*
G75*
G02*
X132525000Y-111550000I-840224J-800001D01*
G01*
%TO.C,C54*%
X127199998Y-112200000D02*
X127200000Y-114800000D01*
X128800002Y-114800000D02*
X128800000Y-112200000D01*
X127199998Y-112200000D02*
G75*
G02*
X128800000Y-112200000I800001J-840224D01*
G01*
X128800002Y-114800000D02*
G75*
G02*
X127200000Y-114800000I-800001J840224D01*
G01*
%TO.C,SW3*%
X163850000Y-86400000D02*
X163850000Y-90600000D01*
X163850000Y-90600000D02*
X164240000Y-90600000D01*
X164240000Y-86400000D02*
X163850000Y-86400000D01*
X166760000Y-86400000D02*
X167150000Y-86400000D01*
X167150000Y-86400000D02*
X167150000Y-90600000D01*
X167150000Y-90600000D02*
X166760000Y-90600000D01*
%TO.C,R51*%
X135250000Y-85450000D02*
X135250000Y-87050000D01*
X135250000Y-87050000D02*
X138250000Y-87050000D01*
X138250000Y-85450000D02*
X135250000Y-85450000D01*
X138250000Y-87050000D02*
X138250000Y-85450000D01*
%TO.C,C16*%
X155700000Y-103300002D02*
X158300000Y-103300000D01*
X158300000Y-101699998D02*
X155700000Y-101700000D01*
X155700000Y-103300002D02*
G75*
G02*
X155700000Y-101700000I840224J800001D01*
G01*
X158300000Y-101699998D02*
G75*
G02*
X158300000Y-103300000I-840224J-800001D01*
G01*
%TO.C,C19*%
X127400000Y-80700002D02*
X130000000Y-80700000D01*
X130000000Y-79099998D02*
X127400000Y-79100000D01*
X127400000Y-80700002D02*
G75*
G02*
X127400000Y-79100000I840224J800001D01*
G01*
X130000000Y-79099998D02*
G75*
G02*
X130000000Y-80700000I-840224J-800001D01*
G01*
%TO.C,C5*%
X169950000Y-100550002D02*
X172550000Y-100550000D01*
X172550000Y-98949998D02*
X169950000Y-98950000D01*
X169950000Y-100550002D02*
G75*
G02*
X169950000Y-98950000I840224J800001D01*
G01*
X172550000Y-98949998D02*
G75*
G02*
X172550000Y-100550000I-840224J-800001D01*
G01*
%TO.C,C9*%
X161699998Y-98700000D02*
X161700000Y-101300000D01*
X163300002Y-101300000D02*
X163300000Y-98700000D01*
X161699998Y-98700000D02*
G75*
G02*
X163300000Y-98700000I800001J-840224D01*
G01*
X163300002Y-101300000D02*
G75*
G02*
X161700000Y-101300000I-800001J840224D01*
G01*
%TO.C,C49*%
X165950000Y-78800002D02*
X168550000Y-78800000D01*
X168550000Y-77199998D02*
X165950000Y-77200000D01*
X165950000Y-78800002D02*
G75*
G02*
X165950000Y-77200000I840224J800001D01*
G01*
X168550000Y-77199998D02*
G75*
G02*
X168550000Y-78800000I-840224J-800001D01*
G01*
%TO.C,D8*%
X142950000Y-111950000D02*
X142950000Y-115550000D01*
X142950000Y-115550000D02*
X146550000Y-115550000D01*
X146550000Y-111950000D02*
X142950000Y-111950000D01*
X146550000Y-115550000D02*
X146550000Y-111950000D01*
%TO.C,R49*%
X140949998Y-112200000D02*
X140950000Y-114800000D01*
X142550002Y-114800000D02*
X142550000Y-112200000D01*
X140949998Y-112200000D02*
G75*
G02*
X142550000Y-112200000I800001J-840224D01*
G01*
X142550002Y-114800000D02*
G75*
G02*
X140950000Y-114800000I-800001J840224D01*
G01*
%TO.C,R47*%
X129199998Y-112200000D02*
X129200000Y-114800000D01*
X130800002Y-114800000D02*
X130800000Y-112200000D01*
X129199998Y-112200000D02*
G75*
G02*
X130800000Y-112200000I800001J-840224D01*
G01*
X130800002Y-114800000D02*
G75*
G02*
X129200000Y-114800000I-800001J840224D01*
G01*
%TO.C,R9*%
X166750000Y-118375000D02*
X166750000Y-119975000D01*
X166750000Y-119975000D02*
X169750000Y-119975000D01*
X169750000Y-118375000D02*
X166750000Y-118375000D01*
X169750000Y-119975000D02*
X169750000Y-118375000D01*
%TO.C,C22*%
X136699998Y-82450000D02*
X136700000Y-85050000D01*
X138300002Y-85050000D02*
X138300000Y-82450000D01*
X136699998Y-82450000D02*
G75*
G02*
X138300000Y-82450000I800001J-840224D01*
G01*
X138300002Y-85050000D02*
G75*
G02*
X136700000Y-85050000I-800001J840224D01*
G01*
%TO.C,C1*%
X135425000Y-76300002D02*
X138025000Y-76300000D01*
X138025000Y-74699998D02*
X135425000Y-74700000D01*
X135425000Y-76300002D02*
G75*
G02*
X135425000Y-74700000I840224J800001D01*
G01*
X138025000Y-74699998D02*
G75*
G02*
X138025000Y-76300000I-840224J-800001D01*
G01*
%TO.C,U2*%
D15*
X163950000Y-97950000D02*
X163950000Y-102050000D01*
X163950000Y-97950000D02*
X164060000Y-97950000D01*
X163950000Y-102050000D02*
X164060000Y-102050000D01*
X165130000Y-97950000D02*
X165330000Y-97950000D01*
X165130000Y-102050000D02*
X165330000Y-102050000D01*
X166400000Y-97950000D02*
X166600000Y-97950000D01*
X166400000Y-102050000D02*
X166600000Y-102050000D01*
X167670000Y-97950000D02*
X167870000Y-97950000D01*
X167670000Y-102050000D02*
X167870000Y-102050000D01*
X168940000Y-97950000D02*
X169050000Y-97950000D01*
X168940000Y-102050000D02*
X169050000Y-102050000D01*
X169050000Y-97950000D02*
X169050000Y-102050000D01*
X164030000Y-102500000D02*
G75*
G02*
X163970000Y-102500000I-30000J0D01*
G01*
X163970000Y-102500000D02*
G75*
G02*
X164030000Y-102500000I30000J0D01*
G01*
%TO.C,R13*%
D11*
X165950000Y-84050002D02*
X168550000Y-84050000D01*
X168550000Y-82449998D02*
X165950000Y-82450000D01*
X165950000Y-84050002D02*
G75*
G02*
X165950000Y-82450000I840224J800001D01*
G01*
X168550000Y-82449998D02*
G75*
G02*
X168550000Y-84050000I-840224J-800001D01*
G01*
%TO.C,U3*%
X150090000Y-106340000D02*
X151350000Y-106340000D01*
X150090000Y-110100000D02*
X150090000Y-106340000D01*
X156910000Y-106340000D02*
X155650000Y-106340000D01*
X156910000Y-110100000D02*
X156910000Y-106340000D01*
X150190000Y-111380000D02*
X149860000Y-111620000D01*
X149860000Y-111140000D01*
X150190000Y-111380000D01*
G36*
X150190000Y-111380000D02*
G01*
X149860000Y-111620000D01*
X149860000Y-111140000D01*
X150190000Y-111380000D01*
G37*
%TO.C,C8*%
X169950000Y-94550002D02*
X172550000Y-94550000D01*
X172550000Y-92949998D02*
X169950000Y-92950000D01*
X169950000Y-94550002D02*
G75*
G02*
X169950000Y-92950000I840224J800001D01*
G01*
X172550000Y-92949998D02*
G75*
G02*
X172550000Y-94550000I-840224J-800001D01*
G01*
%TO.C,R12*%
X161950000Y-80550002D02*
X164550000Y-80550000D01*
X164550000Y-78949998D02*
X161950000Y-78950000D01*
X161950000Y-80550002D02*
G75*
G02*
X161950000Y-78950000I840224J800001D01*
G01*
X164550000Y-78949998D02*
G75*
G02*
X164550000Y-80550000I-840224J-800001D01*
G01*
%TO.C,JP1*%
X135250000Y-96350000D02*
X137250000Y-96350000D01*
X135250000Y-99150000D02*
X135250000Y-96350000D01*
X137250000Y-96350000D02*
X137250000Y-99150000D01*
X137250000Y-99150000D02*
X135250000Y-99150000D01*
%TO.C,R7*%
X130500000Y-97700000D02*
X130500000Y-99300000D01*
X130500000Y-99300000D02*
X133500000Y-99300000D01*
X133500000Y-97700000D02*
X130500000Y-97700000D01*
X133500000Y-99300000D02*
X133500000Y-97700000D01*
%TO.C,C4*%
X169950000Y-102550002D02*
X172550000Y-102550000D01*
X172550000Y-100949998D02*
X169950000Y-100950000D01*
X169950000Y-102550002D02*
G75*
G02*
X169950000Y-100950000I840224J800001D01*
G01*
X172550000Y-100949998D02*
G75*
G02*
X172550000Y-102550000I-840224J-800001D01*
G01*
%TO.C,D10*%
D15*
X165760000Y-112850000D02*
X160250000Y-112850000D01*
X165760000Y-116150000D02*
X160250000Y-116150000D01*
X165760000Y-116150000D02*
X165760000Y-112850000D01*
%TO.C,D7*%
D11*
X166750000Y-116625000D02*
X169750000Y-116625000D01*
X169750000Y-118225000D01*
X166750000Y-118225000D01*
X166750000Y-116625000D01*
X167250000Y-116325000D02*
X167850000Y-116325000D01*
X167850000Y-116625000D01*
X167250000Y-116625000D01*
X167250000Y-116325000D01*
G36*
X167250000Y-116325000D02*
G01*
X167850000Y-116325000D01*
X167850000Y-116625000D01*
X167250000Y-116625000D01*
X167250000Y-116325000D01*
G37*
X167250000Y-118225000D02*
X167850000Y-118225000D01*
X167850000Y-118525000D01*
X167250000Y-118525000D01*
X167250000Y-118225000D01*
G36*
X167250000Y-118225000D02*
G01*
X167850000Y-118225000D01*
X167850000Y-118525000D01*
X167250000Y-118525000D01*
X167250000Y-118225000D01*
G37*
%TO.C,C14*%
X148699998Y-113200000D02*
X148700000Y-115800000D01*
X150300002Y-115800000D02*
X150300000Y-113200000D01*
X148699998Y-113200000D02*
G75*
G02*
X150300000Y-113200000I800001J-840224D01*
G01*
X150300002Y-115800000D02*
G75*
G02*
X148700000Y-115800000I-800001J840224D01*
G01*
%TO.C,L1*%
D16*
X157750000Y-104200000D02*
X157750000Y-111200000D01*
X164750000Y-104200000D02*
X164750000Y-111200000D01*
%TO.C,C17*%
D11*
X155700000Y-101300002D02*
X158300000Y-101300000D01*
X158300000Y-99699998D02*
X155700000Y-99700000D01*
X155700000Y-101300002D02*
G75*
G02*
X155700000Y-99700000I840224J800001D01*
G01*
X158300000Y-99699998D02*
G75*
G02*
X158300000Y-101300000I-840224J-800001D01*
G01*
%TO.C,C7*%
X169950000Y-96550002D02*
X172550000Y-96550000D01*
X172550000Y-94949998D02*
X169950000Y-94950000D01*
X169950000Y-96550002D02*
G75*
G02*
X169950000Y-94950000I840224J800001D01*
G01*
X172550000Y-94949998D02*
G75*
G02*
X172550000Y-96550000I-840224J-800001D01*
G01*
%TO.C,C21*%
X161699998Y-85450000D02*
X161700000Y-88050000D01*
X163300002Y-88050000D02*
X163300000Y-85450000D01*
X161699998Y-85450000D02*
G75*
G02*
X163300000Y-85450000I800001J-840224D01*
G01*
X163300002Y-88050000D02*
G75*
G02*
X161700000Y-88050000I-800001J840224D01*
G01*
%TO.C,C6*%
X169950000Y-98550002D02*
X172550000Y-98550000D01*
X172550000Y-96949998D02*
X169950000Y-96950000D01*
X169950000Y-98550002D02*
G75*
G02*
X169950000Y-96950000I840224J800001D01*
G01*
X172550000Y-96949998D02*
G75*
G02*
X172550000Y-98550000I-840224J-800001D01*
G01*
%TO.C,R10*%
X169550000Y-105000000D02*
X169550000Y-107000000D01*
X169550000Y-107000000D02*
X172950000Y-107000000D01*
X172950000Y-105000000D02*
X169550000Y-105000000D01*
X172950000Y-107000000D02*
X172950000Y-105000000D01*
%TO.C,JP5*%
X170557500Y-90600000D02*
X170557500Y-87800000D01*
X171257500Y-87150000D02*
X171857500Y-87150000D01*
X171857500Y-91250000D02*
X171257500Y-91250000D01*
X172557500Y-87800000D02*
X172557500Y-90600000D01*
X172757500Y-90400000D02*
X173057500Y-90100000D01*
X172757500Y-90400000D02*
X173057500Y-90700000D01*
X173057500Y-90700000D02*
X173057500Y-90100000D01*
X170557500Y-87850000D02*
G75*
G02*
X171257500Y-87150000I700000J0D01*
G01*
X171257500Y-91250000D02*
G75*
G02*
X170557500Y-90550000I-1J699999D01*
G01*
X171857500Y-87150000D02*
G75*
G02*
X172557500Y-87850000I0J-700000D01*
G01*
X172557500Y-90550000D02*
G75*
G02*
X171857500Y-91250000I-699999J-1D01*
G01*
%TO.C,JP4*%
X127250000Y-106850000D02*
X127250000Y-105450000D01*
X127950000Y-104750000D02*
X128550000Y-104750000D01*
X128550000Y-107550000D02*
X127950000Y-107550000D01*
X129250000Y-105450000D02*
X129250000Y-106850000D01*
X127250000Y-105450000D02*
G75*
G02*
X127950000Y-104750000I700000J0D01*
G01*
X127950000Y-107550000D02*
G75*
G02*
X127250000Y-106850000I-1J699999D01*
G01*
X128550000Y-104750000D02*
G75*
G02*
X129250000Y-105450000I0J-700000D01*
G01*
X129250000Y-106850000D02*
G75*
G02*
X128550000Y-107550000I-699999J-1D01*
G01*
%TO.C,C58*%
X138949998Y-112200000D02*
X138950000Y-114800000D01*
X140550002Y-114800000D02*
X140550000Y-112200000D01*
X138949998Y-112200000D02*
G75*
G02*
X140550000Y-112200000I800001J-840224D01*
G01*
X140550002Y-114800000D02*
G75*
G02*
X138950000Y-114800000I-800001J840224D01*
G01*
%TO.C,C57*%
X145200000Y-111550002D02*
X147800000Y-111550000D01*
X147800000Y-109949998D02*
X145200000Y-109950000D01*
X145200000Y-111550002D02*
G75*
G02*
X145200000Y-109950000I840224J800001D01*
G01*
X147800000Y-109949998D02*
G75*
G02*
X147800000Y-111550000I-840224J-800001D01*
G01*
%TO.C,J6*%
X125150000Y-87270000D02*
X125150000Y-96670000D01*
X127050000Y-87270000D02*
X125150000Y-87270000D01*
X127050000Y-96670000D02*
X125150000Y-96670000D01*
X130950000Y-87270000D02*
X128950000Y-87270000D01*
X130950000Y-96670000D02*
X128950000Y-96670000D01*
%TO.C,R11*%
X169550000Y-102750000D02*
X169550000Y-104750000D01*
X169550000Y-104750000D02*
X172950000Y-104750000D01*
X172950000Y-102750000D02*
X169550000Y-102750000D01*
X172950000Y-104750000D02*
X172950000Y-102750000D01*
%TO.C,D2*%
D15*
X161990000Y-92850000D02*
X161990000Y-96150000D01*
X161990000Y-92850000D02*
X167500000Y-92850000D01*
X161990000Y-96150000D02*
X167500000Y-96150000D01*
%TO.C,R15*%
D11*
X165950000Y-80550002D02*
X168550000Y-80550000D01*
X168550000Y-78949998D02*
X165950000Y-78950000D01*
X165950000Y-80550002D02*
G75*
G02*
X165950000Y-78950000I840224J800001D01*
G01*
X168550000Y-78949998D02*
G75*
G02*
X168550000Y-80550000I-840224J-800001D01*
G01*
%TO.C,C13*%
X150699998Y-113200000D02*
X150700000Y-115800000D01*
X152300002Y-115800000D02*
X152300000Y-113200000D01*
X150699998Y-113200000D02*
G75*
G02*
X152300000Y-113200000I800001J-840224D01*
G01*
X152300002Y-115800000D02*
G75*
G02*
X150700000Y-115800000I-800001J840224D01*
G01*
%TO.C,C11*%
X152699998Y-113200000D02*
X152700000Y-115800000D01*
X154300002Y-115800000D02*
X154300000Y-113200000D01*
X152699998Y-113200000D02*
G75*
G02*
X154300000Y-113200000I800001J-840224D01*
G01*
X154300002Y-115800000D02*
G75*
G02*
X152700000Y-115800000I-800001J840224D01*
G01*
%TO.C,R14*%
X165950000Y-82300002D02*
X168550000Y-82300000D01*
X168550000Y-80699998D02*
X165950000Y-80700000D01*
X165950000Y-82300002D02*
G75*
G02*
X165950000Y-80700000I840224J800001D01*
G01*
X168550000Y-80699998D02*
G75*
G02*
X168550000Y-82300000I-840224J-800001D01*
G01*
%TO.C,R38*%
X161700000Y-88750000D02*
X161700000Y-91750000D01*
X161700000Y-91750000D02*
X163300000Y-91750000D01*
X163300000Y-88750000D02*
X161700000Y-88750000D01*
X163300000Y-91750000D02*
X163300000Y-88750000D01*
%TO.C,D9*%
D15*
X134600000Y-95760000D02*
X134600000Y-90250000D01*
X134600000Y-95760000D02*
X137900000Y-95760000D01*
X137900000Y-95760000D02*
X137900000Y-90250000D01*
%TO.C,R8*%
D11*
X161950000Y-82300002D02*
X164550000Y-82300000D01*
X164550000Y-80699998D02*
X161950000Y-80700000D01*
X161950000Y-82300002D02*
G75*
G02*
X161950000Y-80700000I840224J800001D01*
G01*
X164550000Y-80699998D02*
G75*
G02*
X164550000Y-82300000I-840224J-800001D01*
G01*
%TO.C,C12*%
X154699998Y-113200000D02*
X154700000Y-115800000D01*
X156300002Y-115800000D02*
X156300000Y-113200000D01*
X154699998Y-113200000D02*
G75*
G02*
X156300000Y-113200000I800001J-840224D01*
G01*
X156300002Y-115800000D02*
G75*
G02*
X154700000Y-115800000I-800001J840224D01*
G01*
%TO.C,D6*%
X131200000Y-111950000D02*
X131200000Y-115550000D01*
X131200000Y-115550000D02*
X134800000Y-115550000D01*
X134800000Y-111950000D02*
X131200000Y-111950000D01*
X134800000Y-115550000D02*
X134800000Y-111950000D01*
%TD*%
%LPC*%
%TO.C,JP2*%
G36*
X139250000Y-105850000D02*
G01*
X140750000Y-105850000D01*
X140750000Y-106150000D01*
X139250000Y-106150000D01*
X139250000Y-105850000D01*
G37*
%TO.C,JP1*%
G36*
X135500000Y-97600000D02*
G01*
X137000000Y-97600000D01*
X137000000Y-97900000D01*
X135500000Y-97900000D01*
X135500000Y-97600000D01*
G37*
%TO.C,JP5*%
G36*
X170807500Y-88450000D02*
G01*
X172307500Y-88450000D01*
X172307500Y-89950000D01*
X170807500Y-89950000D01*
X170807500Y-88450000D01*
G37*
%TO.C,JP4*%
G36*
X127500000Y-106000000D02*
G01*
X129000000Y-106000000D01*
X129000000Y-106300000D01*
X127500000Y-106300000D01*
X127500000Y-106000000D01*
G37*
%TD*%
D17*
%TO.C,J2*%
X163637501Y-122750000D03*
D18*
X159677501Y-122750000D03*
X155717501Y-122750000D03*
X151757500Y-122750000D03*
X147797502Y-122750000D03*
X143837501Y-122750000D03*
X139877501Y-122750000D03*
X135917501Y-122750000D03*
%TD*%
D19*
%TO.C,C20*%
X129595061Y-85739998D03*
X128045061Y-85739998D03*
%TD*%
D20*
%TO.C,U6*%
X129512500Y-81687499D03*
X129012500Y-81687500D03*
X128512500Y-81687500D03*
X128012500Y-81687499D03*
D21*
X127850000Y-82350001D03*
X127850000Y-82850000D03*
X127850000Y-83349999D03*
D20*
X128012500Y-84012501D03*
X128512500Y-84012500D03*
X129012500Y-84012500D03*
X129512500Y-84012501D03*
D21*
X129675000Y-83349999D03*
X129675000Y-82850000D03*
X129675000Y-82350001D03*
%TD*%
D22*
%TO.C,C24*%
X127525000Y-102900000D03*
X129075000Y-102900000D03*
%TD*%
%TO.C,C25*%
X140775000Y-103000000D03*
X139225000Y-103000000D03*
%TD*%
D23*
%TO.C,U5*%
X146705000Y-103525000D03*
X145435000Y-103525000D03*
X144165000Y-103525000D03*
X142895000Y-103525000D03*
X142895000Y-108475000D03*
X144165000Y-108475000D03*
X145435000Y-108475000D03*
X146705000Y-108475000D03*
%TD*%
%TO.C,U4*%
X134905000Y-103525000D03*
X133635000Y-103525000D03*
X132365000Y-103525000D03*
X131095000Y-103525000D03*
X131095000Y-108475000D03*
X132365000Y-108475000D03*
X133635000Y-108475000D03*
X134905000Y-108475000D03*
%TD*%
D22*
%TO.C,C2*%
X135950000Y-77500000D03*
X137500000Y-77500000D03*
%TD*%
D24*
%TO.C,C15*%
X157500000Y-115275000D03*
X157500000Y-113725000D03*
%TD*%
D25*
%TO.C,C3*%
X168347349Y-111750000D03*
D26*
X171847349Y-111750000D03*
%TD*%
D27*
%TO.C,R23*%
X137500000Y-79425000D03*
X137500000Y-81075000D03*
%TD*%
D28*
%TO.C,R54*%
X135925000Y-88000000D03*
X137575000Y-88000000D03*
%TD*%
D29*
%TO.C,R6*%
X129325000Y-98500000D03*
X127675000Y-98500000D03*
%TD*%
D30*
%TO.C,JP2*%
X140000000Y-106650000D03*
D31*
X140000000Y-105350000D03*
%TD*%
D22*
%TO.C,C56*%
X133975000Y-110750000D03*
X135525000Y-110750000D03*
%TD*%
D19*
%TO.C,R3*%
X164025000Y-83250000D03*
X162475000Y-83250000D03*
%TD*%
%TO.C,C18*%
X157775000Y-98500000D03*
X156225000Y-98500000D03*
%TD*%
D32*
%TO.C,IC1*%
X141250000Y-78000000D03*
X141250000Y-79270000D03*
X141250000Y-80540000D03*
X141250000Y-81810000D03*
X141250000Y-83080000D03*
X141250000Y-84350000D03*
X141250000Y-85620000D03*
X141250000Y-86890000D03*
X141250000Y-88160000D03*
X141250000Y-89430000D03*
X141250000Y-90700000D03*
X141250000Y-91970000D03*
X141250000Y-93240000D03*
X141250000Y-94510000D03*
X158750000Y-94510000D03*
X158750000Y-93240000D03*
X158750000Y-91970000D03*
X158750000Y-90700000D03*
X158750000Y-89430000D03*
X158750000Y-88160000D03*
X158750000Y-86890000D03*
X158750000Y-85620000D03*
X158750000Y-84350000D03*
X158750000Y-83080000D03*
X158750000Y-81810000D03*
X158750000Y-80540000D03*
X158750000Y-79270000D03*
X158750000Y-78000000D03*
D33*
X148495000Y-83720000D03*
X147245000Y-82470000D03*
X147245000Y-83720000D03*
X147245000Y-84970000D03*
X148495000Y-84970000D03*
X149745000Y-84970000D03*
X149745000Y-83720000D03*
X149745000Y-82470000D03*
X148495000Y-82470000D03*
%TD*%
D34*
%TO.C,H6*%
X171500000Y-74500000D03*
D35*
X171500000Y-74500000D03*
%TD*%
D22*
%TO.C,C48*%
X162475000Y-78000000D03*
X164025000Y-78000000D03*
%TD*%
D36*
%TO.C,SW2*%
X134500000Y-84225000D03*
X134500000Y-79775000D03*
%TD*%
D22*
%TO.C,R48*%
X142225000Y-110750000D03*
X143775000Y-110750000D03*
%TD*%
%TO.C,R46*%
X130450000Y-110750000D03*
X132000000Y-110750000D03*
%TD*%
D37*
%TO.C,C54*%
X128000000Y-112725000D03*
X128000000Y-114275000D03*
%TD*%
D38*
%TO.C,SW3*%
X165500000Y-86275000D03*
X165500000Y-90725000D03*
%TD*%
D28*
%TO.C,R51*%
X135925000Y-86250000D03*
X137575000Y-86250000D03*
%TD*%
D19*
%TO.C,C16*%
X157775000Y-102500000D03*
X156225000Y-102500000D03*
%TD*%
D22*
%TO.C,C19*%
X127925000Y-79900000D03*
X129475000Y-79900000D03*
%TD*%
D19*
%TO.C,C5*%
X172025000Y-99750000D03*
X170475000Y-99750000D03*
%TD*%
D24*
%TO.C,C9*%
X162500000Y-100775000D03*
X162500000Y-99225000D03*
%TD*%
D22*
%TO.C,C49*%
X166475000Y-78000000D03*
X168025000Y-78000000D03*
%TD*%
D39*
%TO.C,D8*%
X145700000Y-112750000D03*
X143800000Y-112750000D03*
X144750000Y-114750000D03*
%TD*%
D24*
%TO.C,R49*%
X141750000Y-114275000D03*
X141750000Y-112725000D03*
%TD*%
%TO.C,R47*%
X130000000Y-114275000D03*
X130000000Y-112725000D03*
%TD*%
D34*
%TO.C,H5*%
X128500000Y-74500000D03*
D35*
X128500000Y-74500000D03*
%TD*%
D28*
%TO.C,R9*%
X167425000Y-119175000D03*
X169075000Y-119175000D03*
%TD*%
D37*
%TO.C,C22*%
X137500000Y-82975000D03*
X137500000Y-84525000D03*
%TD*%
D22*
%TO.C,C1*%
X135950000Y-75500000D03*
X137500000Y-75500000D03*
%TD*%
D40*
%TO.C,U2*%
X164590000Y-102700000D03*
X165860000Y-102700000D03*
X167140000Y-102700000D03*
X168410000Y-102700000D03*
X168410000Y-97300000D03*
X167140000Y-97300000D03*
X165860000Y-97300000D03*
X164590000Y-97300000D03*
D41*
X166500000Y-100000000D03*
%TD*%
D19*
%TO.C,R13*%
X168025000Y-83250000D03*
X166475000Y-83250000D03*
%TD*%
D34*
%TO.C,H7*%
X128500000Y-122500000D03*
D35*
X128500000Y-122500000D03*
%TD*%
D42*
%TO.C,U3*%
X151200000Y-111400000D03*
X153500000Y-111400000D03*
D43*
X153500000Y-105100000D03*
D42*
X155800000Y-111400000D03*
%TD*%
D19*
%TO.C,C8*%
X172025000Y-93750000D03*
X170475000Y-93750000D03*
%TD*%
D22*
%TO.C,R12*%
X162475000Y-79750000D03*
X164025000Y-79750000D03*
%TD*%
D44*
%TO.C,JP1*%
X136250000Y-97100000D03*
X136250000Y-98400000D03*
%TD*%
D28*
%TO.C,R7*%
X131175000Y-98500000D03*
X132825000Y-98500000D03*
%TD*%
D19*
%TO.C,C4*%
X172025000Y-101750000D03*
X170475000Y-101750000D03*
%TD*%
D34*
%TO.C,H8*%
X171500000Y-122500000D03*
D35*
X171500000Y-122500000D03*
%TD*%
D45*
%TO.C,D10*%
X164250000Y-114500000D03*
X160250000Y-114500000D03*
%TD*%
D46*
%TO.C,D7*%
X167462500Y-117425000D03*
X169037500Y-117425000D03*
%TD*%
D24*
%TO.C,C14*%
X149500000Y-115275000D03*
X149500000Y-113725000D03*
%TD*%
D47*
%TO.C,L1*%
X161250000Y-104925000D03*
X161250000Y-110475000D03*
%TD*%
D19*
%TO.C,C17*%
X157775000Y-100500000D03*
X156225000Y-100500000D03*
%TD*%
%TO.C,C7*%
X172025000Y-95750000D03*
X170475000Y-95750000D03*
%TD*%
D24*
%TO.C,C21*%
X162500000Y-87525000D03*
X162500000Y-85975000D03*
%TD*%
D19*
%TO.C,C6*%
X172025000Y-97750000D03*
X170475000Y-97750000D03*
%TD*%
D48*
%TO.C,R10*%
X170337500Y-106000000D03*
X172162500Y-106000000D03*
%TD*%
D49*
%TO.C,JP5*%
X171557500Y-90500000D03*
D44*
X171557500Y-89200000D03*
D50*
X171557500Y-87900000D03*
%TD*%
D30*
%TO.C,JP4*%
X128250000Y-106800000D03*
D31*
X128250000Y-105500000D03*
%TD*%
D37*
%TO.C,C58*%
X139750000Y-112725000D03*
X139750000Y-114275000D03*
%TD*%
D22*
%TO.C,C57*%
X145725000Y-110750000D03*
X147275000Y-110750000D03*
%TD*%
D51*
%TO.C,J6*%
X131650000Y-89080000D03*
X131650000Y-94860000D03*
D52*
X133095000Y-88720000D03*
X133095000Y-89520000D03*
D53*
X133095000Y-90720000D03*
X133095000Y-91720000D03*
X133095000Y-92220000D03*
X133095000Y-93220000D03*
D52*
X133095000Y-94420000D03*
X133095000Y-95220000D03*
X133095000Y-95220000D03*
X133095000Y-94420000D03*
D53*
X133095000Y-93720000D03*
X133095000Y-92720000D03*
X133095000Y-91220000D03*
X133095000Y-90220000D03*
D52*
X133095000Y-89520000D03*
X133095000Y-88720000D03*
D54*
X132180000Y-87650000D03*
D55*
X128000000Y-87650000D03*
D54*
X132180000Y-96290000D03*
D55*
X128000000Y-96290000D03*
%TD*%
D56*
%TO.C,R11*%
X172162500Y-103750000D03*
X170337500Y-103750000D03*
%TD*%
D57*
%TO.C,D2*%
X163500000Y-94500000D03*
X167500000Y-94500000D03*
%TD*%
D22*
%TO.C,R15*%
X166475000Y-79750000D03*
X168025000Y-79750000D03*
%TD*%
D24*
%TO.C,C13*%
X151500000Y-115275000D03*
X151500000Y-113725000D03*
%TD*%
%TO.C,C11*%
X153500000Y-115275000D03*
X153500000Y-113725000D03*
%TD*%
D22*
%TO.C,R14*%
X166475000Y-81500000D03*
X168025000Y-81500000D03*
%TD*%
D27*
%TO.C,R38*%
X162500000Y-89425000D03*
X162500000Y-91075000D03*
%TD*%
D58*
%TO.C,D9*%
X136250000Y-94250000D03*
X136250000Y-90250000D03*
%TD*%
D22*
%TO.C,R8*%
X162475000Y-81500000D03*
X164025000Y-81500000D03*
%TD*%
D24*
%TO.C,C12*%
X155500000Y-115275000D03*
X155500000Y-113725000D03*
%TD*%
D39*
%TO.C,D6*%
X133950000Y-112750000D03*
X132050000Y-112750000D03*
X133000000Y-114750000D03*
%TD*%
%LPD*%
M02*
