%TF.GenerationSoftware,KiCad,Pcbnew,10.0.0*%
%TF.CreationDate,2026-07-10T03:55:22+10:00*%
%TF.ProjectId,Active-Damper-Master,41637469-7665-42d4-9461-6d7065722d4d,rev?*%
%TF.SameCoordinates,Original*%
%TF.FileFunction,Copper,L2,Bot*%
%TF.FilePolarity,Positive*%
%FSLAX46Y46*%
G04 Gerber Fmt 4.6, Leading zero omitted, Abs format (unit mm)*
G04 Created by KiCad (PCBNEW 10.0.0) date 2026-07-10 03:55:22*
%MOMM*%
%LPD*%
G01*
G04 APERTURE LIST*
G04 Aperture macros list*
%AMRoundRect*
0 Rectangle with rounded corners*
0 $1 Rounding radius*
0 $2 $3 $4 $5 $6 $7 $8 $9 X,Y pos of 4 corners*
0 Add a 4 corners polygon primitive as box body*
4,1,4,$2,$3,$4,$5,$6,$7,$8,$9,$2,$3,0*
0 Add four circle primitives for the rounded corners*
1,1,$1+$1,$2,$3*
1,1,$1+$1,$4,$5*
1,1,$1+$1,$6,$7*
1,1,$1+$1,$8,$9*
0 Add four rect primitives between the rounded corners*
20,1,$1+$1,$2,$3,$4,$5,0*
20,1,$1+$1,$4,$5,$6,$7,0*
20,1,$1+$1,$6,$7,$8,$9,0*
20,1,$1+$1,$8,$9,$2,$3,0*%
G04 Aperture macros list end*
%TA.AperFunction,ComponentPad*%
%ADD10C,1.600000*%
%TD*%
%TA.AperFunction,ComponentPad*%
%ADD11RoundRect,0.250000X-0.550000X-0.550000X0.550000X-0.550000X0.550000X0.550000X-0.550000X0.550000X0*%
%TD*%
%TA.AperFunction,ConnectorPad*%
%ADD12C,5.500000*%
%TD*%
%TA.AperFunction,ComponentPad*%
%ADD13C,3.600000*%
%TD*%
%TA.AperFunction,ComponentPad*%
%ADD14O,1.700000X1.950000*%
%TD*%
%TA.AperFunction,ComponentPad*%
%ADD15RoundRect,0.250000X-0.600000X-0.725000X0.600000X-0.725000X0.600000X0.725000X-0.600000X0.725000X0*%
%TD*%
%TA.AperFunction,ComponentPad*%
%ADD16C,0.500000*%
%TD*%
%TA.AperFunction,ComponentPad*%
%ADD17O,1.600000X1.000000*%
%TD*%
%TA.AperFunction,ComponentPad*%
%ADD18O,2.100000X1.000000*%
%TD*%
%TA.AperFunction,ViaPad*%
%ADD19C,0.400000*%
%TD*%
%TA.AperFunction,ViaPad*%
%ADD20C,0.600000*%
%TD*%
%TA.AperFunction,Conductor*%
%ADD21C,0.200000*%
%TD*%
%TA.AperFunction,Conductor*%
%ADD22C,1.000000*%
%TD*%
%TA.AperFunction,Conductor*%
%ADD23C,0.400000*%
%TD*%
G04 APERTURE END LIST*
D10*
%TO.P,C3,2*%
%TO.N,GND*%
X171847349Y-111750000D03*
D11*
%TO.P,C3,1*%
%TO.N,Net-(JP5-B)*%
X168347349Y-111750000D03*
%TD*%
D12*
%TO.P,H6,1,1_1*%
%TO.N,GND*%
X171500000Y-74500000D03*
D13*
X171500000Y-74500000D03*
%TD*%
D14*
%TO.P,J9,3,Pin_3_3*%
%TO.N,GND*%
X141500000Y-120900000D03*
%TO.P,J9,2,Pin_2_2*%
%TO.N,/CANH_1*%
X139000000Y-120900000D03*
D15*
%TO.P,J9,1,Pin_1_1*%
%TO.N,/CANL_1*%
X136500000Y-120900000D03*
%TD*%
D13*
%TO.P,H5,1,1_1*%
%TO.N,GND*%
X128500000Y-74500000D03*
D12*
X128500000Y-74500000D03*
%TD*%
D16*
%TO.P,U2,9,GND_(EP)_9*%
%TO.N,GND*%
X167600000Y-99200000D03*
X166500000Y-99200000D03*
X165500000Y-99200000D03*
X167600000Y-100800000D03*
X166500000Y-100800000D03*
X165500000Y-100800000D03*
%TD*%
D14*
%TO.P,J7,3,Pin_3_3*%
%TO.N,+12V*%
X163500000Y-120900000D03*
%TO.P,J7,2,Pin_2_2*%
%TO.N,IGN*%
X161000000Y-120900000D03*
D15*
%TO.P,J7,1,Pin_1_1*%
%TO.N,GND*%
X158500000Y-120900000D03*
%TD*%
D12*
%TO.P,H7,1,1_1*%
%TO.N,GND*%
X128500000Y-122500000D03*
D13*
X128500000Y-122500000D03*
%TD*%
D14*
%TO.P,J8,3,Pin_3_3*%
%TO.N,GND*%
X152500000Y-120900000D03*
%TO.P,J8,2,Pin_2_2*%
%TO.N,/CANH_2*%
X150000000Y-120900000D03*
D15*
%TO.P,J8,1,Pin_1_1*%
%TO.N,/CANL_2*%
X147500000Y-120900000D03*
%TD*%
D12*
%TO.P,H8,1,1_1*%
%TO.N,GND*%
X171500000Y-122500000D03*
D13*
X171500000Y-122500000D03*
%TD*%
D17*
%TO.P,J6,SH,SHIELD_SH*%
%TO.N,GND*%
X128000000Y-96290000D03*
D18*
X132180000Y-96290000D03*
D17*
X128000000Y-87650000D03*
D18*
X132180000Y-87650000D03*
%TD*%
D19*
%TO.N,IGN*%
X169000000Y-83500000D03*
D20*
%TO.N,/Rs_2*%
X146750000Y-107000000D03*
D19*
%TO.N,/CANL_2*%
X142900000Y-113650000D03*
%TO.N,+3.3V*%
X138600000Y-76300000D03*
D20*
%TO.N,Net-(JP5-B)*%
X170000000Y-99000000D03*
D19*
%TO.N,+3.3V*%
X130975000Y-80725000D03*
%TO.N,/CANH_1*%
X133950000Y-111750000D03*
%TO.N,+3.3V*%
X154750000Y-104500000D03*
%TO.N,/CANL_1*%
X131025000Y-113775000D03*
%TO.N,+3.3V*%
X152250000Y-104500000D03*
%TO.N,Net-(J6-CC1)*%
X129750000Y-90750000D03*
%TO.N,Net-(JP5-B)*%
X170000000Y-92600000D03*
D20*
X170000000Y-97000000D03*
D19*
%TO.N,+3.3V*%
X144000000Y-101750000D03*
%TO.N,/SDA*%
X128675000Y-82975000D03*
%TO.N,+12V*%
X164000000Y-84250000D03*
D20*
%TO.N,Net-(JP5-B)*%
X166000000Y-96000000D03*
%TO.N,/Rs_2*%
X146032525Y-99272475D03*
D19*
%TO.N,+3.3V*%
X153500000Y-111250000D03*
%TO.N,/Rs_1*%
X143000000Y-84350000D03*
X134750000Y-106750000D03*
%TO.N,/RXD_1*%
X142500000Y-82000000D03*
%TO.N,+3.3V*%
X138600000Y-77500000D03*
%TO.N,/USB+*%
X135135646Y-92354328D03*
%TO.N,+3.3V*%
X127150000Y-84300000D03*
%TO.N,Net-(D9-Pad2)*%
X134600000Y-89520000D03*
%TO.N,/SCL*%
X135200000Y-88000000D03*
%TO.N,+3.3V*%
X142600000Y-79300000D03*
X129500000Y-79700000D03*
%TO.N,Net-(J6-CC2)*%
X130000000Y-93750000D03*
%TO.N,Net-(J6-CC1)*%
X129250000Y-97500000D03*
%TO.N,/SCL*%
X131219640Y-86200970D03*
%TO.N,+3.3V*%
X126400000Y-81975000D03*
%TO.N,Net-(J6-CC2)*%
X130500000Y-97500000D03*
%TO.N,/BATT_MEAS_ENA*%
X159750000Y-83000000D03*
%TO.N,+5V*%
X149000000Y-112750000D03*
%TO.N,+3.3V*%
X162500000Y-92000000D03*
%TO.N,/TXD_1*%
X134750000Y-101750000D03*
D20*
%TO.N,/IGN_SIG*%
X168025000Y-78750000D03*
D19*
%TO.N,+5V*%
X137750000Y-98250000D03*
%TO.N,+3.3V*%
X154750000Y-105500000D03*
%TO.N,/TXD_1*%
X142500000Y-83250000D03*
%TO.N,+3.3V*%
X138500000Y-86300000D03*
X153500000Y-105500000D03*
X156250000Y-97500000D03*
%TO.N,Net-(Q1-D)*%
X171250000Y-80250000D03*
%TO.N,/RXD_1*%
X131000000Y-101750000D03*
%TO.N,/SDA*%
X135200000Y-86200000D03*
%TO.N,Net-(Q1-D)*%
X164775000Y-80750000D03*
%TO.N,+3.3V*%
X153500000Y-104500000D03*
X138600000Y-79500000D03*
D20*
%TO.N,Net-(JP5-B)*%
X170000000Y-101000000D03*
D19*
%TO.N,+3.3V*%
X132500000Y-102000000D03*
D20*
%TO.N,Net-(JP5-B)*%
X170000000Y-95000000D03*
D19*
%TO.N,Net-(D9-Pad2)*%
X134584168Y-93215470D03*
%TO.N,/BATT_MEAS_ENA*%
X169750000Y-83250000D03*
%TO.N,+3.3V*%
X138500000Y-88000000D03*
%TO.N,IGN*%
X171000000Y-91750000D03*
%TO.N,/USB+*%
X131470000Y-91750000D03*
D20*
%TO.N,/IGN_SIG*%
X160000000Y-79000000D03*
D19*
%TO.N,+3.3V*%
X152250000Y-105500000D03*
%TO.N,/CANH_2*%
X145725000Y-111750000D03*
%TD*%
%TO.N,IGN*%
D21*
X171000000Y-85500000D02*
X169000000Y-83500000D01*
X171000000Y-91750000D02*
X171000000Y-85500000D01*
%TO.N,/SDA*%
X131819300Y-86219300D02*
X132000000Y-86400000D01*
%TO.N,/Rs_2*%
X146032525Y-99272475D02*
X146750000Y-99989950D01*
%TO.N,Net-(JP5-B)*%
D22*
X169500000Y-107750000D02*
X170000000Y-107250000D01*
%TO.N,/CANL_2*%
D21*
X147500000Y-118250000D02*
X142900000Y-113650000D01*
%TO.N,/CANL_1*%
X136500000Y-119250000D02*
X131025000Y-113775000D01*
%TO.N,/IGN_SIG*%
X167775000Y-79000000D02*
X168025000Y-78750000D01*
%TO.N,/SDA*%
X131719640Y-85993863D02*
X131719640Y-86019640D01*
%TO.N,+12V*%
X170300000Y-110928719D02*
X169500000Y-111728719D01*
%TO.N,Net-(D9-Pad2)*%
X135735646Y-92602857D02*
X135735646Y-90655646D01*
%TO.N,/Rs_1*%
X135350000Y-98715686D02*
X135350000Y-106150000D01*
%TO.N,IGN*%
X162275000Y-122175000D02*
X163976346Y-122175000D01*
%TO.N,/CANL_2*%
X147500000Y-120900000D02*
X147500000Y-118250000D01*
%TO.N,Net-(J6-CC1)*%
X129250000Y-97500000D02*
X129250000Y-91250000D01*
%TO.N,/USB+*%
X131470000Y-91750000D02*
X132335470Y-92615470D01*
%TO.N,Net-(J6-CC2)*%
X130500000Y-94250000D02*
X130000000Y-93750000D01*
%TO.N,/SDA*%
X135000000Y-86400000D02*
X135200000Y-86200000D01*
%TO.N,/SCL*%
X131231493Y-86300000D02*
X131781493Y-86850000D01*
%TO.N,IGN*%
X163976346Y-122175000D02*
X164928700Y-121222646D01*
%TO.N,Net-(J6-CC2)*%
X130500000Y-97500000D02*
X130500000Y-94250000D01*
%TO.N,/SCL*%
X131781493Y-86850000D02*
X134050000Y-86850000D01*
%TO.N,+12V*%
X170300000Y-108081370D02*
X170300000Y-110928719D01*
%TO.N,Net-(Q1-D)*%
X171250000Y-80250000D02*
X170750000Y-80750000D01*
%TO.N,+12V*%
X163500000Y-121250000D02*
X163250000Y-121500000D01*
%TO.N,/USB+*%
X134874504Y-92615470D02*
X135135646Y-92354328D01*
%TO.N,IGN*%
X171250000Y-107700000D02*
X171250000Y-92000000D01*
X164928700Y-117678700D02*
X169900000Y-112707399D01*
%TO.N,/SDA*%
X131400970Y-85700970D02*
X131426747Y-85700970D01*
X132000000Y-86400000D02*
X135000000Y-86400000D01*
%TO.N,+12V*%
X169500000Y-112541714D02*
X163500000Y-118541714D01*
%TO.N,/CANH_1*%
X139000000Y-116800000D02*
X133950000Y-111750000D01*
%TO.N,+12V*%
X170800000Y-107581370D02*
X170300000Y-108081370D01*
X169500000Y-111728719D02*
X169500000Y-112541714D01*
%TO.N,IGN*%
X170700000Y-108250000D02*
X171250000Y-107700000D01*
%TO.N,Net-(JP5-B)*%
D22*
X170000000Y-92600000D02*
X170000000Y-97250000D01*
%TO.N,/SDA*%
D21*
X128675000Y-82975000D02*
X131400970Y-85700970D01*
%TO.N,/Rs_1*%
X143000000Y-91065686D02*
X135350000Y-98715686D01*
%TO.N,+12V*%
X168400000Y-83650000D02*
X170331371Y-85581371D01*
%TO.N,/TXD_1*%
X134750000Y-101750000D02*
X134750000Y-98565686D01*
%TO.N,/RXD_1*%
X131000000Y-101750000D02*
X142000000Y-90750000D01*
%TO.N,Net-(JP5-B)*%
D22*
X166000000Y-96000000D02*
X167250000Y-97250000D01*
X167250000Y-97250000D02*
X170000000Y-97250000D01*
%TO.N,/SCL*%
D21*
X134050000Y-86850000D02*
X135200000Y-88000000D01*
%TO.N,/CANH_2*%
X150000000Y-116025000D02*
X145725000Y-111750000D01*
%TO.N,IGN*%
X169900000Y-112707399D02*
X169900000Y-112100000D01*
%TO.N,/SDA*%
X131426747Y-85700970D02*
X131719640Y-85993863D01*
%TO.N,/RXD_1*%
X142000000Y-90750000D02*
X142000000Y-82500000D01*
%TO.N,/TXD_1*%
X134750000Y-98565686D02*
X142500000Y-90815686D01*
%TO.N,+5V*%
D23*
X146000000Y-98250000D02*
X137750000Y-98250000D01*
%TO.N,/Rs_1*%
D21*
X135350000Y-106150000D02*
X134750000Y-106750000D01*
%TO.N,/CANH_2*%
X150000000Y-120900000D02*
X150000000Y-116025000D01*
%TO.N,/BATT_MEAS_ENA*%
X169500000Y-83000000D02*
X169750000Y-83250000D01*
%TO.N,Net-(JP5-B)*%
D22*
X168347349Y-111750000D02*
X169500000Y-110597349D01*
%TO.N,+12V*%
D21*
X164600000Y-83650000D02*
X168400000Y-83650000D01*
%TO.N,IGN*%
X171250000Y-92000000D02*
X171000000Y-91750000D01*
%TO.N,Net-(JP5-B)*%
D22*
X169500000Y-110597349D02*
X169500000Y-107750000D01*
%TO.N,+12V*%
D21*
X170331371Y-85581371D02*
X170331371Y-91800000D01*
X170800000Y-92268629D02*
X170800000Y-107581370D01*
%TO.N,/Rs_2*%
X146750000Y-99989950D02*
X146750000Y-107000000D01*
%TO.N,/CANH_1*%
X139000000Y-120900000D02*
X139000000Y-116800000D01*
%TO.N,IGN*%
X170700000Y-111300000D02*
X170700000Y-108250000D01*
%TO.N,Net-(JP5-B)*%
D22*
X170000000Y-107250000D02*
X170000000Y-97250000D01*
%TO.N,/SDA*%
D21*
X131819300Y-86119300D02*
X131819300Y-86219300D01*
%TO.N,/Rs_1*%
X143000000Y-84350000D02*
X143000000Y-91065686D01*
%TO.N,/TXD_1*%
X142500000Y-90815686D02*
X142500000Y-83250000D01*
%TO.N,IGN*%
X169900000Y-112100000D02*
X170700000Y-111300000D01*
%TO.N,+12V*%
X163500000Y-120900000D02*
X163500000Y-121250000D01*
%TO.N,+5V*%
D23*
X147625000Y-99875000D02*
X146000000Y-98250000D01*
%TO.N,/SCL*%
D21*
X131219640Y-86200970D02*
X131231493Y-86212823D01*
%TO.N,/IGN_SIG*%
X160000000Y-79000000D02*
X167775000Y-79000000D01*
%TO.N,/CANL_1*%
X136500000Y-120900000D02*
X136500000Y-119250000D01*
%TO.N,/USB+*%
X132335470Y-92615470D02*
X134874504Y-92615470D01*
%TO.N,/SCL*%
X131231493Y-86212823D02*
X131231493Y-86300000D01*
%TO.N,+5V*%
D23*
X149000000Y-101250000D02*
X147625000Y-99875000D01*
%TO.N,Net-(D9-Pad2)*%
D21*
X135735646Y-90655646D02*
X134600000Y-89520000D01*
%TO.N,+12V*%
X163500000Y-118541714D02*
X163500000Y-120900000D01*
%TO.N,/BATT_MEAS_ENA*%
X159750000Y-83000000D02*
X169500000Y-83000000D01*
%TO.N,+5V*%
D23*
X149000000Y-112750000D02*
X149000000Y-101250000D01*
%TO.N,IGN*%
D21*
X161000000Y-120900000D02*
X162275000Y-122175000D01*
%TO.N,Net-(J6-CC1)*%
X129250000Y-91250000D02*
X129750000Y-90750000D01*
%TO.N,Net-(D9-Pad2)*%
X135123033Y-93215470D02*
X135735646Y-92602857D01*
%TO.N,+12V*%
X170331371Y-91800000D02*
X170800000Y-92268629D01*
%TO.N,Net-(Q1-D)*%
X170750000Y-80750000D02*
X164775000Y-80750000D01*
%TO.N,/RXD_1*%
X142000000Y-82500000D02*
X142500000Y-82000000D01*
%TO.N,IGN*%
X164928700Y-121222646D02*
X164928700Y-117678700D01*
%TO.N,Net-(D9-Pad2)*%
X134584168Y-93215470D02*
X135123033Y-93215470D01*
%TO.N,/SDA*%
X131719640Y-86019640D02*
X131819300Y-86119300D01*
%TO.N,+12V*%
X164000000Y-84250000D02*
X164600000Y-83650000D01*
%TD*%
%TA.AperFunction,Conductor*%
%TO.N,+3.3V*%
G36*
X135059869Y-71519407D02*
G01*
X135071682Y-71529496D01*
X140692686Y-77150500D01*
X140692688Y-77150501D01*
X140692689Y-77150502D01*
X140692690Y-77150503D01*
X140806810Y-77216390D01*
X140806808Y-77216390D01*
X140806812Y-77216391D01*
X140806814Y-77216392D01*
X140934108Y-77250500D01*
X140934110Y-77250500D01*
X159065890Y-77250500D01*
X159065892Y-77250500D01*
X159193186Y-77216392D01*
X159193188Y-77216390D01*
X159193190Y-77216390D01*
X159307309Y-77150503D01*
X159307309Y-77150502D01*
X159307314Y-77150500D01*
X164928318Y-71529496D01*
X164982835Y-71501719D01*
X164998322Y-71500500D01*
X165184108Y-71500500D01*
X170264092Y-71500500D01*
X170322283Y-71519407D01*
X170358247Y-71568907D01*
X170358247Y-71630093D01*
X170322283Y-71679593D01*
X170307050Y-71688694D01*
X170203898Y-71738369D01*
X170022097Y-71825920D01*
X170022092Y-71825923D01*
X169731981Y-72008211D01*
X169464108Y-72221833D01*
X169221833Y-72464108D01*
X169008211Y-72731981D01*
X168825923Y-73022092D01*
X168825916Y-73022104D01*
X168677264Y-73330784D01*
X168677263Y-73330786D01*
X168564103Y-73654179D01*
X168487860Y-73988218D01*
X168449500Y-74328686D01*
X168449500Y-74671313D01*
X168487860Y-75011781D01*
X168564103Y-75345820D01*
X168677263Y-75669213D01*
X168677264Y-75669215D01*
X168825916Y-75977895D01*
X168825920Y-75977902D01*
X168825924Y-75977910D01*
X169008211Y-76268018D01*
X169221834Y-76535893D01*
X169464107Y-76778166D01*
X169731982Y-76991789D01*
X170022090Y-77174076D01*
X170022101Y-77174081D01*
X170022104Y-77174083D01*
X170109956Y-77216390D01*
X170330785Y-77322736D01*
X170481753Y-77375561D01*
X170654179Y-77435896D01*
X170654182Y-77435896D01*
X170654183Y-77435897D01*
X170988217Y-77512139D01*
X171328688Y-77550500D01*
X171328689Y-77550500D01*
X171671311Y-77550500D01*
X171671312Y-77550500D01*
X172011783Y-77512139D01*
X172345817Y-77435897D01*
X172669215Y-77322736D01*
X172977910Y-77174076D01*
X173268018Y-76991789D01*
X173535893Y-76778166D01*
X173778166Y-76535893D01*
X173991789Y-76268018D01*
X174174076Y-75977910D01*
X174311304Y-75692952D01*
X174353587Y-75648728D01*
X174413789Y-75637803D01*
X174468915Y-75664350D01*
X174497909Y-75718230D01*
X174499500Y-75735907D01*
X174499500Y-121264092D01*
X174480593Y-121322283D01*
X174431093Y-121358247D01*
X174369907Y-121358247D01*
X174320407Y-121322283D01*
X174311304Y-121307047D01*
X174174076Y-121022090D01*
X173991789Y-120731982D01*
X173778166Y-120464107D01*
X173535893Y-120221834D01*
X173268018Y-120008211D01*
X172977910Y-119825924D01*
X172977902Y-119825920D01*
X172977895Y-119825916D01*
X172669215Y-119677264D01*
X172669213Y-119677263D01*
X172345820Y-119564103D01*
X172011781Y-119487860D01*
X171671313Y-119449500D01*
X171671312Y-119449500D01*
X171328688Y-119449500D01*
X171328686Y-119449500D01*
X170988218Y-119487860D01*
X170654179Y-119564103D01*
X170330786Y-119677263D01*
X170330784Y-119677264D01*
X170022104Y-119825916D01*
X170022092Y-119825923D01*
X169731981Y-120008211D01*
X169464108Y-120221833D01*
X169221833Y-120464108D01*
X169008211Y-120731981D01*
X168825923Y-121022092D01*
X168825916Y-121022104D01*
X168677264Y-121330784D01*
X168677263Y-121330786D01*
X168564103Y-121654179D01*
X168487860Y-121988218D01*
X168449500Y-122328686D01*
X168449500Y-122671313D01*
X168487860Y-123011781D01*
X168564103Y-123345820D01*
X168677263Y-123669213D01*
X168677264Y-123669215D01*
X168825916Y-123977895D01*
X168825920Y-123977902D01*
X168825924Y-123977910D01*
X169008211Y-124268018D01*
X169221834Y-124535893D01*
X169464107Y-124778166D01*
X169731982Y-124991789D01*
X170022090Y-125174076D01*
X170307047Y-125311304D01*
X170351271Y-125353587D01*
X170362196Y-125413789D01*
X170335649Y-125468915D01*
X170281769Y-125497909D01*
X170264092Y-125499500D01*
X129735908Y-125499500D01*
X129677717Y-125480593D01*
X129641753Y-125431093D01*
X129641753Y-125369907D01*
X129677717Y-125320407D01*
X129692949Y-125311305D01*
X129977910Y-125174076D01*
X130268018Y-124991789D01*
X130535893Y-124778166D01*
X130778166Y-124535893D01*
X130991789Y-124268018D01*
X131174076Y-123977910D01*
X131322736Y-123669215D01*
X131435897Y-123345817D01*
X131512139Y-123011783D01*
X131550500Y-122671312D01*
X131550500Y-122328688D01*
X131512139Y-121988217D01*
X131435897Y-121654183D01*
X131430181Y-121637848D01*
X131352625Y-121416204D01*
X131322736Y-121330785D01*
X131174076Y-121022090D01*
X130991789Y-120731982D01*
X130778166Y-120464107D01*
X130535893Y-120221834D01*
X130268018Y-120008211D01*
X129977910Y-119825924D01*
X129977902Y-119825920D01*
X129977895Y-119825916D01*
X129669215Y-119677264D01*
X129669213Y-119677263D01*
X129345820Y-119564103D01*
X129011781Y-119487860D01*
X128671313Y-119449500D01*
X128671312Y-119449500D01*
X128328688Y-119449500D01*
X128328686Y-119449500D01*
X127988218Y-119487860D01*
X127654179Y-119564103D01*
X127330786Y-119677263D01*
X127330784Y-119677264D01*
X127022104Y-119825916D01*
X127022092Y-119825923D01*
X126731981Y-120008211D01*
X126464108Y-120221833D01*
X126221833Y-120464108D01*
X126008211Y-120731981D01*
X125825923Y-121022092D01*
X125825920Y-121022097D01*
X125825917Y-121022104D01*
X125694782Y-121294410D01*
X125688696Y-121307047D01*
X125646413Y-121351271D01*
X125586211Y-121362196D01*
X125531085Y-121335649D01*
X125502091Y-121281769D01*
X125500500Y-121264092D01*
X125500500Y-113709108D01*
X130524500Y-113709108D01*
X130524500Y-113840892D01*
X130525115Y-113843186D01*
X130558609Y-113968190D01*
X130624496Y-114082309D01*
X130624498Y-114082311D01*
X130624500Y-114082314D01*
X130717686Y-114175500D01*
X130831814Y-114241392D01*
X130933482Y-114268633D01*
X130977863Y-114294256D01*
X136070504Y-119386897D01*
X136098281Y-119441414D01*
X136099500Y-119456901D01*
X136099500Y-119525500D01*
X136080593Y-119583691D01*
X136031093Y-119619655D01*
X136000500Y-119624500D01*
X135856893Y-119624500D01*
X135768434Y-119635123D01*
X135627660Y-119690637D01*
X135627656Y-119690640D01*
X135507081Y-119782075D01*
X135507075Y-119782081D01*
X135415640Y-119902656D01*
X135415637Y-119902660D01*
X135360123Y-120043434D01*
X135349500Y-120131893D01*
X135349500Y-121668106D01*
X135360123Y-121756565D01*
X135415637Y-121897339D01*
X135415638Y-121897341D01*
X135415639Y-121897342D01*
X135507078Y-122017922D01*
X135627658Y-122109361D01*
X135627659Y-122109361D01*
X135627660Y-122109362D01*
X135698047Y-122137119D01*
X135768436Y-122164877D01*
X135856898Y-122175500D01*
X135856900Y-122175500D01*
X137143100Y-122175500D01*
X137143102Y-122175500D01*
X137231564Y-122164877D01*
X137372342Y-122109361D01*
X137492922Y-122017922D01*
X137584361Y-121897342D01*
X137639877Y-121756564D01*
X137650500Y-121668102D01*
X137650500Y-120131898D01*
X137639877Y-120043436D01*
X137584361Y-119902658D01*
X137492922Y-119782078D01*
X137372342Y-119690639D01*
X137372341Y-119690638D01*
X137372339Y-119690637D01*
X137231565Y-119635123D01*
X137143106Y-119624500D01*
X137143102Y-119624500D01*
X136999500Y-119624500D01*
X136941309Y-119605593D01*
X136905345Y-119556093D01*
X136900500Y-119525500D01*
X136900500Y-119197274D01*
X136900500Y-119197273D01*
X136873207Y-119095413D01*
X136873207Y-119095412D01*
X136873207Y-119095411D01*
X136820483Y-119004091D01*
X136820482Y-119004090D01*
X136820481Y-119004089D01*
X136820480Y-119004087D01*
X131544256Y-113727863D01*
X131518633Y-113683482D01*
X131491392Y-113581814D01*
X131425500Y-113467686D01*
X131332314Y-113374500D01*
X131332311Y-113374498D01*
X131332309Y-113374496D01*
X131218189Y-113308609D01*
X131218191Y-113308609D01*
X131168799Y-113295375D01*
X131090892Y-113274500D01*
X130959108Y-113274500D01*
X130881200Y-113295375D01*
X130831809Y-113308609D01*
X130717690Y-113374496D01*
X130624496Y-113467690D01*
X130558609Y-113581809D01*
X130558608Y-113581814D01*
X130524500Y-113709108D01*
X125500500Y-113709108D01*
X125500500Y-111684108D01*
X133449500Y-111684108D01*
X133449500Y-111815892D01*
X133479579Y-111928151D01*
X133483609Y-111943190D01*
X133549496Y-112057309D01*
X133549498Y-112057311D01*
X133549500Y-112057314D01*
X133642686Y-112150500D01*
X133756814Y-112216392D01*
X133858482Y-112243633D01*
X133902863Y-112269256D01*
X138570504Y-116936897D01*
X138598281Y-116991414D01*
X138599500Y-117006901D01*
X138599500Y-119627160D01*
X138580593Y-119685351D01*
X138545445Y-119715370D01*
X138397008Y-119791002D01*
X138348953Y-119825916D01*
X138250499Y-119897447D01*
X138122447Y-120025499D01*
X138118237Y-120031294D01*
X138016002Y-120172008D01*
X137933788Y-120333362D01*
X137877828Y-120505593D01*
X137849500Y-120684450D01*
X137849500Y-121115549D01*
X137877828Y-121294406D01*
X137877829Y-121294409D01*
X137933789Y-121466639D01*
X138016004Y-121627994D01*
X138122447Y-121774501D01*
X138250499Y-121902553D01*
X138397006Y-122008996D01*
X138558361Y-122091211D01*
X138730591Y-122147171D01*
X138802136Y-122158502D01*
X138909451Y-122175500D01*
X138909454Y-122175500D01*
X139090549Y-122175500D01*
X139179977Y-122161335D01*
X139269409Y-122147171D01*
X139441639Y-122091211D01*
X139602994Y-122008996D01*
X139749501Y-121902553D01*
X139877553Y-121774501D01*
X139983996Y-121627994D01*
X140066211Y-121466639D01*
X140122171Y-121294409D01*
X140150500Y-121115546D01*
X140150500Y-120684454D01*
X140150500Y-120684450D01*
X140349500Y-120684450D01*
X140349500Y-121115549D01*
X140377828Y-121294406D01*
X140377829Y-121294409D01*
X140433789Y-121466639D01*
X140516004Y-121627994D01*
X140622447Y-121774501D01*
X140750499Y-121902553D01*
X140897006Y-122008996D01*
X141058361Y-122091211D01*
X141230591Y-122147171D01*
X141302136Y-122158502D01*
X141409451Y-122175500D01*
X141409454Y-122175500D01*
X141590549Y-122175500D01*
X141679977Y-122161335D01*
X141769409Y-122147171D01*
X141941639Y-122091211D01*
X142102994Y-122008996D01*
X142249501Y-121902553D01*
X142377553Y-121774501D01*
X142483996Y-121627994D01*
X142566211Y-121466639D01*
X142622171Y-121294409D01*
X142650500Y-121115546D01*
X142650500Y-120684454D01*
X142650500Y-120684450D01*
X142622171Y-120505593D01*
X142622171Y-120505591D01*
X142566211Y-120333361D01*
X142483996Y-120172006D01*
X142377553Y-120025499D01*
X142249501Y-119897447D01*
X142102994Y-119791004D01*
X142102993Y-119791003D01*
X142102991Y-119791002D01*
X141941637Y-119708788D01*
X141769406Y-119652828D01*
X141590549Y-119624500D01*
X141590546Y-119624500D01*
X141409454Y-119624500D01*
X141409451Y-119624500D01*
X141230593Y-119652828D01*
X141058362Y-119708788D01*
X140897008Y-119791002D01*
X140848953Y-119825916D01*
X140750499Y-119897447D01*
X140622447Y-120025499D01*
X140618237Y-120031294D01*
X140516002Y-120172008D01*
X140433788Y-120333362D01*
X140377828Y-120505593D01*
X140349500Y-120684450D01*
X140150500Y-120684450D01*
X140122171Y-120505593D01*
X140122171Y-120505591D01*
X140066211Y-120333361D01*
X139983996Y-120172006D01*
X139877553Y-120025499D01*
X139749501Y-119897447D01*
X139602994Y-119791004D01*
X139602993Y-119791003D01*
X139602991Y-119791002D01*
X139454555Y-119715370D01*
X139411290Y-119672105D01*
X139400500Y-119627160D01*
X139400500Y-116747274D01*
X139400500Y-116747273D01*
X139373207Y-116645413D01*
X139320480Y-116554087D01*
X139245913Y-116479519D01*
X139245913Y-116479520D01*
X136350501Y-113584108D01*
X142399500Y-113584108D01*
X142399500Y-113715892D01*
X142402708Y-113727863D01*
X142433609Y-113843190D01*
X142499496Y-113957309D01*
X142499498Y-113957311D01*
X142499500Y-113957314D01*
X142592686Y-114050500D01*
X142706814Y-114116392D01*
X142808482Y-114143633D01*
X142852863Y-114169256D01*
X147070504Y-118386897D01*
X147098281Y-118441414D01*
X147099500Y-118456901D01*
X147099500Y-119525500D01*
X147080593Y-119583691D01*
X147031093Y-119619655D01*
X147000500Y-119624500D01*
X146856893Y-119624500D01*
X146768434Y-119635123D01*
X146627660Y-119690637D01*
X146627656Y-119690640D01*
X146507081Y-119782075D01*
X146507075Y-119782081D01*
X146415640Y-119902656D01*
X146415637Y-119902660D01*
X146360123Y-120043434D01*
X146349500Y-120131893D01*
X146349500Y-121668106D01*
X146360123Y-121756565D01*
X146415637Y-121897339D01*
X146415638Y-121897341D01*
X146415639Y-121897342D01*
X146507078Y-122017922D01*
X146627658Y-122109361D01*
X146627659Y-122109361D01*
X146627660Y-122109362D01*
X146698047Y-122137119D01*
X146768436Y-122164877D01*
X146856898Y-122175500D01*
X146856900Y-122175500D01*
X148143100Y-122175500D01*
X148143102Y-122175500D01*
X148231564Y-122164877D01*
X148372342Y-122109361D01*
X148492922Y-122017922D01*
X148584361Y-121897342D01*
X148639877Y-121756564D01*
X148650500Y-121668102D01*
X148650500Y-120131898D01*
X148639877Y-120043436D01*
X148584361Y-119902658D01*
X148492922Y-119782078D01*
X148372342Y-119690639D01*
X148372341Y-119690638D01*
X148372339Y-119690637D01*
X148231565Y-119635123D01*
X148143106Y-119624500D01*
X148143102Y-119624500D01*
X147999500Y-119624500D01*
X147941309Y-119605593D01*
X147905345Y-119556093D01*
X147900500Y-119525500D01*
X147900500Y-118197274D01*
X147900500Y-118197273D01*
X147873207Y-118095413D01*
X147820480Y-118004087D01*
X147745913Y-117929519D01*
X147745913Y-117929520D01*
X143419256Y-113602863D01*
X143393633Y-113558482D01*
X143366392Y-113456814D01*
X143300500Y-113342686D01*
X143207314Y-113249500D01*
X143207311Y-113249498D01*
X143207309Y-113249496D01*
X143093189Y-113183609D01*
X143093191Y-113183609D01*
X143043799Y-113170375D01*
X142965892Y-113149500D01*
X142834108Y-113149500D01*
X142756200Y-113170375D01*
X142706809Y-113183609D01*
X142592690Y-113249496D01*
X142499496Y-113342690D01*
X142433609Y-113456809D01*
X142430694Y-113467690D01*
X142399500Y-113584108D01*
X136350501Y-113584108D01*
X134469256Y-111702863D01*
X134458428Y-111684108D01*
X145224500Y-111684108D01*
X145224500Y-111815892D01*
X145254579Y-111928151D01*
X145258609Y-111943190D01*
X145324496Y-112057309D01*
X145324498Y-112057311D01*
X145324500Y-112057314D01*
X145417686Y-112150500D01*
X145531814Y-112216392D01*
X145633482Y-112243633D01*
X145677863Y-112269256D01*
X149570504Y-116161897D01*
X149598281Y-116216414D01*
X149599500Y-116231901D01*
X149599500Y-119627160D01*
X149580593Y-119685351D01*
X149545445Y-119715370D01*
X149397008Y-119791002D01*
X149348953Y-119825916D01*
X149250499Y-119897447D01*
X149122447Y-120025499D01*
X149118237Y-120031294D01*
X149016002Y-120172008D01*
X148933788Y-120333362D01*
X148877828Y-120505593D01*
X148849500Y-120684450D01*
X148849500Y-121115549D01*
X148877828Y-121294406D01*
X148877829Y-121294409D01*
X148933789Y-121466639D01*
X149016004Y-121627994D01*
X149122447Y-121774501D01*
X149250499Y-121902553D01*
X149397006Y-122008996D01*
X149558361Y-122091211D01*
X149730591Y-122147171D01*
X149802136Y-122158502D01*
X149909451Y-122175500D01*
X149909454Y-122175500D01*
X150090549Y-122175500D01*
X150179977Y-122161335D01*
X150269409Y-122147171D01*
X150441639Y-122091211D01*
X150602994Y-122008996D01*
X150749501Y-121902553D01*
X150877553Y-121774501D01*
X150983996Y-121627994D01*
X151066211Y-121466639D01*
X151122171Y-121294409D01*
X151150500Y-121115546D01*
X151150500Y-120684454D01*
X151150500Y-120684450D01*
X151349500Y-120684450D01*
X151349500Y-121115549D01*
X151377828Y-121294406D01*
X151377829Y-121294409D01*
X151433789Y-121466639D01*
X151516004Y-121627994D01*
X151622447Y-121774501D01*
X151750499Y-121902553D01*
X151897006Y-122008996D01*
X152058361Y-122091211D01*
X152230591Y-122147171D01*
X152302136Y-122158502D01*
X152409451Y-122175500D01*
X152409454Y-122175500D01*
X152590549Y-122175500D01*
X152679977Y-122161335D01*
X152769409Y-122147171D01*
X152941639Y-122091211D01*
X153102994Y-122008996D01*
X153249501Y-121902553D01*
X153377553Y-121774501D01*
X153483996Y-121627994D01*
X153566211Y-121466639D01*
X153622171Y-121294409D01*
X153650500Y-121115546D01*
X153650500Y-120684454D01*
X153650500Y-120684450D01*
X153622171Y-120505593D01*
X153622171Y-120505591D01*
X153566211Y-120333361D01*
X153483996Y-120172006D01*
X153454852Y-120131893D01*
X157349500Y-120131893D01*
X157349500Y-121668106D01*
X157360123Y-121756565D01*
X157415637Y-121897339D01*
X157415638Y-121897341D01*
X157415639Y-121897342D01*
X157507078Y-122017922D01*
X157627658Y-122109361D01*
X157627659Y-122109361D01*
X157627660Y-122109362D01*
X157698047Y-122137119D01*
X157768436Y-122164877D01*
X157856898Y-122175500D01*
X157856900Y-122175500D01*
X159143100Y-122175500D01*
X159143102Y-122175500D01*
X159231564Y-122164877D01*
X159372342Y-122109361D01*
X159492922Y-122017922D01*
X159584361Y-121897342D01*
X159639877Y-121756564D01*
X159650500Y-121668102D01*
X159650500Y-120131898D01*
X159639877Y-120043436D01*
X159584361Y-119902658D01*
X159492922Y-119782078D01*
X159372342Y-119690639D01*
X159372341Y-119690638D01*
X159372339Y-119690637D01*
X159231565Y-119635123D01*
X159143106Y-119624500D01*
X159143102Y-119624500D01*
X157856898Y-119624500D01*
X157856893Y-119624500D01*
X157768434Y-119635123D01*
X157627660Y-119690637D01*
X157627656Y-119690640D01*
X157507081Y-119782075D01*
X157507075Y-119782081D01*
X157415640Y-119902656D01*
X157415637Y-119902660D01*
X157360123Y-120043434D01*
X157349500Y-120131893D01*
X153454852Y-120131893D01*
X153377553Y-120025499D01*
X153249501Y-119897447D01*
X153102994Y-119791004D01*
X153102993Y-119791003D01*
X153102991Y-119791002D01*
X152941637Y-119708788D01*
X152769406Y-119652828D01*
X152590549Y-119624500D01*
X152590546Y-119624500D01*
X152409454Y-119624500D01*
X152409451Y-119624500D01*
X152230593Y-119652828D01*
X152058362Y-119708788D01*
X151897008Y-119791002D01*
X151848953Y-119825916D01*
X151750499Y-119897447D01*
X151622447Y-120025499D01*
X151618237Y-120031294D01*
X151516002Y-120172008D01*
X151433788Y-120333362D01*
X151377828Y-120505593D01*
X151349500Y-120684450D01*
X151150500Y-120684450D01*
X151122171Y-120505593D01*
X151122171Y-120505591D01*
X151066211Y-120333361D01*
X150983996Y-120172006D01*
X150877553Y-120025499D01*
X150749501Y-119897447D01*
X150602994Y-119791004D01*
X150602993Y-119791003D01*
X150602991Y-119791002D01*
X150454555Y-119715370D01*
X150411290Y-119672105D01*
X150400500Y-119627160D01*
X150400500Y-115972274D01*
X150400500Y-115972273D01*
X150373207Y-115870413D01*
X150373207Y-115870412D01*
X150373207Y-115870411D01*
X150320483Y-115779091D01*
X150320482Y-115779090D01*
X150320481Y-115779089D01*
X150320480Y-115779087D01*
X146244256Y-111702863D01*
X146218633Y-111658482D01*
X146191392Y-111556814D01*
X146125500Y-111442686D01*
X146032314Y-111349500D01*
X146032311Y-111349498D01*
X146032309Y-111349496D01*
X145918189Y-111283609D01*
X145918191Y-111283609D01*
X145868799Y-111270375D01*
X145790892Y-111249500D01*
X145659108Y-111249500D01*
X145581200Y-111270375D01*
X145531809Y-111283609D01*
X145417690Y-111349496D01*
X145324496Y-111442690D01*
X145258609Y-111556809D01*
X145258608Y-111556814D01*
X145224500Y-111684108D01*
X134458428Y-111684108D01*
X134443633Y-111658482D01*
X134416392Y-111556814D01*
X134350500Y-111442686D01*
X134257314Y-111349500D01*
X134257311Y-111349498D01*
X134257309Y-111349496D01*
X134143189Y-111283609D01*
X134143191Y-111283609D01*
X134093799Y-111270375D01*
X134015892Y-111249500D01*
X133884108Y-111249500D01*
X133806200Y-111270375D01*
X133756809Y-111283609D01*
X133642690Y-111349496D01*
X133549496Y-111442690D01*
X133483609Y-111556809D01*
X133483608Y-111556814D01*
X133449500Y-111684108D01*
X125500500Y-111684108D01*
X125500500Y-101684108D01*
X130499500Y-101684108D01*
X130499500Y-101815892D01*
X130529579Y-101928151D01*
X130533609Y-101943190D01*
X130599496Y-102057309D01*
X130599498Y-102057311D01*
X130599500Y-102057314D01*
X130692686Y-102150500D01*
X130692688Y-102150501D01*
X130692690Y-102150503D01*
X130806810Y-102216390D01*
X130806808Y-102216390D01*
X130806812Y-102216391D01*
X130806814Y-102216392D01*
X130934108Y-102250500D01*
X130934110Y-102250500D01*
X131065890Y-102250500D01*
X131065892Y-102250500D01*
X131193186Y-102216392D01*
X131193188Y-102216390D01*
X131193190Y-102216390D01*
X131307309Y-102150503D01*
X131307309Y-102150502D01*
X131307314Y-102150500D01*
X131400500Y-102057314D01*
X131466392Y-101943186D01*
X131493633Y-101841514D01*
X131519253Y-101797138D01*
X134180497Y-99135895D01*
X134235013Y-99108119D01*
X134295445Y-99117690D01*
X134338710Y-99160955D01*
X134349500Y-99205900D01*
X134349500Y-101416159D01*
X134336236Y-101465659D01*
X134283609Y-101556809D01*
X134283608Y-101556814D01*
X134249500Y-101684108D01*
X134249500Y-101815892D01*
X134279579Y-101928151D01*
X134283609Y-101943190D01*
X134349496Y-102057309D01*
X134349498Y-102057311D01*
X134349500Y-102057314D01*
X134442686Y-102150500D01*
X134442688Y-102150501D01*
X134442690Y-102150503D01*
X134556810Y-102216390D01*
X134556808Y-102216390D01*
X134556812Y-102216391D01*
X134556814Y-102216392D01*
X134684108Y-102250500D01*
X134684110Y-102250500D01*
X134815890Y-102250500D01*
X134815892Y-102250500D01*
X134824878Y-102248092D01*
X134885979Y-102251295D01*
X134933528Y-102289800D01*
X134949500Y-102343719D01*
X134949500Y-105943099D01*
X134930593Y-106001290D01*
X134920503Y-106013103D01*
X134702863Y-106230742D01*
X134658484Y-106256364D01*
X134556814Y-106283607D01*
X134556810Y-106283609D01*
X134442690Y-106349496D01*
X134349496Y-106442690D01*
X134283609Y-106556809D01*
X134283608Y-106556814D01*
X134249500Y-106684108D01*
X134249500Y-106815892D01*
X134256366Y-106841516D01*
X134283609Y-106943190D01*
X134349496Y-107057309D01*
X134349498Y-107057311D01*
X134349500Y-107057314D01*
X134442686Y-107150500D01*
X134442688Y-107150501D01*
X134442690Y-107150503D01*
X134556810Y-107216390D01*
X134556808Y-107216390D01*
X134556812Y-107216391D01*
X134556814Y-107216392D01*
X134684108Y-107250500D01*
X134684110Y-107250500D01*
X134815890Y-107250500D01*
X134815892Y-107250500D01*
X134943186Y-107216392D01*
X134943188Y-107216390D01*
X134943190Y-107216390D01*
X135057309Y-107150503D01*
X135057309Y-107150502D01*
X135057314Y-107150500D01*
X135150500Y-107057314D01*
X135216392Y-106943186D01*
X135243634Y-106841514D01*
X135269255Y-106797136D01*
X135670480Y-106395913D01*
X135723207Y-106304588D01*
X135750500Y-106202727D01*
X135750500Y-106097273D01*
X135750500Y-98922585D01*
X135769407Y-98864394D01*
X135779490Y-98852587D01*
X136447969Y-98184108D01*
X137249500Y-98184108D01*
X137249500Y-98315892D01*
X137279579Y-98428151D01*
X137283609Y-98443190D01*
X137349496Y-98557309D01*
X137349498Y-98557311D01*
X137349500Y-98557314D01*
X137442686Y-98650500D01*
X137442688Y-98650501D01*
X137442690Y-98650503D01*
X137556810Y-98716390D01*
X137556808Y-98716390D01*
X137556812Y-98716391D01*
X137556814Y-98716392D01*
X137684108Y-98750500D01*
X137815892Y-98750500D01*
X145469016Y-98750500D01*
X145527207Y-98769407D01*
X145563171Y-98818907D01*
X145563171Y-98880093D01*
X145554753Y-98899000D01*
X145552005Y-98903758D01*
X145552005Y-98903759D01*
X145472948Y-99040691D01*
X145432025Y-99193418D01*
X145432025Y-99351532D01*
X145472948Y-99504259D01*
X145552005Y-99641191D01*
X145663809Y-99752995D01*
X145800741Y-99832052D01*
X145953468Y-99872975D01*
X146025624Y-99872975D01*
X146083815Y-99891882D01*
X146095628Y-99901971D01*
X146320504Y-100126847D01*
X146348281Y-100181364D01*
X146349500Y-100196851D01*
X146349500Y-106510256D01*
X146330593Y-106568447D01*
X146320504Y-106580259D01*
X146269482Y-106631281D01*
X146269480Y-106631283D01*
X146269480Y-106631284D01*
X146190423Y-106768216D01*
X146149500Y-106920943D01*
X146149500Y-107079057D01*
X146190423Y-107231784D01*
X146269480Y-107368716D01*
X146381284Y-107480520D01*
X146518216Y-107559577D01*
X146670943Y-107600500D01*
X146670945Y-107600500D01*
X146829055Y-107600500D01*
X146829057Y-107600500D01*
X146981784Y-107559577D01*
X147118716Y-107480520D01*
X147230520Y-107368716D01*
X147309577Y-107231784D01*
X147350500Y-107079057D01*
X147350500Y-106920943D01*
X147309577Y-106768216D01*
X147230520Y-106631284D01*
X147230517Y-106631281D01*
X147179496Y-106580259D01*
X147151719Y-106525742D01*
X147150500Y-106510256D01*
X147150500Y-100347322D01*
X147169407Y-100289131D01*
X147218907Y-100253167D01*
X147280093Y-100253167D01*
X147319504Y-100277318D01*
X148470504Y-101428318D01*
X148498281Y-101482835D01*
X148499500Y-101498322D01*
X148499500Y-112815892D01*
X148505927Y-112839877D01*
X148533609Y-112943190D01*
X148599496Y-113057309D01*
X148599498Y-113057311D01*
X148599500Y-113057314D01*
X148692686Y-113150500D01*
X148692688Y-113150501D01*
X148692690Y-113150503D01*
X148806810Y-113216390D01*
X148806808Y-113216390D01*
X148806812Y-113216391D01*
X148806814Y-113216392D01*
X148934108Y-113250500D01*
X148934110Y-113250500D01*
X149065890Y-113250500D01*
X149065892Y-113250500D01*
X149193186Y-113216392D01*
X149193188Y-113216390D01*
X149193190Y-113216390D01*
X149307309Y-113150503D01*
X149307309Y-113150502D01*
X149307314Y-113150500D01*
X149400500Y-113057314D01*
X149400503Y-113057309D01*
X149466390Y-112943190D01*
X149466390Y-112943188D01*
X149466392Y-112943186D01*
X149500500Y-112815892D01*
X149500500Y-101184108D01*
X149466392Y-101056814D01*
X149466390Y-101056811D01*
X149466390Y-101056809D01*
X149400503Y-100942690D01*
X149400499Y-100942685D01*
X149307314Y-100849499D01*
X149307314Y-100849500D01*
X149185339Y-100727525D01*
X164949500Y-100727525D01*
X164949500Y-100872474D01*
X164987017Y-101012489D01*
X165059487Y-101138010D01*
X165059489Y-101138012D01*
X165059491Y-101138015D01*
X165161985Y-101240509D01*
X165161987Y-101240510D01*
X165161989Y-101240512D01*
X165287511Y-101312982D01*
X165287512Y-101312982D01*
X165287515Y-101312984D01*
X165427525Y-101350500D01*
X165427526Y-101350500D01*
X165572474Y-101350500D01*
X165572475Y-101350500D01*
X165712485Y-101312984D01*
X165712487Y-101312982D01*
X165712489Y-101312982D01*
X165838010Y-101240512D01*
X165838010Y-101240511D01*
X165838015Y-101240509D01*
X165929998Y-101148525D01*
X165984513Y-101120750D01*
X166044945Y-101130321D01*
X166070000Y-101148524D01*
X166161985Y-101240509D01*
X166161987Y-101240510D01*
X166161989Y-101240512D01*
X166287511Y-101312982D01*
X166287512Y-101312982D01*
X166287515Y-101312984D01*
X166427525Y-101350500D01*
X166427526Y-101350500D01*
X166572474Y-101350500D01*
X166572475Y-101350500D01*
X166712485Y-101312984D01*
X166712487Y-101312982D01*
X166712489Y-101312982D01*
X166838010Y-101240512D01*
X166838010Y-101240511D01*
X166838015Y-101240509D01*
X166940509Y-101138015D01*
X166964264Y-101096869D01*
X167009733Y-101055930D01*
X167070583Y-101049534D01*
X167123571Y-101080127D01*
X167135734Y-101096867D01*
X167159491Y-101138015D01*
X167261985Y-101240509D01*
X167261987Y-101240510D01*
X167261989Y-101240512D01*
X167387511Y-101312982D01*
X167387512Y-101312982D01*
X167387515Y-101312984D01*
X167527525Y-101350500D01*
X167527526Y-101350500D01*
X167672474Y-101350500D01*
X167672475Y-101350500D01*
X167812485Y-101312984D01*
X167812487Y-101312982D01*
X167812489Y-101312982D01*
X167938010Y-101240512D01*
X167938010Y-101240511D01*
X167938015Y-101240509D01*
X168040509Y-101138015D01*
X168087391Y-101056814D01*
X168112982Y-101012489D01*
X168112982Y-101012487D01*
X168112984Y-101012485D01*
X168150500Y-100872475D01*
X168150500Y-100727525D01*
X168112984Y-100587515D01*
X168112982Y-100587512D01*
X168112982Y-100587510D01*
X168040512Y-100461989D01*
X168040510Y-100461987D01*
X168040509Y-100461985D01*
X167938015Y-100359491D01*
X167938012Y-100359489D01*
X167938010Y-100359487D01*
X167812488Y-100287017D01*
X167812489Y-100287017D01*
X167776292Y-100277318D01*
X167672475Y-100249500D01*
X167527525Y-100249500D01*
X167465790Y-100266041D01*
X167387510Y-100287017D01*
X167261989Y-100359487D01*
X167159489Y-100461987D01*
X167135736Y-100503129D01*
X167090266Y-100544069D01*
X167029416Y-100550464D01*
X166976428Y-100519871D01*
X166964264Y-100503129D01*
X166940510Y-100461987D01*
X166940509Y-100461985D01*
X166838015Y-100359491D01*
X166838012Y-100359489D01*
X166838010Y-100359487D01*
X166712488Y-100287017D01*
X166712489Y-100287017D01*
X166676292Y-100277318D01*
X166572475Y-100249500D01*
X166427525Y-100249500D01*
X166365790Y-100266041D01*
X166287510Y-100287017D01*
X166161989Y-100359487D01*
X166161988Y-100359488D01*
X166161985Y-100359490D01*
X166161985Y-100359491D01*
X166070001Y-100451474D01*
X166015487Y-100479250D01*
X165955055Y-100469679D01*
X165929999Y-100451475D01*
X165838015Y-100359491D01*
X165838012Y-100359489D01*
X165838010Y-100359487D01*
X165712488Y-100287017D01*
X165712489Y-100287017D01*
X165676292Y-100277318D01*
X165572475Y-100249500D01*
X165427525Y-100249500D01*
X165365790Y-100266041D01*
X165287510Y-100287017D01*
X165161989Y-100359487D01*
X165059487Y-100461989D01*
X164987017Y-100587510D01*
X164949500Y-100727525D01*
X149185339Y-100727525D01*
X147648854Y-99191040D01*
X147585339Y-99127525D01*
X164949500Y-99127525D01*
X164949500Y-99272474D01*
X164987017Y-99412489D01*
X165059487Y-99538010D01*
X165059489Y-99538012D01*
X165059491Y-99538015D01*
X165161985Y-99640509D01*
X165161987Y-99640510D01*
X165161989Y-99640512D01*
X165287511Y-99712982D01*
X165287512Y-99712982D01*
X165287515Y-99712984D01*
X165427525Y-99750500D01*
X165427526Y-99750500D01*
X165572474Y-99750500D01*
X165572475Y-99750500D01*
X165712485Y-99712984D01*
X165712487Y-99712982D01*
X165712489Y-99712982D01*
X165838010Y-99640512D01*
X165838010Y-99640511D01*
X165838015Y-99640509D01*
X165929998Y-99548525D01*
X165984513Y-99520750D01*
X166044945Y-99530321D01*
X166070000Y-99548524D01*
X166161985Y-99640509D01*
X166161987Y-99640510D01*
X166161989Y-99640512D01*
X166287511Y-99712982D01*
X166287512Y-99712982D01*
X166287515Y-99712984D01*
X166427525Y-99750500D01*
X166427526Y-99750500D01*
X166572474Y-99750500D01*
X166572475Y-99750500D01*
X166712485Y-99712984D01*
X166712487Y-99712982D01*
X166712489Y-99712982D01*
X166838010Y-99640512D01*
X166838010Y-99640511D01*
X166838015Y-99640509D01*
X166940509Y-99538015D01*
X166964264Y-99496869D01*
X167009733Y-99455930D01*
X167070583Y-99449534D01*
X167123571Y-99480127D01*
X167135734Y-99496867D01*
X167159491Y-99538015D01*
X167261985Y-99640509D01*
X167261987Y-99640510D01*
X167261989Y-99640512D01*
X167387511Y-99712982D01*
X167387512Y-99712982D01*
X167387515Y-99712984D01*
X167527525Y-99750500D01*
X167527526Y-99750500D01*
X167672474Y-99750500D01*
X167672475Y-99750500D01*
X167812485Y-99712984D01*
X167812487Y-99712982D01*
X167812489Y-99712982D01*
X167938010Y-99640512D01*
X167938010Y-99640511D01*
X167938015Y-99640509D01*
X168040509Y-99538015D01*
X168112984Y-99412485D01*
X168150500Y-99272475D01*
X168150500Y-99127525D01*
X168112984Y-98987515D01*
X168112982Y-98987512D01*
X168112982Y-98987510D01*
X168040512Y-98861989D01*
X168040510Y-98861987D01*
X168040509Y-98861985D01*
X167938015Y-98759491D01*
X167938012Y-98759489D01*
X167938010Y-98759487D01*
X167812488Y-98687017D01*
X167812489Y-98687017D01*
X167782896Y-98679087D01*
X167672475Y-98649500D01*
X167527525Y-98649500D01*
X167465790Y-98666041D01*
X167387510Y-98687017D01*
X167261989Y-98759487D01*
X167159489Y-98861987D01*
X167135736Y-98903129D01*
X167090266Y-98944069D01*
X167029416Y-98950464D01*
X166976428Y-98919871D01*
X166964264Y-98903129D01*
X166940510Y-98861987D01*
X166940509Y-98861985D01*
X166838015Y-98759491D01*
X166838012Y-98759489D01*
X166838010Y-98759487D01*
X166712488Y-98687017D01*
X166712489Y-98687017D01*
X166682896Y-98679087D01*
X166572475Y-98649500D01*
X166427525Y-98649500D01*
X166365790Y-98666041D01*
X166287510Y-98687017D01*
X166161989Y-98759487D01*
X166161988Y-98759488D01*
X166161985Y-98759490D01*
X166161985Y-98759491D01*
X166070001Y-98851474D01*
X166015487Y-98879250D01*
X165955055Y-98869679D01*
X165929999Y-98851475D01*
X165838015Y-98759491D01*
X165838012Y-98759489D01*
X165838010Y-98759487D01*
X165712488Y-98687017D01*
X165712489Y-98687017D01*
X165682896Y-98679087D01*
X165572475Y-98649500D01*
X165427525Y-98649500D01*
X165365790Y-98666041D01*
X165287510Y-98687017D01*
X165161989Y-98759487D01*
X165059487Y-98861989D01*
X164987017Y-98987510D01*
X164949500Y-99127525D01*
X147585339Y-99127525D01*
X147015123Y-98557309D01*
X146307314Y-97849500D01*
X146307311Y-97849498D01*
X146307310Y-97849497D01*
X146307309Y-97849496D01*
X146193189Y-97783609D01*
X146193191Y-97783609D01*
X146106157Y-97760289D01*
X146065892Y-97749500D01*
X137815892Y-97749500D01*
X137684108Y-97749500D01*
X137643843Y-97760289D01*
X137556809Y-97783609D01*
X137442690Y-97849496D01*
X137349496Y-97942690D01*
X137283609Y-98056809D01*
X137269996Y-98107615D01*
X137249500Y-98184108D01*
X136447969Y-98184108D01*
X143245910Y-91386167D01*
X143245913Y-91386166D01*
X143320480Y-91311599D01*
X143346843Y-91265936D01*
X143373207Y-91220274D01*
X143400501Y-91118413D01*
X143400501Y-91012959D01*
X143400501Y-91006897D01*
X143400500Y-91006879D01*
X143400500Y-84683840D01*
X143413763Y-84634341D01*
X143466392Y-84543186D01*
X143500500Y-84415892D01*
X143500500Y-84284108D01*
X143466392Y-84156814D01*
X143466390Y-84156811D01*
X143466390Y-84156809D01*
X143400503Y-84042690D01*
X143400501Y-84042688D01*
X143400500Y-84042686D01*
X143307314Y-83949500D01*
X143307311Y-83949498D01*
X143307309Y-83949496D01*
X143193189Y-83883609D01*
X143193191Y-83883609D01*
X143128714Y-83866333D01*
X143065892Y-83849500D01*
X142999500Y-83849500D01*
X142941309Y-83830593D01*
X142905345Y-83781093D01*
X142900500Y-83750500D01*
X142900500Y-83583840D01*
X142913763Y-83534341D01*
X142966392Y-83443186D01*
X143000500Y-83315892D01*
X143000500Y-83184108D01*
X142966392Y-83056814D01*
X142957199Y-83040892D01*
X142920380Y-82977119D01*
X142920379Y-82977117D01*
X142900501Y-82942688D01*
X142900500Y-82942686D01*
X142891922Y-82934108D01*
X159249500Y-82934108D01*
X159249500Y-83065892D01*
X159276909Y-83168186D01*
X159283609Y-83193190D01*
X159349496Y-83307309D01*
X159349498Y-83307311D01*
X159349500Y-83307314D01*
X159442686Y-83400500D01*
X159442688Y-83400501D01*
X159442690Y-83400503D01*
X159556810Y-83466390D01*
X159556808Y-83466390D01*
X159556812Y-83466391D01*
X159556814Y-83466392D01*
X159684108Y-83500500D01*
X159684110Y-83500500D01*
X159815890Y-83500500D01*
X159815892Y-83500500D01*
X159943186Y-83466392D01*
X160034341Y-83413763D01*
X160083840Y-83400500D01*
X164044100Y-83400500D01*
X164102291Y-83419407D01*
X164138255Y-83468907D01*
X164138255Y-83530093D01*
X164114103Y-83569502D01*
X164063335Y-83620271D01*
X163952863Y-83730742D01*
X163908484Y-83756364D01*
X163806814Y-83783607D01*
X163806810Y-83783609D01*
X163692690Y-83849496D01*
X163599496Y-83942690D01*
X163533609Y-84056809D01*
X163527530Y-84079496D01*
X163499500Y-84184108D01*
X163499500Y-84315892D01*
X163506366Y-84341516D01*
X163533609Y-84443190D01*
X163599496Y-84557309D01*
X163599498Y-84557311D01*
X163599500Y-84557314D01*
X163692686Y-84650500D01*
X163692688Y-84650501D01*
X163692690Y-84650503D01*
X163806810Y-84716390D01*
X163806808Y-84716390D01*
X163806812Y-84716391D01*
X163806814Y-84716392D01*
X163934108Y-84750500D01*
X163934110Y-84750500D01*
X164065890Y-84750500D01*
X164065892Y-84750500D01*
X164193186Y-84716392D01*
X164193188Y-84716390D01*
X164193190Y-84716390D01*
X164307309Y-84650503D01*
X164307309Y-84650502D01*
X164307314Y-84650500D01*
X164400500Y-84557314D01*
X164466392Y-84443186D01*
X164493634Y-84341514D01*
X164519255Y-84297136D01*
X164736897Y-84079496D01*
X164791413Y-84051719D01*
X164806900Y-84050500D01*
X168193099Y-84050500D01*
X168251290Y-84069407D01*
X168263103Y-84079496D01*
X169901875Y-85718268D01*
X169929652Y-85772785D01*
X169930871Y-85788272D01*
X169930871Y-91716320D01*
X169911964Y-91774511D01*
X169862464Y-91810475D01*
X169851186Y-91813418D01*
X169766501Y-91830263D01*
X169620825Y-91890603D01*
X169620814Y-91890609D01*
X169489711Y-91978211D01*
X169489707Y-91978214D01*
X169378214Y-92089707D01*
X169378211Y-92089711D01*
X169290609Y-92220814D01*
X169290603Y-92220825D01*
X169230263Y-92366501D01*
X169230263Y-92366503D01*
X169199500Y-92521155D01*
X169199500Y-96350500D01*
X169180593Y-96408691D01*
X169131093Y-96444655D01*
X169100500Y-96449500D01*
X167622586Y-96449500D01*
X167564395Y-96430593D01*
X167552582Y-96420504D01*
X166510292Y-95378214D01*
X166510289Y-95378211D01*
X166458059Y-95343312D01*
X166379185Y-95290609D01*
X166379174Y-95290603D01*
X166233497Y-95230263D01*
X166078844Y-95199500D01*
X166078842Y-95199500D01*
X165921158Y-95199500D01*
X165921155Y-95199500D01*
X165766503Y-95230263D01*
X165766501Y-95230263D01*
X165620825Y-95290603D01*
X165620814Y-95290609D01*
X165489711Y-95378211D01*
X165489707Y-95378214D01*
X165378214Y-95489707D01*
X165378211Y-95489711D01*
X165290609Y-95620814D01*
X165290603Y-95620825D01*
X165230263Y-95766501D01*
X165230263Y-95766503D01*
X165199500Y-95921155D01*
X165199500Y-95921158D01*
X165199500Y-96078842D01*
X165225819Y-96211158D01*
X165230263Y-96233496D01*
X165230263Y-96233498D01*
X165290603Y-96379174D01*
X165290609Y-96379185D01*
X165334356Y-96444655D01*
X165378211Y-96510289D01*
X166628211Y-97760289D01*
X166739711Y-97871789D01*
X166817876Y-97924017D01*
X166870814Y-97959390D01*
X166870825Y-97959396D01*
X166924638Y-97981685D01*
X167016503Y-98019737D01*
X167171158Y-98050500D01*
X169100500Y-98050500D01*
X169158691Y-98069407D01*
X169194655Y-98118907D01*
X169199500Y-98149500D01*
X169199500Y-106877414D01*
X169180593Y-106935605D01*
X169170504Y-106947418D01*
X168878214Y-107239707D01*
X168878211Y-107239711D01*
X168790609Y-107370814D01*
X168790603Y-107370825D01*
X168730263Y-107516501D01*
X168730263Y-107516503D01*
X168699500Y-107671155D01*
X168699500Y-110224763D01*
X168680593Y-110282954D01*
X168670504Y-110294767D01*
X168344767Y-110620504D01*
X168290250Y-110648281D01*
X168274763Y-110649500D01*
X167754242Y-110649500D01*
X167665783Y-110660123D01*
X167525009Y-110715637D01*
X167525005Y-110715640D01*
X167404430Y-110807075D01*
X167404424Y-110807081D01*
X167312989Y-110927656D01*
X167312986Y-110927660D01*
X167257472Y-111068434D01*
X167246849Y-111156893D01*
X167246849Y-112343106D01*
X167257472Y-112431565D01*
X167312986Y-112572339D01*
X167312987Y-112572341D01*
X167312988Y-112572342D01*
X167404427Y-112692922D01*
X167525007Y-112784361D01*
X167525008Y-112784361D01*
X167525009Y-112784362D01*
X167595396Y-112812119D01*
X167665785Y-112839877D01*
X167754247Y-112850500D01*
X168385813Y-112850500D01*
X168444004Y-112869407D01*
X168479968Y-112918907D01*
X168479968Y-112980093D01*
X168455817Y-113019504D01*
X163179516Y-118295805D01*
X163126794Y-118387121D01*
X163099500Y-118488988D01*
X163099500Y-119627160D01*
X163080593Y-119685351D01*
X163045445Y-119715370D01*
X162897008Y-119791002D01*
X162848953Y-119825916D01*
X162750499Y-119897447D01*
X162622447Y-120025499D01*
X162618237Y-120031294D01*
X162516002Y-120172008D01*
X162433788Y-120333362D01*
X162377828Y-120505593D01*
X162349500Y-120684450D01*
X162349500Y-121115549D01*
X162377828Y-121294406D01*
X162433788Y-121466637D01*
X162462455Y-121522899D01*
X162472026Y-121583331D01*
X162444249Y-121637847D01*
X162389732Y-121665625D01*
X162329300Y-121656054D01*
X162304241Y-121637848D01*
X162125495Y-121459102D01*
X162097718Y-121404585D01*
X162101345Y-121358504D01*
X162122171Y-121294410D01*
X162150500Y-121115549D01*
X162150500Y-120684450D01*
X162122171Y-120505593D01*
X162122171Y-120505591D01*
X162066211Y-120333361D01*
X161983996Y-120172006D01*
X161877553Y-120025499D01*
X161749501Y-119897447D01*
X161602994Y-119791004D01*
X161602993Y-119791003D01*
X161602991Y-119791002D01*
X161441637Y-119708788D01*
X161269406Y-119652828D01*
X161090549Y-119624500D01*
X161090546Y-119624500D01*
X160909454Y-119624500D01*
X160909451Y-119624500D01*
X160730593Y-119652828D01*
X160558362Y-119708788D01*
X160397008Y-119791002D01*
X160348953Y-119825916D01*
X160250499Y-119897447D01*
X160122447Y-120025499D01*
X160118237Y-120031294D01*
X160016002Y-120172008D01*
X159933788Y-120333362D01*
X159877828Y-120505593D01*
X159849500Y-120684450D01*
X159849500Y-121115549D01*
X159877828Y-121294406D01*
X159877829Y-121294409D01*
X159933789Y-121466639D01*
X160016004Y-121627994D01*
X160122447Y-121774501D01*
X160250499Y-121902553D01*
X160397006Y-122008996D01*
X160558361Y-122091211D01*
X160730591Y-122147171D01*
X160802136Y-122158502D01*
X160909451Y-122175500D01*
X160909454Y-122175500D01*
X161090549Y-122175500D01*
X161179977Y-122161335D01*
X161269409Y-122147171D01*
X161441639Y-122091211D01*
X161498900Y-122062034D01*
X161559328Y-122052463D01*
X161613845Y-122080239D01*
X161613846Y-122080240D01*
X162029086Y-122495479D01*
X162029091Y-122495483D01*
X162120408Y-122548205D01*
X162120406Y-122548205D01*
X162120410Y-122548206D01*
X162120412Y-122548207D01*
X162222273Y-122575500D01*
X162222275Y-122575500D01*
X164029071Y-122575500D01*
X164029073Y-122575500D01*
X164130934Y-122548207D01*
X164130936Y-122548205D01*
X164130938Y-122548205D01*
X164222254Y-122495483D01*
X164222254Y-122495482D01*
X164222259Y-122495480D01*
X165249180Y-121468559D01*
X165254640Y-121459102D01*
X165301905Y-121377238D01*
X165301905Y-121377236D01*
X165301907Y-121377234D01*
X165329200Y-121275373D01*
X165329200Y-121169919D01*
X165329200Y-117885599D01*
X165348107Y-117827408D01*
X165358190Y-117815601D01*
X170145910Y-113027880D01*
X170145913Y-113027879D01*
X170220480Y-112953312D01*
X170273207Y-112861986D01*
X170279131Y-112839877D01*
X170300501Y-112760126D01*
X170300501Y-112654672D01*
X170300501Y-112648610D01*
X170300500Y-112648592D01*
X170300500Y-112306901D01*
X170319407Y-112248710D01*
X170329496Y-112236898D01*
X170607272Y-111959121D01*
X170661789Y-111931343D01*
X170722221Y-111940914D01*
X170765486Y-111984179D01*
X170773539Y-112006004D01*
X170773948Y-112007709D01*
X170827472Y-112172438D01*
X170827474Y-112172441D01*
X170875089Y-112265893D01*
X170906117Y-112326788D01*
X171007935Y-112466928D01*
X171130421Y-112589414D01*
X171270561Y-112691232D01*
X171424904Y-112769873D01*
X171424906Y-112769873D01*
X171424907Y-112769874D01*
X171424910Y-112769876D01*
X171589642Y-112823401D01*
X171589646Y-112823402D01*
X171760735Y-112850500D01*
X171760738Y-112850500D01*
X171933963Y-112850500D01*
X172105051Y-112823402D01*
X172105055Y-112823401D01*
X172269787Y-112769876D01*
X172269789Y-112769874D01*
X172269794Y-112769873D01*
X172424137Y-112691232D01*
X172564277Y-112589414D01*
X172686763Y-112466928D01*
X172788581Y-112326788D01*
X172867222Y-112172445D01*
X172867223Y-112172440D01*
X172867225Y-112172438D01*
X172920750Y-112007706D01*
X172920751Y-112007702D01*
X172947849Y-111836614D01*
X172947849Y-111663385D01*
X172920751Y-111492297D01*
X172920750Y-111492293D01*
X172867225Y-111327561D01*
X172867223Y-111327558D01*
X172867222Y-111327557D01*
X172867222Y-111327555D01*
X172788581Y-111173212D01*
X172686763Y-111033072D01*
X172564277Y-110910586D01*
X172424137Y-110808768D01*
X172424136Y-110808767D01*
X172424134Y-110808766D01*
X172269790Y-110730125D01*
X172269787Y-110730123D01*
X172105055Y-110676598D01*
X172105051Y-110676597D01*
X171933963Y-110649500D01*
X171933960Y-110649500D01*
X171760738Y-110649500D01*
X171760735Y-110649500D01*
X171589646Y-110676597D01*
X171589642Y-110676598D01*
X171424910Y-110730123D01*
X171424907Y-110730125D01*
X171270562Y-110808767D01*
X171270561Y-110808768D01*
X171257690Y-110818119D01*
X171199500Y-110837026D01*
X171141309Y-110818119D01*
X171105345Y-110768619D01*
X171100500Y-110738026D01*
X171100500Y-108456900D01*
X171119407Y-108398709D01*
X171129490Y-108386902D01*
X171570480Y-107945913D01*
X171601105Y-107892867D01*
X171623169Y-107854653D01*
X171623179Y-107854634D01*
X171623206Y-107854588D01*
X171623207Y-107854587D01*
X171650500Y-107752727D01*
X171650500Y-91947273D01*
X171623207Y-91845413D01*
X171607841Y-91818799D01*
X171570480Y-91754087D01*
X171519256Y-91702862D01*
X171493633Y-91658482D01*
X171466392Y-91556814D01*
X171413762Y-91465657D01*
X171400500Y-91416159D01*
X171400500Y-85447274D01*
X171400500Y-85447273D01*
X171373207Y-85345413D01*
X171373207Y-85345412D01*
X171373207Y-85345411D01*
X171320483Y-85254091D01*
X171320482Y-85254090D01*
X171320481Y-85254089D01*
X171320480Y-85254087D01*
X169932726Y-83866333D01*
X169904949Y-83811816D01*
X169914520Y-83751384D01*
X169953227Y-83710594D01*
X170057314Y-83650500D01*
X170150500Y-83557314D01*
X170216392Y-83443186D01*
X170250500Y-83315892D01*
X170250500Y-83184108D01*
X170216392Y-83056814D01*
X170216390Y-83056811D01*
X170216390Y-83056809D01*
X170150503Y-82942690D01*
X170150501Y-82942688D01*
X170150500Y-82942686D01*
X170057314Y-82849500D01*
X170057311Y-82849498D01*
X170057309Y-82849496D01*
X169943189Y-82783609D01*
X169943185Y-82783607D01*
X169841515Y-82756364D01*
X169797136Y-82730742D01*
X169745914Y-82679520D01*
X169745908Y-82679516D01*
X169654591Y-82626794D01*
X169654593Y-82626794D01*
X169615070Y-82616204D01*
X169552727Y-82599500D01*
X169552725Y-82599500D01*
X160083840Y-82599500D01*
X160034341Y-82586236D01*
X159943186Y-82533608D01*
X159815892Y-82499500D01*
X159684108Y-82499500D01*
X159606200Y-82520375D01*
X159556809Y-82533609D01*
X159442690Y-82599496D01*
X159349496Y-82692690D01*
X159283609Y-82806809D01*
X159272170Y-82849500D01*
X159249500Y-82934108D01*
X142891922Y-82934108D01*
X142807314Y-82849500D01*
X142807311Y-82849498D01*
X142807309Y-82849496D01*
X142693189Y-82783609D01*
X142693191Y-82783609D01*
X142643799Y-82770375D01*
X142565892Y-82749500D01*
X142555900Y-82749500D01*
X142497709Y-82730593D01*
X142461745Y-82681093D01*
X142461745Y-82619907D01*
X142485896Y-82580497D01*
X142547134Y-82519258D01*
X142591513Y-82493634D01*
X142693186Y-82466392D01*
X142693188Y-82466390D01*
X142693190Y-82466390D01*
X142807309Y-82400503D01*
X142807309Y-82400502D01*
X142807314Y-82400500D01*
X142900500Y-82307314D01*
X142900503Y-82307309D01*
X142966390Y-82193190D01*
X142966390Y-82193188D01*
X142966392Y-82193186D01*
X143000500Y-82065892D01*
X143000500Y-81934108D01*
X142966392Y-81806814D01*
X142966390Y-81806810D01*
X142966390Y-81806809D01*
X142900503Y-81692690D01*
X142900501Y-81692688D01*
X142900500Y-81692686D01*
X142807314Y-81599500D01*
X142807311Y-81599498D01*
X142807309Y-81599496D01*
X142693189Y-81533609D01*
X142693191Y-81533609D01*
X142643799Y-81520375D01*
X142565892Y-81499500D01*
X142434108Y-81499500D01*
X142356200Y-81520375D01*
X142306809Y-81533609D01*
X142192690Y-81599496D01*
X142099496Y-81692690D01*
X142033609Y-81806810D01*
X142033607Y-81806814D01*
X142006364Y-81908484D01*
X141980742Y-81952863D01*
X141679520Y-82254086D01*
X141679516Y-82254091D01*
X141626793Y-82345411D01*
X141626792Y-82345411D01*
X141626793Y-82345412D01*
X141599500Y-82447273D01*
X141599500Y-90543098D01*
X141580593Y-90601289D01*
X141570504Y-90613102D01*
X130952862Y-101230743D01*
X130908482Y-101256365D01*
X130806814Y-101283607D01*
X130806810Y-101283609D01*
X130692690Y-101349496D01*
X130599496Y-101442690D01*
X130533609Y-101556809D01*
X130533608Y-101556814D01*
X130499500Y-101684108D01*
X125500500Y-101684108D01*
X125500500Y-96211155D01*
X126899500Y-96211155D01*
X126899500Y-96368844D01*
X126930263Y-96523496D01*
X126930263Y-96523498D01*
X126990603Y-96669174D01*
X126990609Y-96669185D01*
X127043312Y-96748059D01*
X127078211Y-96800289D01*
X127189711Y-96911789D01*
X127267876Y-96964017D01*
X127320814Y-96999390D01*
X127320825Y-96999396D01*
X127374638Y-97021685D01*
X127466503Y-97059737D01*
X127621158Y-97090500D01*
X127621159Y-97090500D01*
X128378841Y-97090500D01*
X128378842Y-97090500D01*
X128533497Y-97059737D01*
X128679179Y-96999394D01*
X128695496Y-96988490D01*
X128754384Y-96971881D01*
X128811788Y-96993057D01*
X128845782Y-97043930D01*
X128849500Y-97070805D01*
X128849500Y-97166159D01*
X128836236Y-97215659D01*
X128783609Y-97306809D01*
X128783608Y-97306814D01*
X128749500Y-97434108D01*
X128749500Y-97565892D01*
X128779579Y-97678151D01*
X128783609Y-97693190D01*
X128849496Y-97807309D01*
X128849498Y-97807311D01*
X128849500Y-97807314D01*
X128942686Y-97900500D01*
X128942688Y-97900501D01*
X128942690Y-97900503D01*
X129056810Y-97966390D01*
X129056808Y-97966390D01*
X129056812Y-97966391D01*
X129056814Y-97966392D01*
X129184108Y-98000500D01*
X129184110Y-98000500D01*
X129315890Y-98000500D01*
X129315892Y-98000500D01*
X129443186Y-97966392D01*
X129443188Y-97966390D01*
X129443190Y-97966390D01*
X129557309Y-97900503D01*
X129557309Y-97900502D01*
X129557314Y-97900500D01*
X129650500Y-97807314D01*
X129716392Y-97693186D01*
X129750500Y-97565892D01*
X129750500Y-97434108D01*
X129716392Y-97306814D01*
X129716390Y-97306811D01*
X129716390Y-97306809D01*
X129663764Y-97215659D01*
X129650500Y-97166159D01*
X129650500Y-94297616D01*
X129669407Y-94239425D01*
X129718907Y-94203461D01*
X129779009Y-94203116D01*
X129789485Y-94206387D01*
X129806814Y-94216392D01*
X129910455Y-94244161D01*
X129912368Y-94244759D01*
X129920843Y-94250768D01*
X129952863Y-94269255D01*
X130070504Y-94386896D01*
X130098281Y-94441413D01*
X130099500Y-94456900D01*
X130099500Y-97166159D01*
X130086236Y-97215659D01*
X130033609Y-97306809D01*
X130033608Y-97306814D01*
X129999500Y-97434108D01*
X129999500Y-97565892D01*
X130029579Y-97678151D01*
X130033609Y-97693190D01*
X130099496Y-97807309D01*
X130099498Y-97807311D01*
X130099500Y-97807314D01*
X130192686Y-97900500D01*
X130192688Y-97900501D01*
X130192690Y-97900503D01*
X130306810Y-97966390D01*
X130306808Y-97966390D01*
X130306812Y-97966391D01*
X130306814Y-97966392D01*
X130434108Y-98000500D01*
X130434110Y-98000500D01*
X130565890Y-98000500D01*
X130565892Y-98000500D01*
X130693186Y-97966392D01*
X130693188Y-97966390D01*
X130693190Y-97966390D01*
X130807309Y-97900503D01*
X130807309Y-97900502D01*
X130807314Y-97900500D01*
X130900500Y-97807314D01*
X130966392Y-97693186D01*
X131000500Y-97565892D01*
X131000500Y-97434108D01*
X130966392Y-97306814D01*
X130966390Y-97306811D01*
X130966390Y-97306809D01*
X130913764Y-97215659D01*
X130900500Y-97166159D01*
X130900500Y-96931586D01*
X130919407Y-96873395D01*
X130968907Y-96837431D01*
X131030093Y-96837431D01*
X131069504Y-96861582D01*
X131119711Y-96911789D01*
X131197876Y-96964017D01*
X131250814Y-96999390D01*
X131250825Y-96999396D01*
X131304638Y-97021685D01*
X131396503Y-97059737D01*
X131551158Y-97090500D01*
X131551159Y-97090500D01*
X132808841Y-97090500D01*
X132808842Y-97090500D01*
X132963497Y-97059737D01*
X133109179Y-96999394D01*
X133240289Y-96911789D01*
X133351789Y-96800289D01*
X133439394Y-96669179D01*
X133499737Y-96523497D01*
X133530500Y-96368842D01*
X133530500Y-96211158D01*
X133499737Y-96056503D01*
X133443676Y-95921158D01*
X133439396Y-95910825D01*
X133439390Y-95910814D01*
X133404017Y-95857876D01*
X133351789Y-95779711D01*
X133240289Y-95668211D01*
X133169365Y-95620821D01*
X133109185Y-95580609D01*
X133109174Y-95580603D01*
X132963497Y-95520263D01*
X132808844Y-95489500D01*
X132808842Y-95489500D01*
X132073387Y-95489500D01*
X132015196Y-95470593D01*
X131979232Y-95421093D01*
X131979232Y-95359907D01*
X132003381Y-95320498D01*
X132110515Y-95213365D01*
X132186281Y-95082135D01*
X132225500Y-94935766D01*
X132225500Y-94784234D01*
X132186281Y-94637865D01*
X132186279Y-94637862D01*
X132186279Y-94637860D01*
X132110518Y-94506639D01*
X132110516Y-94506637D01*
X132110515Y-94506635D01*
X132003365Y-94399485D01*
X132003362Y-94399483D01*
X132003360Y-94399481D01*
X131872138Y-94323720D01*
X131872140Y-94323720D01*
X131815347Y-94308503D01*
X131725766Y-94284500D01*
X131574234Y-94284500D01*
X131484652Y-94308503D01*
X131427860Y-94323720D01*
X131296639Y-94399481D01*
X131189481Y-94506639D01*
X131113720Y-94637860D01*
X131095127Y-94707253D01*
X131061803Y-94758567D01*
X131004681Y-94780494D01*
X130945581Y-94764658D01*
X130907076Y-94717108D01*
X130900500Y-94681630D01*
X130900500Y-94197274D01*
X130900500Y-94197273D01*
X130873207Y-94095413D01*
X130873207Y-94095412D01*
X130846843Y-94049750D01*
X130820480Y-94004087D01*
X130745913Y-93929520D01*
X130745910Y-93929518D01*
X130519255Y-93702863D01*
X130493633Y-93658483D01*
X130466392Y-93556814D01*
X130400500Y-93442686D01*
X130307314Y-93349500D01*
X130307311Y-93349498D01*
X130307309Y-93349496D01*
X130193189Y-93283609D01*
X130193191Y-93283609D01*
X130143799Y-93270375D01*
X130065892Y-93249500D01*
X129934108Y-93249500D01*
X129856200Y-93270375D01*
X129806809Y-93283609D01*
X129798997Y-93288120D01*
X129739149Y-93300839D01*
X129683254Y-93275951D01*
X129652663Y-93222962D01*
X129650500Y-93202382D01*
X129650500Y-91684108D01*
X130969500Y-91684108D01*
X130969500Y-91815892D01*
X130989520Y-91890609D01*
X131003609Y-91943190D01*
X131069496Y-92057309D01*
X131069498Y-92057311D01*
X131069500Y-92057314D01*
X131162686Y-92150500D01*
X131276814Y-92216392D01*
X131378482Y-92243633D01*
X131422863Y-92269256D01*
X132014990Y-92861383D01*
X132014989Y-92861383D01*
X132076944Y-92923337D01*
X132089557Y-92935950D01*
X132180883Y-92988677D01*
X132282743Y-93015970D01*
X133990449Y-93015970D01*
X134048640Y-93034877D01*
X134084604Y-93084377D01*
X134086075Y-93140591D01*
X134083668Y-93149578D01*
X134083668Y-93281362D01*
X134113229Y-93391686D01*
X134117777Y-93408660D01*
X134183664Y-93522779D01*
X134183666Y-93522781D01*
X134183668Y-93522784D01*
X134276854Y-93615970D01*
X134276856Y-93615971D01*
X134276858Y-93615973D01*
X134390978Y-93681860D01*
X134390976Y-93681860D01*
X134390980Y-93681861D01*
X134390982Y-93681862D01*
X134518276Y-93715970D01*
X134518278Y-93715970D01*
X134650058Y-93715970D01*
X134650060Y-93715970D01*
X134777354Y-93681862D01*
X134868509Y-93629233D01*
X134918008Y-93615970D01*
X135175758Y-93615970D01*
X135175760Y-93615970D01*
X135277621Y-93588677D01*
X135277623Y-93588675D01*
X135277625Y-93588675D01*
X135368941Y-93535953D01*
X135368941Y-93535952D01*
X135368946Y-93535950D01*
X135981556Y-92923338D01*
X135981559Y-92923337D01*
X136056126Y-92848770D01*
X136108853Y-92757444D01*
X136120234Y-92714970D01*
X136136147Y-92655584D01*
X136136147Y-92550130D01*
X136136146Y-92550126D01*
X136136146Y-90602919D01*
X136123792Y-90556814D01*
X136108853Y-90501058D01*
X136108850Y-90501052D01*
X136056129Y-90409737D01*
X136056128Y-90409736D01*
X136056127Y-90409735D01*
X136056126Y-90409733D01*
X135119256Y-89472863D01*
X135093633Y-89428482D01*
X135066392Y-89326814D01*
X135000500Y-89212686D01*
X134907314Y-89119500D01*
X134907311Y-89119498D01*
X134907309Y-89119496D01*
X134793189Y-89053609D01*
X134793191Y-89053609D01*
X134743799Y-89040375D01*
X134665892Y-89019500D01*
X134534108Y-89019500D01*
X134456200Y-89040375D01*
X134406809Y-89053609D01*
X134292690Y-89119496D01*
X134199496Y-89212690D01*
X134133609Y-89326809D01*
X134133608Y-89326814D01*
X134099500Y-89454108D01*
X134099500Y-89585892D01*
X134107642Y-89616279D01*
X134133609Y-89713190D01*
X134199496Y-89827309D01*
X134199498Y-89827311D01*
X134199500Y-89827314D01*
X134292686Y-89920500D01*
X134406814Y-89986392D01*
X134508482Y-90013633D01*
X134552863Y-90039256D01*
X135306150Y-90792543D01*
X135333927Y-90847060D01*
X135335146Y-90862547D01*
X135335146Y-91760608D01*
X135316239Y-91818799D01*
X135266739Y-91854763D01*
X135210529Y-91856236D01*
X135201542Y-91853828D01*
X135201538Y-91853828D01*
X135069754Y-91853828D01*
X134991846Y-91874703D01*
X134942455Y-91887937D01*
X134828336Y-91953824D01*
X134735142Y-92047018D01*
X134666754Y-92165470D01*
X134621285Y-92206411D01*
X134581018Y-92214970D01*
X132542371Y-92214970D01*
X132484180Y-92196063D01*
X132472367Y-92185974D01*
X131989256Y-91702863D01*
X131963633Y-91658482D01*
X131936392Y-91556814D01*
X131870500Y-91442686D01*
X131777314Y-91349500D01*
X131777311Y-91349498D01*
X131777309Y-91349496D01*
X131663189Y-91283609D01*
X131663191Y-91283609D01*
X131613799Y-91270375D01*
X131535892Y-91249500D01*
X131404108Y-91249500D01*
X131326200Y-91270375D01*
X131276809Y-91283609D01*
X131162690Y-91349496D01*
X131069496Y-91442690D01*
X131003609Y-91556809D01*
X131003608Y-91556814D01*
X130969500Y-91684108D01*
X129650500Y-91684108D01*
X129650500Y-91456900D01*
X129669407Y-91398709D01*
X129679496Y-91386897D01*
X129797134Y-91269258D01*
X129841513Y-91243634D01*
X129943186Y-91216392D01*
X129943188Y-91216390D01*
X129943190Y-91216390D01*
X130057309Y-91150503D01*
X130057309Y-91150502D01*
X130057314Y-91150500D01*
X130150500Y-91057314D01*
X130150503Y-91057309D01*
X130216390Y-90943190D01*
X130216390Y-90943188D01*
X130216392Y-90943186D01*
X130250500Y-90815892D01*
X130250500Y-90684108D01*
X130216392Y-90556814D01*
X130216390Y-90556810D01*
X130216390Y-90556809D01*
X130150503Y-90442690D01*
X130150501Y-90442688D01*
X130150500Y-90442686D01*
X130057314Y-90349500D01*
X130057311Y-90349498D01*
X130057309Y-90349496D01*
X129943189Y-90283609D01*
X129943191Y-90283609D01*
X129893799Y-90270375D01*
X129815892Y-90249500D01*
X129684108Y-90249500D01*
X129606200Y-90270375D01*
X129556809Y-90283609D01*
X129442690Y-90349496D01*
X129349496Y-90442690D01*
X129283609Y-90556810D01*
X129283608Y-90556813D01*
X129256364Y-90658484D01*
X129230742Y-90702863D01*
X128929520Y-91004086D01*
X128929516Y-91004091D01*
X128876793Y-91095411D01*
X128876792Y-91095411D01*
X128876793Y-91095412D01*
X128849500Y-91197273D01*
X128849500Y-95509194D01*
X128830593Y-95567385D01*
X128781093Y-95603349D01*
X128719907Y-95603349D01*
X128695499Y-95591510D01*
X128679184Y-95580608D01*
X128679174Y-95580603D01*
X128533497Y-95520263D01*
X128378844Y-95489500D01*
X128378842Y-95489500D01*
X127621158Y-95489500D01*
X127621155Y-95489500D01*
X127466503Y-95520263D01*
X127466501Y-95520263D01*
X127320825Y-95580603D01*
X127320814Y-95580609D01*
X127189711Y-95668211D01*
X127189707Y-95668214D01*
X127078214Y-95779707D01*
X127078211Y-95779711D01*
X126990609Y-95910814D01*
X126990603Y-95910825D01*
X126930263Y-96056501D01*
X126930263Y-96056503D01*
X126899500Y-96211155D01*
X125500500Y-96211155D01*
X125500500Y-87571155D01*
X126899500Y-87571155D01*
X126899500Y-87728844D01*
X126930263Y-87883496D01*
X126930263Y-87883498D01*
X126990603Y-88029174D01*
X126990609Y-88029185D01*
X127032257Y-88091514D01*
X127078211Y-88160289D01*
X127189711Y-88271789D01*
X127242878Y-88307314D01*
X127320814Y-88359390D01*
X127320825Y-88359396D01*
X127374638Y-88381685D01*
X127466503Y-88419737D01*
X127621158Y-88450500D01*
X127621159Y-88450500D01*
X128378841Y-88450500D01*
X128378842Y-88450500D01*
X128533497Y-88419737D01*
X128679179Y-88359394D01*
X128810289Y-88271789D01*
X128921789Y-88160289D01*
X129009394Y-88029179D01*
X129069737Y-87883497D01*
X129100500Y-87728842D01*
X129100500Y-87571158D01*
X129069737Y-87416503D01*
X129032411Y-87326389D01*
X129009396Y-87270825D01*
X129009390Y-87270814D01*
X128974017Y-87217876D01*
X128921789Y-87139711D01*
X128810289Y-87028211D01*
X128746579Y-86985641D01*
X128679185Y-86940609D01*
X128679174Y-86940603D01*
X128533497Y-86880263D01*
X128378844Y-86849500D01*
X128378842Y-86849500D01*
X127621158Y-86849500D01*
X127621155Y-86849500D01*
X127466503Y-86880263D01*
X127466501Y-86880263D01*
X127320825Y-86940603D01*
X127320814Y-86940609D01*
X127189711Y-87028211D01*
X127189707Y-87028214D01*
X127078214Y-87139707D01*
X127078211Y-87139711D01*
X126990609Y-87270814D01*
X126990603Y-87270825D01*
X126930263Y-87416501D01*
X126930263Y-87416503D01*
X126899500Y-87571155D01*
X125500500Y-87571155D01*
X125500500Y-82909108D01*
X128174500Y-82909108D01*
X128174500Y-83040892D01*
X128181199Y-83065892D01*
X128208609Y-83168190D01*
X128274496Y-83282309D01*
X128274498Y-83282311D01*
X128274500Y-83282314D01*
X128367686Y-83375500D01*
X128481814Y-83441392D01*
X128583482Y-83468633D01*
X128627863Y-83494256D01*
X130853198Y-85719590D01*
X130880975Y-85774107D01*
X130871404Y-85834539D01*
X130853198Y-85859597D01*
X130819141Y-85893654D01*
X130819136Y-85893660D01*
X130753249Y-86007779D01*
X130753248Y-86007784D01*
X130719140Y-86135078D01*
X130719140Y-86266862D01*
X130749219Y-86379121D01*
X130753249Y-86394160D01*
X130819136Y-86508279D01*
X130819138Y-86508281D01*
X130819140Y-86508284D01*
X130912326Y-86601470D01*
X131026454Y-86667362D01*
X131026456Y-86667362D01*
X131029379Y-86669050D01*
X131049883Y-86684783D01*
X131198422Y-86833322D01*
X131226199Y-86887839D01*
X131216628Y-86948271D01*
X131183421Y-86985641D01*
X131119707Y-87028214D01*
X131008214Y-87139707D01*
X131008211Y-87139711D01*
X130920609Y-87270814D01*
X130920603Y-87270825D01*
X130860263Y-87416501D01*
X130860263Y-87416503D01*
X130829500Y-87571155D01*
X130829500Y-87728844D01*
X130860263Y-87883496D01*
X130860263Y-87883498D01*
X130920603Y-88029174D01*
X130920609Y-88029185D01*
X130962257Y-88091514D01*
X131008211Y-88160289D01*
X131119711Y-88271789D01*
X131172878Y-88307314D01*
X131250814Y-88359390D01*
X131250825Y-88359396D01*
X131332739Y-88393325D01*
X131350060Y-88400500D01*
X131354329Y-88402268D01*
X131400855Y-88442004D01*
X131415139Y-88501499D01*
X131391725Y-88558027D01*
X131365945Y-88579468D01*
X131296637Y-88619483D01*
X131189481Y-88726639D01*
X131113720Y-88857860D01*
X131113719Y-88857865D01*
X131074500Y-89004234D01*
X131074500Y-89155766D01*
X131089752Y-89212687D01*
X131113720Y-89302139D01*
X131189481Y-89433360D01*
X131189483Y-89433362D01*
X131189485Y-89433365D01*
X131296635Y-89540515D01*
X131296637Y-89540516D01*
X131296639Y-89540518D01*
X131427861Y-89616279D01*
X131427859Y-89616279D01*
X131427863Y-89616280D01*
X131427865Y-89616281D01*
X131574234Y-89655500D01*
X131574236Y-89655500D01*
X131725764Y-89655500D01*
X131725766Y-89655500D01*
X131872135Y-89616281D01*
X131872137Y-89616279D01*
X131872139Y-89616279D01*
X132003360Y-89540518D01*
X132003360Y-89540517D01*
X132003365Y-89540515D01*
X132110515Y-89433365D01*
X132172033Y-89326813D01*
X132186279Y-89302139D01*
X132186279Y-89302137D01*
X132186281Y-89302135D01*
X132225500Y-89155766D01*
X132225500Y-89004234D01*
X132186281Y-88857865D01*
X132186279Y-88857862D01*
X132186279Y-88857860D01*
X132110518Y-88726639D01*
X132110516Y-88726637D01*
X132110515Y-88726635D01*
X132003381Y-88619501D01*
X131975606Y-88564987D01*
X131985177Y-88504555D01*
X132028442Y-88461290D01*
X132073387Y-88450500D01*
X132808841Y-88450500D01*
X132808842Y-88450500D01*
X132963497Y-88419737D01*
X133109179Y-88359394D01*
X133240289Y-88271789D01*
X133351789Y-88160289D01*
X133439394Y-88029179D01*
X133499737Y-87883497D01*
X133530500Y-87728842D01*
X133530500Y-87571158D01*
X133499737Y-87416503D01*
X133487675Y-87387384D01*
X133482875Y-87326389D01*
X133514845Y-87274220D01*
X133571373Y-87250805D01*
X133579140Y-87250500D01*
X133843099Y-87250500D01*
X133901290Y-87269407D01*
X133913103Y-87279496D01*
X134680742Y-88047134D01*
X134706364Y-88091514D01*
X134733607Y-88193185D01*
X134733609Y-88193189D01*
X134799496Y-88307309D01*
X134799498Y-88307311D01*
X134799500Y-88307314D01*
X134892686Y-88400500D01*
X134892688Y-88400501D01*
X134892690Y-88400503D01*
X135006810Y-88466390D01*
X135006808Y-88466390D01*
X135006812Y-88466391D01*
X135006814Y-88466392D01*
X135134108Y-88500500D01*
X135134110Y-88500500D01*
X135265890Y-88500500D01*
X135265892Y-88500500D01*
X135393186Y-88466392D01*
X135393188Y-88466390D01*
X135393190Y-88466390D01*
X135507309Y-88400503D01*
X135507309Y-88400502D01*
X135507314Y-88400500D01*
X135600500Y-88307314D01*
X135600503Y-88307309D01*
X135666390Y-88193190D01*
X135666390Y-88193188D01*
X135666392Y-88193186D01*
X135700500Y-88065892D01*
X135700500Y-87934108D01*
X135666392Y-87806814D01*
X135666390Y-87806811D01*
X135666390Y-87806809D01*
X135600503Y-87692690D01*
X135600501Y-87692688D01*
X135600500Y-87692686D01*
X135507314Y-87599500D01*
X135507311Y-87599498D01*
X135507309Y-87599496D01*
X135393189Y-87533609D01*
X135393185Y-87533607D01*
X135291514Y-87506364D01*
X135247134Y-87480742D01*
X134735897Y-86969504D01*
X134708120Y-86914987D01*
X134717691Y-86854555D01*
X134760956Y-86811290D01*
X134805901Y-86800500D01*
X135052725Y-86800500D01*
X135052727Y-86800500D01*
X135154588Y-86773207D01*
X135154590Y-86773205D01*
X135154592Y-86773205D01*
X135245907Y-86720484D01*
X135245907Y-86720483D01*
X135245913Y-86720480D01*
X135247128Y-86719264D01*
X135248616Y-86718404D01*
X135251063Y-86716528D01*
X135251309Y-86716849D01*
X135291514Y-86693633D01*
X135393186Y-86666392D01*
X135507314Y-86600500D01*
X135600500Y-86507314D01*
X135666392Y-86393186D01*
X135700500Y-86265892D01*
X135700500Y-86134108D01*
X135666392Y-86006814D01*
X135666390Y-86006811D01*
X135666390Y-86006809D01*
X135600503Y-85892690D01*
X135600501Y-85892688D01*
X135600500Y-85892686D01*
X135507314Y-85799500D01*
X135507311Y-85799498D01*
X135507309Y-85799496D01*
X135393189Y-85733609D01*
X135393191Y-85733609D01*
X135335936Y-85718268D01*
X135265892Y-85699500D01*
X135134108Y-85699500D01*
X135064064Y-85718268D01*
X135006809Y-85733609D01*
X134892690Y-85799496D01*
X134799499Y-85892687D01*
X134766409Y-85950001D01*
X134720939Y-85990941D01*
X134680673Y-85999500D01*
X132269749Y-85999500D01*
X132211558Y-85980593D01*
X132190782Y-85960210D01*
X132187082Y-85955317D01*
X132170614Y-85926793D01*
X132139780Y-85873387D01*
X132079711Y-85813318D01*
X132075584Y-85807860D01*
X132074708Y-85805331D01*
X132068815Y-85797651D01*
X132054458Y-85772785D01*
X132040120Y-85747950D01*
X131672660Y-85380490D01*
X131622955Y-85351792D01*
X131602452Y-85336060D01*
X129194256Y-82927863D01*
X129168633Y-82883482D01*
X129159527Y-82849496D01*
X129141392Y-82781814D01*
X129075500Y-82667686D01*
X128982314Y-82574500D01*
X128982311Y-82574498D01*
X128982309Y-82574496D01*
X128868189Y-82508609D01*
X128868191Y-82508609D01*
X128812302Y-82493634D01*
X128740892Y-82474500D01*
X128609108Y-82474500D01*
X128537698Y-82493634D01*
X128481809Y-82508609D01*
X128367690Y-82574496D01*
X128274496Y-82667690D01*
X128208609Y-82781809D01*
X128201909Y-82806814D01*
X128174500Y-82909108D01*
X125500500Y-82909108D01*
X125500500Y-80684108D01*
X164274500Y-80684108D01*
X164274500Y-80815892D01*
X164304579Y-80928151D01*
X164308609Y-80943190D01*
X164374496Y-81057309D01*
X164374498Y-81057311D01*
X164374500Y-81057314D01*
X164467686Y-81150500D01*
X164467688Y-81150501D01*
X164467690Y-81150503D01*
X164581810Y-81216390D01*
X164581808Y-81216390D01*
X164581812Y-81216391D01*
X164581814Y-81216392D01*
X164709108Y-81250500D01*
X164709110Y-81250500D01*
X164840890Y-81250500D01*
X164840892Y-81250500D01*
X164968186Y-81216392D01*
X165059341Y-81163763D01*
X165108840Y-81150500D01*
X170802725Y-81150500D01*
X170802727Y-81150500D01*
X170904588Y-81123207D01*
X170904590Y-81123205D01*
X170904592Y-81123205D01*
X170995908Y-81070483D01*
X170995908Y-81070482D01*
X170995913Y-81070480D01*
X171297135Y-80769256D01*
X171341511Y-80743635D01*
X171443186Y-80716392D01*
X171443188Y-80716390D01*
X171443190Y-80716390D01*
X171557309Y-80650503D01*
X171557309Y-80650502D01*
X171557314Y-80650500D01*
X171650500Y-80557314D01*
X171716392Y-80443186D01*
X171750500Y-80315892D01*
X171750500Y-80184108D01*
X171716392Y-80056814D01*
X171716390Y-80056811D01*
X171716390Y-80056809D01*
X171650503Y-79942690D01*
X171650501Y-79942688D01*
X171650500Y-79942686D01*
X171557314Y-79849500D01*
X171557311Y-79849498D01*
X171557309Y-79849496D01*
X171443189Y-79783609D01*
X171443191Y-79783609D01*
X171393799Y-79770375D01*
X171315892Y-79749500D01*
X171184108Y-79749500D01*
X171106200Y-79770375D01*
X171056809Y-79783609D01*
X170942690Y-79849496D01*
X170849496Y-79942690D01*
X170783610Y-80056808D01*
X170756366Y-80158483D01*
X170730743Y-80202862D01*
X170613103Y-80320503D01*
X170558586Y-80348281D01*
X170543099Y-80349500D01*
X165108840Y-80349500D01*
X165059341Y-80336236D01*
X164968186Y-80283608D01*
X164840892Y-80249500D01*
X164709108Y-80249500D01*
X164631200Y-80270375D01*
X164581809Y-80283609D01*
X164467690Y-80349496D01*
X164374496Y-80442690D01*
X164308609Y-80556809D01*
X164308608Y-80556814D01*
X164274500Y-80684108D01*
X125500500Y-80684108D01*
X125500500Y-78920943D01*
X159399500Y-78920943D01*
X159399500Y-79079057D01*
X159440423Y-79231784D01*
X159519480Y-79368716D01*
X159631284Y-79480520D01*
X159768216Y-79559577D01*
X159920943Y-79600500D01*
X159920945Y-79600500D01*
X160079055Y-79600500D01*
X160079057Y-79600500D01*
X160231784Y-79559577D01*
X160368716Y-79480520D01*
X160394229Y-79455006D01*
X160419741Y-79429496D01*
X160474258Y-79401719D01*
X160489744Y-79400500D01*
X167827725Y-79400500D01*
X167827727Y-79400500D01*
X167929588Y-79373207D01*
X167929590Y-79373205D01*
X167929592Y-79373205D01*
X167945945Y-79363764D01*
X167995445Y-79350500D01*
X168104055Y-79350500D01*
X168104057Y-79350500D01*
X168256784Y-79309577D01*
X168393716Y-79230520D01*
X168505520Y-79118716D01*
X168584577Y-78981784D01*
X168625500Y-78829057D01*
X168625500Y-78670943D01*
X168584577Y-78518216D01*
X168505520Y-78381284D01*
X168393716Y-78269480D01*
X168256784Y-78190423D01*
X168104057Y-78149500D01*
X167945943Y-78149500D01*
X167793216Y-78190423D01*
X167656284Y-78269480D01*
X167544480Y-78381284D01*
X167465422Y-78518217D01*
X167463305Y-78526122D01*
X167429982Y-78577437D01*
X167372860Y-78599364D01*
X167367678Y-78599500D01*
X160489744Y-78599500D01*
X160431553Y-78580593D01*
X160419741Y-78570504D01*
X160368718Y-78519482D01*
X160368716Y-78519480D01*
X160231784Y-78440423D01*
X160079057Y-78399500D01*
X159920943Y-78399500D01*
X159768216Y-78440423D01*
X159631284Y-78519480D01*
X159519480Y-78631284D01*
X159440423Y-78768216D01*
X159399500Y-78920943D01*
X125500500Y-78920943D01*
X125500500Y-75735907D01*
X125519407Y-75677716D01*
X125568907Y-75641752D01*
X125630093Y-75641752D01*
X125679593Y-75677716D01*
X125688694Y-75692949D01*
X125709381Y-75735907D01*
X125825916Y-75977895D01*
X125825920Y-75977902D01*
X125825924Y-75977910D01*
X126008211Y-76268018D01*
X126221834Y-76535893D01*
X126464107Y-76778166D01*
X126731982Y-76991789D01*
X127022090Y-77174076D01*
X127022101Y-77174081D01*
X127022104Y-77174083D01*
X127109956Y-77216390D01*
X127330785Y-77322736D01*
X127481753Y-77375561D01*
X127654179Y-77435896D01*
X127654182Y-77435896D01*
X127654183Y-77435897D01*
X127988217Y-77512139D01*
X128328688Y-77550500D01*
X128328689Y-77550500D01*
X128671311Y-77550500D01*
X128671312Y-77550500D01*
X129011783Y-77512139D01*
X129345817Y-77435897D01*
X129669215Y-77322736D01*
X129977910Y-77174076D01*
X130268018Y-76991789D01*
X130535893Y-76778166D01*
X130778166Y-76535893D01*
X130991789Y-76268018D01*
X131174076Y-75977910D01*
X131322736Y-75669215D01*
X131435897Y-75345817D01*
X131512139Y-75011783D01*
X131550500Y-74671312D01*
X131550500Y-74328688D01*
X131512139Y-73988217D01*
X131435897Y-73654183D01*
X131322736Y-73330785D01*
X131174076Y-73022090D01*
X130991789Y-72731982D01*
X130778166Y-72464107D01*
X130535893Y-72221834D01*
X130268018Y-72008211D01*
X129977910Y-71825924D01*
X129692952Y-71688695D01*
X129648729Y-71646413D01*
X129637804Y-71586211D01*
X129664351Y-71531085D01*
X129718231Y-71502091D01*
X129735908Y-71500500D01*
X134684108Y-71500500D01*
X135001678Y-71500500D01*
X135059869Y-71519407D01*
G37*
%TD.AperFunction*%
%TD*%
M02*
