M48
; DRILL file KiCad 10.0.0 date 2026-07-10T03:55:22
; FORMAT={-:-/ absolute / inch / decimal}
; #@! TF.CreationDate,2026-07-10T03:55:22+10:00
; #@! TF.GenerationSoftware,Kicad,Pcbnew,10.0.0
; #@! TF.FileFunction,Plated,1,2,PTH
FMAT,2
INCH
; #@! TA.AperFunction,Plated,PTH,ViaDrill
T1C0.0079
; #@! TA.AperFunction,Plated,PTH,ViaDrill
T2C0.0118
; #@! TA.AperFunction,Plated,PTH,ComponentDrill
T3C0.0118
; #@! TA.AperFunction,Plated,PTH,ComponentDrill
T4C0.0236
; #@! TA.AperFunction,Plated,PTH,ComponentDrill
T5C0.0315
; #@! TA.AperFunction,Plated,PTH,ComponentDrill
T6C0.0374
; #@! TA.AperFunction,Plated,PTH,ComponentDrill
T7C0.1260
%
G90
G05
T1
X4.9764Y-3.2274
X5.0059Y-3.3189
X5.0659Y-3.2667
X5.0886Y-3.8386
X5.0984Y-3.1378
X5.1083Y-3.5728
X5.1181Y-3.6909
X5.1378Y-3.8386
X5.1565Y-3.1781
X5.1575Y-4.0059
X5.1585Y-4.4793
X5.1661Y-3.3937
X5.176Y-3.6122
X5.2165Y-4.0157
X5.2736Y-4.3996
X5.2986Y-3.6699
X5.2992Y-3.5244
X5.3051Y-4.0059
X5.3051Y-4.2028
X5.3203Y-3.636
X5.3228Y-3.3937
X5.3228Y-3.4646
X5.4232Y-3.8681
X5.4528Y-3.3976
X5.4528Y-3.4646
X5.4567Y-3.0039
X5.4567Y-3.0512
X5.4567Y-3.1299
X5.6102Y-3.2283
X5.6102Y-3.2776
X5.6142Y-3.122
X5.626Y-4.4744
X5.6299Y-3.3209
X5.6693Y-4.0059
X5.7372Y-4.3996
X5.8661Y-4.439
X5.9941Y-4.1142
X5.9941Y-4.1535
X6.0433Y-4.1142
X6.0433Y-4.1535
X6.0433Y-4.3799
X6.0925Y-4.1142
X6.0925Y-4.1535
X6.1516Y-3.8386
X6.2894Y-3.2677
X6.3976Y-3.622
X6.4567Y-3.3169
X6.4872Y-3.1791
X6.6535Y-3.2874
X6.6831Y-3.2776
X6.6929Y-3.6457
X6.7323Y-3.6122
X6.7421Y-3.1594
T2
X5.7493Y-3.9084
X5.7776Y-4.2126
X6.2992Y-3.1102
X6.5354Y-3.7795
X6.6152Y-3.1004
X6.6929Y-3.7402
X6.6929Y-3.8189
X6.6929Y-3.8976
X6.6929Y-3.9764
T3
X6.5157Y-3.9055
X6.5157Y-3.9685
X6.5551Y-3.9055
X6.5551Y-3.9685
X6.5984Y-3.9055
X6.5984Y-3.9685
T5
X6.6278Y-4.3996
X6.7656Y-4.3996
T6
X5.374Y-4.7598
X5.4724Y-4.7598
X5.5709Y-4.7598
X5.8071Y-4.7598
X5.9055Y-4.7598
X6.0039Y-4.7598
X6.2402Y-4.7598
X6.3386Y-4.7598
X6.437Y-4.7598
T7
X5.0591Y-2.9331
X5.0591Y-4.8228
X6.752Y-2.9331
X6.752Y-4.8228
T4
G00X5.0512Y-3.4508
M15
G01X5.0276Y-3.4508
M16
G05
G00X5.0512Y-3.7909
M15
G01X5.0276Y-3.7909
M16
G05
G00X5.2256Y-3.4508
M15
G01X5.1823Y-3.4508
M16
G05
G00X5.2256Y-3.7909
M15
G01X5.1823Y-3.7909
M16
G05
M30
