%TF.GenerationSoftware,KiCad,Pcbnew,9.0.5*%
%TF.CreationDate,2026-01-17T21:03:59+11:00*%
%TF.ProjectId,Active-Dampers,41637469-7665-42d4-9461-6d706572732e,rev?*%
%TF.SameCoordinates,Original*%
%TF.FileFunction,Copper,L2,Inr*%
%TF.FilePolarity,Positive*%
%FSLAX46Y46*%
G04 Gerber Fmt 4.6, Leading zero omitted, Abs format (unit mm)*
G04 Created by KiCad (PCBNEW 9.0.5) date 2026-01-17 21:03:59*
%MOMM*%
%LPD*%
G01*
G04 APERTURE LIST*
G04 Aperture macros list*
%AMRoundRect*
0 Rectangle with rounded corners*
0 $1 Rounding radius*
0 $2 $3 $4 $5 $6 $7 $8 $9 X,Y pos of 4 corners*
0 Add a 4 corners polygon primitive as box body*
4,1,4,$2,$3,$4,$5,$6,$7,$8,$9,$2,$3,0*
0 Add four circle primitives for the rounded corners*
1,1,$1+$1,$2,$3*
1,1,$1+$1,$4,$5*
1,1,$1+$1,$6,$7*
1,1,$1+$1,$8,$9*
0 Add four rect primitives between the rounded corners*
20,1,$1+$1,$2,$3,$4,$5,0*
20,1,$1+$1,$4,$5,$6,$7,0*
20,1,$1+$1,$6,$7,$8,$9,0*
20,1,$1+$1,$8,$9,$2,$3,0*%
G04 Aperture macros list end*
%TA.AperFunction,ComponentPad*%
%ADD10C,1.600000*%
%TD*%
%TA.AperFunction,ComponentPad*%
%ADD11RoundRect,0.250000X-0.550000X-0.550000X0.550000X-0.550000X0.550000X0.550000X-0.550000X0.550000X0*%
%TD*%
%TA.AperFunction,ComponentPad*%
%ADD12R,1.100000X1.100000*%
%TD*%
%TA.AperFunction,ComponentPad*%
%ADD13C,1.100000*%
%TD*%
%TA.AperFunction,ComponentPad*%
%ADD14RoundRect,0.250000X0.725000X-0.600000X0.725000X0.600000X-0.725000X0.600000X-0.725000X-0.600000X0*%
%TD*%
%TA.AperFunction,ComponentPad*%
%ADD15O,1.950000X1.700000*%
%TD*%
%TA.AperFunction,ComponentPad*%
%ADD16RoundRect,0.250000X-0.725000X0.600000X-0.725000X-0.600000X0.725000X-0.600000X0.725000X0.600000X0*%
%TD*%
%TA.AperFunction,ComponentPad*%
%ADD17RoundRect,0.875000X0.875000X-0.875000X0.875000X0.875000X-0.875000X0.875000X-0.875000X-0.875000X0*%
%TD*%
%TA.AperFunction,ComponentPad*%
%ADD18RoundRect,0.750000X1.000000X-0.750000X1.000000X0.750000X-1.000000X0.750000X-1.000000X-0.750000X0*%
%TD*%
%TA.AperFunction,ComponentPad*%
%ADD19R,3.500000X3.500000*%
%TD*%
%TA.AperFunction,HeatsinkPad*%
%ADD20O,2.100000X1.000000*%
%TD*%
%TA.AperFunction,HeatsinkPad*%
%ADD21O,1.600000X1.000000*%
%TD*%
%TA.AperFunction,ComponentPad*%
%ADD22C,1.905000*%
%TD*%
%TA.AperFunction,ComponentPad*%
%ADD23C,3.800000*%
%TD*%
%TA.AperFunction,ComponentPad*%
%ADD24C,0.500000*%
%TD*%
%TA.AperFunction,ViaPad*%
%ADD25C,0.600000*%
%TD*%
%TA.AperFunction,Conductor*%
%ADD26C,0.200000*%
%TD*%
G04 APERTURE END LIST*
D10*
%TO.N,GND*%
%TO.C,C15*%
X165000000Y-120750000D03*
D11*
%TO.N,+12V*%
X161500000Y-120750000D03*
%TD*%
D10*
%TO.N,GND*%
%TO.C,C22*%
X165000000Y-112250000D03*
D11*
%TO.N,+5V*%
X161500000Y-112250000D03*
%TD*%
D12*
%TO.N,+3.3V*%
%TO.C,J1*%
X128750000Y-88770000D03*
D13*
%TO.N,/SWDIO{slash}TMS*%
X127480000Y-88770000D03*
%TO.N,GND*%
X128750000Y-87500000D03*
%TO.N,/SWCLK{slash}TCK*%
X127480000Y-87500000D03*
%TO.N,GND*%
X128750000Y-86230000D03*
%TO.N,/SWO{slash}TDO*%
X127480000Y-86230000D03*
%TO.N,unconnected-(J1-KEY-Pad7)*%
X128750000Y-84960000D03*
%TO.N,unconnected-(J1-NC{slash}TDI-Pad8)*%
X127480000Y-84960000D03*
%TO.N,GND*%
X128750000Y-83690000D03*
%TO.N,Net-(J1-~{RESET})*%
X127480000Y-83690000D03*
%TD*%
D14*
%TO.N,/BOUT2_FL*%
%TO.C,J2*%
X127750000Y-103500000D03*
D15*
%TO.N,/BOUT1_FL*%
X127750000Y-101000000D03*
%TO.N,/AOUT2_FL*%
X127750000Y-98500000D03*
%TO.N,/AOUT1_FL*%
X127750000Y-96000000D03*
%TD*%
D16*
%TO.N,/BOUT2_FR*%
%TO.C,J3*%
X172000000Y-96000000D03*
D15*
%TO.N,/BOUT1_FR*%
X172000000Y-98500000D03*
%TO.N,/AOUT2_FR*%
X172000000Y-101000000D03*
%TO.N,/AOUT1_FR*%
X172000000Y-103500000D03*
%TD*%
D14*
%TO.N,/BOUT2_RL*%
%TO.C,J4*%
X127750000Y-118000000D03*
D15*
%TO.N,/BOUT1_RL*%
X127750000Y-115500000D03*
%TO.N,/AOUT2_RL*%
X127750000Y-113000000D03*
%TO.N,/AOUT1_RL*%
X127750000Y-110500000D03*
%TD*%
D16*
%TO.N,/BOUT2_RR*%
%TO.C,J5*%
X172000000Y-110500000D03*
D15*
%TO.N,/BOUT1_RR*%
X172000000Y-113000000D03*
%TO.N,/AOUT2_RR*%
X172000000Y-115500000D03*
%TO.N,/AOUT1_RR*%
X172000000Y-118000000D03*
%TD*%
D17*
%TO.N,GND*%
%TO.C,J6*%
X154700000Y-115000000D03*
D18*
X150000000Y-118000000D03*
D19*
%TO.N,+12V*%
X150000000Y-112000000D03*
%TD*%
D20*
%TO.N,GND*%
%TO.C,J7*%
X167870000Y-91320000D03*
D21*
X172050000Y-91320000D03*
D20*
X167870000Y-82680000D03*
D21*
X172050000Y-82680000D03*
%TD*%
D22*
%TO.N,GND*%
%TO.C,J8*%
X146190000Y-78000000D03*
%TO.N,+3.3V*%
X148730000Y-78000000D03*
%TO.N,/SDA*%
X151270000Y-78000000D03*
%TO.N,/SCL*%
X153810000Y-78000000D03*
%TD*%
D23*
%TO.N,GND*%
%TO.C,H1*%
X127000000Y-78000000D03*
%TD*%
D24*
%TO.N,GND*%
%TO.C,U10*%
X139750000Y-119000000D03*
X139750000Y-121100000D03*
X139750001Y-120000000D03*
X141349999Y-120000000D03*
X141350000Y-119000000D03*
X141350000Y-121100000D03*
%TD*%
D23*
%TO.N,GND*%
%TO.C,H2*%
X172750000Y-78250000D03*
%TD*%
%TO.N,GND*%
%TO.C,H3*%
X172750000Y-123750000D03*
%TD*%
%TO.N,GND*%
%TO.C,H4*%
X127250000Y-123750000D03*
%TD*%
D25*
%TO.N,GND*%
X165750000Y-114250000D03*
X164500000Y-114250000D03*
X165500000Y-119000000D03*
X164250000Y-119000000D03*
X137750000Y-111250000D03*
X135500000Y-111250000D03*
X168500000Y-100500000D03*
%TO.N,/USB-*%
X169225735Y-87950000D03*
%TO.N,GND*%
X158750000Y-104000000D03*
X149000000Y-103000000D03*
X129500000Y-95500000D03*
X130000000Y-97250000D03*
X138250000Y-85750000D03*
X137000000Y-85000000D03*
X155750000Y-99000000D03*
X154000000Y-98500000D03*
X151000000Y-101250000D03*
X146000000Y-98750000D03*
X144750000Y-99500000D03*
X144250000Y-95500000D03*
X140214667Y-90415975D03*
X145041507Y-90146023D03*
X155821362Y-90927826D03*
X148750000Y-95000000D03*
X150500000Y-92750000D03*
X152500000Y-95250000D03*
X151000000Y-95750000D03*
%TO.N,/BIN2_FR*%
X161505001Y-94385752D03*
X155500000Y-97000000D03*
%TO.N,/IMU_INT*%
X150476616Y-90861866D03*
X134454619Y-89101586D03*
%TO.N,/SWCLK{slash}TCK*%
X151955060Y-87251640D03*
%TO.N,+12V*%
X152300323Y-86461844D03*
%TO.N,/~{SLEEP}*%
X167250000Y-99000000D03*
X148835538Y-90920360D03*
X133500000Y-93000000D03*
%TO.N,Net-(J1-~{RESET})*%
X133500000Y-82500000D03*
%TO.N,/SWDIO{slash}TMS*%
X153000000Y-92000000D03*
%TO.N,/SWO{slash}TDO*%
X152089725Y-88305544D03*
%TO.N,/SCL*%
X150385725Y-88054964D03*
%TO.N,/SDA*%
X149601486Y-88272061D03*
%TO.N,+3.3V*%
X146750000Y-84425000D03*
X143000000Y-84387500D03*
%TO.N,+12V*%
X159750000Y-95800003D03*
X144500000Y-111000000D03*
X140750000Y-116250000D03*
X144500000Y-114250000D03*
X140250000Y-96250000D03*
X140250000Y-102699997D03*
X144500000Y-112500000D03*
X144500000Y-109250000D03*
X159500000Y-102250000D03*
X144500000Y-119250000D03*
%TO.N,GND*%
X135780000Y-102855001D03*
X135780000Y-95460001D03*
X162780000Y-103000000D03*
X135780000Y-96355001D03*
X164210000Y-97342499D03*
X135780000Y-94565002D03*
X135780000Y-97250000D03*
X162740000Y-94657501D03*
X162740000Y-95552500D03*
X164210000Y-96447500D03*
X135780000Y-101065002D03*
X164250000Y-103894999D03*
X135780000Y-103750000D03*
X137250000Y-96355001D03*
X162780000Y-101210001D03*
X137250000Y-102855001D03*
X164210000Y-94657501D03*
X162740000Y-96447500D03*
X137250000Y-97250000D03*
X137250000Y-103750000D03*
X164250000Y-102105000D03*
X137250000Y-95460001D03*
X137250000Y-101065002D03*
X162740000Y-97342499D03*
X162780000Y-102105000D03*
X137250000Y-94565002D03*
X137250000Y-101960001D03*
X135780000Y-101960001D03*
X162780000Y-103894999D03*
X164210000Y-95552500D03*
X164250000Y-101210001D03*
X164250000Y-103000000D03*
%TO.N,+5V*%
X152250000Y-84500000D03*
X139250000Y-123000000D03*
X144500000Y-105750000D03*
X144500000Y-107500000D03*
X145250000Y-108250000D03*
X136500000Y-109750000D03*
X158750000Y-108250000D03*
X138750000Y-108250000D03*
X158750000Y-111750000D03*
X158750000Y-110000000D03*
X163500000Y-81250000D03*
%TO.N,+3.3V*%
X140250000Y-97050003D03*
X147080000Y-94518930D03*
X153250000Y-103500000D03*
X140250000Y-103500000D03*
X159750000Y-95000000D03*
X153500000Y-100250000D03*
X134712500Y-84787500D03*
X154250000Y-90500000D03*
X148500000Y-106000000D03*
X144432252Y-91666975D03*
X159500000Y-101449997D03*
X152250000Y-82500000D03*
X147000000Y-87900000D03*
X156000000Y-101750000D03*
X134398021Y-91666975D03*
%TO.N,/USB-*%
X156850797Y-92750245D03*
X169207570Y-86742430D03*
%TO.N,/USB+*%
X169170879Y-85786499D03*
X156249755Y-92149203D03*
%TO.N,Net-(J1-~{RESET})*%
X148500000Y-93500000D03*
%TO.N,/BOUT2_FL*%
X132500000Y-96375000D03*
%TO.N,/AIN2_FL*%
X140250000Y-94550003D03*
X147750000Y-96750000D03*
%TO.N,/BIN2_FL*%
X147750000Y-99500000D03*
X140272254Y-97997657D03*
%TO.N,/AIN1_FL*%
X140250000Y-93750000D03*
X147000000Y-95500000D03*
%TO.N,/~{FAULT}_FL*%
X147905812Y-91829113D03*
X133926000Y-99000000D03*
%TO.N,/~{FAULT}_FR*%
X166000000Y-93150000D03*
X155476921Y-94329013D03*
%TO.N,/BIN1_FR*%
X159500000Y-93750000D03*
X148499998Y-96471609D03*
%TO.N,/AIN1_FR*%
X145750000Y-97250000D03*
X159500000Y-98250000D03*
%TO.N,/~{FAULT}_RL*%
X147850102Y-92677288D03*
X134750000Y-105000000D03*
%TO.N,/BOUT2_FR*%
X167084152Y-95642897D03*
%TO.N,/BOUT1_RL*%
X132650000Y-104000000D03*
%TO.N,/AOUT1_RL*%
X132250000Y-100750000D03*
%TO.N,/BOUT2_RL*%
X132650000Y-103000000D03*
%TO.N,/AOUT2_RL*%
X131950000Y-102250000D03*
%TO.N,/BIN1_RL*%
X140500000Y-104725000D03*
X149250000Y-96750000D03*
%TO.N,/AIN1_RR*%
X149350000Y-99210672D03*
X159500000Y-104750000D03*
%TO.N,/BIN1_RR*%
X150250000Y-96750000D03*
X159750000Y-99750000D03*
%TO.N,/~{FAULT}_RR*%
X155590618Y-95171378D03*
X166250000Y-99500000D03*
%TD*%
D26*
%TO.N,/SWCLK{slash}TCK*%
X151955060Y-87544940D02*
X151955060Y-87251640D01*
X150500000Y-89000000D02*
X151955060Y-87544940D01*
X149000000Y-88750000D02*
X149250000Y-89000000D01*
X149000000Y-85250000D02*
X149000000Y-88750000D01*
X144500000Y-80750000D02*
X149000000Y-85250000D01*
X129216504Y-80750000D02*
X144500000Y-80750000D01*
X126629000Y-86649000D02*
X126629000Y-83337504D01*
X127480000Y-87500000D02*
X126629000Y-86649000D01*
X126629000Y-83337504D02*
X129216504Y-80750000D01*
%TO.N,/SCL*%
X150385725Y-81424275D02*
X150385725Y-88054964D01*
X153810000Y-78000000D02*
X150385725Y-81424275D01*
%TO.N,/SWCLK{slash}TCK*%
X149250000Y-89000000D02*
X150500000Y-89000000D01*
%TO.N,/~{FAULT}_RL*%
X147810415Y-92716975D02*
X147850102Y-92677288D01*
X143997328Y-92716975D02*
X147810415Y-92716975D01*
X135000000Y-94495059D02*
X136995059Y-92500000D01*
X135000000Y-94500000D02*
X135000000Y-94495059D01*
X134750000Y-94750000D02*
X135000000Y-94500000D01*
X134750000Y-105000000D02*
X134750000Y-94750000D01*
%TO.N,/~{FAULT}_FL*%
X144163013Y-92316975D02*
X144701491Y-92316975D01*
X133926000Y-94824000D02*
X136750000Y-92000000D01*
X144701491Y-92316975D02*
X145189353Y-91829113D01*
%TO.N,/~{SLEEP}*%
X149565178Y-91650000D02*
X148835538Y-90920360D01*
X156250000Y-93500000D02*
X153750000Y-91000000D01*
X158500000Y-92500000D02*
X157500000Y-93500000D01*
X167734152Y-93734152D02*
X166500000Y-92500000D01*
%TO.N,/~{FAULT}_FL*%
X133926000Y-99000000D02*
X133926000Y-94824000D01*
%TO.N,Net-(J1-~{RESET})*%
X147929113Y-91179113D02*
X139250000Y-82500000D01*
X148175051Y-91179113D02*
X147929113Y-91179113D01*
%TO.N,/~{SLEEP}*%
X166500000Y-92500000D02*
X158500000Y-92500000D01*
%TO.N,Net-(J1-~{RESET})*%
X148555812Y-91559874D02*
X148175051Y-91179113D01*
X148555812Y-92098352D02*
X148555812Y-91559874D01*
%TO.N,/~{SLEEP}*%
X153750000Y-91000000D02*
X151257721Y-91000000D01*
%TO.N,Net-(J1-~{RESET})*%
X148500000Y-92154164D02*
X148555812Y-92098352D01*
%TO.N,/~{SLEEP}*%
X167734152Y-98515848D02*
X167734152Y-93734152D01*
X157500000Y-93500000D02*
X156250000Y-93500000D01*
X167250000Y-99000000D02*
X167734152Y-98515848D01*
%TO.N,/~{FAULT}_FL*%
X145189353Y-91829113D02*
X147905812Y-91829113D01*
%TO.N,Net-(J1-~{RESET})*%
X139250000Y-82500000D02*
X133500000Y-82500000D01*
X148500000Y-93500000D02*
X148500000Y-92154164D01*
%TO.N,/~{FAULT}_RL*%
X136995059Y-92500000D02*
X143780352Y-92500000D01*
%TO.N,/~{FAULT}_FL*%
X143846038Y-92000000D02*
X144163013Y-92316975D01*
X136750000Y-92000000D02*
X143846038Y-92000000D01*
%TO.N,/~{SLEEP}*%
X150607721Y-91650000D02*
X149565178Y-91650000D01*
X151257721Y-91000000D02*
X150607721Y-91650000D01*
%TO.N,/~{FAULT}_RL*%
X143780352Y-92500000D02*
X143997328Y-92716975D01*
%TO.N,/USB-*%
X169190141Y-86725001D02*
X169207570Y-86742430D01*
X162593198Y-86725001D02*
X169190141Y-86725001D01*
X156850797Y-92467402D02*
X162593198Y-86725001D01*
X156850797Y-92750245D02*
X156850797Y-92467402D01*
%TO.N,/USB+*%
X168682379Y-86274999D02*
X169170879Y-85786499D01*
X162406802Y-86274999D02*
X168682379Y-86274999D01*
X156532598Y-92149203D02*
X162406802Y-86274999D01*
X156249755Y-92149203D02*
X156532598Y-92149203D01*
%TO.N,/~{FAULT}_FR*%
X155647908Y-94500000D02*
X155476921Y-94329013D01*
X157900057Y-94500000D02*
X155647908Y-94500000D01*
X165850000Y-93000000D02*
X159400057Y-93000000D01*
%TO.N,/~{FAULT}_RR*%
X162600054Y-99500000D02*
X158391701Y-95291647D01*
X166250000Y-99500000D02*
X162600054Y-99500000D01*
X155710887Y-95291647D02*
X155590618Y-95171378D01*
X158391701Y-95291647D02*
X155710887Y-95291647D01*
%TO.N,/~{FAULT}_FR*%
X159400057Y-93000000D02*
X157900057Y-94500000D01*
X166000000Y-93150000D02*
X165850000Y-93000000D01*
%TO.N,/SDA*%
X149601486Y-79668514D02*
X151270000Y-78000000D01*
X149601486Y-88272061D02*
X149601486Y-79668514D01*
%TO.N,/AIN1_RR*%
X157150057Y-104750000D02*
X151610729Y-99210672D01*
X159500000Y-104750000D02*
X157150057Y-104750000D01*
X151610729Y-99210672D02*
X149350000Y-99210672D01*
%TD*%
%TA.AperFunction,Conductor*%
%TO.N,GND*%
G36*
X166669504Y-93094475D02*
G01*
X167404656Y-93829627D01*
X167432433Y-93884144D01*
X167433652Y-93899631D01*
X167433652Y-95095279D01*
X167414745Y-95153470D01*
X167365245Y-95189434D01*
X167304059Y-95189434D01*
X167285155Y-95181017D01*
X167277341Y-95176506D01*
X167277343Y-95176506D01*
X167227951Y-95163272D01*
X167150044Y-95142397D01*
X167018260Y-95142397D01*
X166940352Y-95163272D01*
X166890961Y-95176506D01*
X166776842Y-95242393D01*
X166683648Y-95335587D01*
X166617761Y-95449706D01*
X166606244Y-95492689D01*
X166583652Y-95577005D01*
X166583652Y-95708789D01*
X166613731Y-95821048D01*
X166617761Y-95836087D01*
X166683648Y-95950206D01*
X166683650Y-95950208D01*
X166683652Y-95950211D01*
X166776838Y-96043397D01*
X166776840Y-96043398D01*
X166776842Y-96043400D01*
X166890962Y-96109287D01*
X166890960Y-96109287D01*
X166890964Y-96109288D01*
X166890966Y-96109289D01*
X167018260Y-96143397D01*
X167018262Y-96143397D01*
X167150042Y-96143397D01*
X167150044Y-96143397D01*
X167277338Y-96109289D01*
X167285150Y-96104779D01*
X167344998Y-96092056D01*
X167400894Y-96116941D01*
X167431488Y-96169928D01*
X167433652Y-96190514D01*
X167433652Y-98350369D01*
X167431183Y-98357966D01*
X167432433Y-98365856D01*
X167421908Y-98386511D01*
X167414745Y-98408560D01*
X167404657Y-98420371D01*
X167354523Y-98470504D01*
X167300008Y-98498281D01*
X167284521Y-98499500D01*
X167184108Y-98499500D01*
X167106200Y-98520375D01*
X167056809Y-98533609D01*
X166942690Y-98599496D01*
X166849496Y-98692690D01*
X166783609Y-98806809D01*
X166783608Y-98806814D01*
X166750427Y-98930651D01*
X166749500Y-98934109D01*
X166749500Y-99052679D01*
X166730593Y-99110870D01*
X166681093Y-99146834D01*
X166619907Y-99146834D01*
X166580498Y-99122684D01*
X166557314Y-99099500D01*
X166557311Y-99099498D01*
X166557309Y-99099496D01*
X166443189Y-99033609D01*
X166443191Y-99033609D01*
X166383017Y-99017486D01*
X166315892Y-98999500D01*
X166184108Y-98999500D01*
X166116983Y-99017486D01*
X166056809Y-99033609D01*
X165942690Y-99099496D01*
X165942689Y-99099497D01*
X165942686Y-99099499D01*
X165942686Y-99099500D01*
X165871680Y-99170505D01*
X165817166Y-99198281D01*
X165801679Y-99199500D01*
X162765533Y-99199500D01*
X162707342Y-99180593D01*
X162695529Y-99170504D01*
X159938200Y-96413175D01*
X159910423Y-96358658D01*
X159919994Y-96298226D01*
X159958702Y-96257436D01*
X160057314Y-96200503D01*
X160150500Y-96107317D01*
X160187403Y-96043400D01*
X160216390Y-95993193D01*
X160216390Y-95993191D01*
X160216392Y-95993189D01*
X160250500Y-95865895D01*
X160250500Y-95734111D01*
X160216392Y-95606817D01*
X160216390Y-95606814D01*
X160216390Y-95606812D01*
X160150503Y-95492693D01*
X160150501Y-95492691D01*
X160150500Y-95492689D01*
X160127813Y-95470002D01*
X160100038Y-95415488D01*
X160109609Y-95355056D01*
X160127815Y-95329997D01*
X160150500Y-95307314D01*
X160216392Y-95193186D01*
X160250500Y-95065892D01*
X160250500Y-94934108D01*
X160216392Y-94806814D01*
X160216390Y-94806811D01*
X160216390Y-94806809D01*
X160150503Y-94692690D01*
X160150501Y-94692688D01*
X160150500Y-94692686D01*
X160057314Y-94599500D01*
X160057311Y-94599498D01*
X160057309Y-94599496D01*
X159943189Y-94533609D01*
X159943191Y-94533609D01*
X159893799Y-94520375D01*
X159815892Y-94499500D01*
X159684108Y-94499500D01*
X159606200Y-94520375D01*
X159556809Y-94533609D01*
X159442690Y-94599496D01*
X159349496Y-94692690D01*
X159283609Y-94806809D01*
X159271462Y-94852144D01*
X159249500Y-94934108D01*
X159249500Y-95065892D01*
X159269999Y-95142397D01*
X159283609Y-95193190D01*
X159349496Y-95307309D01*
X159349498Y-95307311D01*
X159349500Y-95307314D01*
X159372185Y-95329999D01*
X159399961Y-95384514D01*
X159390390Y-95444946D01*
X159384334Y-95455244D01*
X159378974Y-95463213D01*
X159349500Y-95492689D01*
X159290874Y-95594230D01*
X159288985Y-95597041D01*
X159267435Y-95613926D01*
X159247097Y-95632239D01*
X159243595Y-95632606D01*
X159240824Y-95634779D01*
X159213463Y-95635773D01*
X159186247Y-95638634D01*
X159183017Y-95636880D01*
X159179679Y-95637002D01*
X159164743Y-95626959D01*
X159136827Y-95611802D01*
X158860608Y-95335583D01*
X158576212Y-95051187D01*
X158545764Y-95033608D01*
X158539550Y-95030020D01*
X158539549Y-95030020D01*
X158507689Y-95011625D01*
X158431265Y-94991147D01*
X158431263Y-94991147D01*
X157980094Y-94991147D01*
X157921903Y-94972240D01*
X157885939Y-94922740D01*
X157885939Y-94861554D01*
X157921903Y-94812054D01*
X157954470Y-94796521D01*
X157999573Y-94784435D01*
X158016046Y-94780021D01*
X158084568Y-94740460D01*
X158117021Y-94708007D01*
X158140518Y-94684511D01*
X158505168Y-94319860D01*
X161004501Y-94319860D01*
X161004501Y-94451644D01*
X161013201Y-94484112D01*
X161038610Y-94578942D01*
X161104497Y-94693061D01*
X161104499Y-94693063D01*
X161104501Y-94693066D01*
X161197687Y-94786252D01*
X161197689Y-94786253D01*
X161197691Y-94786255D01*
X161311811Y-94852142D01*
X161311809Y-94852142D01*
X161311813Y-94852143D01*
X161311815Y-94852144D01*
X161439109Y-94886252D01*
X161439111Y-94886252D01*
X161570891Y-94886252D01*
X161570893Y-94886252D01*
X161698187Y-94852144D01*
X161698189Y-94852142D01*
X161698191Y-94852142D01*
X161812310Y-94786255D01*
X161812310Y-94786254D01*
X161812315Y-94786252D01*
X161905501Y-94693066D01*
X161905718Y-94692690D01*
X161971391Y-94578942D01*
X161971391Y-94578940D01*
X161971393Y-94578938D01*
X162005501Y-94451644D01*
X162005501Y-94319860D01*
X161971393Y-94192566D01*
X161971391Y-94192563D01*
X161971391Y-94192561D01*
X161905504Y-94078442D01*
X161905502Y-94078440D01*
X161905501Y-94078438D01*
X161812315Y-93985252D01*
X161812312Y-93985250D01*
X161812310Y-93985248D01*
X161698190Y-93919361D01*
X161698192Y-93919361D01*
X161627811Y-93900503D01*
X161570893Y-93885252D01*
X161439109Y-93885252D01*
X161382191Y-93900503D01*
X161311810Y-93919361D01*
X161197691Y-93985248D01*
X161104497Y-94078442D01*
X161038610Y-94192561D01*
X161031257Y-94220003D01*
X161004501Y-94319860D01*
X158505168Y-94319860D01*
X158886826Y-93938201D01*
X158941343Y-93910423D01*
X159001775Y-93919994D01*
X159042566Y-93958704D01*
X159099496Y-94057309D01*
X159099498Y-94057311D01*
X159099500Y-94057314D01*
X159192686Y-94150500D01*
X159192688Y-94150501D01*
X159192690Y-94150503D01*
X159306810Y-94216390D01*
X159306808Y-94216390D01*
X159306812Y-94216391D01*
X159306814Y-94216392D01*
X159434108Y-94250500D01*
X159434110Y-94250500D01*
X159565890Y-94250500D01*
X159565892Y-94250500D01*
X159693186Y-94216392D01*
X159781354Y-94165488D01*
X159807309Y-94150503D01*
X159807309Y-94150502D01*
X159807314Y-94150500D01*
X159900500Y-94057314D01*
X159903257Y-94052539D01*
X159966390Y-93943190D01*
X159966390Y-93943188D01*
X159966392Y-93943186D01*
X160000500Y-93815892D01*
X160000500Y-93684108D01*
X159966392Y-93556814D01*
X159966390Y-93556811D01*
X159966390Y-93556809D01*
X159904146Y-93449000D01*
X159891424Y-93389152D01*
X159916310Y-93333256D01*
X159969298Y-93302663D01*
X159989882Y-93300500D01*
X165451805Y-93300500D01*
X165509996Y-93319407D01*
X165537541Y-93350000D01*
X165599496Y-93457309D01*
X165599498Y-93457311D01*
X165599500Y-93457314D01*
X165692686Y-93550500D01*
X165692688Y-93550501D01*
X165692690Y-93550503D01*
X165806810Y-93616390D01*
X165806808Y-93616390D01*
X165806812Y-93616391D01*
X165806814Y-93616392D01*
X165934108Y-93650500D01*
X165934110Y-93650500D01*
X166065890Y-93650500D01*
X166065892Y-93650500D01*
X166193186Y-93616392D01*
X166193188Y-93616390D01*
X166193190Y-93616390D01*
X166307309Y-93550503D01*
X166307309Y-93550502D01*
X166307314Y-93550500D01*
X166400500Y-93457314D01*
X166408946Y-93442686D01*
X166466390Y-93343190D01*
X166466390Y-93343188D01*
X166466392Y-93343186D01*
X166500500Y-93215892D01*
X166500500Y-93164479D01*
X166519407Y-93106288D01*
X166568907Y-93070324D01*
X166630093Y-93070324D01*
X166669504Y-93094475D01*
G37*
%TD.AperFunction*%
%TA.AperFunction,Conductor*%
G36*
X137927806Y-76519407D02*
G01*
X137963770Y-76568907D01*
X137963770Y-76630093D01*
X137927806Y-76679593D01*
X137900209Y-76693654D01*
X137832560Y-76715634D01*
X137731587Y-76748443D01*
X137542184Y-76844948D01*
X137542180Y-76844950D01*
X137370213Y-76969891D01*
X137219891Y-77120213D01*
X137094950Y-77292180D01*
X137094948Y-77292184D01*
X136998443Y-77481587D01*
X136932752Y-77683761D01*
X136899500Y-77893709D01*
X136899500Y-78106290D01*
X136932752Y-78316238D01*
X136998443Y-78518412D01*
X137094948Y-78707815D01*
X137094950Y-78707819D01*
X137219891Y-78879786D01*
X137219893Y-78879788D01*
X137219896Y-78879792D01*
X137370208Y-79030104D01*
X137370211Y-79030106D01*
X137370213Y-79030108D01*
X137542180Y-79155049D01*
X137542184Y-79155051D01*
X137731588Y-79251557D01*
X137933757Y-79317246D01*
X137933758Y-79317246D01*
X137933761Y-79317247D01*
X138143710Y-79350500D01*
X138143713Y-79350500D01*
X138356290Y-79350500D01*
X138566238Y-79317247D01*
X138566239Y-79317246D01*
X138566243Y-79317246D01*
X138768412Y-79251557D01*
X138957816Y-79155051D01*
X139129792Y-79030104D01*
X139280104Y-78879792D01*
X139363402Y-78765141D01*
X139405049Y-78707819D01*
X139405051Y-78707816D01*
X139501557Y-78518412D01*
X139567246Y-78316243D01*
X139600500Y-78106287D01*
X139600500Y-77909253D01*
X147577000Y-77909253D01*
X147577000Y-78090746D01*
X147605389Y-78269990D01*
X147661473Y-78442598D01*
X147729303Y-78575724D01*
X147743866Y-78604304D01*
X147850541Y-78751129D01*
X147978871Y-78879459D01*
X148125696Y-78986134D01*
X148287402Y-79068527D01*
X148460005Y-79124609D01*
X148460006Y-79124609D01*
X148460009Y-79124610D01*
X148639254Y-79153000D01*
X148639257Y-79153000D01*
X148820746Y-79153000D01*
X148999990Y-79124610D01*
X148999991Y-79124609D01*
X148999995Y-79124609D01*
X149172598Y-79068527D01*
X149334304Y-78986134D01*
X149481129Y-78879459D01*
X149609459Y-78751129D01*
X149716134Y-78604304D01*
X149798527Y-78442598D01*
X149854609Y-78269995D01*
X149880538Y-78106290D01*
X149883000Y-78090746D01*
X149883000Y-77909253D01*
X149854610Y-77730009D01*
X149839582Y-77683757D01*
X149798527Y-77557402D01*
X149716134Y-77395696D01*
X149609459Y-77248871D01*
X149481129Y-77120541D01*
X149334304Y-77013866D01*
X149334303Y-77013865D01*
X149334301Y-77013864D01*
X149172598Y-76931473D01*
X148999990Y-76875389D01*
X148820746Y-76847000D01*
X148820743Y-76847000D01*
X148639257Y-76847000D01*
X148639254Y-76847000D01*
X148460009Y-76875389D01*
X148287401Y-76931473D01*
X148125698Y-77013864D01*
X147978872Y-77120540D01*
X147850540Y-77248872D01*
X147743864Y-77395698D01*
X147661473Y-77557401D01*
X147605389Y-77730009D01*
X147577000Y-77909253D01*
X139600500Y-77909253D01*
X139600500Y-77893713D01*
X139600500Y-77893709D01*
X139567247Y-77683761D01*
X139532734Y-77577542D01*
X139501557Y-77481588D01*
X139405051Y-77292184D01*
X139405049Y-77292180D01*
X139280108Y-77120213D01*
X139280106Y-77120211D01*
X139280104Y-77120208D01*
X139129792Y-76969896D01*
X139129788Y-76969893D01*
X139129786Y-76969891D01*
X138957819Y-76844950D01*
X138957815Y-76844948D01*
X138768412Y-76748443D01*
X138727485Y-76735145D01*
X138599791Y-76693654D01*
X138550292Y-76657691D01*
X138531385Y-76599500D01*
X138550292Y-76541309D01*
X138599792Y-76505345D01*
X138630385Y-76500500D01*
X161369615Y-76500500D01*
X161427806Y-76519407D01*
X161463770Y-76568907D01*
X161463770Y-76630093D01*
X161427806Y-76679593D01*
X161400209Y-76693654D01*
X161332560Y-76715634D01*
X161231587Y-76748443D01*
X161042184Y-76844948D01*
X161042180Y-76844950D01*
X160870213Y-76969891D01*
X160719891Y-77120213D01*
X160594950Y-77292180D01*
X160594948Y-77292184D01*
X160498443Y-77481587D01*
X160432752Y-77683761D01*
X160399500Y-77893709D01*
X160399500Y-78106290D01*
X160432752Y-78316238D01*
X160498443Y-78518412D01*
X160594948Y-78707815D01*
X160594950Y-78707819D01*
X160719891Y-78879786D01*
X160719893Y-78879788D01*
X160719896Y-78879792D01*
X160870208Y-79030104D01*
X160870211Y-79030106D01*
X160870213Y-79030108D01*
X161042180Y-79155049D01*
X161042184Y-79155051D01*
X161231588Y-79251557D01*
X161433757Y-79317246D01*
X161433758Y-79317246D01*
X161433761Y-79317247D01*
X161643710Y-79350500D01*
X161643713Y-79350500D01*
X161856290Y-79350500D01*
X162066238Y-79317247D01*
X162066239Y-79317246D01*
X162066243Y-79317246D01*
X162268412Y-79251557D01*
X162457816Y-79155051D01*
X162629792Y-79030104D01*
X162780104Y-78879792D01*
X162863402Y-78765141D01*
X162905049Y-78707819D01*
X162905051Y-78707816D01*
X163001557Y-78518412D01*
X163067246Y-78316243D01*
X163100500Y-78106287D01*
X163100500Y-77893713D01*
X163100500Y-77893709D01*
X163067247Y-77683761D01*
X163032734Y-77577542D01*
X163001557Y-77481588D01*
X162905051Y-77292184D01*
X162905049Y-77292180D01*
X162780108Y-77120213D01*
X162780106Y-77120211D01*
X162780104Y-77120208D01*
X162629792Y-76969896D01*
X162629788Y-76969893D01*
X162629786Y-76969891D01*
X162457819Y-76844950D01*
X162457815Y-76844948D01*
X162268412Y-76748443D01*
X162227485Y-76735145D01*
X162099791Y-76693654D01*
X162050292Y-76657691D01*
X162031385Y-76599500D01*
X162050292Y-76541309D01*
X162099792Y-76505345D01*
X162130385Y-76500500D01*
X172934108Y-76500500D01*
X172996460Y-76500500D01*
X173003522Y-76500752D01*
X173028505Y-76502538D01*
X173206345Y-76515258D01*
X173220308Y-76517265D01*
X173415549Y-76559737D01*
X173429088Y-76563713D01*
X173616292Y-76633537D01*
X173629118Y-76639394D01*
X173804476Y-76735146D01*
X173816356Y-76742781D01*
X173976294Y-76862509D01*
X173986966Y-76871756D01*
X174128243Y-77013033D01*
X174137493Y-77023709D01*
X174257218Y-77183643D01*
X174264854Y-77195525D01*
X174360602Y-77370875D01*
X174366466Y-77383715D01*
X174436284Y-77570904D01*
X174440264Y-77584457D01*
X174482732Y-77779681D01*
X174484742Y-77793662D01*
X174499248Y-77996476D01*
X174499500Y-78003539D01*
X174499500Y-123996460D01*
X174499248Y-124003523D01*
X174484742Y-124206337D01*
X174482732Y-124220318D01*
X174440264Y-124415542D01*
X174436284Y-124429095D01*
X174366466Y-124616284D01*
X174360598Y-124629133D01*
X174264854Y-124804474D01*
X174257218Y-124816356D01*
X174137493Y-124976290D01*
X174128243Y-124986966D01*
X173986966Y-125128243D01*
X173976290Y-125137493D01*
X173816356Y-125257218D01*
X173804474Y-125264854D01*
X173629133Y-125360598D01*
X173616284Y-125366466D01*
X173429095Y-125436284D01*
X173415542Y-125440264D01*
X173220318Y-125482732D01*
X173206337Y-125484742D01*
X173003523Y-125499248D01*
X172996460Y-125499500D01*
X127003540Y-125499500D01*
X126996477Y-125499248D01*
X126793662Y-125484742D01*
X126779681Y-125482732D01*
X126584457Y-125440264D01*
X126570904Y-125436284D01*
X126383715Y-125366466D01*
X126370875Y-125360602D01*
X126195525Y-125264854D01*
X126183643Y-125257218D01*
X126023709Y-125137493D01*
X126013033Y-125128243D01*
X125871756Y-124986966D01*
X125862506Y-124976290D01*
X125742781Y-124816356D01*
X125735145Y-124804474D01*
X125702815Y-124745266D01*
X125639394Y-124629118D01*
X125633537Y-124616292D01*
X125563713Y-124429088D01*
X125559737Y-124415549D01*
X125517265Y-124220308D01*
X125515258Y-124206345D01*
X125500752Y-124003522D01*
X125500500Y-123996460D01*
X125500500Y-122934108D01*
X138749500Y-122934108D01*
X138749500Y-123065892D01*
X138779579Y-123178151D01*
X138783609Y-123193190D01*
X138849496Y-123307309D01*
X138849498Y-123307311D01*
X138849500Y-123307314D01*
X138942686Y-123400500D01*
X138942688Y-123400501D01*
X138942690Y-123400503D01*
X139056810Y-123466390D01*
X139056808Y-123466390D01*
X139056812Y-123466391D01*
X139056814Y-123466392D01*
X139184108Y-123500500D01*
X139184110Y-123500500D01*
X139315890Y-123500500D01*
X139315892Y-123500500D01*
X139443186Y-123466392D01*
X139443188Y-123466390D01*
X139443190Y-123466390D01*
X139557309Y-123400503D01*
X139557309Y-123400502D01*
X139557314Y-123400500D01*
X139650500Y-123307314D01*
X139716392Y-123193186D01*
X139750500Y-123065892D01*
X139750500Y-122934108D01*
X139716392Y-122806814D01*
X139716390Y-122806811D01*
X139716390Y-122806809D01*
X139650503Y-122692690D01*
X139650501Y-122692688D01*
X139650500Y-122692686D01*
X139557314Y-122599500D01*
X139557311Y-122599498D01*
X139557309Y-122599496D01*
X139443189Y-122533609D01*
X139443191Y-122533609D01*
X139393799Y-122520375D01*
X139315892Y-122499500D01*
X139184108Y-122499500D01*
X139106200Y-122520375D01*
X139056809Y-122533609D01*
X138942690Y-122599496D01*
X138849496Y-122692690D01*
X138783609Y-122806809D01*
X138783608Y-122806814D01*
X138749500Y-122934108D01*
X125500500Y-122934108D01*
X125500500Y-119516230D01*
X128899500Y-119516230D01*
X128899500Y-119683769D01*
X128932183Y-119848079D01*
X128932185Y-119848085D01*
X128996296Y-120002862D01*
X128996297Y-120002863D01*
X129089374Y-120142162D01*
X129207838Y-120260626D01*
X129347137Y-120353703D01*
X129501918Y-120417816D01*
X129666233Y-120450500D01*
X129666234Y-120450500D01*
X129833766Y-120450500D01*
X129833767Y-120450500D01*
X129998082Y-120417816D01*
X130152863Y-120353703D01*
X130292162Y-120260626D01*
X130407063Y-120145725D01*
X160499500Y-120145725D01*
X160499500Y-121354274D01*
X160502353Y-121384694D01*
X160502355Y-121384703D01*
X160547207Y-121512883D01*
X160627845Y-121622144D01*
X160627847Y-121622146D01*
X160627850Y-121622150D01*
X160627853Y-121622152D01*
X160627855Y-121622154D01*
X160737116Y-121702792D01*
X160737117Y-121702792D01*
X160737118Y-121702793D01*
X160865301Y-121747646D01*
X160895725Y-121750499D01*
X160895727Y-121750500D01*
X160895734Y-121750500D01*
X162104273Y-121750500D01*
X162104273Y-121750499D01*
X162134699Y-121747646D01*
X162262882Y-121702793D01*
X162372150Y-121622150D01*
X162452793Y-121512882D01*
X162497646Y-121384699D01*
X162500499Y-121354273D01*
X162500500Y-121354273D01*
X162500500Y-120145727D01*
X162500499Y-120145725D01*
X162497646Y-120115305D01*
X162497646Y-120115301D01*
X162452793Y-119987118D01*
X162372150Y-119877850D01*
X162372146Y-119877847D01*
X162372144Y-119877845D01*
X162262883Y-119797207D01*
X162134703Y-119752355D01*
X162134694Y-119752353D01*
X162104274Y-119749500D01*
X162104266Y-119749500D01*
X160895734Y-119749500D01*
X160895725Y-119749500D01*
X160865305Y-119752353D01*
X160865296Y-119752355D01*
X160737116Y-119797207D01*
X160627855Y-119877845D01*
X160627845Y-119877855D01*
X160547207Y-119987116D01*
X160502355Y-120115296D01*
X160502353Y-120115305D01*
X160499500Y-120145725D01*
X130407063Y-120145725D01*
X130410626Y-120142162D01*
X130503703Y-120002863D01*
X130567816Y-119848082D01*
X130600500Y-119683767D01*
X130600500Y-119516233D01*
X130567816Y-119351918D01*
X130503703Y-119197137D01*
X130494997Y-119184108D01*
X143999500Y-119184108D01*
X143999500Y-119315892D01*
X144009152Y-119351914D01*
X144033609Y-119443190D01*
X144099496Y-119557309D01*
X144099498Y-119557311D01*
X144099500Y-119557314D01*
X144192686Y-119650500D01*
X144192688Y-119650501D01*
X144192690Y-119650503D01*
X144306810Y-119716390D01*
X144306808Y-119716390D01*
X144306812Y-119716391D01*
X144306814Y-119716392D01*
X144434108Y-119750500D01*
X144434110Y-119750500D01*
X144565890Y-119750500D01*
X144565892Y-119750500D01*
X144693186Y-119716392D01*
X144693188Y-119716390D01*
X144693190Y-119716390D01*
X144807309Y-119650503D01*
X144807309Y-119650502D01*
X144807314Y-119650500D01*
X144900500Y-119557314D01*
X144966392Y-119443186D01*
X145000500Y-119315892D01*
X145000500Y-119184108D01*
X144966392Y-119056814D01*
X144966390Y-119056811D01*
X144966390Y-119056809D01*
X144900503Y-118942690D01*
X144900501Y-118942688D01*
X144900500Y-118942686D01*
X144807314Y-118849500D01*
X144807311Y-118849498D01*
X144807309Y-118849496D01*
X144693189Y-118783609D01*
X144693191Y-118783609D01*
X144643799Y-118770375D01*
X144565892Y-118749500D01*
X144434108Y-118749500D01*
X144356200Y-118770375D01*
X144306809Y-118783609D01*
X144192690Y-118849496D01*
X144099496Y-118942690D01*
X144033609Y-119056809D01*
X144014539Y-119127978D01*
X143999500Y-119184108D01*
X130494997Y-119184108D01*
X130410626Y-119057838D01*
X130292162Y-118939374D01*
X130152863Y-118846297D01*
X130152864Y-118846297D01*
X130152862Y-118846296D01*
X129998085Y-118782185D01*
X129998079Y-118782183D01*
X129833769Y-118749500D01*
X129833767Y-118749500D01*
X129666233Y-118749500D01*
X129666230Y-118749500D01*
X129501920Y-118782183D01*
X129501914Y-118782185D01*
X129347137Y-118846296D01*
X129207838Y-118939374D01*
X129207834Y-118939377D01*
X129089377Y-119057834D01*
X129089374Y-119057838D01*
X128996296Y-119197137D01*
X128932185Y-119351914D01*
X128932183Y-119351920D01*
X128899500Y-119516230D01*
X125500500Y-119516230D01*
X125500500Y-117345725D01*
X126574500Y-117345725D01*
X126574500Y-118654274D01*
X126577353Y-118684694D01*
X126577355Y-118684703D01*
X126622207Y-118812883D01*
X126702845Y-118922144D01*
X126702847Y-118922146D01*
X126702850Y-118922150D01*
X126702853Y-118922152D01*
X126702855Y-118922154D01*
X126812116Y-119002792D01*
X126812117Y-119002792D01*
X126812118Y-119002793D01*
X126940301Y-119047646D01*
X126970725Y-119050499D01*
X126970727Y-119050500D01*
X126970734Y-119050500D01*
X128529273Y-119050500D01*
X128529273Y-119050499D01*
X128559699Y-119047646D01*
X128687882Y-119002793D01*
X128797150Y-118922150D01*
X128877793Y-118812882D01*
X128922646Y-118684699D01*
X128925499Y-118654273D01*
X128925500Y-118654273D01*
X128925500Y-117896532D01*
X170824500Y-117896532D01*
X170824500Y-118103467D01*
X170864869Y-118306418D01*
X170944058Y-118497597D01*
X171059020Y-118669651D01*
X171059023Y-118669655D01*
X171205345Y-118815977D01*
X171377402Y-118930941D01*
X171568580Y-119010130D01*
X171771535Y-119050500D01*
X171771536Y-119050500D01*
X172228464Y-119050500D01*
X172228465Y-119050500D01*
X172431420Y-119010130D01*
X172622598Y-118930941D01*
X172794655Y-118815977D01*
X172940977Y-118669655D01*
X173055941Y-118497598D01*
X173135130Y-118306420D01*
X173175500Y-118103465D01*
X173175500Y-117896535D01*
X173135130Y-117693580D01*
X173055941Y-117502402D01*
X172940977Y-117330345D01*
X172794655Y-117184023D01*
X172794651Y-117184020D01*
X172622597Y-117069058D01*
X172431418Y-116989869D01*
X172228467Y-116949500D01*
X172228465Y-116949500D01*
X171771535Y-116949500D01*
X171771532Y-116949500D01*
X171568581Y-116989869D01*
X171377402Y-117069058D01*
X171205348Y-117184020D01*
X171059020Y-117330348D01*
X170944058Y-117502402D01*
X170864869Y-117693581D01*
X170824500Y-117896532D01*
X128925500Y-117896532D01*
X128925500Y-117345727D01*
X128925499Y-117345725D01*
X128922646Y-117315305D01*
X128922646Y-117315301D01*
X128877793Y-117187118D01*
X128797150Y-117077850D01*
X128797146Y-117077847D01*
X128797144Y-117077845D01*
X128687883Y-116997207D01*
X128559703Y-116952355D01*
X128559694Y-116952353D01*
X128529274Y-116949500D01*
X128529266Y-116949500D01*
X126970734Y-116949500D01*
X126970725Y-116949500D01*
X126940305Y-116952353D01*
X126940296Y-116952355D01*
X126812116Y-116997207D01*
X126702855Y-117077845D01*
X126702845Y-117077855D01*
X126622207Y-117187116D01*
X126577355Y-117315296D01*
X126577353Y-117315305D01*
X126574500Y-117345725D01*
X125500500Y-117345725D01*
X125500500Y-115396532D01*
X126574500Y-115396532D01*
X126574500Y-115603467D01*
X126614869Y-115806418D01*
X126694058Y-115997597D01*
X126777594Y-116122618D01*
X126809023Y-116169655D01*
X126955345Y-116315977D01*
X127127402Y-116430941D01*
X127318580Y-116510130D01*
X127521535Y-116550500D01*
X127521536Y-116550500D01*
X127978464Y-116550500D01*
X127978465Y-116550500D01*
X128181420Y-116510130D01*
X128372598Y-116430941D01*
X128544655Y-116315977D01*
X128676524Y-116184108D01*
X140249500Y-116184108D01*
X140249500Y-116315892D01*
X140279579Y-116428151D01*
X140283609Y-116443190D01*
X140349496Y-116557309D01*
X140349498Y-116557311D01*
X140349500Y-116557314D01*
X140442686Y-116650500D01*
X140442688Y-116650501D01*
X140442690Y-116650503D01*
X140556810Y-116716390D01*
X140556808Y-116716390D01*
X140556812Y-116716391D01*
X140556814Y-116716392D01*
X140684108Y-116750500D01*
X140684110Y-116750500D01*
X140815890Y-116750500D01*
X140815892Y-116750500D01*
X140943186Y-116716392D01*
X140943188Y-116716390D01*
X140943190Y-116716390D01*
X141057309Y-116650503D01*
X141057309Y-116650502D01*
X141057314Y-116650500D01*
X141150500Y-116557314D01*
X141216392Y-116443186D01*
X141250500Y-116315892D01*
X141250500Y-116184108D01*
X141216392Y-116056814D01*
X141216390Y-116056811D01*
X141216390Y-116056809D01*
X141150503Y-115942690D01*
X141150501Y-115942688D01*
X141150500Y-115942686D01*
X141057314Y-115849500D01*
X141057311Y-115849498D01*
X141057309Y-115849496D01*
X140943189Y-115783609D01*
X140943191Y-115783609D01*
X140893799Y-115770375D01*
X140815892Y-115749500D01*
X140684108Y-115749500D01*
X140606200Y-115770375D01*
X140556809Y-115783609D01*
X140442690Y-115849496D01*
X140349496Y-115942690D01*
X140283609Y-116056809D01*
X140283608Y-116056814D01*
X140249500Y-116184108D01*
X128676524Y-116184108D01*
X128690977Y-116169655D01*
X128805941Y-115997598D01*
X128885130Y-115806420D01*
X128925500Y-115603465D01*
X128925500Y-115396535D01*
X128925499Y-115396532D01*
X170824500Y-115396532D01*
X170824500Y-115603467D01*
X170864869Y-115806418D01*
X170944058Y-115997597D01*
X171027594Y-116122618D01*
X171059023Y-116169655D01*
X171205345Y-116315977D01*
X171377402Y-116430941D01*
X171568580Y-116510130D01*
X171771535Y-116550500D01*
X171771536Y-116550500D01*
X172228464Y-116550500D01*
X172228465Y-116550500D01*
X172431420Y-116510130D01*
X172622598Y-116430941D01*
X172794655Y-116315977D01*
X172940977Y-116169655D01*
X173055941Y-115997598D01*
X173135130Y-115806420D01*
X173175500Y-115603465D01*
X173175500Y-115396535D01*
X173135130Y-115193580D01*
X173055941Y-115002402D01*
X172940977Y-114830345D01*
X172794655Y-114684023D01*
X172794651Y-114684020D01*
X172622597Y-114569058D01*
X172431418Y-114489869D01*
X172228467Y-114449500D01*
X172228465Y-114449500D01*
X171771535Y-114449500D01*
X171771532Y-114449500D01*
X171568581Y-114489869D01*
X171377402Y-114569058D01*
X171205348Y-114684020D01*
X171059020Y-114830348D01*
X170944058Y-115002402D01*
X170864869Y-115193581D01*
X170824500Y-115396532D01*
X128925499Y-115396532D01*
X128885130Y-115193580D01*
X128805941Y-115002402D01*
X128690977Y-114830345D01*
X128544655Y-114684023D01*
X128544651Y-114684020D01*
X128372597Y-114569058D01*
X128181418Y-114489869D01*
X127978467Y-114449500D01*
X127978465Y-114449500D01*
X127521535Y-114449500D01*
X127521532Y-114449500D01*
X127318581Y-114489869D01*
X127127402Y-114569058D01*
X126955348Y-114684020D01*
X126809020Y-114830348D01*
X126694058Y-115002402D01*
X126614869Y-115193581D01*
X126574500Y-115396532D01*
X125500500Y-115396532D01*
X125500500Y-114184108D01*
X143999500Y-114184108D01*
X143999500Y-114315892D01*
X144029579Y-114428151D01*
X144033609Y-114443190D01*
X144099496Y-114557309D01*
X144099498Y-114557311D01*
X144099500Y-114557314D01*
X144192686Y-114650500D01*
X144192688Y-114650501D01*
X144192690Y-114650503D01*
X144306810Y-114716390D01*
X144306808Y-114716390D01*
X144306812Y-114716391D01*
X144306814Y-114716392D01*
X144434108Y-114750500D01*
X144434110Y-114750500D01*
X144565890Y-114750500D01*
X144565892Y-114750500D01*
X144693186Y-114716392D01*
X144693188Y-114716390D01*
X144693190Y-114716390D01*
X144807309Y-114650503D01*
X144807309Y-114650502D01*
X144807314Y-114650500D01*
X144900500Y-114557314D01*
X144939439Y-114489870D01*
X144966390Y-114443190D01*
X144966390Y-114443188D01*
X144966392Y-114443186D01*
X145000500Y-114315892D01*
X145000500Y-114184108D01*
X144966392Y-114056814D01*
X144966390Y-114056811D01*
X144966390Y-114056809D01*
X144900503Y-113942690D01*
X144900501Y-113942688D01*
X144900500Y-113942686D01*
X144807314Y-113849500D01*
X144807311Y-113849498D01*
X144807309Y-113849496D01*
X144693189Y-113783609D01*
X144693191Y-113783609D01*
X144641452Y-113769746D01*
X144565892Y-113749500D01*
X144434108Y-113749500D01*
X144358548Y-113769746D01*
X144306809Y-113783609D01*
X144192690Y-113849496D01*
X144099496Y-113942690D01*
X144033609Y-114056809D01*
X144033608Y-114056814D01*
X143999500Y-114184108D01*
X125500500Y-114184108D01*
X125500500Y-112896532D01*
X126574500Y-112896532D01*
X126574500Y-113103467D01*
X126614869Y-113306418D01*
X126694058Y-113497597D01*
X126694059Y-113497598D01*
X126809023Y-113669655D01*
X126955345Y-113815977D01*
X127127402Y-113930941D01*
X127318580Y-114010130D01*
X127521535Y-114050500D01*
X127521536Y-114050500D01*
X127978464Y-114050500D01*
X127978465Y-114050500D01*
X128181420Y-114010130D01*
X128372598Y-113930941D01*
X128544655Y-113815977D01*
X128690977Y-113669655D01*
X128805941Y-113497598D01*
X128885130Y-113306420D01*
X128925500Y-113103465D01*
X128925500Y-112896535D01*
X128885130Y-112693580D01*
X128805941Y-112502402D01*
X128760309Y-112434108D01*
X143999500Y-112434108D01*
X143999500Y-112565892D01*
X144029579Y-112678151D01*
X144033609Y-112693190D01*
X144099496Y-112807309D01*
X144099498Y-112807311D01*
X144099500Y-112807314D01*
X144192686Y-112900500D01*
X144192688Y-112900501D01*
X144192690Y-112900503D01*
X144306810Y-112966390D01*
X144306808Y-112966390D01*
X144306812Y-112966391D01*
X144306814Y-112966392D01*
X144434108Y-113000500D01*
X144434110Y-113000500D01*
X144565890Y-113000500D01*
X144565892Y-113000500D01*
X144693186Y-112966392D01*
X144693188Y-112966390D01*
X144693190Y-112966390D01*
X144807309Y-112900503D01*
X144807309Y-112900502D01*
X144807314Y-112900500D01*
X144900500Y-112807314D01*
X144966392Y-112693186D01*
X145000500Y-112565892D01*
X145000500Y-112434108D01*
X144966392Y-112306814D01*
X144966390Y-112306811D01*
X144966390Y-112306809D01*
X144900503Y-112192690D01*
X144900501Y-112192688D01*
X144900500Y-112192686D01*
X144807314Y-112099500D01*
X144807311Y-112099498D01*
X144807309Y-112099496D01*
X144693189Y-112033609D01*
X144693191Y-112033609D01*
X144643799Y-112020375D01*
X144565892Y-111999500D01*
X144434108Y-111999500D01*
X144356200Y-112020375D01*
X144306809Y-112033609D01*
X144192690Y-112099496D01*
X144099496Y-112192690D01*
X144033609Y-112306809D01*
X144033608Y-112306814D01*
X143999500Y-112434108D01*
X128760309Y-112434108D01*
X128690977Y-112330345D01*
X128544655Y-112184023D01*
X128544651Y-112184020D01*
X128372597Y-112069058D01*
X128181418Y-111989869D01*
X127978467Y-111949500D01*
X127978465Y-111949500D01*
X127521535Y-111949500D01*
X127521532Y-111949500D01*
X127318581Y-111989869D01*
X127127402Y-112069058D01*
X126955348Y-112184020D01*
X126809020Y-112330348D01*
X126694058Y-112502402D01*
X126614869Y-112693581D01*
X126574500Y-112896532D01*
X125500500Y-112896532D01*
X125500500Y-110396532D01*
X126574500Y-110396532D01*
X126574500Y-110603467D01*
X126614869Y-110806418D01*
X126694058Y-110997597D01*
X126809020Y-111169651D01*
X126809023Y-111169655D01*
X126955345Y-111315977D01*
X127127402Y-111430941D01*
X127318580Y-111510130D01*
X127521535Y-111550500D01*
X127521536Y-111550500D01*
X127978464Y-111550500D01*
X127978465Y-111550500D01*
X128181420Y-111510130D01*
X128372598Y-111430941D01*
X128544655Y-111315977D01*
X128690977Y-111169655D01*
X128805941Y-110997598D01*
X128832240Y-110934108D01*
X143999500Y-110934108D01*
X143999500Y-111065892D01*
X144023182Y-111154274D01*
X144033609Y-111193190D01*
X144099496Y-111307309D01*
X144099498Y-111307311D01*
X144099500Y-111307314D01*
X144192686Y-111400500D01*
X144192688Y-111400501D01*
X144192690Y-111400503D01*
X144306810Y-111466390D01*
X144306808Y-111466390D01*
X144306812Y-111466391D01*
X144306814Y-111466392D01*
X144434108Y-111500500D01*
X144434110Y-111500500D01*
X144565890Y-111500500D01*
X144565892Y-111500500D01*
X144693186Y-111466392D01*
X144693188Y-111466390D01*
X144693190Y-111466390D01*
X144807309Y-111400503D01*
X144807309Y-111400502D01*
X144807314Y-111400500D01*
X144900500Y-111307314D01*
X144966392Y-111193186D01*
X145000500Y-111065892D01*
X145000500Y-110934108D01*
X144966392Y-110806814D01*
X144966390Y-110806811D01*
X144966390Y-110806809D01*
X144900503Y-110692690D01*
X144900501Y-110692688D01*
X144900500Y-110692686D01*
X144807314Y-110599500D01*
X144807311Y-110599498D01*
X144807309Y-110599496D01*
X144693189Y-110533609D01*
X144693191Y-110533609D01*
X144643799Y-110520375D01*
X144565892Y-110499500D01*
X144434108Y-110499500D01*
X144356200Y-110520375D01*
X144306809Y-110533609D01*
X144192690Y-110599496D01*
X144099496Y-110692690D01*
X144033609Y-110806809D01*
X144033608Y-110806814D01*
X143999500Y-110934108D01*
X128832240Y-110934108D01*
X128885130Y-110806420D01*
X128925500Y-110603465D01*
X128925500Y-110396535D01*
X128885130Y-110193580D01*
X128805941Y-110002402D01*
X128690977Y-109830345D01*
X128544740Y-109684108D01*
X135999500Y-109684108D01*
X135999500Y-109815892D01*
X136007496Y-109845734D01*
X136033609Y-109943190D01*
X136099496Y-110057309D01*
X136099498Y-110057311D01*
X136099500Y-110057314D01*
X136192686Y-110150500D01*
X136192688Y-110150501D01*
X136192690Y-110150503D01*
X136306810Y-110216390D01*
X136306808Y-110216390D01*
X136306812Y-110216391D01*
X136306814Y-110216392D01*
X136434108Y-110250500D01*
X136434110Y-110250500D01*
X136565890Y-110250500D01*
X136565892Y-110250500D01*
X136641456Y-110230253D01*
X148049500Y-110230253D01*
X148049500Y-113769746D01*
X148049501Y-113769758D01*
X148061132Y-113828227D01*
X148061134Y-113828233D01*
X148105445Y-113894548D01*
X148105448Y-113894552D01*
X148171769Y-113938867D01*
X148216231Y-113947711D01*
X148230241Y-113950498D01*
X148230246Y-113950498D01*
X148230252Y-113950500D01*
X148230253Y-113950500D01*
X151769747Y-113950500D01*
X151769748Y-113950500D01*
X151828231Y-113938867D01*
X151894552Y-113894552D01*
X151938867Y-113828231D01*
X151950500Y-113769748D01*
X151950500Y-111684108D01*
X158249500Y-111684108D01*
X158249500Y-111815892D01*
X158279579Y-111928151D01*
X158283609Y-111943190D01*
X158349496Y-112057309D01*
X158349498Y-112057311D01*
X158349500Y-112057314D01*
X158442686Y-112150500D01*
X158442688Y-112150501D01*
X158442690Y-112150503D01*
X158556810Y-112216390D01*
X158556808Y-112216390D01*
X158556812Y-112216391D01*
X158556814Y-112216392D01*
X158684108Y-112250500D01*
X158684110Y-112250500D01*
X158815890Y-112250500D01*
X158815892Y-112250500D01*
X158943186Y-112216392D01*
X158943188Y-112216390D01*
X158943190Y-112216390D01*
X159057309Y-112150503D01*
X159057309Y-112150502D01*
X159057314Y-112150500D01*
X159150500Y-112057314D01*
X159189439Y-111989870D01*
X159216390Y-111943190D01*
X159216390Y-111943188D01*
X159216392Y-111943186D01*
X159250500Y-111815892D01*
X159250500Y-111684108D01*
X159240215Y-111645725D01*
X160499500Y-111645725D01*
X160499500Y-112854274D01*
X160502353Y-112884694D01*
X160502355Y-112884703D01*
X160547207Y-113012883D01*
X160627845Y-113122144D01*
X160627847Y-113122146D01*
X160627850Y-113122150D01*
X160627853Y-113122152D01*
X160627855Y-113122154D01*
X160737116Y-113202792D01*
X160737117Y-113202792D01*
X160737118Y-113202793D01*
X160865301Y-113247646D01*
X160895725Y-113250499D01*
X160895727Y-113250500D01*
X160895734Y-113250500D01*
X162104273Y-113250500D01*
X162104273Y-113250499D01*
X162134699Y-113247646D01*
X162262882Y-113202793D01*
X162372150Y-113122150D01*
X162452793Y-113012882D01*
X162493505Y-112896532D01*
X170824500Y-112896532D01*
X170824500Y-113103467D01*
X170864869Y-113306418D01*
X170944058Y-113497597D01*
X170944059Y-113497598D01*
X171059023Y-113669655D01*
X171205345Y-113815977D01*
X171377402Y-113930941D01*
X171568580Y-114010130D01*
X171771535Y-114050500D01*
X171771536Y-114050500D01*
X172228464Y-114050500D01*
X172228465Y-114050500D01*
X172431420Y-114010130D01*
X172622598Y-113930941D01*
X172794655Y-113815977D01*
X172940977Y-113669655D01*
X173055941Y-113497598D01*
X173135130Y-113306420D01*
X173175500Y-113103465D01*
X173175500Y-112896535D01*
X173135130Y-112693580D01*
X173055941Y-112502402D01*
X172940977Y-112330345D01*
X172794655Y-112184023D01*
X172794651Y-112184020D01*
X172622597Y-112069058D01*
X172431418Y-111989869D01*
X172228467Y-111949500D01*
X172228465Y-111949500D01*
X171771535Y-111949500D01*
X171771532Y-111949500D01*
X171568581Y-111989869D01*
X171377402Y-112069058D01*
X171205348Y-112184020D01*
X171059020Y-112330348D01*
X170944058Y-112502402D01*
X170864869Y-112693581D01*
X170824500Y-112896532D01*
X162493505Y-112896532D01*
X162497646Y-112884699D01*
X162500500Y-112854266D01*
X162500500Y-111645734D01*
X162500500Y-111645727D01*
X162500499Y-111645725D01*
X162497646Y-111615305D01*
X162497646Y-111615301D01*
X162452793Y-111487118D01*
X162437495Y-111466390D01*
X162372154Y-111377855D01*
X162372152Y-111377853D01*
X162372150Y-111377850D01*
X162372146Y-111377847D01*
X162372144Y-111377845D01*
X162262883Y-111297207D01*
X162134703Y-111252355D01*
X162134694Y-111252353D01*
X162104274Y-111249500D01*
X162104266Y-111249500D01*
X160895734Y-111249500D01*
X160895725Y-111249500D01*
X160865305Y-111252353D01*
X160865296Y-111252355D01*
X160737116Y-111297207D01*
X160627855Y-111377845D01*
X160627845Y-111377855D01*
X160547207Y-111487116D01*
X160502355Y-111615296D01*
X160502353Y-111615305D01*
X160499500Y-111645725D01*
X159240215Y-111645725D01*
X159216392Y-111556814D01*
X159216390Y-111556811D01*
X159216390Y-111556809D01*
X159150503Y-111442690D01*
X159150501Y-111442688D01*
X159150500Y-111442686D01*
X159057314Y-111349500D01*
X159057311Y-111349498D01*
X159057309Y-111349496D01*
X158943189Y-111283609D01*
X158943191Y-111283609D01*
X158893799Y-111270375D01*
X158815892Y-111249500D01*
X158684108Y-111249500D01*
X158606200Y-111270375D01*
X158556809Y-111283609D01*
X158442690Y-111349496D01*
X158349496Y-111442690D01*
X158283609Y-111556809D01*
X158264539Y-111627978D01*
X158249500Y-111684108D01*
X151950500Y-111684108D01*
X151950500Y-110230252D01*
X151938867Y-110171769D01*
X151894552Y-110105448D01*
X151894548Y-110105445D01*
X151828233Y-110061134D01*
X151828231Y-110061133D01*
X151828228Y-110061132D01*
X151828227Y-110061132D01*
X151769758Y-110049501D01*
X151769748Y-110049500D01*
X148230252Y-110049500D01*
X148230251Y-110049500D01*
X148230241Y-110049501D01*
X148171772Y-110061132D01*
X148171766Y-110061134D01*
X148105451Y-110105445D01*
X148105445Y-110105451D01*
X148061134Y-110171766D01*
X148061132Y-110171772D01*
X148049501Y-110230241D01*
X148049500Y-110230253D01*
X136641456Y-110230253D01*
X136693186Y-110216392D01*
X136693188Y-110216390D01*
X136693190Y-110216390D01*
X136807309Y-110150503D01*
X136807309Y-110150502D01*
X136807314Y-110150500D01*
X136900500Y-110057314D01*
X136905012Y-110049500D01*
X136920076Y-110023406D01*
X136966392Y-109943186D01*
X136968824Y-109934108D01*
X158249500Y-109934108D01*
X158249500Y-110065892D01*
X158272171Y-110150503D01*
X158283609Y-110193190D01*
X158349496Y-110307309D01*
X158349498Y-110307311D01*
X158349500Y-110307314D01*
X158442686Y-110400500D01*
X158442688Y-110400501D01*
X158442690Y-110400503D01*
X158556810Y-110466390D01*
X158556808Y-110466390D01*
X158556812Y-110466391D01*
X158556814Y-110466392D01*
X158684108Y-110500500D01*
X158684110Y-110500500D01*
X158815890Y-110500500D01*
X158815892Y-110500500D01*
X158943186Y-110466392D01*
X158943188Y-110466390D01*
X158943190Y-110466390D01*
X159057309Y-110400503D01*
X159057309Y-110400502D01*
X159057314Y-110400500D01*
X159150500Y-110307314D01*
X159183302Y-110250500D01*
X159216390Y-110193190D01*
X159216390Y-110193188D01*
X159216392Y-110193186D01*
X159250500Y-110065892D01*
X159250500Y-109934108D01*
X159226818Y-109845725D01*
X170824500Y-109845725D01*
X170824500Y-111154274D01*
X170827353Y-111184694D01*
X170827355Y-111184703D01*
X170872207Y-111312883D01*
X170952845Y-111422144D01*
X170952847Y-111422146D01*
X170952850Y-111422150D01*
X170952853Y-111422152D01*
X170952855Y-111422154D01*
X171062116Y-111502792D01*
X171062117Y-111502792D01*
X171062118Y-111502793D01*
X171190301Y-111547646D01*
X171220725Y-111550499D01*
X171220727Y-111550500D01*
X171220734Y-111550500D01*
X172779273Y-111550500D01*
X172779273Y-111550499D01*
X172809699Y-111547646D01*
X172937882Y-111502793D01*
X173047150Y-111422150D01*
X173127793Y-111312882D01*
X173172646Y-111184699D01*
X173175499Y-111154273D01*
X173175500Y-111154273D01*
X173175500Y-109845727D01*
X173175499Y-109845725D01*
X173172646Y-109815305D01*
X173172646Y-109815301D01*
X173127793Y-109687118D01*
X173125572Y-109684109D01*
X173047154Y-109577855D01*
X173047152Y-109577853D01*
X173047150Y-109577850D01*
X173047146Y-109577847D01*
X173047144Y-109577845D01*
X172937883Y-109497207D01*
X172809703Y-109452355D01*
X172809694Y-109452353D01*
X172779274Y-109449500D01*
X172779266Y-109449500D01*
X171220734Y-109449500D01*
X171220725Y-109449500D01*
X171190305Y-109452353D01*
X171190296Y-109452355D01*
X171062116Y-109497207D01*
X170952855Y-109577845D01*
X170952845Y-109577855D01*
X170872207Y-109687116D01*
X170827355Y-109815296D01*
X170827353Y-109815305D01*
X170824500Y-109845725D01*
X159226818Y-109845725D01*
X159216392Y-109806814D01*
X159216390Y-109806811D01*
X159216390Y-109806809D01*
X159150503Y-109692690D01*
X159150501Y-109692688D01*
X159150500Y-109692686D01*
X159057314Y-109599500D01*
X159057311Y-109599498D01*
X159057309Y-109599496D01*
X158943189Y-109533609D01*
X158943191Y-109533609D01*
X158893799Y-109520375D01*
X158815892Y-109499500D01*
X158684108Y-109499500D01*
X158606200Y-109520375D01*
X158556809Y-109533609D01*
X158442690Y-109599496D01*
X158349496Y-109692690D01*
X158283609Y-109806809D01*
X158264539Y-109877978D01*
X158249500Y-109934108D01*
X136968824Y-109934108D01*
X137000500Y-109815892D01*
X137000500Y-109684108D01*
X136966392Y-109556814D01*
X136966390Y-109556811D01*
X136966390Y-109556809D01*
X136900503Y-109442690D01*
X136900501Y-109442688D01*
X136900500Y-109442686D01*
X136807314Y-109349500D01*
X136807311Y-109349498D01*
X136807309Y-109349496D01*
X136693189Y-109283609D01*
X136693191Y-109283609D01*
X136678722Y-109279732D01*
X136565892Y-109249500D01*
X136434108Y-109249500D01*
X136356200Y-109270375D01*
X136306809Y-109283609D01*
X136192690Y-109349496D01*
X136099496Y-109442690D01*
X136033609Y-109556809D01*
X136022170Y-109599500D01*
X135999500Y-109684108D01*
X128544740Y-109684108D01*
X128544655Y-109684023D01*
X128499278Y-109653703D01*
X128372597Y-109569058D01*
X128181418Y-109489869D01*
X127978467Y-109449500D01*
X127978465Y-109449500D01*
X127521535Y-109449500D01*
X127521532Y-109449500D01*
X127318581Y-109489869D01*
X127127402Y-109569058D01*
X126955348Y-109684020D01*
X126809020Y-109830348D01*
X126694058Y-110002402D01*
X126614869Y-110193581D01*
X126574500Y-110396532D01*
X125500500Y-110396532D01*
X125500500Y-109184108D01*
X143999500Y-109184108D01*
X143999500Y-109315892D01*
X144029579Y-109428151D01*
X144033609Y-109443190D01*
X144099496Y-109557309D01*
X144099498Y-109557311D01*
X144099500Y-109557314D01*
X144192686Y-109650500D01*
X144192688Y-109650501D01*
X144192690Y-109650503D01*
X144306810Y-109716390D01*
X144306808Y-109716390D01*
X144306812Y-109716391D01*
X144306814Y-109716392D01*
X144434108Y-109750500D01*
X144434110Y-109750500D01*
X144565890Y-109750500D01*
X144565892Y-109750500D01*
X144693186Y-109716392D01*
X144693188Y-109716390D01*
X144693190Y-109716390D01*
X144807309Y-109650503D01*
X144807309Y-109650502D01*
X144807314Y-109650500D01*
X144900500Y-109557314D01*
X144939439Y-109489870D01*
X144966390Y-109443190D01*
X144966390Y-109443188D01*
X144966392Y-109443186D01*
X145000500Y-109315892D01*
X145000500Y-109184108D01*
X144966392Y-109056814D01*
X144966390Y-109056811D01*
X144966390Y-109056809D01*
X144900503Y-108942690D01*
X144900501Y-108942688D01*
X144900500Y-108942686D01*
X144807314Y-108849500D01*
X144807311Y-108849498D01*
X144807309Y-108849496D01*
X144749690Y-108816230D01*
X169149500Y-108816230D01*
X169149500Y-108983769D01*
X169182183Y-109148079D01*
X169182185Y-109148085D01*
X169246296Y-109302862D01*
X169277181Y-109349084D01*
X169339374Y-109442162D01*
X169457838Y-109560626D01*
X169597137Y-109653703D01*
X169751918Y-109717816D01*
X169916233Y-109750500D01*
X169916234Y-109750500D01*
X170083766Y-109750500D01*
X170083767Y-109750500D01*
X170101474Y-109746977D01*
X170104777Y-109746321D01*
X170127476Y-109741805D01*
X170248082Y-109717816D01*
X170402863Y-109653703D01*
X170542162Y-109560626D01*
X170660626Y-109442162D01*
X170753703Y-109302863D01*
X170817816Y-109148082D01*
X170850500Y-108983767D01*
X170850500Y-108816233D01*
X170817816Y-108651918D01*
X170753703Y-108497137D01*
X170660626Y-108357838D01*
X170542162Y-108239374D01*
X170402863Y-108146297D01*
X170402864Y-108146297D01*
X170402862Y-108146296D01*
X170248085Y-108082185D01*
X170248079Y-108082183D01*
X170083769Y-108049500D01*
X170083767Y-108049500D01*
X169916233Y-108049500D01*
X169916230Y-108049500D01*
X169751920Y-108082183D01*
X169751914Y-108082185D01*
X169597137Y-108146296D01*
X169457838Y-108239374D01*
X169457834Y-108239377D01*
X169339377Y-108357834D01*
X169339374Y-108357838D01*
X169246296Y-108497137D01*
X169182185Y-108651914D01*
X169182183Y-108651920D01*
X169149500Y-108816230D01*
X144749690Y-108816230D01*
X144693189Y-108783609D01*
X144693191Y-108783609D01*
X144643799Y-108770375D01*
X144565892Y-108749500D01*
X144434108Y-108749500D01*
X144356200Y-108770375D01*
X144306809Y-108783609D01*
X144192690Y-108849496D01*
X144099496Y-108942690D01*
X144033609Y-109056809D01*
X144033608Y-109056814D01*
X143999500Y-109184108D01*
X125500500Y-109184108D01*
X125500500Y-108184108D01*
X138249500Y-108184108D01*
X138249500Y-108315892D01*
X138279579Y-108428151D01*
X138283609Y-108443190D01*
X138349496Y-108557309D01*
X138349498Y-108557311D01*
X138349500Y-108557314D01*
X138442686Y-108650500D01*
X138442688Y-108650501D01*
X138442690Y-108650503D01*
X138556810Y-108716390D01*
X138556808Y-108716390D01*
X138556812Y-108716391D01*
X138556814Y-108716392D01*
X138684108Y-108750500D01*
X138684110Y-108750500D01*
X138815890Y-108750500D01*
X138815892Y-108750500D01*
X138943186Y-108716392D01*
X138943188Y-108716390D01*
X138943190Y-108716390D01*
X139057309Y-108650503D01*
X139057309Y-108650502D01*
X139057314Y-108650500D01*
X139150500Y-108557314D01*
X139150503Y-108557309D01*
X139216390Y-108443190D01*
X139216390Y-108443188D01*
X139216392Y-108443186D01*
X139250500Y-108315892D01*
X139250500Y-108184108D01*
X139216392Y-108056814D01*
X139216390Y-108056811D01*
X139216390Y-108056809D01*
X139150503Y-107942690D01*
X139150501Y-107942688D01*
X139150500Y-107942686D01*
X139057314Y-107849500D01*
X139057311Y-107849498D01*
X139057309Y-107849496D01*
X138943189Y-107783609D01*
X138943191Y-107783609D01*
X138889123Y-107769122D01*
X138815892Y-107749500D01*
X138684108Y-107749500D01*
X138610877Y-107769122D01*
X138556809Y-107783609D01*
X138442690Y-107849496D01*
X138349496Y-107942690D01*
X138283609Y-108056809D01*
X138283608Y-108056814D01*
X138249500Y-108184108D01*
X125500500Y-108184108D01*
X125500500Y-107434108D01*
X143999500Y-107434108D01*
X143999500Y-107565892D01*
X143999501Y-107565894D01*
X144033609Y-107693190D01*
X144099496Y-107807309D01*
X144099498Y-107807311D01*
X144099500Y-107807314D01*
X144192686Y-107900500D01*
X144192688Y-107900501D01*
X144192690Y-107900503D01*
X144306810Y-107966390D01*
X144306808Y-107966390D01*
X144306812Y-107966391D01*
X144306814Y-107966392D01*
X144434108Y-108000500D01*
X144434110Y-108000500D01*
X144565891Y-108000500D01*
X144565892Y-108000500D01*
X144651076Y-107977675D01*
X144712176Y-107980876D01*
X144759726Y-108019381D01*
X144775562Y-108078481D01*
X144772325Y-108098921D01*
X144749500Y-108184108D01*
X144749500Y-108315892D01*
X144779579Y-108428151D01*
X144783609Y-108443190D01*
X144849496Y-108557309D01*
X144849498Y-108557311D01*
X144849500Y-108557314D01*
X144942686Y-108650500D01*
X144942688Y-108650501D01*
X144942690Y-108650503D01*
X145056810Y-108716390D01*
X145056808Y-108716390D01*
X145056812Y-108716391D01*
X145056814Y-108716392D01*
X145184108Y-108750500D01*
X145184110Y-108750500D01*
X145315890Y-108750500D01*
X145315892Y-108750500D01*
X145443186Y-108716392D01*
X145443188Y-108716390D01*
X145443190Y-108716390D01*
X145557309Y-108650503D01*
X145557309Y-108650502D01*
X145557314Y-108650500D01*
X145650500Y-108557314D01*
X145650503Y-108557309D01*
X145716390Y-108443190D01*
X145716390Y-108443188D01*
X145716392Y-108443186D01*
X145750500Y-108315892D01*
X145750500Y-108184108D01*
X158249500Y-108184108D01*
X158249500Y-108315892D01*
X158279579Y-108428151D01*
X158283609Y-108443190D01*
X158349496Y-108557309D01*
X158349498Y-108557311D01*
X158349500Y-108557314D01*
X158442686Y-108650500D01*
X158442688Y-108650501D01*
X158442690Y-108650503D01*
X158556810Y-108716390D01*
X158556808Y-108716390D01*
X158556812Y-108716391D01*
X158556814Y-108716392D01*
X158684108Y-108750500D01*
X158684110Y-108750500D01*
X158815890Y-108750500D01*
X158815892Y-108750500D01*
X158943186Y-108716392D01*
X158943188Y-108716390D01*
X158943190Y-108716390D01*
X159057309Y-108650503D01*
X159057309Y-108650502D01*
X159057314Y-108650500D01*
X159150500Y-108557314D01*
X159150503Y-108557309D01*
X159216390Y-108443190D01*
X159216390Y-108443188D01*
X159216392Y-108443186D01*
X159250500Y-108315892D01*
X159250500Y-108184108D01*
X159216392Y-108056814D01*
X159216390Y-108056811D01*
X159216390Y-108056809D01*
X159150503Y-107942690D01*
X159150501Y-107942688D01*
X159150500Y-107942686D01*
X159057314Y-107849500D01*
X159057311Y-107849498D01*
X159057309Y-107849496D01*
X158943189Y-107783609D01*
X158943191Y-107783609D01*
X158889123Y-107769122D01*
X158815892Y-107749500D01*
X158684108Y-107749500D01*
X158610877Y-107769122D01*
X158556809Y-107783609D01*
X158442690Y-107849496D01*
X158349496Y-107942690D01*
X158283609Y-108056809D01*
X158283608Y-108056814D01*
X158249500Y-108184108D01*
X145750500Y-108184108D01*
X145716392Y-108056814D01*
X145716390Y-108056811D01*
X145716390Y-108056809D01*
X145650503Y-107942690D01*
X145650501Y-107942688D01*
X145650500Y-107942686D01*
X145557314Y-107849500D01*
X145557311Y-107849498D01*
X145557309Y-107849496D01*
X145443189Y-107783609D01*
X145443191Y-107783609D01*
X145389123Y-107769122D01*
X145315892Y-107749500D01*
X145184108Y-107749500D01*
X145098923Y-107772324D01*
X145037822Y-107769122D01*
X144990272Y-107730617D01*
X144974437Y-107671516D01*
X144977673Y-107651081D01*
X145000500Y-107565892D01*
X145000500Y-107434108D01*
X144966392Y-107306814D01*
X144966390Y-107306811D01*
X144966390Y-107306809D01*
X144900503Y-107192690D01*
X144900501Y-107192688D01*
X144900500Y-107192686D01*
X144807314Y-107099500D01*
X144807311Y-107099498D01*
X144807309Y-107099496D01*
X144693189Y-107033609D01*
X144693191Y-107033609D01*
X144643799Y-107020375D01*
X144565892Y-106999500D01*
X144434108Y-106999500D01*
X144356200Y-107020375D01*
X144306809Y-107033609D01*
X144192690Y-107099496D01*
X144099496Y-107192690D01*
X144033609Y-107306809D01*
X144033608Y-107306814D01*
X143999500Y-107434108D01*
X125500500Y-107434108D01*
X125500500Y-105016230D01*
X128899500Y-105016230D01*
X128899500Y-105183769D01*
X128932183Y-105348079D01*
X128932185Y-105348085D01*
X128996296Y-105502862D01*
X128996297Y-105502863D01*
X129089374Y-105642162D01*
X129207838Y-105760626D01*
X129347137Y-105853703D01*
X129501918Y-105917816D01*
X129666233Y-105950500D01*
X129666234Y-105950500D01*
X129833766Y-105950500D01*
X129833767Y-105950500D01*
X129998082Y-105917816D01*
X130152863Y-105853703D01*
X130292162Y-105760626D01*
X130368680Y-105684108D01*
X143999500Y-105684108D01*
X143999500Y-105815892D01*
X144022571Y-105901996D01*
X144033609Y-105943190D01*
X144099496Y-106057309D01*
X144099498Y-106057311D01*
X144099500Y-106057314D01*
X144192686Y-106150500D01*
X144192688Y-106150501D01*
X144192690Y-106150503D01*
X144306810Y-106216390D01*
X144306808Y-106216390D01*
X144306812Y-106216391D01*
X144306814Y-106216392D01*
X144434108Y-106250500D01*
X144434110Y-106250500D01*
X144565890Y-106250500D01*
X144565892Y-106250500D01*
X144693186Y-106216392D01*
X144693188Y-106216390D01*
X144693190Y-106216390D01*
X144807309Y-106150503D01*
X144807309Y-106150502D01*
X144807314Y-106150500D01*
X144900500Y-106057314D01*
X144966392Y-105943186D01*
X144968824Y-105934108D01*
X147999500Y-105934108D01*
X147999500Y-106065892D01*
X148022171Y-106150503D01*
X148033609Y-106193190D01*
X148099496Y-106307309D01*
X148099498Y-106307311D01*
X148099500Y-106307314D01*
X148192686Y-106400500D01*
X148192688Y-106400501D01*
X148192690Y-106400503D01*
X148306810Y-106466390D01*
X148306808Y-106466390D01*
X148306812Y-106466391D01*
X148306814Y-106466392D01*
X148434108Y-106500500D01*
X148434110Y-106500500D01*
X148565890Y-106500500D01*
X148565892Y-106500500D01*
X148693186Y-106466392D01*
X148693188Y-106466390D01*
X148693190Y-106466390D01*
X148807309Y-106400503D01*
X148807309Y-106400502D01*
X148807314Y-106400500D01*
X148900500Y-106307314D01*
X148966392Y-106193186D01*
X149000500Y-106065892D01*
X149000500Y-105934108D01*
X148966392Y-105806814D01*
X148966390Y-105806811D01*
X148966390Y-105806809D01*
X148900503Y-105692690D01*
X148900501Y-105692688D01*
X148900500Y-105692686D01*
X148807314Y-105599500D01*
X148807311Y-105599498D01*
X148807309Y-105599496D01*
X148693189Y-105533609D01*
X148693191Y-105533609D01*
X148643799Y-105520375D01*
X148565892Y-105499500D01*
X148434108Y-105499500D01*
X148356200Y-105520375D01*
X148306809Y-105533609D01*
X148192690Y-105599496D01*
X148099496Y-105692690D01*
X148033609Y-105806809D01*
X148021044Y-105853703D01*
X147999500Y-105934108D01*
X144968824Y-105934108D01*
X145000500Y-105815892D01*
X145000500Y-105684108D01*
X144966392Y-105556814D01*
X144966390Y-105556811D01*
X144966390Y-105556809D01*
X144900503Y-105442690D01*
X144900501Y-105442688D01*
X144900500Y-105442686D01*
X144807314Y-105349500D01*
X144807311Y-105349498D01*
X144807309Y-105349496D01*
X144693189Y-105283609D01*
X144693191Y-105283609D01*
X144643799Y-105270375D01*
X144565892Y-105249500D01*
X144434108Y-105249500D01*
X144356200Y-105270375D01*
X144306809Y-105283609D01*
X144192690Y-105349496D01*
X144099496Y-105442690D01*
X144033609Y-105556809D01*
X144022170Y-105599500D01*
X143999500Y-105684108D01*
X130368680Y-105684108D01*
X130410626Y-105642162D01*
X130503703Y-105502863D01*
X130567816Y-105348082D01*
X130600500Y-105183767D01*
X130600500Y-105016233D01*
X130567816Y-104851918D01*
X130503703Y-104697137D01*
X130410626Y-104557838D01*
X130292162Y-104439374D01*
X130157657Y-104349500D01*
X130152862Y-104346296D01*
X129998085Y-104282185D01*
X129998079Y-104282183D01*
X129833769Y-104249500D01*
X129833767Y-104249500D01*
X129666233Y-104249500D01*
X129666230Y-104249500D01*
X129501920Y-104282183D01*
X129501914Y-104282185D01*
X129347137Y-104346296D01*
X129207838Y-104439374D01*
X129207834Y-104439377D01*
X129089377Y-104557834D01*
X129089374Y-104557838D01*
X128996296Y-104697137D01*
X128932185Y-104851914D01*
X128932183Y-104851920D01*
X128899500Y-105016230D01*
X125500500Y-105016230D01*
X125500500Y-102845725D01*
X126574500Y-102845725D01*
X126574500Y-104154274D01*
X126577353Y-104184694D01*
X126577355Y-104184703D01*
X126622207Y-104312883D01*
X126702845Y-104422144D01*
X126702847Y-104422146D01*
X126702850Y-104422150D01*
X126702853Y-104422152D01*
X126702855Y-104422154D01*
X126812116Y-104502792D01*
X126812117Y-104502792D01*
X126812118Y-104502793D01*
X126940301Y-104547646D01*
X126970725Y-104550499D01*
X126970727Y-104550500D01*
X126970734Y-104550500D01*
X128529273Y-104550500D01*
X128529273Y-104550499D01*
X128559699Y-104547646D01*
X128687882Y-104502793D01*
X128797150Y-104422150D01*
X128877793Y-104312882D01*
X128922646Y-104184699D01*
X128925499Y-104154273D01*
X128925500Y-104154273D01*
X128925500Y-102845727D01*
X128925499Y-102845725D01*
X128922646Y-102815301D01*
X128877793Y-102687118D01*
X128813128Y-102599500D01*
X128797154Y-102577855D01*
X128797152Y-102577853D01*
X128797150Y-102577850D01*
X128797146Y-102577847D01*
X128797144Y-102577845D01*
X128687883Y-102497207D01*
X128559703Y-102452355D01*
X128559694Y-102452353D01*
X128529274Y-102449500D01*
X128529266Y-102449500D01*
X126970734Y-102449500D01*
X126970725Y-102449500D01*
X126940305Y-102452353D01*
X126940296Y-102452355D01*
X126812116Y-102497207D01*
X126702855Y-102577845D01*
X126702845Y-102577855D01*
X126622207Y-102687116D01*
X126577355Y-102815296D01*
X126577353Y-102815305D01*
X126574500Y-102845725D01*
X125500500Y-102845725D01*
X125500500Y-102184108D01*
X131449500Y-102184108D01*
X131449500Y-102315892D01*
X131468457Y-102386641D01*
X131483609Y-102443190D01*
X131549496Y-102557309D01*
X131549498Y-102557311D01*
X131549500Y-102557314D01*
X131642686Y-102650500D01*
X131642688Y-102650501D01*
X131642690Y-102650503D01*
X131756810Y-102716390D01*
X131756808Y-102716390D01*
X131756812Y-102716391D01*
X131756814Y-102716392D01*
X131884108Y-102750500D01*
X131884110Y-102750500D01*
X132015891Y-102750500D01*
X132015892Y-102750500D01*
X132047207Y-102742109D01*
X132108307Y-102745310D01*
X132155857Y-102783814D01*
X132171694Y-102842915D01*
X132168457Y-102863357D01*
X132149500Y-102934108D01*
X132149500Y-103065892D01*
X132177395Y-103170000D01*
X132183609Y-103193190D01*
X132249496Y-103307309D01*
X132249498Y-103307311D01*
X132249500Y-103307314D01*
X132342686Y-103400500D01*
X132342688Y-103400501D01*
X132366525Y-103414264D01*
X132407465Y-103459734D01*
X132413860Y-103520584D01*
X132383267Y-103573572D01*
X132366525Y-103585736D01*
X132342688Y-103599498D01*
X132249496Y-103692690D01*
X132183609Y-103806809D01*
X132183608Y-103806814D01*
X132149500Y-103934108D01*
X132149500Y-104065892D01*
X132173182Y-104154274D01*
X132183609Y-104193190D01*
X132249496Y-104307309D01*
X132249498Y-104307311D01*
X132249500Y-104307314D01*
X132342686Y-104400500D01*
X132342688Y-104400501D01*
X132342690Y-104400503D01*
X132456810Y-104466390D01*
X132456808Y-104466390D01*
X132456812Y-104466391D01*
X132456814Y-104466392D01*
X132584108Y-104500500D01*
X132584110Y-104500500D01*
X132715890Y-104500500D01*
X132715892Y-104500500D01*
X132843186Y-104466392D01*
X132843188Y-104466390D01*
X132843190Y-104466390D01*
X132957309Y-104400503D01*
X132957309Y-104400502D01*
X132957314Y-104400500D01*
X133050500Y-104307314D01*
X133065009Y-104282184D01*
X133116390Y-104193190D01*
X133116390Y-104193188D01*
X133116392Y-104193186D01*
X133150500Y-104065892D01*
X133150500Y-103934108D01*
X133116392Y-103806814D01*
X133116390Y-103806811D01*
X133116390Y-103806809D01*
X133050503Y-103692690D01*
X133050501Y-103692688D01*
X133050500Y-103692686D01*
X132957314Y-103599500D01*
X132933474Y-103585735D01*
X132892534Y-103540267D01*
X132886138Y-103479417D01*
X132916731Y-103426429D01*
X132933474Y-103414264D01*
X132957314Y-103400500D01*
X133050500Y-103307314D01*
X133116392Y-103193186D01*
X133150500Y-103065892D01*
X133150500Y-102934108D01*
X133116392Y-102806814D01*
X133116390Y-102806811D01*
X133116390Y-102806809D01*
X133050503Y-102692690D01*
X133050501Y-102692688D01*
X133050500Y-102692686D01*
X132957314Y-102599500D01*
X132957311Y-102599498D01*
X132957309Y-102599496D01*
X132843189Y-102533609D01*
X132843191Y-102533609D01*
X132793799Y-102520375D01*
X132715892Y-102499500D01*
X132584108Y-102499500D01*
X132568933Y-102503565D01*
X132552791Y-102507891D01*
X132491689Y-102504688D01*
X132444140Y-102466182D01*
X132428305Y-102407081D01*
X132431540Y-102386650D01*
X132450500Y-102315892D01*
X132450500Y-102184108D01*
X132416392Y-102056814D01*
X132416390Y-102056811D01*
X132416390Y-102056809D01*
X132350503Y-101942690D01*
X132350501Y-101942688D01*
X132350500Y-101942686D01*
X132257314Y-101849500D01*
X132257311Y-101849498D01*
X132257309Y-101849496D01*
X132143189Y-101783609D01*
X132143191Y-101783609D01*
X132093799Y-101770375D01*
X132015892Y-101749500D01*
X131884108Y-101749500D01*
X131806200Y-101770375D01*
X131756809Y-101783609D01*
X131642690Y-101849496D01*
X131549496Y-101942690D01*
X131483609Y-102056809D01*
X131483608Y-102056814D01*
X131449500Y-102184108D01*
X125500500Y-102184108D01*
X125500500Y-100896532D01*
X126574500Y-100896532D01*
X126574500Y-101103467D01*
X126614869Y-101306418D01*
X126694058Y-101497597D01*
X126809020Y-101669651D01*
X126809023Y-101669655D01*
X126955345Y-101815977D01*
X127127402Y-101930941D01*
X127318580Y-102010130D01*
X127521535Y-102050500D01*
X127521536Y-102050500D01*
X127978464Y-102050500D01*
X127978465Y-102050500D01*
X128181420Y-102010130D01*
X128372598Y-101930941D01*
X128544655Y-101815977D01*
X128690977Y-101669655D01*
X128805941Y-101497598D01*
X128885130Y-101306420D01*
X128925500Y-101103465D01*
X128925500Y-100896535D01*
X128885130Y-100693580D01*
X128881207Y-100684108D01*
X131749500Y-100684108D01*
X131749500Y-100815892D01*
X131762169Y-100863172D01*
X131783609Y-100943190D01*
X131849496Y-101057309D01*
X131849498Y-101057311D01*
X131849500Y-101057314D01*
X131942686Y-101150500D01*
X131942688Y-101150501D01*
X131942690Y-101150503D01*
X132056810Y-101216390D01*
X132056808Y-101216390D01*
X132056812Y-101216391D01*
X132056814Y-101216392D01*
X132184108Y-101250500D01*
X132184110Y-101250500D01*
X132315890Y-101250500D01*
X132315892Y-101250500D01*
X132443186Y-101216392D01*
X132443188Y-101216390D01*
X132443190Y-101216390D01*
X132557309Y-101150503D01*
X132557309Y-101150502D01*
X132557314Y-101150500D01*
X132650500Y-101057314D01*
X132655013Y-101049497D01*
X132716390Y-100943190D01*
X132716390Y-100943188D01*
X132716392Y-100943186D01*
X132750500Y-100815892D01*
X132750500Y-100684108D01*
X132716392Y-100556814D01*
X132716390Y-100556811D01*
X132716390Y-100556809D01*
X132650503Y-100442690D01*
X132650501Y-100442688D01*
X132650500Y-100442686D01*
X132557314Y-100349500D01*
X132557311Y-100349498D01*
X132557309Y-100349496D01*
X132443189Y-100283609D01*
X132443191Y-100283609D01*
X132393799Y-100270375D01*
X132315892Y-100249500D01*
X132184108Y-100249500D01*
X132106200Y-100270375D01*
X132056809Y-100283609D01*
X131942690Y-100349496D01*
X131849496Y-100442690D01*
X131783609Y-100556809D01*
X131783608Y-100556814D01*
X131749500Y-100684108D01*
X128881207Y-100684108D01*
X128805941Y-100502402D01*
X128690977Y-100330345D01*
X128544655Y-100184023D01*
X128533408Y-100176508D01*
X128372597Y-100069058D01*
X128181418Y-99989869D01*
X127978467Y-99949500D01*
X127978465Y-99949500D01*
X127521535Y-99949500D01*
X127521532Y-99949500D01*
X127318581Y-99989869D01*
X127127402Y-100069058D01*
X126955348Y-100184020D01*
X126809020Y-100330348D01*
X126694058Y-100502402D01*
X126614869Y-100693581D01*
X126574500Y-100896532D01*
X125500500Y-100896532D01*
X125500500Y-98396532D01*
X126574500Y-98396532D01*
X126574500Y-98603467D01*
X126614869Y-98806418D01*
X126694058Y-98997597D01*
X126809020Y-99169651D01*
X126809023Y-99169655D01*
X126955345Y-99315977D01*
X127127402Y-99430941D01*
X127318580Y-99510130D01*
X127521535Y-99550500D01*
X127521536Y-99550500D01*
X127978464Y-99550500D01*
X127978465Y-99550500D01*
X128181420Y-99510130D01*
X128372598Y-99430941D01*
X128544655Y-99315977D01*
X128690977Y-99169655D01*
X128805941Y-98997598D01*
X128885130Y-98806420D01*
X128925500Y-98603465D01*
X128925500Y-98396535D01*
X128885130Y-98193580D01*
X128805941Y-98002402D01*
X128690977Y-97830345D01*
X128544655Y-97684023D01*
X128544651Y-97684020D01*
X128372597Y-97569058D01*
X128181418Y-97489869D01*
X127978467Y-97449500D01*
X127978465Y-97449500D01*
X127521535Y-97449500D01*
X127521532Y-97449500D01*
X127318581Y-97489869D01*
X127127402Y-97569058D01*
X126955348Y-97684020D01*
X126809020Y-97830348D01*
X126694058Y-98002402D01*
X126614869Y-98193581D01*
X126574500Y-98396532D01*
X125500500Y-98396532D01*
X125500500Y-95896532D01*
X126574500Y-95896532D01*
X126574500Y-96103467D01*
X126614869Y-96306418D01*
X126694058Y-96497597D01*
X126809020Y-96669651D01*
X126809023Y-96669655D01*
X126955345Y-96815977D01*
X127127402Y-96930941D01*
X127318580Y-97010130D01*
X127521535Y-97050500D01*
X127521536Y-97050500D01*
X127978464Y-97050500D01*
X127978465Y-97050500D01*
X128181420Y-97010130D01*
X128372598Y-96930941D01*
X128544655Y-96815977D01*
X128690977Y-96669655D01*
X128805941Y-96497598D01*
X128884017Y-96309108D01*
X131999500Y-96309108D01*
X131999500Y-96440892D01*
X132014694Y-96497597D01*
X132033609Y-96568190D01*
X132099496Y-96682309D01*
X132099498Y-96682311D01*
X132099500Y-96682314D01*
X132192686Y-96775500D01*
X132192688Y-96775501D01*
X132192690Y-96775503D01*
X132306810Y-96841390D01*
X132306808Y-96841390D01*
X132306812Y-96841391D01*
X132306814Y-96841392D01*
X132434108Y-96875500D01*
X132434110Y-96875500D01*
X132565890Y-96875500D01*
X132565892Y-96875500D01*
X132693186Y-96841392D01*
X132693188Y-96841390D01*
X132693190Y-96841390D01*
X132807309Y-96775503D01*
X132807309Y-96775502D01*
X132807314Y-96775500D01*
X132900500Y-96682314D01*
X132919156Y-96650001D01*
X132966390Y-96568190D01*
X132966390Y-96568188D01*
X132966392Y-96568186D01*
X133000500Y-96440892D01*
X133000500Y-96309108D01*
X132966392Y-96181814D01*
X132966390Y-96181811D01*
X132966390Y-96181809D01*
X132900503Y-96067690D01*
X132900501Y-96067688D01*
X132900500Y-96067686D01*
X132807314Y-95974500D01*
X132807311Y-95974498D01*
X132807309Y-95974496D01*
X132693189Y-95908609D01*
X132693191Y-95908609D01*
X132643799Y-95895375D01*
X132565892Y-95874500D01*
X132434108Y-95874500D01*
X132356200Y-95895375D01*
X132306809Y-95908609D01*
X132192690Y-95974496D01*
X132099496Y-96067690D01*
X132033609Y-96181809D01*
X132033608Y-96181814D01*
X131999500Y-96309108D01*
X128884017Y-96309108D01*
X128885130Y-96306420D01*
X128925500Y-96103465D01*
X128925500Y-95896535D01*
X128885130Y-95693580D01*
X128805941Y-95502402D01*
X128690977Y-95330345D01*
X128544655Y-95184023D01*
X128544651Y-95184020D01*
X128372597Y-95069058D01*
X128181418Y-94989869D01*
X127978467Y-94949500D01*
X127978465Y-94949500D01*
X127521535Y-94949500D01*
X127521532Y-94949500D01*
X127318581Y-94989869D01*
X127127402Y-95069058D01*
X126955348Y-95184020D01*
X126809020Y-95330348D01*
X126694058Y-95502402D01*
X126614869Y-95693581D01*
X126574500Y-95896532D01*
X125500500Y-95896532D01*
X125500500Y-92934108D01*
X132999500Y-92934108D01*
X132999500Y-93065892D01*
X133020343Y-93143680D01*
X133033609Y-93193190D01*
X133099496Y-93307309D01*
X133099498Y-93307311D01*
X133099500Y-93307314D01*
X133192686Y-93400500D01*
X133192688Y-93400501D01*
X133192690Y-93400503D01*
X133306810Y-93466390D01*
X133306808Y-93466390D01*
X133306812Y-93466391D01*
X133306814Y-93466392D01*
X133434108Y-93500500D01*
X133434110Y-93500500D01*
X133565890Y-93500500D01*
X133565892Y-93500500D01*
X133693186Y-93466392D01*
X133693188Y-93466390D01*
X133693190Y-93466390D01*
X133807309Y-93400503D01*
X133807309Y-93400502D01*
X133807314Y-93400500D01*
X133900500Y-93307314D01*
X133966392Y-93193186D01*
X134000500Y-93065892D01*
X134000500Y-92934108D01*
X133966392Y-92806814D01*
X133966390Y-92806811D01*
X133966390Y-92806809D01*
X133900503Y-92692690D01*
X133900501Y-92692688D01*
X133900500Y-92692686D01*
X133807314Y-92599500D01*
X133807311Y-92599498D01*
X133807309Y-92599496D01*
X133693189Y-92533609D01*
X133693191Y-92533609D01*
X133643799Y-92520375D01*
X133565892Y-92499500D01*
X133434108Y-92499500D01*
X133356200Y-92520375D01*
X133306809Y-92533609D01*
X133192690Y-92599496D01*
X133099496Y-92692690D01*
X133033609Y-92806809D01*
X133027530Y-92829496D01*
X132999500Y-92934108D01*
X125500500Y-92934108D01*
X125500500Y-91601083D01*
X133897521Y-91601083D01*
X133897521Y-91732867D01*
X133903207Y-91754087D01*
X133931630Y-91860165D01*
X133997517Y-91974284D01*
X133997519Y-91974286D01*
X133997521Y-91974289D01*
X134090707Y-92067475D01*
X134090709Y-92067476D01*
X134090711Y-92067478D01*
X134204831Y-92133365D01*
X134204829Y-92133365D01*
X134204833Y-92133366D01*
X134204835Y-92133367D01*
X134332129Y-92167475D01*
X134332131Y-92167475D01*
X134463911Y-92167475D01*
X134463913Y-92167475D01*
X134591207Y-92133367D01*
X134591209Y-92133365D01*
X134591211Y-92133365D01*
X134705330Y-92067478D01*
X134705330Y-92067477D01*
X134705335Y-92067475D01*
X134798521Y-91974289D01*
X134798524Y-91974284D01*
X134864411Y-91860165D01*
X134864411Y-91860163D01*
X134864413Y-91860161D01*
X134898521Y-91732867D01*
X134898521Y-91601083D01*
X134864413Y-91473789D01*
X134864411Y-91473786D01*
X134864411Y-91473784D01*
X134798524Y-91359665D01*
X134798522Y-91359663D01*
X134798521Y-91359661D01*
X134705335Y-91266475D01*
X134705332Y-91266473D01*
X134705330Y-91266471D01*
X134591210Y-91200584D01*
X134591212Y-91200584D01*
X134541820Y-91187350D01*
X134463913Y-91166475D01*
X134332129Y-91166475D01*
X134254221Y-91187350D01*
X134204830Y-91200584D01*
X134090711Y-91266471D01*
X133997517Y-91359665D01*
X133931630Y-91473784D01*
X133931629Y-91473789D01*
X133897521Y-91601083D01*
X125500500Y-91601083D01*
X125500500Y-83297939D01*
X126328500Y-83297939D01*
X126328500Y-86688564D01*
X126348977Y-86764985D01*
X126348979Y-86764990D01*
X126373996Y-86808321D01*
X126388538Y-86833509D01*
X126388540Y-86833511D01*
X126734485Y-87179457D01*
X126762262Y-87233973D01*
X126759219Y-87278197D01*
X126758342Y-87281087D01*
X126729500Y-87426081D01*
X126729500Y-87573918D01*
X126758342Y-87718914D01*
X126808147Y-87839153D01*
X126814916Y-87855495D01*
X126897049Y-87978416D01*
X126983631Y-88064998D01*
X127011407Y-88119513D01*
X127001836Y-88179945D01*
X126983632Y-88205000D01*
X126931324Y-88257309D01*
X126897048Y-88291585D01*
X126814915Y-88414506D01*
X126758342Y-88551085D01*
X126729500Y-88696081D01*
X126729500Y-88843918D01*
X126758342Y-88988914D01*
X126814915Y-89125493D01*
X126814916Y-89125495D01*
X126897049Y-89248416D01*
X127001584Y-89352951D01*
X127124505Y-89435084D01*
X127261087Y-89491658D01*
X127406082Y-89520500D01*
X127406083Y-89520500D01*
X127553917Y-89520500D01*
X127553918Y-89520500D01*
X127698913Y-89491658D01*
X127785039Y-89455983D01*
X127835491Y-89435086D01*
X127835492Y-89435085D01*
X127835495Y-89435084D01*
X127891631Y-89397574D01*
X127950515Y-89380967D01*
X128007919Y-89402144D01*
X128028944Y-89424887D01*
X128055448Y-89464552D01*
X128121769Y-89508867D01*
X128166231Y-89517711D01*
X128180241Y-89520498D01*
X128180246Y-89520498D01*
X128180252Y-89520500D01*
X128180253Y-89520500D01*
X129319747Y-89520500D01*
X129319748Y-89520500D01*
X129378231Y-89508867D01*
X129444552Y-89464552D01*
X129488867Y-89398231D01*
X129500500Y-89339748D01*
X129500500Y-89035694D01*
X133954119Y-89035694D01*
X133954119Y-89167478D01*
X133958683Y-89184511D01*
X133988228Y-89294776D01*
X134054115Y-89408895D01*
X134054117Y-89408897D01*
X134054119Y-89408900D01*
X134147305Y-89502086D01*
X134147307Y-89502087D01*
X134147309Y-89502089D01*
X134261429Y-89567976D01*
X134261427Y-89567976D01*
X134261431Y-89567977D01*
X134261433Y-89567978D01*
X134388727Y-89602086D01*
X134388729Y-89602086D01*
X134520509Y-89602086D01*
X134520511Y-89602086D01*
X134647805Y-89567978D01*
X134647807Y-89567976D01*
X134647809Y-89567976D01*
X134761928Y-89502089D01*
X134761928Y-89502088D01*
X134761933Y-89502086D01*
X134855119Y-89408900D01*
X134921011Y-89294772D01*
X134955119Y-89167478D01*
X134955119Y-89035694D01*
X134921011Y-88908400D01*
X134921009Y-88908397D01*
X134921009Y-88908395D01*
X134855122Y-88794276D01*
X134855120Y-88794274D01*
X134855119Y-88794272D01*
X134761933Y-88701086D01*
X134761930Y-88701084D01*
X134761928Y-88701082D01*
X134647808Y-88635195D01*
X134647810Y-88635195D01*
X134598418Y-88621961D01*
X134520511Y-88601086D01*
X134388727Y-88601086D01*
X134310819Y-88621961D01*
X134261428Y-88635195D01*
X134147309Y-88701082D01*
X134054115Y-88794276D01*
X133988228Y-88908395D01*
X133969158Y-88979564D01*
X133954119Y-89035694D01*
X129500500Y-89035694D01*
X129500500Y-88200252D01*
X129488867Y-88141769D01*
X129444552Y-88075448D01*
X129428910Y-88064996D01*
X129378233Y-88031134D01*
X129378231Y-88031133D01*
X129378228Y-88031132D01*
X129378227Y-88031132D01*
X129319758Y-88019501D01*
X129319748Y-88019500D01*
X128220715Y-88019500D01*
X128162524Y-88000593D01*
X128126560Y-87951093D01*
X128126560Y-87889907D01*
X128138401Y-87865497D01*
X128140886Y-87861778D01*
X128145084Y-87855495D01*
X128201658Y-87718913D01*
X128230500Y-87573918D01*
X128230500Y-87426082D01*
X128201658Y-87281087D01*
X128145084Y-87144505D01*
X128062951Y-87021584D01*
X127976368Y-86935001D01*
X127948593Y-86880487D01*
X127958164Y-86820055D01*
X127976367Y-86794999D01*
X128062951Y-86708416D01*
X128145084Y-86585495D01*
X128201658Y-86448913D01*
X128230500Y-86303918D01*
X128230500Y-86156082D01*
X128201658Y-86011087D01*
X128145084Y-85874505D01*
X128062951Y-85751584D01*
X127976368Y-85665001D01*
X127969251Y-85651032D01*
X127958164Y-85639945D01*
X127955711Y-85624457D01*
X127948593Y-85610487D01*
X127951045Y-85595000D01*
X127948593Y-85579513D01*
X127955711Y-85565542D01*
X127958164Y-85550055D01*
X127976367Y-85524999D01*
X128044998Y-85456368D01*
X128099513Y-85428593D01*
X128159945Y-85438164D01*
X128185000Y-85456367D01*
X128271584Y-85542951D01*
X128394505Y-85625084D01*
X128531087Y-85681658D01*
X128676082Y-85710500D01*
X128676083Y-85710500D01*
X128823917Y-85710500D01*
X128823918Y-85710500D01*
X128968913Y-85681658D01*
X129105495Y-85625084D01*
X129228416Y-85542951D01*
X129332951Y-85438416D01*
X129415084Y-85315495D01*
X129471658Y-85178913D01*
X129500500Y-85033918D01*
X129500500Y-84886082D01*
X129471658Y-84741087D01*
X129463590Y-84721608D01*
X134212000Y-84721608D01*
X134212000Y-84853392D01*
X134231321Y-84925500D01*
X134246109Y-84980690D01*
X134311996Y-85094809D01*
X134311998Y-85094811D01*
X134312000Y-85094814D01*
X134405186Y-85188000D01*
X134405188Y-85188001D01*
X134405190Y-85188003D01*
X134519310Y-85253890D01*
X134519308Y-85253890D01*
X134519312Y-85253891D01*
X134519314Y-85253892D01*
X134646608Y-85288000D01*
X134646610Y-85288000D01*
X134778390Y-85288000D01*
X134778392Y-85288000D01*
X134905686Y-85253892D01*
X134905688Y-85253890D01*
X134905690Y-85253890D01*
X135019809Y-85188003D01*
X135019809Y-85188002D01*
X135019814Y-85188000D01*
X135113000Y-85094814D01*
X135129931Y-85065489D01*
X135178890Y-84980690D01*
X135178890Y-84980688D01*
X135178892Y-84980686D01*
X135213000Y-84853392D01*
X135213000Y-84721608D01*
X135178892Y-84594314D01*
X135178890Y-84594311D01*
X135178890Y-84594309D01*
X135113003Y-84480190D01*
X135113001Y-84480188D01*
X135113000Y-84480186D01*
X135019814Y-84387000D01*
X135019811Y-84386998D01*
X135019809Y-84386996D01*
X134905689Y-84321109D01*
X134905691Y-84321109D01*
X134856299Y-84307875D01*
X134778392Y-84287000D01*
X134646608Y-84287000D01*
X134568700Y-84307875D01*
X134519309Y-84321109D01*
X134405190Y-84386996D01*
X134311996Y-84480190D01*
X134246109Y-84594309D01*
X134232184Y-84646279D01*
X134212000Y-84721608D01*
X129463590Y-84721608D01*
X129415084Y-84604505D01*
X129332951Y-84481584D01*
X129228416Y-84377049D01*
X129105495Y-84294916D01*
X129105493Y-84294915D01*
X128968914Y-84238342D01*
X128823918Y-84209500D01*
X128676082Y-84209500D01*
X128676081Y-84209500D01*
X128531085Y-84238342D01*
X128394506Y-84294915D01*
X128298435Y-84359108D01*
X128271584Y-84377049D01*
X128185001Y-84463631D01*
X128171032Y-84470748D01*
X128159945Y-84481836D01*
X128144457Y-84484288D01*
X128130487Y-84491407D01*
X128115000Y-84488954D01*
X128099513Y-84491407D01*
X128085542Y-84484288D01*
X128070055Y-84481836D01*
X128044999Y-84463632D01*
X127976368Y-84395001D01*
X127948593Y-84340487D01*
X127958164Y-84280055D01*
X127976367Y-84254999D01*
X128062951Y-84168416D01*
X128145084Y-84045495D01*
X128201658Y-83908913D01*
X128230500Y-83763918D01*
X128230500Y-83616082D01*
X128201658Y-83471087D01*
X128145084Y-83334505D01*
X128062951Y-83211584D01*
X127958416Y-83107049D01*
X127835495Y-83024916D01*
X127776549Y-83000500D01*
X127698913Y-82968342D01*
X127689100Y-82966390D01*
X127650544Y-82958720D01*
X127597161Y-82928824D01*
X127571545Y-82873259D01*
X127583482Y-82813249D01*
X127599851Y-82791623D01*
X127957366Y-82434108D01*
X132999500Y-82434108D01*
X132999500Y-82565892D01*
X133029579Y-82678151D01*
X133033609Y-82693190D01*
X133099496Y-82807309D01*
X133099498Y-82807311D01*
X133099500Y-82807314D01*
X133192686Y-82900500D01*
X133192688Y-82900501D01*
X133192690Y-82900503D01*
X133306810Y-82966390D01*
X133306808Y-82966390D01*
X133306812Y-82966391D01*
X133306814Y-82966392D01*
X133434108Y-83000500D01*
X133434110Y-83000500D01*
X133565890Y-83000500D01*
X133565892Y-83000500D01*
X133693186Y-82966392D01*
X133693188Y-82966390D01*
X133693190Y-82966390D01*
X133807309Y-82900503D01*
X133807309Y-82900502D01*
X133807314Y-82900500D01*
X133878319Y-82829494D01*
X133932834Y-82801719D01*
X133948321Y-82800500D01*
X139084521Y-82800500D01*
X139142712Y-82819407D01*
X139154525Y-82829496D01*
X147606458Y-91281429D01*
X147613686Y-91295616D01*
X147624886Y-91306928D01*
X147627225Y-91322188D01*
X147634235Y-91335946D01*
X147631744Y-91351670D01*
X147634157Y-91367407D01*
X147627485Y-91378559D01*
X147624664Y-91396378D01*
X147606108Y-91421785D01*
X147600209Y-91427624D01*
X147598498Y-91428613D01*
X147527245Y-91499865D01*
X147527145Y-91499965D01*
X147500014Y-91513618D01*
X147472978Y-91527394D01*
X147472579Y-91527425D01*
X147472491Y-91527470D01*
X147472335Y-91527444D01*
X147457491Y-91528613D01*
X145149788Y-91528613D01*
X145073364Y-91549091D01*
X145073359Y-91549093D01*
X145051256Y-91561854D01*
X144991407Y-91574573D01*
X144935512Y-91549685D01*
X144906133Y-91501738D01*
X144898644Y-91473789D01*
X144898643Y-91473788D01*
X144898643Y-91473786D01*
X144898642Y-91473785D01*
X144832755Y-91359665D01*
X144832753Y-91359663D01*
X144832752Y-91359661D01*
X144739566Y-91266475D01*
X144739563Y-91266473D01*
X144739561Y-91266471D01*
X144625441Y-91200584D01*
X144625443Y-91200584D01*
X144576051Y-91187350D01*
X144498144Y-91166475D01*
X144366360Y-91166475D01*
X144288452Y-91187350D01*
X144239061Y-91200584D01*
X144124942Y-91266471D01*
X144031748Y-91359665D01*
X143965861Y-91473784D01*
X143931751Y-91601085D01*
X143930905Y-91607517D01*
X143929530Y-91607336D01*
X143912845Y-91658691D01*
X143863345Y-91694655D01*
X143832752Y-91699500D01*
X136710435Y-91699500D01*
X136634012Y-91719978D01*
X136574934Y-91754087D01*
X136565490Y-91759539D01*
X133741489Y-94583540D01*
X133741488Y-94583539D01*
X133685539Y-94639489D01*
X133645980Y-94708007D01*
X133645978Y-94708011D01*
X133625500Y-94784435D01*
X133625500Y-98551679D01*
X133606593Y-98609870D01*
X133596509Y-98621676D01*
X133553297Y-98664889D01*
X133525497Y-98692689D01*
X133525496Y-98692690D01*
X133459609Y-98806809D01*
X133459608Y-98806814D01*
X133425500Y-98934108D01*
X133425500Y-99065892D01*
X133437552Y-99110870D01*
X133459609Y-99193190D01*
X133525496Y-99307309D01*
X133525498Y-99307311D01*
X133525500Y-99307314D01*
X133618686Y-99400500D01*
X133618688Y-99400501D01*
X133618690Y-99400503D01*
X133732810Y-99466390D01*
X133732808Y-99466390D01*
X133732812Y-99466391D01*
X133732814Y-99466392D01*
X133860108Y-99500500D01*
X133860110Y-99500500D01*
X133991890Y-99500500D01*
X133991892Y-99500500D01*
X134119186Y-99466392D01*
X134119188Y-99466390D01*
X134119190Y-99466390D01*
X134233309Y-99400503D01*
X134233309Y-99400502D01*
X134233314Y-99400500D01*
X134280498Y-99353315D01*
X134335013Y-99325540D01*
X134395445Y-99335111D01*
X134438710Y-99378376D01*
X134449500Y-99423321D01*
X134449500Y-104551679D01*
X134430593Y-104609870D01*
X134420509Y-104621676D01*
X134383078Y-104659108D01*
X134349497Y-104692689D01*
X134349496Y-104692690D01*
X134283609Y-104806809D01*
X134271522Y-104851920D01*
X134249500Y-104934108D01*
X134249500Y-105065892D01*
X134272171Y-105150503D01*
X134283609Y-105193190D01*
X134349496Y-105307309D01*
X134349498Y-105307311D01*
X134349500Y-105307314D01*
X134442686Y-105400500D01*
X134442688Y-105400501D01*
X134442690Y-105400503D01*
X134556810Y-105466390D01*
X134556808Y-105466390D01*
X134556812Y-105466391D01*
X134556814Y-105466392D01*
X134684108Y-105500500D01*
X134684110Y-105500500D01*
X134815890Y-105500500D01*
X134815892Y-105500500D01*
X134943186Y-105466392D01*
X134943188Y-105466390D01*
X134943190Y-105466390D01*
X135057309Y-105400503D01*
X135057309Y-105400502D01*
X135057314Y-105400500D01*
X135150500Y-105307314D01*
X135183879Y-105249500D01*
X135216390Y-105193190D01*
X135216390Y-105193188D01*
X135216392Y-105193186D01*
X135250500Y-105065892D01*
X135250500Y-104934108D01*
X135216392Y-104806814D01*
X135216390Y-104806811D01*
X135216390Y-104806809D01*
X135161327Y-104711439D01*
X135150500Y-104692686D01*
X135116922Y-104659108D01*
X139999500Y-104659108D01*
X139999500Y-104790892D01*
X140006199Y-104815892D01*
X140033609Y-104918190D01*
X140099496Y-105032309D01*
X140099498Y-105032311D01*
X140099500Y-105032314D01*
X140192686Y-105125500D01*
X140192688Y-105125501D01*
X140192690Y-105125503D01*
X140306810Y-105191390D01*
X140306808Y-105191390D01*
X140306812Y-105191391D01*
X140306814Y-105191392D01*
X140434108Y-105225500D01*
X140434110Y-105225500D01*
X140565890Y-105225500D01*
X140565892Y-105225500D01*
X140693186Y-105191392D01*
X140693188Y-105191390D01*
X140693190Y-105191390D01*
X140807309Y-105125503D01*
X140807309Y-105125502D01*
X140807314Y-105125500D01*
X140900500Y-105032314D01*
X140901823Y-105030022D01*
X140966390Y-104918190D01*
X140966390Y-104918188D01*
X140966392Y-104918186D01*
X141000500Y-104790892D01*
X141000500Y-104659108D01*
X140966392Y-104531814D01*
X140966390Y-104531811D01*
X140966390Y-104531809D01*
X140900503Y-104417690D01*
X140900501Y-104417688D01*
X140900500Y-104417686D01*
X140807314Y-104324500D01*
X140807311Y-104324498D01*
X140807309Y-104324496D01*
X140693189Y-104258609D01*
X140693191Y-104258609D01*
X140643799Y-104245375D01*
X140565892Y-104224500D01*
X140434108Y-104224500D01*
X140356200Y-104245375D01*
X140306809Y-104258609D01*
X140192690Y-104324496D01*
X140099496Y-104417690D01*
X140033609Y-104531809D01*
X140017341Y-104592525D01*
X139999500Y-104659108D01*
X135116922Y-104659108D01*
X135077902Y-104620088D01*
X135076397Y-104618440D01*
X135064639Y-104592525D01*
X135051719Y-104567166D01*
X135051421Y-104563390D01*
X135051118Y-104562721D01*
X135051299Y-104561836D01*
X135050500Y-104551679D01*
X135050500Y-102634105D01*
X139749500Y-102634105D01*
X139749500Y-102765889D01*
X139762740Y-102815301D01*
X139783609Y-102893187D01*
X139849496Y-103007306D01*
X139849498Y-103007308D01*
X139849500Y-103007311D01*
X139872185Y-103029996D01*
X139899961Y-103084511D01*
X139890390Y-103144943D01*
X139872185Y-103170000D01*
X139849499Y-103192686D01*
X139783609Y-103306809D01*
X139783608Y-103306814D01*
X139749500Y-103434108D01*
X139749500Y-103565892D01*
X139759567Y-103603463D01*
X139783609Y-103693190D01*
X139849496Y-103807309D01*
X139849498Y-103807311D01*
X139849500Y-103807314D01*
X139942686Y-103900500D01*
X139942688Y-103900501D01*
X139942690Y-103900503D01*
X140056810Y-103966390D01*
X140056808Y-103966390D01*
X140056812Y-103966391D01*
X140056814Y-103966392D01*
X140184108Y-104000500D01*
X140184110Y-104000500D01*
X140315890Y-104000500D01*
X140315892Y-104000500D01*
X140443186Y-103966392D01*
X140443188Y-103966390D01*
X140443190Y-103966390D01*
X140557309Y-103900503D01*
X140557309Y-103900502D01*
X140557314Y-103900500D01*
X140650500Y-103807314D01*
X140716392Y-103693186D01*
X140750500Y-103565892D01*
X140750500Y-103434108D01*
X152749500Y-103434108D01*
X152749500Y-103565892D01*
X152759567Y-103603463D01*
X152783609Y-103693190D01*
X152849496Y-103807309D01*
X152849498Y-103807311D01*
X152849500Y-103807314D01*
X152942686Y-103900500D01*
X152942688Y-103900501D01*
X152942690Y-103900503D01*
X153056810Y-103966390D01*
X153056808Y-103966390D01*
X153056812Y-103966391D01*
X153056814Y-103966392D01*
X153184108Y-104000500D01*
X153184110Y-104000500D01*
X153315890Y-104000500D01*
X153315892Y-104000500D01*
X153443186Y-103966392D01*
X153443188Y-103966390D01*
X153443190Y-103966390D01*
X153557309Y-103900503D01*
X153557309Y-103900502D01*
X153557314Y-103900500D01*
X153650500Y-103807314D01*
X153716392Y-103693186D01*
X153750500Y-103565892D01*
X153750500Y-103434108D01*
X153716392Y-103306814D01*
X153716390Y-103306811D01*
X153716390Y-103306809D01*
X153650503Y-103192690D01*
X153650501Y-103192688D01*
X153650500Y-103192686D01*
X153557314Y-103099500D01*
X153557311Y-103099498D01*
X153557309Y-103099496D01*
X153443189Y-103033609D01*
X153443191Y-103033609D01*
X153393799Y-103020375D01*
X153315892Y-102999500D01*
X153184108Y-102999500D01*
X153106200Y-103020375D01*
X153056809Y-103033609D01*
X152942690Y-103099496D01*
X152849496Y-103192690D01*
X152783609Y-103306809D01*
X152783608Y-103306814D01*
X152749500Y-103434108D01*
X140750500Y-103434108D01*
X140716392Y-103306814D01*
X140716390Y-103306811D01*
X140716390Y-103306809D01*
X140650503Y-103192690D01*
X140650501Y-103192688D01*
X140650500Y-103192686D01*
X140627813Y-103169999D01*
X140600038Y-103115485D01*
X140609609Y-103055053D01*
X140627815Y-103029994D01*
X140650500Y-103007311D01*
X140716392Y-102893183D01*
X140750500Y-102765889D01*
X140750500Y-102634105D01*
X140716392Y-102506811D01*
X140716390Y-102506808D01*
X140716390Y-102506806D01*
X140650503Y-102392687D01*
X140650501Y-102392685D01*
X140650500Y-102392683D01*
X140557314Y-102299497D01*
X140557311Y-102299495D01*
X140557309Y-102299493D01*
X140443189Y-102233606D01*
X140443191Y-102233606D01*
X140393799Y-102220372D01*
X140315892Y-102199497D01*
X140184108Y-102199497D01*
X140106200Y-102220372D01*
X140056809Y-102233606D01*
X139942690Y-102299493D01*
X139849496Y-102392687D01*
X139783609Y-102506806D01*
X139770077Y-102557309D01*
X139749500Y-102634105D01*
X135050500Y-102634105D01*
X135050500Y-99434108D01*
X147249500Y-99434108D01*
X147249500Y-99565892D01*
X147279288Y-99677062D01*
X147283609Y-99693190D01*
X147349496Y-99807309D01*
X147349498Y-99807311D01*
X147349500Y-99807314D01*
X147442686Y-99900500D01*
X147442688Y-99900501D01*
X147442690Y-99900503D01*
X147556810Y-99966390D01*
X147556808Y-99966390D01*
X147556812Y-99966391D01*
X147556814Y-99966392D01*
X147684108Y-100000500D01*
X147684110Y-100000500D01*
X147815890Y-100000500D01*
X147815892Y-100000500D01*
X147943186Y-99966392D01*
X147943188Y-99966390D01*
X147943190Y-99966390D01*
X148057309Y-99900503D01*
X148057309Y-99900502D01*
X148057314Y-99900500D01*
X148150500Y-99807314D01*
X148183879Y-99749500D01*
X148216390Y-99693190D01*
X148216390Y-99693188D01*
X148216392Y-99693186D01*
X148250500Y-99565892D01*
X148250500Y-99434108D01*
X148216392Y-99306814D01*
X148150500Y-99192686D01*
X148102594Y-99144780D01*
X148849500Y-99144780D01*
X148849500Y-99276564D01*
X148869042Y-99349496D01*
X148883609Y-99403862D01*
X148949496Y-99517981D01*
X148949498Y-99517983D01*
X148949500Y-99517986D01*
X149042686Y-99611172D01*
X149042688Y-99611173D01*
X149042690Y-99611175D01*
X149156810Y-99677062D01*
X149156808Y-99677062D01*
X149156812Y-99677063D01*
X149156814Y-99677064D01*
X149284108Y-99711172D01*
X149284110Y-99711172D01*
X149415890Y-99711172D01*
X149415892Y-99711172D01*
X149543186Y-99677064D01*
X149543188Y-99677062D01*
X149543190Y-99677062D01*
X149657309Y-99611175D01*
X149657309Y-99611174D01*
X149657314Y-99611172D01*
X149728319Y-99540166D01*
X149782834Y-99512391D01*
X149798321Y-99511172D01*
X151445250Y-99511172D01*
X151503441Y-99530079D01*
X151515254Y-99540168D01*
X156965546Y-104990460D01*
X156965548Y-104990461D01*
X156965549Y-104990462D01*
X156965550Y-104990463D01*
X157034065Y-105030020D01*
X157034063Y-105030020D01*
X157034067Y-105030021D01*
X157034069Y-105030022D01*
X157110495Y-105050500D01*
X159051679Y-105050500D01*
X159109870Y-105069407D01*
X159121676Y-105079490D01*
X159192686Y-105150500D01*
X159192688Y-105150501D01*
X159192690Y-105150503D01*
X159306810Y-105216390D01*
X159306808Y-105216390D01*
X159306812Y-105216391D01*
X159306814Y-105216392D01*
X159434108Y-105250500D01*
X159434110Y-105250500D01*
X159565890Y-105250500D01*
X159565892Y-105250500D01*
X159693186Y-105216392D01*
X159693188Y-105216390D01*
X159693190Y-105216390D01*
X159807309Y-105150503D01*
X159807309Y-105150502D01*
X159807314Y-105150500D01*
X159900500Y-105057314D01*
X159939097Y-104990462D01*
X159966390Y-104943190D01*
X159966390Y-104943188D01*
X159966392Y-104943186D01*
X160000500Y-104815892D01*
X160000500Y-104684108D01*
X159966392Y-104556814D01*
X159966390Y-104556811D01*
X159966390Y-104556809D01*
X159900503Y-104442690D01*
X159900501Y-104442688D01*
X159900500Y-104442686D01*
X159807314Y-104349500D01*
X159807311Y-104349498D01*
X159807309Y-104349496D01*
X159693189Y-104283609D01*
X159693191Y-104283609D01*
X159643799Y-104270375D01*
X159565892Y-104249500D01*
X159434108Y-104249500D01*
X159356200Y-104270375D01*
X159306809Y-104283609D01*
X159192690Y-104349496D01*
X159192689Y-104349497D01*
X159192686Y-104349499D01*
X159192686Y-104349500D01*
X159121680Y-104420505D01*
X159067166Y-104448281D01*
X159051679Y-104449500D01*
X157315536Y-104449500D01*
X157257345Y-104430593D01*
X157245532Y-104420504D01*
X156221560Y-103396532D01*
X170824500Y-103396532D01*
X170824500Y-103603467D01*
X170864869Y-103806418D01*
X170944058Y-103997597D01*
X171059020Y-104169651D01*
X171059023Y-104169655D01*
X171205345Y-104315977D01*
X171377402Y-104430941D01*
X171568580Y-104510130D01*
X171771535Y-104550500D01*
X171771536Y-104550500D01*
X172228464Y-104550500D01*
X172228465Y-104550500D01*
X172431420Y-104510130D01*
X172622598Y-104430941D01*
X172794655Y-104315977D01*
X172940977Y-104169655D01*
X173055941Y-103997598D01*
X173135130Y-103806420D01*
X173175500Y-103603465D01*
X173175500Y-103396535D01*
X173135130Y-103193580D01*
X173055941Y-103002402D01*
X172940977Y-102830345D01*
X172794655Y-102684023D01*
X172794651Y-102684020D01*
X172622597Y-102569058D01*
X172431418Y-102489869D01*
X172228467Y-102449500D01*
X172228465Y-102449500D01*
X171771535Y-102449500D01*
X171771532Y-102449500D01*
X171568581Y-102489869D01*
X171377402Y-102569058D01*
X171205348Y-102684020D01*
X171059020Y-102830348D01*
X170944058Y-103002402D01*
X170864869Y-103193581D01*
X170824500Y-103396532D01*
X156221560Y-103396532D01*
X154509136Y-101684108D01*
X155499500Y-101684108D01*
X155499500Y-101815892D01*
X155527395Y-101920000D01*
X155533609Y-101943190D01*
X155599496Y-102057309D01*
X155599498Y-102057311D01*
X155599500Y-102057314D01*
X155692686Y-102150500D01*
X155692688Y-102150501D01*
X155692690Y-102150503D01*
X155806810Y-102216390D01*
X155806808Y-102216390D01*
X155806812Y-102216391D01*
X155806814Y-102216392D01*
X155934108Y-102250500D01*
X155934110Y-102250500D01*
X156065890Y-102250500D01*
X156065892Y-102250500D01*
X156193186Y-102216392D01*
X156193188Y-102216390D01*
X156193190Y-102216390D01*
X156307309Y-102150503D01*
X156307309Y-102150502D01*
X156307314Y-102150500D01*
X156400500Y-102057314D01*
X156466392Y-101943186D01*
X156500500Y-101815892D01*
X156500500Y-101684108D01*
X156466392Y-101556814D01*
X156466390Y-101556811D01*
X156466390Y-101556809D01*
X156400503Y-101442691D01*
X156400502Y-101442689D01*
X156400501Y-101442688D01*
X156400500Y-101442686D01*
X156341919Y-101384105D01*
X158999500Y-101384105D01*
X158999500Y-101515889D01*
X159010466Y-101556814D01*
X159033609Y-101643187D01*
X159099496Y-101757306D01*
X159099498Y-101757308D01*
X159099500Y-101757311D01*
X159122185Y-101779996D01*
X159149961Y-101834511D01*
X159140390Y-101894943D01*
X159122185Y-101920000D01*
X159099499Y-101942686D01*
X159033609Y-102056809D01*
X159033608Y-102056814D01*
X158999500Y-102184108D01*
X158999500Y-102315892D01*
X159018457Y-102386641D01*
X159033609Y-102443190D01*
X159099496Y-102557309D01*
X159099498Y-102557311D01*
X159099500Y-102557314D01*
X159192686Y-102650500D01*
X159192688Y-102650501D01*
X159192690Y-102650503D01*
X159306810Y-102716390D01*
X159306808Y-102716390D01*
X159306812Y-102716391D01*
X159306814Y-102716392D01*
X159434108Y-102750500D01*
X159434110Y-102750500D01*
X159565890Y-102750500D01*
X159565892Y-102750500D01*
X159693186Y-102716392D01*
X159693188Y-102716390D01*
X159693190Y-102716390D01*
X159807309Y-102650503D01*
X159807309Y-102650502D01*
X159807314Y-102650500D01*
X159900500Y-102557314D01*
X159914187Y-102533608D01*
X159966390Y-102443190D01*
X159966390Y-102443188D01*
X159966392Y-102443186D01*
X160000500Y-102315892D01*
X160000500Y-102184108D01*
X159966392Y-102056814D01*
X159966390Y-102056811D01*
X159966390Y-102056809D01*
X159900503Y-101942690D01*
X159900501Y-101942688D01*
X159900500Y-101942686D01*
X159877813Y-101919999D01*
X159850038Y-101865485D01*
X159859609Y-101805053D01*
X159877815Y-101779994D01*
X159900500Y-101757311D01*
X159966392Y-101643183D01*
X160000500Y-101515889D01*
X160000500Y-101384105D01*
X159966392Y-101256811D01*
X159966390Y-101256808D01*
X159966390Y-101256806D01*
X159900503Y-101142687D01*
X159900501Y-101142685D01*
X159900500Y-101142683D01*
X159807314Y-101049497D01*
X159807311Y-101049495D01*
X159807309Y-101049493D01*
X159693193Y-100983608D01*
X159693186Y-100983605D01*
X159565892Y-100949497D01*
X159434108Y-100949497D01*
X159356200Y-100970372D01*
X159306809Y-100983606D01*
X159192690Y-101049493D01*
X159099496Y-101142687D01*
X159033609Y-101256806D01*
X159020316Y-101306418D01*
X158999500Y-101384105D01*
X156341919Y-101384105D01*
X156307314Y-101349500D01*
X156307311Y-101349498D01*
X156307309Y-101349496D01*
X156193189Y-101283609D01*
X156193191Y-101283609D01*
X156143799Y-101270375D01*
X156065892Y-101249500D01*
X155934108Y-101249500D01*
X155856200Y-101270375D01*
X155806809Y-101283609D01*
X155692690Y-101349496D01*
X155599496Y-101442690D01*
X155533609Y-101556809D01*
X155533608Y-101556814D01*
X155499500Y-101684108D01*
X154509136Y-101684108D01*
X153721560Y-100896532D01*
X170824500Y-100896532D01*
X170824500Y-101103467D01*
X170864869Y-101306418D01*
X170944058Y-101497597D01*
X171059020Y-101669651D01*
X171059023Y-101669655D01*
X171205345Y-101815977D01*
X171377402Y-101930941D01*
X171568580Y-102010130D01*
X171771535Y-102050500D01*
X171771536Y-102050500D01*
X172228464Y-102050500D01*
X172228465Y-102050500D01*
X172431420Y-102010130D01*
X172622598Y-101930941D01*
X172794655Y-101815977D01*
X172940977Y-101669655D01*
X173055941Y-101497598D01*
X173135130Y-101306420D01*
X173175500Y-101103465D01*
X173175500Y-100896535D01*
X173135130Y-100693580D01*
X173055941Y-100502402D01*
X172940977Y-100330345D01*
X172794655Y-100184023D01*
X172783408Y-100176508D01*
X172622597Y-100069058D01*
X172431418Y-99989869D01*
X172228467Y-99949500D01*
X172228465Y-99949500D01*
X171771535Y-99949500D01*
X171771532Y-99949500D01*
X171568581Y-99989869D01*
X171377402Y-100069058D01*
X171205348Y-100184020D01*
X171059020Y-100330348D01*
X170944058Y-100502402D01*
X170864869Y-100693581D01*
X170824500Y-100896532D01*
X153721560Y-100896532D01*
X153688200Y-100863172D01*
X153660423Y-100808655D01*
X153669994Y-100748223D01*
X153708702Y-100707433D01*
X153807314Y-100650500D01*
X153900500Y-100557314D01*
X153966392Y-100443186D01*
X154000500Y-100315892D01*
X154000500Y-100184108D01*
X153966392Y-100056814D01*
X153966390Y-100056811D01*
X153966390Y-100056809D01*
X153900503Y-99942690D01*
X153900501Y-99942688D01*
X153900500Y-99942686D01*
X153807314Y-99849500D01*
X153807311Y-99849498D01*
X153807309Y-99849496D01*
X153693189Y-99783609D01*
X153693191Y-99783609D01*
X153678722Y-99779732D01*
X153565892Y-99749500D01*
X153434108Y-99749500D01*
X153356200Y-99770375D01*
X153306809Y-99783609D01*
X153192690Y-99849496D01*
X153099496Y-99942690D01*
X153042567Y-100041295D01*
X152997098Y-100082236D01*
X152936247Y-100088632D01*
X152886827Y-100061799D01*
X152509136Y-99684108D01*
X159249500Y-99684108D01*
X159249500Y-99815892D01*
X159272171Y-99900503D01*
X159283609Y-99943190D01*
X159349496Y-100057309D01*
X159349498Y-100057311D01*
X159349500Y-100057314D01*
X159442686Y-100150500D01*
X159442688Y-100150501D01*
X159442690Y-100150503D01*
X159556810Y-100216390D01*
X159556808Y-100216390D01*
X159556812Y-100216391D01*
X159556814Y-100216392D01*
X159684108Y-100250500D01*
X159684110Y-100250500D01*
X159815890Y-100250500D01*
X159815892Y-100250500D01*
X159943186Y-100216392D01*
X159943188Y-100216390D01*
X159943190Y-100216390D01*
X160057309Y-100150503D01*
X160057309Y-100150502D01*
X160057314Y-100150500D01*
X160150500Y-100057314D01*
X160189439Y-99989870D01*
X160216390Y-99943190D01*
X160216390Y-99943188D01*
X160216392Y-99943186D01*
X160250500Y-99815892D01*
X160250500Y-99684108D01*
X160216392Y-99556814D01*
X160216390Y-99556811D01*
X160216390Y-99556809D01*
X160150503Y-99442690D01*
X160150501Y-99442688D01*
X160150500Y-99442686D01*
X160057314Y-99349500D01*
X160057311Y-99349498D01*
X160057309Y-99349496D01*
X159943189Y-99283609D01*
X159943191Y-99283609D01*
X159893799Y-99270375D01*
X159815892Y-99249500D01*
X159684108Y-99249500D01*
X159606200Y-99270375D01*
X159556809Y-99283609D01*
X159442690Y-99349496D01*
X159349496Y-99442690D01*
X159283609Y-99556809D01*
X159269043Y-99611172D01*
X159249500Y-99684108D01*
X152509136Y-99684108D01*
X152343009Y-99517981D01*
X151795240Y-98970212D01*
X151784592Y-98964065D01*
X151755507Y-98947272D01*
X151755506Y-98947272D01*
X151726717Y-98930650D01*
X151650293Y-98910172D01*
X151650291Y-98910172D01*
X149798321Y-98910172D01*
X149740130Y-98891265D01*
X149728323Y-98881181D01*
X149657314Y-98810172D01*
X149657311Y-98810170D01*
X149657309Y-98810168D01*
X149543189Y-98744281D01*
X149543191Y-98744281D01*
X149493799Y-98731047D01*
X149415892Y-98710172D01*
X149284108Y-98710172D01*
X149206200Y-98731047D01*
X149156809Y-98744281D01*
X149042690Y-98810168D01*
X148949496Y-98903362D01*
X148883609Y-99017481D01*
X148883608Y-99017486D01*
X148849500Y-99144780D01*
X148102594Y-99144780D01*
X148057314Y-99099500D01*
X148057311Y-99099498D01*
X148057309Y-99099496D01*
X147943189Y-99033609D01*
X147943191Y-99033609D01*
X147883017Y-99017486D01*
X147815892Y-98999500D01*
X147684108Y-98999500D01*
X147616983Y-99017486D01*
X147556809Y-99033609D01*
X147442690Y-99099496D01*
X147349496Y-99192690D01*
X147283609Y-99306809D01*
X147272170Y-99349500D01*
X147249500Y-99434108D01*
X135050500Y-99434108D01*
X135050500Y-96184108D01*
X139749500Y-96184108D01*
X139749500Y-96315892D01*
X139760959Y-96358658D01*
X139783609Y-96443190D01*
X139849496Y-96557309D01*
X139849498Y-96557311D01*
X139849500Y-96557314D01*
X139872185Y-96579999D01*
X139899961Y-96634514D01*
X139890390Y-96694946D01*
X139872185Y-96720003D01*
X139849499Y-96742689D01*
X139783609Y-96856812D01*
X139783608Y-96856817D01*
X139749500Y-96984111D01*
X139749500Y-97115895D01*
X139767778Y-97184109D01*
X139783609Y-97243193D01*
X139849496Y-97357312D01*
X139849498Y-97357314D01*
X139849500Y-97357317D01*
X139942686Y-97450503D01*
X139942688Y-97450504D01*
X139942689Y-97450505D01*
X139947835Y-97454454D01*
X139946071Y-97456752D01*
X139978962Y-97493255D01*
X139985379Y-97554103D01*
X139958539Y-97603557D01*
X139871754Y-97690342D01*
X139871750Y-97690347D01*
X139805863Y-97804466D01*
X139805862Y-97804471D01*
X139771754Y-97931765D01*
X139771754Y-98063549D01*
X139795453Y-98151996D01*
X139805863Y-98190847D01*
X139871750Y-98304966D01*
X139871752Y-98304968D01*
X139871754Y-98304971D01*
X139964940Y-98398157D01*
X139964942Y-98398158D01*
X139964944Y-98398160D01*
X140079064Y-98464047D01*
X140079062Y-98464047D01*
X140079066Y-98464048D01*
X140079068Y-98464049D01*
X140206362Y-98498157D01*
X140206364Y-98498157D01*
X140338144Y-98498157D01*
X140338146Y-98498157D01*
X140465440Y-98464049D01*
X140465442Y-98464047D01*
X140465444Y-98464047D01*
X140579563Y-98398160D01*
X140579563Y-98398159D01*
X140579568Y-98398157D01*
X140672754Y-98304971D01*
X140738646Y-98190843D01*
X140740451Y-98184108D01*
X158999500Y-98184108D01*
X158999500Y-98315892D01*
X159024330Y-98408560D01*
X159033609Y-98443190D01*
X159099496Y-98557309D01*
X159099498Y-98557311D01*
X159099500Y-98557314D01*
X159192686Y-98650500D01*
X159192688Y-98650501D01*
X159192690Y-98650503D01*
X159306810Y-98716390D01*
X159306808Y-98716390D01*
X159306812Y-98716391D01*
X159306814Y-98716392D01*
X159434108Y-98750500D01*
X159434110Y-98750500D01*
X159565890Y-98750500D01*
X159565892Y-98750500D01*
X159693186Y-98716392D01*
X159693188Y-98716390D01*
X159693190Y-98716390D01*
X159807309Y-98650503D01*
X159807309Y-98650502D01*
X159807314Y-98650500D01*
X159900500Y-98557314D01*
X159901599Y-98555410D01*
X159966390Y-98443190D01*
X159966390Y-98443188D01*
X159966392Y-98443186D01*
X160000500Y-98315892D01*
X160000500Y-98184108D01*
X159966392Y-98056814D01*
X159966390Y-98056811D01*
X159966390Y-98056809D01*
X159900503Y-97942690D01*
X159900501Y-97942688D01*
X159900500Y-97942686D01*
X159807314Y-97849500D01*
X159807311Y-97849498D01*
X159807309Y-97849496D01*
X159693189Y-97783609D01*
X159693191Y-97783609D01*
X159643799Y-97770375D01*
X159565892Y-97749500D01*
X159434108Y-97749500D01*
X159356200Y-97770375D01*
X159306809Y-97783609D01*
X159192690Y-97849496D01*
X159099496Y-97942690D01*
X159033609Y-98056809D01*
X159033608Y-98056814D01*
X158999500Y-98184108D01*
X140740451Y-98184108D01*
X140772754Y-98063549D01*
X140772754Y-97931765D01*
X140738646Y-97804471D01*
X140738644Y-97804468D01*
X140738644Y-97804466D01*
X140672757Y-97690347D01*
X140672755Y-97690345D01*
X140672754Y-97690343D01*
X140579568Y-97597157D01*
X140579565Y-97597155D01*
X140579564Y-97597154D01*
X140574419Y-97593206D01*
X140576178Y-97590912D01*
X140543278Y-97554374D01*
X140536881Y-97493524D01*
X140563713Y-97444103D01*
X140650500Y-97357317D01*
X140674418Y-97315890D01*
X140716390Y-97243193D01*
X140716390Y-97243191D01*
X140716392Y-97243189D01*
X140732223Y-97184108D01*
X145249500Y-97184108D01*
X145249500Y-97315892D01*
X145272171Y-97400503D01*
X145283609Y-97443190D01*
X145349496Y-97557309D01*
X145349498Y-97557311D01*
X145349500Y-97557314D01*
X145442686Y-97650500D01*
X145442688Y-97650501D01*
X145442690Y-97650503D01*
X145556810Y-97716390D01*
X145556808Y-97716390D01*
X145556812Y-97716391D01*
X145556814Y-97716392D01*
X145684108Y-97750500D01*
X145684110Y-97750500D01*
X145815890Y-97750500D01*
X145815892Y-97750500D01*
X145943186Y-97716392D01*
X145943188Y-97716390D01*
X145943190Y-97716390D01*
X146057309Y-97650503D01*
X146057309Y-97650502D01*
X146057314Y-97650500D01*
X146150500Y-97557314D01*
X146150503Y-97557309D01*
X146216390Y-97443190D01*
X146216390Y-97443188D01*
X146216392Y-97443186D01*
X146250500Y-97315892D01*
X146250500Y-97184108D01*
X146216392Y-97056814D01*
X146216390Y-97056811D01*
X146216390Y-97056809D01*
X146150503Y-96942690D01*
X146150501Y-96942688D01*
X146150500Y-96942686D01*
X146057314Y-96849500D01*
X146057311Y-96849498D01*
X146057309Y-96849496D01*
X145943189Y-96783609D01*
X145943191Y-96783609D01*
X145928722Y-96779732D01*
X145815892Y-96749500D01*
X145684108Y-96749500D01*
X145606200Y-96770375D01*
X145556809Y-96783609D01*
X145442690Y-96849496D01*
X145349496Y-96942690D01*
X145283609Y-97056809D01*
X145267778Y-97115893D01*
X145249500Y-97184108D01*
X140732223Y-97184108D01*
X140750500Y-97115895D01*
X140750500Y-96984111D01*
X140716392Y-96856817D01*
X140716390Y-96856814D01*
X140716390Y-96856812D01*
X140650503Y-96742693D01*
X140650501Y-96742691D01*
X140650500Y-96742689D01*
X140627813Y-96720002D01*
X140609525Y-96684108D01*
X147249500Y-96684108D01*
X147249500Y-96815892D01*
X147277973Y-96922154D01*
X147283609Y-96943190D01*
X147349496Y-97057309D01*
X147349498Y-97057311D01*
X147349500Y-97057314D01*
X147442686Y-97150500D01*
X147442688Y-97150501D01*
X147442690Y-97150503D01*
X147556810Y-97216390D01*
X147556808Y-97216390D01*
X147556812Y-97216391D01*
X147556814Y-97216392D01*
X147684108Y-97250500D01*
X147684110Y-97250500D01*
X147815890Y-97250500D01*
X147815892Y-97250500D01*
X147943186Y-97216392D01*
X147943188Y-97216390D01*
X147943190Y-97216390D01*
X148057309Y-97150503D01*
X148057309Y-97150502D01*
X148057314Y-97150500D01*
X148150500Y-97057314D01*
X148193116Y-96983501D01*
X148238585Y-96942560D01*
X148299435Y-96936164D01*
X148304475Y-96937374D01*
X148306809Y-96937999D01*
X148306812Y-96938001D01*
X148434106Y-96972109D01*
X148434108Y-96972109D01*
X148565888Y-96972109D01*
X148565890Y-96972109D01*
X148693184Y-96938001D01*
X148693188Y-96937998D01*
X148695523Y-96937373D01*
X148756624Y-96940575D01*
X148804174Y-96979080D01*
X148806882Y-96983499D01*
X148843917Y-97047644D01*
X148849500Y-97057314D01*
X148942686Y-97150500D01*
X148942688Y-97150501D01*
X148942690Y-97150503D01*
X149056810Y-97216390D01*
X149056808Y-97216390D01*
X149056812Y-97216391D01*
X149056814Y-97216392D01*
X149184108Y-97250500D01*
X149184110Y-97250500D01*
X149315890Y-97250500D01*
X149315892Y-97250500D01*
X149443186Y-97216392D01*
X149443188Y-97216390D01*
X149443190Y-97216390D01*
X149557309Y-97150503D01*
X149557309Y-97150502D01*
X149557314Y-97150500D01*
X149650500Y-97057314D01*
X149664264Y-97033474D01*
X149709733Y-96992534D01*
X149770583Y-96986138D01*
X149823571Y-97016731D01*
X149835734Y-97033471D01*
X149849500Y-97057314D01*
X149942686Y-97150500D01*
X149942688Y-97150501D01*
X149942690Y-97150503D01*
X150056810Y-97216390D01*
X150056808Y-97216390D01*
X150056812Y-97216391D01*
X150056814Y-97216392D01*
X150184108Y-97250500D01*
X150184110Y-97250500D01*
X150315890Y-97250500D01*
X150315892Y-97250500D01*
X150443186Y-97216392D01*
X150443188Y-97216390D01*
X150443190Y-97216390D01*
X150557309Y-97150503D01*
X150557309Y-97150502D01*
X150557314Y-97150500D01*
X150650500Y-97057314D01*
X150664264Y-97033475D01*
X150687901Y-96992534D01*
X150716392Y-96943186D01*
X150718824Y-96934108D01*
X154999500Y-96934108D01*
X154999500Y-97065892D01*
X155022171Y-97150503D01*
X155033609Y-97193190D01*
X155099496Y-97307309D01*
X155099498Y-97307311D01*
X155099500Y-97307314D01*
X155192686Y-97400500D01*
X155192688Y-97400501D01*
X155192690Y-97400503D01*
X155306810Y-97466390D01*
X155306808Y-97466390D01*
X155306812Y-97466391D01*
X155306814Y-97466392D01*
X155434108Y-97500500D01*
X155434110Y-97500500D01*
X155565890Y-97500500D01*
X155565892Y-97500500D01*
X155693186Y-97466392D01*
X155693188Y-97466390D01*
X155693190Y-97466390D01*
X155807309Y-97400503D01*
X155807309Y-97400502D01*
X155807314Y-97400500D01*
X155900500Y-97307314D01*
X155933302Y-97250500D01*
X155966390Y-97193190D01*
X155966390Y-97193188D01*
X155966392Y-97193186D01*
X156000500Y-97065892D01*
X156000500Y-96934108D01*
X155966392Y-96806814D01*
X155966390Y-96806811D01*
X155966390Y-96806809D01*
X155900503Y-96692690D01*
X155900501Y-96692688D01*
X155900500Y-96692686D01*
X155807314Y-96599500D01*
X155807311Y-96599498D01*
X155807309Y-96599496D01*
X155693189Y-96533609D01*
X155693191Y-96533609D01*
X155643799Y-96520375D01*
X155565892Y-96499500D01*
X155434108Y-96499500D01*
X155356200Y-96520375D01*
X155306809Y-96533609D01*
X155192690Y-96599496D01*
X155099496Y-96692690D01*
X155033609Y-96806809D01*
X155022170Y-96849500D01*
X154999500Y-96934108D01*
X150718824Y-96934108D01*
X150750500Y-96815892D01*
X150750500Y-96684108D01*
X150716392Y-96556814D01*
X150716390Y-96556811D01*
X150716390Y-96556809D01*
X150650503Y-96442690D01*
X150650501Y-96442688D01*
X150650500Y-96442686D01*
X150557314Y-96349500D01*
X150557311Y-96349498D01*
X150557309Y-96349496D01*
X150443189Y-96283609D01*
X150443191Y-96283609D01*
X150393799Y-96270375D01*
X150315892Y-96249500D01*
X150184108Y-96249500D01*
X150106200Y-96270375D01*
X150056809Y-96283609D01*
X149942690Y-96349496D01*
X149849498Y-96442688D01*
X149835736Y-96466525D01*
X149790266Y-96507465D01*
X149729416Y-96513860D01*
X149676428Y-96483267D01*
X149664264Y-96466525D01*
X149650501Y-96442688D01*
X149650500Y-96442686D01*
X149557314Y-96349500D01*
X149557311Y-96349498D01*
X149557309Y-96349496D01*
X149443189Y-96283609D01*
X149443191Y-96283609D01*
X149393799Y-96270375D01*
X149315892Y-96249500D01*
X149184108Y-96249500D01*
X149154498Y-96257434D01*
X149054472Y-96284235D01*
X148993371Y-96281032D01*
X148945821Y-96242527D01*
X148943113Y-96238107D01*
X148921402Y-96200503D01*
X148900498Y-96164295D01*
X148807312Y-96071109D01*
X148807309Y-96071107D01*
X148807307Y-96071105D01*
X148693187Y-96005218D01*
X148693189Y-96005218D01*
X148643797Y-95991984D01*
X148565890Y-95971109D01*
X148434106Y-95971109D01*
X148356198Y-95991984D01*
X148306807Y-96005218D01*
X148192688Y-96071105D01*
X148099496Y-96164297D01*
X148056881Y-96238108D01*
X148011411Y-96279048D01*
X147950561Y-96285443D01*
X147945522Y-96284234D01*
X147942051Y-96283304D01*
X147815892Y-96249500D01*
X147684108Y-96249500D01*
X147606200Y-96270375D01*
X147556809Y-96283609D01*
X147442690Y-96349496D01*
X147349496Y-96442690D01*
X147283609Y-96556809D01*
X147272170Y-96599500D01*
X147249500Y-96684108D01*
X140609525Y-96684108D01*
X140600038Y-96665488D01*
X140609609Y-96605056D01*
X140627815Y-96579997D01*
X140650500Y-96557314D01*
X140716392Y-96443186D01*
X140750500Y-96315892D01*
X140750500Y-96184108D01*
X140716392Y-96056814D01*
X140716390Y-96056811D01*
X140716390Y-96056809D01*
X140650503Y-95942690D01*
X140650501Y-95942688D01*
X140650500Y-95942686D01*
X140557314Y-95849500D01*
X140557311Y-95849498D01*
X140557309Y-95849496D01*
X140443189Y-95783609D01*
X140443191Y-95783609D01*
X140393799Y-95770375D01*
X140315892Y-95749500D01*
X140184108Y-95749500D01*
X140106200Y-95770375D01*
X140056809Y-95783609D01*
X139942690Y-95849496D01*
X139849496Y-95942690D01*
X139783609Y-96056809D01*
X139771108Y-96103465D01*
X139749500Y-96184108D01*
X135050500Y-96184108D01*
X135050500Y-95434108D01*
X146499500Y-95434108D01*
X146499500Y-95565892D01*
X146518991Y-95638634D01*
X146533609Y-95693190D01*
X146599496Y-95807309D01*
X146599498Y-95807311D01*
X146599500Y-95807314D01*
X146692686Y-95900500D01*
X146692688Y-95900501D01*
X146692690Y-95900503D01*
X146806810Y-95966390D01*
X146806808Y-95966390D01*
X146806812Y-95966391D01*
X146806814Y-95966392D01*
X146934108Y-96000500D01*
X146934110Y-96000500D01*
X147065890Y-96000500D01*
X147065892Y-96000500D01*
X147193186Y-95966392D01*
X147193188Y-95966390D01*
X147193190Y-95966390D01*
X147307309Y-95900503D01*
X147307309Y-95900502D01*
X147307314Y-95900500D01*
X147400500Y-95807314D01*
X147433879Y-95749500D01*
X147466390Y-95693190D01*
X147466390Y-95693188D01*
X147466392Y-95693186D01*
X147500500Y-95565892D01*
X147500500Y-95434108D01*
X147466392Y-95306814D01*
X147466390Y-95306811D01*
X147466390Y-95306809D01*
X147400503Y-95192690D01*
X147400501Y-95192688D01*
X147400500Y-95192686D01*
X147313664Y-95105850D01*
X147285889Y-95051336D01*
X147295460Y-94990904D01*
X147334168Y-94950113D01*
X147387314Y-94919430D01*
X147480500Y-94826244D01*
X147494000Y-94802862D01*
X147546390Y-94712120D01*
X147546390Y-94712118D01*
X147546392Y-94712116D01*
X147580500Y-94584822D01*
X147580500Y-94453038D01*
X147546392Y-94325744D01*
X147546390Y-94325741D01*
X147546390Y-94325739D01*
X147480503Y-94211620D01*
X147480501Y-94211618D01*
X147480500Y-94211616D01*
X147387314Y-94118430D01*
X147387311Y-94118428D01*
X147387309Y-94118426D01*
X147273189Y-94052539D01*
X147273191Y-94052539D01*
X147223799Y-94039305D01*
X147145892Y-94018430D01*
X147014108Y-94018430D01*
X146936200Y-94039305D01*
X146886809Y-94052539D01*
X146772690Y-94118426D01*
X146679496Y-94211620D01*
X146613609Y-94325739D01*
X146613608Y-94325744D01*
X146579500Y-94453038D01*
X146579500Y-94584822D01*
X146603079Y-94672820D01*
X146613609Y-94712120D01*
X146679496Y-94826239D01*
X146679498Y-94826241D01*
X146679500Y-94826244D01*
X146766334Y-94913078D01*
X146794110Y-94967593D01*
X146784539Y-95028025D01*
X146745830Y-95068816D01*
X146692688Y-95099498D01*
X146599496Y-95192690D01*
X146533609Y-95306809D01*
X146520682Y-95355056D01*
X146499500Y-95434108D01*
X135050500Y-95434108D01*
X135050500Y-94915478D01*
X135069407Y-94857287D01*
X135079490Y-94845480D01*
X135240460Y-94684511D01*
X135240692Y-94684107D01*
X135256420Y-94663608D01*
X136235921Y-93684108D01*
X139749500Y-93684108D01*
X139749500Y-93815892D01*
X139772171Y-93900503D01*
X139783609Y-93943190D01*
X139849496Y-94057309D01*
X139849498Y-94057311D01*
X139849500Y-94057314D01*
X139872185Y-94079999D01*
X139899961Y-94134514D01*
X139890390Y-94194946D01*
X139872185Y-94220003D01*
X139849499Y-94242689D01*
X139783609Y-94356812D01*
X139783608Y-94356817D01*
X139749500Y-94484111D01*
X139749500Y-94615895D01*
X139770178Y-94693066D01*
X139783609Y-94743193D01*
X139849496Y-94857312D01*
X139849498Y-94857314D01*
X139849500Y-94857317D01*
X139942686Y-94950503D01*
X139942688Y-94950504D01*
X139942690Y-94950506D01*
X140056810Y-95016393D01*
X140056808Y-95016393D01*
X140056812Y-95016394D01*
X140056814Y-95016395D01*
X140184108Y-95050503D01*
X140184110Y-95050503D01*
X140315890Y-95050503D01*
X140315892Y-95050503D01*
X140443186Y-95016395D01*
X140443188Y-95016393D01*
X140443190Y-95016393D01*
X140557309Y-94950506D01*
X140557309Y-94950505D01*
X140557314Y-94950503D01*
X140650500Y-94857317D01*
X140681940Y-94802862D01*
X140716390Y-94743193D01*
X140716390Y-94743191D01*
X140716392Y-94743189D01*
X140750500Y-94615895D01*
X140750500Y-94484111D01*
X140716392Y-94356817D01*
X140716390Y-94356814D01*
X140716390Y-94356812D01*
X140650503Y-94242693D01*
X140650501Y-94242691D01*
X140650500Y-94242689D01*
X140627813Y-94220002D01*
X140600038Y-94165488D01*
X140609609Y-94105056D01*
X140627815Y-94079997D01*
X140650500Y-94057314D01*
X140716392Y-93943186D01*
X140750500Y-93815892D01*
X140750500Y-93684108D01*
X140716392Y-93556814D01*
X140716390Y-93556811D01*
X140716390Y-93556809D01*
X140650503Y-93442690D01*
X140650501Y-93442688D01*
X140650500Y-93442686D01*
X140557314Y-93349500D01*
X140557311Y-93349498D01*
X140557309Y-93349496D01*
X140443189Y-93283609D01*
X140443191Y-93283609D01*
X140393799Y-93270375D01*
X140315892Y-93249500D01*
X140184108Y-93249500D01*
X140106200Y-93270375D01*
X140056809Y-93283609D01*
X139942690Y-93349496D01*
X139849496Y-93442690D01*
X139783609Y-93556809D01*
X139776810Y-93582183D01*
X139749500Y-93684108D01*
X136235921Y-93684108D01*
X137090534Y-92829496D01*
X137145051Y-92801719D01*
X137160538Y-92800500D01*
X143614874Y-92800500D01*
X143673065Y-92819407D01*
X143684877Y-92829496D01*
X143812818Y-92957436D01*
X143881341Y-92996997D01*
X143929792Y-93009979D01*
X143957766Y-93017475D01*
X143957767Y-93017475D01*
X144036891Y-93017475D01*
X147441467Y-93017475D01*
X147499658Y-93036382D01*
X147511470Y-93046470D01*
X147542788Y-93077788D01*
X147542790Y-93077789D01*
X147542791Y-93077790D01*
X147542792Y-93077791D01*
X147656912Y-93143678D01*
X147656910Y-93143678D01*
X147656914Y-93143679D01*
X147656916Y-93143680D01*
X147784210Y-93177788D01*
X147784212Y-93177788D01*
X147915993Y-93177788D01*
X147915994Y-93177788D01*
X147915994Y-93177787D01*
X147922426Y-93176941D01*
X147922647Y-93178619D01*
X147975581Y-93181384D01*
X148023138Y-93219881D01*
X148038984Y-93278979D01*
X148034181Y-93300249D01*
X148035288Y-93300546D01*
X148033608Y-93306812D01*
X148033608Y-93306814D01*
X147999500Y-93434108D01*
X147999500Y-93565892D01*
X148029579Y-93678151D01*
X148033609Y-93693190D01*
X148099496Y-93807309D01*
X148099498Y-93807311D01*
X148099500Y-93807314D01*
X148192686Y-93900500D01*
X148192688Y-93900501D01*
X148192690Y-93900503D01*
X148306810Y-93966390D01*
X148306808Y-93966390D01*
X148306812Y-93966391D01*
X148306814Y-93966392D01*
X148434108Y-94000500D01*
X148434110Y-94000500D01*
X148565890Y-94000500D01*
X148565892Y-94000500D01*
X148693186Y-93966392D01*
X148693188Y-93966390D01*
X148693190Y-93966390D01*
X148807309Y-93900503D01*
X148807309Y-93900502D01*
X148807314Y-93900500D01*
X148900500Y-93807314D01*
X148916259Y-93780019D01*
X148966390Y-93693190D01*
X148966390Y-93693188D01*
X148966392Y-93693186D01*
X149000500Y-93565892D01*
X149000500Y-93434108D01*
X148966392Y-93306814D01*
X148966390Y-93306811D01*
X148966390Y-93306809D01*
X148900503Y-93192690D01*
X148900501Y-93192688D01*
X148900500Y-93192686D01*
X148829494Y-93121680D01*
X148801719Y-93067166D01*
X148800500Y-93051679D01*
X148800500Y-92302065D01*
X148813765Y-92252563D01*
X148820753Y-92240460D01*
X148835833Y-92214341D01*
X148856312Y-92137914D01*
X148856312Y-91605112D01*
X148875219Y-91546921D01*
X148924719Y-91510957D01*
X148985905Y-91510957D01*
X149025313Y-91535106D01*
X149380667Y-91890460D01*
X149380669Y-91890461D01*
X149380671Y-91890463D01*
X149449186Y-91930020D01*
X149449184Y-91930020D01*
X149449188Y-91930021D01*
X149449190Y-91930022D01*
X149525616Y-91950500D01*
X149525618Y-91950500D01*
X150647284Y-91950500D01*
X150647284Y-91950499D01*
X150708457Y-91934108D01*
X152499500Y-91934108D01*
X152499500Y-92065892D01*
X152526719Y-92167475D01*
X152533609Y-92193190D01*
X152599496Y-92307309D01*
X152599498Y-92307311D01*
X152599500Y-92307314D01*
X152692686Y-92400500D01*
X152692688Y-92400501D01*
X152692690Y-92400503D01*
X152806810Y-92466390D01*
X152806808Y-92466390D01*
X152806812Y-92466391D01*
X152806814Y-92466392D01*
X152934108Y-92500500D01*
X152934110Y-92500500D01*
X153065890Y-92500500D01*
X153065892Y-92500500D01*
X153193186Y-92466392D01*
X153193188Y-92466390D01*
X153193190Y-92466390D01*
X153307309Y-92400503D01*
X153307309Y-92400502D01*
X153307314Y-92400500D01*
X153400500Y-92307314D01*
X153408689Y-92293130D01*
X153466390Y-92193190D01*
X153466390Y-92193188D01*
X153466392Y-92193186D01*
X153500500Y-92065892D01*
X153500500Y-91934108D01*
X153466392Y-91806814D01*
X153466390Y-91806811D01*
X153466390Y-91806809D01*
X153400503Y-91692690D01*
X153400501Y-91692688D01*
X153400500Y-91692686D01*
X153307314Y-91599500D01*
X153307311Y-91599498D01*
X153307309Y-91599496D01*
X153193189Y-91533609D01*
X153193191Y-91533609D01*
X153143564Y-91520312D01*
X153065892Y-91499500D01*
X152934108Y-91499500D01*
X152856436Y-91520312D01*
X152806809Y-91533609D01*
X152692690Y-91599496D01*
X152599496Y-91692690D01*
X152533609Y-91806809D01*
X152524210Y-91841889D01*
X152499500Y-91934108D01*
X150708457Y-91934108D01*
X150723710Y-91930021D01*
X150792232Y-91890460D01*
X150848181Y-91834511D01*
X151353196Y-91329496D01*
X151407713Y-91301719D01*
X151423200Y-91300500D01*
X153584521Y-91300500D01*
X153642712Y-91319407D01*
X153654525Y-91329496D01*
X156009540Y-93684511D01*
X156009539Y-93684511D01*
X156065489Y-93740460D01*
X156134007Y-93780019D01*
X156134011Y-93780021D01*
X156210435Y-93800499D01*
X156210437Y-93800500D01*
X156210438Y-93800500D01*
X157539563Y-93800500D01*
X157539563Y-93800499D01*
X157615989Y-93780021D01*
X157684511Y-93740460D01*
X157740460Y-93684511D01*
X158595475Y-92829496D01*
X158649992Y-92801719D01*
X158665479Y-92800500D01*
X158935578Y-92800500D01*
X158993769Y-92819407D01*
X159029733Y-92868907D01*
X159029733Y-92930093D01*
X159005582Y-92969504D01*
X157804582Y-94170504D01*
X157750065Y-94198281D01*
X157734578Y-94199500D01*
X156035837Y-94199500D01*
X155977646Y-94180593D01*
X155946714Y-94141355D01*
X155946558Y-94141446D01*
X155945934Y-94140366D01*
X155944372Y-94138384D01*
X155943313Y-94135830D01*
X155943313Y-94135827D01*
X155933267Y-94118426D01*
X155877424Y-94021703D01*
X155877422Y-94021701D01*
X155877421Y-94021699D01*
X155784235Y-93928513D01*
X155784232Y-93928511D01*
X155784230Y-93928509D01*
X155670110Y-93862622D01*
X155670112Y-93862622D01*
X155620720Y-93849388D01*
X155542813Y-93828513D01*
X155411029Y-93828513D01*
X155333121Y-93849388D01*
X155283730Y-93862622D01*
X155169611Y-93928509D01*
X155076417Y-94021703D01*
X155010530Y-94135822D01*
X155006217Y-94151918D01*
X154976421Y-94263121D01*
X154976421Y-94394905D01*
X155000324Y-94484112D01*
X155010530Y-94522203D01*
X155076417Y-94636322D01*
X155076419Y-94636324D01*
X155076421Y-94636327D01*
X155169607Y-94729513D01*
X155169609Y-94729514D01*
X155174196Y-94734101D01*
X155173164Y-94735132D01*
X155203615Y-94779447D01*
X155202009Y-94840611D01*
X155192576Y-94857991D01*
X155193362Y-94858445D01*
X155124227Y-94978187D01*
X155113176Y-95019430D01*
X155090118Y-95105486D01*
X155090118Y-95237270D01*
X155108751Y-95306809D01*
X155124227Y-95364568D01*
X155190114Y-95478687D01*
X155190116Y-95478689D01*
X155190118Y-95478692D01*
X155283304Y-95571878D01*
X155283306Y-95571879D01*
X155283308Y-95571881D01*
X155397428Y-95637768D01*
X155397426Y-95637768D01*
X155397430Y-95637769D01*
X155397432Y-95637770D01*
X155524726Y-95671878D01*
X155524728Y-95671878D01*
X155656508Y-95671878D01*
X155656510Y-95671878D01*
X155783804Y-95637770D01*
X155839851Y-95605410D01*
X155889352Y-95592147D01*
X158226222Y-95592147D01*
X158284413Y-95611054D01*
X158296226Y-95621143D01*
X162359594Y-99684511D01*
X162359593Y-99684511D01*
X162415543Y-99740460D01*
X162484061Y-99780019D01*
X162484065Y-99780021D01*
X162560489Y-99800499D01*
X162560491Y-99800500D01*
X162560492Y-99800500D01*
X165801679Y-99800500D01*
X165859870Y-99819407D01*
X165871676Y-99829490D01*
X165942686Y-99900500D01*
X165942688Y-99900501D01*
X165942690Y-99900503D01*
X166056810Y-99966390D01*
X166056808Y-99966390D01*
X166056812Y-99966391D01*
X166056814Y-99966392D01*
X166184108Y-100000500D01*
X166184110Y-100000500D01*
X166315890Y-100000500D01*
X166315892Y-100000500D01*
X166443186Y-99966392D01*
X166443188Y-99966390D01*
X166443190Y-99966390D01*
X166557309Y-99900503D01*
X166557309Y-99900502D01*
X166557314Y-99900500D01*
X166650500Y-99807314D01*
X166683879Y-99749500D01*
X166716390Y-99693190D01*
X166716390Y-99693188D01*
X166716392Y-99693186D01*
X166750500Y-99565892D01*
X166750500Y-99447321D01*
X166769407Y-99389130D01*
X166818907Y-99353166D01*
X166880093Y-99353166D01*
X166919501Y-99377315D01*
X166942686Y-99400500D01*
X166942688Y-99400501D01*
X166942690Y-99400503D01*
X167056810Y-99466390D01*
X167056808Y-99466390D01*
X167056812Y-99466391D01*
X167056814Y-99466392D01*
X167184108Y-99500500D01*
X167184110Y-99500500D01*
X167315890Y-99500500D01*
X167315892Y-99500500D01*
X167443186Y-99466392D01*
X167443188Y-99466390D01*
X167443190Y-99466390D01*
X167557309Y-99400503D01*
X167557309Y-99400502D01*
X167557314Y-99400500D01*
X167650500Y-99307314D01*
X167712747Y-99199500D01*
X167716390Y-99193190D01*
X167716390Y-99193188D01*
X167716392Y-99193186D01*
X167750500Y-99065892D01*
X167750500Y-98965477D01*
X167769407Y-98907286D01*
X167779497Y-98895473D01*
X167793794Y-98881176D01*
X167974612Y-98700359D01*
X167995091Y-98664889D01*
X168003399Y-98650499D01*
X168007952Y-98642611D01*
X168014173Y-98631837D01*
X168034652Y-98555410D01*
X168034652Y-98396532D01*
X170824500Y-98396532D01*
X170824500Y-98603467D01*
X170864869Y-98806418D01*
X170944058Y-98997597D01*
X171059020Y-99169651D01*
X171059023Y-99169655D01*
X171205345Y-99315977D01*
X171377402Y-99430941D01*
X171568580Y-99510130D01*
X171771535Y-99550500D01*
X171771536Y-99550500D01*
X172228464Y-99550500D01*
X172228465Y-99550500D01*
X172431420Y-99510130D01*
X172622598Y-99430941D01*
X172794655Y-99315977D01*
X172940977Y-99169655D01*
X173055941Y-98997598D01*
X173135130Y-98806420D01*
X173175500Y-98603465D01*
X173175500Y-98396535D01*
X173135130Y-98193580D01*
X173055941Y-98002402D01*
X172940977Y-97830345D01*
X172794655Y-97684023D01*
X172794651Y-97684020D01*
X172622597Y-97569058D01*
X172431418Y-97489869D01*
X172228467Y-97449500D01*
X172228465Y-97449500D01*
X171771535Y-97449500D01*
X171771532Y-97449500D01*
X171568581Y-97489869D01*
X171377402Y-97569058D01*
X171205348Y-97684020D01*
X171059020Y-97830348D01*
X170944058Y-98002402D01*
X170864869Y-98193581D01*
X170824500Y-98396532D01*
X168034652Y-98396532D01*
X168034652Y-95345725D01*
X170824500Y-95345725D01*
X170824500Y-96654274D01*
X170827353Y-96684694D01*
X170827355Y-96684703D01*
X170872207Y-96812883D01*
X170952845Y-96922144D01*
X170952847Y-96922146D01*
X170952850Y-96922150D01*
X170952853Y-96922152D01*
X170952855Y-96922154D01*
X171062116Y-97002792D01*
X171062117Y-97002792D01*
X171062118Y-97002793D01*
X171190301Y-97047646D01*
X171220725Y-97050499D01*
X171220727Y-97050500D01*
X171220734Y-97050500D01*
X172779273Y-97050500D01*
X172779273Y-97050499D01*
X172809699Y-97047646D01*
X172937882Y-97002793D01*
X173047150Y-96922150D01*
X173127793Y-96812882D01*
X173172646Y-96684699D01*
X173175499Y-96654273D01*
X173175500Y-96654273D01*
X173175500Y-95345727D01*
X173175499Y-95345725D01*
X173172646Y-95315305D01*
X173172646Y-95315301D01*
X173127793Y-95187118D01*
X173123290Y-95181017D01*
X173047154Y-95077855D01*
X173047152Y-95077853D01*
X173047150Y-95077850D01*
X173047146Y-95077847D01*
X173047144Y-95077845D01*
X172937883Y-94997207D01*
X172809703Y-94952355D01*
X172809694Y-94952353D01*
X172779274Y-94949500D01*
X172779266Y-94949500D01*
X171220734Y-94949500D01*
X171220725Y-94949500D01*
X171190305Y-94952353D01*
X171190296Y-94952355D01*
X171062116Y-94997207D01*
X170952855Y-95077845D01*
X170952845Y-95077855D01*
X170872207Y-95187116D01*
X170827355Y-95315296D01*
X170827353Y-95315305D01*
X170824500Y-95345725D01*
X168034652Y-95345725D01*
X168034652Y-94316230D01*
X169149500Y-94316230D01*
X169149500Y-94483769D01*
X169182183Y-94648079D01*
X169182185Y-94648085D01*
X169246296Y-94802862D01*
X169274769Y-94845474D01*
X169339374Y-94942162D01*
X169457838Y-95060626D01*
X169597137Y-95153703D01*
X169751918Y-95217816D01*
X169916233Y-95250500D01*
X169916234Y-95250500D01*
X170083766Y-95250500D01*
X170083767Y-95250500D01*
X170101474Y-95246977D01*
X170104777Y-95246321D01*
X170150289Y-95237268D01*
X170248082Y-95217816D01*
X170402863Y-95153703D01*
X170542162Y-95060626D01*
X170660626Y-94942162D01*
X170753703Y-94802863D01*
X170817816Y-94648082D01*
X170850500Y-94483767D01*
X170850500Y-94316233D01*
X170817816Y-94151918D01*
X170753703Y-93997137D01*
X170660626Y-93857838D01*
X170542162Y-93739374D01*
X170449084Y-93677181D01*
X170402862Y-93646296D01*
X170248085Y-93582185D01*
X170248079Y-93582183D01*
X170083769Y-93549500D01*
X170083767Y-93549500D01*
X169916233Y-93549500D01*
X169916230Y-93549500D01*
X169751920Y-93582183D01*
X169751914Y-93582185D01*
X169597137Y-93646296D01*
X169457838Y-93739374D01*
X169457834Y-93739377D01*
X169339377Y-93857834D01*
X169339374Y-93857838D01*
X169246296Y-93997137D01*
X169182185Y-94151914D01*
X169182183Y-94151920D01*
X169149500Y-94316230D01*
X168034652Y-94316230D01*
X168034652Y-93694590D01*
X168014173Y-93618163D01*
X168013149Y-93616390D01*
X167974612Y-93549641D01*
X167918663Y-93493691D01*
X167918663Y-93493692D01*
X166684511Y-92259540D01*
X166684508Y-92259538D01*
X166651464Y-92240460D01*
X166651462Y-92240459D01*
X166615989Y-92219979D01*
X166615986Y-92219978D01*
X166539564Y-92199500D01*
X166539562Y-92199500D01*
X158539562Y-92199500D01*
X158460438Y-92199500D01*
X158413661Y-92212033D01*
X158384007Y-92219979D01*
X158315493Y-92259536D01*
X158315488Y-92259540D01*
X157419428Y-93155599D01*
X157364912Y-93183376D01*
X157304480Y-93173805D01*
X157261215Y-93130540D01*
X157251644Y-93070108D01*
X157263687Y-93036097D01*
X157317189Y-92943431D01*
X157351297Y-92816137D01*
X157351297Y-92684353D01*
X157317189Y-92557059D01*
X157307193Y-92539745D01*
X157294472Y-92479896D01*
X157319359Y-92424001D01*
X157322907Y-92420261D01*
X159928935Y-89814234D01*
X167824500Y-89814234D01*
X167824500Y-89965766D01*
X167859086Y-90094847D01*
X167863720Y-90112139D01*
X167939481Y-90243360D01*
X167939483Y-90243362D01*
X167939485Y-90243365D01*
X168046635Y-90350515D01*
X168046637Y-90350516D01*
X168046639Y-90350518D01*
X168177861Y-90426279D01*
X168177859Y-90426279D01*
X168177863Y-90426280D01*
X168177865Y-90426281D01*
X168324234Y-90465500D01*
X168324236Y-90465500D01*
X168475764Y-90465500D01*
X168475766Y-90465500D01*
X168622135Y-90426281D01*
X168622137Y-90426279D01*
X168622139Y-90426279D01*
X168753360Y-90350518D01*
X168753360Y-90350517D01*
X168753365Y-90350515D01*
X168860515Y-90243365D01*
X168860518Y-90243360D01*
X168936279Y-90112139D01*
X168936279Y-90112137D01*
X168936281Y-90112135D01*
X168975500Y-89965766D01*
X168975500Y-89814234D01*
X168936281Y-89667865D01*
X168936279Y-89667862D01*
X168936279Y-89667860D01*
X168860518Y-89536639D01*
X168860516Y-89536637D01*
X168860515Y-89536635D01*
X168753365Y-89429485D01*
X168753362Y-89429483D01*
X168753360Y-89429481D01*
X168622138Y-89353720D01*
X168622140Y-89353720D01*
X168565347Y-89338503D01*
X168475766Y-89314500D01*
X168324234Y-89314500D01*
X168234652Y-89338503D01*
X168177860Y-89353720D01*
X168046639Y-89429481D01*
X167939481Y-89536639D01*
X167863720Y-89667860D01*
X167863719Y-89667865D01*
X167824500Y-89814234D01*
X159928935Y-89814234D01*
X161859062Y-87884108D01*
X168725235Y-87884108D01*
X168725235Y-88015892D01*
X168741192Y-88075445D01*
X168759344Y-88143190D01*
X168825231Y-88257309D01*
X168825233Y-88257311D01*
X168825235Y-88257314D01*
X168918421Y-88350500D01*
X168918423Y-88350501D01*
X168918425Y-88350503D01*
X169032545Y-88416390D01*
X169032543Y-88416390D01*
X169032547Y-88416391D01*
X169032549Y-88416392D01*
X169159843Y-88450500D01*
X169159845Y-88450500D01*
X169291625Y-88450500D01*
X169291627Y-88450500D01*
X169418921Y-88416392D01*
X169418923Y-88416390D01*
X169418925Y-88416390D01*
X169533044Y-88350503D01*
X169533044Y-88350502D01*
X169533049Y-88350500D01*
X169626235Y-88257314D01*
X169655103Y-88207314D01*
X169692125Y-88143190D01*
X169692125Y-88143188D01*
X169692127Y-88143186D01*
X169726235Y-88015892D01*
X169726235Y-87884108D01*
X169692127Y-87756814D01*
X169692125Y-87756811D01*
X169692125Y-87756809D01*
X169626238Y-87642690D01*
X169626236Y-87642688D01*
X169626235Y-87642686D01*
X169533049Y-87549500D01*
X169533046Y-87549498D01*
X169533044Y-87549496D01*
X169418924Y-87483609D01*
X169418926Y-87483609D01*
X169363533Y-87468767D01*
X169291627Y-87449500D01*
X169159843Y-87449500D01*
X169087937Y-87468767D01*
X169032544Y-87483609D01*
X168918425Y-87549496D01*
X168825231Y-87642690D01*
X168759344Y-87756809D01*
X168759343Y-87756814D01*
X168725235Y-87884108D01*
X161859062Y-87884108D01*
X162688673Y-87054497D01*
X162743190Y-87026720D01*
X162758677Y-87025501D01*
X168741820Y-87025501D01*
X168800011Y-87044408D01*
X168811817Y-87054491D01*
X168900256Y-87142930D01*
X168900258Y-87142931D01*
X168900260Y-87142933D01*
X169014380Y-87208820D01*
X169014378Y-87208820D01*
X169014382Y-87208821D01*
X169014384Y-87208822D01*
X169141678Y-87242930D01*
X169141680Y-87242930D01*
X169273460Y-87242930D01*
X169273462Y-87242930D01*
X169400756Y-87208822D01*
X169400758Y-87208820D01*
X169400760Y-87208820D01*
X169514879Y-87142933D01*
X169514879Y-87142932D01*
X169514884Y-87142930D01*
X169608070Y-87049744D01*
X169668931Y-86944330D01*
X169673960Y-86935620D01*
X169673960Y-86935618D01*
X169673962Y-86935616D01*
X169708070Y-86808322D01*
X169708070Y-86676538D01*
X169673962Y-86549244D01*
X169673960Y-86549241D01*
X169673960Y-86549239D01*
X169608073Y-86435120D01*
X169608071Y-86435118D01*
X169608070Y-86435116D01*
X169514884Y-86341930D01*
X169505133Y-86336300D01*
X169464193Y-86290830D01*
X169457798Y-86229980D01*
X169484629Y-86180562D01*
X169571379Y-86093813D01*
X169590125Y-86061344D01*
X169637269Y-85979689D01*
X169637269Y-85979687D01*
X169637271Y-85979685D01*
X169671379Y-85852391D01*
X169671379Y-85720607D01*
X169637271Y-85593313D01*
X169637269Y-85593310D01*
X169637269Y-85593308D01*
X169571382Y-85479189D01*
X169571380Y-85479187D01*
X169571379Y-85479185D01*
X169478193Y-85385999D01*
X169478190Y-85385997D01*
X169478188Y-85385995D01*
X169364068Y-85320108D01*
X169364070Y-85320108D01*
X169314678Y-85306874D01*
X169236771Y-85285999D01*
X169104987Y-85285999D01*
X169027079Y-85306874D01*
X168977688Y-85320108D01*
X168863569Y-85385995D01*
X168770375Y-85479189D01*
X168704488Y-85593308D01*
X168704487Y-85593313D01*
X168673088Y-85710499D01*
X168670379Y-85720608D01*
X168670379Y-85821020D01*
X168667910Y-85828617D01*
X168669160Y-85836506D01*
X168658636Y-85857159D01*
X168651472Y-85879211D01*
X168641383Y-85891023D01*
X168586905Y-85945502D01*
X168532389Y-85973280D01*
X168516901Y-85974499D01*
X162367237Y-85974499D01*
X162290816Y-85994976D01*
X162290809Y-85994979D01*
X162225975Y-86032412D01*
X162225970Y-86032415D01*
X162222293Y-86034537D01*
X156579756Y-91677072D01*
X156525239Y-91704849D01*
X156464807Y-91695278D01*
X156460255Y-91692806D01*
X156442944Y-91682812D01*
X156442945Y-91682812D01*
X156427906Y-91678782D01*
X156315647Y-91648703D01*
X156183863Y-91648703D01*
X156105955Y-91669578D01*
X156056564Y-91682812D01*
X155942445Y-91748699D01*
X155849251Y-91841893D01*
X155783364Y-91956012D01*
X155783363Y-91956017D01*
X155749255Y-92083311D01*
X155749255Y-92215095D01*
X155783363Y-92342389D01*
X155783363Y-92342390D01*
X155785043Y-92348657D01*
X155782031Y-92349463D01*
X155785746Y-92397841D01*
X155753678Y-92449949D01*
X155697106Y-92473256D01*
X155637638Y-92458860D01*
X155619522Y-92444551D01*
X154326395Y-91151424D01*
X154298618Y-91096907D01*
X154308189Y-91036475D01*
X154351454Y-90993210D01*
X154370770Y-90985795D01*
X154443186Y-90966392D01*
X154557314Y-90900500D01*
X154650500Y-90807314D01*
X154677425Y-90760679D01*
X154716390Y-90693190D01*
X154716390Y-90693188D01*
X154716392Y-90693186D01*
X154750500Y-90565892D01*
X154750500Y-90434108D01*
X154716392Y-90306814D01*
X154716390Y-90306811D01*
X154716390Y-90306809D01*
X154650503Y-90192690D01*
X154650501Y-90192688D01*
X154650500Y-90192686D01*
X154557314Y-90099500D01*
X154557311Y-90099498D01*
X154557309Y-90099496D01*
X154443189Y-90033609D01*
X154443191Y-90033609D01*
X154393799Y-90020375D01*
X154315892Y-89999500D01*
X154184108Y-89999500D01*
X154106200Y-90020375D01*
X154056809Y-90033609D01*
X153942690Y-90099496D01*
X153849496Y-90192690D01*
X153783609Y-90306809D01*
X153783608Y-90306814D01*
X153749500Y-90434108D01*
X153749500Y-90565892D01*
X153751908Y-90574877D01*
X153748705Y-90635979D01*
X153710200Y-90683528D01*
X153656281Y-90699500D01*
X151218156Y-90699500D01*
X151141733Y-90719978D01*
X151096813Y-90745913D01*
X151096811Y-90745914D01*
X151093267Y-90747960D01*
X151033418Y-90760679D01*
X150977523Y-90735792D01*
X150948142Y-90687842D01*
X150946986Y-90683528D01*
X150943008Y-90668680D01*
X150888851Y-90574877D01*
X150877119Y-90554556D01*
X150877117Y-90554554D01*
X150877116Y-90554552D01*
X150783930Y-90461366D01*
X150783927Y-90461364D01*
X150783925Y-90461362D01*
X150669805Y-90395475D01*
X150669807Y-90395475D01*
X150620415Y-90382241D01*
X150542508Y-90361366D01*
X150410724Y-90361366D01*
X150332816Y-90382241D01*
X150283425Y-90395475D01*
X150169306Y-90461362D01*
X150076112Y-90554556D01*
X150010225Y-90668675D01*
X150001966Y-90699500D01*
X149976116Y-90795974D01*
X149976116Y-90927758D01*
X149993654Y-90993210D01*
X150010225Y-91055056D01*
X150076112Y-91169175D01*
X150076114Y-91169177D01*
X150076116Y-91169180D01*
X150087434Y-91180498D01*
X150115210Y-91235013D01*
X150105639Y-91295445D01*
X150062374Y-91338710D01*
X150017429Y-91349500D01*
X149730657Y-91349500D01*
X149672466Y-91330593D01*
X149660653Y-91320504D01*
X149365034Y-91024885D01*
X149337257Y-90970368D01*
X149336038Y-90954881D01*
X149336038Y-90854469D01*
X149323403Y-90807314D01*
X149301930Y-90727174D01*
X149301928Y-90727171D01*
X149301928Y-90727169D01*
X149236041Y-90613050D01*
X149236039Y-90613048D01*
X149236038Y-90613046D01*
X149142852Y-90519860D01*
X149142849Y-90519858D01*
X149142847Y-90519856D01*
X149028727Y-90453969D01*
X149028729Y-90453969D01*
X148954608Y-90434109D01*
X148901430Y-90419860D01*
X148769646Y-90419860D01*
X148716468Y-90434109D01*
X148642347Y-90453969D01*
X148528228Y-90519856D01*
X148435034Y-90613050D01*
X148369147Y-90727169D01*
X148346558Y-90811475D01*
X148313234Y-90862790D01*
X148256112Y-90884716D01*
X148246983Y-90884773D01*
X148235960Y-90884333D01*
X148214613Y-90878613D01*
X148092624Y-90878613D01*
X148090644Y-90878534D01*
X148063713Y-90868580D01*
X148036401Y-90859706D01*
X148033880Y-90857553D01*
X148033254Y-90857322D01*
X148032782Y-90856615D01*
X148024588Y-90849617D01*
X145072594Y-87897623D01*
X145009079Y-87834108D01*
X146499500Y-87834108D01*
X146499500Y-87965892D01*
X146522873Y-88053122D01*
X146533609Y-88093190D01*
X146599496Y-88207309D01*
X146599498Y-88207311D01*
X146599500Y-88207314D01*
X146692686Y-88300500D01*
X146692688Y-88300501D01*
X146692690Y-88300503D01*
X146806810Y-88366390D01*
X146806808Y-88366390D01*
X146806812Y-88366391D01*
X146806814Y-88366392D01*
X146934108Y-88400500D01*
X146934110Y-88400500D01*
X147065890Y-88400500D01*
X147065892Y-88400500D01*
X147193186Y-88366392D01*
X147193188Y-88366390D01*
X147193190Y-88366390D01*
X147307309Y-88300503D01*
X147307309Y-88300502D01*
X147307314Y-88300500D01*
X147400500Y-88207314D01*
X147437522Y-88143190D01*
X147466390Y-88093190D01*
X147466390Y-88093188D01*
X147466392Y-88093186D01*
X147500500Y-87965892D01*
X147500500Y-87834108D01*
X147466392Y-87706814D01*
X147466390Y-87706811D01*
X147466390Y-87706809D01*
X147400503Y-87592690D01*
X147400501Y-87592688D01*
X147400500Y-87592686D01*
X147307314Y-87499500D01*
X147307311Y-87499498D01*
X147307309Y-87499496D01*
X147193189Y-87433609D01*
X147193191Y-87433609D01*
X147143799Y-87420375D01*
X147065892Y-87399500D01*
X146934108Y-87399500D01*
X146856200Y-87420375D01*
X146806809Y-87433609D01*
X146692690Y-87499496D01*
X146599496Y-87592690D01*
X146533609Y-87706809D01*
X146533608Y-87706814D01*
X146499500Y-87834108D01*
X145009079Y-87834108D01*
X143329501Y-86154530D01*
X141496579Y-84321608D01*
X142499500Y-84321608D01*
X142499500Y-84453392D01*
X142509548Y-84490892D01*
X142533609Y-84580690D01*
X142599496Y-84694809D01*
X142599498Y-84694811D01*
X142599500Y-84694814D01*
X142692686Y-84788000D01*
X142692688Y-84788001D01*
X142692690Y-84788003D01*
X142806810Y-84853890D01*
X142806808Y-84853890D01*
X142806812Y-84853891D01*
X142806814Y-84853892D01*
X142934108Y-84888000D01*
X142934110Y-84888000D01*
X143065890Y-84888000D01*
X143065892Y-84888000D01*
X143193186Y-84853892D01*
X143193188Y-84853890D01*
X143193190Y-84853890D01*
X143307309Y-84788003D01*
X143307309Y-84788002D01*
X143307314Y-84788000D01*
X143400500Y-84694814D01*
X143401440Y-84693186D01*
X143466390Y-84580690D01*
X143466390Y-84580688D01*
X143466392Y-84580686D01*
X143500500Y-84453392D01*
X143500500Y-84359108D01*
X146249500Y-84359108D01*
X146249500Y-84490892D01*
X146269596Y-84565892D01*
X146283609Y-84618190D01*
X146349496Y-84732309D01*
X146349498Y-84732311D01*
X146349500Y-84732314D01*
X146442686Y-84825500D01*
X146442688Y-84825501D01*
X146442690Y-84825503D01*
X146556810Y-84891390D01*
X146556808Y-84891390D01*
X146556812Y-84891391D01*
X146556814Y-84891392D01*
X146684108Y-84925500D01*
X146684110Y-84925500D01*
X146815890Y-84925500D01*
X146815892Y-84925500D01*
X146943186Y-84891392D01*
X146943188Y-84891390D01*
X146943190Y-84891390D01*
X147057309Y-84825503D01*
X147057309Y-84825502D01*
X147057314Y-84825500D01*
X147150500Y-84732314D01*
X147177528Y-84685500D01*
X147216390Y-84618190D01*
X147216390Y-84618188D01*
X147216392Y-84618186D01*
X147250500Y-84490892D01*
X147250500Y-84359108D01*
X147216392Y-84231814D01*
X147216390Y-84231811D01*
X147216390Y-84231809D01*
X147150503Y-84117690D01*
X147150501Y-84117688D01*
X147150500Y-84117686D01*
X147057314Y-84024500D01*
X147057311Y-84024498D01*
X147057309Y-84024496D01*
X146943189Y-83958609D01*
X146943191Y-83958609D01*
X146893799Y-83945375D01*
X146815892Y-83924500D01*
X146684108Y-83924500D01*
X146606200Y-83945375D01*
X146556809Y-83958609D01*
X146442690Y-84024496D01*
X146349496Y-84117690D01*
X146283609Y-84231809D01*
X146283608Y-84231814D01*
X146249500Y-84359108D01*
X143500500Y-84359108D01*
X143500500Y-84321608D01*
X143466392Y-84194314D01*
X143466390Y-84194311D01*
X143466390Y-84194309D01*
X143400503Y-84080190D01*
X143400501Y-84080188D01*
X143400500Y-84080186D01*
X143307314Y-83987000D01*
X143307311Y-83986998D01*
X143307309Y-83986996D01*
X143193189Y-83921109D01*
X143193191Y-83921109D01*
X143143799Y-83907875D01*
X143065892Y-83887000D01*
X142934108Y-83887000D01*
X142856200Y-83907875D01*
X142806809Y-83921109D01*
X142692690Y-83986996D01*
X142599496Y-84080190D01*
X142533609Y-84194309D01*
X142533608Y-84194314D01*
X142499500Y-84321608D01*
X141496579Y-84321608D01*
X139434511Y-82259540D01*
X139425066Y-82254087D01*
X139365989Y-82219979D01*
X139365988Y-82219978D01*
X139365987Y-82219978D01*
X139289564Y-82199500D01*
X139289562Y-82199500D01*
X133948321Y-82199500D01*
X133890130Y-82180593D01*
X133878323Y-82170509D01*
X133807314Y-82099500D01*
X133807311Y-82099498D01*
X133807309Y-82099496D01*
X133693189Y-82033609D01*
X133693191Y-82033609D01*
X133643799Y-82020375D01*
X133565892Y-81999500D01*
X133434108Y-81999500D01*
X133356200Y-82020375D01*
X133306809Y-82033609D01*
X133192690Y-82099496D01*
X133099496Y-82192690D01*
X133033609Y-82306809D01*
X133033608Y-82306814D01*
X132999500Y-82434108D01*
X127957366Y-82434108D01*
X129311979Y-81079496D01*
X129366496Y-81051719D01*
X129381983Y-81050500D01*
X144334521Y-81050500D01*
X144392712Y-81069407D01*
X144404525Y-81079496D01*
X148670504Y-85345475D01*
X148698281Y-85399992D01*
X148699500Y-85415479D01*
X148699500Y-88789564D01*
X148719978Y-88865987D01*
X148730383Y-88884010D01*
X148759540Y-88934511D01*
X149009539Y-89184511D01*
X149065489Y-89240460D01*
X149134007Y-89280019D01*
X149134011Y-89280021D01*
X149210435Y-89300499D01*
X149210437Y-89300500D01*
X149210438Y-89300500D01*
X150539563Y-89300500D01*
X150539563Y-89300499D01*
X150615989Y-89280021D01*
X150684511Y-89240460D01*
X150740460Y-89184511D01*
X151460840Y-88464130D01*
X151515355Y-88436355D01*
X151575787Y-88445926D01*
X151619052Y-88489191D01*
X151622308Y-88496255D01*
X151623335Y-88498735D01*
X151689221Y-88612853D01*
X151689223Y-88612855D01*
X151689225Y-88612858D01*
X151782411Y-88706044D01*
X151782413Y-88706045D01*
X151782415Y-88706047D01*
X151896535Y-88771934D01*
X151896533Y-88771934D01*
X151896537Y-88771935D01*
X151896539Y-88771936D01*
X152023833Y-88806044D01*
X152023835Y-88806044D01*
X152155615Y-88806044D01*
X152155617Y-88806044D01*
X152282911Y-88771936D01*
X152282913Y-88771934D01*
X152282915Y-88771934D01*
X152397034Y-88706047D01*
X152397034Y-88706046D01*
X152397039Y-88706044D01*
X152490225Y-88612858D01*
X152497022Y-88601086D01*
X152556115Y-88498734D01*
X152556115Y-88498732D01*
X152556117Y-88498730D01*
X152590225Y-88371436D01*
X152590225Y-88239652D01*
X152556117Y-88112358D01*
X152556115Y-88112355D01*
X152556115Y-88112353D01*
X152490228Y-87998234D01*
X152490226Y-87998232D01*
X152490225Y-87998230D01*
X152397039Y-87905044D01*
X152397036Y-87905042D01*
X152397034Y-87905040D01*
X152282914Y-87839153D01*
X152282916Y-87839153D01*
X152281135Y-87838676D01*
X152278507Y-87837972D01*
X152227195Y-87804649D01*
X152205268Y-87747527D01*
X152221104Y-87688427D01*
X152254632Y-87656609D01*
X152262374Y-87652140D01*
X152355560Y-87558954D01*
X152407630Y-87468767D01*
X152421450Y-87444830D01*
X152421451Y-87444827D01*
X152421452Y-87444826D01*
X152455560Y-87317532D01*
X152455560Y-87185748D01*
X152421452Y-87058454D01*
X152421451Y-87058452D01*
X152419772Y-87052186D01*
X152422399Y-87051481D01*
X152418502Y-87001912D01*
X152450476Y-86949746D01*
X152489143Y-86929405D01*
X152493509Y-86928236D01*
X152493511Y-86928234D01*
X152493513Y-86928234D01*
X152607632Y-86862347D01*
X152607632Y-86862346D01*
X152607637Y-86862344D01*
X152700823Y-86769158D01*
X152700826Y-86769153D01*
X152766713Y-86655034D01*
X152766713Y-86655032D01*
X152766715Y-86655030D01*
X152800823Y-86527736D01*
X152800823Y-86395952D01*
X152766715Y-86268658D01*
X152766713Y-86268655D01*
X152766713Y-86268653D01*
X152700826Y-86154534D01*
X152700824Y-86154532D01*
X152700823Y-86154530D01*
X152607637Y-86061344D01*
X152607634Y-86061342D01*
X152607632Y-86061340D01*
X152493512Y-85995453D01*
X152493514Y-85995453D01*
X152434665Y-85979685D01*
X152366215Y-85961344D01*
X152234431Y-85961344D01*
X152165981Y-85979685D01*
X152107132Y-85995453D01*
X151993013Y-86061340D01*
X151899819Y-86154534D01*
X151833932Y-86268653D01*
X151827990Y-86290830D01*
X151799823Y-86395952D01*
X151799823Y-86527736D01*
X151833931Y-86655030D01*
X151833931Y-86655031D01*
X151835611Y-86661298D01*
X151832989Y-86662000D01*
X151836872Y-86711602D01*
X151804881Y-86763758D01*
X151766245Y-86784076D01*
X151761876Y-86785246D01*
X151761870Y-86785249D01*
X151647750Y-86851136D01*
X151554556Y-86944330D01*
X151488669Y-87058449D01*
X151488668Y-87058454D01*
X151454560Y-87185748D01*
X151454560Y-87317532D01*
X151476523Y-87399500D01*
X151488668Y-87444827D01*
X151502490Y-87468767D01*
X151515211Y-87528616D01*
X151490324Y-87584511D01*
X151486757Y-87588270D01*
X151049682Y-88025345D01*
X150995165Y-88053122D01*
X150934733Y-88043551D01*
X150891468Y-88000286D01*
X150884055Y-87980973D01*
X150852117Y-87861778D01*
X150852115Y-87861774D01*
X150786228Y-87747654D01*
X150786226Y-87747652D01*
X150786225Y-87747650D01*
X150715219Y-87676644D01*
X150687444Y-87622130D01*
X150686225Y-87606643D01*
X150686225Y-84434108D01*
X151749500Y-84434108D01*
X151749500Y-84565892D01*
X151771040Y-84646281D01*
X151783609Y-84693190D01*
X151849496Y-84807309D01*
X151849498Y-84807311D01*
X151849500Y-84807314D01*
X151942686Y-84900500D01*
X151942688Y-84900501D01*
X151942690Y-84900503D01*
X152056810Y-84966390D01*
X152056808Y-84966390D01*
X152056812Y-84966391D01*
X152056814Y-84966392D01*
X152184108Y-85000500D01*
X152184110Y-85000500D01*
X152315890Y-85000500D01*
X152315892Y-85000500D01*
X152443186Y-84966392D01*
X152443188Y-84966390D01*
X152443190Y-84966390D01*
X152557309Y-84900503D01*
X152557309Y-84900502D01*
X152557314Y-84900500D01*
X152650500Y-84807314D01*
X152661651Y-84788000D01*
X152716390Y-84693190D01*
X152716390Y-84693188D01*
X152716392Y-84693186D01*
X152750500Y-84565892D01*
X152750500Y-84434108D01*
X152716392Y-84306814D01*
X152716390Y-84306811D01*
X152716390Y-84306809D01*
X152650503Y-84192690D01*
X152650501Y-84192688D01*
X152650500Y-84192686D01*
X152557314Y-84099500D01*
X152557311Y-84099498D01*
X152557309Y-84099496D01*
X152444272Y-84034234D01*
X167824500Y-84034234D01*
X167824500Y-84185766D01*
X167851625Y-84287000D01*
X167863720Y-84332139D01*
X167939481Y-84463360D01*
X167939483Y-84463362D01*
X167939485Y-84463365D01*
X168046635Y-84570515D01*
X168046637Y-84570516D01*
X168046639Y-84570518D01*
X168177861Y-84646279D01*
X168177859Y-84646279D01*
X168177863Y-84646280D01*
X168177865Y-84646281D01*
X168324234Y-84685500D01*
X168324236Y-84685500D01*
X168475764Y-84685500D01*
X168475766Y-84685500D01*
X168622135Y-84646281D01*
X168622137Y-84646279D01*
X168622139Y-84646279D01*
X168753360Y-84570518D01*
X168753360Y-84570517D01*
X168753365Y-84570515D01*
X168860515Y-84463365D01*
X168877407Y-84434108D01*
X168936279Y-84332139D01*
X168936279Y-84332137D01*
X168936281Y-84332135D01*
X168975500Y-84185766D01*
X168975500Y-84034234D01*
X168936281Y-83887865D01*
X168936279Y-83887862D01*
X168936279Y-83887860D01*
X168860518Y-83756639D01*
X168860516Y-83756637D01*
X168860515Y-83756635D01*
X168753365Y-83649485D01*
X168753362Y-83649483D01*
X168753360Y-83649481D01*
X168622138Y-83573720D01*
X168622140Y-83573720D01*
X168565347Y-83558503D01*
X168475766Y-83534500D01*
X168324234Y-83534500D01*
X168234652Y-83558503D01*
X168177860Y-83573720D01*
X168046639Y-83649481D01*
X167939481Y-83756639D01*
X167863720Y-83887860D01*
X167854811Y-83921109D01*
X167824500Y-84034234D01*
X152444272Y-84034234D01*
X152443189Y-84033609D01*
X152443191Y-84033609D01*
X152393799Y-84020375D01*
X152315892Y-83999500D01*
X152184108Y-83999500D01*
X152106200Y-84020375D01*
X152056809Y-84033609D01*
X151942690Y-84099496D01*
X151849496Y-84192690D01*
X151783609Y-84306809D01*
X151778735Y-84325000D01*
X151749500Y-84434108D01*
X150686225Y-84434108D01*
X150686225Y-82434108D01*
X151749500Y-82434108D01*
X151749500Y-82565892D01*
X151779579Y-82678151D01*
X151783609Y-82693190D01*
X151849496Y-82807309D01*
X151849498Y-82807311D01*
X151849500Y-82807314D01*
X151942686Y-82900500D01*
X151942688Y-82900501D01*
X151942690Y-82900503D01*
X152056810Y-82966390D01*
X152056808Y-82966390D01*
X152056812Y-82966391D01*
X152056814Y-82966392D01*
X152184108Y-83000500D01*
X152184110Y-83000500D01*
X152315890Y-83000500D01*
X152315892Y-83000500D01*
X152443186Y-82966392D01*
X152443188Y-82966390D01*
X152443190Y-82966390D01*
X152557309Y-82900503D01*
X152557309Y-82900502D01*
X152557314Y-82900500D01*
X152650500Y-82807314D01*
X152716392Y-82693186D01*
X152750500Y-82565892D01*
X152750500Y-82434108D01*
X152716392Y-82306814D01*
X152716390Y-82306811D01*
X152716390Y-82306809D01*
X152650503Y-82192690D01*
X152650501Y-82192688D01*
X152650500Y-82192686D01*
X152557314Y-82099500D01*
X152557311Y-82099498D01*
X152557309Y-82099496D01*
X152443189Y-82033609D01*
X152443191Y-82033609D01*
X152393799Y-82020375D01*
X152315892Y-81999500D01*
X152184108Y-81999500D01*
X152106200Y-82020375D01*
X152056809Y-82033609D01*
X151942690Y-82099496D01*
X151849496Y-82192690D01*
X151783609Y-82306809D01*
X151783608Y-82306814D01*
X151749500Y-82434108D01*
X150686225Y-82434108D01*
X150686225Y-81589753D01*
X150705132Y-81531562D01*
X150715215Y-81519755D01*
X151050862Y-81184108D01*
X162999500Y-81184108D01*
X162999500Y-81315892D01*
X163026178Y-81415455D01*
X163033609Y-81443190D01*
X163099496Y-81557309D01*
X163099498Y-81557311D01*
X163099500Y-81557314D01*
X163192686Y-81650500D01*
X163192688Y-81650501D01*
X163192690Y-81650503D01*
X163306810Y-81716390D01*
X163306808Y-81716390D01*
X163306812Y-81716391D01*
X163306814Y-81716392D01*
X163434108Y-81750500D01*
X163434110Y-81750500D01*
X163565890Y-81750500D01*
X163565892Y-81750500D01*
X163693186Y-81716392D01*
X163693188Y-81716390D01*
X163693190Y-81716390D01*
X163807309Y-81650503D01*
X163807309Y-81650502D01*
X163807314Y-81650500D01*
X163900500Y-81557314D01*
X163966392Y-81443186D01*
X164000500Y-81315892D01*
X164000500Y-81184108D01*
X163966392Y-81056814D01*
X163966390Y-81056811D01*
X163966390Y-81056809D01*
X163900503Y-80942690D01*
X163900501Y-80942688D01*
X163900500Y-80942686D01*
X163807314Y-80849500D01*
X163807311Y-80849498D01*
X163807309Y-80849496D01*
X163693189Y-80783609D01*
X163693191Y-80783609D01*
X163643799Y-80770375D01*
X163565892Y-80749500D01*
X163434108Y-80749500D01*
X163356200Y-80770375D01*
X163306809Y-80783609D01*
X163192690Y-80849496D01*
X163099496Y-80942690D01*
X163033609Y-81056809D01*
X163027530Y-81079496D01*
X162999500Y-81184108D01*
X151050862Y-81184108D01*
X153183416Y-79051553D01*
X153237931Y-79023778D01*
X153298361Y-79033348D01*
X153367402Y-79068527D01*
X153540005Y-79124609D01*
X153540006Y-79124609D01*
X153540009Y-79124610D01*
X153719254Y-79153000D01*
X153719257Y-79153000D01*
X153900746Y-79153000D01*
X154079990Y-79124610D01*
X154079991Y-79124609D01*
X154079995Y-79124609D01*
X154252598Y-79068527D01*
X154414304Y-78986134D01*
X154561129Y-78879459D01*
X154689459Y-78751129D01*
X154796134Y-78604304D01*
X154878527Y-78442598D01*
X154934609Y-78269995D01*
X154960538Y-78106290D01*
X154963000Y-78090746D01*
X154963000Y-77909253D01*
X154934610Y-77730009D01*
X154919582Y-77683757D01*
X154878527Y-77557402D01*
X154796134Y-77395696D01*
X154689459Y-77248871D01*
X154561129Y-77120541D01*
X154414304Y-77013866D01*
X154414303Y-77013865D01*
X154414301Y-77013864D01*
X154252598Y-76931473D01*
X154079990Y-76875389D01*
X153900746Y-76847000D01*
X153900743Y-76847000D01*
X153719257Y-76847000D01*
X153719254Y-76847000D01*
X153540009Y-76875389D01*
X153367401Y-76931473D01*
X153205698Y-77013864D01*
X153058872Y-77120540D01*
X152930540Y-77248872D01*
X152823864Y-77395698D01*
X152741473Y-77557401D01*
X152685389Y-77730009D01*
X152657000Y-77909253D01*
X152657000Y-78090746D01*
X152685389Y-78269990D01*
X152741473Y-78442598D01*
X152776649Y-78511635D01*
X152786220Y-78572067D01*
X152758443Y-78626584D01*
X150201214Y-81183815D01*
X150201213Y-81183814D01*
X150145264Y-81239764D01*
X150105705Y-81308282D01*
X150105703Y-81308286D01*
X150096612Y-81342215D01*
X150063288Y-81393529D01*
X150006166Y-81415455D01*
X149947066Y-81399619D01*
X149908561Y-81352068D01*
X149901986Y-81316591D01*
X149901986Y-79833992D01*
X149920893Y-79775801D01*
X149930976Y-79763994D01*
X150643416Y-79051553D01*
X150697931Y-79023778D01*
X150758361Y-79033348D01*
X150827402Y-79068527D01*
X151000005Y-79124609D01*
X151000006Y-79124609D01*
X151000009Y-79124610D01*
X151179254Y-79153000D01*
X151179257Y-79153000D01*
X151360746Y-79153000D01*
X151539990Y-79124610D01*
X151539991Y-79124609D01*
X151539995Y-79124609D01*
X151712598Y-79068527D01*
X151874304Y-78986134D01*
X152021129Y-78879459D01*
X152149459Y-78751129D01*
X152256134Y-78604304D01*
X152338527Y-78442598D01*
X152394609Y-78269995D01*
X152420538Y-78106290D01*
X152423000Y-78090746D01*
X152423000Y-77909253D01*
X152394610Y-77730009D01*
X152379582Y-77683757D01*
X152338527Y-77557402D01*
X152256134Y-77395696D01*
X152149459Y-77248871D01*
X152021129Y-77120541D01*
X151874304Y-77013866D01*
X151874303Y-77013865D01*
X151874301Y-77013864D01*
X151712598Y-76931473D01*
X151539990Y-76875389D01*
X151360746Y-76847000D01*
X151360743Y-76847000D01*
X151179257Y-76847000D01*
X151179254Y-76847000D01*
X151000009Y-76875389D01*
X150827401Y-76931473D01*
X150665698Y-77013864D01*
X150518872Y-77120540D01*
X150390540Y-77248872D01*
X150283864Y-77395698D01*
X150201473Y-77557401D01*
X150145389Y-77730009D01*
X150117000Y-77909253D01*
X150117000Y-78090746D01*
X150145389Y-78269990D01*
X150201473Y-78442598D01*
X150236649Y-78511635D01*
X150246220Y-78572067D01*
X150218443Y-78626583D01*
X149416975Y-79428053D01*
X149361025Y-79484003D01*
X149321466Y-79552521D01*
X149321464Y-79552525D01*
X149300986Y-79628949D01*
X149300986Y-84887007D01*
X149282079Y-84945198D01*
X149232579Y-84981162D01*
X149171393Y-84981162D01*
X149131982Y-84957011D01*
X146966590Y-82791619D01*
X144684511Y-80509540D01*
X144684508Y-80509538D01*
X144615992Y-80469980D01*
X144615988Y-80469978D01*
X144539564Y-80449500D01*
X144539562Y-80449500D01*
X129176942Y-80449500D01*
X129176939Y-80449500D01*
X129100515Y-80469978D01*
X129100511Y-80469980D01*
X129031995Y-80509538D01*
X126444489Y-83097044D01*
X126444488Y-83097043D01*
X126388539Y-83152993D01*
X126348980Y-83221511D01*
X126348978Y-83221515D01*
X126328500Y-83297939D01*
X125500500Y-83297939D01*
X125500500Y-78003539D01*
X125500752Y-77996477D01*
X125508102Y-77893709D01*
X125515258Y-77793652D01*
X125517265Y-77779693D01*
X125559737Y-77584447D01*
X125563711Y-77570914D01*
X125633539Y-77383701D01*
X125639391Y-77370886D01*
X125735150Y-77195516D01*
X125742777Y-77183648D01*
X125862515Y-77023698D01*
X125871749Y-77013040D01*
X126013040Y-76871749D01*
X126023698Y-76862515D01*
X126183648Y-76742777D01*
X126195516Y-76735150D01*
X126370886Y-76639391D01*
X126383701Y-76633539D01*
X126570914Y-76563711D01*
X126584447Y-76559737D01*
X126779693Y-76517265D01*
X126793652Y-76515258D01*
X126973568Y-76502390D01*
X126996478Y-76500752D01*
X127003540Y-76500500D01*
X127065892Y-76500500D01*
X137869615Y-76500500D01*
X137927806Y-76519407D01*
G37*
%TD.AperFunction*%
%TD*%
M02*
