%TF.GenerationSoftware,KiCad,Pcbnew,9.0.5*%
%TF.CreationDate,2026-01-17T21:03:59+11:00*%
%TF.ProjectId,Active-Dampers,41637469-7665-42d4-9461-6d706572732e,rev?*%
%TF.SameCoordinates,Original*%
%TF.FileFunction,Legend,Top*%
%TF.FilePolarity,Positive*%
%FSLAX46Y46*%
G04 Gerber Fmt 4.6, Leading zero omitted, Abs format (unit mm)*
G04 Created by KiCad (PCBNEW 9.0.5) date 2026-01-17 21:03:59*
%MOMM*%
%LPD*%
G01*
G04 APERTURE LIST*
G04 Aperture macros list*
%AMRoundRect*
0 Rectangle with rounded corners*
0 $1 Rounding radius*
0 $2 $3 $4 $5 $6 $7 $8 $9 X,Y pos of 4 corners*
0 Add a 4 corners polygon primitive as box body*
4,1,4,$2,$3,$4,$5,$6,$7,$8,$9,$2,$3,0*
0 Add four circle primitives for the rounded corners*
1,1,$1+$1,$2,$3*
1,1,$1+$1,$4,$5*
1,1,$1+$1,$6,$7*
1,1,$1+$1,$8,$9*
0 Add four rect primitives between the rounded corners*
20,1,$1+$1,$2,$3,$4,$5,0*
20,1,$1+$1,$4,$5,$6,$7,0*
20,1,$1+$1,$6,$7,$8,$9,0*
20,1,$1+$1,$8,$9,$2,$3,0*%
G04 Aperture macros list end*
%ADD10C,0.120000*%
%ADD11C,0.200000*%
%ADD12C,0.100000*%
%ADD13C,0.150000*%
%ADD14C,0.203200*%
%ADD15C,0.000000*%
%ADD16C,1.600000*%
%ADD17RoundRect,0.250000X-0.550000X-0.550000X0.550000X-0.550000X0.550000X0.550000X-0.550000X0.550000X0*%
%ADD18R,1.100000X1.100000*%
%ADD19C,1.100000*%
%ADD20C,1.200000*%
%ADD21RoundRect,0.250000X0.725000X-0.600000X0.725000X0.600000X-0.725000X0.600000X-0.725000X-0.600000X0*%
%ADD22O,1.950000X1.700000*%
%ADD23RoundRect,0.250000X-0.725000X0.600000X-0.725000X-0.600000X0.725000X-0.600000X0.725000X0.600000X0*%
%ADD24RoundRect,0.875000X0.875000X-0.875000X0.875000X0.875000X-0.875000X0.875000X-0.875000X-0.875000X0*%
%ADD25RoundRect,0.750000X1.000000X-0.750000X1.000000X0.750000X-1.000000X0.750000X-1.000000X-0.750000X0*%
%ADD26R,3.500000X3.500000*%
%ADD27C,0.650000*%
%ADD28R,1.450000X0.600000*%
%ADD29R,1.450000X0.300000*%
%ADD30O,2.100000X1.000000*%
%ADD31O,1.600000X1.000000*%
%ADD32C,2.200000*%
%ADD33C,1.905000*%
%ADD34RoundRect,0.062500X-0.350000X0.062500X-0.350000X-0.062500X0.350000X-0.062500X0.350000X0.062500X0*%
%ADD35RoundRect,0.062500X-0.062500X0.350000X-0.062500X-0.350000X0.062500X-0.350000X0.062500X0.350000X0*%
%ADD36C,3.800000*%
%ADD37RoundRect,0.200000X0.275000X-0.200000X0.275000X0.200000X-0.275000X0.200000X-0.275000X-0.200000X0*%
%ADD38R,1.050000X0.450000*%
%ADD39R,1.470000X0.895000*%
%ADD40O,1.300000X0.600000*%
%ADD41RoundRect,0.625000X-0.625000X-1.125000X0.625000X-1.125000X0.625000X1.125000X-0.625000X1.125000X0*%
%ADD42RoundRect,0.225000X-0.225000X-0.250000X0.225000X-0.250000X0.225000X0.250000X-0.225000X0.250000X0*%
%ADD43R,3.500000X1.850000*%
%ADD44RoundRect,0.218750X0.218750X0.256250X-0.218750X0.256250X-0.218750X-0.256250X0.218750X-0.256250X0*%
%ADD45RoundRect,0.225000X0.225000X0.250000X-0.225000X0.250000X-0.225000X-0.250000X0.225000X-0.250000X0*%
%ADD46RoundRect,0.250000X0.750000X-0.275000X0.750000X0.275000X-0.750000X0.275000X-0.750000X-0.275000X0*%
%ADD47RoundRect,0.225000X-0.250000X0.225000X-0.250000X-0.225000X0.250000X-0.225000X0.250000X0.225000X0*%
%ADD48RoundRect,0.375000X-0.625000X-0.375000X0.625000X-0.375000X0.625000X0.375000X-0.625000X0.375000X0*%
%ADD49RoundRect,0.500000X-0.500000X-1.400000X0.500000X-1.400000X0.500000X1.400000X-0.500000X1.400000X0*%
%ADD50RoundRect,0.200000X-0.200000X-0.275000X0.200000X-0.275000X0.200000X0.275000X-0.200000X0.275000X0*%
%ADD51RoundRect,0.075000X-0.665000X-0.075000X0.665000X-0.075000X0.665000X0.075000X-0.665000X0.075000X0*%
%ADD52RoundRect,0.075000X-0.075000X-0.665000X0.075000X-0.665000X0.075000X0.665000X-0.075000X0.665000X0*%
%ADD53RoundRect,0.260556X-0.677444X1.027444X-0.677444X-1.027444X0.677444X-1.027444X0.677444X1.027444X0*%
%ADD54R,1.500000X1.000000*%
%ADD55RoundRect,0.200000X-0.275000X0.200000X-0.275000X-0.200000X0.275000X-0.200000X0.275000X0.200000X0*%
%ADD56RoundRect,0.200000X0.200000X0.275000X-0.200000X0.275000X-0.200000X-0.275000X0.200000X-0.275000X0*%
%ADD57RoundRect,0.225000X0.250000X-0.225000X0.250000X0.225000X-0.250000X0.225000X-0.250000X-0.225000X0*%
%ADD58RoundRect,0.475000X0.725000X-0.475000X0.725000X0.475000X-0.725000X0.475000X-0.725000X-0.475000X0*%
G04 APERTURE END LIST*
D10*
%TO.C,C15*%
X167370000Y-120750000D02*
G75*
G02*
X159130000Y-120750000I-4120000J0D01*
G01*
X159130000Y-120750000D02*
G75*
G02*
X167370000Y-120750000I4120000J0D01*
G01*
X167330000Y-120217000D02*
X167330000Y-121283000D01*
X167290000Y-119982000D02*
X167290000Y-121518000D01*
X167250000Y-119803000D02*
X167250000Y-121697000D01*
X167210000Y-119653000D02*
X167210000Y-121847000D01*
X167170000Y-119522000D02*
X167170000Y-121978000D01*
X167130000Y-119404000D02*
X167130000Y-122096000D01*
X167090000Y-119297000D02*
X167090000Y-122203000D01*
X167050000Y-119198000D02*
X167050000Y-122302000D01*
X167010000Y-119106000D02*
X167010000Y-122394000D01*
X166970000Y-119019000D02*
X166970000Y-122481000D01*
X166930000Y-118937000D02*
X166930000Y-122563000D01*
X166890000Y-118860000D02*
X166890000Y-122640000D01*
X166850000Y-118786000D02*
X166850000Y-122714000D01*
X166810000Y-118716000D02*
X166810000Y-122784000D01*
X166770000Y-118649000D02*
X166770000Y-122851000D01*
X166730000Y-118585000D02*
X166730000Y-122915000D01*
X166690000Y-118523000D02*
X166690000Y-122977000D01*
X166650000Y-118463000D02*
X166650000Y-123037000D01*
X166610000Y-118406000D02*
X166610000Y-123094000D01*
X166570000Y-118350000D02*
X166570000Y-123150000D01*
X166530000Y-118297000D02*
X166530000Y-123203000D01*
X166490000Y-118245000D02*
X166490000Y-123255000D01*
X166450000Y-118195000D02*
X166450000Y-123305000D01*
X166410000Y-118146000D02*
X166410000Y-123354000D01*
X166370000Y-118099000D02*
X166370000Y-123401000D01*
X166330000Y-118054000D02*
X166330000Y-123446000D01*
X166290000Y-118009000D02*
X166290000Y-123491000D01*
X166250000Y-117966000D02*
X166250000Y-123534000D01*
X166210000Y-117924000D02*
X166210000Y-123576000D01*
X166170000Y-117883000D02*
X166170000Y-123617000D01*
X166130000Y-117844000D02*
X166130000Y-123656000D01*
X166090000Y-117805000D02*
X166090000Y-123695000D01*
X166050000Y-117768000D02*
X166050000Y-123732000D01*
X166010000Y-121790000D02*
X166010000Y-123769000D01*
X166010000Y-117731000D02*
X166010000Y-119710000D01*
X165970000Y-121790000D02*
X165970000Y-123805000D01*
X165970000Y-117695000D02*
X165970000Y-119710000D01*
X165930000Y-121790000D02*
X165930000Y-123839000D01*
X165930000Y-117661000D02*
X165930000Y-119710000D01*
X165890000Y-121790000D02*
X165890000Y-123873000D01*
X165890000Y-117627000D02*
X165890000Y-119710000D01*
X165850000Y-121790000D02*
X165850000Y-123906000D01*
X165850000Y-117594000D02*
X165850000Y-119710000D01*
X165810000Y-121790000D02*
X165810000Y-123938000D01*
X165810000Y-117562000D02*
X165810000Y-119710000D01*
X165770000Y-121790000D02*
X165770000Y-123969000D01*
X165770000Y-117531000D02*
X165770000Y-119710000D01*
X165730000Y-121790000D02*
X165730000Y-124000000D01*
X165730000Y-117500000D02*
X165730000Y-119710000D01*
X165690000Y-121790000D02*
X165690000Y-124030000D01*
X165690000Y-117470000D02*
X165690000Y-119710000D01*
X165650000Y-121790000D02*
X165650000Y-124059000D01*
X165650000Y-117441000D02*
X165650000Y-119710000D01*
X165610000Y-121790000D02*
X165610000Y-124087000D01*
X165610000Y-117413000D02*
X165610000Y-119710000D01*
X165570000Y-121790000D02*
X165570000Y-124115000D01*
X165570000Y-117385000D02*
X165570000Y-119710000D01*
X165530000Y-121790000D02*
X165530000Y-124142000D01*
X165530000Y-117358000D02*
X165530000Y-119710000D01*
X165490000Y-121790000D02*
X165490000Y-124168000D01*
X165490000Y-117332000D02*
X165490000Y-119710000D01*
X165450000Y-121790000D02*
X165450000Y-124193000D01*
X165450000Y-117307000D02*
X165450000Y-119710000D01*
X165410000Y-121790000D02*
X165410000Y-124218000D01*
X165410000Y-117282000D02*
X165410000Y-119710000D01*
X165370000Y-121790000D02*
X165370000Y-124243000D01*
X165370000Y-117257000D02*
X165370000Y-119710000D01*
X165330000Y-121790000D02*
X165330000Y-124266000D01*
X165330000Y-117234000D02*
X165330000Y-119710000D01*
X165290000Y-121790000D02*
X165290000Y-124289000D01*
X165290000Y-117211000D02*
X165290000Y-119710000D01*
X165250000Y-121790000D02*
X165250000Y-124312000D01*
X165250000Y-117188000D02*
X165250000Y-119710000D01*
X165210000Y-121790000D02*
X165210000Y-124334000D01*
X165210000Y-117166000D02*
X165210000Y-119710000D01*
X165170000Y-121790000D02*
X165170000Y-124355000D01*
X165170000Y-117145000D02*
X165170000Y-119710000D01*
X165130000Y-121790000D02*
X165130000Y-124376000D01*
X165130000Y-117124000D02*
X165130000Y-119710000D01*
X165090000Y-121790000D02*
X165090000Y-124396000D01*
X165090000Y-117104000D02*
X165090000Y-119710000D01*
X165050000Y-121790000D02*
X165050000Y-124416000D01*
X165050000Y-117084000D02*
X165050000Y-119710000D01*
X165010000Y-121790000D02*
X165010000Y-124435000D01*
X165010000Y-117065000D02*
X165010000Y-119710000D01*
X164970000Y-121790000D02*
X164970000Y-124454000D01*
X164970000Y-117046000D02*
X164970000Y-119710000D01*
X164930000Y-121790000D02*
X164930000Y-124472000D01*
X164930000Y-117028000D02*
X164930000Y-119710000D01*
X164890000Y-121790000D02*
X164890000Y-124490000D01*
X164890000Y-117010000D02*
X164890000Y-119710000D01*
X164850000Y-121790000D02*
X164850000Y-124507000D01*
X164850000Y-116993000D02*
X164850000Y-119710000D01*
X164810000Y-121790000D02*
X164810000Y-124523000D01*
X164810000Y-116977000D02*
X164810000Y-119710000D01*
X164770000Y-121790000D02*
X164770000Y-124539000D01*
X164770000Y-116961000D02*
X164770000Y-119710000D01*
X164730000Y-121790000D02*
X164730000Y-124555000D01*
X164730000Y-116945000D02*
X164730000Y-119710000D01*
X164690000Y-121790000D02*
X164690000Y-124570000D01*
X164690000Y-116930000D02*
X164690000Y-119710000D01*
X164650000Y-121790000D02*
X164650000Y-124585000D01*
X164650000Y-116915000D02*
X164650000Y-119710000D01*
X164610000Y-121790000D02*
X164610000Y-124599000D01*
X164610000Y-116901000D02*
X164610000Y-119710000D01*
X164570000Y-121790000D02*
X164570000Y-124613000D01*
X164570000Y-116887000D02*
X164570000Y-119710000D01*
X164530000Y-121790000D02*
X164530000Y-124626000D01*
X164530000Y-116874000D02*
X164530000Y-119710000D01*
X164490000Y-121790000D02*
X164490000Y-124639000D01*
X164490000Y-116861000D02*
X164490000Y-119710000D01*
X164450000Y-121790000D02*
X164450000Y-124651000D01*
X164450000Y-116849000D02*
X164450000Y-119710000D01*
X164410000Y-121790000D02*
X164410000Y-124663000D01*
X164410000Y-116837000D02*
X164410000Y-119710000D01*
X164370000Y-121790000D02*
X164370000Y-124675000D01*
X164370000Y-116825000D02*
X164370000Y-119710000D01*
X164330000Y-121790000D02*
X164330000Y-124686000D01*
X164330000Y-116814000D02*
X164330000Y-119710000D01*
X164290000Y-121790000D02*
X164290000Y-124697000D01*
X164290000Y-116803000D02*
X164290000Y-119710000D01*
X164250000Y-121790000D02*
X164250000Y-124707000D01*
X164250000Y-116793000D02*
X164250000Y-119710000D01*
X164210000Y-121790000D02*
X164210000Y-124717000D01*
X164210000Y-116783000D02*
X164210000Y-119710000D01*
X164170000Y-121790000D02*
X164170000Y-124726000D01*
X164170000Y-116774000D02*
X164170000Y-119710000D01*
X164130000Y-121790000D02*
X164130000Y-124735000D01*
X164130000Y-116765000D02*
X164130000Y-119710000D01*
X164090000Y-121790000D02*
X164090000Y-124743000D01*
X164090000Y-116757000D02*
X164090000Y-119710000D01*
X164050000Y-121790000D02*
X164050000Y-124752000D01*
X164050000Y-116748000D02*
X164050000Y-119710000D01*
X164010000Y-121790000D02*
X164010000Y-124759000D01*
X164010000Y-116741000D02*
X164010000Y-119710000D01*
X163970000Y-121790000D02*
X163970000Y-124767000D01*
X163970000Y-116733000D02*
X163970000Y-119710000D01*
X163930000Y-116727000D02*
X163930000Y-124773000D01*
X163890000Y-116720000D02*
X163890000Y-124780000D01*
X163850000Y-116714000D02*
X163850000Y-124786000D01*
X163810000Y-116708000D02*
X163810000Y-124792000D01*
X163770000Y-116703000D02*
X163770000Y-124797000D01*
X163730000Y-116698000D02*
X163730000Y-124802000D01*
X163690000Y-116694000D02*
X163690000Y-124806000D01*
X163650000Y-116689000D02*
X163650000Y-124811000D01*
X163610000Y-116686000D02*
X163610000Y-124814000D01*
X163570000Y-116682000D02*
X163570000Y-124818000D01*
X163530000Y-116680000D02*
X163530000Y-124820000D01*
X163490000Y-116677000D02*
X163490000Y-124823000D01*
X163450000Y-116675000D02*
X163450000Y-124825000D01*
X163410000Y-116673000D02*
X163410000Y-124827000D01*
X163370000Y-116672000D02*
X163370000Y-124828000D01*
X163330000Y-116671000D02*
X163330000Y-124829000D01*
X163290000Y-116670000D02*
X163290000Y-124830000D01*
X163250000Y-116670000D02*
X163250000Y-124830000D01*
X159240302Y-118035000D02*
X159240302Y-118835000D01*
X158840302Y-118435000D02*
X159640302Y-118435000D01*
%TO.C,C22*%
X167370000Y-112250000D02*
G75*
G02*
X159130000Y-112250000I-4120000J0D01*
G01*
X159130000Y-112250000D02*
G75*
G02*
X167370000Y-112250000I4120000J0D01*
G01*
X167330000Y-111717001D02*
X167330000Y-112782999D01*
X167290000Y-111482000D02*
X167290000Y-113018000D01*
X167250000Y-111303000D02*
X167250000Y-113197000D01*
X167210000Y-111153000D02*
X167210000Y-113347000D01*
X167170000Y-111021999D02*
X167170000Y-113478001D01*
X167130000Y-110904000D02*
X167130000Y-113596000D01*
X167090000Y-110797000D02*
X167090000Y-113703000D01*
X167050000Y-110698000D02*
X167050000Y-113802000D01*
X167010000Y-110606000D02*
X167010000Y-113894000D01*
X166970000Y-110519000D02*
X166970000Y-113981000D01*
X166930000Y-110437000D02*
X166930000Y-114063000D01*
X166890000Y-110360000D02*
X166890000Y-114140000D01*
X166850000Y-110286000D02*
X166850000Y-114214000D01*
X166810000Y-110216000D02*
X166810000Y-114284000D01*
X166770000Y-110149000D02*
X166770000Y-114351000D01*
X166730000Y-110085000D02*
X166730000Y-114415000D01*
X166690000Y-110023000D02*
X166690000Y-114477000D01*
X166650000Y-109963000D02*
X166650000Y-114537000D01*
X166610000Y-109906000D02*
X166610000Y-114594000D01*
X166570000Y-109850000D02*
X166570000Y-114650000D01*
X166530000Y-109797000D02*
X166530000Y-114703000D01*
X166490000Y-109745000D02*
X166490000Y-114755000D01*
X166450000Y-109695000D02*
X166450000Y-114805000D01*
X166410000Y-109646000D02*
X166410000Y-114854000D01*
X166370000Y-109599000D02*
X166370000Y-114901000D01*
X166330000Y-109554000D02*
X166330000Y-114946000D01*
X166290000Y-109509000D02*
X166290000Y-114991000D01*
X166250000Y-109466000D02*
X166250000Y-115034000D01*
X166210000Y-109424000D02*
X166210000Y-115076000D01*
X166170000Y-109383000D02*
X166170000Y-115117000D01*
X166130000Y-109344000D02*
X166130000Y-115156000D01*
X166090001Y-109305000D02*
X166090001Y-115195000D01*
X166049999Y-109268000D02*
X166049999Y-115232000D01*
X166010001Y-113290000D02*
X166010000Y-115269000D01*
X166010000Y-109231000D02*
X166010001Y-111210000D01*
X165970000Y-113290000D02*
X165970000Y-115305000D01*
X165970000Y-109195000D02*
X165970000Y-111210000D01*
X165930000Y-113290000D02*
X165930000Y-115339000D01*
X165930000Y-109161000D02*
X165930000Y-111210000D01*
X165890000Y-113290000D02*
X165890000Y-115373000D01*
X165890000Y-109127000D02*
X165890000Y-111210000D01*
X165850000Y-113290001D02*
X165849999Y-115406000D01*
X165849999Y-109094000D02*
X165850000Y-111209999D01*
X165810000Y-113290000D02*
X165810000Y-115438000D01*
X165810000Y-109062000D02*
X165810000Y-111210000D01*
X165770000Y-113290000D02*
X165770000Y-115469000D01*
X165770000Y-109031000D02*
X165770000Y-111210000D01*
X165730000Y-113290000D02*
X165730000Y-115500000D01*
X165730000Y-109000000D02*
X165730000Y-111210000D01*
X165690000Y-108970000D02*
X165689999Y-111210000D01*
X165689999Y-113290000D02*
X165690000Y-115530000D01*
X165650000Y-113290000D02*
X165650000Y-115559000D01*
X165650000Y-108941000D02*
X165650000Y-111210000D01*
X165610000Y-113290000D02*
X165610000Y-115587000D01*
X165610000Y-108913000D02*
X165610000Y-111210000D01*
X165570001Y-113290000D02*
X165570000Y-115615000D01*
X165570000Y-108885000D02*
X165570001Y-111210000D01*
X165530000Y-113290000D02*
X165530000Y-115642000D01*
X165530000Y-108858000D02*
X165530000Y-111210000D01*
X165490000Y-113290000D02*
X165490000Y-115668000D01*
X165490000Y-108832000D02*
X165490000Y-111210000D01*
X165450000Y-113290000D02*
X165450000Y-115693000D01*
X165450000Y-108807000D02*
X165450000Y-111210000D01*
X165410000Y-113290001D02*
X165410000Y-115718000D01*
X165410000Y-108782000D02*
X165410000Y-111209999D01*
X165370000Y-113290000D02*
X165370000Y-115743000D01*
X165370000Y-108757000D02*
X165370000Y-111210000D01*
X165330000Y-113290000D02*
X165330000Y-115765999D01*
X165330000Y-108734001D02*
X165330000Y-111210000D01*
X165290000Y-113290000D02*
X165290000Y-115789000D01*
X165290000Y-108711000D02*
X165290000Y-111210000D01*
X165250000Y-108688000D02*
X165249999Y-111210000D01*
X165249999Y-113290000D02*
X165250000Y-115812000D01*
X165210000Y-113290000D02*
X165210000Y-115834000D01*
X165210000Y-108666000D02*
X165210000Y-111210000D01*
X165170000Y-113290000D02*
X165170000Y-115855000D01*
X165170000Y-108645000D02*
X165170000Y-111210000D01*
X165130001Y-113290000D02*
X165130000Y-115876000D01*
X165130000Y-108624000D02*
X165130001Y-111210000D01*
X165090000Y-113290000D02*
X165090000Y-115896000D01*
X165090000Y-108604000D02*
X165090000Y-111210000D01*
X165050001Y-108584000D02*
X165050000Y-111210000D01*
X165050000Y-113290000D02*
X165050001Y-115916000D01*
X165010000Y-113290000D02*
X165010000Y-115935000D01*
X165010000Y-108565000D02*
X165010000Y-111210000D01*
X164970000Y-113290001D02*
X164970000Y-115954000D01*
X164970000Y-108546000D02*
X164970000Y-111209999D01*
X164930000Y-113290000D02*
X164930000Y-115972000D01*
X164930000Y-108528000D02*
X164930000Y-111210000D01*
X164890000Y-113290000D02*
X164890000Y-115989999D01*
X164890000Y-108510001D02*
X164890000Y-111210000D01*
X164850000Y-113290000D02*
X164850000Y-116007000D01*
X164850000Y-108493000D02*
X164850000Y-111210000D01*
X164810000Y-108477001D02*
X164809999Y-111210000D01*
X164809999Y-113290000D02*
X164810000Y-116022999D01*
X164770000Y-113290000D02*
X164770000Y-116039000D01*
X164770000Y-108461000D02*
X164770000Y-111210000D01*
X164730000Y-113290000D02*
X164730000Y-116055000D01*
X164730000Y-108445000D02*
X164730000Y-111210000D01*
X164690001Y-113290000D02*
X164690001Y-116070000D01*
X164690001Y-108430000D02*
X164690001Y-111210000D01*
X164650000Y-108415000D02*
X164649999Y-111210000D01*
X164649999Y-113290000D02*
X164650000Y-116085000D01*
X164610000Y-113290000D02*
X164610000Y-116099000D01*
X164610000Y-108401000D02*
X164610000Y-111210000D01*
X164570000Y-113290000D02*
X164570000Y-116113000D01*
X164570000Y-108387000D02*
X164570000Y-111210000D01*
X164530000Y-113290001D02*
X164530000Y-116125999D01*
X164530000Y-108374001D02*
X164530000Y-111209999D01*
X164490000Y-113290000D02*
X164490000Y-116139000D01*
X164490000Y-108361000D02*
X164490000Y-111210000D01*
X164450000Y-113290000D02*
X164450000Y-116151001D01*
X164450000Y-108348999D02*
X164450000Y-111210000D01*
X164410000Y-113290000D02*
X164410000Y-116163000D01*
X164410000Y-108337000D02*
X164410000Y-111210000D01*
X164370000Y-113290001D02*
X164370000Y-116175001D01*
X164370000Y-108324999D02*
X164370000Y-111209999D01*
X164330000Y-113290000D02*
X164330000Y-116186000D01*
X164330000Y-108314000D02*
X164330000Y-111210000D01*
X164290000Y-113290000D02*
X164289999Y-116197000D01*
X164289999Y-108303000D02*
X164290000Y-111210000D01*
X164250000Y-113290000D02*
X164250000Y-116207000D01*
X164250000Y-108293000D02*
X164250000Y-111210000D01*
X164210000Y-108283000D02*
X164209999Y-111210000D01*
X164209999Y-113290000D02*
X164210000Y-116217000D01*
X164170001Y-108274000D02*
X164170000Y-111210000D01*
X164170000Y-113290000D02*
X164170001Y-116226000D01*
X164130000Y-113290000D02*
X164130000Y-116235000D01*
X164130000Y-108265000D02*
X164130000Y-111210000D01*
X164090001Y-113290000D02*
X164090000Y-116243000D01*
X164090000Y-108257000D02*
X164090001Y-111210000D01*
X164050000Y-113290000D02*
X164050000Y-116252000D01*
X164050000Y-108248000D02*
X164050000Y-111210000D01*
X164010000Y-113290000D02*
X164010000Y-116259000D01*
X164010000Y-108241000D02*
X164010000Y-111210000D01*
X163970000Y-113290000D02*
X163970000Y-116267000D01*
X163970000Y-108233000D02*
X163970000Y-111210000D01*
X163930000Y-108227000D02*
X163930000Y-116273000D01*
X163890000Y-108220000D02*
X163890000Y-116280000D01*
X163850000Y-108214000D02*
X163850000Y-116286000D01*
X163810000Y-108208000D02*
X163810000Y-116292000D01*
X163770000Y-108202999D02*
X163770000Y-116297001D01*
X163730000Y-108198000D02*
X163730000Y-116302000D01*
X163690000Y-108194000D02*
X163690000Y-116306000D01*
X163650000Y-108189000D02*
X163650000Y-116311000D01*
X163610000Y-108186000D02*
X163610000Y-116314000D01*
X163570000Y-108182001D02*
X163570000Y-116317999D01*
X163530000Y-108180000D02*
X163530000Y-116320000D01*
X163490000Y-108177001D02*
X163490000Y-116322999D01*
X163450000Y-108175000D02*
X163450000Y-116325000D01*
X163410000Y-108173000D02*
X163410000Y-116327000D01*
X163370000Y-108172000D02*
X163370000Y-116328000D01*
X163330000Y-108171000D02*
X163330000Y-116329000D01*
X163290000Y-108170000D02*
X163290000Y-116330000D01*
X163250000Y-108170000D02*
X163250000Y-116330000D01*
X159240302Y-109535000D02*
X159240302Y-110335000D01*
X158840302Y-109935000D02*
X159640302Y-109935000D01*
D11*
%TO.C,J1*%
X131150000Y-88770000D02*
X131150000Y-88770000D01*
X131250000Y-88770000D02*
X131250000Y-88770000D01*
X131150000Y-88770000D02*
X131150000Y-88770000D01*
X125550000Y-92580000D02*
X130615000Y-92580000D01*
X130615000Y-92580000D02*
X130615000Y-79880000D01*
X130615000Y-79880000D02*
X125615000Y-79880000D01*
X125615000Y-79880000D02*
X125615000Y-92580000D01*
X131250000Y-88770000D02*
G75*
G02*
X131150000Y-88770000I-50000J0D01*
G01*
X131150000Y-88770000D02*
G75*
G02*
X131250000Y-88770000I50000J0D01*
G01*
X131250000Y-88770000D02*
G75*
G02*
X131150000Y-88770000I-50000J0D01*
G01*
D10*
%TO.C,J2*%
X125000000Y-105100000D02*
X125000000Y-106350000D01*
X125000000Y-106350000D02*
X126250000Y-106350000D01*
X125290000Y-93440000D02*
X125290000Y-106060000D01*
X125290000Y-106060000D02*
X131260000Y-106060000D01*
X125299999Y-95250000D02*
X126050000Y-95250001D01*
X125299999Y-102750000D02*
X126050000Y-102749999D01*
X125299999Y-104250000D02*
X125300000Y-106050000D01*
X125300000Y-93450000D02*
X125299999Y-95250000D01*
X125300000Y-96750000D02*
X125299999Y-102750000D01*
X125300000Y-106050000D02*
X126050000Y-106050000D01*
X126050000Y-93450000D02*
X125300000Y-93450000D01*
X126050000Y-95250001D02*
X126050000Y-93450000D01*
X126050000Y-96750000D02*
X125300000Y-96750000D01*
X126050000Y-102749999D02*
X126050000Y-96750000D01*
X126050000Y-104250001D02*
X125299999Y-104250000D01*
X126050000Y-106050000D02*
X126050000Y-104250001D01*
X127550000Y-93450000D02*
X127550001Y-94200000D01*
X127550000Y-105300000D02*
X128890000Y-105300000D01*
X127550000Y-106050000D02*
X127550000Y-105300000D01*
X127550001Y-94200000D02*
X130500000Y-94200000D01*
X130500000Y-94200000D02*
X130500000Y-99750000D01*
X130500000Y-99750000D02*
X130500000Y-104240000D01*
X131260000Y-93440000D02*
X125290000Y-93440000D01*
X131260000Y-106060000D02*
X131260000Y-93440000D01*
%TO.C,J3*%
X168490000Y-93440000D02*
X168490000Y-106060000D01*
X168490000Y-106060000D02*
X174460000Y-106060000D01*
X169250000Y-99750000D02*
X169250000Y-95260000D01*
X169250000Y-105300000D02*
X169250000Y-99750000D01*
X172199999Y-105300000D02*
X169250000Y-105300000D01*
X172200000Y-93450000D02*
X172200000Y-94200000D01*
X172200000Y-94200000D02*
X170860000Y-94200000D01*
X172200000Y-106050000D02*
X172199999Y-105300000D01*
X173700000Y-93450000D02*
X173700000Y-95249999D01*
X173700000Y-95249999D02*
X174450001Y-95250000D01*
X173700000Y-96750001D02*
X173700000Y-102750000D01*
X173700000Y-102750000D02*
X174450000Y-102750000D01*
X173700000Y-104249999D02*
X173700000Y-106050000D01*
X173700000Y-106050000D02*
X174450000Y-106050000D01*
X174450000Y-93450000D02*
X173700000Y-93450000D01*
X174450000Y-102750000D02*
X174450001Y-96750000D01*
X174450000Y-106050000D02*
X174450001Y-104250000D01*
X174450001Y-95250000D02*
X174450000Y-93450000D01*
X174450001Y-96750000D02*
X173700000Y-96750001D01*
X174450001Y-104250000D02*
X173700000Y-104249999D01*
X174460000Y-93440000D02*
X168490000Y-93440000D01*
X174460000Y-106060000D02*
X174460000Y-93440000D01*
X174750000Y-93150000D02*
X173500000Y-93150000D01*
X174750000Y-94400000D02*
X174750000Y-93150000D01*
%TO.C,J4*%
X125000000Y-119600000D02*
X125000000Y-120850000D01*
X125000000Y-120850000D02*
X126250000Y-120850000D01*
X125290000Y-107940000D02*
X125290000Y-120560000D01*
X125290000Y-120560000D02*
X131260000Y-120560000D01*
X125299999Y-109750000D02*
X126050000Y-109750001D01*
X125299999Y-117250000D02*
X126050000Y-117249999D01*
X125299999Y-118750000D02*
X125300000Y-120550000D01*
X125300000Y-107950000D02*
X125299999Y-109750000D01*
X125300000Y-111250000D02*
X125299999Y-117250000D01*
X125300000Y-120550000D02*
X126050000Y-120550000D01*
X126050000Y-107950000D02*
X125300000Y-107950000D01*
X126050000Y-109750001D02*
X126050000Y-107950000D01*
X126050000Y-111250000D02*
X125300000Y-111250000D01*
X126050000Y-117249999D02*
X126050000Y-111250000D01*
X126050000Y-118750001D02*
X125299999Y-118750000D01*
X126050000Y-120550000D02*
X126050000Y-118750001D01*
X127550000Y-107950000D02*
X127550001Y-108700000D01*
X127550000Y-119800000D02*
X128890000Y-119800000D01*
X127550000Y-120550000D02*
X127550000Y-119800000D01*
X127550001Y-108700000D02*
X130500000Y-108700000D01*
X130500000Y-108700000D02*
X130500000Y-114250000D01*
X130500000Y-114250000D02*
X130500000Y-118740000D01*
X131260000Y-107940000D02*
X125290000Y-107940000D01*
X131260000Y-120560000D02*
X131260000Y-107940000D01*
%TO.C,J5*%
X168490000Y-107940000D02*
X168490000Y-120560000D01*
X168490000Y-120560000D02*
X174460000Y-120560000D01*
X169250000Y-114250000D02*
X169250000Y-109760000D01*
X169250000Y-119800000D02*
X169250000Y-114250000D01*
X172199999Y-119800000D02*
X169250000Y-119800000D01*
X172200000Y-107950000D02*
X172200000Y-108700000D01*
X172200000Y-108700000D02*
X170860000Y-108700000D01*
X172200000Y-120550000D02*
X172199999Y-119800000D01*
X173700000Y-107950000D02*
X173700000Y-109749999D01*
X173700000Y-109749999D02*
X174450001Y-109750000D01*
X173700000Y-111250001D02*
X173700000Y-117250000D01*
X173700000Y-117250000D02*
X174450000Y-117250000D01*
X173700000Y-118749999D02*
X173700000Y-120550000D01*
X173700000Y-120550000D02*
X174450000Y-120550000D01*
X174450000Y-107950000D02*
X173700000Y-107950000D01*
X174450000Y-117250000D02*
X174450001Y-111250000D01*
X174450000Y-120550000D02*
X174450001Y-118750000D01*
X174450001Y-109750000D02*
X174450000Y-107950000D01*
X174450001Y-111250000D02*
X173700000Y-111250001D01*
X174450001Y-118750000D02*
X173700000Y-118749999D01*
X174460000Y-107940000D02*
X168490000Y-107940000D01*
X174460000Y-120560000D02*
X174460000Y-107940000D01*
X174750000Y-107650000D02*
X173500000Y-107650000D01*
X174750000Y-108900000D02*
X174750000Y-107650000D01*
%TO.C,J6*%
X154600000Y-125800000D02*
X145400000Y-125800000D01*
X154600000Y-117000000D02*
X154600000Y-125800000D01*
X154600000Y-111100000D02*
X154600000Y-113000000D01*
X151900000Y-111100000D02*
X154600000Y-111100000D01*
X146250000Y-110900000D02*
X145200000Y-110900000D01*
X145400000Y-125800000D02*
X145400000Y-111100000D01*
X145400000Y-111100000D02*
X148000000Y-111099999D01*
X145200000Y-111950000D02*
X145200000Y-110900000D01*
%TO.C,J7*%
X169100000Y-82300000D02*
X171100000Y-82300000D01*
X169100000Y-91700000D02*
X171100000Y-91700000D01*
X173000000Y-82300001D02*
X174900000Y-82300001D01*
X173000000Y-91699999D02*
X174900000Y-91699999D01*
X174900000Y-91699999D02*
X174900000Y-82300001D01*
D12*
%TO.C,J8*%
X163750000Y-103800000D02*
X136250000Y-103800000D01*
X136250000Y-76000000D01*
X163750000Y-76000000D01*
X163750000Y-103800000D01*
%TO.C,U1*%
D11*
X140136000Y-83501500D02*
G75*
G02*
X139936000Y-83501500I-100000J0D01*
G01*
X139936000Y-83501500D02*
G75*
G02*
X140136000Y-83501500I100000J0D01*
G01*
D10*
X139860000Y-87897500D02*
X139385000Y-87897500D01*
X139860000Y-87422500D02*
X139860000Y-87897500D01*
X139860000Y-84152500D02*
X139860000Y-83977500D01*
X139385000Y-83677500D02*
X139620000Y-83677500D01*
X135640000Y-87897500D02*
X136115000Y-87897500D01*
X135640000Y-87422500D02*
X135640000Y-87897500D01*
X135640000Y-84152500D02*
X135640000Y-83677500D01*
X135640000Y-83677500D02*
X136115000Y-83677500D01*
%TO.C,R16*%
X144550000Y-84925000D02*
X144550000Y-81925000D01*
X142950000Y-84925000D02*
X144550000Y-84925000D01*
X142950000Y-81925000D02*
X142950000Y-84925000D01*
X144550000Y-81925000D02*
X142950000Y-81925000D01*
%TO.C,R5*%
X146550000Y-84925000D02*
X146550000Y-81925000D01*
X144950000Y-84925000D02*
X146550000Y-84925000D01*
X144950000Y-81925000D02*
X144950000Y-84925000D01*
X146550000Y-81925000D02*
X144950000Y-81925000D01*
D13*
%TO.C,U9*%
X165725000Y-99775000D02*
X161225000Y-99775000D01*
X165725000Y-105225000D02*
X161225000Y-105225000D01*
D10*
X167355000Y-105015000D02*
X167025000Y-104775000D01*
X167355000Y-104535000D01*
X167355000Y-105015000D01*
G36*
X167355000Y-105015000D02*
G01*
X167025000Y-104775000D01*
X167355000Y-104535000D01*
X167355000Y-105015000D01*
G37*
D13*
%TO.C,U10*%
X138500000Y-117450000D02*
X138500001Y-117560000D01*
X138500000Y-118630000D02*
X138500000Y-118830000D01*
X138500000Y-119900000D02*
X138500000Y-120100000D01*
X138500000Y-121170000D02*
X138500000Y-121370000D01*
X138500001Y-122440000D02*
X138500000Y-122550000D01*
X142599999Y-122440000D02*
X142600000Y-122550000D01*
X142600000Y-117450000D02*
X138500000Y-117450000D01*
X142600000Y-117450000D02*
X142599999Y-117560000D01*
X142600000Y-118630000D02*
X142600000Y-118830000D01*
X142600000Y-119900000D02*
X142600000Y-120100000D01*
X142600000Y-121170000D02*
X142600000Y-121370000D01*
X142600000Y-122550000D02*
X138500000Y-122550000D01*
X138080000Y-117500000D02*
G75*
G02*
X138020000Y-117500000I-30000J0D01*
G01*
X138020000Y-117500000D02*
G75*
G02*
X138080000Y-117500000I30000J0D01*
G01*
D10*
%TO.C,C26*%
X141225000Y-106550002D02*
X143825000Y-106550000D01*
X143825000Y-104949998D02*
X141225000Y-104950000D01*
X141225000Y-106550002D02*
G75*
G02*
X141225000Y-104950000I840224J800001D01*
G01*
X143825000Y-104949998D02*
G75*
G02*
X143825000Y-106550000I-840224J-800001D01*
G01*
%TO.C,C19*%
X141200001Y-115050002D02*
X143800001Y-115050000D01*
X143800001Y-113449998D02*
X141200001Y-113450000D01*
X141200001Y-115050002D02*
G75*
G02*
X141200001Y-113450000I840224J800001D01*
G01*
X143800001Y-113449998D02*
G75*
G02*
X143800001Y-115050000I-840224J-800001D01*
G01*
D14*
%TO.C,L1*%
X132975001Y-114500000D02*
X132975001Y-107500000D01*
X139975001Y-114500000D02*
X139975001Y-107500000D01*
D10*
%TO.C,C2*%
X141225000Y-91300002D02*
X143825000Y-91300000D01*
X143825000Y-89699998D02*
X141225000Y-89700000D01*
X141225000Y-91300002D02*
G75*
G02*
X141225000Y-89700000I840224J800001D01*
G01*
X143825000Y-89699998D02*
G75*
G02*
X143825000Y-91300000I-840224J-800001D01*
G01*
D13*
%TO.C,U6*%
X134225000Y-93275000D02*
X138725000Y-93275000D01*
X134225000Y-98725000D02*
X138725000Y-98725000D01*
D10*
X132925000Y-93725000D02*
X132595000Y-93965000D01*
X132595000Y-93485000D01*
X132925000Y-93725000D01*
G36*
X132925000Y-93725000D02*
G01*
X132595000Y-93965000D01*
X132595000Y-93485000D01*
X132925000Y-93725000D01*
G37*
%TO.C,C24*%
X155425000Y-110800002D02*
X158025000Y-110800000D01*
X158025000Y-109199998D02*
X155425000Y-109200000D01*
X155425000Y-110800002D02*
G75*
G02*
X155425000Y-109200000I840224J800001D01*
G01*
X158025000Y-109199998D02*
G75*
G02*
X158025000Y-110800000I-840224J-800001D01*
G01*
%TO.C,C16*%
X141200001Y-110050002D02*
X143800001Y-110050000D01*
X143800001Y-108449998D02*
X141200001Y-108450000D01*
X141200001Y-110050002D02*
G75*
G02*
X141200001Y-108450000I840224J800001D01*
G01*
X143800001Y-108449998D02*
G75*
G02*
X143800001Y-110050000I-840224J-800001D01*
G01*
%TO.C,D14*%
X156487501Y-87235000D02*
X158772501Y-87235000D01*
X158772501Y-85765000D02*
X156487501Y-85765000D01*
X158772501Y-87235000D02*
X158772501Y-85765000D01*
%TO.C,C12*%
X141200000Y-102300002D02*
X143800000Y-102300000D01*
X143800000Y-100699998D02*
X141200000Y-100700000D01*
X141200000Y-102300002D02*
G75*
G02*
X141200000Y-100700000I840224J800001D01*
G01*
X143800000Y-100699998D02*
G75*
G02*
X143800000Y-102300000I-840224J-800001D01*
G01*
%TO.C,SW1*%
X132600000Y-81350000D02*
X132600000Y-77150000D01*
X132990000Y-81350000D02*
X132600000Y-81350000D01*
X135510000Y-81350000D02*
X135900000Y-81350000D01*
X135900000Y-81350000D02*
X135900000Y-77150000D01*
X132600000Y-77150000D02*
X132990000Y-77150000D01*
X135900000Y-77150000D02*
X135510000Y-77150000D01*
%TO.C,C17*%
X141200001Y-111800002D02*
X143800001Y-111800000D01*
X143800001Y-110199998D02*
X141200001Y-110200000D01*
X141200001Y-111800002D02*
G75*
G02*
X141200001Y-110200000I840224J800001D01*
G01*
X143800001Y-110199998D02*
G75*
G02*
X143800001Y-111800000I-840224J-800001D01*
G01*
%TO.C,C8*%
X143199998Y-85675000D02*
X143200000Y-88275000D01*
X144800002Y-88275000D02*
X144800000Y-85675000D01*
X143199998Y-85675000D02*
G75*
G02*
X144800000Y-85675000I800001J-840224D01*
G01*
X144800002Y-88275000D02*
G75*
G02*
X143200000Y-88275000I-800001J840224D01*
G01*
%TO.C,C21*%
X137250000Y-117050002D02*
X139850000Y-117050000D01*
X139850000Y-115449998D02*
X137250000Y-115450000D01*
X137250000Y-117050002D02*
G75*
G02*
X137250000Y-115450000I840224J800001D01*
G01*
X139850000Y-115449998D02*
G75*
G02*
X139850000Y-117050000I-840224J-800001D01*
G01*
%TO.C,C29*%
X155425000Y-103800002D02*
X158025000Y-103800000D01*
X158025000Y-102199998D02*
X155425000Y-102200000D01*
X155425000Y-103800002D02*
G75*
G02*
X155425000Y-102200000I840224J800001D01*
G01*
X158025000Y-102199998D02*
G75*
G02*
X158025000Y-103800000I-840224J-800001D01*
G01*
%TO.C,U11*%
X148150000Y-102590000D02*
X151910000Y-102590000D01*
X148150000Y-109410000D02*
X151910000Y-109410000D01*
X151910000Y-102590000D02*
X151910000Y-103850000D01*
X151910000Y-109410000D02*
X151910000Y-108150000D01*
X146870000Y-102690000D02*
X146630000Y-102360000D01*
X147110000Y-102360000D01*
X146870000Y-102690000D01*
G36*
X146870000Y-102690000D02*
G01*
X146630000Y-102360000D01*
X147110000Y-102360000D01*
X146870000Y-102690000D01*
G37*
%TO.C,C25*%
X155425000Y-112550002D02*
X158025000Y-112550000D01*
X158025000Y-110949998D02*
X155425000Y-110950000D01*
X155425000Y-112550002D02*
G75*
G02*
X155425000Y-110950000I840224J800001D01*
G01*
X158025000Y-110949998D02*
G75*
G02*
X158025000Y-112550000I-840224J-800001D01*
G01*
%TO.C,C5*%
X144949998Y-85675000D02*
X144950000Y-88275000D01*
X146550002Y-88275000D02*
X146550000Y-85675000D01*
X144949998Y-85675000D02*
G75*
G02*
X146550000Y-85675000I800001J-840224D01*
G01*
X146550002Y-88275000D02*
G75*
G02*
X144950000Y-88275000I-800001J840224D01*
G01*
%TO.C,C11*%
X156700000Y-97550002D02*
X159300000Y-97550000D01*
X159300000Y-95949998D02*
X156700000Y-95950000D01*
X156700000Y-97550002D02*
G75*
G02*
X156700000Y-95950000I840224J800001D01*
G01*
X159300000Y-95949998D02*
G75*
G02*
X159300000Y-97550000I-840224J-800001D01*
G01*
D13*
%TO.C,U8*%
X134225000Y-99775000D02*
X138725000Y-99775000D01*
X134225000Y-105225000D02*
X138725000Y-105225000D01*
D10*
X132925000Y-100225000D02*
X132595000Y-100465000D01*
X132595000Y-99985000D01*
X132925000Y-100225000D01*
G36*
X132925000Y-100225000D02*
G01*
X132595000Y-100465000D01*
X132595000Y-99985000D01*
X132925000Y-100225000D01*
G37*
%TO.C,R13*%
X152537501Y-81700000D02*
X152537501Y-83300000D01*
X152537501Y-83300000D02*
X155537501Y-83300000D01*
X155537501Y-81700000D02*
X152537501Y-81700000D01*
X155537501Y-83300000D02*
X155537501Y-81700000D01*
%TO.C,R1*%
X132700000Y-82500000D02*
X132700000Y-85500000D01*
X132700000Y-85500000D02*
X134300000Y-85500000D01*
X134300000Y-82500000D02*
X132700000Y-82500000D01*
X134300000Y-85500000D02*
X134300000Y-82500000D01*
D13*
%TO.C,U7*%
X165725000Y-93275000D02*
X161225000Y-93275000D01*
X165725000Y-98725000D02*
X161225000Y-98725000D01*
D10*
X167355000Y-98515000D02*
X167025000Y-98275000D01*
X167355000Y-98035000D01*
X167355000Y-98515000D01*
G36*
X167355000Y-98515000D02*
G01*
X167025000Y-98275000D01*
X167355000Y-98035000D01*
X167355000Y-98515000D01*
G37*
D13*
%TO.C,U2*%
X146390000Y-90140000D02*
X146390000Y-90590000D01*
X146390000Y-97360000D02*
X146390000Y-96910000D01*
X146840000Y-90140000D02*
X146390000Y-90140000D01*
X146840000Y-97360000D02*
X146390000Y-97360000D01*
X153160000Y-90140000D02*
X153610000Y-90140000D01*
X153160000Y-97360000D02*
X153610000Y-97360000D01*
X153610000Y-90140000D02*
X153610000Y-90590000D01*
X153610000Y-97360000D02*
X153610000Y-96910000D01*
D10*
X145800000Y-90590000D02*
X145460000Y-90120000D01*
X146140000Y-90120000D01*
X145800000Y-90590000D01*
G36*
X145800000Y-90590000D02*
G01*
X145460000Y-90120000D01*
X146140000Y-90120000D01*
X145800000Y-90590000D01*
G37*
%TO.C,C20*%
X141250000Y-117050002D02*
X143850000Y-117050000D01*
X143850000Y-115449998D02*
X141250000Y-115450000D01*
X141250000Y-117050002D02*
G75*
G02*
X141250000Y-115450000I840224J800001D01*
G01*
X143850000Y-115449998D02*
G75*
G02*
X143850000Y-117050000I-840224J-800001D01*
G01*
%TO.C,R30*%
X152537501Y-85700000D02*
X152537501Y-87300000D01*
X152537501Y-87300000D02*
X155537501Y-87300000D01*
X155537501Y-85700000D02*
X152537501Y-85700000D01*
X155537501Y-87300000D02*
X155537501Y-85700000D01*
%TO.C,C30*%
X155400000Y-107300002D02*
X158000000Y-107300000D01*
X158000000Y-105699998D02*
X155400000Y-105700000D01*
X155400000Y-107300002D02*
G75*
G02*
X155400000Y-105700000I840224J800001D01*
G01*
X158000000Y-105699998D02*
G75*
G02*
X158000000Y-107300000I-840224J-800001D01*
G01*
%TO.C,C34*%
X133237498Y-85712500D02*
X133237500Y-88312500D01*
X134837502Y-88312500D02*
X134837500Y-85712500D01*
X133237498Y-85712500D02*
G75*
G02*
X134837500Y-85712500I800001J-840224D01*
G01*
X134837502Y-88312500D02*
G75*
G02*
X133237500Y-88312500I-800001J840224D01*
G01*
%TO.C,R4*%
X165950000Y-78250000D02*
X165950000Y-81250000D01*
X165950000Y-81250000D02*
X167550000Y-81250000D01*
X167550000Y-78250000D02*
X165950000Y-78250000D01*
X167550000Y-81250000D02*
X167550000Y-78250000D01*
D13*
%TO.C,D3*%
X133150001Y-116990000D02*
X133150001Y-122500000D01*
X136450001Y-116990000D02*
X133150001Y-116990000D01*
X136450001Y-116990000D02*
X136450001Y-122500000D01*
D10*
%TO.C,C9*%
X135237500Y-90337502D02*
X137837500Y-90337500D01*
X137837500Y-88737498D02*
X135237500Y-88737500D01*
X135237500Y-90337502D02*
G75*
G02*
X135237500Y-88737500I840224J800001D01*
G01*
X137837500Y-88737498D02*
G75*
G02*
X137837500Y-90337500I-840224J-800001D01*
G01*
%TO.C,JP2*%
X162500000Y-81600000D02*
X164500000Y-81600000D01*
X162500000Y-84400000D02*
X162500000Y-81600000D01*
X164500000Y-81600000D02*
X164500000Y-84400000D01*
X164500000Y-84400000D02*
X162500000Y-84400000D01*
D13*
%TO.C,D1*%
X161850000Y-84740000D02*
X161850000Y-90250000D01*
X165150000Y-84740000D02*
X161850000Y-84740000D01*
X165150000Y-84740000D02*
X165150000Y-90250000D01*
D10*
%TO.C,R28*%
X152537501Y-83700000D02*
X152537501Y-85300000D01*
X152537501Y-85300000D02*
X155537501Y-85300000D01*
X155537501Y-83700000D02*
X152537501Y-83700000D01*
X155537501Y-85300000D02*
X155537501Y-83700000D01*
%TO.C,C7*%
X150425000Y-101050002D02*
X153025000Y-101050000D01*
X153025000Y-99449998D02*
X150425000Y-99450000D01*
X150425000Y-101050002D02*
G75*
G02*
X150425000Y-99450000I840224J800001D01*
G01*
X153025000Y-99449998D02*
G75*
G02*
X153025000Y-101050000I-840224J-800001D01*
G01*
%TO.C,C27*%
X141225000Y-108300002D02*
X143825000Y-108300000D01*
X143825000Y-106699998D02*
X141225000Y-106700000D01*
X141225000Y-108300002D02*
G75*
G02*
X141225000Y-106700000I840224J800001D01*
G01*
X143825000Y-106699998D02*
G75*
G02*
X143825000Y-108300000I-840224J-800001D01*
G01*
%TO.C,C23*%
X155425000Y-109050002D02*
X158025000Y-109050000D01*
X158025000Y-107449998D02*
X155425000Y-107450000D01*
X155425000Y-109050002D02*
G75*
G02*
X155425000Y-107450000I840224J800001D01*
G01*
X158025000Y-107449998D02*
G75*
G02*
X158025000Y-109050000I-840224J-800001D01*
G01*
%TO.C,R2*%
X148450000Y-85000000D02*
X148450000Y-88000000D01*
X148450000Y-88000000D02*
X150050000Y-88000000D01*
X150050000Y-85000000D02*
X148450000Y-85000000D01*
X150050000Y-88000000D02*
X150050000Y-85000000D01*
%TO.C,C1*%
X132050000Y-77699998D02*
X129450000Y-77700000D01*
X129450000Y-79300002D02*
X132050000Y-79300000D01*
X132050000Y-77699998D02*
G75*
G02*
X132050000Y-79300000I-840224J-800001D01*
G01*
X129450000Y-79300002D02*
G75*
G02*
X129450000Y-77700000I840224J800001D01*
G01*
%TO.C,R8*%
X141050001Y-123200000D02*
X141050001Y-124800000D01*
X141050001Y-124800000D02*
X144050001Y-124800000D01*
X144050001Y-123200000D02*
X141050001Y-123200000D01*
X144050001Y-124800000D02*
X144050001Y-123200000D01*
%TO.C,C18*%
X141200001Y-113300002D02*
X143800001Y-113300000D01*
X143800001Y-111699998D02*
X141200001Y-111700000D01*
X141200001Y-113300002D02*
G75*
G02*
X141200001Y-111700000I840224J800001D01*
G01*
X143800001Y-111699998D02*
G75*
G02*
X143800001Y-113300000I-840224J-800001D01*
G01*
%TO.C,C6*%
X154200000Y-90300002D02*
X156800000Y-90300000D01*
X156800000Y-88699998D02*
X154200000Y-88700000D01*
X154200000Y-90300002D02*
G75*
G02*
X154200000Y-88700000I840224J800001D01*
G01*
X156800000Y-88699998D02*
G75*
G02*
X156800000Y-90300000I-840224J-800001D01*
G01*
%TO.C,D7*%
X156487501Y-83235000D02*
X158772501Y-83235000D01*
X158772501Y-81765000D02*
X156487501Y-81765000D01*
X158772501Y-83235000D02*
X158772501Y-81765000D01*
%TO.C,C14*%
X137175000Y-92800002D02*
X139775000Y-92800000D01*
X139775000Y-91199998D02*
X137175000Y-91200000D01*
X137175000Y-92800002D02*
G75*
G02*
X137175000Y-91200000I840224J800001D01*
G01*
X139775000Y-91199998D02*
G75*
G02*
X139775000Y-92800000I-840224J-800001D01*
G01*
%TO.C,R7*%
X137050001Y-123200000D02*
X137050001Y-124800000D01*
X137050001Y-124800000D02*
X140050001Y-124800000D01*
X140050001Y-123200000D02*
X137050001Y-123200000D01*
X140050001Y-124800000D02*
X140050001Y-123200000D01*
%TO.C,C13*%
X160225000Y-107050002D02*
X162825000Y-107050000D01*
X162825000Y-105449998D02*
X160225000Y-105450000D01*
X160225000Y-107050002D02*
G75*
G02*
X160225000Y-105450000I840224J800001D01*
G01*
X162825000Y-105449998D02*
G75*
G02*
X162825000Y-107050000I-840224J-800001D01*
G01*
%TO.C,C10*%
X140737498Y-85737500D02*
X140737500Y-88337500D01*
X142337502Y-88337500D02*
X142337500Y-85737500D01*
X140737498Y-85737500D02*
G75*
G02*
X142337500Y-85737500I800001J-840224D01*
G01*
X142337502Y-88337500D02*
G75*
G02*
X140737500Y-88337500I-800001J840224D01*
G01*
%TO.C,C28*%
X155425000Y-105550002D02*
X158025000Y-105550000D01*
X158025000Y-103949998D02*
X155425000Y-103950000D01*
X155425000Y-105550002D02*
G75*
G02*
X155425000Y-103950000I840224J800001D01*
G01*
X158025000Y-103949998D02*
G75*
G02*
X158025000Y-105550000I-840224J-800001D01*
G01*
%TO.C,D12*%
X156487501Y-85235000D02*
X158772501Y-85235000D01*
X158772501Y-83765000D02*
X156487501Y-83765000D01*
X158772501Y-85235000D02*
X158772501Y-83765000D01*
%TO.C,C3*%
X141200000Y-99300002D02*
X143800000Y-99300000D01*
X143800000Y-97699998D02*
X141200000Y-97700000D01*
X141200000Y-99300002D02*
G75*
G02*
X141200000Y-97700000I840224J800001D01*
G01*
X143800000Y-97699998D02*
G75*
G02*
X143800000Y-99300000I-840224J-800001D01*
G01*
D13*
%TO.C,X1*%
X140750000Y-97000000D02*
X140750000Y-92000000D01*
X144250000Y-97000000D02*
X144250000Y-92000000D01*
D10*
%TO.C,R3*%
X168200000Y-78250000D02*
X168200000Y-81250000D01*
X168200000Y-81250000D02*
X169800000Y-81250000D01*
X169800000Y-78250000D02*
X168200000Y-78250000D01*
X169800000Y-81250000D02*
X169800000Y-78250000D01*
%TD*%
%LPC*%
D15*
%TO.C,JP2*%
G36*
X164250000Y-83150000D02*
G01*
X162750000Y-83150000D01*
X162750000Y-82850000D01*
X164250000Y-82850000D01*
X164250000Y-83150000D01*
G37*
%TD*%
D16*
%TO.C,C15*%
X165000000Y-120750000D03*
D17*
X161500000Y-120750000D03*
%TD*%
D16*
%TO.C,C22*%
X165000000Y-112250000D03*
D17*
X161500000Y-112250000D03*
%TD*%
D18*
%TO.C,J1*%
X128750000Y-88770000D03*
D19*
X127480000Y-88770000D03*
X128750000Y-87500000D03*
X127480000Y-87500000D03*
X128750000Y-86230000D03*
X127480000Y-86230000D03*
X128750000Y-84960000D03*
X127480000Y-84960000D03*
X128750000Y-83690000D03*
X127480000Y-83690000D03*
%TD*%
D20*
%TO.C,J2*%
X129750000Y-105100000D03*
D21*
X127750000Y-103500000D03*
D22*
X127750000Y-101000000D03*
X127750000Y-98500000D03*
X127750000Y-96000000D03*
%TD*%
D20*
%TO.C,J3*%
X170000000Y-94400000D03*
D23*
X172000000Y-96000000D03*
D22*
X172000000Y-98500000D03*
X172000000Y-101000000D03*
X172000000Y-103500000D03*
%TD*%
D20*
%TO.C,J4*%
X129750000Y-119600000D03*
D21*
X127750000Y-118000000D03*
D22*
X127750000Y-115500000D03*
X127750000Y-113000000D03*
X127750000Y-110500000D03*
%TD*%
D20*
%TO.C,J5*%
X170000000Y-108900000D03*
D23*
X172000000Y-110500000D03*
D22*
X172000000Y-113000000D03*
X172000000Y-115500000D03*
X172000000Y-118000000D03*
%TD*%
D24*
%TO.C,J6*%
X154700000Y-115000000D03*
D25*
X150000000Y-118000000D03*
D26*
X150000000Y-112000000D03*
%TD*%
D27*
%TO.C,J7*%
X168400000Y-89890000D03*
X168400000Y-84110000D03*
D28*
X166955000Y-90250000D03*
X166955000Y-89450001D03*
D29*
X166955001Y-88250000D03*
X166955000Y-87250000D03*
X166955000Y-86750000D03*
X166955001Y-85750000D03*
D28*
X166955000Y-84549999D03*
X166955000Y-83750000D03*
X166955000Y-83750000D03*
X166955000Y-84549999D03*
D29*
X166955000Y-85250000D03*
X166955000Y-86250000D03*
X166955000Y-87750000D03*
X166955000Y-88750000D03*
D28*
X166955000Y-89450001D03*
X166955000Y-90250000D03*
D30*
X167870000Y-91320000D03*
D31*
X172050000Y-91320000D03*
D30*
X167870000Y-82680000D03*
D31*
X172050000Y-82680000D03*
%TD*%
D32*
%TO.C,J8*%
X138250000Y-78000000D03*
X161750000Y-78000000D03*
D33*
X146190000Y-78000000D03*
X148730000Y-78000000D03*
X151270000Y-78000000D03*
X153810000Y-78000000D03*
%TD*%
D34*
%TO.C,U1*%
X139712500Y-84537500D03*
X139712500Y-85037500D03*
X139712500Y-85537500D03*
X139712500Y-86037500D03*
X139712500Y-86537500D03*
X139712500Y-87037500D03*
D35*
X139000000Y-87750000D03*
X138500000Y-87750000D03*
X138000000Y-87750000D03*
X137500000Y-87750000D03*
X137000000Y-87750000D03*
X136500000Y-87750000D03*
D34*
X135787500Y-87037500D03*
X135787500Y-86537500D03*
X135787500Y-86037500D03*
X135787500Y-85537500D03*
X135787500Y-85037500D03*
X135787500Y-84537500D03*
D35*
X136500000Y-83825000D03*
X137000000Y-83825000D03*
X137500000Y-83825000D03*
X138000000Y-83825000D03*
X138500000Y-83825000D03*
X139000000Y-83825000D03*
%TD*%
D36*
%TO.C,H1*%
X127000000Y-78000000D03*
%TD*%
D37*
%TO.C,R16*%
X143750000Y-84250000D03*
X143750000Y-82600000D03*
%TD*%
%TO.C,R5*%
X145750000Y-84250000D03*
X145750000Y-82600000D03*
%TD*%
D38*
%TO.C,U9*%
X166250000Y-104775000D03*
X166250000Y-104125000D03*
X166250000Y-103475000D03*
X166250000Y-102825000D03*
X166250000Y-102175000D03*
X166250000Y-101525000D03*
X166250000Y-100875000D03*
X166250000Y-100225000D03*
X160700000Y-100225000D03*
X160700000Y-100875000D03*
X160700000Y-101525000D03*
X160700000Y-102175000D03*
X160700000Y-102825000D03*
X160700000Y-103475000D03*
X160700000Y-104125000D03*
X160700000Y-104775000D03*
D39*
X164210000Y-103842499D03*
X164210000Y-102947500D03*
X164210000Y-102052500D03*
X164210000Y-101157501D03*
X162740000Y-103842499D03*
X162740000Y-102947500D03*
X162740000Y-102052500D03*
X162740000Y-101157501D03*
%TD*%
D40*
%TO.C,U10*%
X137850000Y-118090000D03*
X137850000Y-119360000D03*
X137850000Y-120640000D03*
X137850000Y-121910000D03*
X143250000Y-121910000D03*
X143250000Y-120640000D03*
X143250000Y-119360000D03*
X143250000Y-118090000D03*
D41*
X140550000Y-120000000D03*
%TD*%
D42*
%TO.C,C26*%
X141750000Y-105750000D03*
X143300000Y-105750000D03*
%TD*%
%TO.C,C19*%
X141725001Y-114250000D03*
X143275001Y-114250000D03*
%TD*%
D43*
%TO.C,L1*%
X136475001Y-113775000D03*
X136475001Y-108225000D03*
%TD*%
D42*
%TO.C,C2*%
X141750000Y-90500000D03*
X143300000Y-90500000D03*
%TD*%
D38*
%TO.C,U6*%
X133700000Y-93725000D03*
X133700000Y-94375000D03*
X133700000Y-95025000D03*
X133700000Y-95675000D03*
X133700000Y-96325000D03*
X133700000Y-96975000D03*
X133700000Y-97625000D03*
X133700000Y-98275000D03*
X139250000Y-98275000D03*
X139250000Y-97625000D03*
X139250000Y-96975000D03*
X139250000Y-96325000D03*
X139250000Y-95675000D03*
X139250000Y-95025000D03*
X139250000Y-94375000D03*
X139250000Y-93725000D03*
D39*
X135740000Y-94657501D03*
X135740000Y-95552500D03*
X135740000Y-96447500D03*
X135740000Y-97342499D03*
X137210000Y-94657501D03*
X137210000Y-95552500D03*
X137210000Y-96447500D03*
X137210000Y-97342499D03*
%TD*%
D42*
%TO.C,C24*%
X155950000Y-110000000D03*
X157500000Y-110000000D03*
%TD*%
%TO.C,C16*%
X141725001Y-109250000D03*
X143275001Y-109250000D03*
%TD*%
D44*
%TO.C,D14*%
X158075002Y-86500000D03*
X156500000Y-86500000D03*
%TD*%
D45*
%TO.C,C12*%
X143275000Y-101500000D03*
X141725000Y-101500000D03*
%TD*%
D46*
%TO.C,SW1*%
X134250000Y-81475001D03*
X134250000Y-77024999D03*
%TD*%
D42*
%TO.C,C17*%
X141725001Y-111000000D03*
X143275001Y-111000000D03*
%TD*%
D47*
%TO.C,C8*%
X144000000Y-86200000D03*
X144000000Y-87750000D03*
%TD*%
D42*
%TO.C,C21*%
X137775000Y-116250000D03*
X139325000Y-116250000D03*
%TD*%
D45*
%TO.C,C29*%
X157500000Y-103000000D03*
X155950000Y-103000000D03*
%TD*%
D48*
%TO.C,U11*%
X146850000Y-103700000D03*
X146850000Y-106000000D03*
D49*
X153150000Y-106000000D03*
D48*
X146850000Y-108300000D03*
%TD*%
D42*
%TO.C,C25*%
X155950000Y-111750000D03*
X157500000Y-111750000D03*
%TD*%
D47*
%TO.C,C5*%
X145750000Y-86200000D03*
X145750000Y-87750000D03*
%TD*%
D42*
%TO.C,C11*%
X157225000Y-96750000D03*
X158775000Y-96750000D03*
%TD*%
D38*
%TO.C,U8*%
X133700000Y-100225000D03*
X133700000Y-100875000D03*
X133700000Y-101525000D03*
X133700000Y-102175000D03*
X133700000Y-102825000D03*
X133700000Y-103475000D03*
X133700000Y-104125000D03*
X133700000Y-104775000D03*
X139250000Y-104775000D03*
X139250000Y-104125000D03*
X139250000Y-103475000D03*
X139250000Y-102825000D03*
X139250000Y-102175000D03*
X139250000Y-101525000D03*
X139250000Y-100875000D03*
X139250000Y-100225000D03*
D39*
X135740000Y-101157501D03*
X135740000Y-102052500D03*
X135740000Y-102947500D03*
X135740000Y-103842499D03*
X137210000Y-101157501D03*
X137210000Y-102052500D03*
X137210000Y-102947500D03*
X137210000Y-103842499D03*
%TD*%
D50*
%TO.C,R13*%
X153212501Y-82500000D03*
X154862501Y-82500000D03*
%TD*%
D37*
%TO.C,R1*%
X133500000Y-84825000D03*
X133500000Y-83175000D03*
%TD*%
D38*
%TO.C,U7*%
X166250000Y-98275000D03*
X166250000Y-97625000D03*
X166250000Y-96975000D03*
X166250000Y-96325000D03*
X166250000Y-95675000D03*
X166250000Y-95025000D03*
X166250000Y-94375000D03*
X166250000Y-93725000D03*
X160700000Y-93725000D03*
X160700000Y-94375000D03*
X160700000Y-95025000D03*
X160700000Y-95675000D03*
X160700000Y-96325000D03*
X160700000Y-96975000D03*
X160700000Y-97625000D03*
X160700000Y-98275000D03*
D39*
X164210000Y-97342499D03*
X164210000Y-96447500D03*
X164210000Y-95552500D03*
X164210000Y-94657501D03*
X162740000Y-97342499D03*
X162740000Y-96447500D03*
X162740000Y-95552500D03*
X162740000Y-94657501D03*
%TD*%
D51*
%TO.C,U2*%
X145840000Y-91000000D03*
X145840000Y-91500000D03*
X145840000Y-92000000D03*
X145840000Y-92500000D03*
X145840000Y-93000000D03*
X145840000Y-93500000D03*
X145840000Y-94000000D03*
X145840000Y-94500000D03*
X145840000Y-95000000D03*
X145840000Y-95500000D03*
X145840000Y-96000000D03*
X145840000Y-96500000D03*
D52*
X147250000Y-97910000D03*
X147750000Y-97910000D03*
X148250000Y-97910000D03*
X148750000Y-97910000D03*
X149250000Y-97910000D03*
X149750000Y-97910000D03*
X150250000Y-97910000D03*
X150750000Y-97910000D03*
X151250000Y-97910000D03*
X151750000Y-97910000D03*
X152250000Y-97910000D03*
X152750000Y-97910000D03*
D51*
X154160000Y-96500000D03*
X154160000Y-96000000D03*
X154160000Y-95500000D03*
X154160000Y-95000000D03*
X154160000Y-94500000D03*
X154160000Y-94000000D03*
X154160000Y-93500000D03*
X154160000Y-93000000D03*
X154160000Y-92500000D03*
X154160000Y-92000000D03*
X154160000Y-91500000D03*
X154160000Y-91000000D03*
D52*
X152750000Y-89590000D03*
X152250000Y-89590000D03*
X151750000Y-89590000D03*
X151250000Y-89590000D03*
X150750000Y-89590000D03*
X150250000Y-89590000D03*
X149750000Y-89590000D03*
X149250000Y-89590000D03*
X148750000Y-89590000D03*
X148250000Y-89590000D03*
X147750000Y-89590000D03*
X147250000Y-89590000D03*
%TD*%
D45*
%TO.C,C20*%
X143325000Y-116250000D03*
X141775000Y-116250000D03*
%TD*%
D50*
%TO.C,R30*%
X153212501Y-86500000D03*
X154862501Y-86500000D03*
%TD*%
D45*
%TO.C,C30*%
X157475000Y-106500000D03*
X155925000Y-106500000D03*
%TD*%
D47*
%TO.C,C34*%
X134037500Y-86237500D03*
X134037500Y-87787500D03*
%TD*%
D37*
%TO.C,R4*%
X166750000Y-80575000D03*
X166750000Y-78925000D03*
%TD*%
D53*
%TO.C,D3*%
X134800001Y-118499999D03*
X134800001Y-122500001D03*
%TD*%
D45*
%TO.C,C9*%
X137312500Y-89537500D03*
X135762500Y-89537500D03*
%TD*%
D54*
%TO.C,JP2*%
X163500000Y-83649999D03*
X163500000Y-82350001D03*
%TD*%
D53*
%TO.C,D1*%
X163500000Y-86249999D03*
X163500000Y-90250001D03*
%TD*%
D50*
%TO.C,R28*%
X153212501Y-84500000D03*
X154862501Y-84500000D03*
%TD*%
D42*
%TO.C,C7*%
X150950000Y-100250000D03*
X152500000Y-100250000D03*
%TD*%
%TO.C,C27*%
X141750000Y-107500000D03*
X143300000Y-107500000D03*
%TD*%
%TO.C,C23*%
X155950000Y-108250000D03*
X157500000Y-108250000D03*
%TD*%
D55*
%TO.C,R2*%
X149250000Y-85675000D03*
X149250000Y-87325000D03*
%TD*%
D42*
%TO.C,C1*%
X129975000Y-78500000D03*
X131525000Y-78500000D03*
%TD*%
D56*
%TO.C,R8*%
X143375001Y-124000000D03*
X141725001Y-124000000D03*
%TD*%
D42*
%TO.C,C18*%
X141725001Y-112500000D03*
X143275001Y-112500000D03*
%TD*%
D45*
%TO.C,C6*%
X156275000Y-89500000D03*
X154725000Y-89500000D03*
%TD*%
D44*
%TO.C,D7*%
X158075002Y-82500000D03*
X156500000Y-82500000D03*
%TD*%
D42*
%TO.C,C14*%
X137700000Y-92000000D03*
X139250000Y-92000000D03*
%TD*%
D50*
%TO.C,R7*%
X137725001Y-124000000D03*
X139375001Y-124000000D03*
%TD*%
D45*
%TO.C,C13*%
X162300000Y-106250000D03*
X160750000Y-106250000D03*
%TD*%
D57*
%TO.C,C10*%
X141537500Y-87812500D03*
X141537500Y-86262500D03*
%TD*%
D45*
%TO.C,C28*%
X157500000Y-104750000D03*
X155950000Y-104750000D03*
%TD*%
D44*
%TO.C,D12*%
X158075002Y-84500000D03*
X156500000Y-84500000D03*
%TD*%
D42*
%TO.C,C3*%
X141725000Y-98500000D03*
X143275000Y-98500000D03*
%TD*%
D58*
%TO.C,X1*%
X142500000Y-96550000D03*
X142500000Y-92450000D03*
%TD*%
D37*
%TO.C,R3*%
X169000000Y-80575000D03*
X169000000Y-78925000D03*
%TD*%
D36*
%TO.C,H2*%
X172750000Y-78250000D03*
%TD*%
%TO.C,H3*%
X172750000Y-123750000D03*
%TD*%
%TO.C,H4*%
X127250000Y-123750000D03*
%TD*%
%LPD*%
M02*
