%TF.GenerationSoftware,KiCad,Pcbnew,9.0.5*%
%TF.CreationDate,2026-01-17T21:03:59+11:00*%
%TF.ProjectId,Active-Dampers,41637469-7665-42d4-9461-6d706572732e,rev?*%
%TF.SameCoordinates,Original*%
%TF.FileFunction,Soldermask,Bot*%
%TF.FilePolarity,Negative*%
%FSLAX46Y46*%
G04 Gerber Fmt 4.6, Leading zero omitted, Abs format (unit mm)*
G04 Created by KiCad (PCBNEW 9.0.5) date 2026-01-17 21:03:59*
%MOMM*%
%LPD*%
G01*
G04 APERTURE LIST*
G04 Aperture macros list*
%AMRoundRect*
0 Rectangle with rounded corners*
0 $1 Rounding radius*
0 $2 $3 $4 $5 $6 $7 $8 $9 X,Y pos of 4 corners*
0 Add a 4 corners polygon primitive as box body*
4,1,4,$2,$3,$4,$5,$6,$7,$8,$9,$2,$3,0*
0 Add four circle primitives for the rounded corners*
1,1,$1+$1,$2,$3*
1,1,$1+$1,$4,$5*
1,1,$1+$1,$6,$7*
1,1,$1+$1,$8,$9*
0 Add four rect primitives between the rounded corners*
20,1,$1+$1,$2,$3,$4,$5,0*
20,1,$1+$1,$4,$5,$6,$7,0*
20,1,$1+$1,$6,$7,$8,$9,0*
20,1,$1+$1,$8,$9,$2,$3,0*%
G04 Aperture macros list end*
%ADD10C,1.600000*%
%ADD11RoundRect,0.250000X-0.550000X-0.550000X0.550000X-0.550000X0.550000X0.550000X-0.550000X0.550000X0*%
%ADD12R,1.100000X1.100000*%
%ADD13C,1.100000*%
%ADD14C,1.200000*%
%ADD15RoundRect,0.250000X0.725000X-0.600000X0.725000X0.600000X-0.725000X0.600000X-0.725000X-0.600000X0*%
%ADD16O,1.950000X1.700000*%
%ADD17RoundRect,0.250000X-0.725000X0.600000X-0.725000X-0.600000X0.725000X-0.600000X0.725000X0.600000X0*%
%ADD18RoundRect,0.875000X0.875000X-0.875000X0.875000X0.875000X-0.875000X0.875000X-0.875000X-0.875000X0*%
%ADD19RoundRect,0.750000X1.000000X-0.750000X1.000000X0.750000X-1.000000X0.750000X-1.000000X-0.750000X0*%
%ADD20R,3.500000X3.500000*%
%ADD21C,0.650000*%
%ADD22O,2.100000X1.000000*%
%ADD23O,1.600000X1.000000*%
%ADD24C,2.200000*%
%ADD25C,1.905000*%
%ADD26C,3.800000*%
G04 APERTURE END LIST*
D10*
%TO.C,C15*%
X165000000Y-120750000D03*
D11*
X161500000Y-120750000D03*
%TD*%
D10*
%TO.C,C22*%
X165000000Y-112250000D03*
D11*
X161500000Y-112250000D03*
%TD*%
D12*
%TO.C,J1*%
X128750000Y-88770000D03*
D13*
X127480000Y-88770000D03*
X128750000Y-87500000D03*
X127480000Y-87500000D03*
X128750000Y-86230000D03*
X127480000Y-86230000D03*
X128750000Y-84960000D03*
X127480000Y-84960000D03*
X128750000Y-83690000D03*
X127480000Y-83690000D03*
%TD*%
D14*
%TO.C,J2*%
X129750000Y-105100000D03*
D15*
X127750000Y-103500000D03*
D16*
X127750000Y-101000000D03*
X127750000Y-98500000D03*
X127750000Y-96000000D03*
%TD*%
D14*
%TO.C,J3*%
X170000000Y-94400000D03*
D17*
X172000000Y-96000000D03*
D16*
X172000000Y-98500000D03*
X172000000Y-101000000D03*
X172000000Y-103500000D03*
%TD*%
D14*
%TO.C,J4*%
X129750000Y-119600000D03*
D15*
X127750000Y-118000000D03*
D16*
X127750000Y-115500000D03*
X127750000Y-113000000D03*
X127750000Y-110500000D03*
%TD*%
D14*
%TO.C,J5*%
X170000000Y-108900000D03*
D17*
X172000000Y-110500000D03*
D16*
X172000000Y-113000000D03*
X172000000Y-115500000D03*
X172000000Y-118000000D03*
%TD*%
D18*
%TO.C,J6*%
X154700000Y-115000000D03*
D19*
X150000000Y-118000000D03*
D20*
X150000000Y-112000000D03*
%TD*%
D21*
%TO.C,J7*%
X168400000Y-89890000D03*
X168400000Y-84110000D03*
D22*
X167870000Y-91320000D03*
D23*
X172050000Y-91320000D03*
D22*
X167870000Y-82680000D03*
D23*
X172050000Y-82680000D03*
%TD*%
D24*
%TO.C,J8*%
X138250000Y-78000000D03*
X161750000Y-78000000D03*
D25*
X146190000Y-78000000D03*
X148730000Y-78000000D03*
X151270000Y-78000000D03*
X153810000Y-78000000D03*
%TD*%
D26*
%TO.C,H1*%
X127000000Y-78000000D03*
%TD*%
%TO.C,H2*%
X172750000Y-78250000D03*
%TD*%
%TO.C,H3*%
X172750000Y-123750000D03*
%TD*%
%TO.C,H4*%
X127250000Y-123750000D03*
%TD*%
M02*
