%TF.GenerationSoftware,KiCad,Pcbnew,9.0.5*%
%TF.CreationDate,2026-01-17T21:03:59+11:00*%
%TF.ProjectId,Active-Dampers,41637469-7665-42d4-9461-6d706572732e,rev?*%
%TF.SameCoordinates,Original*%
%TF.FileFunction,Soldermask,Top*%
%TF.FilePolarity,Negative*%
%FSLAX46Y46*%
G04 Gerber Fmt 4.6, Leading zero omitted, Abs format (unit mm)*
G04 Created by KiCad (PCBNEW 9.0.5) date 2026-01-17 21:03:59*
%MOMM*%
%LPD*%
G01*
G04 APERTURE LIST*
G04 Aperture macros list*
%AMRoundRect*
0 Rectangle with rounded corners*
0 $1 Rounding radius*
0 $2 $3 $4 $5 $6 $7 $8 $9 X,Y pos of 4 corners*
0 Add a 4 corners polygon primitive as box body*
4,1,4,$2,$3,$4,$5,$6,$7,$8,$9,$2,$3,0*
0 Add four circle primitives for the rounded corners*
1,1,$1+$1,$2,$3*
1,1,$1+$1,$4,$5*
1,1,$1+$1,$6,$7*
1,1,$1+$1,$8,$9*
0 Add four rect primitives between the rounded corners*
20,1,$1+$1,$2,$3,$4,$5,0*
20,1,$1+$1,$4,$5,$6,$7,0*
20,1,$1+$1,$6,$7,$8,$9,0*
20,1,$1+$1,$8,$9,$2,$3,0*%
G04 Aperture macros list end*
%ADD10C,0.000000*%
%ADD11C,1.600000*%
%ADD12RoundRect,0.250000X-0.550000X-0.550000X0.550000X-0.550000X0.550000X0.550000X-0.550000X0.550000X0*%
%ADD13R,1.100000X1.100000*%
%ADD14C,1.100000*%
%ADD15RoundRect,0.250000X0.725000X-0.600000X0.725000X0.600000X-0.725000X0.600000X-0.725000X-0.600000X0*%
%ADD16O,1.950000X1.700000*%
%ADD17RoundRect,0.250000X-0.725000X0.600000X-0.725000X-0.600000X0.725000X-0.600000X0.725000X0.600000X0*%
%ADD18RoundRect,0.875000X0.875000X-0.875000X0.875000X0.875000X-0.875000X0.875000X-0.875000X-0.875000X0*%
%ADD19RoundRect,0.750000X1.000000X-0.750000X1.000000X0.750000X-1.000000X0.750000X-1.000000X-0.750000X0*%
%ADD20R,3.500000X3.500000*%
%ADD21R,1.450000X0.600000*%
%ADD22R,1.450000X0.300000*%
%ADD23O,2.100000X1.000000*%
%ADD24O,1.600000X1.000000*%
%ADD25C,1.905000*%
%ADD26RoundRect,0.062500X-0.350000X0.062500X-0.350000X-0.062500X0.350000X-0.062500X0.350000X0.062500X0*%
%ADD27RoundRect,0.062500X-0.062500X0.350000X-0.062500X-0.350000X0.062500X-0.350000X0.062500X0.350000X0*%
%ADD28C,3.800000*%
%ADD29RoundRect,0.200000X0.275000X-0.200000X0.275000X0.200000X-0.275000X0.200000X-0.275000X-0.200000X0*%
%ADD30R,1.050000X0.450000*%
%ADD31R,1.470000X0.895000*%
%ADD32O,1.300000X0.600000*%
%ADD33RoundRect,0.625000X-0.625000X-1.125000X0.625000X-1.125000X0.625000X1.125000X-0.625000X1.125000X0*%
%ADD34RoundRect,0.225000X-0.225000X-0.250000X0.225000X-0.250000X0.225000X0.250000X-0.225000X0.250000X0*%
%ADD35R,3.500000X1.850000*%
%ADD36RoundRect,0.218750X0.218750X0.256250X-0.218750X0.256250X-0.218750X-0.256250X0.218750X-0.256250X0*%
%ADD37RoundRect,0.225000X0.225000X0.250000X-0.225000X0.250000X-0.225000X-0.250000X0.225000X-0.250000X0*%
%ADD38RoundRect,0.250000X0.750000X-0.275000X0.750000X0.275000X-0.750000X0.275000X-0.750000X-0.275000X0*%
%ADD39RoundRect,0.225000X-0.250000X0.225000X-0.250000X-0.225000X0.250000X-0.225000X0.250000X0.225000X0*%
%ADD40RoundRect,0.375000X-0.625000X-0.375000X0.625000X-0.375000X0.625000X0.375000X-0.625000X0.375000X0*%
%ADD41RoundRect,0.500000X-0.500000X-1.400000X0.500000X-1.400000X0.500000X1.400000X-0.500000X1.400000X0*%
%ADD42RoundRect,0.200000X-0.200000X-0.275000X0.200000X-0.275000X0.200000X0.275000X-0.200000X0.275000X0*%
%ADD43RoundRect,0.075000X-0.665000X-0.075000X0.665000X-0.075000X0.665000X0.075000X-0.665000X0.075000X0*%
%ADD44RoundRect,0.075000X-0.075000X-0.665000X0.075000X-0.665000X0.075000X0.665000X-0.075000X0.665000X0*%
%ADD45RoundRect,0.260556X-0.677444X1.027444X-0.677444X-1.027444X0.677444X-1.027444X0.677444X1.027444X0*%
%ADD46R,1.500000X1.000000*%
%ADD47RoundRect,0.200000X-0.275000X0.200000X-0.275000X-0.200000X0.275000X-0.200000X0.275000X0.200000X0*%
%ADD48RoundRect,0.200000X0.200000X0.275000X-0.200000X0.275000X-0.200000X-0.275000X0.200000X-0.275000X0*%
%ADD49RoundRect,0.225000X0.250000X-0.225000X0.250000X0.225000X-0.250000X0.225000X-0.250000X-0.225000X0*%
%ADD50RoundRect,0.475000X0.725000X-0.475000X0.725000X0.475000X-0.725000X0.475000X-0.725000X-0.475000X0*%
G04 APERTURE END LIST*
D10*
%TO.C,JP2*%
G36*
X164250000Y-83150000D02*
G01*
X162750000Y-83150000D01*
X162750000Y-82850000D01*
X164250000Y-82850000D01*
X164250000Y-83150000D01*
G37*
%TD*%
D11*
%TO.C,C15*%
X165000000Y-120750000D03*
D12*
X161500000Y-120750000D03*
%TD*%
D11*
%TO.C,C22*%
X165000000Y-112250000D03*
D12*
X161500000Y-112250000D03*
%TD*%
D13*
%TO.C,J1*%
X128750000Y-88770000D03*
D14*
X127480000Y-88770000D03*
X128750000Y-87500000D03*
X127480000Y-87500000D03*
X128750000Y-86230000D03*
X127480000Y-86230000D03*
X128750000Y-84960000D03*
X127480000Y-84960000D03*
X128750000Y-83690000D03*
X127480000Y-83690000D03*
%TD*%
D15*
%TO.C,J2*%
X127750000Y-103500000D03*
D16*
X127750000Y-101000000D03*
X127750000Y-98500000D03*
X127750000Y-96000000D03*
%TD*%
D17*
%TO.C,J3*%
X172000000Y-96000000D03*
D16*
X172000000Y-98500000D03*
X172000000Y-101000000D03*
X172000000Y-103500000D03*
%TD*%
D15*
%TO.C,J4*%
X127750000Y-118000000D03*
D16*
X127750000Y-115500000D03*
X127750000Y-113000000D03*
X127750000Y-110500000D03*
%TD*%
D17*
%TO.C,J5*%
X172000000Y-110500000D03*
D16*
X172000000Y-113000000D03*
X172000000Y-115500000D03*
X172000000Y-118000000D03*
%TD*%
D18*
%TO.C,J6*%
X154700000Y-115000000D03*
D19*
X150000000Y-118000000D03*
D20*
X150000000Y-112000000D03*
%TD*%
D21*
%TO.C,J7*%
X166955000Y-90250000D03*
X166955000Y-89450001D03*
D22*
X166955001Y-88250000D03*
X166955000Y-87250000D03*
X166955000Y-86750000D03*
X166955001Y-85750000D03*
D21*
X166955000Y-84549999D03*
X166955000Y-83750000D03*
X166955000Y-83750000D03*
X166955000Y-84549999D03*
D22*
X166955000Y-85250000D03*
X166955000Y-86250000D03*
X166955000Y-87750000D03*
X166955000Y-88750000D03*
D21*
X166955000Y-89450001D03*
X166955000Y-90250000D03*
D23*
X167870000Y-91320000D03*
D24*
X172050000Y-91320000D03*
D23*
X167870000Y-82680000D03*
D24*
X172050000Y-82680000D03*
%TD*%
D25*
%TO.C,J8*%
X146190000Y-78000000D03*
X148730000Y-78000000D03*
X151270000Y-78000000D03*
X153810000Y-78000000D03*
%TD*%
D26*
%TO.C,U1*%
X139712500Y-84537500D03*
X139712500Y-85037500D03*
X139712500Y-85537500D03*
X139712500Y-86037500D03*
X139712500Y-86537500D03*
X139712500Y-87037500D03*
D27*
X139000000Y-87750000D03*
X138500000Y-87750000D03*
X138000000Y-87750000D03*
X137500000Y-87750000D03*
X137000000Y-87750000D03*
X136500000Y-87750000D03*
D26*
X135787500Y-87037500D03*
X135787500Y-86537500D03*
X135787500Y-86037500D03*
X135787500Y-85537500D03*
X135787500Y-85037500D03*
X135787500Y-84537500D03*
D27*
X136500000Y-83825000D03*
X137000000Y-83825000D03*
X137500000Y-83825000D03*
X138000000Y-83825000D03*
X138500000Y-83825000D03*
X139000000Y-83825000D03*
%TD*%
D28*
%TO.C,H1*%
X127000000Y-78000000D03*
%TD*%
D29*
%TO.C,R16*%
X143750000Y-84250000D03*
X143750000Y-82600000D03*
%TD*%
%TO.C,R5*%
X145750000Y-84250000D03*
X145750000Y-82600000D03*
%TD*%
D30*
%TO.C,U9*%
X166250000Y-104775000D03*
X166250000Y-104125000D03*
X166250000Y-103475000D03*
X166250000Y-102825000D03*
X166250000Y-102175000D03*
X166250000Y-101525000D03*
X166250000Y-100875000D03*
X166250000Y-100225000D03*
X160700000Y-100225000D03*
X160700000Y-100875000D03*
X160700000Y-101525000D03*
X160700000Y-102175000D03*
X160700000Y-102825000D03*
X160700000Y-103475000D03*
X160700000Y-104125000D03*
X160700000Y-104775000D03*
D31*
X164210000Y-103842499D03*
X164210000Y-102947500D03*
X164210000Y-102052500D03*
X164210000Y-101157501D03*
X162740000Y-103842499D03*
X162740000Y-102947500D03*
X162740000Y-102052500D03*
X162740000Y-101157501D03*
%TD*%
D32*
%TO.C,U10*%
X137850000Y-118090000D03*
X137850000Y-119360000D03*
X137850000Y-120640000D03*
X137850000Y-121910000D03*
X143250000Y-121910000D03*
X143250000Y-120640000D03*
X143250000Y-119360000D03*
X143250000Y-118090000D03*
D33*
X140550000Y-120000000D03*
%TD*%
D34*
%TO.C,C26*%
X141750000Y-105750000D03*
X143300000Y-105750000D03*
%TD*%
%TO.C,C19*%
X141725001Y-114250000D03*
X143275001Y-114250000D03*
%TD*%
D35*
%TO.C,L1*%
X136475001Y-113775000D03*
X136475001Y-108225000D03*
%TD*%
D34*
%TO.C,C2*%
X141750000Y-90500000D03*
X143300000Y-90500000D03*
%TD*%
D30*
%TO.C,U6*%
X133700000Y-93725000D03*
X133700000Y-94375000D03*
X133700000Y-95025000D03*
X133700000Y-95675000D03*
X133700000Y-96325000D03*
X133700000Y-96975000D03*
X133700000Y-97625000D03*
X133700000Y-98275000D03*
X139250000Y-98275000D03*
X139250000Y-97625000D03*
X139250000Y-96975000D03*
X139250000Y-96325000D03*
X139250000Y-95675000D03*
X139250000Y-95025000D03*
X139250000Y-94375000D03*
X139250000Y-93725000D03*
D31*
X135740000Y-94657501D03*
X135740000Y-95552500D03*
X135740000Y-96447500D03*
X135740000Y-97342499D03*
X137210000Y-94657501D03*
X137210000Y-95552500D03*
X137210000Y-96447500D03*
X137210000Y-97342499D03*
%TD*%
D34*
%TO.C,C24*%
X155950000Y-110000000D03*
X157500000Y-110000000D03*
%TD*%
%TO.C,C16*%
X141725001Y-109250000D03*
X143275001Y-109250000D03*
%TD*%
D36*
%TO.C,D14*%
X158075002Y-86500000D03*
X156500000Y-86500000D03*
%TD*%
D37*
%TO.C,C12*%
X143275000Y-101500000D03*
X141725000Y-101500000D03*
%TD*%
D38*
%TO.C,SW1*%
X134250000Y-81475001D03*
X134250000Y-77024999D03*
%TD*%
D34*
%TO.C,C17*%
X141725001Y-111000000D03*
X143275001Y-111000000D03*
%TD*%
D39*
%TO.C,C8*%
X144000000Y-86200000D03*
X144000000Y-87750000D03*
%TD*%
D34*
%TO.C,C21*%
X137775000Y-116250000D03*
X139325000Y-116250000D03*
%TD*%
D37*
%TO.C,C29*%
X157500000Y-103000000D03*
X155950000Y-103000000D03*
%TD*%
D40*
%TO.C,U11*%
X146850000Y-103700000D03*
X146850000Y-106000000D03*
D41*
X153150000Y-106000000D03*
D40*
X146850000Y-108300000D03*
%TD*%
D34*
%TO.C,C25*%
X155950000Y-111750000D03*
X157500000Y-111750000D03*
%TD*%
D39*
%TO.C,C5*%
X145750000Y-86200000D03*
X145750000Y-87750000D03*
%TD*%
D34*
%TO.C,C11*%
X157225000Y-96750000D03*
X158775000Y-96750000D03*
%TD*%
D30*
%TO.C,U8*%
X133700000Y-100225000D03*
X133700000Y-100875000D03*
X133700000Y-101525000D03*
X133700000Y-102175000D03*
X133700000Y-102825000D03*
X133700000Y-103475000D03*
X133700000Y-104125000D03*
X133700000Y-104775000D03*
X139250000Y-104775000D03*
X139250000Y-104125000D03*
X139250000Y-103475000D03*
X139250000Y-102825000D03*
X139250000Y-102175000D03*
X139250000Y-101525000D03*
X139250000Y-100875000D03*
X139250000Y-100225000D03*
D31*
X135740000Y-101157501D03*
X135740000Y-102052500D03*
X135740000Y-102947500D03*
X135740000Y-103842499D03*
X137210000Y-101157501D03*
X137210000Y-102052500D03*
X137210000Y-102947500D03*
X137210000Y-103842499D03*
%TD*%
D42*
%TO.C,R13*%
X153212501Y-82500000D03*
X154862501Y-82500000D03*
%TD*%
D29*
%TO.C,R1*%
X133500000Y-84825000D03*
X133500000Y-83175000D03*
%TD*%
D30*
%TO.C,U7*%
X166250000Y-98275000D03*
X166250000Y-97625000D03*
X166250000Y-96975000D03*
X166250000Y-96325000D03*
X166250000Y-95675000D03*
X166250000Y-95025000D03*
X166250000Y-94375000D03*
X166250000Y-93725000D03*
X160700000Y-93725000D03*
X160700000Y-94375000D03*
X160700000Y-95025000D03*
X160700000Y-95675000D03*
X160700000Y-96325000D03*
X160700000Y-96975000D03*
X160700000Y-97625000D03*
X160700000Y-98275000D03*
D31*
X164210000Y-97342499D03*
X164210000Y-96447500D03*
X164210000Y-95552500D03*
X164210000Y-94657501D03*
X162740000Y-97342499D03*
X162740000Y-96447500D03*
X162740000Y-95552500D03*
X162740000Y-94657501D03*
%TD*%
D43*
%TO.C,U2*%
X145840000Y-91000000D03*
X145840000Y-91500000D03*
X145840000Y-92000000D03*
X145840000Y-92500000D03*
X145840000Y-93000000D03*
X145840000Y-93500000D03*
X145840000Y-94000000D03*
X145840000Y-94500000D03*
X145840000Y-95000000D03*
X145840000Y-95500000D03*
X145840000Y-96000000D03*
X145840000Y-96500000D03*
D44*
X147250000Y-97910000D03*
X147750000Y-97910000D03*
X148250000Y-97910000D03*
X148750000Y-97910000D03*
X149250000Y-97910000D03*
X149750000Y-97910000D03*
X150250000Y-97910000D03*
X150750000Y-97910000D03*
X151250000Y-97910000D03*
X151750000Y-97910000D03*
X152250000Y-97910000D03*
X152750000Y-97910000D03*
D43*
X154160000Y-96500000D03*
X154160000Y-96000000D03*
X154160000Y-95500000D03*
X154160000Y-95000000D03*
X154160000Y-94500000D03*
X154160000Y-94000000D03*
X154160000Y-93500000D03*
X154160000Y-93000000D03*
X154160000Y-92500000D03*
X154160000Y-92000000D03*
X154160000Y-91500000D03*
X154160000Y-91000000D03*
D44*
X152750000Y-89590000D03*
X152250000Y-89590000D03*
X151750000Y-89590000D03*
X151250000Y-89590000D03*
X150750000Y-89590000D03*
X150250000Y-89590000D03*
X149750000Y-89590000D03*
X149250000Y-89590000D03*
X148750000Y-89590000D03*
X148250000Y-89590000D03*
X147750000Y-89590000D03*
X147250000Y-89590000D03*
%TD*%
D37*
%TO.C,C20*%
X143325000Y-116250000D03*
X141775000Y-116250000D03*
%TD*%
D42*
%TO.C,R30*%
X153212501Y-86500000D03*
X154862501Y-86500000D03*
%TD*%
D37*
%TO.C,C30*%
X157475000Y-106500000D03*
X155925000Y-106500000D03*
%TD*%
D39*
%TO.C,C34*%
X134037500Y-86237500D03*
X134037500Y-87787500D03*
%TD*%
D29*
%TO.C,R4*%
X166750000Y-80575000D03*
X166750000Y-78925000D03*
%TD*%
D45*
%TO.C,D3*%
X134800001Y-118499999D03*
X134800001Y-122500001D03*
%TD*%
D37*
%TO.C,C9*%
X137312500Y-89537500D03*
X135762500Y-89537500D03*
%TD*%
D46*
%TO.C,JP2*%
X163500000Y-83649999D03*
X163500000Y-82350001D03*
%TD*%
D45*
%TO.C,D1*%
X163500000Y-86249999D03*
X163500000Y-90250001D03*
%TD*%
D42*
%TO.C,R28*%
X153212501Y-84500000D03*
X154862501Y-84500000D03*
%TD*%
D34*
%TO.C,C7*%
X150950000Y-100250000D03*
X152500000Y-100250000D03*
%TD*%
%TO.C,C27*%
X141750000Y-107500000D03*
X143300000Y-107500000D03*
%TD*%
%TO.C,C23*%
X155950000Y-108250000D03*
X157500000Y-108250000D03*
%TD*%
D47*
%TO.C,R2*%
X149250000Y-85675000D03*
X149250000Y-87325000D03*
%TD*%
D34*
%TO.C,C1*%
X129975000Y-78500000D03*
X131525000Y-78500000D03*
%TD*%
D48*
%TO.C,R8*%
X143375001Y-124000000D03*
X141725001Y-124000000D03*
%TD*%
D34*
%TO.C,C18*%
X141725001Y-112500000D03*
X143275001Y-112500000D03*
%TD*%
D37*
%TO.C,C6*%
X156275000Y-89500000D03*
X154725000Y-89500000D03*
%TD*%
D36*
%TO.C,D7*%
X158075002Y-82500000D03*
X156500000Y-82500000D03*
%TD*%
D34*
%TO.C,C14*%
X137700000Y-92000000D03*
X139250000Y-92000000D03*
%TD*%
D42*
%TO.C,R7*%
X137725001Y-124000000D03*
X139375001Y-124000000D03*
%TD*%
D37*
%TO.C,C13*%
X162300000Y-106250000D03*
X160750000Y-106250000D03*
%TD*%
D49*
%TO.C,C10*%
X141537500Y-87812500D03*
X141537500Y-86262500D03*
%TD*%
D37*
%TO.C,C28*%
X157500000Y-104750000D03*
X155950000Y-104750000D03*
%TD*%
D36*
%TO.C,D12*%
X158075002Y-84500000D03*
X156500000Y-84500000D03*
%TD*%
D34*
%TO.C,C3*%
X141725000Y-98500000D03*
X143275000Y-98500000D03*
%TD*%
D50*
%TO.C,X1*%
X142500000Y-96550000D03*
X142500000Y-92450000D03*
%TD*%
D29*
%TO.C,R3*%
X169000000Y-80575000D03*
X169000000Y-78925000D03*
%TD*%
D28*
%TO.C,H2*%
X172750000Y-78250000D03*
%TD*%
%TO.C,H3*%
X172750000Y-123750000D03*
%TD*%
%TO.C,H4*%
X127250000Y-123750000D03*
%TD*%
M02*
