%TF.GenerationSoftware,KiCad,Pcbnew,9.0.7*%
%TF.CreationDate,2026-01-15T01:55:43+11:00*%
%TF.ProjectId,Active-Dampers,41637469-7665-42d4-9461-6d706572732e,rev?*%
%TF.SameCoordinates,Original*%
%TF.FileFunction,Copper,L2,Bot*%
%TF.FilePolarity,Positive*%
%FSLAX46Y46*%
G04 Gerber Fmt 4.6, Leading zero omitted, Abs format (unit mm)*
G04 Created by KiCad (PCBNEW 9.0.7) date 2026-01-15 01:55:43*
%MOMM*%
%LPD*%
G01*
G04 APERTURE LIST*
G04 Aperture macros list*
%AMRoundRect*
0 Rectangle with rounded corners*
0 $1 Rounding radius*
0 $2 $3 $4 $5 $6 $7 $8 $9 X,Y pos of 4 corners*
0 Add a 4 corners polygon primitive as box body*
4,1,4,$2,$3,$4,$5,$6,$7,$8,$9,$2,$3,0*
0 Add four circle primitives for the rounded corners*
1,1,$1+$1,$2,$3*
1,1,$1+$1,$4,$5*
1,1,$1+$1,$6,$7*
1,1,$1+$1,$8,$9*
0 Add four rect primitives between the rounded corners*
20,1,$1+$1,$2,$3,$4,$5,0*
20,1,$1+$1,$4,$5,$6,$7,0*
20,1,$1+$1,$6,$7,$8,$9,0*
20,1,$1+$1,$8,$9,$2,$3,0*%
G04 Aperture macros list end*
%TA.AperFunction,ComponentPad*%
%ADD10C,1.600000*%
%TD*%
%TA.AperFunction,ComponentPad*%
%ADD11RoundRect,0.250000X-0.550000X0.550000X-0.550000X-0.550000X0.550000X-0.550000X0.550000X0.550000X0*%
%TD*%
%TA.AperFunction,ComponentPad*%
%ADD12RoundRect,0.250000X0.550000X-0.550000X0.550000X0.550000X-0.550000X0.550000X-0.550000X-0.550000X0*%
%TD*%
%TA.AperFunction,ComponentPad*%
%ADD13C,2.200000*%
%TD*%
%TA.AperFunction,ComponentPad*%
%ADD14RoundRect,0.249999X0.850001X0.850001X-0.850001X0.850001X-0.850001X-0.850001X0.850001X-0.850001X0*%
%TD*%
%TA.AperFunction,ComponentPad*%
%ADD15RoundRect,0.875000X-0.875000X-0.875000X0.875000X-0.875000X0.875000X0.875000X-0.875000X0.875000X0*%
%TD*%
%TA.AperFunction,ComponentPad*%
%ADD16RoundRect,0.750000X-0.750000X-1.000000X0.750000X-1.000000X0.750000X1.000000X-0.750000X1.000000X0*%
%TD*%
%TA.AperFunction,ComponentPad*%
%ADD17R,3.500000X3.500000*%
%TD*%
%TA.AperFunction,ComponentPad*%
%ADD18O,1.700000X1.950000*%
%TD*%
%TA.AperFunction,ComponentPad*%
%ADD19RoundRect,0.250000X0.600000X0.725000X-0.600000X0.725000X-0.600000X-0.725000X0.600000X-0.725000X0*%
%TD*%
%TA.AperFunction,ComponentPad*%
%ADD20R,1.700000X1.700000*%
%TD*%
%TA.AperFunction,ComponentPad*%
%ADD21C,1.700000*%
%TD*%
%TA.AperFunction,ComponentPad*%
%ADD22C,3.800000*%
%TD*%
%TA.AperFunction,ComponentPad*%
%ADD23C,0.500000*%
%TD*%
%TA.AperFunction,HeatsinkPad*%
%ADD24O,1.000000X2.100000*%
%TD*%
%TA.AperFunction,HeatsinkPad*%
%ADD25O,1.000000X1.600000*%
%TD*%
%TA.AperFunction,ViaPad*%
%ADD26C,0.600000*%
%TD*%
%TA.AperFunction,Conductor*%
%ADD27C,0.200000*%
%TD*%
%TA.AperFunction,Conductor*%
%ADD28C,0.400000*%
%TD*%
G04 APERTURE END LIST*
D10*
%TO.P,C3,2*%
%TO.N,GND*%
X55500000Y-89500000D03*
D11*
%TO.P,C3,1*%
%TO.N,+12V*%
X55500000Y-86000000D03*
%TD*%
D10*
%TO.P,C10,2*%
%TO.N,GND*%
X55500000Y-62500000D03*
D12*
%TO.P,C10,1*%
%TO.N,+5V*%
X55500000Y-66000000D03*
%TD*%
D13*
%TO.P,J4,2,Pin_2*%
%TO.N,/CAN/CAN_H*%
X80980000Y-57460000D03*
D14*
%TO.P,J4,1,Pin_1*%
%TO.N,/CAN/CAN_L*%
X83520000Y-57460000D03*
%TD*%
D15*
%TO.P,J8,3*%
%TO.N,GND*%
X61000000Y-80742500D03*
D16*
%TO.P,J8,2*%
X58000000Y-76042500D03*
D17*
%TO.P,J8,1*%
%TO.N,+12V*%
X64000000Y-76042500D03*
%TD*%
D18*
%TO.P,J7,4,Pin_4*%
%TO.N,/AOUT_1_4*%
X99500000Y-97000000D03*
%TO.P,J7,3,Pin_3*%
%TO.N,/AOUT_2_4*%
X102000000Y-97000000D03*
%TO.P,J7,2,Pin_2*%
%TO.N,/BOUT_1_4*%
X104500000Y-97000000D03*
D19*
%TO.P,J7,1,Pin_1*%
%TO.N,/BOUT_2_4*%
X107000000Y-97000000D03*
%TD*%
D18*
%TO.P,J5,4,Pin_4*%
%TO.N,/AOUT_1_3*%
X85500000Y-97000000D03*
%TO.P,J5,3,Pin_3*%
%TO.N,/AOUT_2_3*%
X88000000Y-97000000D03*
%TO.P,J5,2,Pin_2*%
%TO.N,/BOUT_1_3*%
X90500000Y-97000000D03*
D19*
%TO.P,J5,1,Pin_1*%
%TO.N,/BOUT_2_3*%
X93000000Y-97000000D03*
%TD*%
D18*
%TO.P,J3,4,Pin_4*%
%TO.N,/AOUT_12*%
X71500000Y-97000000D03*
%TO.P,J3,3,Pin_3*%
%TO.N,/AOUT_2_2*%
X74000000Y-97000000D03*
%TO.P,J3,2,Pin_2*%
%TO.N,/BOUT_12*%
X76500000Y-97000000D03*
D19*
%TO.P,J3,1,Pin_1*%
%TO.N,/BOUT_2_2*%
X79000000Y-97000000D03*
%TD*%
D20*
%TO.P,J1,1*%
%TO.N,Net-(J1-Pad1)*%
X90500000Y-64775000D03*
D21*
%TO.P,J1,2*%
%TO.N,/CAN/CAN_L*%
X90500000Y-62235000D03*
%TD*%
D22*
%TO.P,H1,1*%
%TO.N,GND*%
X52000000Y-98000000D03*
%TD*%
%TO.P,H2,1*%
%TO.N,GND*%
X112500000Y-98000000D03*
%TD*%
D23*
%TO.P,U1,9,GND_(EP)*%
%TO.N,GND*%
X70590000Y-77750000D03*
X68490000Y-77750000D03*
X69590000Y-77750001D03*
X69590000Y-79349999D03*
X70590000Y-79350000D03*
X68490000Y-79350000D03*
%TD*%
D22*
%TO.P,H3,1*%
%TO.N,GND*%
X52000000Y-56000000D03*
%TD*%
D24*
%TO.P,J6,S1,SHIELD*%
%TO.N,GND*%
X108320000Y-61130000D03*
D25*
X108320000Y-56950000D03*
D24*
X99680000Y-61130000D03*
D25*
X99680000Y-56950000D03*
%TD*%
D19*
%TO.P,J2,1,Pin_1*%
%TO.N,/BOUT_1_2*%
X65000000Y-97000000D03*
D18*
%TO.P,J2,2,Pin_2*%
%TO.N,/BOUT_1_1*%
X62500000Y-97000000D03*
%TO.P,J2,3,Pin_3*%
%TO.N,/AOUT_1_2*%
X60000000Y-97000000D03*
%TO.P,J2,4,Pin_4*%
%TO.N,/AOUT_1_1*%
X57500000Y-97000000D03*
%TD*%
D22*
%TO.P,H4,1*%
%TO.N,GND*%
X112500000Y-56000000D03*
%TD*%
D26*
%TO.N,/CAN_TX*%
X103600000Y-68575000D03*
X96275000Y-60275000D03*
%TO.N,Net-(SW1-A)*%
X111584877Y-72083350D03*
X112175000Y-68275000D03*
%TO.N,GND*%
X110800000Y-65355514D03*
%TO.N,/AIN2_3*%
X100875000Y-83025000D03*
X96409759Y-87938771D03*
%TO.N,+3.3V*%
X79856696Y-98434491D03*
X108323539Y-97931235D03*
X94200000Y-98400000D03*
%TO.N,/~{SLEEP}_3*%
X95725735Y-86925735D03*
X90100000Y-87100000D03*
%TO.N,+3.3V*%
X112400000Y-81900000D03*
X111129554Y-84900001D03*
%TO.N,GND*%
X101300000Y-63500000D03*
%TO.N,/CAN/CAN_H*%
X86607583Y-60790174D03*
X80980000Y-60700000D03*
%TO.N,GND*%
X86500000Y-57600000D03*
X106500000Y-94900000D03*
X92700000Y-94900000D03*
X65200000Y-95100000D03*
X79000000Y-95100000D03*
X101300000Y-59600000D03*
X92400000Y-55500000D03*
X101500000Y-55300000D03*
X79000000Y-55800000D03*
X87000000Y-55400000D03*
X62000000Y-57400000D03*
X58600000Y-58400000D03*
X58000000Y-67800000D03*
X61200000Y-70200000D03*
X112600000Y-71400000D03*
X111600000Y-78400000D03*
X111600000Y-74400000D03*
X102200000Y-79200000D03*
X95600000Y-82600000D03*
X93200000Y-82400000D03*
X51600000Y-81600000D03*
X51400000Y-75000000D03*
X51400000Y-70400000D03*
%TO.N,+3.3V*%
X76400000Y-56400000D03*
%TO.N,Net-(J6-CC1)*%
X110510502Y-59850000D03*
X105108970Y-63510957D03*
%TO.N,Net-(J6-CC2)*%
X111625000Y-59825000D03*
X102200000Y-63200000D03*
%TO.N,Net-(D9-Pad2)*%
X104698143Y-59101857D03*
X106000000Y-56200000D03*
%TO.N,/USB-*%
X103699479Y-60500521D03*
%TO.N,/USB+*%
X104300521Y-59899479D03*
%TO.N,/USB-*%
X109899479Y-71299479D03*
%TO.N,/USB+*%
X110500521Y-71900521D03*
%TO.N,/GPS_RX*%
X107800000Y-72600000D03*
X97200000Y-68200000D03*
%TO.N,/GPS_TX*%
X108600000Y-70800000D03*
X94200000Y-68100000D03*
%TO.N,GND*%
X90400000Y-70000000D03*
%TO.N,/SCL*%
X104400000Y-71400000D03*
X94633578Y-62418408D03*
%TO.N,/SDA*%
X105200000Y-71200000D03*
X96700000Y-62175000D03*
%TO.N,+3.3V*%
X95606170Y-64003456D03*
X93800000Y-64400000D03*
%TO.N,/~{FAULT}_1*%
X101800000Y-71800000D03*
X86897630Y-70723546D03*
X82950735Y-74941950D03*
X75825085Y-82625085D03*
%TO.N,GND*%
X79600000Y-79600000D03*
X77800000Y-78400000D03*
%TO.N,/~{SLEEP}_1*%
X101000000Y-71250000D03*
X87500000Y-71250000D03*
%TO.N,GND*%
X69500000Y-89750000D03*
X83612737Y-89554094D03*
X85250000Y-81750000D03*
X107000000Y-89250000D03*
%TO.N,/~{FAULT}_3*%
X90894556Y-92290001D03*
X88984908Y-82987066D03*
%TO.N,/AIN2_2*%
X87000000Y-86500000D03*
X112000000Y-83000000D03*
%TO.N,/BIN2_2*%
X88000000Y-86500000D03*
X98500000Y-86000000D03*
%TO.N,GND*%
X63530000Y-89250000D03*
X65000000Y-89250000D03*
X77530000Y-88750000D03*
X79000000Y-88750000D03*
X105530000Y-89250000D03*
X92960000Y-89250000D03*
X91490000Y-89250000D03*
%TO.N,/~{FAULT}_4*%
X103500000Y-83000000D03*
X105000000Y-86000000D03*
%TO.N,/AIN1_4*%
X105000000Y-83000000D03*
X109000000Y-87000000D03*
%TO.N,/AIN2_4*%
X110000000Y-88500000D03*
X106000000Y-83000000D03*
%TO.N,/BIN1_4*%
X107000000Y-83000000D03*
X109000000Y-93000000D03*
%TO.N,+3.3V*%
X85000000Y-64500000D03*
X89000000Y-68000000D03*
X86500000Y-68000000D03*
%TO.N,+12V*%
X108235002Y-90325000D03*
X96000000Y-90500000D03*
X82500000Y-90500000D03*
X68500000Y-90500000D03*
X59750000Y-83725000D03*
%TO.N,+3.3V*%
X111450000Y-67775000D03*
X98500000Y-59500000D03*
X98500000Y-58000000D03*
X77500000Y-64500000D03*
X67000000Y-65000000D03*
X64000000Y-65000000D03*
%TO.N,/BOUT_2_4*%
X102425001Y-90764950D03*
%TO.N,/BOUT_2_3*%
X86800000Y-93300000D03*
%TO.N,/BOUT_2_2*%
X74425001Y-90764950D03*
%TO.N,/BOUT_1_2*%
X60425001Y-90764950D03*
%TD*%
D27*
%TO.N,Net-(J6-CC2)*%
X102200000Y-58200000D02*
X102200000Y-63200000D01*
X104750000Y-55650000D02*
X102200000Y-58200000D01*
X104750000Y-55225000D02*
X104750000Y-55650000D01*
X105207900Y-55225000D02*
X104750000Y-55225000D01*
X105234900Y-55198000D02*
X105207900Y-55225000D01*
X106415043Y-55198000D02*
X105234900Y-55198000D01*
X106442043Y-55225000D02*
X106415043Y-55198000D01*
X107100000Y-55225000D02*
X106442043Y-55225000D01*
X107856107Y-55981107D02*
X107100000Y-55225000D01*
X108651785Y-55849000D02*
X107988215Y-55849000D01*
X109121000Y-56318215D02*
X108651785Y-55849000D01*
X107988215Y-55849000D02*
X107856107Y-55981107D01*
X111625000Y-59750000D02*
X109121000Y-57246000D01*
X109121000Y-57246000D02*
X109121000Y-56318215D01*
X111625000Y-59825000D02*
X111625000Y-59750000D01*
%TO.N,Net-(SW1-A)*%
X111295690Y-69154310D02*
X112175000Y-68275000D01*
X111584877Y-72083350D02*
X111295690Y-71794163D01*
X111295690Y-71794163D02*
X111295690Y-69154310D01*
%TO.N,/CAN_TX*%
X96824000Y-61574000D02*
X96948943Y-61574000D01*
X96948943Y-61574000D02*
X97301000Y-61926057D01*
X96275000Y-61025000D02*
X96824000Y-61574000D01*
X97301000Y-61926057D02*
X97301000Y-62051000D01*
X103600000Y-68350000D02*
X103600000Y-68575000D01*
X96275000Y-60275000D02*
X96275000Y-61025000D01*
X97301000Y-62051000D02*
X103600000Y-68350000D01*
%TO.N,/SDA*%
X97600016Y-63600016D02*
X105200000Y-71200000D01*
X97600016Y-63075016D02*
X97600016Y-63600016D01*
X96700000Y-62175000D02*
X97600016Y-63075016D01*
%TO.N,GND*%
X110800000Y-63610000D02*
X110800000Y-65355514D01*
X108320000Y-61130000D02*
X110800000Y-63610000D01*
%TO.N,/GPS_TX*%
X99750057Y-67600000D02*
X104151057Y-72001000D01*
X94700000Y-67600000D02*
X99750057Y-67600000D01*
X94200000Y-68100000D02*
X94700000Y-67600000D01*
X107399000Y-72001000D02*
X108600000Y-70800000D01*
X104151057Y-72001000D02*
X107399000Y-72001000D01*
%TO.N,/AIN2_3*%
X97411172Y-87938771D02*
X100875000Y-84474943D01*
X96409759Y-87938771D02*
X97411172Y-87938771D01*
X100875000Y-84474943D02*
X100875000Y-83025000D01*
%TO.N,+3.3V*%
X79891187Y-98400000D02*
X79856696Y-98434491D01*
X94200000Y-98400000D02*
X79891187Y-98400000D01*
X94200000Y-98400000D02*
X107854774Y-98400000D01*
X107854774Y-98400000D02*
X108323539Y-97931235D01*
%TO.N,/~{SLEEP}_3*%
X90100000Y-87100000D02*
X95551471Y-87100000D01*
X95551471Y-87100000D02*
X95725735Y-86925735D01*
%TO.N,/SCL*%
X94633578Y-62418408D02*
X94815170Y-62600000D01*
X94815170Y-62600000D02*
X95600000Y-62600000D01*
X95600000Y-62600000D02*
X104400000Y-71400000D01*
%TO.N,+3.3V*%
X112600000Y-83429555D02*
X112600000Y-82100000D01*
X112600000Y-82100000D02*
X112400000Y-81900000D01*
X111129554Y-84900001D02*
X112600000Y-83429555D01*
%TO.N,GND*%
X99680000Y-61130000D02*
X99680000Y-56950000D01*
%TO.N,Net-(J6-CC1)*%
X109787215Y-59850000D02*
X110510502Y-59850000D01*
X107519000Y-57581785D02*
X109787215Y-59850000D01*
X107519000Y-56869057D02*
X107519000Y-57581785D01*
X103098479Y-60932707D02*
X103098479Y-57901521D01*
X105108970Y-62943198D02*
X103098479Y-60932707D01*
X105108970Y-63510957D02*
X105108970Y-62943198D01*
X105401000Y-55599000D02*
X106248943Y-55599000D01*
X103098479Y-57901521D02*
X105401000Y-55599000D01*
X106248943Y-55599000D02*
X107519000Y-56869057D01*
%TO.N,/CAN/CAN_H*%
X86517409Y-60700000D02*
X86607583Y-60790174D01*
X80980000Y-60700000D02*
X86517409Y-60700000D01*
D28*
%TO.N,/BOUT_2_3*%
X90200000Y-94200000D02*
X93000000Y-97000000D01*
X87700000Y-94200000D02*
X90200000Y-94200000D01*
X86800000Y-93300000D02*
X87700000Y-94200000D01*
D27*
%TO.N,/~{FAULT}_3*%
X86399000Y-85572974D02*
X88984908Y-82987066D01*
X86399000Y-87889006D02*
X86399000Y-85572974D01*
X90799995Y-92290001D02*
X86399000Y-87889006D01*
X90894556Y-92290001D02*
X90799995Y-92290001D01*
%TO.N,Net-(D9-Pad2)*%
X106000000Y-56200000D02*
X106000000Y-57800000D01*
X106000000Y-57800000D02*
X104698143Y-59101857D01*
X106000000Y-56200000D02*
X106000000Y-56000000D01*
%TO.N,/USB-*%
X103982322Y-60500521D02*
X103699479Y-60500521D01*
X110101000Y-68248943D02*
X110101000Y-66619199D01*
X110050520Y-68299423D02*
X110101000Y-68248943D01*
X110050520Y-71148438D02*
X110050520Y-68299423D01*
X109899479Y-71299479D02*
X110050520Y-71148438D01*
%TO.N,/USB+*%
X104300521Y-60182322D02*
X104300521Y-59899479D01*
X110550980Y-68435331D02*
X110550980Y-66432781D01*
X110500521Y-68485790D02*
X110550980Y-68435331D01*
X110550980Y-66432781D02*
X104300521Y-60182322D01*
%TO.N,/USB-*%
X110101000Y-66619199D02*
X103982322Y-60500521D01*
%TO.N,/USB+*%
X110500521Y-71900521D02*
X110500521Y-68485790D01*
%TO.N,/GPS_RX*%
X104167100Y-72600000D02*
X107800000Y-72600000D01*
X99767100Y-68200000D02*
X104167100Y-72600000D01*
X97200000Y-68200000D02*
X99767100Y-68200000D01*
%TO.N,/~{FAULT}_1*%
X86972176Y-70649000D02*
X86897630Y-70723546D01*
X101649000Y-70649000D02*
X86972176Y-70649000D01*
X101800000Y-70800000D02*
X101649000Y-70649000D01*
X101800000Y-71800000D02*
X101800000Y-70800000D01*
X75825085Y-82067600D02*
X82950735Y-74941950D01*
X75825085Y-82625085D02*
X75825085Y-82067600D01*
%TO.N,/~{SLEEP}_1*%
X87500000Y-71250000D02*
X101000000Y-71250000D01*
%TO.N,/BIN2_2*%
X88000000Y-86500000D02*
X88500000Y-86000000D01*
X88500000Y-86000000D02*
X98500000Y-86000000D01*
%TO.N,/BIN1_4*%
X107000000Y-86917043D02*
X107000000Y-83000000D01*
X110000000Y-89502000D02*
X109584957Y-89502000D01*
X109584957Y-89502000D02*
X107000000Y-86917043D01*
X110429393Y-89931393D02*
X110000000Y-89502000D01*
X110429393Y-91570607D02*
X110429393Y-89931393D01*
X109000000Y-93000000D02*
X110429393Y-91570607D01*
%TO.N,/~{FAULT}_4*%
X103500000Y-84500000D02*
X103500000Y-83000000D01*
X105000000Y-86000000D02*
X103500000Y-84500000D01*
%TO.N,/AIN1_4*%
X106000000Y-82000000D02*
X105000000Y-83000000D01*
X106500000Y-82000000D02*
X106000000Y-82000000D01*
X106502000Y-81998000D02*
X106500000Y-82000000D01*
X107415043Y-81998000D02*
X106502000Y-81998000D01*
X110601000Y-85183957D02*
X107415043Y-81998000D01*
X110601000Y-88748943D02*
X110601000Y-85183957D01*
X109000000Y-88349943D02*
X109751057Y-89101000D01*
X109000000Y-87000000D02*
X109000000Y-88349943D01*
X110248943Y-89101000D02*
X110601000Y-88748943D01*
X109751057Y-89101000D02*
X110248943Y-89101000D01*
D28*
%TO.N,/BOUT_2_4*%
X107000000Y-97000000D02*
X102425001Y-92425001D01*
X102425001Y-92425001D02*
X102425001Y-90764950D01*
%TO.N,/BOUT_2_2*%
X74425001Y-92425001D02*
X74425001Y-90764950D01*
X79000000Y-97000000D02*
X74425001Y-92425001D01*
%TO.N,/BOUT_1_2*%
X60425001Y-92425001D02*
X60425001Y-90764950D01*
X65000000Y-97000000D02*
X60425001Y-92425001D01*
D27*
%TO.N,/AIN2_4*%
X107248943Y-82399000D02*
X106601000Y-82399000D01*
X110000000Y-85150057D02*
X107248943Y-82399000D01*
X106601000Y-82399000D02*
X106000000Y-83000000D01*
X110000000Y-88500000D02*
X110000000Y-85150057D01*
%TO.N,/AIN2_2*%
X110597000Y-81597000D02*
X112000000Y-83000000D01*
X91903000Y-81597000D02*
X110597000Y-81597000D01*
X87000000Y-86500000D02*
X91903000Y-81597000D01*
%TD*%
%TA.AperFunction,Conductor*%
%TO.N,+12V*%
G36*
X65959191Y-74268907D02*
G01*
X65995155Y-74318407D01*
X66000000Y-74349000D01*
X66000000Y-89750000D01*
X66050000Y-89800000D01*
X68815749Y-89800000D01*
X68873940Y-89818907D01*
X68909904Y-89868407D01*
X68911370Y-89873358D01*
X68940423Y-89981784D01*
X69019480Y-90118716D01*
X69131284Y-90230520D01*
X69268216Y-90309577D01*
X69420943Y-90350500D01*
X69420945Y-90350500D01*
X69579055Y-90350500D01*
X69579057Y-90350500D01*
X69731784Y-90309577D01*
X69868716Y-90230520D01*
X69980520Y-90118716D01*
X70059577Y-89981784D01*
X70088624Y-89873375D01*
X70121948Y-89822063D01*
X70179070Y-89800136D01*
X70184251Y-89800000D01*
X83004155Y-89800000D01*
X83062346Y-89818907D01*
X83089891Y-89849500D01*
X83132002Y-89922438D01*
X83132217Y-89922810D01*
X83244021Y-90034614D01*
X83380953Y-90113671D01*
X83533680Y-90154594D01*
X83533682Y-90154594D01*
X83691792Y-90154594D01*
X83691794Y-90154594D01*
X83844521Y-90113671D01*
X83981453Y-90034614D01*
X84093257Y-89922810D01*
X84112954Y-89888692D01*
X84135583Y-89849500D01*
X84181052Y-89808559D01*
X84221319Y-89800000D01*
X87702593Y-89800000D01*
X87760784Y-89818907D01*
X87772597Y-89828996D01*
X90268490Y-92324889D01*
X90294112Y-92369269D01*
X90334979Y-92521785D01*
X90414036Y-92658717D01*
X90525840Y-92770521D01*
X90662772Y-92849578D01*
X90815499Y-92890501D01*
X90815501Y-92890501D01*
X90973611Y-92890501D01*
X90973613Y-92890501D01*
X91126340Y-92849578D01*
X91263272Y-92770521D01*
X91375076Y-92658717D01*
X91454133Y-92521785D01*
X91495056Y-92369058D01*
X91495056Y-92210944D01*
X91454133Y-92058217D01*
X91375076Y-91921285D01*
X91263272Y-91809481D01*
X91126340Y-91730424D01*
X90973613Y-91689501D01*
X90815499Y-91689501D01*
X90809010Y-91689501D01*
X90809010Y-91686861D01*
X90759854Y-91677723D01*
X90737137Y-91660750D01*
X89045391Y-89969004D01*
X89017614Y-89914487D01*
X89027185Y-89854055D01*
X89070450Y-89810790D01*
X89115395Y-89800000D01*
X91215403Y-89800000D01*
X91253288Y-89807536D01*
X91258211Y-89809575D01*
X91258213Y-89809575D01*
X91258216Y-89809577D01*
X91410943Y-89850500D01*
X91410945Y-89850500D01*
X91569055Y-89850500D01*
X91569057Y-89850500D01*
X91721784Y-89809577D01*
X91721787Y-89809575D01*
X91721788Y-89809575D01*
X91726712Y-89807536D01*
X91764597Y-89800000D01*
X92685403Y-89800000D01*
X92723288Y-89807536D01*
X92728211Y-89809575D01*
X92728213Y-89809575D01*
X92728216Y-89809577D01*
X92880943Y-89850500D01*
X92880945Y-89850500D01*
X93039055Y-89850500D01*
X93039057Y-89850500D01*
X93191784Y-89809577D01*
X93191787Y-89809575D01*
X93191788Y-89809575D01*
X93196712Y-89807536D01*
X93234597Y-89800000D01*
X105255403Y-89800000D01*
X105293288Y-89807536D01*
X105298211Y-89809575D01*
X105298213Y-89809575D01*
X105298216Y-89809577D01*
X105450943Y-89850500D01*
X105450945Y-89850500D01*
X105609055Y-89850500D01*
X105609057Y-89850500D01*
X105761784Y-89809577D01*
X105761787Y-89809575D01*
X105761788Y-89809575D01*
X105766712Y-89807536D01*
X105804597Y-89800000D01*
X106725403Y-89800000D01*
X106763288Y-89807536D01*
X106768211Y-89809575D01*
X106768213Y-89809575D01*
X106768216Y-89809577D01*
X106920943Y-89850500D01*
X106920945Y-89850500D01*
X107079055Y-89850500D01*
X107079057Y-89850500D01*
X107231784Y-89809577D01*
X107231787Y-89809575D01*
X107231788Y-89809575D01*
X107236712Y-89807536D01*
X107274597Y-89800000D01*
X109008992Y-89800000D01*
X109067183Y-89818907D01*
X109078996Y-89828996D01*
X109999897Y-90749897D01*
X110027674Y-90804414D01*
X110028893Y-90819901D01*
X110028893Y-91363706D01*
X110009986Y-91421897D01*
X109999897Y-91433710D01*
X109063103Y-92370504D01*
X109008586Y-92398281D01*
X108993099Y-92399500D01*
X108920943Y-92399500D01*
X108768216Y-92440423D01*
X108631284Y-92519480D01*
X108519480Y-92631284D01*
X108440423Y-92768216D01*
X108399500Y-92920943D01*
X108399500Y-93079057D01*
X108440423Y-93231784D01*
X108519480Y-93368716D01*
X108631284Y-93480520D01*
X108768216Y-93559577D01*
X108920943Y-93600500D01*
X108920945Y-93600500D01*
X109079055Y-93600500D01*
X109079057Y-93600500D01*
X109231784Y-93559577D01*
X109368716Y-93480520D01*
X109480520Y-93368716D01*
X109559577Y-93231784D01*
X109600500Y-93079057D01*
X109600500Y-93006901D01*
X109619407Y-92948710D01*
X109629496Y-92936897D01*
X110080996Y-92485397D01*
X110135513Y-92457620D01*
X110195945Y-92467191D01*
X110239210Y-92510456D01*
X110250000Y-92555401D01*
X110250000Y-93901000D01*
X110231093Y-93959191D01*
X110181593Y-93995155D01*
X110151000Y-94000000D01*
X104748822Y-94000000D01*
X104690631Y-93981093D01*
X104678818Y-93971004D01*
X102954497Y-92246683D01*
X102926720Y-92192166D01*
X102925501Y-92176679D01*
X102925501Y-91125586D01*
X102938764Y-91076086D01*
X102984578Y-90996734D01*
X103025501Y-90844007D01*
X103025501Y-90685893D01*
X102984578Y-90533166D01*
X102905521Y-90396234D01*
X102793717Y-90284430D01*
X102656785Y-90205373D01*
X102504058Y-90164450D01*
X102345944Y-90164450D01*
X102193217Y-90205373D01*
X102056285Y-90284430D01*
X101944481Y-90396234D01*
X101865424Y-90533166D01*
X101824501Y-90685893D01*
X101824501Y-90844007D01*
X101865424Y-90996734D01*
X101911238Y-91076086D01*
X101924501Y-91125586D01*
X101924501Y-92359109D01*
X101924501Y-92490893D01*
X101941786Y-92555401D01*
X101958610Y-92618191D01*
X102024497Y-92732310D01*
X102024498Y-92732311D01*
X102024499Y-92732312D01*
X102024501Y-92732315D01*
X102660901Y-93368715D01*
X103123182Y-93830996D01*
X103150959Y-93885513D01*
X103141388Y-93945945D01*
X103098123Y-93989210D01*
X103053178Y-94000000D01*
X90748822Y-94000000D01*
X90690631Y-93981093D01*
X90678819Y-93971004D01*
X90507314Y-93799500D01*
X90507309Y-93799496D01*
X90393189Y-93733609D01*
X90393191Y-93733609D01*
X90343799Y-93720375D01*
X90265892Y-93699500D01*
X90265890Y-93699500D01*
X87948321Y-93699500D01*
X87890130Y-93680593D01*
X87878317Y-93670503D01*
X87408914Y-93201099D01*
X87383291Y-93156719D01*
X87359577Y-93068216D01*
X87280520Y-92931284D01*
X87168716Y-92819480D01*
X87031784Y-92740423D01*
X86879057Y-92699500D01*
X86720943Y-92699500D01*
X86568216Y-92740423D01*
X86431284Y-92819480D01*
X86319480Y-92931284D01*
X86240423Y-93068216D01*
X86199500Y-93220943D01*
X86199500Y-93379057D01*
X86240423Y-93531784D01*
X86319480Y-93668716D01*
X86431284Y-93780520D01*
X86491464Y-93815265D01*
X86532404Y-93860733D01*
X86538800Y-93921583D01*
X86508207Y-93974571D01*
X86452312Y-93999458D01*
X86441963Y-94000000D01*
X76748822Y-94000000D01*
X76690631Y-93981093D01*
X76678818Y-93971004D01*
X74954497Y-92246683D01*
X74926720Y-92192166D01*
X74925501Y-92176679D01*
X74925501Y-91125586D01*
X74938764Y-91076086D01*
X74984578Y-90996734D01*
X75025501Y-90844007D01*
X75025501Y-90685893D01*
X74984578Y-90533166D01*
X74905521Y-90396234D01*
X74793717Y-90284430D01*
X74656785Y-90205373D01*
X74504058Y-90164450D01*
X74345944Y-90164450D01*
X74193217Y-90205373D01*
X74056285Y-90284430D01*
X73944481Y-90396234D01*
X73865424Y-90533166D01*
X73824501Y-90685893D01*
X73824501Y-90844007D01*
X73865424Y-90996734D01*
X73911238Y-91076086D01*
X73924501Y-91125586D01*
X73924501Y-92359109D01*
X73924501Y-92490893D01*
X73941786Y-92555401D01*
X73958610Y-92618191D01*
X74024497Y-92732310D01*
X74024498Y-92732311D01*
X74024499Y-92732312D01*
X74024501Y-92732315D01*
X74660901Y-93368715D01*
X75123182Y-93830996D01*
X75150959Y-93885513D01*
X75141388Y-93945945D01*
X75098123Y-93989210D01*
X75053178Y-94000000D01*
X62748822Y-94000000D01*
X62690631Y-93981093D01*
X62678818Y-93971004D01*
X60954497Y-92246683D01*
X60926720Y-92192166D01*
X60925501Y-92176679D01*
X60925501Y-91125586D01*
X60938764Y-91076086D01*
X60984578Y-90996734D01*
X61025501Y-90844007D01*
X61025501Y-90685893D01*
X60984578Y-90533166D01*
X60905521Y-90396234D01*
X60793717Y-90284430D01*
X60656785Y-90205373D01*
X60504058Y-90164450D01*
X60345944Y-90164450D01*
X60193217Y-90205373D01*
X60056285Y-90284430D01*
X59944481Y-90396234D01*
X59865424Y-90533166D01*
X59824501Y-90685893D01*
X59824501Y-90844007D01*
X59865424Y-90996734D01*
X59911238Y-91076086D01*
X59924501Y-91125586D01*
X59924501Y-92359109D01*
X59924501Y-92490893D01*
X59941786Y-92555401D01*
X59958610Y-92618191D01*
X60024497Y-92732310D01*
X60024498Y-92732311D01*
X60024499Y-92732312D01*
X60024501Y-92732315D01*
X60660901Y-93368715D01*
X61123182Y-93830996D01*
X61150959Y-93885513D01*
X61141388Y-93945945D01*
X61098123Y-93989210D01*
X61053178Y-94000000D01*
X54349000Y-94000000D01*
X54290809Y-93981093D01*
X54254845Y-93931593D01*
X54250000Y-93901000D01*
X54250000Y-89839250D01*
X54268907Y-89781059D01*
X54318407Y-89745095D01*
X54379593Y-89745095D01*
X54429093Y-89781059D01*
X54443154Y-89808655D01*
X54480127Y-89922445D01*
X54558768Y-90076788D01*
X54660586Y-90216928D01*
X54783072Y-90339414D01*
X54923212Y-90441232D01*
X55077555Y-90519873D01*
X55077557Y-90519873D01*
X55077558Y-90519874D01*
X55077561Y-90519876D01*
X55242293Y-90573401D01*
X55242297Y-90573402D01*
X55413386Y-90600500D01*
X55413389Y-90600500D01*
X55586614Y-90600500D01*
X55757702Y-90573402D01*
X55757706Y-90573401D01*
X55922438Y-90519876D01*
X55922440Y-90519874D01*
X55922445Y-90519873D01*
X56076788Y-90441232D01*
X56216928Y-90339414D01*
X56339414Y-90216928D01*
X56441232Y-90076788D01*
X56519873Y-89922445D01*
X56519874Y-89922440D01*
X56519876Y-89922438D01*
X56573401Y-89757706D01*
X56573402Y-89757702D01*
X56600500Y-89586614D01*
X56600500Y-89413385D01*
X56573402Y-89242301D01*
X56573402Y-89242299D01*
X56558049Y-89195047D01*
X56558049Y-89195043D01*
X56550218Y-89170943D01*
X62929500Y-89170943D01*
X62929500Y-89329057D01*
X62970423Y-89481784D01*
X63049480Y-89618716D01*
X63161284Y-89730520D01*
X63298216Y-89809577D01*
X63450943Y-89850500D01*
X63450945Y-89850500D01*
X63609055Y-89850500D01*
X63609057Y-89850500D01*
X63761784Y-89809577D01*
X63898716Y-89730520D01*
X64010520Y-89618716D01*
X64089577Y-89481784D01*
X64130500Y-89329057D01*
X64130500Y-89170943D01*
X64399500Y-89170943D01*
X64399500Y-89329057D01*
X64440423Y-89481784D01*
X64519480Y-89618716D01*
X64631284Y-89730520D01*
X64768216Y-89809577D01*
X64920943Y-89850500D01*
X64920945Y-89850500D01*
X65079055Y-89850500D01*
X65079057Y-89850500D01*
X65231784Y-89809577D01*
X65368716Y-89730520D01*
X65480520Y-89618716D01*
X65559577Y-89481784D01*
X65600500Y-89329057D01*
X65600500Y-89170943D01*
X65559577Y-89018216D01*
X65480520Y-88881284D01*
X65368716Y-88769480D01*
X65231784Y-88690423D01*
X65079057Y-88649500D01*
X64920943Y-88649500D01*
X64768216Y-88690423D01*
X64631284Y-88769480D01*
X64519480Y-88881284D01*
X64440423Y-89018216D01*
X64399500Y-89170943D01*
X64130500Y-89170943D01*
X64089577Y-89018216D01*
X64010520Y-88881284D01*
X63898716Y-88769480D01*
X63761784Y-88690423D01*
X63609057Y-88649500D01*
X63450943Y-88649500D01*
X63298216Y-88690423D01*
X63161284Y-88769480D01*
X63049480Y-88881284D01*
X62970423Y-89018216D01*
X62929500Y-89170943D01*
X56550218Y-89170943D01*
X56519876Y-89077561D01*
X56519874Y-89077558D01*
X56519873Y-89077557D01*
X56519873Y-89077555D01*
X56441232Y-88923212D01*
X56339414Y-88783072D01*
X56216928Y-88660586D01*
X56076788Y-88558768D01*
X56076787Y-88558767D01*
X56076785Y-88558766D01*
X55922441Y-88480125D01*
X55922438Y-88480123D01*
X55757706Y-88426598D01*
X55757702Y-88426597D01*
X55586614Y-88399500D01*
X55586611Y-88399500D01*
X55413389Y-88399500D01*
X55413386Y-88399500D01*
X55242297Y-88426597D01*
X55242293Y-88426598D01*
X55077561Y-88480123D01*
X55077558Y-88480125D01*
X54923214Y-88558766D01*
X54783073Y-88660585D01*
X54660585Y-88783073D01*
X54558766Y-88923214D01*
X54480125Y-89077558D01*
X54480123Y-89077561D01*
X54443154Y-89191342D01*
X54407190Y-89240842D01*
X54349000Y-89259749D01*
X54290809Y-89240841D01*
X54254845Y-89191341D01*
X54250000Y-89160749D01*
X54250000Y-82291008D01*
X54268907Y-82232817D01*
X54278996Y-82221004D01*
X56705056Y-79794944D01*
X58949500Y-79794944D01*
X58949500Y-81690055D01*
X58955784Y-81780593D01*
X58955785Y-81780603D01*
X59003103Y-81981784D01*
X59005662Y-81992664D01*
X59093657Y-82191954D01*
X59216774Y-82371682D01*
X59370818Y-82525726D01*
X59550546Y-82648843D01*
X59749836Y-82736838D01*
X59883248Y-82768216D01*
X59961896Y-82786714D01*
X59961897Y-82786714D01*
X59961901Y-82786715D01*
X60018492Y-82790643D01*
X60052445Y-82793000D01*
X60052448Y-82793000D01*
X61947555Y-82793000D01*
X61977734Y-82790905D01*
X62038099Y-82786715D01*
X62250164Y-82736838D01*
X62449454Y-82648843D01*
X62629182Y-82525726D01*
X62783226Y-82371682D01*
X62906343Y-82191954D01*
X62994338Y-81992664D01*
X63044215Y-81780599D01*
X63050500Y-81690052D01*
X63050500Y-79794948D01*
X63044215Y-79704401D01*
X62994338Y-79492336D01*
X62906343Y-79293046D01*
X62783226Y-79113318D01*
X62629182Y-78959274D01*
X62449454Y-78836157D01*
X62250164Y-78748162D01*
X62250158Y-78748160D01*
X62250157Y-78748160D01*
X62038103Y-78698285D01*
X62038093Y-78698284D01*
X61947555Y-78692000D01*
X61947552Y-78692000D01*
X60052448Y-78692000D01*
X60052445Y-78692000D01*
X59961906Y-78698284D01*
X59961896Y-78698285D01*
X59749842Y-78748160D01*
X59749838Y-78748161D01*
X59749836Y-78748162D01*
X59703286Y-78768716D01*
X59550547Y-78836156D01*
X59370819Y-78959273D01*
X59216773Y-79113319D01*
X59093656Y-79293047D01*
X59060466Y-79368216D01*
X59005662Y-79492336D01*
X59005661Y-79492338D01*
X59005660Y-79492342D01*
X58955785Y-79704396D01*
X58955784Y-79704406D01*
X58949500Y-79794944D01*
X56705056Y-79794944D01*
X58378004Y-78121996D01*
X58432521Y-78094219D01*
X58448008Y-78093000D01*
X58801607Y-78093000D01*
X58801608Y-78093000D01*
X58852211Y-78088016D01*
X58955928Y-78077801D01*
X58955934Y-78077800D01*
X59153954Y-78017732D01*
X59336450Y-77920185D01*
X59496410Y-77788910D01*
X59627685Y-77628950D01*
X59725232Y-77446454D01*
X59785300Y-77248434D01*
X59786425Y-77237017D01*
X59800500Y-77094106D01*
X59800500Y-76740508D01*
X59819407Y-76682317D01*
X59829496Y-76670504D01*
X62221004Y-74278996D01*
X62275521Y-74251219D01*
X62291008Y-74250000D01*
X65901000Y-74250000D01*
X65959191Y-74268907D01*
G37*
%TD.AperFunction*%
%TD*%
%TA.AperFunction,Conductor*%
%TO.N,+3.3V*%
G36*
X80197335Y-54519407D02*
G01*
X80233299Y-54568907D01*
X80233299Y-54630093D01*
X80230608Y-54637385D01*
X80210263Y-54686501D01*
X80210263Y-54686503D01*
X80179500Y-54841155D01*
X80179500Y-54998844D01*
X80210263Y-55153496D01*
X80210263Y-55153498D01*
X80270603Y-55299174D01*
X80270609Y-55299185D01*
X80323312Y-55378059D01*
X80358211Y-55430289D01*
X80469711Y-55541789D01*
X80547876Y-55594017D01*
X80600814Y-55629390D01*
X80600825Y-55629396D01*
X80654638Y-55651685D01*
X80746503Y-55689737D01*
X80901158Y-55720500D01*
X80901159Y-55720500D01*
X81058841Y-55720500D01*
X81058842Y-55720500D01*
X81213497Y-55689737D01*
X81359179Y-55629394D01*
X81490289Y-55541789D01*
X81601789Y-55430289D01*
X81689394Y-55299179D01*
X81749737Y-55153497D01*
X81780500Y-54998842D01*
X81780500Y-54841158D01*
X81749737Y-54686503D01*
X81729392Y-54637385D01*
X81724592Y-54576388D01*
X81756561Y-54524219D01*
X81813089Y-54500805D01*
X81820856Y-54500500D01*
X82679144Y-54500500D01*
X82737335Y-54519407D01*
X82773299Y-54568907D01*
X82773299Y-54630093D01*
X82770608Y-54637385D01*
X82750263Y-54686501D01*
X82750263Y-54686503D01*
X82719500Y-54841155D01*
X82719500Y-54998844D01*
X82750263Y-55153496D01*
X82750263Y-55153498D01*
X82810603Y-55299174D01*
X82810609Y-55299185D01*
X82863312Y-55378059D01*
X82898211Y-55430289D01*
X83009711Y-55541789D01*
X83087876Y-55594017D01*
X83140814Y-55629390D01*
X83140825Y-55629396D01*
X83194638Y-55651685D01*
X83286503Y-55689737D01*
X83441158Y-55720500D01*
X83441159Y-55720500D01*
X83598841Y-55720500D01*
X83598842Y-55720500D01*
X83753497Y-55689737D01*
X83899179Y-55629394D01*
X84030289Y-55541789D01*
X84141789Y-55430289D01*
X84214852Y-55320943D01*
X86399500Y-55320943D01*
X86399500Y-55479057D01*
X86440423Y-55631784D01*
X86519480Y-55768716D01*
X86631284Y-55880520D01*
X86768216Y-55959577D01*
X86920943Y-56000500D01*
X86920945Y-56000500D01*
X87079055Y-56000500D01*
X87079057Y-56000500D01*
X87231784Y-55959577D01*
X87368716Y-55880520D01*
X87480520Y-55768716D01*
X87559577Y-55631784D01*
X87600500Y-55479057D01*
X87600500Y-55420943D01*
X91799500Y-55420943D01*
X91799500Y-55579057D01*
X91840423Y-55731784D01*
X91919480Y-55868716D01*
X92031284Y-55980520D01*
X92168216Y-56059577D01*
X92320943Y-56100500D01*
X92320945Y-56100500D01*
X92479055Y-56100500D01*
X92479057Y-56100500D01*
X92631784Y-56059577D01*
X92768716Y-55980520D01*
X92880520Y-55868716D01*
X92959577Y-55731784D01*
X93000500Y-55579057D01*
X93000500Y-55420943D01*
X92959577Y-55268216D01*
X92932284Y-55220943D01*
X100899500Y-55220943D01*
X100899500Y-55379057D01*
X100940423Y-55531784D01*
X101019480Y-55668716D01*
X101131284Y-55780520D01*
X101268216Y-55859577D01*
X101420943Y-55900500D01*
X101420945Y-55900500D01*
X101579055Y-55900500D01*
X101579057Y-55900500D01*
X101731784Y-55859577D01*
X101868716Y-55780520D01*
X101980520Y-55668716D01*
X102059577Y-55531784D01*
X102100500Y-55379057D01*
X102100500Y-55220943D01*
X102059577Y-55068216D01*
X101980520Y-54931284D01*
X101868716Y-54819480D01*
X101731784Y-54740423D01*
X101579057Y-54699500D01*
X101420943Y-54699500D01*
X101268216Y-54740423D01*
X101131284Y-54819480D01*
X101019480Y-54931284D01*
X100940423Y-55068216D01*
X100899500Y-55220943D01*
X92932284Y-55220943D01*
X92880520Y-55131284D01*
X92768716Y-55019480D01*
X92631784Y-54940423D01*
X92479057Y-54899500D01*
X92320943Y-54899500D01*
X92168216Y-54940423D01*
X92031284Y-55019480D01*
X91919480Y-55131284D01*
X91840423Y-55268216D01*
X91799500Y-55420943D01*
X87600500Y-55420943D01*
X87600500Y-55320943D01*
X87559577Y-55168216D01*
X87480520Y-55031284D01*
X87368716Y-54919480D01*
X87231784Y-54840423D01*
X87079057Y-54799500D01*
X86920943Y-54799500D01*
X86768216Y-54840423D01*
X86631284Y-54919480D01*
X86519480Y-55031284D01*
X86440423Y-55168216D01*
X86399500Y-55320943D01*
X84214852Y-55320943D01*
X84229394Y-55299179D01*
X84289737Y-55153497D01*
X84320500Y-54998842D01*
X84320500Y-54841158D01*
X84289737Y-54686503D01*
X84269392Y-54637385D01*
X84264592Y-54576388D01*
X84296561Y-54524219D01*
X84353089Y-54500805D01*
X84360856Y-54500500D01*
X110676184Y-54500500D01*
X110734375Y-54519407D01*
X110770339Y-54568907D01*
X110770339Y-54630093D01*
X110754726Y-54659767D01*
X110666423Y-54774846D01*
X110522196Y-55024653D01*
X110522194Y-55024658D01*
X110411809Y-55291153D01*
X110337150Y-55569785D01*
X110337150Y-55569790D01*
X110299500Y-55855770D01*
X110299500Y-56144229D01*
X110337150Y-56430209D01*
X110337150Y-56430214D01*
X110411809Y-56708846D01*
X110522194Y-56975341D01*
X110522196Y-56975346D01*
X110666423Y-57225153D01*
X110842020Y-57453997D01*
X110842022Y-57453999D01*
X110842026Y-57454004D01*
X111045996Y-57657974D01*
X111046000Y-57657977D01*
X111046002Y-57657979D01*
X111052680Y-57663103D01*
X111274844Y-57833575D01*
X111341031Y-57871788D01*
X111520009Y-57975122D01*
X111524655Y-57977804D01*
X111791155Y-58088191D01*
X112069783Y-58162849D01*
X112355772Y-58200500D01*
X112355773Y-58200500D01*
X112644227Y-58200500D01*
X112644228Y-58200500D01*
X112930217Y-58162849D01*
X113208845Y-58088191D01*
X113475345Y-57977804D01*
X113725156Y-57833575D01*
X113840234Y-57745271D01*
X113897908Y-57724849D01*
X113956574Y-57742226D01*
X113993821Y-57790768D01*
X113999500Y-57823815D01*
X113999500Y-68901000D01*
X113980593Y-68959191D01*
X113931093Y-68995155D01*
X113900500Y-69000000D01*
X112489736Y-69000000D01*
X112431545Y-68981093D01*
X112395581Y-68931593D01*
X112395581Y-68870407D01*
X112431545Y-68820907D01*
X112440226Y-68815268D01*
X112543716Y-68755520D01*
X112655520Y-68643716D01*
X112734577Y-68506784D01*
X112775500Y-68354057D01*
X112775500Y-68195943D01*
X112734577Y-68043216D01*
X112655520Y-67906284D01*
X112543716Y-67794480D01*
X112406784Y-67715423D01*
X112254057Y-67674500D01*
X112095943Y-67674500D01*
X111943216Y-67715423D01*
X111806284Y-67794480D01*
X111694480Y-67906284D01*
X111615423Y-68043216D01*
X111576249Y-68189418D01*
X111574500Y-68195944D01*
X111574500Y-68268099D01*
X111555593Y-68326290D01*
X111545504Y-68338103D01*
X111070025Y-68813582D01*
X111049369Y-68824106D01*
X111030614Y-68837733D01*
X111022625Y-68837733D01*
X111015508Y-68841359D01*
X110992613Y-68837733D01*
X110969428Y-68837733D01*
X110962965Y-68833037D01*
X110955076Y-68831788D01*
X110938684Y-68815396D01*
X110919928Y-68801769D01*
X110917459Y-68794171D01*
X110911811Y-68788523D01*
X110901021Y-68743578D01*
X110901021Y-68656570D01*
X110914286Y-68607068D01*
X110924185Y-68589922D01*
X110924184Y-68589922D01*
X110924187Y-68589919D01*
X110951480Y-68488058D01*
X110951480Y-68382604D01*
X110951480Y-66380054D01*
X110924187Y-66278194D01*
X110924187Y-66278193D01*
X110924187Y-66278192D01*
X110871463Y-66186872D01*
X110871461Y-66186870D01*
X110871460Y-66186868D01*
X110809607Y-66125015D01*
X110781832Y-66070501D01*
X110791403Y-66010069D01*
X110834668Y-65966804D01*
X110872729Y-65957666D01*
X110872623Y-65956861D01*
X110879054Y-65956014D01*
X110879057Y-65956014D01*
X111031784Y-65915091D01*
X111168716Y-65836034D01*
X111280520Y-65724230D01*
X111359577Y-65587298D01*
X111400500Y-65434571D01*
X111400500Y-65276457D01*
X111359577Y-65123730D01*
X111280520Y-64986798D01*
X111280517Y-64986795D01*
X111229496Y-64935773D01*
X111201719Y-64881256D01*
X111200500Y-64865770D01*
X111200500Y-63670714D01*
X111200501Y-63670701D01*
X111200501Y-63557272D01*
X111200500Y-63557270D01*
X111173207Y-63455414D01*
X111173207Y-63455413D01*
X111138614Y-63395496D01*
X111120480Y-63364087D01*
X111045913Y-63289520D01*
X111045910Y-63289518D01*
X110130382Y-62373990D01*
X109149496Y-61393103D01*
X109121719Y-61338586D01*
X109120500Y-61323099D01*
X109120500Y-60501159D01*
X109120499Y-60501155D01*
X109110423Y-60450500D01*
X109089737Y-60346503D01*
X109061982Y-60279496D01*
X109029396Y-60200825D01*
X109029390Y-60200814D01*
X108989037Y-60140423D01*
X108941789Y-60069711D01*
X108830289Y-59958211D01*
X108744465Y-59900865D01*
X108699185Y-59870609D01*
X108699174Y-59870603D01*
X108553497Y-59810263D01*
X108398844Y-59779500D01*
X108398842Y-59779500D01*
X108241158Y-59779500D01*
X108241155Y-59779500D01*
X108086503Y-59810263D01*
X108086501Y-59810263D01*
X107940825Y-59870603D01*
X107940814Y-59870609D01*
X107809711Y-59958211D01*
X107809707Y-59958214D01*
X107698214Y-60069707D01*
X107698211Y-60069711D01*
X107610609Y-60200814D01*
X107610605Y-60200822D01*
X107567731Y-60304330D01*
X107527994Y-60350855D01*
X107468499Y-60365139D01*
X107411972Y-60341724D01*
X107390531Y-60315945D01*
X107350515Y-60246635D01*
X107243365Y-60139485D01*
X107243362Y-60139483D01*
X107243360Y-60139481D01*
X107112138Y-60063720D01*
X107112140Y-60063720D01*
X107055347Y-60048503D01*
X106965766Y-60024500D01*
X106814234Y-60024500D01*
X106724652Y-60048503D01*
X106667860Y-60063720D01*
X106536639Y-60139481D01*
X106429481Y-60246639D01*
X106353720Y-60377860D01*
X106345222Y-60409576D01*
X106314500Y-60524234D01*
X106314500Y-60675766D01*
X106349086Y-60804847D01*
X106353720Y-60822139D01*
X106429481Y-60953360D01*
X106429483Y-60953362D01*
X106429485Y-60953365D01*
X106536635Y-61060515D01*
X106536637Y-61060516D01*
X106536639Y-61060518D01*
X106667861Y-61136279D01*
X106667859Y-61136279D01*
X106667863Y-61136280D01*
X106667865Y-61136281D01*
X106814234Y-61175500D01*
X106814236Y-61175500D01*
X106965764Y-61175500D01*
X106965766Y-61175500D01*
X107112135Y-61136281D01*
X107112137Y-61136279D01*
X107112139Y-61136279D01*
X107243360Y-61060518D01*
X107243360Y-61060517D01*
X107243365Y-61060515D01*
X107350498Y-60953381D01*
X107405013Y-60925606D01*
X107465445Y-60935177D01*
X107508710Y-60978442D01*
X107519500Y-61023387D01*
X107519500Y-61758844D01*
X107550263Y-61913496D01*
X107550263Y-61913498D01*
X107610603Y-62059174D01*
X107610609Y-62059185D01*
X107663312Y-62138059D01*
X107698211Y-62190289D01*
X107809711Y-62301789D01*
X107865928Y-62339352D01*
X107940814Y-62389390D01*
X107940825Y-62389396D01*
X107973307Y-62402850D01*
X108086503Y-62449737D01*
X108241158Y-62480500D01*
X108241159Y-62480500D01*
X108398841Y-62480500D01*
X108398842Y-62480500D01*
X108553497Y-62449737D01*
X108699179Y-62389394D01*
X108819748Y-62308832D01*
X108878632Y-62292224D01*
X108936036Y-62313401D01*
X108944751Y-62321144D01*
X110370504Y-63746896D01*
X110398281Y-63801413D01*
X110399500Y-63816900D01*
X110399500Y-64865770D01*
X110380593Y-64923961D01*
X110370504Y-64935773D01*
X110319482Y-64986795D01*
X110240423Y-65123730D01*
X110199499Y-65276459D01*
X110198653Y-65282891D01*
X110197286Y-65282711D01*
X110180593Y-65334091D01*
X110131093Y-65370055D01*
X110069907Y-65370055D01*
X110030496Y-65345904D01*
X104891164Y-60206572D01*
X104863387Y-60152055D01*
X104865540Y-60110950D01*
X104901021Y-59978536D01*
X104901021Y-59820422D01*
X104887661Y-59770562D01*
X104890863Y-59709463D01*
X104929369Y-59661913D01*
X104933763Y-59659218D01*
X105066859Y-59582377D01*
X105178663Y-59470573D01*
X105257720Y-59333641D01*
X105298643Y-59180914D01*
X105298643Y-59108757D01*
X105317550Y-59050566D01*
X105327633Y-59038759D01*
X106320480Y-58045913D01*
X106336372Y-58018387D01*
X106373205Y-57954592D01*
X106373205Y-57954590D01*
X106373207Y-57954588D01*
X106400500Y-57852727D01*
X106400500Y-57747273D01*
X106400500Y-56689743D01*
X106402557Y-56683411D01*
X106401341Y-56676868D01*
X106411150Y-56656964D01*
X106419407Y-56631552D01*
X106427656Y-56621630D01*
X106428568Y-56620667D01*
X106480520Y-56568716D01*
X106484722Y-56561437D01*
X106492765Y-56552954D01*
X106509859Y-56543661D01*
X106524315Y-56530638D01*
X106536104Y-56529395D01*
X106546521Y-56523733D01*
X106565813Y-56526263D01*
X106585163Y-56524224D01*
X106596286Y-56530261D01*
X106607187Y-56531691D01*
X106618256Y-56542185D01*
X106634613Y-56551063D01*
X107089504Y-57005954D01*
X107117281Y-57060471D01*
X107118500Y-57075958D01*
X107118500Y-57529058D01*
X107118500Y-57634512D01*
X107124788Y-57657979D01*
X107145794Y-57736377D01*
X107198516Y-57827693D01*
X107198517Y-57827694D01*
X107198518Y-57827695D01*
X107198520Y-57827698D01*
X108370322Y-58999500D01*
X109466734Y-60095912D01*
X109466735Y-60095913D01*
X109466734Y-60095913D01*
X109510303Y-60139481D01*
X109541302Y-60170480D01*
X109632628Y-60223207D01*
X109734488Y-60250500D01*
X109839942Y-60250500D01*
X110020758Y-60250500D01*
X110078949Y-60269407D01*
X110090761Y-60279496D01*
X110116785Y-60305519D01*
X110141786Y-60330520D01*
X110278718Y-60409577D01*
X110431445Y-60450500D01*
X110431447Y-60450500D01*
X110589557Y-60450500D01*
X110589559Y-60450500D01*
X110742286Y-60409577D01*
X110879218Y-60330520D01*
X110991022Y-60218716D01*
X110991827Y-60217320D01*
X110992687Y-60216546D01*
X110994971Y-60213570D01*
X110995522Y-60213992D01*
X111037288Y-60176376D01*
X111098138Y-60169972D01*
X111147569Y-60196805D01*
X111256284Y-60305520D01*
X111393216Y-60384577D01*
X111545943Y-60425500D01*
X111545945Y-60425500D01*
X111704055Y-60425500D01*
X111704057Y-60425500D01*
X111856784Y-60384577D01*
X111993716Y-60305520D01*
X112105520Y-60193716D01*
X112184577Y-60056784D01*
X112225500Y-59904057D01*
X112225500Y-59745943D01*
X112184577Y-59593216D01*
X112105520Y-59456284D01*
X111993716Y-59344480D01*
X111856784Y-59265423D01*
X111768605Y-59241795D01*
X111704054Y-59224499D01*
X111697623Y-59223653D01*
X111697896Y-59221574D01*
X111648709Y-59205593D01*
X111636896Y-59195504D01*
X109550496Y-57109103D01*
X109522719Y-57054586D01*
X109521500Y-57039099D01*
X109521500Y-56265489D01*
X109521500Y-56265488D01*
X109509258Y-56219799D01*
X109494207Y-56163627D01*
X109494205Y-56163624D01*
X109494205Y-56163622D01*
X109441483Y-56072306D01*
X109441481Y-56072304D01*
X109441480Y-56072302D01*
X108897698Y-55528520D01*
X108897695Y-55528518D01*
X108897693Y-55528516D01*
X108806376Y-55475794D01*
X108806378Y-55475794D01*
X108766855Y-55465204D01*
X108704512Y-55448500D01*
X107935488Y-55448500D01*
X107930900Y-55448500D01*
X107872709Y-55429593D01*
X107860896Y-55419504D01*
X107640892Y-55199500D01*
X107345913Y-54904520D01*
X107345910Y-54904518D01*
X107345908Y-54904516D01*
X107254591Y-54851794D01*
X107254593Y-54851794D01*
X107212154Y-54840423D01*
X107152727Y-54824500D01*
X107152725Y-54824500D01*
X106581571Y-54824500D01*
X106555949Y-54821127D01*
X106530273Y-54814247D01*
X106467770Y-54797500D01*
X105287627Y-54797500D01*
X105182173Y-54797500D01*
X105119669Y-54814247D01*
X105093994Y-54821127D01*
X105068372Y-54824500D01*
X104802727Y-54824500D01*
X104697273Y-54824500D01*
X104595413Y-54851793D01*
X104595412Y-54851793D01*
X104595410Y-54851794D01*
X104595409Y-54851794D01*
X104504089Y-54904518D01*
X104429518Y-54979089D01*
X104376794Y-55070409D01*
X104376794Y-55070410D01*
X104349500Y-55172274D01*
X104349500Y-55443099D01*
X104330593Y-55501290D01*
X104320504Y-55513103D01*
X101879516Y-57954091D01*
X101826793Y-58045411D01*
X101826792Y-58045411D01*
X101826793Y-58045412D01*
X101799500Y-58147273D01*
X101799500Y-59023515D01*
X101780593Y-59081706D01*
X101731093Y-59117670D01*
X101669907Y-59117670D01*
X101651001Y-59109252D01*
X101531785Y-59040423D01*
X101468682Y-59023515D01*
X101379057Y-58999500D01*
X101220943Y-58999500D01*
X101068216Y-59040423D01*
X100931284Y-59119480D01*
X100819480Y-59231284D01*
X100740423Y-59368216D01*
X100699500Y-59520943D01*
X100699500Y-59679057D01*
X100740423Y-59831784D01*
X100819480Y-59968716D01*
X100819483Y-59968719D01*
X100822271Y-59972352D01*
X100842695Y-60030028D01*
X100825318Y-60088694D01*
X100793230Y-60118356D01*
X100756637Y-60139483D01*
X100649483Y-60246637D01*
X100609468Y-60315945D01*
X100563998Y-60356885D01*
X100503148Y-60363280D01*
X100450160Y-60332687D01*
X100432268Y-60304329D01*
X100389396Y-60200825D01*
X100389390Y-60200814D01*
X100349037Y-60140423D01*
X100301789Y-60069711D01*
X100190289Y-59958211D01*
X100124496Y-59914249D01*
X100086619Y-59866199D01*
X100080500Y-59831935D01*
X100080500Y-57998064D01*
X100099407Y-57939873D01*
X100124499Y-57915748D01*
X100190289Y-57871789D01*
X100301789Y-57760289D01*
X100389394Y-57629179D01*
X100449737Y-57483497D01*
X100480500Y-57328842D01*
X100480500Y-56571158D01*
X100449737Y-56416503D01*
X100406387Y-56311845D01*
X100389396Y-56270825D01*
X100389390Y-56270814D01*
X100353481Y-56217074D01*
X100301789Y-56139711D01*
X100190289Y-56028211D01*
X100138059Y-55993312D01*
X100059185Y-55940609D01*
X100059174Y-55940603D01*
X99913497Y-55880263D01*
X99758844Y-55849500D01*
X99758842Y-55849500D01*
X99601158Y-55849500D01*
X99601155Y-55849500D01*
X99446503Y-55880263D01*
X99446501Y-55880263D01*
X99300825Y-55940603D01*
X99300814Y-55940609D01*
X99169711Y-56028211D01*
X99169707Y-56028214D01*
X99058214Y-56139707D01*
X99058211Y-56139711D01*
X98970609Y-56270814D01*
X98970603Y-56270825D01*
X98910263Y-56416501D01*
X98910263Y-56416503D01*
X98879500Y-56571155D01*
X98879500Y-57328844D01*
X98883664Y-57349778D01*
X98904396Y-57454004D01*
X98910263Y-57483496D01*
X98910263Y-57483498D01*
X98970603Y-57629174D01*
X98970609Y-57629185D01*
X98993273Y-57663103D01*
X99058211Y-57760289D01*
X99058214Y-57760292D01*
X99058218Y-57760297D01*
X99169711Y-57871789D01*
X99235501Y-57915748D01*
X99273381Y-57963798D01*
X99279500Y-57998064D01*
X99279500Y-59831935D01*
X99260593Y-59890126D01*
X99235503Y-59914250D01*
X99169707Y-59958214D01*
X99058214Y-60069707D01*
X99058211Y-60069711D01*
X98970609Y-60200814D01*
X98970603Y-60200825D01*
X98910263Y-60346501D01*
X98910263Y-60346503D01*
X98879500Y-60501155D01*
X98879500Y-61758844D01*
X98910263Y-61913496D01*
X98910263Y-61913498D01*
X98970603Y-62059174D01*
X98970609Y-62059185D01*
X99023312Y-62138059D01*
X99058211Y-62190289D01*
X99169711Y-62301789D01*
X99225928Y-62339352D01*
X99300814Y-62389390D01*
X99300825Y-62389396D01*
X99333307Y-62402850D01*
X99446503Y-62449737D01*
X99601158Y-62480500D01*
X99601159Y-62480500D01*
X99758841Y-62480500D01*
X99758842Y-62480500D01*
X99913497Y-62449737D01*
X100059179Y-62389394D01*
X100190289Y-62301789D01*
X100301789Y-62190289D01*
X100389394Y-62059179D01*
X100449737Y-61913497D01*
X100480500Y-61758842D01*
X100480500Y-61023387D01*
X100499407Y-60965196D01*
X100548907Y-60929232D01*
X100610093Y-60929232D01*
X100649501Y-60953381D01*
X100756635Y-61060515D01*
X100756637Y-61060516D01*
X100756639Y-61060518D01*
X100887861Y-61136279D01*
X100887859Y-61136279D01*
X100887863Y-61136280D01*
X100887865Y-61136281D01*
X101034234Y-61175500D01*
X101034236Y-61175500D01*
X101185764Y-61175500D01*
X101185766Y-61175500D01*
X101332135Y-61136281D01*
X101332137Y-61136279D01*
X101332139Y-61136279D01*
X101463360Y-61060518D01*
X101463360Y-61060517D01*
X101463365Y-61060515D01*
X101570515Y-60953365D01*
X101582975Y-60931784D01*
X101614764Y-60876725D01*
X101660233Y-60835784D01*
X101721083Y-60829388D01*
X101774071Y-60859981D01*
X101798958Y-60915877D01*
X101799500Y-60926225D01*
X101799500Y-62710256D01*
X101780593Y-62768447D01*
X101779764Y-62769570D01*
X101775512Y-62775251D01*
X101719480Y-62831284D01*
X101671857Y-62913769D01*
X101668325Y-62918490D01*
X101647897Y-62932895D01*
X101629327Y-62949617D01*
X101623287Y-62950251D01*
X101618323Y-62953753D01*
X101593331Y-62953400D01*
X101568477Y-62956013D01*
X101560463Y-62952936D01*
X101557144Y-62952890D01*
X101553776Y-62950370D01*
X101539565Y-62944915D01*
X101531785Y-62940423D01*
X101480875Y-62926782D01*
X101379057Y-62899500D01*
X101220943Y-62899500D01*
X101068216Y-62940423D01*
X100931284Y-63019480D01*
X100819480Y-63131284D01*
X100740423Y-63268216D01*
X100699500Y-63420943D01*
X100699500Y-63579057D01*
X100740423Y-63731784D01*
X100819480Y-63868716D01*
X100931284Y-63980520D01*
X101068216Y-64059577D01*
X101220943Y-64100500D01*
X101220945Y-64100500D01*
X101379055Y-64100500D01*
X101379057Y-64100500D01*
X101531784Y-64059577D01*
X101668716Y-63980520D01*
X101780520Y-63868716D01*
X101825202Y-63791322D01*
X101870670Y-63750382D01*
X101931520Y-63743986D01*
X101960436Y-63755086D01*
X101967201Y-63758991D01*
X101968216Y-63759577D01*
X102120943Y-63800500D01*
X102120945Y-63800500D01*
X102279055Y-63800500D01*
X102279057Y-63800500D01*
X102431784Y-63759577D01*
X102568716Y-63680520D01*
X102680520Y-63568716D01*
X102759577Y-63431784D01*
X102800500Y-63279057D01*
X102800500Y-63120943D01*
X102759577Y-62968216D01*
X102680520Y-62831284D01*
X102668904Y-62819668D01*
X102629496Y-62780259D01*
X102601719Y-62725742D01*
X102600500Y-62710256D01*
X102600500Y-61238943D01*
X102619407Y-61180752D01*
X102668907Y-61144788D01*
X102730093Y-61144788D01*
X102772606Y-61174835D01*
X102773411Y-61174031D01*
X102777997Y-61178617D01*
X102777999Y-61178620D01*
X103743830Y-62144450D01*
X104616194Y-63016814D01*
X104643971Y-63071331D01*
X104634400Y-63131763D01*
X104631436Y-63136472D01*
X104631695Y-63136622D01*
X104628452Y-63142238D01*
X104628450Y-63142241D01*
X104549393Y-63279173D01*
X104508470Y-63431900D01*
X104508470Y-63590014D01*
X104549393Y-63742741D01*
X104628450Y-63879673D01*
X104740254Y-63991477D01*
X104877186Y-64070534D01*
X105029913Y-64111457D01*
X105029915Y-64111457D01*
X105188025Y-64111457D01*
X105188027Y-64111457D01*
X105340754Y-64070534D01*
X105477686Y-63991477D01*
X105589490Y-63879673D01*
X105668547Y-63742741D01*
X105709470Y-63590014D01*
X105709470Y-63431900D01*
X105668547Y-63279173D01*
X105589490Y-63142241D01*
X105568192Y-63120943D01*
X105538466Y-63091216D01*
X105534840Y-63084099D01*
X105528377Y-63079404D01*
X105521212Y-63057352D01*
X105510689Y-63036699D01*
X105509470Y-63021213D01*
X105509470Y-63003912D01*
X105509471Y-63003899D01*
X105509471Y-62890470D01*
X105509470Y-62890468D01*
X105508676Y-62887506D01*
X105496605Y-62842455D01*
X105499806Y-62781354D01*
X105538311Y-62733803D01*
X105597411Y-62717967D01*
X105654533Y-62739893D01*
X105662235Y-62746827D01*
X109671504Y-66756096D01*
X109699281Y-66810613D01*
X109700500Y-66826100D01*
X109700500Y-68078147D01*
X109687236Y-68127648D01*
X109677312Y-68144835D01*
X109665366Y-68189416D01*
X109665367Y-68189417D01*
X109650020Y-68246695D01*
X109650020Y-68901000D01*
X109631113Y-68959191D01*
X109581613Y-68995155D01*
X109551020Y-69000000D01*
X104219497Y-69000000D01*
X104161306Y-68981093D01*
X104125342Y-68931593D01*
X104125342Y-68870407D01*
X104133760Y-68851501D01*
X104154605Y-68815396D01*
X104159577Y-68806784D01*
X104200500Y-68654057D01*
X104200500Y-68495943D01*
X104159577Y-68343216D01*
X104080520Y-68206284D01*
X103968716Y-68094480D01*
X103963404Y-68091413D01*
X103843147Y-68021982D01*
X103822643Y-68006250D01*
X97724567Y-61908174D01*
X97701979Y-61873209D01*
X97700227Y-61868579D01*
X97674207Y-61771470D01*
X97674207Y-61771469D01*
X97647089Y-61724500D01*
X97621480Y-61680144D01*
X97596927Y-61655591D01*
X97546913Y-61605576D01*
X97546913Y-61605577D01*
X97546911Y-61605575D01*
X97546911Y-61605574D01*
X97194856Y-61253520D01*
X97194851Y-61253516D01*
X97103534Y-61200794D01*
X97103536Y-61200794D01*
X97011206Y-61176055D01*
X96966825Y-61150432D01*
X96704496Y-60888103D01*
X96700869Y-60880985D01*
X96694407Y-60876290D01*
X96687243Y-60854241D01*
X96676719Y-60833586D01*
X96675500Y-60818099D01*
X96675500Y-60764743D01*
X96694407Y-60706552D01*
X96704490Y-60694745D01*
X96755520Y-60643716D01*
X96834577Y-60506784D01*
X96875500Y-60354057D01*
X96875500Y-60195943D01*
X96834577Y-60043216D01*
X96755520Y-59906284D01*
X96643716Y-59794480D01*
X96506784Y-59715423D01*
X96354057Y-59674500D01*
X96195943Y-59674500D01*
X96043216Y-59715423D01*
X95906284Y-59794480D01*
X95794480Y-59906284D01*
X95715423Y-60043216D01*
X95674500Y-60195943D01*
X95674500Y-60354057D01*
X95715423Y-60506784D01*
X95794480Y-60643716D01*
X95845505Y-60694741D01*
X95873281Y-60749256D01*
X95874500Y-60764743D01*
X95874500Y-60972273D01*
X95874500Y-61077727D01*
X95885668Y-61119407D01*
X95901794Y-61179592D01*
X95954516Y-61270908D01*
X95954518Y-61270910D01*
X95954520Y-61270913D01*
X96284683Y-61601076D01*
X96312459Y-61655591D01*
X96302888Y-61716023D01*
X96284682Y-61741081D01*
X96219482Y-61806281D01*
X96140423Y-61943216D01*
X96099500Y-62095944D01*
X96099500Y-62254056D01*
X96106013Y-62278364D01*
X96102810Y-62339465D01*
X96064305Y-62387015D01*
X96005204Y-62402850D01*
X95948083Y-62380923D01*
X95940392Y-62373999D01*
X95845913Y-62279520D01*
X95845910Y-62279518D01*
X95845908Y-62279516D01*
X95754591Y-62226794D01*
X95754593Y-62226794D01*
X95715070Y-62216204D01*
X95652727Y-62199500D01*
X95652725Y-62199500D01*
X95257747Y-62199500D01*
X95199556Y-62180593D01*
X95172010Y-62150000D01*
X95140801Y-62095944D01*
X95114098Y-62049692D01*
X95002294Y-61937888D01*
X94865362Y-61858831D01*
X94712635Y-61817908D01*
X94554521Y-61817908D01*
X94401794Y-61858831D01*
X94264862Y-61937888D01*
X94153058Y-62049692D01*
X94074001Y-62186624D01*
X94033078Y-62339351D01*
X94033078Y-62497465D01*
X94074001Y-62650192D01*
X94153058Y-62787124D01*
X94264862Y-62898928D01*
X94401794Y-62977985D01*
X94554521Y-63018908D01*
X94554523Y-63018908D01*
X94712633Y-63018908D01*
X94712635Y-63018908D01*
X94768747Y-63003872D01*
X94794369Y-63000500D01*
X95393099Y-63000500D01*
X95451290Y-63019407D01*
X95463103Y-63029496D01*
X99464103Y-67030496D01*
X99491880Y-67085013D01*
X99482309Y-67145445D01*
X99439044Y-67188710D01*
X99394099Y-67199500D01*
X94752727Y-67199500D01*
X94647273Y-67199500D01*
X94557440Y-67223570D01*
X94545408Y-67226794D01*
X94506995Y-67248972D01*
X94506990Y-67248975D01*
X94499750Y-67253156D01*
X94454087Y-67279520D01*
X94379520Y-67354087D01*
X94379518Y-67354089D01*
X94376256Y-67357350D01*
X94376251Y-67357355D01*
X94263105Y-67470503D01*
X94208588Y-67498281D01*
X94193101Y-67499500D01*
X94120943Y-67499500D01*
X93968216Y-67540423D01*
X93831284Y-67619480D01*
X93719480Y-67731284D01*
X93640423Y-67868216D01*
X93599500Y-68020943D01*
X93599500Y-68179057D01*
X93640423Y-68331784D01*
X93719480Y-68468716D01*
X93831284Y-68580520D01*
X93968216Y-68659577D01*
X94120943Y-68700500D01*
X94120945Y-68700500D01*
X94279055Y-68700500D01*
X94279057Y-68700500D01*
X94431784Y-68659577D01*
X94568716Y-68580520D01*
X94680520Y-68468716D01*
X94759577Y-68331784D01*
X94800500Y-68179057D01*
X94800500Y-68106900D01*
X94802968Y-68099302D01*
X94801719Y-68091413D01*
X94812243Y-68070757D01*
X94819407Y-68048709D01*
X94829496Y-68036896D01*
X94836896Y-68029496D01*
X94891413Y-68001719D01*
X94906900Y-68000500D01*
X96502753Y-68000500D01*
X96560944Y-68019407D01*
X96596908Y-68068907D01*
X96598096Y-68114212D01*
X96600347Y-68114509D01*
X96599500Y-68120942D01*
X96599500Y-68120943D01*
X96599500Y-68279057D01*
X96640423Y-68431784D01*
X96719480Y-68568716D01*
X96831284Y-68680520D01*
X96968216Y-68759577D01*
X97120943Y-68800500D01*
X97120945Y-68800500D01*
X97279055Y-68800500D01*
X97279057Y-68800500D01*
X97431784Y-68759577D01*
X97568716Y-68680520D01*
X97605521Y-68643715D01*
X97619741Y-68629496D01*
X97674258Y-68601719D01*
X97689744Y-68600500D01*
X99560199Y-68600500D01*
X99618390Y-68619407D01*
X99630203Y-68629496D01*
X99831703Y-68830996D01*
X99859480Y-68885513D01*
X99849909Y-68945945D01*
X99806644Y-68989210D01*
X99761699Y-69000000D01*
X62041008Y-69000000D01*
X61982817Y-68981093D01*
X61971004Y-68971004D01*
X60528996Y-67528996D01*
X60501219Y-67474479D01*
X60500000Y-67458992D01*
X60500000Y-63880130D01*
X89349500Y-63880130D01*
X89349500Y-65669860D01*
X89349501Y-65669863D01*
X89352414Y-65694990D01*
X89365325Y-65724229D01*
X89397794Y-65797765D01*
X89477235Y-65877206D01*
X89580009Y-65922585D01*
X89605135Y-65925500D01*
X91394864Y-65925499D01*
X91419991Y-65922585D01*
X91522765Y-65877206D01*
X91602206Y-65797765D01*
X91647585Y-65694991D01*
X91650500Y-65669865D01*
X91650499Y-63880136D01*
X91647585Y-63855009D01*
X91602206Y-63752235D01*
X91522765Y-63672794D01*
X91419991Y-63627415D01*
X91419990Y-63627414D01*
X91419988Y-63627414D01*
X91394868Y-63624500D01*
X89605139Y-63624500D01*
X89605136Y-63624501D01*
X89580009Y-63627414D01*
X89477235Y-63672794D01*
X89397794Y-63752235D01*
X89352414Y-63855011D01*
X89349500Y-63880130D01*
X60500000Y-63880130D01*
X60500000Y-62144450D01*
X89349500Y-62144450D01*
X89349500Y-62325549D01*
X89377828Y-62504406D01*
X89433788Y-62676637D01*
X89512583Y-62831281D01*
X89516004Y-62837994D01*
X89622447Y-62984501D01*
X89750499Y-63112553D01*
X89897006Y-63218996D01*
X90058361Y-63301211D01*
X90230591Y-63357171D01*
X90302136Y-63368502D01*
X90409451Y-63385500D01*
X90409454Y-63385500D01*
X90590549Y-63385500D01*
X90679977Y-63371335D01*
X90769409Y-63357171D01*
X90941639Y-63301211D01*
X91102994Y-63218996D01*
X91249501Y-63112553D01*
X91377553Y-62984501D01*
X91483996Y-62837994D01*
X91566211Y-62676639D01*
X91622171Y-62504409D01*
X91642827Y-62373990D01*
X91650500Y-62325549D01*
X91650500Y-62144450D01*
X91622171Y-61965593D01*
X91622171Y-61965591D01*
X91566211Y-61793361D01*
X91483996Y-61632006D01*
X91377553Y-61485499D01*
X91249501Y-61357447D01*
X91102994Y-61251004D01*
X91102993Y-61251003D01*
X91102991Y-61251002D01*
X90941637Y-61168788D01*
X90769406Y-61112828D01*
X90590549Y-61084500D01*
X90590546Y-61084500D01*
X90409454Y-61084500D01*
X90409451Y-61084500D01*
X90230593Y-61112828D01*
X90058362Y-61168788D01*
X89897008Y-61251002D01*
X89869610Y-61270908D01*
X89750499Y-61357447D01*
X89622447Y-61485499D01*
X89569225Y-61558752D01*
X89516002Y-61632008D01*
X89433788Y-61793362D01*
X89377828Y-61965593D01*
X89349500Y-62144450D01*
X60500000Y-62144450D01*
X60500000Y-60620943D01*
X80379500Y-60620943D01*
X80379500Y-60779057D01*
X80420423Y-60931784D01*
X80499480Y-61068716D01*
X80611284Y-61180520D01*
X80748216Y-61259577D01*
X80900943Y-61300500D01*
X80900945Y-61300500D01*
X81059055Y-61300500D01*
X81059057Y-61300500D01*
X81211784Y-61259577D01*
X81348716Y-61180520D01*
X81384448Y-61144788D01*
X81399741Y-61129496D01*
X81454258Y-61101719D01*
X81469744Y-61100500D01*
X86036194Y-61100500D01*
X86094385Y-61119407D01*
X86121929Y-61149998D01*
X86127063Y-61158890D01*
X86238867Y-61270694D01*
X86375799Y-61349751D01*
X86528526Y-61390674D01*
X86528528Y-61390674D01*
X86686638Y-61390674D01*
X86686640Y-61390674D01*
X86839367Y-61349751D01*
X86976299Y-61270694D01*
X87088103Y-61158890D01*
X87167160Y-61021958D01*
X87208083Y-60869231D01*
X87208083Y-60711117D01*
X87167160Y-60558390D01*
X87088103Y-60421458D01*
X86976299Y-60309654D01*
X86839367Y-60230597D01*
X86686640Y-60189674D01*
X86528526Y-60189674D01*
X86465462Y-60206572D01*
X86375797Y-60230597D01*
X86279426Y-60286237D01*
X86229927Y-60299500D01*
X81469744Y-60299500D01*
X81411553Y-60280593D01*
X81399741Y-60270504D01*
X81348718Y-60219482D01*
X81348716Y-60219480D01*
X81211784Y-60140423D01*
X81059057Y-60099500D01*
X80900943Y-60099500D01*
X80748216Y-60140423D01*
X80611284Y-60219480D01*
X80499480Y-60331284D01*
X80420423Y-60468216D01*
X80379500Y-60620943D01*
X60500000Y-60620943D01*
X60500000Y-60371008D01*
X60518907Y-60312817D01*
X60528996Y-60301004D01*
X63480226Y-57349774D01*
X79579500Y-57349774D01*
X79579500Y-57570225D01*
X79613984Y-57787948D01*
X79682102Y-57997599D01*
X79682104Y-57997602D01*
X79682105Y-57997606D01*
X79723486Y-58078819D01*
X79764633Y-58159576D01*
X79782185Y-58194022D01*
X79911758Y-58372365D01*
X80067635Y-58528242D01*
X80245978Y-58657815D01*
X80442394Y-58757895D01*
X80652049Y-58826015D01*
X80739140Y-58839809D01*
X80869775Y-58860500D01*
X80869778Y-58860500D01*
X81090225Y-58860500D01*
X81199086Y-58843257D01*
X81307951Y-58826015D01*
X81517606Y-58757895D01*
X81714022Y-58657815D01*
X81892365Y-58528242D01*
X81980667Y-58439939D01*
X82035181Y-58412163D01*
X82095614Y-58421734D01*
X82138878Y-58464998D01*
X82142758Y-58473605D01*
X82185639Y-58582343D01*
X82185640Y-58582345D01*
X82185641Y-58582346D01*
X82267203Y-58689903D01*
X82277077Y-58702923D01*
X82397657Y-58794361D01*
X82538435Y-58849877D01*
X82626897Y-58860500D01*
X84413102Y-58860499D01*
X84501565Y-58849877D01*
X84642343Y-58794361D01*
X84762923Y-58702923D01*
X84854361Y-58582343D01*
X84909877Y-58441565D01*
X84920500Y-58353103D01*
X84920499Y-57520943D01*
X85899500Y-57520943D01*
X85899500Y-57679057D01*
X85940423Y-57831784D01*
X86019480Y-57968716D01*
X86131284Y-58080520D01*
X86268216Y-58159577D01*
X86420943Y-58200500D01*
X86420945Y-58200500D01*
X86579055Y-58200500D01*
X86579057Y-58200500D01*
X86731784Y-58159577D01*
X86868716Y-58080520D01*
X86980520Y-57968716D01*
X87059577Y-57831784D01*
X87100500Y-57679057D01*
X87100500Y-57520943D01*
X87059577Y-57368216D01*
X86980520Y-57231284D01*
X86868716Y-57119480D01*
X86731784Y-57040423D01*
X86579057Y-56999500D01*
X86420943Y-56999500D01*
X86268216Y-57040423D01*
X86131284Y-57119480D01*
X86019480Y-57231284D01*
X85940423Y-57368216D01*
X85899500Y-57520943D01*
X84920499Y-57520943D01*
X84920499Y-57454004D01*
X84920499Y-56566901D01*
X84920498Y-56566891D01*
X84909877Y-56478435D01*
X84902541Y-56459833D01*
X84879143Y-56400500D01*
X84854361Y-56337657D01*
X84762923Y-56217077D01*
X84642343Y-56125639D01*
X84501566Y-56070123D01*
X84413104Y-56059500D01*
X82626901Y-56059500D01*
X82626891Y-56059501D01*
X82538435Y-56070123D01*
X82538429Y-56070124D01*
X82397656Y-56125639D01*
X82277080Y-56217074D01*
X82277074Y-56217080D01*
X82185639Y-56337656D01*
X82142766Y-56446374D01*
X82103830Y-56493571D01*
X82044587Y-56508868D01*
X81987668Y-56486422D01*
X81980675Y-56480068D01*
X81892365Y-56391758D01*
X81714022Y-56262185D01*
X81714021Y-56262184D01*
X81714019Y-56262183D01*
X81624825Y-56216736D01*
X81517606Y-56162105D01*
X81517602Y-56162104D01*
X81517599Y-56162102D01*
X81307948Y-56093984D01*
X81090225Y-56059500D01*
X81090222Y-56059500D01*
X80869778Y-56059500D01*
X80869775Y-56059500D01*
X80652051Y-56093984D01*
X80442400Y-56162102D01*
X80245980Y-56262183D01*
X80202685Y-56293639D01*
X80067635Y-56391758D01*
X79911758Y-56547635D01*
X79897763Y-56566898D01*
X79782183Y-56725980D01*
X79682102Y-56922400D01*
X79613984Y-57132051D01*
X79579500Y-57349774D01*
X63480226Y-57349774D01*
X65109057Y-55720943D01*
X78399500Y-55720943D01*
X78399500Y-55879057D01*
X78440423Y-56031784D01*
X78519480Y-56168716D01*
X78631284Y-56280520D01*
X78768216Y-56359577D01*
X78920943Y-56400500D01*
X78920945Y-56400500D01*
X79079055Y-56400500D01*
X79079057Y-56400500D01*
X79231784Y-56359577D01*
X79368716Y-56280520D01*
X79480520Y-56168716D01*
X79559577Y-56031784D01*
X79600500Y-55879057D01*
X79600500Y-55720943D01*
X79559577Y-55568216D01*
X79480520Y-55431284D01*
X79368716Y-55319480D01*
X79231784Y-55240423D01*
X79079057Y-55199500D01*
X78920943Y-55199500D01*
X78768216Y-55240423D01*
X78631284Y-55319480D01*
X78519480Y-55431284D01*
X78440423Y-55568216D01*
X78399500Y-55720943D01*
X65109057Y-55720943D01*
X66300504Y-54529496D01*
X66355021Y-54501719D01*
X66370508Y-54500500D01*
X80139144Y-54500500D01*
X80197335Y-54519407D01*
G37*
%TD.AperFunction*%
%TD*%
%TA.AperFunction,Conductor*%
%TO.N,GND*%
G36*
X86884117Y-94102506D02*
G01*
X86916095Y-94123908D01*
X87299498Y-94507311D01*
X87299500Y-94507314D01*
X87392686Y-94600500D01*
X87392688Y-94600501D01*
X87392690Y-94600503D01*
X87506810Y-94666390D01*
X87506808Y-94666390D01*
X87506812Y-94666391D01*
X87506814Y-94666392D01*
X87634107Y-94700500D01*
X87634108Y-94700500D01*
X89951678Y-94700500D01*
X90009869Y-94719407D01*
X90021682Y-94729496D01*
X90886078Y-95593892D01*
X90913855Y-95648409D01*
X90904284Y-95708841D01*
X90861019Y-95752106D01*
X90800587Y-95761677D01*
X90785483Y-95758051D01*
X90769408Y-95752828D01*
X90590549Y-95724500D01*
X90590546Y-95724500D01*
X90409454Y-95724500D01*
X90409451Y-95724500D01*
X90230593Y-95752828D01*
X90058362Y-95808788D01*
X89897008Y-95891002D01*
X89823752Y-95944225D01*
X89750499Y-95997447D01*
X89622447Y-96125499D01*
X89609417Y-96143434D01*
X89516002Y-96272008D01*
X89433788Y-96433362D01*
X89377828Y-96605593D01*
X89349500Y-96784450D01*
X89349500Y-97215549D01*
X89377828Y-97394406D01*
X89433788Y-97566637D01*
X89501460Y-97699451D01*
X89516004Y-97727994D01*
X89599059Y-97842310D01*
X89617966Y-97900500D01*
X89599059Y-97958691D01*
X89549559Y-97994655D01*
X89518966Y-97999500D01*
X88981034Y-97999500D01*
X88922843Y-97980593D01*
X88886879Y-97931093D01*
X88886879Y-97869907D01*
X88900939Y-97842312D01*
X88983996Y-97727994D01*
X89066211Y-97566639D01*
X89122171Y-97394409D01*
X89136335Y-97304977D01*
X89150500Y-97215549D01*
X89150500Y-96784450D01*
X89122171Y-96605593D01*
X89122171Y-96605591D01*
X89066211Y-96433361D01*
X88983996Y-96272006D01*
X88877553Y-96125499D01*
X88749501Y-95997447D01*
X88602994Y-95891004D01*
X88602993Y-95891003D01*
X88602991Y-95891002D01*
X88441637Y-95808788D01*
X88269406Y-95752828D01*
X88090549Y-95724500D01*
X88090546Y-95724500D01*
X87909454Y-95724500D01*
X87909451Y-95724500D01*
X87730593Y-95752828D01*
X87558362Y-95808788D01*
X87397008Y-95891002D01*
X87323752Y-95944225D01*
X87250499Y-95997447D01*
X87122447Y-96125499D01*
X87109417Y-96143434D01*
X87016002Y-96272008D01*
X86933788Y-96433362D01*
X86877828Y-96605593D01*
X86849500Y-96784450D01*
X86849500Y-97215549D01*
X86877828Y-97394406D01*
X86933788Y-97566637D01*
X87001460Y-97699451D01*
X87016004Y-97727994D01*
X87099059Y-97842310D01*
X87117966Y-97900500D01*
X87099059Y-97958691D01*
X87049559Y-97994655D01*
X87018966Y-97999500D01*
X86481034Y-97999500D01*
X86422843Y-97980593D01*
X86386879Y-97931093D01*
X86386879Y-97869907D01*
X86400939Y-97842312D01*
X86483996Y-97727994D01*
X86566211Y-97566639D01*
X86622171Y-97394409D01*
X86636335Y-97304977D01*
X86650500Y-97215549D01*
X86650500Y-96784450D01*
X86622171Y-96605593D01*
X86622171Y-96605591D01*
X86566211Y-96433361D01*
X86483996Y-96272006D01*
X86377553Y-96125499D01*
X86249501Y-95997447D01*
X86102994Y-95891004D01*
X86102993Y-95891003D01*
X86102991Y-95891002D01*
X85941637Y-95808788D01*
X85769406Y-95752828D01*
X85590549Y-95724500D01*
X85590546Y-95724500D01*
X85409454Y-95724500D01*
X85409451Y-95724500D01*
X85230593Y-95752828D01*
X85058362Y-95808788D01*
X84897008Y-95891002D01*
X84823752Y-95944225D01*
X84750499Y-95997447D01*
X84622447Y-96125499D01*
X84609417Y-96143434D01*
X84516002Y-96272008D01*
X84433788Y-96433362D01*
X84377828Y-96605593D01*
X84349500Y-96784450D01*
X84349500Y-97215549D01*
X84377828Y-97394406D01*
X84433788Y-97566637D01*
X84501460Y-97699451D01*
X84516004Y-97727994D01*
X84599059Y-97842310D01*
X84617966Y-97900500D01*
X84599059Y-97958691D01*
X84549559Y-97994655D01*
X84518966Y-97999500D01*
X80311948Y-97999500D01*
X80253757Y-97980593D01*
X80253586Y-97980468D01*
X80247379Y-97975938D01*
X80225412Y-97953971D01*
X80186483Y-97931495D01*
X80182206Y-97928374D01*
X80167226Y-97907663D01*
X80150127Y-97888672D01*
X80149240Y-97882796D01*
X80146348Y-97878797D01*
X80146380Y-97863827D01*
X80142274Y-97836602D01*
X80150500Y-97768102D01*
X80150500Y-96231898D01*
X80139877Y-96143436D01*
X80084361Y-96002658D01*
X79992922Y-95882078D01*
X79872342Y-95790639D01*
X79872341Y-95790638D01*
X79872339Y-95790637D01*
X79731565Y-95735123D01*
X79643106Y-95724500D01*
X79643102Y-95724500D01*
X78473322Y-95724500D01*
X78415131Y-95705593D01*
X78403318Y-95695504D01*
X77182318Y-94474504D01*
X77154541Y-94419987D01*
X77164112Y-94359555D01*
X77207377Y-94316290D01*
X77252322Y-94305500D01*
X79855948Y-94305500D01*
X79914139Y-94324407D01*
X79950103Y-94373907D01*
X79950103Y-94435093D01*
X79938265Y-94459497D01*
X79906317Y-94507311D01*
X79846296Y-94597137D01*
X79782185Y-94751914D01*
X79782183Y-94751920D01*
X79749500Y-94916230D01*
X79749500Y-95083769D01*
X79782183Y-95248079D01*
X79782185Y-95248085D01*
X79846296Y-95402862D01*
X79846297Y-95402863D01*
X79939374Y-95542162D01*
X80057838Y-95660626D01*
X80197137Y-95753703D01*
X80351918Y-95817816D01*
X80516233Y-95850500D01*
X80516234Y-95850500D01*
X80683766Y-95850500D01*
X80683767Y-95850500D01*
X80848082Y-95817816D01*
X81002863Y-95753703D01*
X81142162Y-95660626D01*
X81260626Y-95542162D01*
X81353703Y-95402863D01*
X81417816Y-95248082D01*
X81450500Y-95083767D01*
X81450500Y-94916233D01*
X81417816Y-94751918D01*
X81353703Y-94597137D01*
X81261736Y-94459499D01*
X81245128Y-94400614D01*
X81266305Y-94343210D01*
X81317179Y-94309217D01*
X81344052Y-94305500D01*
X86441967Y-94305500D01*
X86444421Y-94305435D01*
X86457941Y-94305082D01*
X86468290Y-94304540D01*
X86576574Y-94278544D01*
X86632469Y-94253657D01*
X86699731Y-94212581D01*
X86770910Y-94129500D01*
X86823128Y-94097612D01*
X86884117Y-94102506D01*
G37*
%TD.AperFunction*%
%TA.AperFunction,Conductor*%
G36*
X103450725Y-94165392D02*
G01*
X103475784Y-94183598D01*
X104886078Y-95593892D01*
X104913855Y-95648409D01*
X104904284Y-95708841D01*
X104861019Y-95752106D01*
X104800587Y-95761677D01*
X104785483Y-95758051D01*
X104769408Y-95752828D01*
X104590549Y-95724500D01*
X104590546Y-95724500D01*
X104409454Y-95724500D01*
X104409451Y-95724500D01*
X104230593Y-95752828D01*
X104058362Y-95808788D01*
X103897008Y-95891002D01*
X103823752Y-95944225D01*
X103750499Y-95997447D01*
X103622447Y-96125499D01*
X103609417Y-96143434D01*
X103516002Y-96272008D01*
X103433788Y-96433362D01*
X103377828Y-96605593D01*
X103349500Y-96784450D01*
X103349500Y-97215549D01*
X103377828Y-97394406D01*
X103433788Y-97566637D01*
X103501460Y-97699451D01*
X103516004Y-97727994D01*
X103599059Y-97842310D01*
X103617966Y-97900500D01*
X103599059Y-97958691D01*
X103549559Y-97994655D01*
X103518966Y-97999500D01*
X102981034Y-97999500D01*
X102922843Y-97980593D01*
X102886879Y-97931093D01*
X102886879Y-97869907D01*
X102900939Y-97842312D01*
X102983996Y-97727994D01*
X103066211Y-97566639D01*
X103122171Y-97394409D01*
X103136335Y-97304977D01*
X103150500Y-97215549D01*
X103150500Y-96784450D01*
X103122171Y-96605593D01*
X103122171Y-96605591D01*
X103066211Y-96433361D01*
X102983996Y-96272006D01*
X102877553Y-96125499D01*
X102749501Y-95997447D01*
X102602994Y-95891004D01*
X102602993Y-95891003D01*
X102602991Y-95891002D01*
X102441637Y-95808788D01*
X102269406Y-95752828D01*
X102090549Y-95724500D01*
X102090546Y-95724500D01*
X101909454Y-95724500D01*
X101909451Y-95724500D01*
X101730593Y-95752828D01*
X101558362Y-95808788D01*
X101397008Y-95891002D01*
X101323752Y-95944225D01*
X101250499Y-95997447D01*
X101122447Y-96125499D01*
X101109417Y-96143434D01*
X101016002Y-96272008D01*
X100933788Y-96433362D01*
X100877828Y-96605593D01*
X100849500Y-96784450D01*
X100849500Y-97215549D01*
X100877828Y-97394406D01*
X100933788Y-97566637D01*
X101001460Y-97699451D01*
X101016004Y-97727994D01*
X101099059Y-97842310D01*
X101117966Y-97900500D01*
X101099059Y-97958691D01*
X101049559Y-97994655D01*
X101018966Y-97999500D01*
X100481034Y-97999500D01*
X100422843Y-97980593D01*
X100386879Y-97931093D01*
X100386879Y-97869907D01*
X100400939Y-97842312D01*
X100483996Y-97727994D01*
X100566211Y-97566639D01*
X100622171Y-97394409D01*
X100636335Y-97304977D01*
X100650500Y-97215549D01*
X100650500Y-96784450D01*
X100622171Y-96605593D01*
X100622171Y-96605591D01*
X100566211Y-96433361D01*
X100483996Y-96272006D01*
X100377553Y-96125499D01*
X100249501Y-95997447D01*
X100102994Y-95891004D01*
X100102993Y-95891003D01*
X100102991Y-95891002D01*
X99941637Y-95808788D01*
X99769406Y-95752828D01*
X99590549Y-95724500D01*
X99590546Y-95724500D01*
X99409454Y-95724500D01*
X99409451Y-95724500D01*
X99230593Y-95752828D01*
X99058362Y-95808788D01*
X98897008Y-95891002D01*
X98823752Y-95944225D01*
X98750499Y-95997447D01*
X98622447Y-96125499D01*
X98609417Y-96143434D01*
X98516002Y-96272008D01*
X98433788Y-96433362D01*
X98377828Y-96605593D01*
X98349500Y-96784450D01*
X98349500Y-97215549D01*
X98377828Y-97394406D01*
X98433788Y-97566637D01*
X98501460Y-97699451D01*
X98516004Y-97727994D01*
X98599059Y-97842310D01*
X98617966Y-97900500D01*
X98599059Y-97958691D01*
X98549559Y-97994655D01*
X98518966Y-97999500D01*
X94689744Y-97999500D01*
X94631553Y-97980593D01*
X94619741Y-97970504D01*
X94568718Y-97919482D01*
X94568716Y-97919480D01*
X94431784Y-97840423D01*
X94279057Y-97799500D01*
X94279055Y-97799500D01*
X94249500Y-97799500D01*
X94191309Y-97780593D01*
X94155345Y-97731093D01*
X94150500Y-97700500D01*
X94150500Y-96231899D01*
X94150499Y-96231893D01*
X94139877Y-96143436D01*
X94084361Y-96002658D01*
X93992922Y-95882078D01*
X93872342Y-95790639D01*
X93872341Y-95790638D01*
X93872339Y-95790637D01*
X93731565Y-95735123D01*
X93643106Y-95724500D01*
X93643102Y-95724500D01*
X92473322Y-95724500D01*
X92415131Y-95705593D01*
X92403318Y-95695504D01*
X91182318Y-94474504D01*
X91154541Y-94419987D01*
X91164112Y-94359555D01*
X91207377Y-94316290D01*
X91252322Y-94305500D01*
X93855948Y-94305500D01*
X93914139Y-94324407D01*
X93950103Y-94373907D01*
X93950103Y-94435093D01*
X93938265Y-94459497D01*
X93906317Y-94507311D01*
X93846296Y-94597137D01*
X93782185Y-94751914D01*
X93782183Y-94751920D01*
X93749500Y-94916230D01*
X93749500Y-95083769D01*
X93782183Y-95248079D01*
X93782185Y-95248085D01*
X93846296Y-95402862D01*
X93846297Y-95402863D01*
X93939374Y-95542162D01*
X94057838Y-95660626D01*
X94197137Y-95753703D01*
X94351918Y-95817816D01*
X94516233Y-95850500D01*
X94516234Y-95850500D01*
X94683766Y-95850500D01*
X94683767Y-95850500D01*
X94848082Y-95817816D01*
X95002863Y-95753703D01*
X95142162Y-95660626D01*
X95260626Y-95542162D01*
X95353703Y-95402863D01*
X95417816Y-95248082D01*
X95450500Y-95083767D01*
X95450500Y-94916233D01*
X95417816Y-94751918D01*
X95353703Y-94597137D01*
X95261736Y-94459499D01*
X95245128Y-94400614D01*
X95266305Y-94343210D01*
X95317179Y-94309217D01*
X95344052Y-94305500D01*
X103053176Y-94305500D01*
X103053178Y-94305500D01*
X103124493Y-94297060D01*
X103169438Y-94286270D01*
X103221521Y-94268680D01*
X103314144Y-94205231D01*
X103335778Y-94183596D01*
X103390293Y-94155821D01*
X103450725Y-94165392D01*
G37*
%TD.AperFunction*%
%TA.AperFunction,Conductor*%
G36*
X55570265Y-88706218D02*
G01*
X55678462Y-88723354D01*
X55693566Y-88726980D01*
X55741313Y-88742493D01*
X55797762Y-88760835D01*
X55812105Y-88766776D01*
X55909724Y-88816515D01*
X55922963Y-88824627D01*
X56011606Y-88889030D01*
X56023419Y-88899119D01*
X56100883Y-88976583D01*
X56110971Y-88988396D01*
X56175365Y-89077026D01*
X56183483Y-89090273D01*
X56233222Y-89187894D01*
X56239162Y-89202233D01*
X56242060Y-89211148D01*
X56242062Y-89211161D01*
X56242064Y-89211161D01*
X56259672Y-89265352D01*
X56259672Y-89265354D01*
X56259673Y-89265354D01*
X56267499Y-89289440D01*
X56267501Y-89289451D01*
X56271391Y-89301425D01*
X56273018Y-89306433D01*
X56273017Y-89306438D01*
X56276641Y-89321527D01*
X56285905Y-89380013D01*
X56292994Y-89424768D01*
X56293781Y-89429733D01*
X56295000Y-89445222D01*
X56295000Y-89554777D01*
X56293781Y-89570265D01*
X56276642Y-89678470D01*
X56273016Y-89693570D01*
X56239160Y-89797767D01*
X56233219Y-89812111D01*
X56183483Y-89909725D01*
X56175365Y-89922972D01*
X56110971Y-90011602D01*
X56100883Y-90023415D01*
X56023415Y-90100883D01*
X56011602Y-90110971D01*
X55922972Y-90175365D01*
X55909725Y-90183483D01*
X55812111Y-90233219D01*
X55797760Y-90239163D01*
X55693579Y-90273014D01*
X55678474Y-90276641D01*
X55570263Y-90293781D01*
X55554775Y-90295000D01*
X55445224Y-90295000D01*
X55429737Y-90293781D01*
X55321535Y-90276643D01*
X55306429Y-90273017D01*
X55202234Y-90239162D01*
X55187888Y-90233219D01*
X55090267Y-90183480D01*
X55077026Y-90175365D01*
X54988396Y-90110971D01*
X54976583Y-90100883D01*
X54899115Y-90023415D01*
X54889027Y-90011602D01*
X54824633Y-89922972D01*
X54816515Y-89909725D01*
X54793149Y-89863866D01*
X54766779Y-89812111D01*
X54760838Y-89797767D01*
X54733701Y-89714249D01*
X54715356Y-89669960D01*
X54701295Y-89642364D01*
X54685818Y-89615462D01*
X54641612Y-89568735D01*
X54615357Y-89513471D01*
X54626600Y-89453327D01*
X54645495Y-89428782D01*
X54654344Y-89420411D01*
X54690308Y-89370911D01*
X54733702Y-89285745D01*
X54760833Y-89202239D01*
X54766776Y-89187892D01*
X54780606Y-89160749D01*
X54816519Y-89090263D01*
X54824632Y-89077026D01*
X54889028Y-88988393D01*
X54899104Y-88976594D01*
X54976594Y-88899104D01*
X54988385Y-88889033D01*
X55077037Y-88824624D01*
X55090259Y-88816521D01*
X55187904Y-88766770D01*
X55202217Y-88760841D01*
X55306435Y-88726978D01*
X55321523Y-88723356D01*
X55429733Y-88706218D01*
X55445219Y-88705000D01*
X55554780Y-88705000D01*
X55570265Y-88706218D01*
G37*
%TD.AperFunction*%
%TA.AperFunction,Conductor*%
G36*
X105255292Y-82016407D02*
G01*
X105291256Y-82065907D01*
X105291256Y-82127093D01*
X105267104Y-82166502D01*
X105164891Y-82268716D01*
X105063103Y-82370504D01*
X105008587Y-82398281D01*
X104993100Y-82399500D01*
X104920943Y-82399500D01*
X104768216Y-82440423D01*
X104631284Y-82519480D01*
X104519480Y-82631284D01*
X104440423Y-82768216D01*
X104399500Y-82920943D01*
X104399500Y-83079057D01*
X104440423Y-83231784D01*
X104519480Y-83368716D01*
X104631284Y-83480520D01*
X104768216Y-83559577D01*
X104920943Y-83600500D01*
X104920945Y-83600500D01*
X105079055Y-83600500D01*
X105079057Y-83600500D01*
X105231784Y-83559577D01*
X105368716Y-83480520D01*
X105429998Y-83419237D01*
X105484513Y-83391462D01*
X105544945Y-83401033D01*
X105570000Y-83419236D01*
X105631284Y-83480520D01*
X105768216Y-83559577D01*
X105920943Y-83600500D01*
X105920945Y-83600500D01*
X106079055Y-83600500D01*
X106079057Y-83600500D01*
X106231784Y-83559577D01*
X106368716Y-83480520D01*
X106429997Y-83419238D01*
X106443922Y-83412143D01*
X106454966Y-83401078D01*
X106470498Y-83398601D01*
X106484511Y-83391462D01*
X106499949Y-83393907D01*
X106515388Y-83391446D01*
X106529409Y-83398572D01*
X106544943Y-83401033D01*
X106569933Y-83419170D01*
X106570434Y-83419670D01*
X106598266Y-83474158D01*
X106599500Y-83489743D01*
X106599500Y-86864316D01*
X106599500Y-86969770D01*
X106613212Y-87020944D01*
X106626794Y-87071635D01*
X106679516Y-87162951D01*
X106679517Y-87162952D01*
X106679518Y-87162953D01*
X106679520Y-87162956D01*
X107775815Y-88259251D01*
X108842060Y-89325496D01*
X108869837Y-89380013D01*
X108860266Y-89440445D01*
X108817001Y-89483710D01*
X108772056Y-89494500D01*
X107274590Y-89494500D01*
X107215006Y-89500368D01*
X107214974Y-89500373D01*
X107187288Y-89505879D01*
X107187289Y-89505880D01*
X107186772Y-89505983D01*
X107177110Y-89507906D01*
X107176886Y-89507973D01*
X107176771Y-89507997D01*
X107174301Y-89508703D01*
X107051427Y-89541627D01*
X107025804Y-89545000D01*
X106974201Y-89545000D01*
X106948578Y-89541627D01*
X106825695Y-89508701D01*
X106823046Y-89507944D01*
X106821142Y-89507467D01*
X106819597Y-89507066D01*
X106818525Y-89506779D01*
X106812997Y-89505938D01*
X106785012Y-89500371D01*
X106784993Y-89500368D01*
X106725410Y-89494500D01*
X106725403Y-89494500D01*
X105804597Y-89494500D01*
X105804590Y-89494500D01*
X105745006Y-89500368D01*
X105744974Y-89500373D01*
X105717288Y-89505879D01*
X105717289Y-89505880D01*
X105716772Y-89505983D01*
X105707110Y-89507906D01*
X105706886Y-89507973D01*
X105706771Y-89507997D01*
X105704301Y-89508703D01*
X105581427Y-89541627D01*
X105555804Y-89545000D01*
X105504201Y-89545000D01*
X105478578Y-89541627D01*
X105355695Y-89508701D01*
X105353046Y-89507944D01*
X105351142Y-89507467D01*
X105349597Y-89507066D01*
X105348525Y-89506779D01*
X105342997Y-89505938D01*
X105315012Y-89500371D01*
X105314993Y-89500368D01*
X105255410Y-89494500D01*
X105255403Y-89494500D01*
X93234597Y-89494500D01*
X93234590Y-89494500D01*
X93175006Y-89500368D01*
X93174974Y-89500373D01*
X93147288Y-89505879D01*
X93147289Y-89505880D01*
X93146772Y-89505983D01*
X93137110Y-89507906D01*
X93136886Y-89507973D01*
X93136771Y-89507997D01*
X93134301Y-89508703D01*
X93011427Y-89541627D01*
X92985804Y-89545000D01*
X92934201Y-89545000D01*
X92908578Y-89541627D01*
X92785695Y-89508701D01*
X92783046Y-89507944D01*
X92781142Y-89507467D01*
X92779597Y-89507066D01*
X92778525Y-89506779D01*
X92772997Y-89505938D01*
X92745012Y-89500371D01*
X92744993Y-89500368D01*
X92685410Y-89494500D01*
X92685403Y-89494500D01*
X91764597Y-89494500D01*
X91764590Y-89494500D01*
X91705006Y-89500368D01*
X91704974Y-89500373D01*
X91677288Y-89505879D01*
X91677289Y-89505880D01*
X91676772Y-89505983D01*
X91667110Y-89507906D01*
X91666886Y-89507973D01*
X91666771Y-89507997D01*
X91664301Y-89508703D01*
X91541427Y-89541627D01*
X91515804Y-89545000D01*
X91464201Y-89545000D01*
X91438578Y-89541627D01*
X91315695Y-89508701D01*
X91313046Y-89507944D01*
X91311142Y-89507467D01*
X91309597Y-89507066D01*
X91308525Y-89506779D01*
X91302997Y-89505938D01*
X91275012Y-89500371D01*
X91274993Y-89500368D01*
X91215410Y-89494500D01*
X91215403Y-89494500D01*
X89115395Y-89494500D01*
X89115390Y-89494500D01*
X89044078Y-89502940D01*
X88999122Y-89513733D01*
X88947054Y-89531318D01*
X88947049Y-89531321D01*
X88854434Y-89594764D01*
X88854429Y-89594768D01*
X88854429Y-89594769D01*
X88832794Y-89616403D01*
X88778280Y-89644179D01*
X88717848Y-89634608D01*
X88692789Y-89616402D01*
X86828496Y-87752109D01*
X86800719Y-87697592D01*
X86799500Y-87682105D01*
X86799500Y-87196978D01*
X86818407Y-87138787D01*
X86867907Y-87102823D01*
X86914250Y-87101615D01*
X86914509Y-87099653D01*
X86920942Y-87100500D01*
X86920943Y-87100500D01*
X87079055Y-87100500D01*
X87079057Y-87100500D01*
X87231784Y-87059577D01*
X87368716Y-86980520D01*
X87429998Y-86919237D01*
X87484513Y-86891462D01*
X87544945Y-86901033D01*
X87570000Y-86919236D01*
X87631284Y-86980520D01*
X87768216Y-87059577D01*
X87920943Y-87100500D01*
X87920945Y-87100500D01*
X88079055Y-87100500D01*
X88079057Y-87100500D01*
X88231784Y-87059577D01*
X88368716Y-86980520D01*
X88480520Y-86868716D01*
X88559577Y-86731784D01*
X88600500Y-86579057D01*
X88600500Y-86506900D01*
X88602968Y-86499302D01*
X88601719Y-86491413D01*
X88612243Y-86470757D01*
X88619407Y-86448709D01*
X88629496Y-86436896D01*
X88636896Y-86429496D01*
X88691413Y-86401719D01*
X88706900Y-86400500D01*
X89741097Y-86400500D01*
X89799288Y-86419407D01*
X89835252Y-86468907D01*
X89835252Y-86530093D01*
X89799288Y-86579593D01*
X89790602Y-86585232D01*
X89764159Y-86600500D01*
X89731285Y-86619479D01*
X89731284Y-86619480D01*
X89619480Y-86731284D01*
X89540423Y-86868216D01*
X89499500Y-87020943D01*
X89499500Y-87179057D01*
X89540423Y-87331784D01*
X89619480Y-87468716D01*
X89731284Y-87580520D01*
X89868216Y-87659577D01*
X90020943Y-87700500D01*
X90020945Y-87700500D01*
X90179055Y-87700500D01*
X90179057Y-87700500D01*
X90331784Y-87659577D01*
X90468716Y-87580520D01*
X90504094Y-87545142D01*
X90519741Y-87529496D01*
X90574258Y-87501719D01*
X90589744Y-87500500D01*
X95498745Y-87500500D01*
X95537599Y-87500500D01*
X95563220Y-87503872D01*
X95646678Y-87526235D01*
X95646680Y-87526235D01*
X95783066Y-87526235D01*
X95841257Y-87545142D01*
X95877221Y-87594642D01*
X95877221Y-87655828D01*
X95868803Y-87674734D01*
X95850182Y-87706985D01*
X95833476Y-87769333D01*
X95809259Y-87859714D01*
X95809259Y-88017828D01*
X95850182Y-88170555D01*
X95929239Y-88307487D01*
X96041043Y-88419291D01*
X96177975Y-88498348D01*
X96330702Y-88539271D01*
X96330704Y-88539271D01*
X96488814Y-88539271D01*
X96488816Y-88539271D01*
X96641543Y-88498348D01*
X96778475Y-88419291D01*
X96803988Y-88393777D01*
X96829500Y-88368267D01*
X96884017Y-88340490D01*
X96899503Y-88339271D01*
X97463897Y-88339271D01*
X97463899Y-88339271D01*
X97565760Y-88311978D01*
X97565762Y-88311976D01*
X97565764Y-88311976D01*
X97657080Y-88259254D01*
X97657080Y-88259253D01*
X97657085Y-88259251D01*
X101120910Y-84795424D01*
X101120913Y-84795423D01*
X101195480Y-84720856D01*
X101248207Y-84629530D01*
X101249853Y-84623388D01*
X101275501Y-84527670D01*
X101275501Y-84422216D01*
X101275501Y-84416154D01*
X101275500Y-84416136D01*
X101275500Y-83514743D01*
X101294407Y-83456552D01*
X101304490Y-83444745D01*
X101355520Y-83393716D01*
X101434577Y-83256784D01*
X101475500Y-83104057D01*
X101475500Y-82945943D01*
X101468801Y-82920943D01*
X102899500Y-82920943D01*
X102899500Y-83079057D01*
X102940423Y-83231784D01*
X103019480Y-83368716D01*
X103070505Y-83419741D01*
X103098281Y-83474256D01*
X103099500Y-83489743D01*
X103099500Y-84447273D01*
X103099500Y-84552727D01*
X103120078Y-84629526D01*
X103126794Y-84654592D01*
X103179516Y-84745908D01*
X103179518Y-84745910D01*
X103179520Y-84745913D01*
X104370505Y-85936898D01*
X104398281Y-85991413D01*
X104399500Y-86006900D01*
X104399500Y-86079057D01*
X104440423Y-86231784D01*
X104519480Y-86368716D01*
X104631284Y-86480520D01*
X104768216Y-86559577D01*
X104920943Y-86600500D01*
X104920945Y-86600500D01*
X105079055Y-86600500D01*
X105079057Y-86600500D01*
X105231784Y-86559577D01*
X105368716Y-86480520D01*
X105480520Y-86368716D01*
X105559577Y-86231784D01*
X105600500Y-86079057D01*
X105600500Y-85920943D01*
X105559577Y-85768216D01*
X105480520Y-85631284D01*
X105368716Y-85519480D01*
X105231784Y-85440423D01*
X105079057Y-85399500D01*
X105079055Y-85399500D01*
X105006901Y-85399500D01*
X104948710Y-85380593D01*
X104936897Y-85370504D01*
X103929496Y-84363103D01*
X103901719Y-84308586D01*
X103900500Y-84293099D01*
X103900500Y-83489743D01*
X103919407Y-83431552D01*
X103929490Y-83419745D01*
X103980520Y-83368716D01*
X104059577Y-83231784D01*
X104100500Y-83079057D01*
X104100500Y-82920943D01*
X104059577Y-82768216D01*
X103980520Y-82631284D01*
X103868716Y-82519480D01*
X103731784Y-82440423D01*
X103579057Y-82399500D01*
X103420943Y-82399500D01*
X103268216Y-82440423D01*
X103131284Y-82519480D01*
X103019480Y-82631284D01*
X102940423Y-82768216D01*
X102899500Y-82920943D01*
X101468801Y-82920943D01*
X101434577Y-82793216D01*
X101355520Y-82656284D01*
X101243716Y-82544480D01*
X101106784Y-82465423D01*
X100954057Y-82424500D01*
X100795943Y-82424500D01*
X100643216Y-82465423D01*
X100506284Y-82544480D01*
X100394480Y-82656284D01*
X100315423Y-82793216D01*
X100274500Y-82945943D01*
X100274500Y-83104057D01*
X100315423Y-83256784D01*
X100394480Y-83393716D01*
X100445505Y-83444741D01*
X100473281Y-83499256D01*
X100474500Y-83514743D01*
X100474500Y-84268042D01*
X100455593Y-84326233D01*
X100445504Y-84338046D01*
X99134613Y-85648936D01*
X99080096Y-85676713D01*
X99019664Y-85667142D01*
X98986037Y-85635226D01*
X98984469Y-85636430D01*
X98980525Y-85631290D01*
X98980521Y-85631286D01*
X98980520Y-85631284D01*
X98868716Y-85519480D01*
X98731784Y-85440423D01*
X98579057Y-85399500D01*
X98420943Y-85399500D01*
X98268216Y-85440423D01*
X98131281Y-85519482D01*
X98080259Y-85570504D01*
X98025742Y-85598281D01*
X98010256Y-85599500D01*
X88705901Y-85599500D01*
X88647710Y-85580593D01*
X88611746Y-85531093D01*
X88611746Y-85469907D01*
X88635897Y-85430496D01*
X92039897Y-82026496D01*
X92094414Y-81998719D01*
X92109901Y-81997500D01*
X105197101Y-81997500D01*
X105255292Y-82016407D01*
G37*
%TD.AperFunction*%
%TA.AperFunction,Conductor*%
G36*
X63581427Y-88958373D02*
G01*
X63631277Y-88971730D01*
X63655153Y-88981620D01*
X63678075Y-88994854D01*
X63699843Y-89007421D01*
X63720348Y-89023154D01*
X63756844Y-89059650D01*
X63772577Y-89080155D01*
X63798380Y-89124848D01*
X63808269Y-89148722D01*
X63818765Y-89187894D01*
X63821626Y-89198568D01*
X63825000Y-89224193D01*
X63825000Y-89275805D01*
X63821626Y-89301430D01*
X63808269Y-89351276D01*
X63798380Y-89375150D01*
X63772577Y-89419843D01*
X63756844Y-89440348D01*
X63720348Y-89476844D01*
X63699843Y-89492577D01*
X63655150Y-89518380D01*
X63631276Y-89528269D01*
X63610244Y-89533905D01*
X63581429Y-89541626D01*
X63555806Y-89545000D01*
X63504202Y-89545000D01*
X63478578Y-89541626D01*
X63428717Y-89528265D01*
X63404843Y-89518376D01*
X63360156Y-89492577D01*
X63339650Y-89476844D01*
X63303154Y-89440348D01*
X63287421Y-89419843D01*
X63261620Y-89375153D01*
X63261619Y-89375150D01*
X63251730Y-89351276D01*
X63238373Y-89301425D01*
X63235000Y-89275803D01*
X63235000Y-89224195D01*
X63238373Y-89198573D01*
X63251730Y-89148722D01*
X63261618Y-89124848D01*
X63287424Y-89080150D01*
X63303150Y-89059654D01*
X63339654Y-89023150D01*
X63360150Y-89007424D01*
X63404848Y-88981618D01*
X63428722Y-88971730D01*
X63478574Y-88958373D01*
X63504196Y-88955000D01*
X63555804Y-88955000D01*
X63581427Y-88958373D01*
G37*
%TD.AperFunction*%
%TA.AperFunction,Conductor*%
G36*
X65051427Y-88958373D02*
G01*
X65101277Y-88971730D01*
X65125153Y-88981620D01*
X65148075Y-88994854D01*
X65169843Y-89007421D01*
X65190348Y-89023154D01*
X65226844Y-89059650D01*
X65242577Y-89080155D01*
X65268380Y-89124848D01*
X65278269Y-89148722D01*
X65288765Y-89187894D01*
X65291626Y-89198568D01*
X65295000Y-89224193D01*
X65295000Y-89275805D01*
X65291626Y-89301430D01*
X65278269Y-89351276D01*
X65268380Y-89375150D01*
X65242577Y-89419843D01*
X65226844Y-89440348D01*
X65190348Y-89476844D01*
X65169843Y-89492577D01*
X65125150Y-89518380D01*
X65101276Y-89528269D01*
X65080244Y-89533905D01*
X65051429Y-89541626D01*
X65025806Y-89545000D01*
X64974202Y-89545000D01*
X64948578Y-89541626D01*
X64898717Y-89528265D01*
X64874843Y-89518376D01*
X64830156Y-89492577D01*
X64809650Y-89476844D01*
X64773154Y-89440348D01*
X64757421Y-89419843D01*
X64731620Y-89375153D01*
X64721730Y-89351276D01*
X64708373Y-89301425D01*
X64705000Y-89275803D01*
X64705000Y-89224195D01*
X64708373Y-89198573D01*
X64721730Y-89148722D01*
X64731618Y-89124848D01*
X64757424Y-89080150D01*
X64773150Y-89059654D01*
X64809654Y-89023150D01*
X64830150Y-89007424D01*
X64874848Y-88981618D01*
X64898722Y-88971730D01*
X64948574Y-88958373D01*
X64974196Y-88955000D01*
X65025804Y-88955000D01*
X65051427Y-88958373D01*
G37*
%TD.AperFunction*%
%TA.AperFunction,Conductor*%
G36*
X61940388Y-78997738D02*
G01*
X61946307Y-78998148D01*
X61984258Y-79000782D01*
X62000060Y-79003173D01*
X62143728Y-79036963D01*
X62161037Y-79042764D01*
X62252352Y-79083083D01*
X62291766Y-79100486D01*
X62307726Y-79109376D01*
X62425608Y-79190127D01*
X62439664Y-79201798D01*
X62540703Y-79302837D01*
X62552373Y-79316892D01*
X62633119Y-79434765D01*
X62642010Y-79450726D01*
X62699730Y-79581451D01*
X62699731Y-79581452D01*
X62705534Y-79598767D01*
X62739325Y-79742437D01*
X62741716Y-79758244D01*
X62744762Y-79802111D01*
X62745000Y-79808969D01*
X62745000Y-81676029D01*
X62744762Y-81682887D01*
X62741716Y-81726754D01*
X62739325Y-81742559D01*
X62705535Y-81886228D01*
X62699731Y-81903546D01*
X62642010Y-82034272D01*
X62633119Y-82050233D01*
X62552373Y-82168106D01*
X62540703Y-82182161D01*
X62439661Y-82283203D01*
X62425606Y-82294873D01*
X62307733Y-82375619D01*
X62291772Y-82384510D01*
X62161046Y-82442231D01*
X62143724Y-82448036D01*
X62000063Y-82481824D01*
X61984255Y-82484216D01*
X61946435Y-82486842D01*
X61940387Y-82487262D01*
X61933531Y-82487500D01*
X60066471Y-82487500D01*
X60059614Y-82487262D01*
X60015745Y-82484216D01*
X59999941Y-82481825D01*
X59856267Y-82448034D01*
X59838952Y-82442231D01*
X59805564Y-82427489D01*
X59708226Y-82384510D01*
X59692265Y-82375619D01*
X59574392Y-82294873D01*
X59560337Y-82283203D01*
X59459295Y-82182161D01*
X59447625Y-82168106D01*
X59377616Y-82065907D01*
X59366877Y-82050230D01*
X59357988Y-82034272D01*
X59352835Y-82022601D01*
X59300264Y-81903539D01*
X59294464Y-81886231D01*
X59260673Y-81742559D01*
X59258282Y-81726757D01*
X59255238Y-81682887D01*
X59255000Y-81676034D01*
X59255000Y-79808963D01*
X59255238Y-79802109D01*
X59255588Y-79797055D01*
X59258282Y-79758237D01*
X59260673Y-79742437D01*
X59294464Y-79598767D01*
X59300268Y-79581451D01*
X59357988Y-79450724D01*
X59366870Y-79434778D01*
X59422861Y-79353042D01*
X59447627Y-79316890D01*
X59459292Y-79302840D01*
X59560340Y-79201792D01*
X59574390Y-79190127D01*
X59692272Y-79109375D01*
X59708223Y-79100489D01*
X59838958Y-79042764D01*
X59856260Y-79036966D01*
X59999941Y-79003172D01*
X60015739Y-79000782D01*
X60054557Y-78998088D01*
X60059611Y-78997738D01*
X60066465Y-78997500D01*
X61933534Y-78997500D01*
X61940388Y-78997738D01*
G37*
%TD.AperFunction*%
%TA.AperFunction,Conductor*%
G36*
X65716641Y-54519407D02*
G01*
X65752605Y-54568907D01*
X65752605Y-54630093D01*
X65728454Y-54669504D01*
X60312962Y-60084996D01*
X60296689Y-60102600D01*
X60286619Y-60114391D01*
X60286600Y-60114414D01*
X60282081Y-60119831D01*
X60282080Y-60119833D01*
X60282073Y-60119842D01*
X60228360Y-60218409D01*
X60228359Y-60218411D01*
X60209451Y-60276603D01*
X60194500Y-60371004D01*
X60194500Y-67458981D01*
X60195442Y-67482969D01*
X60196664Y-67498494D01*
X60197294Y-67505472D01*
X60229015Y-67613170D01*
X60256792Y-67667687D01*
X60282662Y-67703294D01*
X60312970Y-67745011D01*
X60312972Y-67745013D01*
X60312975Y-67745017D01*
X61754983Y-69187025D01*
X61772601Y-69203311D01*
X61784414Y-69213400D01*
X61789831Y-69217919D01*
X61789837Y-69217922D01*
X61789842Y-69217926D01*
X61888409Y-69271639D01*
X61888411Y-69271640D01*
X61946604Y-69290548D01*
X61946601Y-69290548D01*
X62041005Y-69305500D01*
X62041008Y-69305500D01*
X99761697Y-69305500D01*
X99761699Y-69305500D01*
X99833014Y-69297060D01*
X99877959Y-69286270D01*
X99930042Y-69268680D01*
X100022665Y-69205231D01*
X100044299Y-69183596D01*
X100098814Y-69155821D01*
X100159246Y-69165392D01*
X100184305Y-69183598D01*
X101080203Y-70079496D01*
X101107980Y-70134013D01*
X101098409Y-70194445D01*
X101055144Y-70237710D01*
X101010199Y-70248500D01*
X87302353Y-70248500D01*
X87252856Y-70235237D01*
X87129414Y-70163969D01*
X86976687Y-70123046D01*
X86818573Y-70123046D01*
X86665846Y-70163969D01*
X86528914Y-70243026D01*
X86417110Y-70354830D01*
X86338053Y-70491762D01*
X86297130Y-70644489D01*
X86297130Y-70802603D01*
X86338053Y-70955330D01*
X86417110Y-71092262D01*
X86528914Y-71204066D01*
X86665846Y-71283123D01*
X86818573Y-71324046D01*
X86822192Y-71324046D01*
X86824657Y-71324846D01*
X86825007Y-71324893D01*
X86824998Y-71324957D01*
X86880383Y-71342953D01*
X86916347Y-71392453D01*
X86917814Y-71397408D01*
X86940423Y-71481784D01*
X87019480Y-71618716D01*
X87131284Y-71730520D01*
X87268216Y-71809577D01*
X87420943Y-71850500D01*
X87420945Y-71850500D01*
X87579055Y-71850500D01*
X87579057Y-71850500D01*
X87731784Y-71809577D01*
X87868716Y-71730520D01*
X87894229Y-71705006D01*
X87919741Y-71679496D01*
X87974258Y-71651719D01*
X87989744Y-71650500D01*
X100510256Y-71650500D01*
X100568447Y-71669407D01*
X100580259Y-71679496D01*
X100615398Y-71714634D01*
X100631284Y-71730520D01*
X100768216Y-71809577D01*
X100920943Y-71850500D01*
X100920945Y-71850500D01*
X101079056Y-71850500D01*
X101079057Y-71850500D01*
X101088662Y-71847926D01*
X101149762Y-71851124D01*
X101197314Y-71889627D01*
X101209914Y-71917924D01*
X101240423Y-72031784D01*
X101319480Y-72168716D01*
X101431284Y-72280520D01*
X101568216Y-72359577D01*
X101720943Y-72400500D01*
X101720945Y-72400500D01*
X101879055Y-72400500D01*
X101879057Y-72400500D01*
X102031784Y-72359577D01*
X102168716Y-72280520D01*
X102280520Y-72168716D01*
X102359577Y-72031784D01*
X102400500Y-71879057D01*
X102400500Y-71720943D01*
X102378577Y-71639125D01*
X102381780Y-71578026D01*
X102420285Y-71530476D01*
X102479385Y-71514640D01*
X102536507Y-71536567D01*
X102544208Y-71543500D01*
X103846618Y-72845910D01*
X103846620Y-72845913D01*
X103921187Y-72920480D01*
X103951741Y-72938120D01*
X103990482Y-72960488D01*
X103990485Y-72960489D01*
X104012513Y-72973207D01*
X104114370Y-73000500D01*
X104114372Y-73000501D01*
X104114373Y-73000501D01*
X104225890Y-73000501D01*
X104225906Y-73000500D01*
X107310256Y-73000500D01*
X107368447Y-73019407D01*
X107380259Y-73029496D01*
X107431281Y-73080517D01*
X107431284Y-73080520D01*
X107568216Y-73159577D01*
X107720943Y-73200500D01*
X107720945Y-73200500D01*
X107879055Y-73200500D01*
X107879057Y-73200500D01*
X108031784Y-73159577D01*
X108168716Y-73080520D01*
X108280520Y-72968716D01*
X108359577Y-72831784D01*
X108400500Y-72679057D01*
X108400500Y-72520943D01*
X108359577Y-72368216D01*
X108280520Y-72231284D01*
X108168716Y-72119480D01*
X108076432Y-72066200D01*
X108035493Y-72020732D01*
X108029097Y-71959882D01*
X108055931Y-71910461D01*
X108536898Y-71429496D01*
X108591414Y-71401719D01*
X108606901Y-71400500D01*
X108679055Y-71400500D01*
X108679057Y-71400500D01*
X108831784Y-71359577D01*
X108968716Y-71280520D01*
X109080520Y-71168716D01*
X109159577Y-71031784D01*
X109200500Y-70879057D01*
X109200500Y-70720943D01*
X109159577Y-70568216D01*
X109080520Y-70431284D01*
X108968716Y-70319480D01*
X108831784Y-70240423D01*
X108679057Y-70199500D01*
X108520943Y-70199500D01*
X108368216Y-70240423D01*
X108231284Y-70319480D01*
X108119480Y-70431284D01*
X108040423Y-70568216D01*
X108019986Y-70644490D01*
X107999500Y-70720944D01*
X107999500Y-70793099D01*
X107980593Y-70851290D01*
X107970504Y-70863103D01*
X107262103Y-71571504D01*
X107207586Y-71599281D01*
X107192099Y-71600500D01*
X105833642Y-71600500D01*
X105775451Y-71581593D01*
X105739487Y-71532093D01*
X105739487Y-71470907D01*
X105747905Y-71452001D01*
X105759576Y-71431785D01*
X105759577Y-71431784D01*
X105800500Y-71279057D01*
X105800500Y-71120943D01*
X105759577Y-70968216D01*
X105680520Y-70831284D01*
X105568716Y-70719480D01*
X105431784Y-70640423D01*
X105279057Y-70599500D01*
X105279055Y-70599500D01*
X105206901Y-70599500D01*
X105148710Y-70580593D01*
X105136897Y-70570504D01*
X104019464Y-69453071D01*
X103991687Y-69398554D01*
X104001258Y-69338122D01*
X104044523Y-69294857D01*
X104104955Y-69285286D01*
X104120064Y-69288913D01*
X104125094Y-69290548D01*
X104148694Y-69294286D01*
X104219494Y-69305500D01*
X109551020Y-69305500D01*
X109609211Y-69324407D01*
X109645175Y-69373907D01*
X109650020Y-69404500D01*
X109650020Y-70692948D01*
X109631113Y-70751139D01*
X109600521Y-70778684D01*
X109530764Y-70818958D01*
X109418957Y-70930765D01*
X109365486Y-71023378D01*
X109365481Y-71023388D01*
X109339902Y-71067695D01*
X109318133Y-71148937D01*
X109318130Y-71148946D01*
X109298979Y-71220422D01*
X109298979Y-71378536D01*
X109339902Y-71531263D01*
X109418959Y-71668195D01*
X109530763Y-71779999D01*
X109667695Y-71859056D01*
X109820422Y-71899979D01*
X109820424Y-71899979D01*
X109826690Y-71901658D01*
X109825968Y-71904351D01*
X109870637Y-71925632D01*
X109896779Y-71973728D01*
X109898342Y-71973310D01*
X109900021Y-71979576D01*
X109900021Y-71979578D01*
X109940944Y-72132305D01*
X110020001Y-72269237D01*
X110131805Y-72381041D01*
X110268737Y-72460098D01*
X110421464Y-72501021D01*
X110421466Y-72501021D01*
X110579576Y-72501021D01*
X110579578Y-72501021D01*
X110732305Y-72460098D01*
X110869237Y-72381041D01*
X110901072Y-72349205D01*
X110955585Y-72321430D01*
X111016017Y-72331001D01*
X111056809Y-72369711D01*
X111104355Y-72452063D01*
X111104357Y-72452066D01*
X111216161Y-72563870D01*
X111353093Y-72642927D01*
X111505820Y-72683850D01*
X111505822Y-72683850D01*
X111663932Y-72683850D01*
X111663934Y-72683850D01*
X111816661Y-72642927D01*
X111953593Y-72563870D01*
X112065397Y-72452066D01*
X112144454Y-72315134D01*
X112185377Y-72162407D01*
X112185377Y-72004293D01*
X112144454Y-71851566D01*
X112065397Y-71714634D01*
X111953593Y-71602830D01*
X111816661Y-71523773D01*
X111816660Y-71523772D01*
X111816657Y-71523771D01*
X111769566Y-71511153D01*
X111718252Y-71477829D01*
X111696326Y-71420707D01*
X111696190Y-71415527D01*
X111696190Y-69361211D01*
X111715097Y-69303020D01*
X111725186Y-69291208D01*
X111970885Y-69045508D01*
X112025402Y-69017730D01*
X112085834Y-69027301D01*
X112129099Y-69070566D01*
X112130310Y-69073028D01*
X112148425Y-69111159D01*
X112148431Y-69111168D01*
X112180873Y-69155821D01*
X112184391Y-69160662D01*
X112234265Y-69213380D01*
X112238560Y-69217920D01*
X112337137Y-69271639D01*
X112337139Y-69271640D01*
X112395332Y-69290548D01*
X112395329Y-69290548D01*
X112489733Y-69305500D01*
X113900500Y-69305500D01*
X113958691Y-69324407D01*
X113994655Y-69373907D01*
X113999500Y-69404500D01*
X113999500Y-99400500D01*
X113980593Y-99458691D01*
X113931093Y-99494655D01*
X113900500Y-99499500D01*
X50599500Y-99499500D01*
X50541309Y-99480593D01*
X50505345Y-99431093D01*
X50500500Y-99400500D01*
X50500500Y-96784450D01*
X56349500Y-96784450D01*
X56349500Y-97215549D01*
X56377828Y-97394406D01*
X56433788Y-97566637D01*
X56501460Y-97699451D01*
X56516004Y-97727994D01*
X56622447Y-97874501D01*
X56750499Y-98002553D01*
X56897006Y-98108996D01*
X57058361Y-98191211D01*
X57230591Y-98247171D01*
X57302136Y-98258502D01*
X57409451Y-98275500D01*
X57409454Y-98275500D01*
X57590549Y-98275500D01*
X57679977Y-98261335D01*
X57769409Y-98247171D01*
X57941639Y-98191211D01*
X58102994Y-98108996D01*
X58249501Y-98002553D01*
X58377553Y-97874501D01*
X58483996Y-97727994D01*
X58566211Y-97566639D01*
X58622171Y-97394409D01*
X58636335Y-97304977D01*
X58650500Y-97215549D01*
X58650500Y-96784450D01*
X58849500Y-96784450D01*
X58849500Y-97215549D01*
X58877828Y-97394406D01*
X58933788Y-97566637D01*
X59001460Y-97699451D01*
X59016004Y-97727994D01*
X59122447Y-97874501D01*
X59250499Y-98002553D01*
X59397006Y-98108996D01*
X59558361Y-98191211D01*
X59730591Y-98247171D01*
X59802136Y-98258502D01*
X59909451Y-98275500D01*
X59909454Y-98275500D01*
X60090549Y-98275500D01*
X60179977Y-98261335D01*
X60269409Y-98247171D01*
X60441639Y-98191211D01*
X60602994Y-98108996D01*
X60749501Y-98002553D01*
X60877553Y-97874501D01*
X60983996Y-97727994D01*
X61066211Y-97566639D01*
X61122171Y-97394409D01*
X61136335Y-97304977D01*
X61150500Y-97215549D01*
X61150500Y-96784450D01*
X61122171Y-96605593D01*
X61122171Y-96605591D01*
X61066211Y-96433361D01*
X60983996Y-96272006D01*
X60877553Y-96125499D01*
X60749501Y-95997447D01*
X60602994Y-95891004D01*
X60602993Y-95891003D01*
X60602991Y-95891002D01*
X60441637Y-95808788D01*
X60269406Y-95752828D01*
X60090549Y-95724500D01*
X60090546Y-95724500D01*
X59909454Y-95724500D01*
X59909451Y-95724500D01*
X59730593Y-95752828D01*
X59558362Y-95808788D01*
X59397008Y-95891002D01*
X59323752Y-95944225D01*
X59250499Y-95997447D01*
X59122447Y-96125499D01*
X59109417Y-96143434D01*
X59016002Y-96272008D01*
X58933788Y-96433362D01*
X58877828Y-96605593D01*
X58849500Y-96784450D01*
X58650500Y-96784450D01*
X58622171Y-96605593D01*
X58622171Y-96605591D01*
X58566211Y-96433361D01*
X58483996Y-96272006D01*
X58377553Y-96125499D01*
X58249501Y-95997447D01*
X58102994Y-95891004D01*
X58102993Y-95891003D01*
X58102991Y-95891002D01*
X57941637Y-95808788D01*
X57769406Y-95752828D01*
X57590549Y-95724500D01*
X57590546Y-95724500D01*
X57409454Y-95724500D01*
X57409451Y-95724500D01*
X57230593Y-95752828D01*
X57058362Y-95808788D01*
X56897008Y-95891002D01*
X56823752Y-95944225D01*
X56750499Y-95997447D01*
X56622447Y-96125499D01*
X56609417Y-96143434D01*
X56516002Y-96272008D01*
X56433788Y-96433362D01*
X56377828Y-96605593D01*
X56349500Y-96784450D01*
X50500500Y-96784450D01*
X50500500Y-82291004D01*
X53944500Y-82291004D01*
X53944500Y-82291008D01*
X53944500Y-89160749D01*
X53948261Y-89208537D01*
X53948675Y-89211148D01*
X53953105Y-89239129D01*
X53959512Y-89269502D01*
X53959513Y-89269503D01*
X54007691Y-89370910D01*
X54007695Y-89370916D01*
X54043654Y-89420410D01*
X54053856Y-89431194D01*
X54080110Y-89486460D01*
X54068866Y-89546603D01*
X54049975Y-89571144D01*
X54032079Y-89588074D01*
X53978360Y-89686651D01*
X53978359Y-89686653D01*
X53959451Y-89744845D01*
X53944500Y-89839246D01*
X53944500Y-89839250D01*
X53944500Y-93901000D01*
X53948261Y-93948786D01*
X53951983Y-93972289D01*
X53953106Y-93979380D01*
X53953106Y-93979385D01*
X53959512Y-94009752D01*
X53959514Y-94009757D01*
X54007689Y-94111158D01*
X54007695Y-94111168D01*
X54040137Y-94155821D01*
X54043655Y-94160662D01*
X54086876Y-94206348D01*
X54097824Y-94217920D01*
X54196401Y-94271639D01*
X54196403Y-94271640D01*
X54254596Y-94290548D01*
X54254593Y-94290548D01*
X54348997Y-94305500D01*
X54349000Y-94305500D01*
X61053176Y-94305500D01*
X61053178Y-94305500D01*
X61124493Y-94297060D01*
X61169438Y-94286270D01*
X61221521Y-94268680D01*
X61314144Y-94205231D01*
X61335778Y-94183596D01*
X61390293Y-94155821D01*
X61450725Y-94165392D01*
X61475784Y-94183598D01*
X62886078Y-95593892D01*
X62913855Y-95648409D01*
X62904284Y-95708841D01*
X62861019Y-95752106D01*
X62800587Y-95761677D01*
X62785483Y-95758051D01*
X62769408Y-95752828D01*
X62590549Y-95724500D01*
X62590546Y-95724500D01*
X62409454Y-95724500D01*
X62409451Y-95724500D01*
X62230593Y-95752828D01*
X62058362Y-95808788D01*
X61897008Y-95891002D01*
X61823752Y-95944225D01*
X61750499Y-95997447D01*
X61622447Y-96125499D01*
X61609417Y-96143434D01*
X61516002Y-96272008D01*
X61433788Y-96433362D01*
X61377828Y-96605593D01*
X61349500Y-96784450D01*
X61349500Y-97215549D01*
X61377828Y-97394406D01*
X61433788Y-97566637D01*
X61501460Y-97699451D01*
X61516004Y-97727994D01*
X61622447Y-97874501D01*
X61750499Y-98002553D01*
X61897006Y-98108996D01*
X62058361Y-98191211D01*
X62230591Y-98247171D01*
X62302136Y-98258502D01*
X62409451Y-98275500D01*
X62409454Y-98275500D01*
X62590549Y-98275500D01*
X62679977Y-98261335D01*
X62769409Y-98247171D01*
X62941639Y-98191211D01*
X63102994Y-98108996D01*
X63249501Y-98002553D01*
X63377553Y-97874501D01*
X63483996Y-97727994D01*
X63566211Y-97566639D01*
X63622171Y-97394409D01*
X63636335Y-97304977D01*
X63650500Y-97215549D01*
X63650500Y-96784450D01*
X63622171Y-96605591D01*
X63616949Y-96589519D01*
X63616948Y-96528334D01*
X63652911Y-96478833D01*
X63711101Y-96459925D01*
X63769292Y-96478831D01*
X63781107Y-96488921D01*
X63820504Y-96528318D01*
X63848281Y-96582835D01*
X63849500Y-96598322D01*
X63849500Y-97768106D01*
X63860123Y-97856565D01*
X63915637Y-97997339D01*
X63915638Y-97997341D01*
X63915639Y-97997342D01*
X64007078Y-98117922D01*
X64127658Y-98209361D01*
X64127659Y-98209361D01*
X64127660Y-98209362D01*
X64198047Y-98237119D01*
X64268436Y-98264877D01*
X64356898Y-98275500D01*
X64356900Y-98275500D01*
X65643100Y-98275500D01*
X65643102Y-98275500D01*
X65731564Y-98264877D01*
X65872342Y-98209361D01*
X65992922Y-98117922D01*
X66084361Y-97997342D01*
X66139877Y-97856564D01*
X66150500Y-97768102D01*
X66150500Y-96784450D01*
X70349500Y-96784450D01*
X70349500Y-97215549D01*
X70377828Y-97394406D01*
X70433788Y-97566637D01*
X70501460Y-97699451D01*
X70516004Y-97727994D01*
X70622447Y-97874501D01*
X70750499Y-98002553D01*
X70897006Y-98108996D01*
X71058361Y-98191211D01*
X71230591Y-98247171D01*
X71302136Y-98258502D01*
X71409451Y-98275500D01*
X71409454Y-98275500D01*
X71590549Y-98275500D01*
X71679977Y-98261335D01*
X71769409Y-98247171D01*
X71941639Y-98191211D01*
X72102994Y-98108996D01*
X72249501Y-98002553D01*
X72377553Y-97874501D01*
X72483996Y-97727994D01*
X72566211Y-97566639D01*
X72622171Y-97394409D01*
X72636335Y-97304977D01*
X72650500Y-97215549D01*
X72650500Y-96784450D01*
X72849500Y-96784450D01*
X72849500Y-97215549D01*
X72877828Y-97394406D01*
X72933788Y-97566637D01*
X73001460Y-97699451D01*
X73016004Y-97727994D01*
X73122447Y-97874501D01*
X73250499Y-98002553D01*
X73397006Y-98108996D01*
X73558361Y-98191211D01*
X73730591Y-98247171D01*
X73802136Y-98258502D01*
X73909451Y-98275500D01*
X73909454Y-98275500D01*
X74090549Y-98275500D01*
X74179977Y-98261335D01*
X74269409Y-98247171D01*
X74441639Y-98191211D01*
X74602994Y-98108996D01*
X74749501Y-98002553D01*
X74877553Y-97874501D01*
X74983996Y-97727994D01*
X75066211Y-97566639D01*
X75122171Y-97394409D01*
X75136335Y-97304977D01*
X75150500Y-97215549D01*
X75150500Y-96784450D01*
X75122171Y-96605593D01*
X75122171Y-96605591D01*
X75066211Y-96433361D01*
X74983996Y-96272006D01*
X74877553Y-96125499D01*
X74749501Y-95997447D01*
X74602994Y-95891004D01*
X74602993Y-95891003D01*
X74602991Y-95891002D01*
X74441637Y-95808788D01*
X74269406Y-95752828D01*
X74090549Y-95724500D01*
X74090546Y-95724500D01*
X73909454Y-95724500D01*
X73909451Y-95724500D01*
X73730593Y-95752828D01*
X73558362Y-95808788D01*
X73397008Y-95891002D01*
X73323752Y-95944225D01*
X73250499Y-95997447D01*
X73122447Y-96125499D01*
X73109417Y-96143434D01*
X73016002Y-96272008D01*
X72933788Y-96433362D01*
X72877828Y-96605593D01*
X72849500Y-96784450D01*
X72650500Y-96784450D01*
X72622171Y-96605593D01*
X72622171Y-96605591D01*
X72566211Y-96433361D01*
X72483996Y-96272006D01*
X72377553Y-96125499D01*
X72249501Y-95997447D01*
X72102994Y-95891004D01*
X72102993Y-95891003D01*
X72102991Y-95891002D01*
X71941637Y-95808788D01*
X71769406Y-95752828D01*
X71590549Y-95724500D01*
X71590546Y-95724500D01*
X71409454Y-95724500D01*
X71409451Y-95724500D01*
X71230593Y-95752828D01*
X71058362Y-95808788D01*
X70897008Y-95891002D01*
X70823752Y-95944225D01*
X70750499Y-95997447D01*
X70622447Y-96125499D01*
X70609417Y-96143434D01*
X70516002Y-96272008D01*
X70433788Y-96433362D01*
X70377828Y-96605593D01*
X70349500Y-96784450D01*
X66150500Y-96784450D01*
X66150500Y-96231898D01*
X66139877Y-96143436D01*
X66084361Y-96002658D01*
X65992922Y-95882078D01*
X65872342Y-95790639D01*
X65872341Y-95790638D01*
X65872339Y-95790637D01*
X65731565Y-95735123D01*
X65643106Y-95724500D01*
X65643102Y-95724500D01*
X64473322Y-95724500D01*
X64415131Y-95705593D01*
X64403318Y-95695504D01*
X63182318Y-94474504D01*
X63154541Y-94419987D01*
X63164112Y-94359555D01*
X63207377Y-94316290D01*
X63252322Y-94305500D01*
X65855948Y-94305500D01*
X65914139Y-94324407D01*
X65950103Y-94373907D01*
X65950103Y-94435093D01*
X65938265Y-94459497D01*
X65906317Y-94507311D01*
X65846296Y-94597137D01*
X65782185Y-94751914D01*
X65782183Y-94751920D01*
X65749500Y-94916230D01*
X65749500Y-95083769D01*
X65782183Y-95248079D01*
X65782185Y-95248085D01*
X65846296Y-95402862D01*
X65846297Y-95402863D01*
X65939374Y-95542162D01*
X66057838Y-95660626D01*
X66197137Y-95753703D01*
X66351918Y-95817816D01*
X66516233Y-95850500D01*
X66516234Y-95850500D01*
X66683766Y-95850500D01*
X66683767Y-95850500D01*
X66848082Y-95817816D01*
X67002863Y-95753703D01*
X67142162Y-95660626D01*
X67260626Y-95542162D01*
X67353703Y-95402863D01*
X67417816Y-95248082D01*
X67450500Y-95083767D01*
X67450500Y-94916233D01*
X67417816Y-94751918D01*
X67353703Y-94597137D01*
X67261736Y-94459499D01*
X67245128Y-94400614D01*
X67266305Y-94343210D01*
X67317179Y-94309217D01*
X67344052Y-94305500D01*
X75053176Y-94305500D01*
X75053178Y-94305500D01*
X75124493Y-94297060D01*
X75169438Y-94286270D01*
X75221521Y-94268680D01*
X75314144Y-94205231D01*
X75335778Y-94183596D01*
X75390293Y-94155821D01*
X75450725Y-94165392D01*
X75475784Y-94183598D01*
X76886078Y-95593892D01*
X76913855Y-95648409D01*
X76904284Y-95708841D01*
X76861019Y-95752106D01*
X76800587Y-95761677D01*
X76785483Y-95758051D01*
X76769408Y-95752828D01*
X76590549Y-95724500D01*
X76590546Y-95724500D01*
X76409454Y-95724500D01*
X76409451Y-95724500D01*
X76230593Y-95752828D01*
X76058362Y-95808788D01*
X75897008Y-95891002D01*
X75823752Y-95944225D01*
X75750499Y-95997447D01*
X75622447Y-96125499D01*
X75609417Y-96143434D01*
X75516002Y-96272008D01*
X75433788Y-96433362D01*
X75377828Y-96605593D01*
X75349500Y-96784450D01*
X75349500Y-97215549D01*
X75377828Y-97394406D01*
X75433788Y-97566637D01*
X75501460Y-97699451D01*
X75516004Y-97727994D01*
X75622447Y-97874501D01*
X75750499Y-98002553D01*
X75897006Y-98108996D01*
X76058361Y-98191211D01*
X76230591Y-98247171D01*
X76302136Y-98258502D01*
X76409451Y-98275500D01*
X76409454Y-98275500D01*
X76590549Y-98275500D01*
X76679977Y-98261335D01*
X76769409Y-98247171D01*
X76941639Y-98191211D01*
X77102994Y-98108996D01*
X77249501Y-98002553D01*
X77377553Y-97874501D01*
X77483996Y-97727994D01*
X77566211Y-97566639D01*
X77622171Y-97394409D01*
X77636335Y-97304977D01*
X77650500Y-97215549D01*
X77650500Y-96784450D01*
X77622171Y-96605591D01*
X77616949Y-96589519D01*
X77616948Y-96528334D01*
X77652911Y-96478833D01*
X77711101Y-96459925D01*
X77769292Y-96478831D01*
X77781107Y-96488921D01*
X77820504Y-96528318D01*
X77848281Y-96582835D01*
X77849500Y-96598322D01*
X77849500Y-97768106D01*
X77860123Y-97856565D01*
X77915637Y-97997339D01*
X77915638Y-97997341D01*
X77915639Y-97997342D01*
X78007078Y-98117922D01*
X78127658Y-98209361D01*
X78127659Y-98209361D01*
X78127660Y-98209362D01*
X78198047Y-98237119D01*
X78268436Y-98264877D01*
X78356898Y-98275500D01*
X79157196Y-98275500D01*
X79215387Y-98294407D01*
X79251351Y-98343907D01*
X79256196Y-98374500D01*
X79256196Y-98513548D01*
X79297119Y-98666275D01*
X79376176Y-98803207D01*
X79487980Y-98915011D01*
X79624912Y-98994068D01*
X79777639Y-99034991D01*
X79777641Y-99034991D01*
X79935751Y-99034991D01*
X79935753Y-99034991D01*
X80088480Y-98994068D01*
X80225412Y-98915011D01*
X80310928Y-98829494D01*
X80365443Y-98801719D01*
X80380930Y-98800500D01*
X93710256Y-98800500D01*
X93768447Y-98819407D01*
X93780259Y-98829496D01*
X93831281Y-98880517D01*
X93831284Y-98880520D01*
X93968216Y-98959577D01*
X94120943Y-99000500D01*
X94120945Y-99000500D01*
X94279055Y-99000500D01*
X94279057Y-99000500D01*
X94431784Y-98959577D01*
X94568716Y-98880520D01*
X94594229Y-98855006D01*
X94619741Y-98829496D01*
X94674258Y-98801719D01*
X94689744Y-98800500D01*
X107907499Y-98800500D01*
X107907501Y-98800500D01*
X108009362Y-98773207D01*
X108009364Y-98773205D01*
X108009366Y-98773205D01*
X108100682Y-98720483D01*
X108100682Y-98720482D01*
X108100687Y-98720480D01*
X108180562Y-98640605D01*
X108260437Y-98560731D01*
X108314953Y-98532954D01*
X108330440Y-98531735D01*
X108402594Y-98531735D01*
X108402596Y-98531735D01*
X108555323Y-98490812D01*
X108692255Y-98411755D01*
X108804059Y-98299951D01*
X108883116Y-98163019D01*
X108924039Y-98010292D01*
X108924039Y-97852178D01*
X108883116Y-97699451D01*
X108804059Y-97562519D01*
X108692255Y-97450715D01*
X108555323Y-97371658D01*
X108402596Y-97330735D01*
X108249500Y-97330735D01*
X108191309Y-97311828D01*
X108155345Y-97262328D01*
X108150500Y-97231735D01*
X108150500Y-96231899D01*
X108150499Y-96231893D01*
X108139877Y-96143436D01*
X108084361Y-96002658D01*
X107992922Y-95882078D01*
X107872342Y-95790639D01*
X107872341Y-95790638D01*
X107872339Y-95790637D01*
X107731565Y-95735123D01*
X107643106Y-95724500D01*
X107643102Y-95724500D01*
X106473322Y-95724500D01*
X106415131Y-95705593D01*
X106403318Y-95695504D01*
X105182318Y-94474504D01*
X105154541Y-94419987D01*
X105164112Y-94359555D01*
X105207377Y-94316290D01*
X105252322Y-94305500D01*
X107855948Y-94305500D01*
X107914139Y-94324407D01*
X107950103Y-94373907D01*
X107950103Y-94435093D01*
X107938265Y-94459497D01*
X107906317Y-94507311D01*
X107846296Y-94597137D01*
X107782185Y-94751914D01*
X107782183Y-94751920D01*
X107749500Y-94916230D01*
X107749500Y-95083769D01*
X107782183Y-95248079D01*
X107782185Y-95248085D01*
X107846296Y-95402862D01*
X107846297Y-95402863D01*
X107939374Y-95542162D01*
X108057838Y-95660626D01*
X108197137Y-95753703D01*
X108351918Y-95817816D01*
X108516233Y-95850500D01*
X108516234Y-95850500D01*
X108683766Y-95850500D01*
X108683767Y-95850500D01*
X108848082Y-95817816D01*
X109002863Y-95753703D01*
X109142162Y-95660626D01*
X109260626Y-95542162D01*
X109353703Y-95402863D01*
X109417816Y-95248082D01*
X109450500Y-95083767D01*
X109450500Y-94916233D01*
X109417816Y-94751918D01*
X109353703Y-94597137D01*
X109261736Y-94459499D01*
X109245128Y-94400614D01*
X109266305Y-94343210D01*
X109317179Y-94309217D01*
X109344052Y-94305500D01*
X110150993Y-94305500D01*
X110151000Y-94305500D01*
X110198786Y-94301739D01*
X110229379Y-94296894D01*
X110229384Y-94296893D01*
X110229385Y-94296893D01*
X110241116Y-94294418D01*
X110259754Y-94290487D01*
X110361162Y-94242309D01*
X110410662Y-94206345D01*
X110467919Y-94152177D01*
X110521641Y-94053594D01*
X110540548Y-93995403D01*
X110547931Y-93948789D01*
X110555500Y-93901003D01*
X110555500Y-92555402D01*
X110555499Y-92555396D01*
X110547060Y-92484086D01*
X110536270Y-92439141D01*
X110518680Y-92387058D01*
X110518678Y-92387055D01*
X110455235Y-92294440D01*
X110455233Y-92294438D01*
X110455231Y-92294435D01*
X110433595Y-92272799D01*
X110405820Y-92218285D01*
X110415391Y-92157853D01*
X110433598Y-92132794D01*
X110749873Y-91816520D01*
X110802600Y-91725195D01*
X110829893Y-91623334D01*
X110829893Y-91517880D01*
X110829893Y-89878666D01*
X110802600Y-89776806D01*
X110784148Y-89744847D01*
X110749873Y-89685480D01*
X110675306Y-89610912D01*
X110675306Y-89610913D01*
X110560367Y-89495974D01*
X110532590Y-89441457D01*
X110542161Y-89381025D01*
X110560359Y-89355976D01*
X110846911Y-89069424D01*
X110846913Y-89069423D01*
X110921480Y-88994856D01*
X110964814Y-88919799D01*
X110974207Y-88903531D01*
X111001500Y-88801670D01*
X111001500Y-88696216D01*
X111001500Y-85599500D01*
X111020407Y-85541310D01*
X111069907Y-85505346D01*
X111100500Y-85500501D01*
X111208609Y-85500501D01*
X111208611Y-85500501D01*
X111361338Y-85459578D01*
X111498270Y-85380521D01*
X111610074Y-85268717D01*
X111689131Y-85131785D01*
X111730054Y-84979058D01*
X111730054Y-84906900D01*
X111748961Y-84848709D01*
X111759044Y-84836902D01*
X112845910Y-83750036D01*
X112845913Y-83750035D01*
X112920480Y-83675468D01*
X112973207Y-83584142D01*
X112983255Y-83546643D01*
X113000501Y-83482282D01*
X113000501Y-83376828D01*
X113000501Y-83370766D01*
X113000500Y-83370748D01*
X113000500Y-82162618D01*
X113000500Y-82152730D01*
X113000501Y-82152727D01*
X113000501Y-82047273D01*
X112995349Y-82028049D01*
X112994925Y-82016949D01*
X112998227Y-82005284D01*
X112998228Y-81987535D01*
X113000500Y-81979057D01*
X113000500Y-81820944D01*
X112979498Y-81742564D01*
X112959577Y-81668216D01*
X112880520Y-81531284D01*
X112768716Y-81419480D01*
X112631784Y-81340423D01*
X112479057Y-81299500D01*
X112320943Y-81299500D01*
X112168216Y-81340423D01*
X112031284Y-81419480D01*
X111919480Y-81531284D01*
X111840423Y-81668216D01*
X111799500Y-81820944D01*
X111799500Y-81979056D01*
X111799950Y-81982474D01*
X111799500Y-81984902D01*
X111799500Y-81985546D01*
X111799381Y-81985546D01*
X111788800Y-82042635D01*
X111744418Y-82084753D01*
X111683757Y-82092739D01*
X111631793Y-82065401D01*
X111452615Y-81886223D01*
X110842913Y-81276520D01*
X110842910Y-81276518D01*
X110842908Y-81276516D01*
X110751591Y-81223794D01*
X110751593Y-81223794D01*
X110712070Y-81213204D01*
X110649727Y-81196500D01*
X91955727Y-81196500D01*
X91850273Y-81196500D01*
X91787929Y-81213204D01*
X91748407Y-81223794D01*
X91657091Y-81276516D01*
X89743418Y-83190189D01*
X89688901Y-83217966D01*
X89628469Y-83208395D01*
X89585204Y-83165130D01*
X89575633Y-83104698D01*
X89577788Y-83094561D01*
X89585407Y-83066125D01*
X89585408Y-83066122D01*
X89585408Y-82908010D01*
X89571705Y-82856869D01*
X89544485Y-82755282D01*
X89465428Y-82618350D01*
X89353624Y-82506546D01*
X89216692Y-82427489D01*
X89063965Y-82386566D01*
X88905851Y-82386566D01*
X88764279Y-82424500D01*
X88753124Y-82427489D01*
X88616192Y-82506546D01*
X88504388Y-82618350D01*
X88425331Y-82755282D01*
X88384408Y-82908010D01*
X88384408Y-82980165D01*
X88365501Y-83038356D01*
X88355412Y-83050169D01*
X86078516Y-85327065D01*
X86025795Y-85418380D01*
X86025793Y-85418384D01*
X86025793Y-85418386D01*
X86003791Y-85500501D01*
X85998500Y-85520247D01*
X85998500Y-87836279D01*
X85998500Y-87941733D01*
X86016860Y-88010256D01*
X86025794Y-88043598D01*
X86078516Y-88134914D01*
X86078517Y-88134915D01*
X86078518Y-88134916D01*
X86078520Y-88134919D01*
X86704433Y-88760832D01*
X87269097Y-89325496D01*
X87296874Y-89380013D01*
X87287303Y-89440445D01*
X87244038Y-89483710D01*
X87199093Y-89494500D01*
X84221315Y-89494500D01*
X84157796Y-89501176D01*
X84117537Y-89509734D01*
X84117525Y-89509737D01*
X84072450Y-89523014D01*
X84072441Y-89523017D01*
X83976633Y-89581528D01*
X83976626Y-89581532D01*
X83931165Y-89622467D01*
X83871011Y-89696749D01*
X83855310Y-89723943D01*
X83839580Y-89744443D01*
X83803085Y-89780938D01*
X83782580Y-89796671D01*
X83737887Y-89822474D01*
X83714013Y-89832363D01*
X83679541Y-89841600D01*
X83664166Y-89845720D01*
X83638543Y-89849094D01*
X83586939Y-89849094D01*
X83561315Y-89845720D01*
X83511454Y-89832359D01*
X83487580Y-89822470D01*
X83442893Y-89796671D01*
X83422387Y-89780938D01*
X83385890Y-89744441D01*
X83370161Y-89723942D01*
X83354461Y-89696749D01*
X83316926Y-89645085D01*
X83289381Y-89614492D01*
X83255332Y-89582081D01*
X83190228Y-89546603D01*
X83156750Y-89528359D01*
X83098558Y-89509451D01*
X83098561Y-89509451D01*
X83004158Y-89494500D01*
X83004155Y-89494500D01*
X70184251Y-89494500D01*
X70179223Y-89494565D01*
X70176212Y-89494605D01*
X70171051Y-89494741D01*
X70069594Y-89514925D01*
X70012464Y-89536855D01*
X69943147Y-89574351D01*
X69865738Y-89655668D01*
X69865737Y-89655670D01*
X69832413Y-89706981D01*
X69793534Y-89794306D01*
X69793530Y-89794315D01*
X69778267Y-89851279D01*
X69768378Y-89875155D01*
X69742577Y-89919844D01*
X69726844Y-89940348D01*
X69690348Y-89976844D01*
X69669843Y-89992577D01*
X69625150Y-90018380D01*
X69601276Y-90028269D01*
X69566804Y-90037506D01*
X69551429Y-90041626D01*
X69525806Y-90045000D01*
X69474202Y-90045000D01*
X69448578Y-90041626D01*
X69398717Y-90028265D01*
X69374843Y-90018376D01*
X69330156Y-89992577D01*
X69309650Y-89976844D01*
X69273155Y-89940349D01*
X69257423Y-89919845D01*
X69231620Y-89875153D01*
X69221729Y-89851274D01*
X69206471Y-89794328D01*
X69205294Y-89790153D01*
X69204298Y-89786621D01*
X69202832Y-89781670D01*
X69200432Y-89776803D01*
X69157060Y-89688842D01*
X69157059Y-89688840D01*
X69155472Y-89686656D01*
X69132960Y-89655670D01*
X69121096Y-89639340D01*
X69066924Y-89582079D01*
X68968347Y-89528360D01*
X68968345Y-89528359D01*
X68910152Y-89509451D01*
X68910155Y-89509451D01*
X68815752Y-89494500D01*
X68815749Y-89494500D01*
X66404500Y-89494500D01*
X66346309Y-89475593D01*
X66310345Y-89426093D01*
X66305500Y-89395500D01*
X66305500Y-82546028D01*
X75224585Y-82546028D01*
X75224585Y-82704142D01*
X75265508Y-82856869D01*
X75344565Y-82993801D01*
X75456369Y-83105605D01*
X75593301Y-83184662D01*
X75746028Y-83225585D01*
X75746030Y-83225585D01*
X75904140Y-83225585D01*
X75904142Y-83225585D01*
X76056869Y-83184662D01*
X76193801Y-83105605D01*
X76305605Y-82993801D01*
X76384662Y-82856869D01*
X76425585Y-82704142D01*
X76425585Y-82546028D01*
X76384662Y-82393301D01*
X76305923Y-82256920D01*
X76293203Y-82197076D01*
X76318090Y-82141180D01*
X76321638Y-82137439D01*
X82887632Y-75571446D01*
X82942149Y-75543669D01*
X82957636Y-75542450D01*
X83029790Y-75542450D01*
X83029792Y-75542450D01*
X83182519Y-75501527D01*
X83319451Y-75422470D01*
X83431255Y-75310666D01*
X83510312Y-75173734D01*
X83551235Y-75021007D01*
X83551235Y-74862893D01*
X83510312Y-74710166D01*
X83431255Y-74573234D01*
X83319451Y-74461430D01*
X83182519Y-74382373D01*
X83029792Y-74341450D01*
X82871678Y-74341450D01*
X82718951Y-74382373D01*
X82582019Y-74461430D01*
X82470215Y-74573234D01*
X82391158Y-74710166D01*
X82350235Y-74862894D01*
X82350235Y-74935049D01*
X82331328Y-74993240D01*
X82321239Y-75005053D01*
X75504601Y-81821691D01*
X75451879Y-81913008D01*
X75451878Y-81913010D01*
X75442697Y-81947271D01*
X75442698Y-81947272D01*
X75424585Y-82014873D01*
X75424585Y-82135341D01*
X75405678Y-82193532D01*
X75395589Y-82205344D01*
X75344567Y-82256366D01*
X75344565Y-82256368D01*
X75344565Y-82256369D01*
X75265508Y-82393301D01*
X75224585Y-82546028D01*
X66305500Y-82546028D01*
X66305500Y-74349006D01*
X66305500Y-74349000D01*
X66301739Y-74301214D01*
X66296894Y-74270621D01*
X66290487Y-74240246D01*
X66242309Y-74138838D01*
X66206345Y-74089338D01*
X66152177Y-74032081D01*
X66152176Y-74032080D01*
X66152175Y-74032079D01*
X66053598Y-73978360D01*
X66053596Y-73978359D01*
X65995403Y-73959451D01*
X65995406Y-73959451D01*
X65901003Y-73944500D01*
X65901000Y-73944500D01*
X62291008Y-73944500D01*
X62276025Y-73945088D01*
X62267030Y-73945442D01*
X62251505Y-73946664D01*
X62244527Y-73947294D01*
X62136829Y-73979015D01*
X62082319Y-74006788D01*
X62082310Y-74006794D01*
X62004988Y-74062970D01*
X59613462Y-76454496D01*
X59597189Y-76472100D01*
X59587119Y-76483891D01*
X59587100Y-76483914D01*
X59582581Y-76489331D01*
X59582580Y-76489333D01*
X59582573Y-76489342D01*
X59528860Y-76587909D01*
X59528859Y-76587911D01*
X59509951Y-76646103D01*
X59495000Y-76740504D01*
X59495000Y-77074235D01*
X59494523Y-77083940D01*
X59485175Y-77178840D01*
X59481389Y-77197873D01*
X59444449Y-77319648D01*
X59437022Y-77337579D01*
X59377036Y-77449804D01*
X59366254Y-77465940D01*
X59285528Y-77564305D01*
X59271805Y-77578028D01*
X59173440Y-77658754D01*
X59157304Y-77669536D01*
X59045079Y-77729522D01*
X59027148Y-77736949D01*
X58905373Y-77773889D01*
X58886340Y-77777675D01*
X58803287Y-77785856D01*
X58791439Y-77787023D01*
X58781737Y-77787500D01*
X58448008Y-77787500D01*
X58433025Y-77788088D01*
X58424030Y-77788442D01*
X58408505Y-77789664D01*
X58401527Y-77790294D01*
X58293829Y-77822015D01*
X58239319Y-77849788D01*
X58239310Y-77849794D01*
X58161988Y-77905970D01*
X54062962Y-82004996D01*
X54046689Y-82022600D01*
X54036619Y-82034391D01*
X54036600Y-82034414D01*
X54032081Y-82039831D01*
X54032080Y-82039833D01*
X54032073Y-82039842D01*
X53978360Y-82138409D01*
X53978359Y-82138411D01*
X53959451Y-82196603D01*
X53944500Y-82291004D01*
X50500500Y-82291004D01*
X50500500Y-65406893D01*
X54399500Y-65406893D01*
X54399500Y-66593106D01*
X54410123Y-66681565D01*
X54465637Y-66822339D01*
X54465638Y-66822341D01*
X54465639Y-66822342D01*
X54557078Y-66942922D01*
X54677658Y-67034361D01*
X54677659Y-67034361D01*
X54677660Y-67034362D01*
X54748047Y-67062119D01*
X54818436Y-67089877D01*
X54906898Y-67100500D01*
X54906900Y-67100500D01*
X56093100Y-67100500D01*
X56093102Y-67100500D01*
X56181564Y-67089877D01*
X56322342Y-67034361D01*
X56442922Y-66942922D01*
X56534361Y-66822342D01*
X56589877Y-66681564D01*
X56600500Y-66593102D01*
X56600500Y-65406898D01*
X56589877Y-65318436D01*
X56534361Y-65177658D01*
X56442922Y-65057078D01*
X56322342Y-64965639D01*
X56322341Y-64965638D01*
X56322339Y-64965637D01*
X56181565Y-64910123D01*
X56093106Y-64899500D01*
X56093102Y-64899500D01*
X54906898Y-64899500D01*
X54906893Y-64899500D01*
X54818434Y-64910123D01*
X54677660Y-64965637D01*
X54677656Y-64965640D01*
X54557081Y-65057075D01*
X54557075Y-65057081D01*
X54465640Y-65177656D01*
X54465637Y-65177660D01*
X54410123Y-65318434D01*
X54399500Y-65406893D01*
X50500500Y-65406893D01*
X50500500Y-54599500D01*
X50519407Y-54541309D01*
X50568907Y-54505345D01*
X50599500Y-54500500D01*
X65658450Y-54500500D01*
X65716641Y-54519407D01*
G37*
%TD.AperFunction*%
%TA.AperFunction,Conductor*%
G36*
X110801939Y-64815253D02*
G01*
X110821319Y-64813724D01*
X110831445Y-64819926D01*
X110843173Y-64821784D01*
X110856917Y-64835528D01*
X110873495Y-64845682D01*
X110878041Y-64856651D01*
X110886438Y-64865048D01*
X110896922Y-64902205D01*
X110897155Y-64905165D01*
X110897161Y-64905230D01*
X110897795Y-64912250D01*
X110897795Y-64912252D01*
X110897796Y-64912255D01*
X110897796Y-64912257D01*
X110929515Y-65019947D01*
X110957293Y-65074466D01*
X111013469Y-65151787D01*
X111013475Y-65151794D01*
X111026844Y-65165164D01*
X111042574Y-65185664D01*
X111068376Y-65230355D01*
X111068380Y-65230361D01*
X111078269Y-65254236D01*
X111091626Y-65304082D01*
X111095000Y-65329707D01*
X111095000Y-65381319D01*
X111091626Y-65406944D01*
X111078269Y-65456790D01*
X111068380Y-65480664D01*
X111042577Y-65525357D01*
X111026844Y-65545862D01*
X110990348Y-65582358D01*
X110969843Y-65598091D01*
X110925153Y-65623892D01*
X110901278Y-65633781D01*
X110816238Y-65656568D01*
X110808067Y-65658391D01*
X110804972Y-65658945D01*
X110799489Y-65660597D01*
X110799438Y-65660429D01*
X110792454Y-65662757D01*
X110763344Y-65669746D01*
X110763343Y-65669746D01*
X110711275Y-65687331D01*
X110711263Y-65687337D01*
X110618649Y-65750780D01*
X110597013Y-65772416D01*
X110583043Y-65779533D01*
X110571956Y-65790621D01*
X110556466Y-65793074D01*
X110542496Y-65800192D01*
X110527010Y-65797739D01*
X110511524Y-65800192D01*
X110497552Y-65793073D01*
X110482064Y-65790620D01*
X110457007Y-65772415D01*
X110383662Y-65699070D01*
X110355885Y-65644553D01*
X110365456Y-65584121D01*
X110385626Y-65557154D01*
X110417422Y-65527073D01*
X110471143Y-65428489D01*
X110487836Y-65377109D01*
X110487834Y-65377108D01*
X110494172Y-65357603D01*
X110494174Y-65357599D01*
X110496324Y-65350980D01*
X110498302Y-65341668D01*
X110521731Y-65254228D01*
X110531619Y-65230361D01*
X110557427Y-65185659D01*
X110573159Y-65165159D01*
X110586525Y-65151794D01*
X110602802Y-65134186D01*
X110612891Y-65122374D01*
X110617419Y-65116947D01*
X110650043Y-65057081D01*
X110671139Y-65018368D01*
X110671140Y-65018366D01*
X110690048Y-64960173D01*
X110699229Y-64902205D01*
X110700448Y-64894507D01*
X110709272Y-64877188D01*
X110713806Y-64858285D01*
X110722833Y-64850571D01*
X110728224Y-64839991D01*
X110745544Y-64831165D01*
X110760323Y-64818538D01*
X110772161Y-64817603D01*
X110782741Y-64812213D01*
X110801939Y-64815253D01*
G37*
%TD.AperFunction*%
%TA.AperFunction,Conductor*%
G36*
X110762099Y-63437750D02*
G01*
X110866004Y-63541654D01*
X110893782Y-63596171D01*
X110895001Y-63611658D01*
X110895001Y-63668854D01*
X110895000Y-63668881D01*
X110895000Y-63738470D01*
X110876093Y-63796661D01*
X110826593Y-63832625D01*
X110765407Y-63832625D01*
X110715907Y-63796661D01*
X110701034Y-63766441D01*
X110686497Y-63717086D01*
X110670485Y-63662722D01*
X110642708Y-63608205D01*
X110612001Y-63565941D01*
X110593096Y-63507754D01*
X110612003Y-63449563D01*
X110661503Y-63413599D01*
X110722688Y-63413599D01*
X110762099Y-63437750D01*
G37*
%TD.AperFunction*%
%TA.AperFunction,Conductor*%
G36*
X101351423Y-63208373D02*
G01*
X101419264Y-63226550D01*
X101429093Y-63229743D01*
X101429458Y-63229883D01*
X101442581Y-63236054D01*
X101442847Y-63236204D01*
X101442848Y-63236204D01*
X101442850Y-63236205D01*
X101444716Y-63236898D01*
X101457117Y-63240500D01*
X101458973Y-63241213D01*
X101488508Y-63250861D01*
X101524586Y-63253755D01*
X101581079Y-63277255D01*
X101612297Y-63326815D01*
X101640423Y-63431785D01*
X101643957Y-63437905D01*
X101656678Y-63497753D01*
X101631791Y-63553648D01*
X101624469Y-63560971D01*
X101620781Y-63564292D01*
X101560627Y-63638577D01*
X101542572Y-63669849D01*
X101526843Y-63690348D01*
X101526841Y-63690351D01*
X101490348Y-63726844D01*
X101469843Y-63742577D01*
X101425150Y-63768380D01*
X101401276Y-63778269D01*
X101366804Y-63787506D01*
X101351429Y-63791626D01*
X101325806Y-63795000D01*
X101274202Y-63795000D01*
X101248578Y-63791626D01*
X101198717Y-63778265D01*
X101174843Y-63768376D01*
X101130156Y-63742577D01*
X101109650Y-63726844D01*
X101073154Y-63690348D01*
X101057421Y-63669843D01*
X101031620Y-63625153D01*
X101021730Y-63601276D01*
X101008373Y-63551425D01*
X101005000Y-63525803D01*
X101005000Y-63474195D01*
X101008373Y-63448573D01*
X101021730Y-63398722D01*
X101031618Y-63374848D01*
X101057424Y-63330150D01*
X101073150Y-63309654D01*
X101109654Y-63273150D01*
X101130150Y-63257424D01*
X101174848Y-63231618D01*
X101198722Y-63221730D01*
X101248574Y-63208373D01*
X101274196Y-63205000D01*
X101325800Y-63205000D01*
X101351423Y-63208373D01*
G37*
%TD.AperFunction*%
%TA.AperFunction,Conductor*%
G36*
X99724007Y-59782685D02*
G01*
X99767272Y-59825949D01*
X99777677Y-59862157D01*
X99779758Y-59885643D01*
X99785877Y-59919907D01*
X99794580Y-59955884D01*
X99830543Y-60024500D01*
X99846697Y-60055323D01*
X99883966Y-60102601D01*
X99884575Y-60103374D01*
X99954768Y-60168262D01*
X99987431Y-60190087D01*
X100002433Y-60202397D01*
X100057598Y-60257562D01*
X100069909Y-60272564D01*
X100070718Y-60273774D01*
X100113245Y-60337420D01*
X100122392Y-60354532D01*
X100150022Y-60421237D01*
X100173896Y-60467345D01*
X100185464Y-60485679D01*
X100191780Y-60495691D01*
X100191801Y-60495721D01*
X100212150Y-60524212D01*
X100292680Y-60593206D01*
X100324569Y-60645424D01*
X100319675Y-60706414D01*
X100296307Y-60740303D01*
X100262579Y-60772211D01*
X100208860Y-60870788D01*
X100208859Y-60870790D01*
X100189951Y-60928982D01*
X100175000Y-61023383D01*
X100175000Y-61718998D01*
X100173098Y-61738313D01*
X100157878Y-61814825D01*
X100152244Y-61833396D01*
X100122393Y-61905462D01*
X100113245Y-61922577D01*
X100069909Y-61987434D01*
X100057597Y-62002437D01*
X100002437Y-62057597D01*
X99987434Y-62069909D01*
X99922577Y-62113245D01*
X99905462Y-62122393D01*
X99833396Y-62152244D01*
X99814825Y-62157877D01*
X99738314Y-62173097D01*
X99718999Y-62175000D01*
X99641002Y-62175000D01*
X99621687Y-62173097D01*
X99545171Y-62157876D01*
X99526601Y-62152243D01*
X99454536Y-62122393D01*
X99437419Y-62113244D01*
X99372564Y-62069909D01*
X99357562Y-62057598D01*
X99302399Y-62002435D01*
X99290088Y-61987433D01*
X99246753Y-61922578D01*
X99237604Y-61905461D01*
X99207755Y-61833398D01*
X99202121Y-61814826D01*
X99186902Y-61738313D01*
X99185000Y-61719000D01*
X99185000Y-60540997D01*
X99186902Y-60521684D01*
X99192072Y-60495691D01*
X99202122Y-60445166D01*
X99207752Y-60426605D01*
X99237606Y-60354532D01*
X99246750Y-60337422D01*
X99290091Y-60272559D01*
X99302392Y-60257569D01*
X99357565Y-60202397D01*
X99372554Y-60190096D01*
X99405231Y-60168263D01*
X99447243Y-60134469D01*
X99472333Y-60110345D01*
X99497419Y-60083112D01*
X99512562Y-60055323D01*
X99551139Y-59984533D01*
X99551140Y-59984531D01*
X99570048Y-59926338D01*
X99581282Y-59855409D01*
X99609059Y-59800892D01*
X99663575Y-59773114D01*
X99724007Y-59782685D01*
G37*
%TD.AperFunction*%
%TA.AperFunction,Conductor*%
G36*
X108378313Y-60086902D02*
G01*
X108416570Y-60094511D01*
X108454829Y-60102121D01*
X108473395Y-60107754D01*
X108545460Y-60137603D01*
X108562577Y-60146752D01*
X108627432Y-60190087D01*
X108642434Y-60202398D01*
X108697598Y-60257562D01*
X108709909Y-60272564D01*
X108753244Y-60337419D01*
X108762393Y-60354536D01*
X108792243Y-60426601D01*
X108797876Y-60445171D01*
X108813097Y-60521686D01*
X108815000Y-60541001D01*
X108815000Y-61323088D01*
X108815942Y-61347076D01*
X108817164Y-61362601D01*
X108817794Y-61369579D01*
X108849515Y-61477277D01*
X108877292Y-61531794D01*
X108910900Y-61578052D01*
X108933471Y-61609119D01*
X108933476Y-61609125D01*
X109245905Y-61921555D01*
X109273682Y-61976071D01*
X109264111Y-62036503D01*
X109220846Y-62079768D01*
X109160414Y-62089339D01*
X109125153Y-62076562D01*
X109041773Y-62026783D01*
X109041769Y-62026781D01*
X108984368Y-62005605D01*
X108907520Y-61988092D01*
X108795709Y-61998193D01*
X108795707Y-61998193D01*
X108736819Y-62014802D01*
X108710836Y-62026781D01*
X108650021Y-62054818D01*
X108650019Y-62054819D01*
X108650015Y-62054821D01*
X108562575Y-62113246D01*
X108545460Y-62122394D01*
X108473395Y-62152244D01*
X108454825Y-62157877D01*
X108378314Y-62173097D01*
X108358999Y-62175000D01*
X108281002Y-62175000D01*
X108261687Y-62173097D01*
X108185171Y-62157876D01*
X108166601Y-62152243D01*
X108094536Y-62122393D01*
X108077419Y-62113244D01*
X108012564Y-62069909D01*
X107997562Y-62057598D01*
X107942399Y-62002435D01*
X107930088Y-61987433D01*
X107886753Y-61922578D01*
X107877604Y-61905461D01*
X107847755Y-61833398D01*
X107842121Y-61814826D01*
X107826902Y-61738313D01*
X107825000Y-61719000D01*
X107825000Y-61023388D01*
X107825000Y-61023387D01*
X107816560Y-60952072D01*
X107805770Y-60907127D01*
X107793497Y-60870788D01*
X107788181Y-60855046D01*
X107788178Y-60855041D01*
X107724735Y-60762426D01*
X107724733Y-60762424D01*
X107724731Y-60762421D01*
X107700534Y-60738224D01*
X107672759Y-60683710D01*
X107682330Y-60623278D01*
X107708355Y-60591191D01*
X107760296Y-60549264D01*
X107800033Y-60502739D01*
X107849976Y-60421240D01*
X107877610Y-60354523D01*
X107886753Y-60337418D01*
X107930089Y-60272561D01*
X107942393Y-60257568D01*
X107997565Y-60202396D01*
X108012555Y-60190095D01*
X108077429Y-60146746D01*
X108094530Y-60137606D01*
X108166605Y-60107752D01*
X108185166Y-60102122D01*
X108235444Y-60092121D01*
X108261685Y-60086902D01*
X108280998Y-60085000D01*
X108359000Y-60085000D01*
X108378313Y-60086902D01*
G37*
%TD.AperFunction*%
%TA.AperFunction,Conductor*%
G36*
X101351424Y-59308373D02*
G01*
X101401278Y-59321731D01*
X101425155Y-59331621D01*
X101454008Y-59348278D01*
X101498252Y-59373823D01*
X101526737Y-59388337D01*
X101545643Y-59396755D01*
X101559548Y-59402540D01*
X101559552Y-59402540D01*
X101559553Y-59402541D01*
X101669907Y-59423170D01*
X101700500Y-59423170D01*
X101758691Y-59442077D01*
X101794655Y-59491577D01*
X101799500Y-59522170D01*
X101799500Y-60273774D01*
X101780593Y-60331965D01*
X101731093Y-60367929D01*
X101669907Y-60367929D01*
X101620407Y-60331965D01*
X101614764Y-60323275D01*
X101570516Y-60246637D01*
X101570515Y-60246635D01*
X101463365Y-60139485D01*
X101463362Y-60139483D01*
X101463360Y-60139481D01*
X101332138Y-60063720D01*
X101332139Y-60063720D01*
X101206248Y-60029988D01*
X101154933Y-59996664D01*
X101138133Y-59966206D01*
X101135388Y-59958126D01*
X101130672Y-59928051D01*
X101110248Y-59870375D01*
X101097772Y-59847402D01*
X101095059Y-59839416D01*
X101094999Y-59834930D01*
X101084051Y-59815967D01*
X101031617Y-59725149D01*
X101021729Y-59701273D01*
X101008373Y-59651424D01*
X101005000Y-59625803D01*
X101005000Y-59574195D01*
X101008373Y-59548573D01*
X101021730Y-59498722D01*
X101031618Y-59474848D01*
X101057424Y-59430150D01*
X101073150Y-59409654D01*
X101109654Y-59373150D01*
X101130150Y-59357424D01*
X101174848Y-59331618D01*
X101198722Y-59321730D01*
X101248574Y-59308373D01*
X101274196Y-59305000D01*
X101325802Y-59305000D01*
X101351424Y-59308373D01*
G37*
%TD.AperFunction*%
%TA.AperFunction,Conductor*%
G36*
X99738313Y-56156902D02*
G01*
X99776570Y-56164511D01*
X99814829Y-56172121D01*
X99833395Y-56177754D01*
X99905460Y-56207603D01*
X99922577Y-56216752D01*
X99971587Y-56249500D01*
X99987432Y-56260087D01*
X100002434Y-56272398D01*
X100057598Y-56327562D01*
X100069909Y-56342564D01*
X100113244Y-56407418D01*
X100122393Y-56424534D01*
X100152245Y-56496603D01*
X100157879Y-56515175D01*
X100173098Y-56591685D01*
X100175000Y-56610999D01*
X100175000Y-57288998D01*
X100173098Y-57308313D01*
X100157878Y-57384825D01*
X100152244Y-57403396D01*
X100122393Y-57475462D01*
X100113245Y-57492577D01*
X100069909Y-57557434D01*
X100057597Y-57572437D01*
X100002437Y-57627597D01*
X99987436Y-57639907D01*
X99954786Y-57661723D01*
X99954770Y-57661735D01*
X99912770Y-57695518D01*
X99912763Y-57695524D01*
X99887678Y-57719642D01*
X99887669Y-57719652D01*
X99862580Y-57746888D01*
X99862578Y-57746890D01*
X99808860Y-57845465D01*
X99808859Y-57845467D01*
X99789951Y-57903658D01*
X99778717Y-57974589D01*
X99750939Y-58029105D01*
X99696422Y-58056882D01*
X99635990Y-58047310D01*
X99592726Y-58004045D01*
X99582322Y-57967834D01*
X99580243Y-57944359D01*
X99580243Y-57944358D01*
X99579496Y-57940178D01*
X99574124Y-57910093D01*
X99565417Y-57874102D01*
X99565416Y-57874099D01*
X99527815Y-57802366D01*
X99513294Y-57774663D01*
X99475414Y-57726613D01*
X99452795Y-57705705D01*
X99405227Y-57661734D01*
X99405220Y-57661728D01*
X99372564Y-57639909D01*
X99357561Y-57627597D01*
X99302403Y-57572440D01*
X99302401Y-57572437D01*
X99290093Y-57557441D01*
X99246750Y-57492574D01*
X99237604Y-57475461D01*
X99207755Y-57403398D01*
X99202121Y-57384826D01*
X99186902Y-57308313D01*
X99185000Y-57289000D01*
X99185000Y-56610997D01*
X99186902Y-56591684D01*
X99202121Y-56515170D01*
X99207752Y-56496605D01*
X99237606Y-56424531D01*
X99246750Y-56407422D01*
X99290091Y-56342559D01*
X99302392Y-56327569D01*
X99357565Y-56272396D01*
X99372555Y-56260095D01*
X99437429Y-56216746D01*
X99454530Y-56207606D01*
X99526605Y-56177752D01*
X99545166Y-56172122D01*
X99595444Y-56162121D01*
X99621685Y-56156902D01*
X99640998Y-56155000D01*
X99719000Y-56155000D01*
X99738313Y-56156902D01*
G37*
%TD.AperFunction*%
%TA.AperFunction,Conductor*%
G36*
X86551427Y-57308373D02*
G01*
X86601277Y-57321730D01*
X86625153Y-57331620D01*
X86669843Y-57357421D01*
X86690348Y-57373154D01*
X86726844Y-57409650D01*
X86742577Y-57430155D01*
X86768380Y-57474848D01*
X86778269Y-57498722D01*
X86786736Y-57530322D01*
X86791626Y-57548568D01*
X86795000Y-57574193D01*
X86795000Y-57625805D01*
X86791626Y-57651430D01*
X86778269Y-57701276D01*
X86768380Y-57725150D01*
X86742577Y-57769843D01*
X86726844Y-57790348D01*
X86690348Y-57826844D01*
X86669843Y-57842577D01*
X86625150Y-57868380D01*
X86601276Y-57878269D01*
X86566804Y-57887506D01*
X86551429Y-57891626D01*
X86525806Y-57895000D01*
X86474202Y-57895000D01*
X86448578Y-57891626D01*
X86398717Y-57878265D01*
X86374843Y-57868376D01*
X86330156Y-57842577D01*
X86309650Y-57826844D01*
X86273154Y-57790348D01*
X86257421Y-57769843D01*
X86244169Y-57746890D01*
X86231620Y-57725153D01*
X86231619Y-57725150D01*
X86221730Y-57701276D01*
X86208373Y-57651425D01*
X86205000Y-57625803D01*
X86205000Y-57574195D01*
X86208373Y-57548573D01*
X86221730Y-57498722D01*
X86231618Y-57474848D01*
X86257424Y-57430150D01*
X86273150Y-57409654D01*
X86309654Y-57373150D01*
X86330150Y-57357424D01*
X86374848Y-57331618D01*
X86398722Y-57321730D01*
X86403429Y-57320469D01*
X86410838Y-57318483D01*
X86448574Y-57308373D01*
X86474196Y-57305000D01*
X86525804Y-57305000D01*
X86551427Y-57308373D01*
G37*
%TD.AperFunction*%
%TA.AperFunction,Conductor*%
G36*
X113958691Y-54519407D02*
G01*
X113994655Y-54568907D01*
X113999500Y-54599500D01*
X113999500Y-57320469D01*
X113980593Y-57378660D01*
X113931093Y-57414624D01*
X113914391Y-57417262D01*
X113914550Y-57418273D01*
X113795939Y-57436869D01*
X113795926Y-57436872D01*
X113738270Y-57457288D01*
X113738263Y-57457291D01*
X113738262Y-57457292D01*
X113716787Y-57468951D01*
X113654255Y-57502902D01*
X113654244Y-57502909D01*
X113560216Y-57575062D01*
X113549448Y-57582258D01*
X113345551Y-57699978D01*
X113333936Y-57705705D01*
X113116427Y-57795799D01*
X113104165Y-57799962D01*
X112876753Y-57860897D01*
X112864052Y-57863423D01*
X112630641Y-57894153D01*
X112617719Y-57895000D01*
X112382281Y-57895000D01*
X112369359Y-57894153D01*
X112135947Y-57863423D01*
X112123246Y-57860897D01*
X111895832Y-57799962D01*
X111883577Y-57795802D01*
X111740975Y-57736734D01*
X111666055Y-57705702D01*
X111654444Y-57699976D01*
X111450540Y-57582251D01*
X111439791Y-57575068D01*
X111259689Y-57436872D01*
X111253014Y-57431750D01*
X111243278Y-57423212D01*
X111076791Y-57256726D01*
X111068252Y-57246989D01*
X111027034Y-57193273D01*
X110924923Y-57060199D01*
X110917745Y-57049457D01*
X110800019Y-56845551D01*
X110794297Y-56833945D01*
X110749576Y-56725978D01*
X110704197Y-56616422D01*
X110700038Y-56604173D01*
X110639097Y-56376739D01*
X110636575Y-56364056D01*
X110605847Y-56130641D01*
X110605000Y-56117720D01*
X110605000Y-55882277D01*
X110605847Y-55869356D01*
X110619141Y-55768376D01*
X110636576Y-55635938D01*
X110639097Y-55623261D01*
X110700039Y-55395819D01*
X110704195Y-55383580D01*
X110794298Y-55166049D01*
X110800025Y-55154437D01*
X110917734Y-54950558D01*
X110924926Y-54939795D01*
X110997096Y-54845743D01*
X111025087Y-54802018D01*
X111040700Y-54772344D01*
X111055209Y-54740452D01*
X111075839Y-54630093D01*
X111075839Y-54599500D01*
X111094746Y-54541309D01*
X111144246Y-54505345D01*
X111174839Y-54500500D01*
X113900500Y-54500500D01*
X113958691Y-54519407D01*
G37*
%TD.AperFunction*%
%TA.AperFunction,Conductor*%
G36*
X108503075Y-56268407D02*
G01*
X108514888Y-56278496D01*
X108691504Y-56455112D01*
X108719281Y-56509629D01*
X108720500Y-56525116D01*
X108720500Y-57193273D01*
X108720500Y-57298727D01*
X108746131Y-57394384D01*
X108747794Y-57400591D01*
X108755870Y-57414578D01*
X108756664Y-57418315D01*
X108759308Y-57421077D01*
X108762960Y-57447931D01*
X108768593Y-57474426D01*
X108767038Y-57477916D01*
X108767554Y-57481704D01*
X108759989Y-57493750D01*
X108743708Y-57530322D01*
X108738589Y-57535600D01*
X108733744Y-57540236D01*
X108719317Y-57550719D01*
X108641685Y-57628349D01*
X108640891Y-57629110D01*
X108640167Y-57629458D01*
X108627438Y-57639906D01*
X108561992Y-57683635D01*
X108546680Y-57692015D01*
X108541147Y-57694436D01*
X108534085Y-57697692D01*
X108534084Y-57697693D01*
X108463504Y-57746888D01*
X108445982Y-57759101D01*
X108424347Y-57780735D01*
X108369833Y-57808511D01*
X108309401Y-57798940D01*
X108284342Y-57780734D01*
X107948496Y-57444888D01*
X107920719Y-57390371D01*
X107919500Y-57374884D01*
X107919500Y-56816331D01*
X107919500Y-56816330D01*
X107895291Y-56725978D01*
X107895291Y-56725977D01*
X107895291Y-56725976D01*
X107892207Y-56714470D01*
X107892205Y-56714465D01*
X107839483Y-56623148D01*
X107839481Y-56623146D01*
X107839480Y-56623144D01*
X107766944Y-56550608D01*
X107759117Y-56535246D01*
X107747329Y-56522667D01*
X107745575Y-56508666D01*
X107739169Y-56496094D01*
X107741866Y-56479063D01*
X107739723Y-56461956D01*
X107746532Y-56449599D01*
X107748740Y-56435662D01*
X107760932Y-56423469D01*
X107769254Y-56408369D01*
X107780464Y-56403937D01*
X107792005Y-56392397D01*
X107824643Y-56382375D01*
X107830770Y-56381607D01*
X107908832Y-56381608D01*
X107970813Y-56365000D01*
X108010695Y-56354314D01*
X108102020Y-56301587D01*
X108125112Y-56278494D01*
X108179627Y-56250719D01*
X108195114Y-56249500D01*
X108444884Y-56249500D01*
X108503075Y-56268407D01*
G37*
%TD.AperFunction*%
%TA.AperFunction,Conductor*%
G36*
X79051427Y-55508373D02*
G01*
X79101277Y-55521730D01*
X79125153Y-55531620D01*
X79144131Y-55542577D01*
X79169843Y-55557421D01*
X79190348Y-55573154D01*
X79226844Y-55609650D01*
X79242577Y-55630155D01*
X79268380Y-55674848D01*
X79278269Y-55698722D01*
X79290020Y-55742577D01*
X79291626Y-55748568D01*
X79295000Y-55774193D01*
X79295000Y-55825805D01*
X79291626Y-55851430D01*
X79278269Y-55901276D01*
X79268380Y-55925150D01*
X79242577Y-55969843D01*
X79226844Y-55990348D01*
X79190348Y-56026844D01*
X79169843Y-56042577D01*
X79125150Y-56068380D01*
X79101276Y-56078269D01*
X79066804Y-56087506D01*
X79051429Y-56091626D01*
X79025806Y-56095000D01*
X78974202Y-56095000D01*
X78948578Y-56091626D01*
X78898717Y-56078265D01*
X78874843Y-56068376D01*
X78830156Y-56042577D01*
X78809650Y-56026844D01*
X78773154Y-55990348D01*
X78757421Y-55969843D01*
X78731620Y-55925153D01*
X78731619Y-55925150D01*
X78721730Y-55901276D01*
X78708373Y-55851425D01*
X78705000Y-55825803D01*
X78705000Y-55774195D01*
X78708373Y-55748573D01*
X78721730Y-55698722D01*
X78731618Y-55674848D01*
X78757424Y-55630150D01*
X78773150Y-55609654D01*
X78809654Y-55573150D01*
X78830150Y-55557424D01*
X78874848Y-55531618D01*
X78898722Y-55521730D01*
X78948574Y-55508373D01*
X78974196Y-55505000D01*
X79025804Y-55505000D01*
X79051427Y-55508373D01*
G37*
%TD.AperFunction*%
%TA.AperFunction,Conductor*%
G36*
X92451427Y-55208373D02*
G01*
X92501277Y-55221730D01*
X92525153Y-55231620D01*
X92569843Y-55257421D01*
X92590348Y-55273154D01*
X92626840Y-55309646D01*
X92642572Y-55330149D01*
X92668379Y-55374847D01*
X92678268Y-55398722D01*
X92678269Y-55398724D01*
X92691626Y-55448571D01*
X92695000Y-55474195D01*
X92695000Y-55525805D01*
X92691626Y-55551430D01*
X92678269Y-55601276D01*
X92668380Y-55625150D01*
X92642577Y-55669843D01*
X92626844Y-55690348D01*
X92590348Y-55726844D01*
X92569843Y-55742577D01*
X92525150Y-55768380D01*
X92501276Y-55778269D01*
X92466804Y-55787506D01*
X92451429Y-55791626D01*
X92425806Y-55795000D01*
X92374202Y-55795000D01*
X92348578Y-55791626D01*
X92298717Y-55778265D01*
X92274843Y-55768376D01*
X92230156Y-55742577D01*
X92209650Y-55726844D01*
X92173154Y-55690348D01*
X92157421Y-55669843D01*
X92156576Y-55668380D01*
X92131620Y-55625153D01*
X92121730Y-55601276D01*
X92108373Y-55551425D01*
X92105000Y-55525803D01*
X92105000Y-55474195D01*
X92108373Y-55448573D01*
X92121046Y-55401276D01*
X92121730Y-55398721D01*
X92131619Y-55374847D01*
X92157424Y-55330150D01*
X92173150Y-55309654D01*
X92209654Y-55273150D01*
X92230150Y-55257424D01*
X92274848Y-55231618D01*
X92298722Y-55221730D01*
X92348574Y-55208373D01*
X92374196Y-55205000D01*
X92425804Y-55205000D01*
X92451427Y-55208373D01*
G37*
%TD.AperFunction*%
%TA.AperFunction,Conductor*%
G36*
X87051427Y-55108373D02*
G01*
X87101277Y-55121730D01*
X87125153Y-55131620D01*
X87169843Y-55157421D01*
X87190348Y-55173154D01*
X87226844Y-55209650D01*
X87242577Y-55230155D01*
X87268380Y-55274848D01*
X87278269Y-55298722D01*
X87289018Y-55338838D01*
X87291626Y-55348568D01*
X87295000Y-55374193D01*
X87295000Y-55425804D01*
X87291626Y-55451425D01*
X87289018Y-55461161D01*
X87289018Y-55461162D01*
X87278268Y-55501278D01*
X87268379Y-55525152D01*
X87242577Y-55569843D01*
X87226844Y-55590348D01*
X87190348Y-55626844D01*
X87169843Y-55642577D01*
X87125150Y-55668380D01*
X87101276Y-55678269D01*
X87090585Y-55681134D01*
X87051429Y-55691626D01*
X87025806Y-55695000D01*
X86974202Y-55695000D01*
X86948578Y-55691626D01*
X86898717Y-55678265D01*
X86874843Y-55668376D01*
X86830156Y-55642577D01*
X86809650Y-55626844D01*
X86773154Y-55590348D01*
X86757421Y-55569843D01*
X86756576Y-55568380D01*
X86731620Y-55525153D01*
X86721730Y-55501276D01*
X86708373Y-55451425D01*
X86705000Y-55425803D01*
X86705000Y-55374195D01*
X86708373Y-55348573D01*
X86721730Y-55298722D01*
X86731618Y-55274848D01*
X86757424Y-55230150D01*
X86773150Y-55209654D01*
X86809654Y-55173150D01*
X86830150Y-55157424D01*
X86874848Y-55131618D01*
X86898722Y-55121730D01*
X86948574Y-55108373D01*
X86974196Y-55105000D01*
X87025804Y-55105000D01*
X87051427Y-55108373D01*
G37*
%TD.AperFunction*%
%TA.AperFunction,Conductor*%
G36*
X101551427Y-55008373D02*
G01*
X101601277Y-55021730D01*
X101625153Y-55031620D01*
X101669843Y-55057421D01*
X101690348Y-55073154D01*
X101726844Y-55109650D01*
X101742577Y-55130155D01*
X101768380Y-55174848D01*
X101778269Y-55198722D01*
X101787084Y-55231620D01*
X101791626Y-55248568D01*
X101795000Y-55274193D01*
X101795000Y-55325805D01*
X101791626Y-55351430D01*
X101778269Y-55401276D01*
X101768380Y-55425150D01*
X101742577Y-55469843D01*
X101726844Y-55490348D01*
X101690348Y-55526844D01*
X101669843Y-55542577D01*
X101625150Y-55568380D01*
X101601276Y-55578269D01*
X101590585Y-55581134D01*
X101551429Y-55591626D01*
X101525806Y-55595000D01*
X101474202Y-55595000D01*
X101448578Y-55591626D01*
X101398717Y-55578265D01*
X101374843Y-55568376D01*
X101330156Y-55542577D01*
X101309650Y-55526844D01*
X101273154Y-55490348D01*
X101257421Y-55469843D01*
X101246789Y-55451428D01*
X101231620Y-55425153D01*
X101231619Y-55425150D01*
X101221730Y-55401276D01*
X101208373Y-55351425D01*
X101205000Y-55325803D01*
X101205000Y-55274195D01*
X101208373Y-55248573D01*
X101221730Y-55198722D01*
X101231618Y-55174848D01*
X101257424Y-55130150D01*
X101273150Y-55109654D01*
X101309654Y-55073150D01*
X101330150Y-55057424D01*
X101374848Y-55031618D01*
X101398722Y-55021730D01*
X101448574Y-55008373D01*
X101474196Y-55005000D01*
X101525804Y-55005000D01*
X101551427Y-55008373D01*
G37*
%TD.AperFunction*%
%TD*%
M02*
