M48
; DRILL file {KiCad 9.0.7} date 2026-01-15T01:55:43+1100
; FORMAT={-:-/ absolute / inch / decimal}
; #@! TF.CreationDate,2026-01-15T01:55:43+11:00
; #@! TF.GenerationSoftware,Kicad,Pcbnew,9.0.7
; #@! TF.FileFunction,Plated,1,2,PTH
FMAT,2
INCH
; #@! TA.AperFunction,Plated,PTH,ViaDrill
T1C0.0118
; #@! TA.AperFunction,Plated,PTH,ComponentDrill
T2C0.0118
; #@! TA.AperFunction,Plated,PTH,ComponentDrill
T3C0.0236
; #@! TA.AperFunction,Plated,PTH,ComponentDrill
T4C0.0315
; #@! TA.AperFunction,Plated,PTH,ComponentDrill
T5C0.0374
; #@! TA.AperFunction,Plated,PTH,ComponentDrill
T6C0.0394
; #@! TA.AperFunction,Plated,PTH,ComponentDrill
T7C0.0433
; #@! TA.AperFunction,Plated,PTH,ComponentDrill
T8C0.0866
%
G90
G05
T1
X2.0236Y-2.7717
X2.0236Y-2.9528
X2.0315Y-3.2126
X2.2835Y-2.6693
X2.3071Y-2.2992
X2.3524Y-3.2963
X2.3789Y-3.5734
X2.4094Y-2.7638
X2.4409Y-2.2598
X2.5012Y-3.5138
X2.5197Y-2.5591
X2.5591Y-3.5138
X2.5669Y-3.7441
X2.6378Y-2.5591
X2.6969Y-3.563
X2.7362Y-3.5335
X2.9301Y-3.5734
X2.9852Y-3.253
X3.0079Y-2.2205
X3.0512Y-2.5394
X3.0524Y-3.4941
X3.063Y-3.0866
X3.1102Y-2.1969
X3.1102Y-3.4941
X3.1102Y-3.7441
X3.1339Y-3.1339
X3.144Y-3.8754
X3.1882Y-2.3898
X3.248Y-3.563
X3.2658Y-2.9505
X3.2918Y-3.5258
X3.3465Y-2.5394
X3.3563Y-3.2185
X3.4055Y-2.2677
X3.4055Y-2.6772
X3.4097Y-2.3933
X3.4173Y-3.6732
X3.4212Y-2.7844
X3.4252Y-2.1811
X3.4252Y-3.4055
X3.4449Y-2.8051
X3.4646Y-3.4055
X3.5033Y-3.2672
X3.5039Y-2.6772
X3.5472Y-3.4291
X3.5591Y-2.7559
X3.5785Y-3.6335
X3.602Y-3.5138
X3.6378Y-2.185
X3.6496Y-3.7362
X3.6598Y-3.5138
X3.6693Y-3.2441
X3.6929Y-2.5354
X3.7087Y-2.6811
X3.7087Y-3.874
X3.7257Y-2.4574
X3.7638Y-3.252
X3.764Y-2.5198
X3.7687Y-3.4223
X3.7795Y-3.563
X3.7904Y-2.373
X3.7957Y-3.4622
X3.8071Y-2.4478
X3.8268Y-2.685
X3.878Y-2.2835
X3.878Y-2.3425
X3.878Y-3.3858
X3.9715Y-3.2687
X3.9764Y-2.8051
X3.9882Y-2.3465
X3.9882Y-2.5
X3.9961Y-2.1772
X4.0079Y-2.8268
X4.0236Y-2.4882
X4.0236Y-3.1181
X4.0325Y-3.5734
X4.0748Y-3.2677
X4.0787Y-2.6998
X4.0827Y-2.3819
X4.1063Y-2.3582
X4.1102Y-2.811
X4.122Y-2.3268
X4.1339Y-3.2677
X4.1339Y-3.3858
X4.1381Y-2.5004
X4.1417Y-2.8031
X4.1547Y-3.5138
X4.1732Y-2.2126
X4.1732Y-3.2677
X4.1929Y-3.7362
X4.2126Y-3.2677
X4.2126Y-3.5138
X4.2441Y-2.8583
X4.2612Y-3.5561
X4.2647Y-3.8556
X4.2756Y-2.7874
X4.2913Y-3.4252
X4.2913Y-3.6614
X4.3268Y-2.8071
X4.3307Y-3.4843
X4.3504Y-2.8307
X4.3508Y-2.3563
X4.3622Y-2.5731
X4.3752Y-3.3425
X4.3878Y-2.6683
X4.3931Y-2.8379
X4.3937Y-2.9291
X4.3937Y-3.0866
X4.3947Y-2.3553
X4.4094Y-3.2677
X4.4163Y-2.688
X4.4252Y-3.2244
X4.4331Y-2.811
T2
X2.6965Y-3.061
X2.6965Y-3.124
X2.7398Y-3.061
X2.7398Y-3.124
X2.7791Y-3.061
X2.7791Y-3.124
T4
X2.185Y-2.4606
X2.185Y-2.5984
X2.185Y-3.3858
X2.185Y-3.5236
T5
X2.2638Y-3.8189
X2.3622Y-3.8189
X2.4606Y-3.8189
X2.5591Y-3.8189
X2.815Y-3.8189
X2.9134Y-3.8189
X3.0118Y-3.8189
X3.1102Y-3.8189
X3.3661Y-3.8189
X3.4646Y-3.8189
X3.563Y-3.8189
X3.6614Y-3.8189
X3.9173Y-3.8189
X4.0157Y-3.8189
X4.1142Y-3.8189
X4.2126Y-3.8189
T6
X3.563Y-2.4502
X3.563Y-2.5502
T7
X3.1882Y-2.2622
X3.2882Y-2.2622
T8
X2.0472Y-2.2047
X2.0472Y-3.8583
X4.4291Y-2.2047
X4.4291Y-3.8583
T3
G00X3.9244Y-2.2539
M15
G01X3.9244Y-2.2303
M16
G05
G00X3.9244Y-2.4283
M15
G01X3.9244Y-2.385
M16
G05
G00X4.2646Y-2.2539
M15
G01X4.2646Y-2.2303
M16
G05
G00X4.2646Y-2.4283
M15
G01X4.2646Y-2.385
M16
G05
T6
G00X2.2835Y-2.9544
M15
G01X2.2835Y-3.0332
M16
G05
G00X2.3622Y-3.1788
M15
G01X2.4409Y-3.1788
M16
G05
G00X2.5197Y-2.9544
M15
G01X2.5197Y-3.0332
M16
G05
M30
