%TF.GenerationSoftware,KiCad,Pcbnew,9.0.7*%
%TF.CreationDate,2026-01-15T01:55:43+11:00*%
%TF.ProjectId,Active-Dampers,41637469-7665-42d4-9461-6d706572732e,rev?*%
%TF.SameCoordinates,Original*%
%TF.FileFunction,Soldermask,Top*%
%TF.FilePolarity,Negative*%
%FSLAX46Y46*%
G04 Gerber Fmt 4.6, Leading zero omitted, Abs format (unit mm)*
G04 Created by KiCad (PCBNEW 9.0.7) date 2026-01-15 01:55:43*
%MOMM*%
%LPD*%
G01*
G04 APERTURE LIST*
G04 Aperture macros list*
%AMRoundRect*
0 Rectangle with rounded corners*
0 $1 Rounding radius*
0 $2 $3 $4 $5 $6 $7 $8 $9 X,Y pos of 4 corners*
0 Add a 4 corners polygon primitive as box body*
4,1,4,$2,$3,$4,$5,$6,$7,$8,$9,$2,$3,0*
0 Add four circle primitives for the rounded corners*
1,1,$1+$1,$2,$3*
1,1,$1+$1,$4,$5*
1,1,$1+$1,$6,$7*
1,1,$1+$1,$8,$9*
0 Add four rect primitives between the rounded corners*
20,1,$1+$1,$2,$3,$4,$5,0*
20,1,$1+$1,$4,$5,$6,$7,0*
20,1,$1+$1,$6,$7,$8,$9,0*
20,1,$1+$1,$8,$9,$2,$3,0*%
%AMOutline5P*
0 Free polygon, 5 corners , with rotation*
0 The origin of the aperture is its center*
0 number of corners: always 5*
0 $1 to $10 corner X, Y*
0 $11 Rotation angle, in degrees counterclockwise*
0 create outline with 5 corners*
4,1,5,$1,$2,$3,$4,$5,$6,$7,$8,$9,$10,$1,$2,$11*%
%AMOutline6P*
0 Free polygon, 6 corners , with rotation*
0 The origin of the aperture is its center*
0 number of corners: always 6*
0 $1 to $12 corner X, Y*
0 $13 Rotation angle, in degrees counterclockwise*
0 create outline with 6 corners*
4,1,6,$1,$2,$3,$4,$5,$6,$7,$8,$9,$10,$11,$12,$1,$2,$13*%
%AMOutline7P*
0 Free polygon, 7 corners , with rotation*
0 The origin of the aperture is its center*
0 number of corners: always 7*
0 $1 to $14 corner X, Y*
0 $15 Rotation angle, in degrees counterclockwise*
0 create outline with 7 corners*
4,1,7,$1,$2,$3,$4,$5,$6,$7,$8,$9,$10,$11,$12,$13,$14,$1,$2,$15*%
%AMOutline8P*
0 Free polygon, 8 corners , with rotation*
0 The origin of the aperture is its center*
0 number of corners: always 8*
0 $1 to $16 corner X, Y*
0 $17 Rotation angle, in degrees counterclockwise*
0 create outline with 8 corners*
4,1,8,$1,$2,$3,$4,$5,$6,$7,$8,$9,$10,$11,$12,$13,$14,$15,$16,$1,$2,$17*%
G04 Aperture macros list end*
%ADD10C,0.000000*%
%ADD11RoundRect,0.250000X0.275000X0.750000X-0.275000X0.750000X-0.275000X-0.750000X0.275000X-0.750000X0*%
%ADD12RoundRect,0.218750X-0.218750X-0.256250X0.218750X-0.256250X0.218750X0.256250X-0.218750X0.256250X0*%
%ADD13RoundRect,0.218750X0.218750X0.256250X-0.218750X0.256250X-0.218750X-0.256250X0.218750X-0.256250X0*%
%ADD14RoundRect,0.200000X0.200000X0.275000X-0.200000X0.275000X-0.200000X-0.275000X0.200000X-0.275000X0*%
%ADD15RoundRect,0.225000X0.225000X0.250000X-0.225000X0.250000X-0.225000X-0.250000X0.225000X-0.250000X0*%
%ADD16RoundRect,0.225000X0.250000X-0.225000X0.250000X0.225000X-0.250000X0.225000X-0.250000X-0.225000X0*%
%ADD17RoundRect,0.260556X-1.027444X-0.677444X1.027444X-0.677444X1.027444X0.677444X-1.027444X0.677444X0*%
%ADD18RoundRect,0.087500X-0.225000X-0.087500X0.225000X-0.087500X0.225000X0.087500X-0.225000X0.087500X0*%
%ADD19RoundRect,0.087500X-0.087500X-0.225000X0.087500X-0.225000X0.087500X0.225000X-0.087500X0.225000X0*%
%ADD20C,1.600000*%
%ADD21RoundRect,0.250000X-0.550000X0.550000X-0.550000X-0.550000X0.550000X-0.550000X0.550000X0.550000X0*%
%ADD22RoundRect,0.250000X0.550000X-0.550000X0.550000X0.550000X-0.550000X0.550000X-0.550000X-0.550000X0*%
%ADD23C,2.200000*%
%ADD24RoundRect,0.249999X0.850001X0.850001X-0.850001X0.850001X-0.850001X-0.850001X0.850001X-0.850001X0*%
%ADD25RoundRect,0.875000X-0.875000X-0.875000X0.875000X-0.875000X0.875000X0.875000X-0.875000X0.875000X0*%
%ADD26RoundRect,0.750000X-0.750000X-1.000000X0.750000X-1.000000X0.750000X1.000000X-0.750000X1.000000X0*%
%ADD27R,3.500000X3.500000*%
%ADD28RoundRect,0.225000X-0.250000X0.225000X-0.250000X-0.225000X0.250000X-0.225000X0.250000X0.225000X0*%
%ADD29R,1.470000X0.895000*%
%ADD30R,1.050000X0.450000*%
%ADD31R,0.400000X0.800000*%
%ADD32R,0.800000X0.400000*%
%ADD33Outline5P,-0.600000X0.204000X-0.204000X0.600000X0.600000X0.600000X0.600000X-0.600000X-0.600000X-0.600000X270.000000*%
%ADD34R,1.200000X1.200000*%
%ADD35R,0.800000X0.800000*%
%ADD36R,1.000000X2.500000*%
%ADD37O,1.700000X1.950000*%
%ADD38RoundRect,0.250000X0.600000X0.725000X-0.600000X0.725000X-0.600000X-0.725000X0.600000X-0.725000X0*%
%ADD39R,1.700000X1.700000*%
%ADD40C,1.700000*%
%ADD41R,1.850000X3.500000*%
%ADD42RoundRect,0.375000X0.625000X0.375000X-0.625000X0.375000X-0.625000X-0.375000X0.625000X-0.375000X0*%
%ADD43RoundRect,0.500000X0.500000X1.400000X-0.500000X1.400000X-0.500000X-1.400000X0.500000X-1.400000X0*%
%ADD44C,3.800000*%
%ADD45RoundRect,0.200000X0.275000X-0.200000X0.275000X0.200000X-0.275000X0.200000X-0.275000X-0.200000X0*%
%ADD46O,0.600000X1.300000*%
%ADD47RoundRect,0.625000X-1.125000X0.625000X-1.125000X-0.625000X1.125000X-0.625000X1.125000X0.625000X0*%
%ADD48RoundRect,0.150000X0.825000X0.150000X-0.825000X0.150000X-0.825000X-0.150000X0.825000X-0.150000X0*%
%ADD49R,0.600000X1.450000*%
%ADD50R,0.300000X1.450000*%
%ADD51O,1.000000X2.100000*%
%ADD52O,1.000000X1.600000*%
%ADD53R,1.000000X1.500000*%
%ADD54RoundRect,0.250000X-0.750000X0.275000X-0.750000X-0.275000X0.750000X-0.275000X0.750000X0.275000X0*%
%ADD55RoundRect,0.200000X-0.200000X-0.275000X0.200000X-0.275000X0.200000X0.275000X-0.200000X0.275000X0*%
G04 APERTURE END LIST*
D10*
%TO.C,JP1*%
G36*
X99000001Y-66750000D02*
G01*
X98700001Y-66750000D01*
X98700001Y-65250000D01*
X99000001Y-65250000D01*
X99000001Y-66750000D01*
G37*
%TD*%
D11*
%TO.C,SW1*%
X113325001Y-67000000D03*
X108874999Y-67000000D03*
%TD*%
D12*
%TO.C,D5*%
X70657500Y-56400000D03*
X72232500Y-56400000D03*
%TD*%
%TO.C,D4*%
X63225000Y-56400000D03*
X64800000Y-56400000D03*
%TD*%
%TO.C,D3*%
X55825000Y-56400000D03*
X57400000Y-56400000D03*
%TD*%
D13*
%TO.C,D8*%
X111987500Y-64200000D03*
X110412500Y-64200000D03*
%TD*%
D14*
%TO.C,R5*%
X75650000Y-56400000D03*
X74000000Y-56400000D03*
%TD*%
%TO.C,R4*%
X68217500Y-56400000D03*
X66567500Y-56400000D03*
%TD*%
%TO.C,R3*%
X60825000Y-56400000D03*
X59175000Y-56400000D03*
%TD*%
D15*
%TO.C,C20*%
X68725000Y-89000000D03*
X70275000Y-89000000D03*
%TD*%
%TO.C,C26*%
X85000000Y-65500000D03*
X83450000Y-65500000D03*
%TD*%
D16*
%TO.C,C25*%
X97500000Y-60775000D03*
X97500000Y-59225000D03*
%TD*%
D17*
%TO.C,D9*%
X106500000Y-66000000D03*
X102500000Y-66000000D03*
%TD*%
D18*
%TO.C,U9*%
X93337500Y-61837500D03*
X93337500Y-62337500D03*
X93337500Y-62837500D03*
X93337500Y-63337500D03*
D19*
X94000000Y-63500000D03*
X94500000Y-63500000D03*
X95000000Y-63500000D03*
D18*
X95662500Y-63337500D03*
X95662500Y-62837500D03*
X95662500Y-62337500D03*
X95662500Y-61837500D03*
D19*
X95000000Y-61675000D03*
X94500000Y-61675000D03*
X94000000Y-61675000D03*
%TD*%
D20*
%TO.C,C3*%
X55500000Y-89500000D03*
D21*
X55500000Y-86000000D03*
%TD*%
D20*
%TO.C,C10*%
X55500000Y-62500000D03*
D22*
X55500000Y-66000000D03*
%TD*%
D23*
%TO.C,J4*%
X80980000Y-57460000D03*
D24*
X83520000Y-57460000D03*
%TD*%
D25*
%TO.C,J8*%
X61000000Y-80742500D03*
D26*
X58000000Y-76042500D03*
D27*
X64000000Y-76042500D03*
%TD*%
D28*
%TO.C,C16*%
X76000001Y-64275000D03*
X76000001Y-62725000D03*
%TD*%
D29*
%TO.C,U2*%
X64960000Y-91342499D03*
X64960000Y-90447500D03*
X64960000Y-89552500D03*
X64960000Y-88657501D03*
X63490000Y-91342499D03*
X63490000Y-90447500D03*
X63490000Y-89552500D03*
X63490000Y-88657501D03*
D30*
X67000000Y-87725000D03*
X67000000Y-88375000D03*
X67000000Y-89025000D03*
X67000000Y-89675000D03*
X67000000Y-90325000D03*
X67000000Y-90975000D03*
X67000000Y-91625000D03*
X67000000Y-92275000D03*
X61450000Y-92275000D03*
X61450000Y-91625000D03*
X61450000Y-90975000D03*
X61450000Y-90325000D03*
X61450000Y-89675000D03*
X61450000Y-89025000D03*
X61450000Y-88375000D03*
X61450000Y-87725000D03*
%TD*%
D31*
%TO.C,U3*%
X112800001Y-70000000D03*
X111950000Y-70000000D03*
X111100000Y-70000000D03*
X110250000Y-70000000D03*
X109400000Y-70000001D03*
X108550000Y-70000000D03*
X107700000Y-70000000D03*
X106850000Y-70000000D03*
X105999999Y-70000000D03*
X105150000Y-70000000D03*
X104300000Y-70000000D03*
X103450000Y-70000000D03*
X102599999Y-70000000D03*
X101750001Y-70000000D03*
X100900000Y-70000000D03*
D32*
X99850000Y-71050000D03*
X99850000Y-71900000D03*
X99850000Y-72750000D03*
X99850000Y-73600000D03*
X99850000Y-74450000D03*
X99850000Y-75300000D03*
X99850000Y-76150000D03*
X99850000Y-77000000D03*
X99850000Y-77850000D03*
X99850000Y-78700000D03*
X99850000Y-79550000D03*
X99850000Y-80400000D03*
X99850000Y-81250000D03*
X99850000Y-82100000D03*
X99850000Y-82950000D03*
D31*
X100900000Y-84000000D03*
X101750001Y-84000000D03*
X102599999Y-84000000D03*
X103450000Y-84000000D03*
X104300000Y-84000000D03*
X105150000Y-84000000D03*
X105999999Y-84000000D03*
X106850000Y-84000000D03*
X107700000Y-84000000D03*
X108550000Y-84000000D03*
X109400000Y-83999999D03*
X110250000Y-84000000D03*
X111100000Y-84000000D03*
X111950000Y-84000000D03*
X112800001Y-84000000D03*
D32*
X113850000Y-82950000D03*
X113850000Y-82100000D03*
X113850000Y-81250000D03*
X113850000Y-80400000D03*
X113850000Y-79550000D03*
X113850000Y-78700000D03*
X113850000Y-77850000D03*
X113850000Y-77000000D03*
X113850000Y-76150000D03*
X113850000Y-75300000D03*
X113850000Y-74450000D03*
X113850000Y-73600000D03*
X113850000Y-72750000D03*
X113850000Y-71900000D03*
X113850000Y-71050000D03*
D33*
X108500000Y-75350000D03*
D34*
X106850000Y-75350000D03*
X105200000Y-75350000D03*
X108500000Y-77000000D03*
X106850000Y-77000000D03*
X105200001Y-77000000D03*
X108500000Y-78650000D03*
X106850000Y-78650000D03*
X105200000Y-78650000D03*
D35*
X113850000Y-70000000D03*
X99850000Y-70000000D03*
X99850000Y-84000000D03*
X113850000Y-84000000D03*
%TD*%
D36*
%TO.C,U10*%
X95500000Y-84750000D03*
X92960000Y-84750000D03*
X90420000Y-84750000D03*
X87880000Y-84750001D03*
X85340000Y-84750000D03*
X82800000Y-84750000D03*
X82800000Y-69250000D03*
X85340000Y-69250000D03*
X87880000Y-69249999D03*
X90420000Y-69250000D03*
X92960000Y-69250000D03*
X95500000Y-69250000D03*
%TD*%
D37*
%TO.C,J7*%
X99500000Y-97000000D03*
X102000000Y-97000000D03*
X104500000Y-97000000D03*
D38*
X107000000Y-97000000D03*
%TD*%
D37*
%TO.C,J5*%
X85500000Y-97000000D03*
X88000000Y-97000000D03*
X90500000Y-97000000D03*
D38*
X93000000Y-97000000D03*
%TD*%
D37*
%TO.C,J3*%
X71500000Y-97000000D03*
X74000000Y-97000000D03*
X76500000Y-97000000D03*
D38*
X79000000Y-97000000D03*
%TD*%
D39*
%TO.C,J1*%
X90500000Y-64775000D03*
D40*
X90500000Y-62235000D03*
%TD*%
D16*
%TO.C,C19*%
X97500000Y-57275000D03*
X97500000Y-55725000D03*
%TD*%
D41*
%TO.C,L1*%
X73975000Y-73000000D03*
X79525000Y-73000000D03*
%TD*%
D28*
%TO.C,C2*%
X113675000Y-62725000D03*
X113675000Y-64275000D03*
%TD*%
D42*
%TO.C,U6*%
X68650000Y-67300000D03*
X68649999Y-65000000D03*
D43*
X62350001Y-65000000D03*
D42*
X68650000Y-62700000D03*
%TD*%
D44*
%TO.C,H1*%
X52000000Y-98000000D03*
%TD*%
D15*
%TO.C,C24*%
X109050000Y-86000000D03*
X107500000Y-86000000D03*
%TD*%
%TO.C,C33*%
X85050000Y-62500000D03*
X83500000Y-62500000D03*
%TD*%
D17*
%TO.C,D2*%
X74750000Y-79000000D03*
X78750000Y-79000000D03*
%TD*%
D28*
%TO.C,C12*%
X76000000Y-66200000D03*
X76000000Y-67750000D03*
%TD*%
D44*
%TO.C,H2*%
X112500000Y-98000000D03*
%TD*%
D45*
%TO.C,R6*%
X110500000Y-60600000D03*
X110500000Y-58950000D03*
%TD*%
D28*
%TO.C,C17*%
X74000000Y-62725000D03*
X74000000Y-64275000D03*
%TD*%
D46*
%TO.C,U1*%
X71500000Y-75850000D03*
X70230000Y-75850000D03*
X68950000Y-75850000D03*
X67680000Y-75850000D03*
X67680000Y-81250000D03*
X68950000Y-81250000D03*
X70230000Y-81250000D03*
X71500000Y-81250000D03*
D47*
X69590000Y-78550000D03*
%TD*%
D16*
%TO.C,C8*%
X61000000Y-85500000D03*
X61000000Y-83950000D03*
%TD*%
D15*
%TO.C,C21*%
X84275000Y-89000000D03*
X82725000Y-89000000D03*
%TD*%
%TO.C,C22*%
X112775000Y-94500000D03*
X111225000Y-94500000D03*
%TD*%
D16*
%TO.C,C4*%
X63000000Y-85500000D03*
X63000000Y-83950000D03*
%TD*%
%TO.C,C5*%
X65000000Y-85500000D03*
X65000000Y-83950000D03*
%TD*%
D28*
%TO.C,C11*%
X78000000Y-66200000D03*
X78000000Y-67750000D03*
%TD*%
D44*
%TO.C,H3*%
X52000000Y-56000000D03*
%TD*%
D48*
%TO.C,U8*%
X94975000Y-59405000D03*
X94975000Y-58135000D03*
X94975000Y-56865000D03*
X94975000Y-55595000D03*
X90025000Y-55595000D03*
X90025000Y-56865000D03*
X90025000Y-58135000D03*
X90025000Y-59405000D03*
%TD*%
D45*
%TO.C,R1*%
X87500000Y-61325000D03*
X87500000Y-59675000D03*
%TD*%
D30*
%TO.C,U7*%
X103490000Y-87725000D03*
X103490000Y-88375000D03*
X103490000Y-89025000D03*
X103490000Y-89675000D03*
X103490000Y-90325000D03*
X103490000Y-90975000D03*
X103490000Y-91625000D03*
X103490000Y-92275000D03*
X109040000Y-92275000D03*
X109040000Y-91625000D03*
X109040000Y-90975000D03*
X109040000Y-90325000D03*
X109040000Y-89675000D03*
X109040000Y-89025000D03*
X109040000Y-88375000D03*
X109040000Y-87725000D03*
D29*
X105530000Y-88657501D03*
X105530000Y-89552500D03*
X105530000Y-90447500D03*
X105530000Y-91342499D03*
X107000000Y-88657501D03*
X107000000Y-89552500D03*
X107000000Y-90447500D03*
X107000000Y-91342499D03*
%TD*%
D49*
%TO.C,J6*%
X107250000Y-62045000D03*
X106450001Y-62045000D03*
D50*
X105250000Y-62044999D03*
X104250000Y-62045000D03*
X103750000Y-62045000D03*
X102750000Y-62044999D03*
D49*
X101549999Y-62045000D03*
X100750000Y-62045000D03*
X100750000Y-62045000D03*
X101549999Y-62045000D03*
D50*
X102250000Y-62045000D03*
X103250000Y-62045000D03*
X104750000Y-62045000D03*
X105750000Y-62045000D03*
D49*
X106450001Y-62045000D03*
X107250000Y-62045000D03*
D51*
X108320000Y-61130000D03*
D52*
X108320000Y-56950000D03*
D51*
X99680000Y-61130000D03*
D52*
X99680000Y-56950000D03*
%TD*%
D53*
%TO.C,JP1*%
X99500000Y-66000000D03*
X98200002Y-66000000D03*
%TD*%
D16*
%TO.C,C9*%
X70750000Y-73775000D03*
X70750000Y-72225000D03*
%TD*%
D54*
%TO.C,SW2*%
X112500000Y-88000000D03*
X112500000Y-92450002D03*
%TD*%
D45*
%TO.C,R16*%
X87500000Y-65500000D03*
X87500000Y-63850000D03*
%TD*%
D38*
%TO.C,J2*%
X65000000Y-97000000D03*
D37*
X62500000Y-97000000D03*
X60000000Y-97000000D03*
X57500000Y-97000000D03*
%TD*%
D16*
%TO.C,C7*%
X69000000Y-85500000D03*
X69000000Y-83950000D03*
%TD*%
D15*
%TO.C,C32*%
X81000000Y-62500000D03*
X79450000Y-62500000D03*
%TD*%
%TO.C,C23*%
X98275000Y-89000000D03*
X96725000Y-89000000D03*
%TD*%
D14*
%TO.C,R8*%
X112015199Y-62400000D03*
X110365199Y-62400000D03*
%TD*%
D28*
%TO.C,C18*%
X71999999Y-62725000D03*
X71999999Y-64275000D03*
%TD*%
D16*
%TO.C,C6*%
X67000000Y-85500000D03*
X67000000Y-83950000D03*
%TD*%
D28*
%TO.C,C15*%
X80000000Y-66225000D03*
X80000000Y-67775000D03*
%TD*%
D55*
%TO.C,R10*%
X66925000Y-72000000D03*
X68575000Y-72000000D03*
%TD*%
D30*
%TO.C,U4*%
X75490000Y-87725000D03*
X75490000Y-88375000D03*
X75490000Y-89025000D03*
X75490000Y-89675000D03*
X75490000Y-90325000D03*
X75490000Y-90975000D03*
X75490000Y-91625000D03*
X75490000Y-92275000D03*
X81040000Y-92275000D03*
X81040000Y-91625000D03*
X81040000Y-90975000D03*
X81040000Y-90325000D03*
X81040000Y-89675000D03*
X81040000Y-89025000D03*
X81040000Y-88375000D03*
X81040000Y-87725000D03*
D29*
X77530000Y-88657501D03*
X77530000Y-89552500D03*
X77530000Y-90447500D03*
X77530000Y-91342499D03*
X79000000Y-88657501D03*
X79000000Y-89552500D03*
X79000000Y-90447500D03*
X79000000Y-91342499D03*
%TD*%
D28*
%TO.C,C14*%
X72000000Y-66200000D03*
X72000000Y-67750000D03*
%TD*%
D45*
%TO.C,R7*%
X112500000Y-60600000D03*
X112500000Y-58950000D03*
%TD*%
D28*
%TO.C,C13*%
X74000000Y-66200000D03*
X74000000Y-67750000D03*
%TD*%
D14*
%TO.C,R11*%
X68575000Y-74000000D03*
X66925000Y-74000000D03*
%TD*%
D44*
%TO.C,H4*%
X112500000Y-56000000D03*
%TD*%
D55*
%TO.C,R23*%
X111175000Y-86000000D03*
X112825000Y-86000000D03*
%TD*%
D30*
%TO.C,U5*%
X89450000Y-87725000D03*
X89450000Y-88375000D03*
X89450000Y-89025000D03*
X89450000Y-89675000D03*
X89450000Y-90325000D03*
X89450000Y-90975000D03*
X89450000Y-91625000D03*
X89450000Y-92275000D03*
X95000000Y-92275000D03*
X95000000Y-91625000D03*
X95000000Y-90975000D03*
X95000000Y-90325000D03*
X95000000Y-89675000D03*
X95000000Y-89025000D03*
X95000000Y-88375000D03*
X95000000Y-87725000D03*
D29*
X91490000Y-88657501D03*
X91490000Y-89552500D03*
X91490000Y-90447500D03*
X91490000Y-91342499D03*
X92960000Y-88657501D03*
X92960000Y-89552500D03*
X92960000Y-90447500D03*
X92960000Y-91342499D03*
%TD*%
M02*
