M48
; DRILL file {KiCad 9.0.5} date 2026-01-17T21:03:59+1100
; FORMAT={-:-/ absolute / inch / decimal}
; #@! TF.CreationDate,2026-01-17T21:03:59+11:00
; #@! TF.GenerationSoftware,Kicad,Pcbnew,9.0.5
; #@! TF.FileFunction,Plated,1,4,PTH
FMAT,2
INCH
; #@! TA.AperFunction,Plated,PTH,ViaDrill
T1C0.0118
; #@! TA.AperFunction,Plated,PTH,ComponentDrill
T2C0.0118
; #@! TA.AperFunction,Plated,PTH,ComponentDrill
T3C0.0236
; #@! TA.AperFunction,Plated,PTH,ComponentDrill
T4C0.0276
; #@! TA.AperFunction,Plated,PTH,ComponentDrill
T5C0.0315
; #@! TA.AperFunction,Plated,PTH,ComponentDrill
T6C0.0374
; #@! TA.AperFunction,Plated,PTH,ComponentDrill
T7C0.0394
; #@! TA.AperFunction,Plated,PTH,ComponentDrill
T8C0.0866
%
G90
G05
T1
X5.0984Y-3.7598
X5.1181Y-3.8287
X5.1949Y-4.0256
X5.2067Y-3.9665
X5.2165Y-3.7943
X5.2224Y-4.0551
X5.2224Y-4.0945
X5.2559Y-3.248
X5.2559Y-3.6614
X5.2727Y-3.8976
X5.2913Y-3.6089
X5.2935Y-3.5079
X5.3036Y-3.3381
X5.3051Y-4.1339
X5.3346Y-4.3799
X5.3457Y-3.723
X5.3457Y-3.7583
X5.3457Y-3.7935
X5.3457Y-3.8287
X5.3457Y-3.9789
X5.3457Y-4.0142
X5.3457Y-4.0494
X5.3457Y-4.0846
X5.374Y-4.3209
X5.3937Y-3.3465
X5.4035Y-3.723
X5.4035Y-3.7583
X5.4035Y-3.7935
X5.4035Y-3.8287
X5.4035Y-3.9789
X5.4035Y-4.0142
X5.4035Y-4.0494
X5.4035Y-4.0846
X5.4232Y-4.3799
X5.4429Y-3.376
X5.4626Y-4.2618
X5.4823Y-4.8425
X5.5203Y-3.5597
X5.5217Y-3.6909
X5.5217Y-3.7224
X5.5217Y-3.7894
X5.5217Y-3.8209
X5.5217Y-4.0433
X5.5217Y-4.0748
X5.5225Y-3.8582
X5.5315Y-4.123
X5.5413Y-4.5768
X5.6299Y-3.3223
X5.6791Y-3.7598
X5.6863Y-3.6089
X5.689Y-4.1634
X5.689Y-4.2323
X5.689Y-4.3012
X5.689Y-4.3701
X5.689Y-4.4291
X5.689Y-4.498
X5.689Y-4.6949
X5.6988Y-3.9173
X5.7103Y-3.5491
X5.7185Y-4.2618
X5.7382Y-3.8287
X5.748Y-3.8878
X5.7776Y-3.3238
X5.7874Y-3.4606
X5.7874Y-3.7598
X5.7906Y-3.7212
X5.8169Y-3.8091
X5.8169Y-3.9173
X5.8209Y-3.6487
X5.8231Y-3.6153
X5.8465Y-3.7981
X5.8465Y-3.6811
X5.8465Y-4.1732
X5.8563Y-3.7402
X5.8597Y-3.5795
X5.8661Y-4.0551
X5.876Y-3.8091
X5.8799Y-3.9059
X5.8898Y-3.4753
X5.9154Y-3.8091
X5.9207Y-3.4667
X5.9243Y-3.5772
X5.9252Y-3.6516
X5.9449Y-3.7697
X5.9449Y-3.9862
X5.9825Y-3.4351
X5.9878Y-3.4766
X5.9941Y-3.248
X5.9941Y-3.3268
X5.9961Y-3.404
X6.0039Y-3.75
X6.0236Y-3.622
X6.0335Y-4.0748
X6.0433Y-3.9469
X6.063Y-3.878
X6.0728Y-3.563
X6.1211Y-3.7137
X6.122Y-3.8189
X6.1256Y-3.7469
X6.1319Y-3.8976
X6.1347Y-3.5798
X6.1417Y-4.0059
X6.1516Y-3.6279
X6.1752Y-3.6516
X6.25Y-4.0945
X6.25Y-4.2618
X6.25Y-4.3307
X6.25Y-4.3996
X6.2795Y-3.6909
X6.2795Y-3.8681
X6.2795Y-3.9941
X6.2795Y-4.0256
X6.2795Y-4.124
X6.2894Y-3.7402
X6.2894Y-3.7717
X6.2894Y-3.9272
X6.3585Y-3.716
X6.4071Y-3.7267
X6.4071Y-3.7619
X6.4071Y-3.7971
X6.4071Y-3.8324
X6.4087Y-3.9846
X6.4087Y-4.0199
X6.4087Y-4.0551
X6.4087Y-4.0904
X6.437Y-3.1988
X6.465Y-3.7267
X6.465Y-3.7619
X6.465Y-3.7971
X6.465Y-3.8324
X6.4665Y-3.9846
X6.4665Y-4.0199
X6.4665Y-4.0551
X6.4665Y-4.0904
X6.4665Y-4.685
X6.4764Y-4.498
X6.5157Y-4.685
X6.5256Y-4.498
X6.5354Y-3.6673
X6.5453Y-3.9173
X6.5781Y-3.7655
X6.5846Y-3.8976
X6.6339Y-3.9567
X6.6603Y-3.3774
X6.6617Y-3.4151
X6.6624Y-3.4626
T2
X5.502Y-4.685
X5.502Y-4.7677
X5.502Y-4.7244
X5.565Y-4.7244
X5.565Y-4.685
X5.565Y-4.7677
T4
X5.0189Y-3.2949
X5.0189Y-3.3449
X5.0189Y-3.3949
X5.0189Y-3.4449
X5.0189Y-3.4949
X5.0689Y-3.2949
X5.0689Y-3.3449
X5.0689Y-3.3949
X5.0689Y-3.4449
X5.0689Y-3.4949
T5
X6.3583Y-4.4193
X6.3583Y-4.7539
X6.4961Y-4.4193
X6.4961Y-4.7539
T6
X5.0295Y-3.7795
X5.0295Y-3.878
X5.0295Y-3.9764
X5.0295Y-4.0748
X5.0295Y-4.3504
X5.0295Y-4.4488
X5.0295Y-4.5472
X5.0295Y-4.6457
X6.7717Y-3.7795
X6.7717Y-3.878
X6.7717Y-3.9764
X6.7717Y-4.0748
X6.7717Y-4.3504
X6.7717Y-4.4488
X6.7717Y-4.5472
X6.7717Y-4.6457
T7
X5.7555Y-3.0709
X5.8555Y-3.0709
X5.9555Y-3.0709
X6.0555Y-3.0709
T8
X5.0Y-3.0709
X5.0098Y-4.872
X6.8012Y-3.0807
X6.8012Y-4.872
T3
G00X6.5874Y-3.2551
M15
G01X6.6307Y-3.2551
M16
G05
G00X6.5874Y-3.5953
M15
G01X6.6307Y-3.5953
M16
G05
G00X6.7618Y-3.2551
M15
G01X6.7854Y-3.2551
M16
G05
G00X6.7618Y-3.5953
M15
G01X6.7854Y-3.5953
M16
G05
T7
G00X5.8661Y-4.4094
M15
G01X5.9449Y-4.4094
M16
G05
G00X5.8661Y-4.6457
M15
G01X5.9449Y-4.6457
M16
G05
G00X6.0906Y-4.5669
M15
G01X6.0906Y-4.4882
M16
G05
M30
